G04*
G04 #@! TF.GenerationSoftware,Altium Limited,Altium Designer,20.2.6 (244)*
G04*
G04 Layer_Physical_Order=2*
G04 Layer_Color=16711680*
%FSLAX25Y25*%
%MOIN*%
G70*
G04*
G04 #@! TF.SameCoordinates,3A923CF8-0E80-4BF5-A473-74316D4CB4A5*
G04*
G04*
G04 #@! TF.FilePolarity,Positive*
G04*
G01*
G75*
%ADD10C,0.00787*%
%ADD12C,0.01000*%
%ADD17C,0.01500*%
%ADD18C,0.00100*%
%ADD19C,0.01378*%
%ADD20C,0.01575*%
%ADD21C,0.01299*%
%ADD22C,0.03200*%
%ADD23R,0.03937X0.03543*%
%ADD24R,0.05906X0.05118*%
%ADD25R,0.03543X0.03937*%
%ADD26R,0.05118X0.05906*%
%ADD37C,0.02000*%
%ADD38C,0.05906*%
%ADD39C,0.09843*%
%ADD40C,0.03937*%
%ADD41R,0.03937X0.03937*%
%ADD42C,0.14567*%
%ADD43C,0.02362*%
%ADD44C,0.03150*%
%ADD45R,0.06693X0.09449*%
%ADD46R,0.04331X0.02559*%
%ADD47R,0.08268X0.11811*%
%ADD48R,0.03150X0.05118*%
%ADD49O,0.06496X0.01181*%
%ADD50O,0.01181X0.06496*%
G36*
X315139Y109245D02*
X316533Y108871D01*
X317867Y108319D01*
X319118Y107597D01*
X320264Y106718D01*
X321285Y105697D01*
X322164Y104551D01*
X322886Y103301D01*
X323438Y101967D01*
X323812Y100572D01*
X324000Y99140D01*
Y98418D01*
Y11754D01*
Y11036D01*
X323813Y9613D01*
X323442Y8226D01*
X322892Y6900D01*
X322174Y5657D01*
X321301Y4518D01*
X320285Y3503D01*
X319146Y2629D01*
X317903Y1911D01*
X316577Y1362D01*
X315191Y990D01*
X313767Y803D01*
X10951D01*
X9540Y989D01*
X8165Y1357D01*
X6849Y1902D01*
X5616Y2614D01*
X4487Y3480D01*
X3480Y4487D01*
X2614Y5616D01*
X1902Y6849D01*
X1357Y8165D01*
X989Y9540D01*
X803Y10951D01*
Y11663D01*
Y98443D01*
Y99164D01*
X991Y100592D01*
X1364Y101983D01*
X1915Y103314D01*
X2635Y104562D01*
X3512Y105705D01*
X4531Y106724D01*
X5674Y107601D01*
X6922Y108321D01*
X8253Y108872D01*
X9644Y109245D01*
X11073Y109433D01*
X313707D01*
X315139Y109245D01*
D02*
G37*
%LPC*%
G36*
X312402Y106749D02*
X310778Y106589D01*
X309216Y106115D01*
X307777Y105346D01*
X306516Y104311D01*
X305481Y103050D01*
X304712Y101611D01*
X304238Y100049D01*
X304078Y98425D01*
X304238Y96801D01*
X304712Y95240D01*
X305481Y93801D01*
X306516Y92540D01*
X307777Y91504D01*
X309216Y90735D01*
X310778Y90262D01*
X312402Y90102D01*
X314025Y90262D01*
X315587Y90735D01*
X317026Y91504D01*
X318287Y92540D01*
X319322Y93801D01*
X320092Y95240D01*
X320565Y96801D01*
X320725Y98425D01*
X320565Y100049D01*
X320092Y101611D01*
X319322Y103050D01*
X318287Y104311D01*
X317026Y105346D01*
X315587Y106115D01*
X314025Y106589D01*
X312402Y106749D01*
D02*
G37*
G36*
X12402D02*
X10778Y106589D01*
X9216Y106115D01*
X7777Y105346D01*
X6516Y104311D01*
X5481Y103050D01*
X4712Y101611D01*
X4238Y100049D01*
X4078Y98425D01*
X4238Y96801D01*
X4712Y95240D01*
X5481Y93801D01*
X6516Y92540D01*
X7777Y91504D01*
X9216Y90735D01*
X10778Y90262D01*
X12402Y90102D01*
X14025Y90262D01*
X15587Y90735D01*
X17026Y91504D01*
X18287Y92540D01*
X19322Y93801D01*
X20091Y95240D01*
X20565Y96801D01*
X20725Y98425D01*
X20565Y100049D01*
X20091Y101611D01*
X19322Y103050D01*
X18287Y104311D01*
X17026Y105346D01*
X15587Y106115D01*
X14025Y106589D01*
X12402Y106749D01*
D02*
G37*
G36*
X295076Y99336D02*
X293839Y99134D01*
X292695Y98624D01*
X291719Y97838D01*
X290975Y96829D01*
X290514Y95664D01*
X290366Y94420D01*
X290453Y93799D01*
X290453D01*
X290566Y93165D01*
X291111Y91998D01*
X291938Y91010D01*
X292990Y90267D01*
X294199Y89819D01*
X295481Y89697D01*
X296752Y89909D01*
X297926Y90439D01*
X298425Y90847D01*
X298425Y90847D01*
X298425Y90847D01*
X298895Y91261D01*
X299593Y92301D01*
X300002Y93486D01*
X300095Y94735D01*
X299866Y95968D01*
X299331Y97100D01*
X298523Y98059D01*
X297498Y98779D01*
X296323Y99215D01*
X295076Y99336D01*
D02*
G37*
G36*
X29328D02*
X28091Y99134D01*
X26947Y98624D01*
X25971Y97838D01*
X25227Y96829D01*
X24766Y95664D01*
X24618Y94420D01*
X24705Y93799D01*
X24705D01*
X24818Y93165D01*
X25363Y91998D01*
X26190Y91010D01*
X27242Y90267D01*
X28451Y89819D01*
X29733Y89697D01*
X31004Y89909D01*
X32178Y90439D01*
X32677Y90847D01*
X32677Y90847D01*
X32677Y90847D01*
X33147Y91261D01*
X33845Y92301D01*
X34254Y93486D01*
X34347Y94735D01*
X34118Y95968D01*
X33583Y97100D01*
X32776Y98059D01*
X31750Y98779D01*
X30575Y99215D01*
X29328Y99336D01*
D02*
G37*
G36*
X113426Y107140D02*
X53937D01*
X53352Y107023D01*
X52856Y106692D01*
X26780Y80616D01*
X26705Y80567D01*
X26585Y80508D01*
X26424Y80447D01*
X26222Y80390D01*
X25981Y80340D01*
X25713Y80302D01*
X25022Y80255D01*
X24713Y80252D01*
X24606Y80266D01*
X23574Y80130D01*
X22613Y79732D01*
X21787Y79099D01*
X21154Y78273D01*
X20755Y77311D01*
X20619Y76279D01*
X20755Y75248D01*
X21154Y74286D01*
X21787Y73460D01*
X22613Y72827D01*
X23574Y72429D01*
X24606Y72293D01*
X25638Y72429D01*
X26600Y72827D01*
X27425Y73460D01*
X28059Y74286D01*
X28457Y75248D01*
X28593Y76279D01*
X28579Y76386D01*
X28581Y76695D01*
X28628Y77387D01*
X28667Y77654D01*
X28717Y77895D01*
X28774Y78097D01*
X28834Y78258D01*
X28894Y78378D01*
X28943Y78453D01*
X54571Y104081D01*
X112793D01*
X120715Y96159D01*
Y90370D01*
X118870Y88525D01*
X118709Y88376D01*
X118588Y88279D01*
X118583Y88276D01*
X118395D01*
X118357Y88283D01*
X118319Y88276D01*
X113340D01*
Y95975D01*
X113224Y96560D01*
X112892Y97056D01*
X109882Y100066D01*
X109386Y100398D01*
X108801Y100514D01*
X57867D01*
X57282Y100398D01*
X56786Y100066D01*
X26780Y70060D01*
X26705Y70011D01*
X26585Y69952D01*
X26424Y69891D01*
X26222Y69834D01*
X25981Y69784D01*
X25713Y69745D01*
X25022Y69699D01*
X24713Y69696D01*
X24606Y69710D01*
X23574Y69574D01*
X22613Y69176D01*
X21787Y68543D01*
X21154Y67717D01*
X20755Y66755D01*
X20619Y65723D01*
X20755Y64692D01*
X21154Y63730D01*
X21787Y62904D01*
X22613Y62271D01*
X23574Y61872D01*
X24606Y61737D01*
X25638Y61872D01*
X26600Y62271D01*
X27425Y62904D01*
X28059Y63730D01*
X28457Y64692D01*
X28593Y65723D01*
X28579Y65830D01*
X28581Y66139D01*
X28628Y66830D01*
X28667Y67098D01*
X28717Y67339D01*
X28774Y67541D01*
X28834Y67702D01*
X28894Y67822D01*
X28943Y67897D01*
X58501Y97455D01*
X101362D01*
Y95218D01*
X63182D01*
X62597Y95101D01*
X62101Y94770D01*
X26835Y59504D01*
X26760Y59455D01*
X26640Y59395D01*
X26479Y59335D01*
X26277Y59278D01*
X26036Y59228D01*
X25768Y59189D01*
X25076Y59142D01*
X24768Y59140D01*
X24661Y59154D01*
X23629Y59018D01*
X22668Y58620D01*
X21842Y57986D01*
X21208Y57161D01*
X20810Y56199D01*
X20674Y55167D01*
X20810Y54135D01*
X21208Y53174D01*
X21842Y52348D01*
X22668Y51715D01*
X23629Y51316D01*
X24661Y51180D01*
X25693Y51316D01*
X26655Y51715D01*
X27480Y52348D01*
X28114Y53174D01*
X28512Y54135D01*
X28648Y55167D01*
X28634Y55274D01*
X28636Y55583D01*
X28683Y56274D01*
X28722Y56542D01*
X28772Y56783D01*
X28829Y56985D01*
X28889Y57146D01*
X28949Y57266D01*
X28998Y57341D01*
X63816Y92159D01*
X101362D01*
Y91579D01*
X104922D01*
X104947Y91573D01*
X105038Y91568D01*
X105081Y91562D01*
X105129Y91550D01*
X105185Y91530D01*
X105249Y91501D01*
X105322Y91461D01*
X105403Y91408D01*
X105492Y91342D01*
X105534Y91307D01*
X106681Y90159D01*
X106490Y89697D01*
X101362D01*
Y83664D01*
X101064Y83321D01*
X100593Y82850D01*
X96212D01*
X96173Y82857D01*
X96135Y82850D01*
X95161D01*
Y82320D01*
X94661Y82165D01*
X94507Y82284D01*
X93881Y82543D01*
X93209Y82632D01*
X92536Y82543D01*
X91910Y82284D01*
X91653Y82087D01*
X91633Y82085D01*
X91158Y82352D01*
Y82850D01*
X90184D01*
X90145Y82857D01*
X90107Y82850D01*
X85220D01*
Y78223D01*
X84866Y77871D01*
X78378Y77901D01*
X77181Y79099D01*
Y79597D01*
X76683D01*
X76410Y79870D01*
X76079Y80091D01*
X75689Y80168D01*
X70177Y80168D01*
X69787Y80091D01*
X69456Y79870D01*
X69235Y79539D01*
X69158Y79149D01*
Y78141D01*
X69098Y78125D01*
X68884Y78090D01*
X68735Y78077D01*
X60341D01*
X60250Y78087D01*
X60070Y78123D01*
X59895Y78174D01*
X59724Y78239D01*
X59556Y78319D01*
X59389Y78416D01*
X59223Y78530D01*
X59056Y78663D01*
X58967Y78745D01*
X58921Y78805D01*
X58096Y79438D01*
X57134Y79836D01*
X56102Y79972D01*
X55071Y79836D01*
X54109Y79438D01*
X53283Y78805D01*
X52650Y77979D01*
X52251Y77017D01*
X52115Y75985D01*
X52251Y74954D01*
X52650Y73992D01*
X53283Y73166D01*
X54109Y72533D01*
X55071Y72135D01*
X56102Y71999D01*
X57134Y72135D01*
X58096Y72533D01*
X58921Y73166D01*
X58993Y73260D01*
X59145Y73409D01*
X59302Y73543D01*
X59460Y73658D01*
X59619Y73755D01*
X59780Y73835D01*
X59945Y73900D01*
X60114Y73950D01*
X60290Y73987D01*
X60383Y73998D01*
X68735D01*
X68884Y73985D01*
X69098Y73950D01*
X69158Y73934D01*
Y73342D01*
X69235Y72952D01*
X69276Y72891D01*
Y72478D01*
X69599D01*
X74097Y67980D01*
X73779Y67591D01*
X73587Y67719D01*
X72736Y67888D01*
X71885Y67719D01*
X71164Y67237D01*
X70682Y66516D01*
X70512Y65665D01*
X70682Y64814D01*
X71164Y64092D01*
X71885Y63610D01*
X72736Y63441D01*
X73587Y63610D01*
X74309Y64092D01*
X74331Y64126D01*
X74360Y64132D01*
X74379Y64135D01*
X75761D01*
X75941Y64126D01*
X75945Y64126D01*
X75948Y64126D01*
X75974Y64123D01*
X75976Y64123D01*
X76378Y64043D01*
X81693D01*
X81973Y63696D01*
X81882Y63584D01*
X81558Y63349D01*
X76378D01*
X75757Y63226D01*
X75231Y62874D01*
X74880Y62348D01*
X74756Y61728D01*
X74880Y61107D01*
X75123Y60743D01*
X74880Y60380D01*
X74756Y59759D01*
X74880Y59139D01*
X75123Y58775D01*
X74880Y58411D01*
X74840Y58214D01*
X74775Y58095D01*
X74574Y58086D01*
X74446Y58183D01*
X74185Y58569D01*
X74251Y59070D01*
X74162Y59742D01*
X73903Y60369D01*
X73490Y60906D01*
X72952Y61319D01*
X72326Y61579D01*
X71653Y61667D01*
X70981Y61579D01*
X70355Y61319D01*
X69817Y60906D01*
X69404Y60369D01*
X69145Y59742D01*
X69056Y59070D01*
X69145Y58398D01*
X69269Y58098D01*
X69075Y57806D01*
X69075D01*
Y56832D01*
X69067Y56794D01*
X69075Y56756D01*
Y51869D01*
X68587Y51840D01*
X65521D01*
X65502Y51842D01*
X65473Y51849D01*
X65450Y51883D01*
X64729Y52365D01*
X63878Y52534D01*
X63027Y52365D01*
X62305Y51883D01*
X61823Y51161D01*
X61665Y50364D01*
X61457Y50213D01*
X61190Y50080D01*
X60792Y50346D01*
X59941Y50515D01*
X59090Y50346D01*
X58368Y49864D01*
X57886Y49143D01*
X57717Y48292D01*
X57886Y47440D01*
X58368Y46719D01*
X59090Y46237D01*
X59941Y46068D01*
X60196Y46118D01*
X60215Y46117D01*
X60678Y46025D01*
X68445D01*
Y42186D01*
X29194D01*
X28943Y42437D01*
X28894Y42512D01*
X28834Y42633D01*
X28774Y42794D01*
X28717Y42995D01*
X28667Y43236D01*
X28628Y43504D01*
X28581Y44196D01*
X28579Y44504D01*
X28593Y44611D01*
X28457Y45643D01*
X28059Y46605D01*
X27425Y47430D01*
X26600Y48064D01*
X25638Y48462D01*
X24606Y48598D01*
X23574Y48462D01*
X22613Y48064D01*
X21787Y47430D01*
X21154Y46605D01*
X20755Y45643D01*
X20619Y44611D01*
X20755Y43579D01*
X21154Y42618D01*
X21787Y41792D01*
X22613Y41159D01*
X23574Y40760D01*
X24606Y40624D01*
X24713Y40638D01*
X25022Y40636D01*
X25713Y40589D01*
X25981Y40551D01*
X26222Y40501D01*
X26424Y40444D01*
X26585Y40383D01*
X26705Y40323D01*
X26780Y40275D01*
X27479Y39575D01*
X27975Y39244D01*
X28561Y39127D01*
X73521D01*
X74107Y39244D01*
X74603Y39575D01*
X75541Y40513D01*
X75761D01*
X75941Y40504D01*
X75945Y40503D01*
X75948Y40503D01*
X75974Y40501D01*
X75976Y40501D01*
X76378Y40421D01*
X81693D01*
X82314Y40544D01*
X82840Y40896D01*
X83191Y41422D01*
X83315Y42042D01*
X83288Y42176D01*
X83723Y42554D01*
X115051Y42565D01*
X115052Y42565D01*
X115052Y42565D01*
X115086Y42572D01*
X115541Y42482D01*
X119659D01*
X119839Y42472D01*
X119842Y42472D01*
X119846Y42472D01*
X119872Y42469D01*
X119874Y42469D01*
X120276Y42389D01*
X125591D01*
X125889Y42449D01*
X126673Y42482D01*
X127390D01*
Y41603D01*
X126208D01*
X126027Y41613D01*
X126024Y41613D01*
X126021Y41613D01*
X125994Y41616D01*
X125992Y41616D01*
X125591Y41696D01*
X120276D01*
X119978Y41636D01*
X119193Y41603D01*
X89366D01*
X88780Y41487D01*
X88284Y41155D01*
X83681Y36553D01*
X83203Y36698D01*
X83191Y36758D01*
X82948Y37121D01*
X83191Y37485D01*
X83315Y38105D01*
X83191Y38726D01*
X82840Y39252D01*
X82314Y39604D01*
X81693Y39727D01*
X76378D01*
X75757Y39604D01*
X75231Y39252D01*
X74880Y38726D01*
X74756Y38105D01*
X74880Y37485D01*
X75123Y37121D01*
X74880Y36758D01*
X74756Y36137D01*
X74880Y35516D01*
X75051Y35261D01*
X74783Y34761D01*
X29280D01*
X29203Y34778D01*
X29114Y34813D01*
X29012Y34868D01*
X28896Y34953D01*
X28765Y35072D01*
X28624Y35228D01*
X28474Y35423D01*
X28319Y35659D01*
X28161Y35935D01*
X28114Y36049D01*
X27480Y36874D01*
X26655Y37508D01*
X25693Y37906D01*
X24661Y38042D01*
X23629Y37906D01*
X22668Y37508D01*
X21842Y36874D01*
X21208Y36049D01*
X20810Y35087D01*
X20674Y34055D01*
X20810Y33023D01*
X21208Y32062D01*
X21842Y31236D01*
X22668Y30602D01*
X23629Y30204D01*
X24661Y30068D01*
X25693Y30204D01*
X26655Y30602D01*
X26723Y30655D01*
X27407Y31026D01*
X28073Y31354D01*
X28607Y31579D01*
X28799Y31645D01*
X28951Y31688D01*
X29021Y31702D01*
X82523D01*
X83108Y31818D01*
X83604Y32150D01*
X89999Y38545D01*
X93752D01*
X94067Y38045D01*
X93938Y37393D01*
X94079Y36681D01*
X94121Y35956D01*
Y33707D01*
X94095Y33231D01*
X93474Y33108D01*
X93110Y32865D01*
X92747Y33108D01*
X92126Y33231D01*
X91505Y33108D01*
X91142Y32865D01*
X90778Y33108D01*
X90158Y33231D01*
X89537Y33108D01*
X89173Y32865D01*
X88810Y33108D01*
X88189Y33231D01*
X87568Y33108D01*
X87205Y32865D01*
X86841Y33108D01*
X86221Y33231D01*
X85600Y33108D01*
X85074Y32756D01*
X84722Y32230D01*
X84599Y31609D01*
Y26294D01*
X84722Y25674D01*
X85061Y25167D01*
X84859Y25032D01*
X84505Y24678D01*
X84284Y24348D01*
X84206Y23957D01*
X84206Y18504D01*
X84284Y18114D01*
X84505Y17783D01*
X84836Y17562D01*
X85226Y17484D01*
X98776Y17484D01*
X134769Y17484D01*
X135099Y17108D01*
X135088Y17028D01*
X135224Y15996D01*
X135622Y15034D01*
X136256Y14208D01*
X137081Y13575D01*
X138043Y13177D01*
X139075Y13041D01*
X140107Y13177D01*
X141068Y13575D01*
X141894Y14208D01*
X142527Y15034D01*
X142926Y15996D01*
X143062Y17028D01*
X143051Y17108D01*
X143381Y17484D01*
X177501Y17484D01*
X177587Y17502D01*
X177807D01*
X177846Y17494D01*
X177883Y17502D01*
X178854D01*
Y17991D01*
X178933Y18003D01*
X179294Y18028D01*
X179556D01*
X179807Y18016D01*
Y17787D01*
X180767D01*
X180801Y17780D01*
X180810Y17782D01*
X180819Y17780D01*
X180857Y17787D01*
X186138D01*
Y22346D01*
X180857D01*
X180819Y22354D01*
X180810Y22352D01*
X180801Y22354D01*
X180767Y22346D01*
X179807D01*
Y22339D01*
X179344Y22126D01*
X178874Y22315D01*
X178874Y24311D01*
X178854Y24409D01*
Y24620D01*
X178813D01*
X178796Y24701D01*
X178575Y25032D01*
X178244Y25253D01*
X177854Y25331D01*
X145046Y25330D01*
X144071Y26306D01*
X144071Y30169D01*
X144012Y30464D01*
Y31173D01*
X143125D01*
X143051Y31188D01*
X136106Y31188D01*
X135716Y31110D01*
X135385Y30889D01*
X135164Y30559D01*
X135087Y30168D01*
Y26404D01*
X134014Y25330D01*
X124950Y25330D01*
X124714Y25771D01*
X124889Y26034D01*
X125058Y26885D01*
X124889Y27736D01*
X124407Y28457D01*
X124373Y28480D01*
X124367Y28509D01*
X124364Y28528D01*
Y34515D01*
X125591D01*
X126211Y34639D01*
X126737Y34990D01*
X127089Y35516D01*
X127212Y36137D01*
X127089Y36758D01*
X126737Y37284D01*
X126211Y37635D01*
X125591Y37759D01*
X120276D01*
X119655Y37635D01*
X119129Y37284D01*
X118777Y36758D01*
X118654Y36137D01*
X118777Y35516D01*
X119129Y34990D01*
X119655Y34639D01*
X120276Y34515D01*
X121305D01*
Y31257D01*
X120805Y31105D01*
X120667Y31312D01*
X119946Y31794D01*
X119095Y31963D01*
X118244Y31794D01*
X117870Y31544D01*
X117733Y31562D01*
X117334Y31788D01*
X117246Y32230D01*
X116895Y32756D01*
X116369Y33108D01*
X115748Y33231D01*
X115127Y33108D01*
X114764Y32865D01*
X114400Y33108D01*
X113779Y33231D01*
X113159Y33108D01*
X112795Y32865D01*
X112432Y33108D01*
X111811Y33231D01*
X111190Y33108D01*
X110827Y32865D01*
X110463Y33108D01*
X109843Y33231D01*
X109222Y33108D01*
X108858Y32865D01*
X108495Y33108D01*
X107874Y33231D01*
X107253Y33108D01*
X106890Y32865D01*
X106526Y33108D01*
X105905Y33231D01*
X105285Y33108D01*
X104921Y32865D01*
X104558Y33108D01*
X103937Y33231D01*
X103316Y33108D01*
X102953Y32865D01*
X102589Y33108D01*
X101969Y33231D01*
X101348Y33108D01*
X100822Y32756D01*
X100470Y32230D01*
X100347Y31609D01*
Y26294D01*
X100400Y26028D01*
X100055Y25575D01*
X99945D01*
X99600Y26028D01*
X99653Y26294D01*
Y31609D01*
X99595Y31904D01*
X99577Y32531D01*
Y32561D01*
X99904Y32780D01*
X100386Y33501D01*
X100555Y34352D01*
X100386Y35203D01*
X99904Y35925D01*
X99183Y36407D01*
X98717Y36499D01*
X98316Y37044D01*
X98385Y37393D01*
X98256Y38045D01*
X98571Y38545D01*
X119659D01*
X119839Y38535D01*
X119842Y38535D01*
X119846Y38535D01*
X119872Y38532D01*
X119874Y38532D01*
X120276Y38452D01*
X125591D01*
X125889Y38512D01*
X126673Y38545D01*
X129672D01*
X129755Y38462D01*
X129904Y38301D01*
X130000Y38180D01*
X130004Y38175D01*
Y37987D01*
X129996Y37949D01*
X130004Y37911D01*
Y34832D01*
X134896D01*
X134936Y34824D01*
X134973Y34832D01*
X135941D01*
X136106Y34400D01*
Y33055D01*
X144012D01*
Y40173D01*
X136106D01*
X135941Y40375D01*
Y40375D01*
X133326D01*
X132933Y40634D01*
Y46571D01*
X133266Y46933D01*
X133607D01*
Y52839D01*
Y58776D01*
X128063D01*
Y55384D01*
X127519D01*
X127202Y55770D01*
X127212Y55822D01*
X127089Y56443D01*
X126737Y56969D01*
X126211Y57320D01*
X125591Y57444D01*
X120276D01*
X119961Y57381D01*
X119952Y57382D01*
X119928Y57375D01*
X119655Y57320D01*
X119399Y57759D01*
X119413Y57815D01*
X119553Y57923D01*
X119564Y57937D01*
X119642Y58012D01*
X119710Y58069D01*
X119774Y58116D01*
X119834Y58152D01*
X119890Y58181D01*
X119943Y58202D01*
X119945Y58203D01*
X120276Y58137D01*
X125591D01*
X126211Y58261D01*
X126737Y58612D01*
X127089Y59139D01*
X127212Y59759D01*
X127202Y59812D01*
X127519Y60198D01*
X128952D01*
X129537Y60315D01*
X130033Y60646D01*
X134331Y64944D01*
X134501Y65102D01*
X134604Y65185D01*
X134820D01*
X134862Y65178D01*
X134894Y65185D01*
X138150D01*
Y68719D01*
X138162Y68737D01*
X138368Y68981D01*
X139781Y70394D01*
X145152D01*
X145737Y70511D01*
X146233Y70842D01*
X148112Y72720D01*
X156217D01*
Y77067D01*
X156717Y77237D01*
X157122Y76708D01*
X157948Y76075D01*
X158909Y75677D01*
X159941Y75541D01*
X160973Y75677D01*
X161934Y76075D01*
X162760Y76708D01*
X163394Y77534D01*
X163792Y78496D01*
X163928Y79528D01*
X163792Y80559D01*
X163394Y81521D01*
X162760Y82347D01*
X161934Y82980D01*
X160973Y83379D01*
X159941Y83514D01*
X158909Y83379D01*
X157948Y82980D01*
X157122Y82347D01*
X156717Y81818D01*
X156217Y81988D01*
Y84169D01*
X147524D01*
Y76797D01*
X147517Y76772D01*
X147513Y76681D01*
X147506Y76638D01*
X147494Y76590D01*
X147475Y76534D01*
X147446Y76470D01*
X147406Y76397D01*
X147353Y76316D01*
X147286Y76227D01*
X147251Y76186D01*
X144518Y73453D01*
X141650D01*
Y84169D01*
X132957D01*
Y74053D01*
X132861Y73945D01*
X130094Y71178D01*
X129944Y71039D01*
X129827Y70946D01*
X129798Y70925D01*
X126264D01*
Y65710D01*
X126186Y65555D01*
X125808Y65275D01*
X125591Y65318D01*
X120276D01*
X119655Y65194D01*
X119129Y64843D01*
X118777Y64317D01*
X118654Y63696D01*
X118777Y63076D01*
X118969Y62788D01*
X118753Y62335D01*
X118523Y62212D01*
X118389Y62268D01*
X117717Y62356D01*
X117044Y62268D01*
X116914Y62214D01*
X116455Y62521D01*
X116427Y63016D01*
X125430Y72020D01*
X126098D01*
Y73031D01*
X126118Y73130D01*
X126118Y76252D01*
X126098Y76350D01*
Y77563D01*
X125057D01*
X124745Y77625D01*
X115809Y77625D01*
X115787Y77625D01*
X115412Y77873D01*
X115309Y78030D01*
Y81157D01*
X120783D01*
Y85811D01*
X120791Y85849D01*
X120783Y85887D01*
Y86074D01*
X120994Y86323D01*
X123326Y88655D01*
X123657Y89151D01*
X123774Y89736D01*
Y96792D01*
X123657Y97377D01*
X123326Y97874D01*
X114507Y106692D01*
X114011Y107023D01*
X113426Y107140D01*
D02*
G37*
G36*
X133957Y95129D02*
X132925Y94993D01*
X131963Y94594D01*
X131138Y93961D01*
X130504Y93135D01*
X130106Y92174D01*
X129970Y91142D01*
X130106Y90110D01*
X130504Y89148D01*
X131138Y88323D01*
X131963Y87689D01*
X132925Y87291D01*
X133957Y87155D01*
X134989Y87291D01*
X135950Y87689D01*
X136776Y88323D01*
X137409Y89148D01*
X137808Y90110D01*
X137944Y91142D01*
X137808Y92174D01*
X137409Y93135D01*
X136776Y93961D01*
X135950Y94594D01*
X134989Y94993D01*
X133957Y95129D01*
D02*
G37*
G36*
X289583Y99425D02*
X279315D01*
Y85614D01*
X289583D01*
Y99425D01*
D02*
G37*
G36*
X249819D02*
X239551D01*
Y85614D01*
X249819D01*
Y99425D01*
D02*
G37*
G36*
X236335Y99425D02*
X226067D01*
Y85614D01*
X236335D01*
Y99425D01*
D02*
G37*
G36*
X196571D02*
X186303D01*
Y85614D01*
X196571D01*
Y99425D01*
D02*
G37*
G36*
X221161Y96611D02*
X220310Y96442D01*
X219589Y95960D01*
X219107Y95238D01*
X218938Y94387D01*
X219107Y93536D01*
X219589Y92815D01*
X219623Y92792D01*
X219629Y92764D01*
X219632Y92745D01*
Y85252D01*
X217770D01*
Y90382D01*
X217772Y90401D01*
X217779Y90430D01*
X217813Y90453D01*
X218295Y91174D01*
X218464Y92025D01*
X218295Y92876D01*
X217813Y93598D01*
X217091Y94080D01*
X216240Y94249D01*
X215389Y94080D01*
X214668Y93598D01*
X214186Y92876D01*
X214016Y92025D01*
X214186Y91174D01*
X214668Y90453D01*
X214702Y90430D01*
X214708Y90401D01*
X214711Y90382D01*
Y85252D01*
X212848D01*
Y86904D01*
X212851Y86923D01*
X212858Y86951D01*
X212891Y86974D01*
X213373Y87695D01*
X213543Y88547D01*
X213373Y89398D01*
X212891Y90119D01*
X212170Y90601D01*
X211319Y90770D01*
X210468Y90601D01*
X209746Y90119D01*
X209264Y89398D01*
X209095Y88547D01*
X209264Y87695D01*
X209746Y86974D01*
X209780Y86951D01*
X209787Y86923D01*
X209789Y86904D01*
Y85252D01*
X208771D01*
X208500Y85752D01*
X208649Y86499D01*
X208480Y87350D01*
X207998Y88072D01*
X207276Y88554D01*
X206425Y88723D01*
X205574Y88554D01*
X204853Y88072D01*
X204371Y87350D01*
X204201Y86499D01*
X204350Y85752D01*
X204080Y85252D01*
X203823D01*
Y78134D01*
X223736D01*
Y85252D01*
X222691D01*
Y92745D01*
X222694Y92764D01*
X222700Y92792D01*
X222734Y92815D01*
X223216Y93536D01*
X223385Y94387D01*
X223216Y95238D01*
X222734Y95960D01*
X222012Y96442D01*
X221161Y96611D01*
D02*
G37*
G36*
X193209Y83908D02*
X192177Y83772D01*
X191215Y83374D01*
X190390Y82740D01*
X189756Y81915D01*
X189358Y80953D01*
X189222Y79921D01*
X189358Y78889D01*
X189756Y77928D01*
X190390Y77102D01*
X191215Y76468D01*
X192177Y76070D01*
X193209Y75934D01*
X194240Y76070D01*
X195202Y76468D01*
X196028Y77102D01*
X196661Y77928D01*
X197060Y78889D01*
X197195Y79921D01*
X197060Y80953D01*
X196661Y81915D01*
X196028Y82740D01*
X195202Y83374D01*
X194240Y83772D01*
X193209Y83908D01*
D02*
G37*
G36*
X276984Y85252D02*
X257071D01*
Y78134D01*
X257657D01*
X257925Y77634D01*
X257701Y77300D01*
X257532Y76449D01*
X257701Y75598D01*
X258183Y74876D01*
X258905Y74394D01*
X259756Y74225D01*
X260607Y74394D01*
X261328Y74876D01*
X261810Y75598D01*
X261912Y76107D01*
X261980Y76449D01*
X262453Y76461D01*
X262595Y75747D01*
X263077Y75026D01*
X263799Y74544D01*
X264650Y74375D01*
X265501Y74544D01*
X266222Y75026D01*
X266704Y75747D01*
X266846Y76461D01*
X267319Y76449D01*
X267489Y75598D01*
X267971Y74876D01*
X268692Y74394D01*
X269543Y74225D01*
X270394Y74394D01*
X271116Y74876D01*
X271598Y75598D01*
X271707Y76148D01*
X271729Y76259D01*
X272239D01*
X272261Y76148D01*
X272371Y75598D01*
X272853Y74876D01*
X273574Y74394D01*
X274425Y74225D01*
X275276Y74394D01*
X275998Y74876D01*
X276480Y75598D01*
X276649Y76449D01*
X276480Y77300D01*
X276257Y77634D01*
X276524Y78134D01*
X276984D01*
Y85252D01*
D02*
G37*
G36*
X159941Y72983D02*
X158909Y72847D01*
X157948Y72449D01*
X157122Y71815D01*
X156488Y70990D01*
X156090Y70028D01*
X155954Y68996D01*
X156090Y67964D01*
X156488Y67003D01*
X157122Y66177D01*
X157948Y65543D01*
X158909Y65145D01*
X159941Y65009D01*
X160973Y65145D01*
X161934Y65543D01*
X162760Y66177D01*
X163394Y67003D01*
X163792Y67964D01*
X163928Y68996D01*
X163792Y70028D01*
X163394Y70990D01*
X162760Y71815D01*
X161934Y72449D01*
X160973Y72847D01*
X159941Y72983D01*
D02*
G37*
G36*
X142640Y62593D02*
X141957Y62458D01*
X141378Y62071D01*
X141378Y62071D01*
X138596Y59289D01*
X138334Y59045D01*
X138125Y58878D01*
X137978Y58776D01*
X137511D01*
X137473Y58783D01*
X137435Y58776D01*
X135063D01*
Y52839D01*
Y46933D01*
X137435D01*
X137473Y46926D01*
X137511Y46933D01*
X137978D01*
X138114Y46839D01*
X138530Y46486D01*
X140197Y44819D01*
X140197Y44819D01*
X140776Y44432D01*
X141459Y44296D01*
X158920D01*
X159602Y44432D01*
X160181Y44819D01*
X162145Y46783D01*
X162240Y46855D01*
X162338Y46921D01*
X162436Y46978D01*
X162535Y47028D01*
X162635Y47071D01*
X162736Y47107D01*
X162840Y47137D01*
X162979Y47167D01*
X163022Y47186D01*
X163177Y47206D01*
X163899Y47505D01*
X164519Y47981D01*
X164995Y48601D01*
X165294Y49323D01*
X165396Y50098D01*
X165294Y50873D01*
X164995Y51595D01*
X164519Y52216D01*
X163899Y52691D01*
X163177Y52991D01*
X162402Y53092D01*
X161627Y52991D01*
X160905Y52691D01*
X160284Y52216D01*
X159809Y51595D01*
X159571Y51022D01*
X159071Y51121D01*
Y53067D01*
X153134D01*
Y47865D01*
X148405D01*
X148170Y48315D01*
X148187Y48365D01*
X149172Y48891D01*
X150073Y49631D01*
X150813Y50533D01*
X151363Y51562D01*
X151702Y52678D01*
X151816Y53839D01*
X151702Y54999D01*
X151363Y56116D01*
X150813Y57144D01*
X150073Y58046D01*
X149490Y58525D01*
X149669Y59025D01*
X155283D01*
X156026Y58281D01*
X156035Y58271D01*
X156094Y58186D01*
X156142Y58104D01*
X156181Y58024D01*
X156211Y57946D01*
X156235Y57866D01*
X156251Y57785D01*
X156260Y57700D01*
X156263Y57617D01*
X156258Y57579D01*
X156360Y56804D01*
X156659Y56082D01*
X157135Y55462D01*
X157755Y54986D01*
X158477Y54687D01*
X159252Y54585D01*
X160027Y54687D01*
X160749Y54986D01*
X161369Y55462D01*
X161845Y56082D01*
X162144Y56804D01*
X162149Y56844D01*
X162654D01*
X162659Y56804D01*
X162958Y56082D01*
X163434Y55462D01*
X164054Y54986D01*
X164776Y54687D01*
X165551Y54585D01*
X166326Y54687D01*
X167048Y54986D01*
X167668Y55462D01*
X168144Y56082D01*
X168443Y56804D01*
X168545Y57579D01*
X168443Y58354D01*
X168144Y59076D01*
X167668Y59696D01*
X167048Y60172D01*
X166326Y60471D01*
X165551Y60573D01*
X164776Y60471D01*
X164054Y60172D01*
X163434Y59696D01*
X162958Y59076D01*
X162659Y58354D01*
X162654Y58313D01*
X162149D01*
X162144Y58354D01*
X161845Y59076D01*
X161369Y59696D01*
X160749Y60172D01*
X160027Y60471D01*
X159252Y60573D01*
X159213Y60568D01*
X159131Y60570D01*
X159046Y60580D01*
X158964Y60596D01*
X158885Y60619D01*
X158807Y60650D01*
X158727Y60688D01*
X158645Y60737D01*
X158560Y60796D01*
X158549Y60805D01*
X157283Y62071D01*
X156704Y62458D01*
X156022Y62593D01*
X142640D01*
X142640Y62593D01*
D02*
G37*
G36*
X178937Y59789D02*
X177776Y59674D01*
X176660Y59336D01*
X175631Y58786D01*
X174730Y58046D01*
X173990Y57144D01*
X173440Y56116D01*
X173101Y54999D01*
X172987Y53839D01*
X173101Y52678D01*
X173440Y51562D01*
X173990Y50533D01*
X174730Y49631D01*
X175631Y48891D01*
X176660Y48342D01*
X177776Y48003D01*
X178937Y47889D01*
X180098Y48003D01*
X181214Y48342D01*
X182243Y48891D01*
X183144Y49631D01*
X183884Y50533D01*
X184434Y51562D01*
X184773Y52678D01*
X184887Y53839D01*
X184773Y54999D01*
X184434Y56116D01*
X183884Y57144D01*
X183144Y58046D01*
X182243Y58786D01*
X181214Y59336D01*
X180098Y59674D01*
X178937Y59789D01*
D02*
G37*
G36*
X203559Y42339D02*
X195653D01*
Y41026D01*
X195488Y40595D01*
X194514D01*
X194476Y40602D01*
X194438Y40595D01*
X189551D01*
Y40307D01*
X189295Y40161D01*
X189004Y40310D01*
Y40441D01*
X188030D01*
X187992Y40448D01*
X187954Y40441D01*
X187897D01*
X187880Y40442D01*
X187876Y40441D01*
X183461D01*
Y34504D01*
X187876D01*
X187880Y34503D01*
X187897Y34504D01*
X187954D01*
X187992Y34496D01*
X188030Y34504D01*
X189004D01*
Y34813D01*
X189351Y35067D01*
X189551Y35051D01*
X189551Y35051D01*
X189551Y35051D01*
X190522D01*
X190560Y35044D01*
X190598Y35051D01*
X194438D01*
X194476Y35044D01*
X194514Y35051D01*
X195488D01*
Y35051D01*
X195654Y35221D01*
X196625D01*
X196662Y35213D01*
X196701Y35221D01*
X197464D01*
X197478Y35186D01*
X197519Y35036D01*
X197554Y34824D01*
X197567Y34676D01*
Y26631D01*
X197555Y26490D01*
X197521Y26274D01*
X197481Y26120D01*
X197473Y26098D01*
X196638D01*
Y25429D01*
X196519Y25405D01*
X196108Y25366D01*
X195765D01*
X195491Y25576D01*
X194865Y25835D01*
X194193Y25924D01*
X193521Y25835D01*
X192894Y25576D01*
X192357Y25163D01*
X191944Y24625D01*
X191684Y23999D01*
X191641Y23669D01*
X191559Y23576D01*
X190979Y22997D01*
X190545Y22346D01*
X189256D01*
Y17787D01*
X195587D01*
Y21151D01*
X195748Y21275D01*
X195937Y21288D01*
X196175D01*
X196272Y21281D01*
X196503Y21252D01*
X196638Y21224D01*
Y20555D01*
X197612D01*
X197650Y20548D01*
X197688Y20555D01*
X202575D01*
Y24970D01*
X202576Y24975D01*
X202575Y24992D01*
Y25048D01*
X202582Y25086D01*
X202575Y25125D01*
Y26098D01*
X201740D01*
X201731Y26120D01*
X201692Y26274D01*
X201657Y26490D01*
X201645Y26631D01*
Y34676D01*
X201659Y34824D01*
X201694Y35036D01*
X201734Y35186D01*
X201748Y35221D01*
X203559D01*
Y42339D01*
D02*
G37*
G36*
X171752Y46003D02*
X171080Y45914D01*
X170454Y45655D01*
X169916Y45242D01*
X169503Y44704D01*
X169243Y44078D01*
X169155Y43406D01*
X169243Y42733D01*
X169456Y42221D01*
X169306Y41878D01*
X169169Y41721D01*
X168559D01*
Y33815D01*
X175677D01*
Y35393D01*
X176069Y35622D01*
X176461Y35393D01*
Y34504D01*
X182004D01*
Y40441D01*
X177511D01*
X177473Y40448D01*
X177435Y40441D01*
X176461D01*
Y40282D01*
X176022Y40003D01*
X175677Y40176D01*
Y41721D01*
X174335D01*
X174198Y41878D01*
X174048Y42221D01*
X174260Y42733D01*
X174349Y43406D01*
X174260Y44078D01*
X174001Y44704D01*
X173588Y45242D01*
X173050Y45655D01*
X172424Y45914D01*
X171752Y46003D01*
D02*
G37*
G36*
X29328Y20595D02*
X28091Y20394D01*
X26947Y19883D01*
X25971Y19098D01*
X25227Y18089D01*
X24766Y16924D01*
X24618Y15679D01*
X24705Y15059D01*
X24705D01*
X24818Y14425D01*
X25363Y13258D01*
X26190Y12269D01*
X27242Y11527D01*
X28451Y11079D01*
X29733Y10957D01*
X31004Y11168D01*
X32178Y11699D01*
X32677Y12106D01*
X32677Y12106D01*
X32677Y12106D01*
X33147Y12520D01*
X33845Y13561D01*
X34254Y14746D01*
X34347Y15995D01*
X34118Y17227D01*
X33583Y18360D01*
X32776Y19319D01*
X31750Y20039D01*
X30575Y20474D01*
X29328Y20595D01*
D02*
G37*
G36*
X177618Y14972D02*
X177580Y14965D01*
X171512D01*
Y7059D01*
X178630D01*
Y10445D01*
X178665Y10459D01*
X178815Y10499D01*
X179027Y10534D01*
X179174Y10547D01*
X179556D01*
X179807Y10536D01*
Y10307D01*
X180767D01*
X180801Y10300D01*
X180810Y10301D01*
X180819Y10300D01*
X180857Y10307D01*
X186138D01*
Y14866D01*
X180857D01*
X180819Y14874D01*
X180810Y14872D01*
X180801Y14874D01*
X180767Y14866D01*
X179807D01*
Y14655D01*
X179397Y14626D01*
X178875D01*
X178630Y14645D01*
Y14965D01*
X177736D01*
X177733Y14966D01*
X177719Y14965D01*
X177656D01*
X177618Y14972D01*
D02*
G37*
G36*
X195587Y14866D02*
X189256D01*
Y10307D01*
X190505D01*
X190537Y10145D01*
X190979Y9483D01*
X191639Y8823D01*
X191684Y8481D01*
X191944Y7855D01*
X192357Y7317D01*
X192894Y6904D01*
X193521Y6645D01*
X194193Y6556D01*
X194865Y6645D01*
X195491Y6904D01*
X196029Y7317D01*
X196442Y7855D01*
X196701Y8481D01*
X196790Y9154D01*
X196701Y9826D01*
X196442Y10452D01*
X196029Y10990D01*
X195587Y11330D01*
Y14866D01*
D02*
G37*
G36*
X312402Y20135D02*
X310778Y19975D01*
X309216Y19501D01*
X307777Y18732D01*
X306516Y17697D01*
X305481Y16435D01*
X304712Y14996D01*
X304238Y13435D01*
X304078Y11811D01*
X304238Y10187D01*
X304712Y8626D01*
X305481Y7187D01*
X306516Y5925D01*
X307777Y4890D01*
X309216Y4121D01*
X310778Y3647D01*
X312402Y3488D01*
X314025Y3647D01*
X315587Y4121D01*
X317026Y4890D01*
X318287Y5925D01*
X319322Y7187D01*
X320092Y8626D01*
X320565Y10187D01*
X320725Y11811D01*
X320565Y13435D01*
X320092Y14996D01*
X319322Y16435D01*
X318287Y17697D01*
X317026Y18732D01*
X315587Y19501D01*
X314025Y19975D01*
X312402Y20135D01*
D02*
G37*
G36*
X12402D02*
X10778Y19975D01*
X9216Y19501D01*
X7777Y18732D01*
X6516Y17697D01*
X5481Y16435D01*
X4712Y14996D01*
X4238Y13435D01*
X4078Y11811D01*
X4238Y10187D01*
X4712Y8626D01*
X5481Y7187D01*
X6516Y5925D01*
X7777Y4890D01*
X9216Y4121D01*
X10778Y3647D01*
X12402Y3488D01*
X14025Y3647D01*
X15587Y4121D01*
X17026Y4890D01*
X18287Y5925D01*
X19322Y7187D01*
X20091Y8626D01*
X20565Y10187D01*
X20725Y11811D01*
X20565Y13435D01*
X20091Y14996D01*
X19322Y16435D01*
X18287Y17697D01*
X17026Y18732D01*
X15587Y19501D01*
X14025Y19975D01*
X12402Y20135D01*
D02*
G37*
%LPD*%
G36*
X102386Y92688D02*
X102376Y92783D01*
X102346Y92868D01*
X102295Y92943D01*
X102224Y93008D01*
X102133Y93063D01*
X102022Y93108D01*
X101890Y93143D01*
X101739Y93168D01*
X101567Y93183D01*
X101374Y93188D01*
Y94188D01*
X101567Y94193D01*
X101739Y94208D01*
X101890Y94233D01*
X102022Y94268D01*
X102133Y94313D01*
X102224Y94368D01*
X102295Y94433D01*
X102346Y94508D01*
X102376Y94593D01*
X102386Y94688D01*
Y92688D01*
D02*
G37*
G36*
X107699Y92584D02*
X107600Y92563D01*
X107529Y92528D01*
X107487Y92478D01*
X107473Y92414D01*
X107487Y92337D01*
X107529Y92245D01*
X107600Y92139D01*
X107699Y92018D01*
X107826Y91884D01*
X106412D01*
X106271Y92018D01*
X106129Y92139D01*
X105988Y92245D01*
X105846Y92337D01*
X105705Y92414D01*
X105563Y92478D01*
X105422Y92528D01*
X105281Y92563D01*
X105139Y92584D01*
X104998Y92591D01*
X107826D01*
X107699Y92584D01*
D02*
G37*
G36*
X120479Y87264D02*
X120281Y87059D01*
X119969Y86691D01*
X119856Y86528D01*
X119772Y86380D01*
X119715Y86245D01*
X119687Y86125D01*
Y86019D01*
X119715Y85927D01*
X119772Y85849D01*
X118357Y87264D01*
X118435Y87207D01*
X118527Y87179D01*
X118633D01*
X118753Y87207D01*
X118888Y87264D01*
X119036Y87348D01*
X119199Y87462D01*
X119376Y87603D01*
X119772Y87971D01*
X120479Y87264D01*
D02*
G37*
G36*
X106763Y83577D02*
X106481Y83535D01*
X106198Y83464D01*
X105915Y83365D01*
X105632Y83238D01*
X105349Y83082D01*
X105066Y82898D01*
X104784Y82686D01*
X104501Y82446D01*
X104218Y82177D01*
X101389D01*
X101654Y82446D01*
X102343Y83238D01*
X102423Y83365D01*
X102466Y83464D01*
X102472Y83535D01*
X102442Y83577D01*
X102374Y83591D01*
X107046D01*
X106763Y83577D01*
D02*
G37*
G36*
X96173Y78318D02*
X96153Y78454D01*
X96093Y78576D01*
X95993Y78684D01*
X95853Y78777D01*
X95673Y78856D01*
X95453Y78920D01*
X95193Y78970D01*
X94893Y79006D01*
X94837Y79010D01*
X94469Y78984D01*
X94407Y78969D01*
X94362Y78952D01*
X94333Y78932D01*
Y79032D01*
X94173Y79035D01*
Y81035D01*
X94333Y81038D01*
Y81137D01*
X94362Y81118D01*
X94407Y81100D01*
X94469Y81085D01*
X94547Y81072D01*
X94695Y81057D01*
X95193Y81107D01*
X95453Y81163D01*
X95673Y81235D01*
X95853Y81324D01*
X95993Y81428D01*
X96093Y81549D01*
X96153Y81685D01*
X96173Y81838D01*
Y78318D01*
D02*
G37*
G36*
X90166Y81685D02*
X90225Y81549D01*
X90325Y81428D01*
X90465Y81324D01*
X90645Y81235D01*
X90865Y81163D01*
X91126Y81107D01*
X91426Y81067D01*
X91552Y81058D01*
X91949Y81085D01*
X92010Y81100D01*
X92056Y81118D01*
X92084Y81137D01*
Y81036D01*
X92146Y81035D01*
Y79035D01*
X92084Y79033D01*
Y78932D01*
X92056Y78952D01*
X92010Y78969D01*
X91949Y78984D01*
X91870Y78998D01*
X91663Y79018D01*
X91663D01*
X91126Y78970D01*
X90865Y78920D01*
X90645Y78856D01*
X90465Y78777D01*
X90325Y78684D01*
X90225Y78576D01*
X90166Y78454D01*
X90145Y78318D01*
Y81838D01*
X90166Y81685D01*
D02*
G37*
G36*
X99144Y80053D02*
X99184Y79954D01*
X99247Y79839D01*
X99335Y79706D01*
X99445Y79557D01*
X99738Y79209D01*
X100354Y78562D01*
X99647Y77854D01*
X99414Y78083D01*
X98502Y78873D01*
X98369Y78960D01*
X98254Y79024D01*
X98155Y79063D01*
X98072Y79080D01*
X99128Y80136D01*
X99144Y80053D01*
D02*
G37*
G36*
X106254Y78996D02*
X106267Y78905D01*
X106288Y78814D01*
X106318Y78724D01*
X106356Y78635D01*
X106404Y78546D01*
X106460Y78457D01*
X106525Y78369D01*
X106599Y78282D01*
X106681Y78194D01*
X105974Y77487D01*
X105887Y77570D01*
X105799Y77644D01*
X105711Y77709D01*
X105623Y77765D01*
X105534Y77812D01*
X105444Y77851D01*
X105354Y77881D01*
X105264Y77902D01*
X105173Y77914D01*
X105082Y77918D01*
X106251Y79087D01*
X106254Y78996D01*
D02*
G37*
G36*
X89094Y78308D02*
X89009Y78278D01*
X88934Y78228D01*
X88869Y78158D01*
X88814Y78068D01*
X88769Y77958D01*
X88734Y77828D01*
X88709Y77678D01*
X88694Y77508D01*
X88689Y77318D01*
X87689D01*
X87684Y77508D01*
X87669Y77678D01*
X87644Y77828D01*
X87609Y77958D01*
X87564Y78068D01*
X87509Y78158D01*
X87444Y78228D01*
X87369Y78278D01*
X87284Y78308D01*
X87189Y78318D01*
X89189D01*
X89094Y78308D01*
D02*
G37*
G36*
X28270Y79237D02*
X28131Y79075D01*
X28007Y78885D01*
X27898Y78665D01*
X27804Y78416D01*
X27726Y78138D01*
X27662Y77831D01*
X27614Y77494D01*
X27562Y76733D01*
X27559Y76309D01*
X24636Y79232D01*
X25060Y79235D01*
X25821Y79287D01*
X26157Y79335D01*
X26465Y79399D01*
X26743Y79478D01*
X26992Y79571D01*
X27211Y79680D01*
X27402Y79804D01*
X27563Y79944D01*
X28270Y79237D01*
D02*
G37*
G36*
X114324Y75733D02*
X113234D01*
X113243Y75756D01*
X113251Y75797D01*
X113258Y75857D01*
X113272Y76149D01*
X113279Y76800D01*
X114279D01*
X114324Y75733D01*
D02*
G37*
G36*
X112356D02*
X111266D01*
X111275Y75756D01*
X111282Y75797D01*
X111289Y75857D01*
X111304Y76149D01*
X111311Y76800D01*
X112311D01*
X112356Y75733D01*
D02*
G37*
G36*
X100545D02*
X99455D01*
X99464Y75756D01*
X99471Y75797D01*
X99478Y75857D01*
X99493Y76149D01*
X99500Y76800D01*
X100500D01*
X100545Y75733D01*
D02*
G37*
G36*
X88734D02*
X87644D01*
X87652Y75756D01*
X87660Y75797D01*
X87667Y75857D01*
X87682Y76149D01*
X87689Y76800D01*
X88689D01*
X88734Y75733D01*
D02*
G37*
G36*
X110253Y76739D02*
X110301Y76022D01*
X110318Y75926D01*
X110339Y75846D01*
X110362Y75781D01*
X110388Y75733D01*
X109298D01*
X109289Y75728D01*
X109281Y75742D01*
X109275Y75774D01*
X109269Y75824D01*
X109260Y75979D01*
X109253Y76507D01*
X110252Y76929D01*
X110253Y76739D01*
D02*
G37*
G36*
X58391Y77889D02*
X58614Y77710D01*
X58844Y77553D01*
X59080Y77416D01*
X59323Y77300D01*
X59572Y77206D01*
X59828Y77132D01*
X60090Y77079D01*
X60358Y77048D01*
X60633Y77037D01*
X60670Y75037D01*
X60394Y75027D01*
X60125Y74994D01*
X59864Y74940D01*
X59611Y74864D01*
X59365Y74767D01*
X59126Y74648D01*
X58895Y74507D01*
X58671Y74345D01*
X58455Y74161D01*
X58247Y73956D01*
X58174Y78089D01*
X58391Y77889D01*
D02*
G37*
G36*
X148536Y73893D02*
X148529Y74020D01*
X148507Y74119D01*
X148472Y74190D01*
X148423Y74233D01*
X148359Y74247D01*
X148281Y74233D01*
X148189Y74190D01*
X148083Y74119D01*
X147963Y74020D01*
X147828Y73893D01*
Y75307D01*
X147963Y75449D01*
X148083Y75590D01*
X148189Y75731D01*
X148281Y75873D01*
X148359Y76014D01*
X148423Y76156D01*
X148472Y76297D01*
X148507Y76439D01*
X148529Y76580D01*
X148536Y76722D01*
Y73893D01*
D02*
G37*
G36*
X136085Y73737D02*
X135945Y73715D01*
X135805Y73678D01*
X135664Y73628D01*
X135522Y73563D01*
X135381Y73484D01*
X135239Y73391D01*
X135097Y73283D01*
X134954Y73161D01*
X134811Y73025D01*
X133397D01*
X133506Y73135D01*
X133877Y73554D01*
X133917Y73612D01*
X133946Y73661D01*
X133963Y73701D01*
X133969Y73733D01*
X136225Y73744D01*
X136085Y73737D01*
D02*
G37*
G36*
X137845Y69913D02*
X137654Y69716D01*
X137353Y69358D01*
X137241Y69198D01*
X137156Y69051D01*
X137097Y68915D01*
X137065Y68793D01*
X137059Y68682D01*
X137079Y68585D01*
X137126Y68499D01*
X135920Y70098D01*
X135988Y70034D01*
X136072Y70000D01*
X136173Y69996D01*
X136290Y70023D01*
X136423Y70080D01*
X136573Y70167D01*
X136739Y70284D01*
X136921Y70431D01*
X137334Y70817D01*
X137845Y69913D01*
D02*
G37*
G36*
X131896Y70110D02*
X131688Y69895D01*
X131363Y69514D01*
X131245Y69348D01*
X131158Y69199D01*
X131102Y69065D01*
X131075Y68949D01*
X131079Y68848D01*
X131113Y68764D01*
X131177Y68696D01*
X129578Y69901D01*
X129663Y69855D01*
X129761Y69834D01*
X129871Y69840D01*
X129994Y69873D01*
X130129Y69932D01*
X130277Y70017D01*
X130437Y70128D01*
X130610Y70266D01*
X130992Y70620D01*
X131896Y70110D01*
D02*
G37*
G36*
X93967Y68178D02*
X94054Y68104D01*
X94142Y68039D01*
X94231Y67983D01*
X94320Y67935D01*
X94409Y67896D01*
X94499Y67867D01*
X94590Y67846D01*
X94680Y67833D01*
X94772Y67830D01*
X93602Y66661D01*
X93599Y66752D01*
X93587Y66843D01*
X93566Y66933D01*
X93536Y67023D01*
X93497Y67112D01*
X93450Y67202D01*
X93393Y67290D01*
X93328Y67378D01*
X93255Y67466D01*
X93172Y67553D01*
X93879Y68260D01*
X93967Y68178D01*
D02*
G37*
G36*
X134836Y66197D02*
X134767Y66263D01*
X134682Y66298D01*
X134581Y66303D01*
X134463Y66277D01*
X134330Y66222D01*
X134180Y66136D01*
X134015Y66020D01*
X133833Y65873D01*
X133422Y65490D01*
X132911Y66394D01*
X133100Y66590D01*
X133400Y66946D01*
X133510Y67106D01*
X133594Y67253D01*
X133651Y67388D01*
X133683Y67512D01*
X133687Y67623D01*
X133666Y67721D01*
X133618Y67808D01*
X134836Y66197D01*
D02*
G37*
G36*
X28270Y68680D02*
X28131Y68519D01*
X28007Y68329D01*
X27898Y68109D01*
X27804Y67860D01*
X27726Y67582D01*
X27662Y67274D01*
X27614Y66938D01*
X27562Y66177D01*
X27559Y65753D01*
X24636Y68676D01*
X25060Y68679D01*
X25821Y68731D01*
X26157Y68779D01*
X26465Y68843D01*
X26743Y68922D01*
X26992Y69015D01*
X27211Y69124D01*
X27402Y69248D01*
X27563Y69388D01*
X28270Y68680D01*
D02*
G37*
G36*
X130137Y66384D02*
X130052Y66354D01*
X129977Y66304D01*
X129912Y66234D01*
X129857Y66144D01*
X129812Y66034D01*
X129777Y65904D01*
X129752Y65754D01*
X129737Y65584D01*
X129732Y65394D01*
X128732D01*
X128727Y65584D01*
X128712Y65754D01*
X128687Y65904D01*
X128652Y66034D01*
X128607Y66144D01*
X128552Y66234D01*
X128487Y66304D01*
X128412Y66354D01*
X128327Y66384D01*
X128232Y66394D01*
X130232D01*
X130137Y66384D01*
D02*
G37*
G36*
X76152Y65120D02*
X76129Y65128D01*
X76088Y65136D01*
X76028Y65143D01*
X75736Y65157D01*
X75085Y65165D01*
Y66165D01*
X76152Y66210D01*
Y65120D01*
D02*
G37*
G36*
X73647Y66429D02*
X73720Y66374D01*
X73798Y66325D01*
X73883Y66282D01*
X73974Y66246D01*
X74070Y66217D01*
X74173Y66194D01*
X74281Y66178D01*
X74395Y66168D01*
X74515Y66165D01*
X74515Y65165D01*
X74395Y65161D01*
X74281Y65152D01*
X74173Y65135D01*
X74070Y65112D01*
X73974Y65083D01*
X73883Y65047D01*
X73798Y65004D01*
X73720Y64956D01*
X73647Y64900D01*
X73580Y64838D01*
X73580Y66491D01*
X73647Y66429D01*
D02*
G37*
G36*
X125839Y64232D02*
X125881Y64225D01*
X125941Y64218D01*
X126233Y64203D01*
X126884Y64196D01*
Y63196D01*
X125816Y63151D01*
Y64241D01*
X125839Y64232D01*
D02*
G37*
G36*
Y62264D02*
X125881Y62256D01*
X125941Y62250D01*
X126233Y62235D01*
X126884Y62228D01*
Y61228D01*
X125816Y61183D01*
Y62273D01*
X125839Y62264D01*
D02*
G37*
G36*
X118961Y60747D02*
X119083Y60645D01*
X119207Y60554D01*
X119335Y60476D01*
X119465Y60410D01*
X119597Y60356D01*
X119733Y60313D01*
X119820Y60294D01*
X120050Y60304D01*
Y60264D01*
X120155Y60259D01*
X120155Y59259D01*
X120050Y59255D01*
Y59214D01*
X120027Y59223D01*
X119986Y59230D01*
X119925Y59237D01*
X119898Y59238D01*
X119871Y59235D01*
X119733Y59205D01*
X119597Y59163D01*
X119465Y59109D01*
X119335Y59042D01*
X119207Y58964D01*
X119083Y58874D01*
X118961Y58771D01*
X118841Y58657D01*
X118841Y60861D01*
X118961Y60747D01*
D02*
G37*
G36*
X72815Y58414D02*
X72851Y58057D01*
X72860Y58058D01*
X72852Y58041D01*
X72879Y57774D01*
X72935Y57514D01*
X73007Y57294D01*
X73095Y57114D01*
X73199Y56974D01*
X73318Y56874D01*
X73454Y56814D01*
X73606Y56794D01*
X70087D01*
X70224Y56814D01*
X70346Y56874D01*
X70454Y56974D01*
X70548Y57114D01*
X70627Y57294D01*
X70692Y57514D01*
X70732Y57720D01*
X70717Y57765D01*
X70693Y57812D01*
X70666Y57843D01*
X70752Y57852D01*
X70778Y58074D01*
X70800Y58414D01*
X70807Y58794D01*
X72807D01*
X72815Y58414D01*
D02*
G37*
G36*
X28325Y58124D02*
X28186Y57963D01*
X28062Y57772D01*
X27953Y57553D01*
X27859Y57304D01*
X27781Y57026D01*
X27717Y56718D01*
X27669Y56382D01*
X27617Y55621D01*
X27614Y55197D01*
X24691Y58120D01*
X25115Y58123D01*
X25876Y58175D01*
X26212Y58223D01*
X26520Y58287D01*
X26798Y58365D01*
X27047Y58459D01*
X27266Y58568D01*
X27457Y58692D01*
X27618Y58831D01*
X28325Y58124D01*
D02*
G37*
G36*
X118622Y56494D02*
X118695Y56439D01*
X118774Y56391D01*
X118859Y56348D01*
X118950Y56313D01*
X119046Y56283D01*
X119149Y56261D01*
X119246Y56246D01*
X119761Y56280D01*
X119857Y56298D01*
X119937Y56318D01*
X120001Y56341D01*
X120050Y56367D01*
Y55277D01*
X120054Y55269D01*
X120040Y55261D01*
X120008Y55254D01*
X119958Y55248D01*
X119803Y55239D01*
X119499Y55235D01*
X119499Y55231D01*
X119379Y55228D01*
X119265Y55218D01*
X119157Y55202D01*
X119054Y55179D01*
X118958Y55149D01*
X118868Y55113D01*
X118783Y55070D01*
X118705Y55021D01*
X118632Y54965D01*
X118565Y54902D01*
X118554Y56556D01*
X118622Y56494D01*
D02*
G37*
G36*
X73616Y54759D02*
X73646Y54674D01*
X73696Y54599D01*
X73766Y54534D01*
X73856Y54479D01*
X73966Y54434D01*
X74096Y54399D01*
X74246Y54374D01*
X74416Y54359D01*
X74588Y54354D01*
X74673Y54354D01*
Y53354D01*
X74587Y53353D01*
X74416Y53349D01*
X74246Y53335D01*
X74096Y53311D01*
X73966Y53278D01*
X73856Y53236D01*
X73766Y53184D01*
X73696Y53122D01*
X73646Y53051D01*
X73616Y52971D01*
X73606Y52881D01*
Y53306D01*
X72795Y53252D01*
X72667Y53221D01*
X72573Y53185D01*
X72514Y53146D01*
Y54561D01*
X72573Y54522D01*
X72667Y54486D01*
X72795Y54455D01*
X72959Y54428D01*
X73391Y54387D01*
X73606Y54379D01*
Y54854D01*
X73616Y54759D01*
D02*
G37*
G36*
X125839Y54390D02*
X125881Y54382D01*
X125941Y54376D01*
X126233Y54361D01*
X126884Y54354D01*
Y53354D01*
X125816Y53309D01*
Y54399D01*
X125839Y54390D01*
D02*
G37*
G36*
X76152Y53309D02*
X76129Y53317D01*
X76088Y53325D01*
X76028Y53332D01*
X75736Y53346D01*
X75085Y53354D01*
Y54354D01*
X76152Y54399D01*
Y53309D01*
D02*
G37*
G36*
X125848Y52416D02*
X125897Y52403D01*
X125964Y52391D01*
X126151Y52373D01*
X126565Y52357D01*
X126930Y52354D01*
X126838Y51354D01*
X125816Y51340D01*
Y52430D01*
X125848Y52416D01*
D02*
G37*
G36*
X64788Y51075D02*
X64861Y51019D01*
X64940Y50970D01*
X65025Y50928D01*
X65115Y50892D01*
X65212Y50862D01*
X65314Y50840D01*
X65422Y50823D01*
X65537Y50814D01*
X65657Y50810D01*
Y49810D01*
X65537Y49807D01*
X65422Y49797D01*
X65314Y49781D01*
X65212Y49758D01*
X65115Y49729D01*
X65025Y49693D01*
X64940Y49650D01*
X64861Y49601D01*
X64788Y49546D01*
X64721Y49483D01*
Y51137D01*
X64788Y51075D01*
D02*
G37*
G36*
X118967Y50907D02*
X119088Y50804D01*
X119212Y50713D01*
X119339Y50634D01*
X119469Y50568D01*
X119601Y50513D01*
X119736Y50471D01*
X119823Y50452D01*
X120050Y50462D01*
Y50421D01*
X120158Y50417D01*
X120151Y49417D01*
X120050Y49412D01*
Y49372D01*
X120027Y49380D01*
X119986Y49388D01*
X119925Y49395D01*
X119895Y49396D01*
X119867Y49393D01*
X119729Y49363D01*
X119594Y49321D01*
X119461Y49267D01*
X119330Y49201D01*
X119202Y49123D01*
X119077Y49033D01*
X118954Y48931D01*
X118833Y48817D01*
X118849Y51022D01*
X118967Y50907D01*
D02*
G37*
G36*
X91289Y76861D02*
X90979Y76654D01*
X90628Y76128D01*
X90504Y75507D01*
Y70192D01*
X90628Y69572D01*
X90631Y69566D01*
Y69272D01*
X90748Y68686D01*
X91079Y68190D01*
X92540Y66729D01*
X92552Y66714D01*
X92568Y66689D01*
X92560Y66649D01*
X92729Y65798D01*
X93211Y65076D01*
X93932Y64594D01*
X94784Y64425D01*
X95635Y64594D01*
X96356Y65076D01*
X96838Y65798D01*
X97007Y66649D01*
X96838Y67500D01*
X96416Y68131D01*
X96492Y68497D01*
X96580Y68673D01*
X96684Y68694D01*
X97047Y68937D01*
X97411Y68694D01*
X98032Y68571D01*
X98652Y68694D01*
X99016Y68937D01*
X99379Y68694D01*
X100000Y68571D01*
X100621Y68694D01*
X100984Y68937D01*
X101348Y68694D01*
X101969Y68571D01*
X102589Y68694D01*
X102953Y68937D01*
X103316Y68694D01*
X103937Y68571D01*
X104558Y68694D01*
X104921Y68937D01*
X105285Y68694D01*
X105905Y68571D01*
X106526Y68694D01*
X106890Y68937D01*
X107253Y68694D01*
X107874Y68571D01*
X108495Y68694D01*
X108858Y68937D01*
X109222Y68694D01*
X109843Y68571D01*
X110463Y68694D01*
X110827Y68937D01*
X111190Y68694D01*
X111716Y68589D01*
X111866Y68310D01*
X111915Y68081D01*
X110598Y66764D01*
X110377Y66434D01*
X110299Y66043D01*
Y49044D01*
X109814Y48559D01*
X89563D01*
X89193Y48929D01*
X89209Y67420D01*
X89209Y67421D01*
X89209Y67421D01*
X89170Y67618D01*
X89131Y67811D01*
X89131Y67811D01*
X89131Y67811D01*
X89020Y67978D01*
X88911Y68142D01*
X88910Y68142D01*
X88910Y68142D01*
X88826Y68226D01*
X88963Y68796D01*
X89336Y69045D01*
X89687Y69572D01*
X89811Y70192D01*
Y75507D01*
X89751Y75805D01*
X89718Y76589D01*
Y77011D01*
X90145Y77299D01*
X90184Y77306D01*
X91056D01*
X91289Y76861D01*
D02*
G37*
G36*
X128063Y46933D02*
X127731Y46571D01*
X127390D01*
Y45540D01*
X126208D01*
X126027Y45550D01*
X126024Y45550D01*
X126021Y45550D01*
X125994Y45553D01*
X125992Y45553D01*
X125591Y45633D01*
X120276D01*
X119978Y45573D01*
X119193Y45540D01*
X116420D01*
X116417Y47137D01*
X116917Y47472D01*
X117044Y47419D01*
X117717Y47330D01*
X118389Y47419D01*
X119015Y47678D01*
X119533Y48076D01*
X119534Y48077D01*
X119535Y48077D01*
X119553Y48091D01*
X119562Y48103D01*
X119630Y48168D01*
X119700Y48225D01*
X119765Y48272D01*
X119826Y48309D01*
X119883Y48338D01*
X119937Y48360D01*
X119942Y48361D01*
X120276Y48295D01*
X125591D01*
X126211Y48418D01*
X126737Y48770D01*
X127089Y49296D01*
X127212Y49917D01*
X127208Y49938D01*
X127525Y50325D01*
X128063D01*
Y46933D01*
D02*
G37*
G36*
X61129Y48343D02*
X61155Y48283D01*
X61193Y48229D01*
X61244Y48183D01*
X61307Y48144D01*
X61382Y48111D01*
X61470Y48087D01*
X61570Y48069D01*
X61682Y48058D01*
X61807Y48054D01*
X61572Y47054D01*
X60202Y47139D01*
X61116Y48411D01*
X61129Y48343D01*
D02*
G37*
G36*
X76152Y46525D02*
Y45435D01*
X76113Y45454D01*
X76056Y45472D01*
X75983Y45488D01*
X75893Y45501D01*
X75661Y45522D01*
X75188Y45538D01*
X74997Y45539D01*
X75223Y46539D01*
X76152Y46525D01*
D02*
G37*
G36*
X75689Y79149D02*
X77954Y76884D01*
X86660Y76843D01*
Y76124D01*
X86650Y75943D01*
X86650Y75941D01*
X86650Y75937D01*
X86647Y75911D01*
X86647Y75909D01*
X86567Y75507D01*
Y70192D01*
X86691Y69572D01*
X86811Y69392D01*
Y68799D01*
X88189Y67421D01*
X88173Y48507D01*
X89141Y47539D01*
X110236D01*
X111319Y48622D01*
Y66043D01*
X113863Y68587D01*
X114400Y68694D01*
X114926Y69045D01*
X115278Y69572D01*
X115401Y70192D01*
Y75507D01*
X115342Y75805D01*
X115329Y76105D01*
X115809Y76605D01*
X124745Y76605D01*
X125098Y76252D01*
X125098Y73130D01*
X115394Y63426D01*
X115395Y60882D01*
X115208Y60431D01*
X115120Y59759D01*
X115208Y59087D01*
X115395Y58636D01*
X115395Y51051D01*
X115208Y50600D01*
X115120Y49927D01*
X115208Y49255D01*
X115395Y48803D01*
X115395Y48292D01*
X115404Y43939D01*
X115051Y43585D01*
X83475Y43574D01*
X83464Y66247D01*
X81581Y68131D01*
X75388Y68131D01*
X70177Y73342D01*
Y74460D01*
X70118Y74547D01*
X69978Y74677D01*
X69797Y74787D01*
X69575Y74877D01*
X69314Y74947D01*
X69012Y74997D01*
X68670Y75027D01*
X68288Y75037D01*
Y77037D01*
X68670Y77047D01*
X69012Y77077D01*
X69314Y77127D01*
X69575Y77197D01*
X69797Y77287D01*
X69978Y77397D01*
X70118Y77527D01*
X70177Y77615D01*
Y79149D01*
X75689Y79149D01*
D02*
G37*
G36*
X125839Y44548D02*
X125881Y44540D01*
X125941Y44533D01*
X126233Y44518D01*
X126884Y44511D01*
Y43511D01*
X125816Y43466D01*
Y44556D01*
X125839Y44548D01*
D02*
G37*
G36*
X120050Y43466D02*
X120027Y43475D01*
X119986Y43482D01*
X119925Y43489D01*
X119633Y43504D01*
X118983Y43511D01*
Y44511D01*
X120050Y44556D01*
Y43466D01*
D02*
G37*
G36*
X81941Y44548D02*
X81983Y44540D01*
X82043Y44533D01*
X82335Y44518D01*
X82986Y44511D01*
Y43511D01*
X81919Y43466D01*
Y44556D01*
X81941Y44548D01*
D02*
G37*
G36*
X76152Y43466D02*
X76129Y43475D01*
X76088Y43482D01*
X76028Y43489D01*
X75736Y43504D01*
X75085Y43511D01*
Y44511D01*
X76152Y44556D01*
Y43466D01*
D02*
G37*
G36*
X128402Y43011D02*
X128392Y43106D01*
X128362Y43191D01*
X128312Y43266D01*
X128242Y43331D01*
X128152Y43386D01*
X128042Y43431D01*
X127912Y43466D01*
X127762Y43491D01*
X127592Y43506D01*
X127402Y43511D01*
Y44511D01*
X127592Y44516D01*
X127762Y44531D01*
X127912Y44556D01*
X128042Y44591D01*
X128152Y44636D01*
X128242Y44691D01*
X128312Y44756D01*
X128362Y44831D01*
X128392Y44916D01*
X128402Y45011D01*
Y43011D01*
D02*
G37*
G36*
X72986Y44916D02*
X73016Y44831D01*
X73066Y44756D01*
X73136Y44691D01*
X73226Y44636D01*
X73336Y44591D01*
X73466Y44556D01*
X73616Y44531D01*
X73786Y44516D01*
X73976Y44511D01*
Y43511D01*
X73786Y43506D01*
X73616Y43491D01*
X73466Y43466D01*
X73336Y43431D01*
X73226Y43386D01*
X73136Y43331D01*
X73066Y43266D01*
X73016Y43191D01*
X72986Y43106D01*
X72976Y43011D01*
Y45011D01*
X72986Y44916D01*
D02*
G37*
G36*
X76152Y41498D02*
X76129Y41506D01*
X76088Y41514D01*
X76028Y41521D01*
X75736Y41535D01*
X75085Y41543D01*
Y42542D01*
X76152Y42588D01*
Y41498D01*
D02*
G37*
G36*
X27562Y44157D02*
X27614Y43397D01*
X27662Y43060D01*
X27726Y42753D01*
X27804Y42475D01*
X27898Y42226D01*
X28007Y42006D01*
X28131Y41816D01*
X28270Y41654D01*
X27563Y40947D01*
X27402Y41086D01*
X27211Y41210D01*
X26992Y41319D01*
X26743Y41413D01*
X26465Y41492D01*
X26157Y41555D01*
X25821Y41604D01*
X25060Y41655D01*
X24636Y41659D01*
X27559Y44582D01*
X27562Y44157D01*
D02*
G37*
G36*
X125839Y40611D02*
X125881Y40603D01*
X125941Y40596D01*
X126233Y40581D01*
X126884Y40574D01*
Y39574D01*
X125816Y39529D01*
Y40619D01*
X125839Y40611D01*
D02*
G37*
G36*
X120050Y39529D02*
X120027Y39538D01*
X119986Y39545D01*
X119925Y39552D01*
X119633Y39567D01*
X118983Y39574D01*
Y40574D01*
X120050Y40619D01*
Y39529D01*
D02*
G37*
G36*
X131221Y39872D02*
X131589Y39561D01*
X131751Y39448D01*
X131900Y39363D01*
X132034Y39307D01*
X132154Y39279D01*
X132261D01*
X132352Y39307D01*
X132430Y39363D01*
X131016Y37949D01*
X131072Y38027D01*
X131101Y38119D01*
Y38225D01*
X131072Y38345D01*
X131016Y38479D01*
X130931Y38628D01*
X130818Y38791D01*
X130676Y38967D01*
X130309Y39363D01*
X131016Y40070D01*
X131221Y39872D01*
D02*
G37*
G36*
X134928Y37519D02*
X134959Y37434D01*
X135009Y37359D01*
X135081Y37294D01*
X135172Y37239D01*
X135283Y37194D01*
X135414Y37159D01*
X135566Y37134D01*
X135737Y37119D01*
X135929Y37114D01*
Y36114D01*
X135739Y36112D01*
X135419Y36090D01*
X135289Y36071D01*
X135179Y36047D01*
X135089Y36017D01*
X135019Y35982D01*
X134969Y35941D01*
X134939Y35895D01*
X134929Y35844D01*
X134917Y37614D01*
X134928Y37519D01*
D02*
G37*
G36*
X137130Y35614D02*
X137120Y35709D01*
X137090Y35794D01*
X137039Y35869D01*
X136968Y35934D01*
X136877Y35989D01*
X136766Y36034D01*
X136634Y36069D01*
X136483Y36094D01*
X136311Y36109D01*
X136118Y36114D01*
Y37114D01*
X136311Y37119D01*
X136483Y37134D01*
X136634Y37159D01*
X136766Y37194D01*
X136877Y37239D01*
X136968Y37294D01*
X137039Y37359D01*
X137090Y37434D01*
X137120Y37519D01*
X137130Y37614D01*
Y35614D01*
D02*
G37*
G36*
X96542Y36275D02*
X96468Y36243D01*
X96401Y36201D01*
X96342Y36149D01*
X96291Y36087D01*
X96248Y36015D01*
X96213Y35933D01*
X96186Y35841D01*
X96166Y35738D01*
X96154Y35626D01*
X96150Y35503D01*
X95151Y35619D01*
X95149Y35833D01*
X95091Y36840D01*
X95076Y36915D01*
X95058Y36972D01*
X96542Y36275D01*
D02*
G37*
G36*
X123740Y35549D02*
X123655Y35519D01*
X123580Y35468D01*
X123515Y35397D01*
X123460Y35306D01*
X123415Y35195D01*
X123380Y35063D01*
X123355Y34912D01*
X123340Y34739D01*
X123335Y34547D01*
X122335D01*
X122330Y34739D01*
X122315Y34912D01*
X122290Y35063D01*
X122255Y35195D01*
X122210Y35306D01*
X122155Y35397D01*
X122090Y35468D01*
X122015Y35519D01*
X121930Y35549D01*
X121835Y35559D01*
X123835D01*
X123740Y35549D01*
D02*
G37*
G36*
X98932Y33335D02*
X98859Y33286D01*
X98794Y33228D01*
X98736Y33163D01*
X98686Y33090D01*
X98644Y33009D01*
X98610Y32919D01*
X98583Y32822D01*
X98563Y32717D01*
X98555Y32632D01*
X98576Y31835D01*
X97487D01*
X97498Y31863D01*
X97509Y31908D01*
X97518Y31972D01*
X97533Y32154D01*
X97548Y32737D01*
X97548Y32785D01*
X97546Y32880D01*
X97528Y33105D01*
X97513Y33209D01*
X97468Y33404D01*
X97440Y33493D01*
X97406Y33578D01*
X97369Y33657D01*
X97326Y33732D01*
X98932Y33335D01*
D02*
G37*
G36*
X96529Y32690D02*
X96579Y31914D01*
X96593Y31867D01*
X96608Y31835D01*
X95518D01*
X95520Y31848D01*
X95522Y31881D01*
X95528Y32851D01*
X96528Y32864D01*
X96529Y32690D01*
D02*
G37*
G36*
X27450Y35125D02*
X27643Y34832D01*
X27840Y34574D01*
X28043Y34350D01*
X28251Y34161D01*
X28464Y34007D01*
X28682Y33886D01*
X28905Y33800D01*
X29134Y33748D01*
X29368Y33731D01*
X29072Y32731D01*
X28909Y32719D01*
X28716Y32681D01*
X28493Y32619D01*
X28242Y32531D01*
X27649Y32281D01*
X26938Y31932D01*
X26109Y31482D01*
X27263Y35451D01*
X27450Y35125D01*
D02*
G37*
G36*
X116336Y29857D02*
X116366Y29772D01*
X116417Y29697D01*
X116488Y29632D01*
X116579Y29577D01*
X116690Y29532D01*
X116822Y29497D01*
X116974Y29472D01*
X117146Y29457D01*
X117288Y29453D01*
X117366Y29455D01*
X117478Y29466D01*
X117578Y29483D01*
X117664Y29507D01*
X117738Y29537D01*
X117799Y29575D01*
X117847Y29619D01*
X117883Y29670D01*
X117905Y29728D01*
X117915Y29793D01*
X118874Y28579D01*
X117506Y28452D01*
X117338Y29084D01*
Y28452D01*
X117146Y28447D01*
X116974Y28432D01*
X116822Y28407D01*
X116690Y28372D01*
X116579Y28327D01*
X116488Y28272D01*
X116417Y28207D01*
X116366Y28132D01*
X116336Y28047D01*
X116326Y27952D01*
Y29952D01*
X116336Y29857D01*
D02*
G37*
G36*
X123338Y28544D02*
X123348Y28430D01*
X123364Y28321D01*
X123387Y28219D01*
X123416Y28122D01*
X123452Y28032D01*
X123495Y27947D01*
X123544Y27868D01*
X123599Y27795D01*
X123661Y27729D01*
X122008D01*
X122070Y27795D01*
X122125Y27868D01*
X122175Y27947D01*
X122217Y28032D01*
X122253Y28122D01*
X122282Y28219D01*
X122305Y28321D01*
X122322Y28430D01*
X122331Y28544D01*
X122335Y28664D01*
X123335D01*
X123338Y28544D01*
D02*
G37*
G36*
X110379Y26046D02*
X110371Y26005D01*
X110365Y25945D01*
X110350Y25652D01*
X110343Y25001D01*
X109343D01*
X109298Y26069D01*
X110388D01*
X110379Y26046D01*
D02*
G37*
G36*
X88725D02*
X88718Y26005D01*
X88711Y25945D01*
X88696Y25652D01*
X88689Y25001D01*
X87689D01*
X87644Y26069D01*
X88734D01*
X88725Y26046D01*
D02*
G37*
G36*
X143051Y25883D02*
X144624Y24311D01*
X177854Y24311D01*
X177854Y21868D01*
X177912Y21707D01*
X178013Y21557D01*
X178154Y21427D01*
X178335Y21317D01*
X178556Y21227D01*
X178818Y21157D01*
X179119Y21107D01*
X179389Y21083D01*
X180499Y21163D01*
X180639Y21198D01*
X180739Y21238D01*
X180799Y21284D01*
X180819Y21335D01*
Y18799D01*
X180799Y18850D01*
X180739Y18896D01*
X180639Y18936D01*
X180499Y18971D01*
X180319Y19000D01*
X180099Y19024D01*
X179384Y19056D01*
X178822Y19017D01*
X178562Y18978D01*
X178342Y18929D01*
X178162Y18868D01*
X178022Y18796D01*
X177922Y18713D01*
X177862Y18619D01*
X177842Y18514D01*
X177841Y18844D01*
X177501Y18504D01*
X98776Y18504D01*
X85226Y18504D01*
X85226Y23957D01*
X85579Y24311D01*
X87687Y24311D01*
X87689Y24390D01*
X88689D01*
X88691Y24311D01*
X109340Y24311D01*
X109343Y24406D01*
X110343D01*
X110345Y24311D01*
X134436Y24311D01*
X136106Y25981D01*
Y30168D01*
X143051Y30169D01*
X143051Y25883D01*
D02*
G37*
G36*
X221926Y93477D02*
X221871Y93404D01*
X221821Y93325D01*
X221779Y93240D01*
X221743Y93150D01*
X221714Y93054D01*
X221691Y92951D01*
X221674Y92843D01*
X221665Y92729D01*
X221661Y92609D01*
X220661D01*
X220658Y92729D01*
X220648Y92843D01*
X220632Y92951D01*
X220609Y93054D01*
X220580Y93150D01*
X220544Y93240D01*
X220501Y93325D01*
X220452Y93404D01*
X220397Y93477D01*
X220335Y93544D01*
X221988D01*
X221926Y93477D01*
D02*
G37*
G36*
X217005Y91115D02*
X216949Y91042D01*
X216900Y90963D01*
X216858Y90878D01*
X216822Y90788D01*
X216792Y90691D01*
X216770Y90589D01*
X216753Y90481D01*
X216743Y90367D01*
X216740Y90246D01*
X215740D01*
X215737Y90367D01*
X215727Y90481D01*
X215711Y90589D01*
X215688Y90691D01*
X215658Y90788D01*
X215622Y90878D01*
X215580Y90963D01*
X215531Y91042D01*
X215476Y91115D01*
X215413Y91182D01*
X217067D01*
X217005Y91115D01*
D02*
G37*
G36*
X212084Y87636D02*
X212028Y87563D01*
X211979Y87484D01*
X211936Y87400D01*
X211901Y87309D01*
X211871Y87213D01*
X211848Y87110D01*
X211832Y87002D01*
X211822Y86888D01*
X211819Y86768D01*
X210819D01*
X210816Y86888D01*
X210806Y87002D01*
X210789Y87110D01*
X210767Y87213D01*
X210737Y87309D01*
X210701Y87400D01*
X210659Y87484D01*
X210610Y87563D01*
X210554Y87636D01*
X210492Y87703D01*
X212146D01*
X212084Y87636D01*
D02*
G37*
G36*
X221666Y85048D02*
X221681Y84876D01*
X221706Y84724D01*
X221741Y84592D01*
X221786Y84481D01*
X221841Y84390D01*
X221906Y84319D01*
X221981Y84268D01*
X222066Y84238D01*
X222161Y84228D01*
X220161D01*
X220256Y84238D01*
X220341Y84268D01*
X220416Y84319D01*
X220481Y84390D01*
X220536Y84481D01*
X220581Y84592D01*
X220616Y84724D01*
X220641Y84876D01*
X220656Y85048D01*
X220661Y85240D01*
X221661D01*
X221666Y85048D01*
D02*
G37*
G36*
X216745D02*
X216760Y84876D01*
X216785Y84724D01*
X216820Y84592D01*
X216865Y84481D01*
X216920Y84390D01*
X216985Y84319D01*
X217060Y84268D01*
X217145Y84238D01*
X217240Y84228D01*
X215240D01*
X215335Y84238D01*
X215420Y84268D01*
X215495Y84319D01*
X215560Y84390D01*
X215615Y84481D01*
X215660Y84592D01*
X215695Y84724D01*
X215720Y84876D01*
X215735Y85048D01*
X215740Y85240D01*
X216740D01*
X216745Y85048D01*
D02*
G37*
G36*
X211824D02*
X211839Y84876D01*
X211864Y84724D01*
X211899Y84592D01*
X211944Y84481D01*
X211999Y84390D01*
X212064Y84319D01*
X212139Y84268D01*
X212224Y84238D01*
X212319Y84228D01*
X210319D01*
X210414Y84238D01*
X210499Y84268D01*
X210574Y84319D01*
X210639Y84390D01*
X210694Y84481D01*
X210739Y84592D01*
X210774Y84724D01*
X210799Y84876D01*
X210814Y85048D01*
X210819Y85240D01*
X211819D01*
X211824Y85048D01*
D02*
G37*
G36*
X207190Y85589D02*
X207134Y85516D01*
X207085Y85437D01*
X207043Y85352D01*
X207007Y85262D01*
X206978Y85165D01*
X206955Y85063D01*
X206938Y84955D01*
X206945Y84876D01*
X206970Y84724D01*
X207005Y84592D01*
X207050Y84481D01*
X207105Y84390D01*
X207170Y84319D01*
X207245Y84268D01*
X207330Y84238D01*
X207425Y84228D01*
X205425D01*
X205520Y84238D01*
X205605Y84268D01*
X205680Y84319D01*
X205745Y84390D01*
X205800Y84481D01*
X205845Y84592D01*
X205880Y84724D01*
X205905Y84876D01*
X205912Y84955D01*
X205896Y85063D01*
X205873Y85165D01*
X205843Y85262D01*
X205808Y85352D01*
X205765Y85437D01*
X205716Y85516D01*
X205661Y85589D01*
X205598Y85656D01*
X207252D01*
X207190Y85589D01*
D02*
G37*
G36*
X265555Y79136D02*
X265470Y79106D01*
X265395Y79056D01*
X265330Y78986D01*
X265275Y78896D01*
X265230Y78786D01*
X265195Y78656D01*
X265170Y78506D01*
X265155Y78336D01*
X265153Y78263D01*
X265153Y78257D01*
X265163Y78143D01*
X265179Y78035D01*
X265202Y77932D01*
X265231Y77836D01*
X265267Y77745D01*
X265310Y77661D01*
X265359Y77582D01*
X265414Y77509D01*
X265476Y77442D01*
X263823D01*
X263885Y77509D01*
X263941Y77582D01*
X263989Y77661D01*
X264032Y77745D01*
X264068Y77836D01*
X264097Y77932D01*
X264120Y78035D01*
X264137Y78143D01*
X264146Y78257D01*
X264146Y78263D01*
X264145Y78336D01*
X264130Y78506D01*
X264105Y78656D01*
X264070Y78786D01*
X264025Y78896D01*
X263970Y78986D01*
X263905Y79056D01*
X263830Y79106D01*
X263745Y79136D01*
X263650Y79146D01*
X265650D01*
X265555Y79136D01*
D02*
G37*
G36*
X275330D02*
X275245Y79106D01*
X275170Y79056D01*
X275105Y78986D01*
X275050Y78896D01*
X275005Y78786D01*
X274970Y78656D01*
X274945Y78506D01*
X274930Y78336D01*
X274926Y78187D01*
X274928Y78108D01*
X274938Y77993D01*
X274955Y77885D01*
X274977Y77783D01*
X275007Y77686D01*
X275043Y77596D01*
X275085Y77511D01*
X275134Y77432D01*
X275190Y77359D01*
X275252Y77292D01*
X273598D01*
X273660Y77359D01*
X273716Y77432D01*
X273765Y77511D01*
X273808Y77596D01*
X273844Y77686D01*
X273873Y77783D01*
X273896Y77885D01*
X273912Y77993D01*
X273922Y78108D01*
X273924Y78187D01*
X273920Y78336D01*
X273905Y78506D01*
X273880Y78656D01*
X273845Y78786D01*
X273800Y78896D01*
X273745Y78986D01*
X273680Y79056D01*
X273605Y79106D01*
X273520Y79136D01*
X273425Y79146D01*
X275425D01*
X275330Y79136D01*
D02*
G37*
G36*
X270448D02*
X270363Y79106D01*
X270288Y79056D01*
X270223Y78986D01*
X270168Y78896D01*
X270123Y78786D01*
X270088Y78656D01*
X270063Y78506D01*
X270048Y78336D01*
X270044Y78187D01*
X270047Y78108D01*
X270056Y77993D01*
X270073Y77885D01*
X270096Y77783D01*
X270125Y77686D01*
X270161Y77596D01*
X270203Y77511D01*
X270252Y77432D01*
X270308Y77359D01*
X270370Y77292D01*
X268717D01*
X268779Y77359D01*
X268834Y77432D01*
X268883Y77511D01*
X268926Y77596D01*
X268962Y77686D01*
X268991Y77783D01*
X269014Y77885D01*
X269030Y77993D01*
X269040Y78108D01*
X269042Y78187D01*
X269038Y78336D01*
X269023Y78506D01*
X268998Y78656D01*
X268963Y78786D01*
X268918Y78896D01*
X268863Y78986D01*
X268798Y79056D01*
X268723Y79106D01*
X268638Y79136D01*
X268543Y79146D01*
X270543D01*
X270448Y79136D01*
D02*
G37*
G36*
X260661D02*
X260576Y79106D01*
X260501Y79056D01*
X260436Y78986D01*
X260381Y78896D01*
X260336Y78786D01*
X260301Y78656D01*
X260276Y78506D01*
X260261Y78336D01*
X260257Y78187D01*
X260259Y78108D01*
X260269Y77993D01*
X260285Y77885D01*
X260308Y77783D01*
X260338Y77686D01*
X260373Y77596D01*
X260416Y77511D01*
X260465Y77432D01*
X260521Y77359D01*
X260583Y77292D01*
X258929D01*
X258991Y77359D01*
X259047Y77432D01*
X259096Y77511D01*
X259138Y77596D01*
X259174Y77686D01*
X259204Y77783D01*
X259226Y77885D01*
X259243Y77993D01*
X259253Y78108D01*
X259255Y78187D01*
X259251Y78336D01*
X259236Y78506D01*
X259211Y78656D01*
X259176Y78786D01*
X259131Y78896D01*
X259076Y78986D01*
X259011Y79056D01*
X258936Y79106D01*
X258851Y79136D01*
X258756Y79146D01*
X260756D01*
X260661Y79136D01*
D02*
G37*
G36*
X140655Y57764D02*
X140358Y57456D01*
X139892Y56905D01*
X139722Y56660D01*
X139594Y56438D01*
X139510Y56236D01*
X139467Y56056D01*
Y55897D01*
X139510Y55759D01*
X139594Y55642D01*
X137473Y57764D01*
X137590Y57679D01*
X137728Y57636D01*
X137887D01*
X138067Y57679D01*
X138269Y57764D01*
X138491Y57891D01*
X138735Y58061D01*
X139000Y58273D01*
X139594Y58824D01*
X140655Y57764D01*
D02*
G37*
G36*
X157801Y60100D02*
X157945Y59982D01*
X158093Y59879D01*
X158244Y59789D01*
X158400Y59714D01*
X158559Y59652D01*
X158721Y59605D01*
X158888Y59572D01*
X159058Y59552D01*
X159232Y59547D01*
X157283Y57598D01*
X157278Y57772D01*
X157259Y57943D01*
X157226Y58109D01*
X157178Y58272D01*
X157117Y58431D01*
X157042Y58586D01*
X156952Y58738D01*
X156849Y58886D01*
X156731Y59030D01*
X156599Y59171D01*
X157660Y60231D01*
X157801Y60100D01*
D02*
G37*
G36*
X162761Y48163D02*
X162591Y48126D01*
X162425Y48079D01*
X162262Y48021D01*
X162103Y47952D01*
X161948Y47874D01*
X161796Y47785D01*
X161648Y47685D01*
X161503Y47576D01*
X161362Y47455D01*
X161224Y47325D01*
X159937Y48159D01*
X160070Y48302D01*
X160185Y48447D01*
X160283Y48595D01*
X160363Y48746D01*
X160426Y48899D01*
X160470Y49054D01*
X160498Y49212D01*
X160507Y49372D01*
X160499Y49535D01*
X160474Y49700D01*
X162761Y48163D01*
D02*
G37*
G36*
X139510Y49950D02*
X139467Y49812D01*
Y49653D01*
X139510Y49472D01*
X139594Y49271D01*
X139722Y49048D01*
X139892Y48804D01*
X140104Y48539D01*
X140655Y47945D01*
X139594Y46884D01*
X139287Y47181D01*
X138735Y47648D01*
X138491Y47818D01*
X138269Y47945D01*
X138067Y48030D01*
X137887Y48072D01*
X137728D01*
X137590Y48030D01*
X137473Y47945D01*
X139594Y50066D01*
X139510Y49950D01*
D02*
G37*
G36*
X196666Y36233D02*
X196646Y36345D01*
X196586Y36445D01*
X196485Y36534D01*
X196346Y36610D01*
X196166Y36675D01*
X195946Y36728D01*
X195686Y36770D01*
X195652Y36773D01*
X195456Y36755D01*
X195196Y36701D01*
X194976Y36633D01*
X194796Y36549D01*
X194656Y36451D01*
X194556Y36337D01*
X194496Y36208D01*
X194476Y36063D01*
Y39582D01*
X194496Y39438D01*
X194556Y39309D01*
X194656Y39195D01*
X194796Y39096D01*
X194976Y39013D01*
X195196Y38944D01*
X195456Y38891D01*
X195515Y38884D01*
X195690Y38913D01*
X195952Y38983D01*
X196173Y39073D01*
X196354Y39183D01*
X196495Y39313D01*
X196596Y39463D01*
X196657Y39633D01*
X196677Y39823D01*
X196666Y36233D01*
D02*
G37*
G36*
X190563Y36063D02*
X190543Y36141D01*
X190483Y36211D01*
X190383Y36272D01*
X190243Y36325D01*
X190063Y36370D01*
X189843Y36407D01*
X189583Y36436D01*
X189400Y36445D01*
X189272Y36434D01*
X188972Y36386D01*
X188712Y36319D01*
X188492Y36233D01*
X188312Y36128D01*
X188172Y36004D01*
X188072Y35860D01*
X188012Y35698D01*
X187992Y35516D01*
Y39429D01*
X188012Y39247D01*
X188072Y39085D01*
X188172Y38941D01*
X188312Y38817D01*
X188492Y38712D01*
X188712Y38625D01*
X188972Y38559D01*
X189270Y38511D01*
X189286Y38513D01*
X189588Y38563D01*
X189849Y38633D01*
X190070Y38722D01*
X190252Y38833D01*
X190393Y38963D01*
X190494Y39112D01*
X190554Y39283D01*
X190575Y39472D01*
X190563Y36063D01*
D02*
G37*
G36*
X201416Y36213D02*
X201246Y36152D01*
X201096Y36053D01*
X200966Y35912D01*
X200856Y35732D01*
X200766Y35513D01*
X200696Y35252D01*
X200646Y34953D01*
X200616Y34613D01*
X200606Y34233D01*
X198606D01*
X198596Y34613D01*
X198566Y34953D01*
X198516Y35252D01*
X198446Y35513D01*
X198356Y35732D01*
X198246Y35912D01*
X198116Y36053D01*
X197966Y36152D01*
X197796Y36213D01*
X197606Y36233D01*
X201606D01*
X201416Y36213D01*
D02*
G37*
G36*
X200616Y26706D02*
X200645Y26366D01*
X200692Y26066D01*
X200759Y25806D01*
X200845Y25586D01*
X200951Y25406D01*
X201075Y25266D01*
X201219Y25166D01*
X201381Y25106D01*
X201563Y25086D01*
X197650D01*
X197831Y25106D01*
X197994Y25166D01*
X198138Y25266D01*
X198262Y25406D01*
X198367Y25586D01*
X198453Y25806D01*
X198520Y26066D01*
X198568Y26366D01*
X198597Y26706D01*
X198606Y27086D01*
X200606D01*
X200616Y26706D01*
D02*
G37*
G36*
X197650Y21567D02*
X197630Y21711D01*
X197570Y21841D01*
X197470Y21955D01*
X197330Y22053D01*
X197150Y22137D01*
X196930Y22205D01*
X196670Y22258D01*
X196370Y22296D01*
X196054Y22318D01*
X195453Y22277D01*
X195391Y22261D01*
X195346Y22244D01*
X195318Y22224D01*
Y24429D01*
X195346Y24410D01*
X195391Y24392D01*
X195453Y24377D01*
X195532Y24364D01*
X195739Y24343D01*
X195964Y24333D01*
X196030Y24334D01*
X196670Y24395D01*
X196930Y24448D01*
X197150Y24517D01*
X197330Y24600D01*
X197470Y24699D01*
X197570Y24813D01*
X197630Y24942D01*
X197650Y25086D01*
Y21567D01*
D02*
G37*
G36*
X194154Y21752D02*
X194125Y21746D01*
X194085Y21727D01*
X194034Y21694D01*
X193972Y21648D01*
X193816Y21516D01*
X193499Y21217D01*
X193372Y21091D01*
X191957Y22505D01*
X192084Y22633D01*
X192560Y23168D01*
X192593Y23219D01*
X192613Y23259D01*
X192619Y23288D01*
X194154Y21752D01*
D02*
G37*
G36*
X172762Y42326D02*
X172766Y42281D01*
X172854D01*
X172835Y42252D01*
X172818Y42207D01*
X172802Y42145D01*
X172789Y42067D01*
X172787Y42045D01*
X172792Y41984D01*
X172842Y41682D01*
X172912Y41421D01*
X173002Y41199D01*
X173112Y41018D01*
X173242Y40878D01*
X173392Y40777D01*
X173562Y40717D01*
X173752Y40696D01*
X169752D01*
X169942Y40717D01*
X170112Y40777D01*
X170262Y40878D01*
X170392Y41018D01*
X170502Y41199D01*
X170592Y41421D01*
X170662Y41682D01*
X170712Y41984D01*
X170712Y41989D01*
X170702Y42145D01*
X170686Y42207D01*
X170669Y42252D01*
X170650Y42281D01*
X170738D01*
X170742Y42326D01*
X170752Y42709D01*
X172752D01*
X172762Y42326D01*
D02*
G37*
G36*
X174685Y39578D02*
X174745Y39408D01*
X174845Y39258D01*
X174985Y39128D01*
X175165Y39018D01*
X175385Y38928D01*
X175645Y38858D01*
X175945Y38808D01*
X176096Y38794D01*
X176493Y38827D01*
X176753Y38873D01*
X176973Y38933D01*
X177153Y39006D01*
X177293Y39092D01*
X177393Y39191D01*
X177453Y39303D01*
X177473Y39429D01*
Y35768D01*
X177453Y35958D01*
X177393Y36128D01*
X177293Y36278D01*
X177153Y36408D01*
X176973Y36518D01*
X176753Y36608D01*
X176493Y36678D01*
X176193Y36728D01*
X176069Y36739D01*
X175945Y36728D01*
X175645Y36678D01*
X175385Y36608D01*
X175165Y36518D01*
X174985Y36408D01*
X174845Y36278D01*
X174745Y36128D01*
X174685Y35958D01*
X174665Y35768D01*
Y39768D01*
X174685Y39578D01*
D02*
G37*
G36*
X177638Y13883D02*
X177698Y13821D01*
X177798Y13766D01*
X177938Y13718D01*
X178118Y13678D01*
X178338Y13645D01*
X178898Y13601D01*
X179262Y13594D01*
X180499Y13683D01*
X180639Y13718D01*
X180739Y13758D01*
X180799Y13803D01*
X180819Y13854D01*
Y11319D01*
X180799Y11370D01*
X180739Y11415D01*
X180639Y11456D01*
X180499Y11490D01*
X180319Y11520D01*
X180099Y11544D01*
X179317Y11579D01*
X179238Y11577D01*
X178898Y11547D01*
X178598Y11497D01*
X178338Y11427D01*
X178118Y11337D01*
X177938Y11227D01*
X177798Y11097D01*
X177698Y10947D01*
X177638Y10777D01*
X177618Y10587D01*
Y13952D01*
X177638Y13883D01*
D02*
G37*
G36*
X193499Y11263D02*
X194034Y10786D01*
X194085Y10753D01*
X194125Y10734D01*
X194154Y10728D01*
X192619Y9192D01*
X192613Y9221D01*
X192593Y9262D01*
X192560Y9313D01*
X192514Y9374D01*
X192382Y9531D01*
X192084Y9848D01*
X191957Y9975D01*
X193372Y11389D01*
X193499Y11263D01*
D02*
G37*
D10*
X11793Y110236D02*
G03*
X0Y98443I0J-11793D01*
G01*
Y11663D02*
G03*
X11663Y0I11663J0D01*
G01*
X313050D02*
G03*
X324803Y11754I0J11754D01*
G01*
Y98418D02*
G03*
X312985Y110236I-11818J0D01*
G01*
X0Y92520D02*
Y98443D01*
X11793Y110236D02*
X12696D01*
X0Y25591D02*
Y92520D01*
Y11663D02*
Y25591D01*
X11663Y0D02*
X313050D01*
X324803Y11754D02*
Y98418D01*
X12696Y110236D02*
X312985D01*
D12*
X105070Y79099D02*
X107783Y76385D01*
X264650Y76598D02*
Y81610D01*
X264567Y81693D02*
X264650Y81610D01*
X216240Y81693D02*
Y92025D01*
X24661Y34055D02*
X25485Y33231D01*
X82523D01*
X96161Y37175D02*
Y37393D01*
X89366Y40074D02*
X122933D01*
X82523Y33231D02*
X89366Y40074D01*
X73521Y40657D02*
X74907Y42042D01*
X28561Y40657D02*
X73521D01*
X74907Y42042D02*
X79035D01*
X132973Y37604D02*
X133962Y36614D01*
X140059D01*
X122933Y40074D02*
X130305D01*
X132776Y37604D01*
X132973D01*
X129162Y44011D02*
X129177Y43996D01*
X122933Y44011D02*
X129162D01*
X83217D02*
X84747Y45540D01*
X115541Y44011D02*
X122933D01*
X114011Y45540D02*
X115541Y44011D01*
X274410Y81693D02*
X274425Y81677D01*
Y76449D02*
Y81677D01*
X269543Y76449D02*
Y81638D01*
X269488Y81693D02*
X269543Y81638D01*
X259646Y81693D02*
X259756Y81583D01*
Y76449D02*
Y81583D01*
X206425Y81721D02*
Y86499D01*
X206398Y81693D02*
X206425Y81721D01*
X113426Y105610D02*
X122244Y96792D01*
X53937Y105610D02*
X113426D01*
X24606Y76279D02*
X53937Y105610D01*
X122244Y89736D02*
Y96792D01*
X116831Y84716D02*
X117224D01*
X116437D02*
X116831D01*
X117224D02*
X122244Y89736D01*
X24606Y65723D02*
X57867Y98985D01*
X108801D02*
X111811Y95975D01*
X63182Y93688D02*
X105315D01*
X24661Y55167D02*
X63182Y93688D01*
X122105Y59728D02*
X122933D01*
X111811Y72850D02*
Y95975D01*
X57867Y98985D02*
X108801D01*
X95651Y36664D02*
X96161Y37175D01*
X98032Y28952D02*
X98048Y28969D01*
Y33700D01*
X98332Y33983D02*
Y34352D01*
X95651Y33242D02*
X96028Y32864D01*
Y28987D02*
X96063Y28952D01*
X95651Y33242D02*
Y36664D01*
X96028Y28987D02*
Y32864D01*
X117717Y49917D02*
Y49927D01*
Y49917D02*
X117717Y49917D01*
X122933D01*
Y51854D02*
X128882D01*
X122933Y53854D02*
X128882D01*
X130835Y55807D01*
X128882Y51854D02*
X130835Y49902D01*
X98048Y33700D02*
X98332Y33983D01*
X24606Y44611D02*
X28561Y40657D01*
X109843Y21646D02*
Y28952D01*
X88189Y22067D02*
Y28952D01*
X87752Y21630D02*
X88189Y22067D01*
X113779Y82059D02*
X116437Y84716D01*
X113779Y72850D02*
Y82059D01*
X109752Y72940D02*
Y89251D01*
X105315Y93688D02*
X109752Y89251D01*
Y72940D02*
X109843Y72850D01*
X122933Y61728D02*
X128952D01*
X135378Y68154D01*
X122933Y63696D02*
X127771D01*
X129232Y65158D01*
Y68154D01*
X135378D02*
X139148Y71924D01*
X145152D01*
X151673Y78445D01*
X129232Y68154D02*
X137500Y76421D01*
Y78445D01*
X56102Y75985D02*
X56154Y76037D01*
X119095Y29149D02*
Y29739D01*
X122835Y26885D02*
Y36039D01*
X107783Y72940D02*
Y76385D01*
Y72940D02*
X107874Y72850D01*
X98130Y80078D02*
X100000Y78208D01*
Y72850D02*
Y78208D01*
X71807Y53854D02*
X79035D01*
Y44011D02*
X83217D01*
X71216Y43913D02*
X71315Y44011D01*
X79035D01*
X73256Y47554D02*
X74772Y46039D01*
X60678Y47554D02*
X73256D01*
X59941Y48292D02*
X60678Y47554D01*
X63878Y50310D02*
X73328D01*
X75600Y48039D01*
X78117Y46039D02*
X78144Y46011D01*
X74772Y46039D02*
X78117D01*
X75600Y48039D02*
X78945D01*
X211319Y81693D02*
Y88547D01*
X221161Y81693D02*
Y94387D01*
X118898Y28952D02*
X119095Y29149D01*
X122835Y36039D02*
X122933Y36137D01*
X115748Y28952D02*
X118898D01*
X78945Y48039D02*
X79035Y47948D01*
X92161Y69272D02*
X94784Y66649D01*
X122843Y55731D02*
X122933Y55822D01*
X117724Y55731D02*
X122843D01*
X117717Y55724D02*
X117724Y55731D01*
X72736Y65665D02*
X72736Y65665D01*
X79035D01*
X92161Y69272D02*
Y72815D01*
X92126Y72850D02*
X92161Y72815D01*
X122073Y59759D02*
X122105Y59728D01*
X117717Y59759D02*
X122073D01*
X117717Y59759D02*
X117717Y59759D01*
X71653Y59070D02*
X71807Y58917D01*
X88189Y72850D02*
X88189Y72850D01*
X88189Y72850D02*
Y80078D01*
X98087Y80035D02*
X98130Y80078D01*
X88189D02*
X88232Y80035D01*
X-99500Y-99500D02*
X546169D01*
X1681D02*
Y-20319D01*
X164613Y-99205D02*
Y-44277D01*
X1976Y-81777D02*
X345579Y-81777D01*
X345863Y-99106D02*
Y-20515D01*
X1976Y-63027D02*
X545863Y-63027D01*
X2173Y-44277D02*
X545440Y-44277D01*
X1681Y-20319D02*
X545863D01*
X-99500Y356552D02*
X546169D01*
X-99500Y-99500D02*
Y356552D01*
X546169Y-99146D02*
Y356552D01*
X346071Y-43941D02*
Y-20319D01*
X414859Y-43883D02*
Y-20268D01*
X97154Y-89441D02*
Y-96252D01*
X101694Y-89441D02*
Y-96252D01*
X97154Y-92684D02*
X101694D01*
X108765Y-96252D02*
X106170Y-89441D01*
X103575Y-96252D01*
X104548Y-93982D02*
X107792D01*
X114895Y-90414D02*
X114246Y-89765D01*
X113273Y-89441D01*
X111976D01*
X111003Y-89765D01*
X110354Y-90414D01*
Y-91063D01*
X110678Y-91711D01*
X111003Y-92036D01*
X111651Y-92360D01*
X113597Y-93009D01*
X114246Y-93333D01*
X114570Y-93657D01*
X114895Y-94306D01*
Y-95279D01*
X114246Y-95928D01*
X113273Y-96252D01*
X111976D01*
X111003Y-95928D01*
X110354Y-95279D01*
X116419Y-89441D02*
Y-96252D01*
X120311D01*
X231110Y-87472D02*
X233705Y-90716D01*
Y-94283D01*
X236300Y-87472D02*
X233705Y-90716D01*
X241067Y-89743D02*
Y-94283D01*
Y-90716D02*
X240419Y-90067D01*
X239770Y-89743D01*
X238797D01*
X238148Y-90067D01*
X237500Y-90716D01*
X237175Y-91689D01*
Y-92338D01*
X237500Y-93310D01*
X238148Y-93959D01*
X238797Y-94283D01*
X239770D01*
X240419Y-93959D01*
X241067Y-93310D01*
X242884Y-89743D02*
Y-94283D01*
Y-91040D02*
X243857Y-90067D01*
X244505Y-89743D01*
X245478D01*
X246127Y-90067D01*
X246451Y-91040D01*
Y-94283D01*
X258452Y-89094D02*
X258127Y-88445D01*
X257479Y-87797D01*
X256830Y-87472D01*
X255533D01*
X254884Y-87797D01*
X254235Y-88445D01*
X253911Y-89094D01*
X253587Y-90067D01*
Y-91689D01*
X253911Y-92662D01*
X254235Y-93310D01*
X254884Y-93959D01*
X255533Y-94283D01*
X256830D01*
X257479Y-93959D01*
X258127Y-93310D01*
X258452Y-92662D01*
X260690Y-93635D02*
X260365Y-93959D01*
X260690Y-94283D01*
X261014Y-93959D01*
X260690Y-93635D01*
X271749Y-87472D02*
Y-94283D01*
Y-90716D02*
X271101Y-90067D01*
X270452Y-89743D01*
X269479D01*
X268830Y-90067D01*
X268182Y-90716D01*
X267857Y-91689D01*
Y-92338D01*
X268182Y-93310D01*
X268830Y-93959D01*
X269479Y-94283D01*
X270452D01*
X271101Y-93959D01*
X271749Y-93310D01*
X273566Y-91689D02*
X277458D01*
Y-91040D01*
X277133Y-90391D01*
X276809Y-90067D01*
X276160Y-89743D01*
X275187D01*
X274539Y-90067D01*
X273890Y-90716D01*
X273566Y-91689D01*
Y-92338D01*
X273890Y-93310D01*
X274539Y-93959D01*
X275187Y-94283D01*
X276160D01*
X276809Y-93959D01*
X277458Y-93310D01*
X289458Y-94283D02*
X286863Y-87472D01*
X284269Y-94283D01*
X285242Y-92013D02*
X288485D01*
X294615Y-89743D02*
X291047Y-94283D01*
Y-89743D02*
X294615D01*
X291047Y-94283D02*
X294615D01*
X296042Y-91689D02*
X299934D01*
Y-91040D01*
X299610Y-90391D01*
X299286Y-90067D01*
X298637Y-89743D01*
X297664D01*
X297015Y-90067D01*
X296367Y-90716D01*
X296042Y-91689D01*
Y-92338D01*
X296367Y-93310D01*
X297015Y-93959D01*
X297664Y-94283D01*
X298637D01*
X299286Y-93959D01*
X299934Y-93310D01*
X301394Y-89743D02*
Y-94283D01*
Y-91689D02*
X301718Y-90716D01*
X302367Y-90067D01*
X303015Y-89743D01*
X303988D01*
X304605Y-91689D02*
X308497D01*
Y-91040D01*
X308172Y-90391D01*
X307848Y-90067D01*
X307199Y-89743D01*
X306226D01*
X305578Y-90067D01*
X304929Y-90716D01*
X304605Y-91689D01*
Y-92338D01*
X304929Y-93310D01*
X305578Y-93959D01*
X306226Y-94283D01*
X307199D01*
X307848Y-93959D01*
X308497Y-93310D01*
X313848Y-87472D02*
Y-94283D01*
Y-90716D02*
X313199Y-90067D01*
X312551Y-89743D01*
X311578D01*
X310929Y-90067D01*
X310280Y-90716D01*
X309956Y-91689D01*
Y-92338D01*
X310280Y-93310D01*
X310929Y-93959D01*
X311578Y-94283D01*
X312551D01*
X313199Y-93959D01*
X313848Y-93310D01*
X317286Y-89743D02*
X316637Y-90067D01*
X315989Y-90716D01*
X315664Y-91689D01*
Y-92338D01*
X315989Y-93310D01*
X316637Y-93959D01*
X317286Y-94283D01*
X318259D01*
X318908Y-93959D01*
X319556Y-93310D01*
X319881Y-92338D01*
Y-91689D01*
X319556Y-90716D01*
X318908Y-90067D01*
X318259Y-89743D01*
X317286D01*
X125697Y-76764D02*
X128217D01*
X126957D01*
Y-69204D01*
X125697Y-70464D01*
X131997Y-76764D02*
Y-75504D01*
X133257D01*
Y-76764D01*
X131997D01*
X143337Y-69204D02*
X140817Y-70464D01*
X138297Y-72984D01*
Y-75504D01*
X139557Y-76764D01*
X142077D01*
X143337Y-75504D01*
Y-74244D01*
X142077Y-72984D01*
X138297D01*
X145857Y-76764D02*
Y-71724D01*
X147117D01*
X148377Y-72984D01*
Y-76764D01*
Y-72984D01*
X149637Y-71724D01*
X150897Y-72984D01*
Y-76764D01*
X153417D02*
Y-71724D01*
X154677D01*
X155937Y-72984D01*
Y-76764D01*
Y-72984D01*
X157197Y-71724D01*
X158457Y-72984D01*
Y-76764D01*
X80608Y-50103D02*
X75568D01*
Y-53883D01*
X78088D01*
X75568D01*
Y-57663D01*
X83128D02*
Y-50103D01*
X86908D01*
X88168Y-51363D01*
Y-53883D01*
X86908Y-55143D01*
X83128D01*
X85648D02*
X88168Y-57663D01*
X94468D02*
Y-50103D01*
X90688Y-53883D01*
X95728D01*
X390953Y-36705D02*
X393473D01*
X392213D01*
Y-29145D01*
X390953Y-30405D01*
X397253Y-36705D02*
Y-35445D01*
X398513D01*
Y-36705D01*
X397253D01*
X403553Y-30405D02*
X404813Y-29145D01*
X407333D01*
X408593Y-30405D01*
Y-35445D01*
X407333Y-36705D01*
X404813D01*
X403553Y-35445D01*
Y-30405D01*
X465559Y-36705D02*
X468079D01*
X466819D01*
Y-29145D01*
X465559Y-30405D01*
X476899Y-29145D02*
X471859D01*
Y-32925D01*
X474379Y-31665D01*
X475639D01*
X476899Y-32925D01*
Y-35445D01*
X475639Y-36705D01*
X473119D01*
X471859Y-35445D01*
X479419Y-36705D02*
X484459Y-31665D01*
X486979Y-30405D02*
X488239Y-29145D01*
X490759D01*
X492019Y-30405D01*
Y-35445D01*
X490759Y-36705D01*
X488239D01*
X486979Y-35445D01*
Y-30405D01*
X494539Y-29145D02*
X499579D01*
Y-30405D01*
X494539Y-35445D01*
Y-36705D01*
X502099D02*
X507139Y-31665D01*
X514699Y-36705D02*
X509659D01*
X514699Y-31665D01*
Y-30405D01*
X513439Y-29145D01*
X510919D01*
X509659Y-30405D01*
X517219D02*
X518479Y-29145D01*
X520999D01*
X522260Y-30405D01*
Y-35445D01*
X520999Y-36705D01*
X518479D01*
X517219Y-35445D01*
Y-30405D01*
X529820Y-36705D02*
X524780D01*
X529820Y-31665D01*
Y-30405D01*
X528560Y-29145D01*
X526040D01*
X524780Y-30405D01*
X532340D02*
X533600Y-29145D01*
X536120D01*
X537380Y-30405D01*
Y-35445D01*
X536120Y-36705D01*
X533600D01*
X532340Y-35445D01*
Y-30405D01*
X354206Y-67185D02*
X353255Y-66234D01*
X351353D01*
X350402Y-67185D01*
Y-68136D01*
X351353Y-69087D01*
X353255D01*
X354206Y-70039D01*
Y-70990D01*
X353255Y-71941D01*
X351353D01*
X350402Y-70990D01*
X356108Y-73843D02*
Y-68136D01*
X358962D01*
X359913Y-69087D01*
Y-70990D01*
X358962Y-71941D01*
X356108D01*
X362766Y-68136D02*
X364669D01*
X365620Y-69087D01*
Y-71941D01*
X362766D01*
X361815Y-70990D01*
X362766Y-70039D01*
X365620D01*
X371326Y-68136D02*
X368473D01*
X367522Y-69087D01*
Y-70990D01*
X368473Y-71941D01*
X371326D01*
X376082D02*
X374180D01*
X373229Y-70990D01*
Y-69087D01*
X374180Y-68136D01*
X376082D01*
X377033Y-69087D01*
Y-70039D01*
X373229D01*
X384642Y-66234D02*
X388447D01*
X386545D01*
Y-71941D01*
X393203D02*
X391300D01*
X390349Y-70990D01*
Y-69087D01*
X391300Y-68136D01*
X393203D01*
X394154Y-69087D01*
Y-70039D01*
X390349D01*
X399861Y-68136D02*
X397007D01*
X396056Y-69087D01*
Y-70990D01*
X397007Y-71941D01*
X399861D01*
X401763Y-66234D02*
Y-71941D01*
Y-69087D01*
X402714Y-68136D01*
X404616D01*
X405567Y-69087D01*
Y-71941D01*
X407470D02*
Y-68136D01*
X410323D01*
X411274Y-69087D01*
Y-71941D01*
X414128D02*
X416030D01*
X416981Y-70990D01*
Y-69087D01*
X416030Y-68136D01*
X414128D01*
X413176Y-69087D01*
Y-70990D01*
X414128Y-71941D01*
X418883D02*
X420786D01*
X419834D01*
Y-66234D01*
X418883D01*
X424590Y-71941D02*
X426492D01*
X427444Y-70990D01*
Y-69087D01*
X426492Y-68136D01*
X424590D01*
X423639Y-69087D01*
Y-70990D01*
X424590Y-71941D01*
X431248Y-73843D02*
X432199D01*
X433150Y-72892D01*
Y-68136D01*
X430297D01*
X429346Y-69087D01*
Y-70990D01*
X430297Y-71941D01*
X433150D01*
X435053Y-68136D02*
Y-70990D01*
X436004Y-71941D01*
X438857D01*
Y-72892D01*
X437906Y-73843D01*
X436955D01*
X438857Y-71941D02*
Y-68136D01*
X446466Y-71941D02*
Y-66234D01*
X449320D01*
X450271Y-67185D01*
Y-69087D01*
X449320Y-70039D01*
X446466D01*
X448369D02*
X450271Y-71941D01*
X455026D02*
X453124D01*
X452173Y-70990D01*
Y-69087D01*
X453124Y-68136D01*
X455026D01*
X455978Y-69087D01*
Y-70039D01*
X452173D01*
X457880Y-71941D02*
X460733D01*
X461684Y-70990D01*
X460733Y-70039D01*
X458831D01*
X457880Y-69087D01*
X458831Y-68136D01*
X461684D01*
X466440Y-71941D02*
X464538D01*
X463587Y-70990D01*
Y-69087D01*
X464538Y-68136D01*
X466440D01*
X467391Y-69087D01*
Y-70039D01*
X463587D01*
X470245Y-68136D02*
X472147D01*
X473098Y-69087D01*
Y-71941D01*
X470245D01*
X469293Y-70990D01*
X470245Y-70039D01*
X473098D01*
X475000Y-68136D02*
Y-71941D01*
Y-70039D01*
X475951Y-69087D01*
X476902Y-68136D01*
X477854D01*
X484512D02*
X481658D01*
X480707Y-69087D01*
Y-70990D01*
X481658Y-71941D01*
X484512D01*
X486414Y-66234D02*
Y-71941D01*
Y-69087D01*
X487365Y-68136D01*
X489267D01*
X490218Y-69087D01*
Y-71941D01*
X497827Y-66234D02*
Y-71941D01*
X501632D01*
X504486Y-68136D02*
X506388D01*
X507339Y-69087D01*
Y-71941D01*
X504486D01*
X503534Y-70990D01*
X504486Y-70039D01*
X507339D01*
X509241Y-66234D02*
Y-71941D01*
X512094D01*
X513046Y-70990D01*
Y-70039D01*
Y-69087D01*
X512094Y-68136D01*
X509241D01*
X515899Y-71941D02*
X517801D01*
X518752Y-70990D01*
Y-69087D01*
X517801Y-68136D01*
X515899D01*
X514948Y-69087D01*
Y-70990D01*
X515899Y-71941D01*
X520655Y-68136D02*
Y-71941D01*
Y-70039D01*
X521606Y-69087D01*
X522557Y-68136D01*
X523508D01*
X527313D02*
X529215D01*
X530166Y-69087D01*
Y-71941D01*
X527313D01*
X526362Y-70990D01*
X527313Y-70039D01*
X530166D01*
X533019Y-67185D02*
Y-68136D01*
X532068D01*
X533971D01*
X533019D01*
Y-70990D01*
X533971Y-71941D01*
X536824Y-68136D02*
Y-70990D01*
X537775Y-71941D01*
X540629D01*
Y-72892D01*
X539677Y-73843D01*
X538726D01*
X540629Y-71941D02*
Y-68136D01*
X354665Y-77258D02*
X350992D01*
Y-80013D01*
X352829D01*
X350992D01*
Y-82768D01*
X359257D02*
X357420D01*
X356502Y-81849D01*
Y-80013D01*
X357420Y-79094D01*
X359257D01*
X360175Y-80013D01*
Y-80931D01*
X356502D01*
X365686Y-77258D02*
Y-82768D01*
X362930D01*
X362012Y-81849D01*
Y-80013D01*
X362930Y-79094D01*
X365686D01*
X370277Y-82768D02*
X368441D01*
X367522Y-81849D01*
Y-80013D01*
X368441Y-79094D01*
X370277D01*
X371196Y-80013D01*
Y-80931D01*
X367522D01*
X373032Y-79094D02*
Y-82768D01*
Y-80931D01*
X373951Y-80013D01*
X374869Y-79094D01*
X375787D01*
X379461D02*
X381297D01*
X382216Y-80013D01*
Y-82768D01*
X379461D01*
X378542Y-81849D01*
X379461Y-80931D01*
X382216D01*
X384052Y-82768D02*
X385889D01*
X384971D01*
Y-77258D01*
X384052D01*
X394154D02*
Y-81849D01*
X395072Y-82768D01*
X396909D01*
X397827Y-81849D01*
Y-77258D01*
X399664Y-82768D02*
Y-79094D01*
X402419D01*
X403337Y-80013D01*
Y-82768D01*
X405174D02*
X407011D01*
X406092D01*
Y-79094D01*
X405174D01*
X409766D02*
X411602Y-82768D01*
X413439Y-79094D01*
X418031Y-82768D02*
X416194D01*
X415276Y-81849D01*
Y-80013D01*
X416194Y-79094D01*
X418031D01*
X418949Y-80013D01*
Y-80931D01*
X415276D01*
X420786Y-79094D02*
Y-82768D01*
Y-80931D01*
X421704Y-80013D01*
X422622Y-79094D01*
X423541D01*
X426296Y-82768D02*
X429051D01*
X429969Y-81849D01*
X429051Y-80931D01*
X427214D01*
X426296Y-80013D01*
X427214Y-79094D01*
X429969D01*
X431806Y-82768D02*
X433643D01*
X432724D01*
Y-79094D01*
X431806D01*
X437316Y-78176D02*
Y-79094D01*
X436398D01*
X438234D01*
X437316D01*
Y-81849D01*
X438234Y-82768D01*
X440989Y-79094D02*
Y-81849D01*
X441908Y-82768D01*
X444663D01*
Y-83686D01*
X443744Y-84604D01*
X442826D01*
X444663Y-82768D02*
Y-79094D01*
X452928Y-82768D02*
X454764D01*
X455683Y-81849D01*
Y-80013D01*
X454764Y-79094D01*
X452928D01*
X452009Y-80013D01*
Y-81849D01*
X452928Y-82768D01*
X458438D02*
Y-78176D01*
Y-80013D01*
X457519D01*
X459356D01*
X458438D01*
Y-78176D01*
X459356Y-77258D01*
X471294Y-78176D02*
X470376Y-77258D01*
X468539D01*
X467621Y-78176D01*
Y-79094D01*
X468539Y-80013D01*
X470376D01*
X471294Y-80931D01*
Y-81849D01*
X470376Y-82768D01*
X468539D01*
X467621Y-81849D01*
X474050Y-79094D02*
X475886D01*
X476804Y-80013D01*
Y-82768D01*
X474050D01*
X473131Y-81849D01*
X474050Y-80931D01*
X476804D01*
X478641Y-82768D02*
Y-79094D01*
X481396D01*
X482314Y-80013D01*
Y-82768D01*
X485070Y-78176D02*
Y-79094D01*
X484151D01*
X485988D01*
X485070D01*
Y-81849D01*
X485988Y-82768D01*
X489661Y-79094D02*
X491498D01*
X492416Y-80013D01*
Y-82768D01*
X489661D01*
X488743Y-81849D01*
X489661Y-80931D01*
X492416D01*
X503436Y-78176D02*
X502518Y-77258D01*
X500681D01*
X499763Y-78176D01*
Y-81849D01*
X500681Y-82768D01*
X502518D01*
X503436Y-81849D01*
X506191Y-79094D02*
X508028D01*
X508946Y-80013D01*
Y-82768D01*
X506191D01*
X505273Y-81849D01*
X506191Y-80931D01*
X508946D01*
X511701Y-78176D02*
Y-79094D01*
X510783D01*
X512620D01*
X511701D01*
Y-81849D01*
X512620Y-82768D01*
X516293Y-79094D02*
X518130D01*
X519048Y-80013D01*
Y-82768D01*
X516293D01*
X515375Y-81849D01*
X516293Y-80931D01*
X519048D01*
X520885Y-79094D02*
Y-82768D01*
Y-80931D01*
X521803Y-80013D01*
X522721Y-79094D01*
X523640D01*
X526395Y-82768D02*
X528231D01*
X527313D01*
Y-79094D01*
X526395D01*
X530986Y-82768D02*
Y-79094D01*
X533741D01*
X534660Y-80013D01*
Y-82768D01*
X537415Y-79094D02*
X539252D01*
X540170Y-80013D01*
Y-82768D01*
X537415D01*
X536496Y-81849D01*
X537415Y-80931D01*
X540170D01*
X-8560Y227667D02*
Y221669D01*
X-4561D01*
X-1562Y225668D02*
X437D01*
X1437Y224668D01*
Y221669D01*
X-1562D01*
X-2562Y222669D01*
X-1562Y223669D01*
X1437D01*
X3436Y225668D02*
Y222669D01*
X4436Y221669D01*
X7435D01*
Y220670D01*
X6435Y219670D01*
X5435D01*
X7435Y221669D02*
Y225668D01*
X12433Y221669D02*
X10434D01*
X9434Y222669D01*
Y224668D01*
X10434Y225668D01*
X12433D01*
X13433Y224668D01*
Y223669D01*
X9434D01*
X15432Y225668D02*
Y221669D01*
Y223669D01*
X16432Y224668D01*
X17431Y225668D01*
X18431D01*
X-4561Y161669D02*
X-8560D01*
X-4561Y165668D01*
Y166668D01*
X-5561Y167667D01*
X-7560D01*
X-8560Y166668D01*
Y185669D02*
X-6561D01*
X-7560D01*
Y191667D01*
X-8560Y190668D01*
X32431Y221669D02*
Y227667D01*
X36430Y221669D01*
Y227667D01*
X39429Y225668D02*
X41428D01*
X42428Y224668D01*
Y221669D01*
X39429D01*
X38429Y222669D01*
X39429Y223669D01*
X42428D01*
X44427Y221669D02*
Y225668D01*
X45427D01*
X46426Y224668D01*
Y221669D01*
Y224668D01*
X47426Y225668D01*
X48426Y224668D01*
Y221669D01*
X53424D02*
X51425D01*
X50425Y222669D01*
Y224668D01*
X51425Y225668D01*
X53424D01*
X54424Y224668D01*
Y223669D01*
X50425D01*
X32431Y143667D02*
Y137669D01*
X35430D01*
X36430Y138669D01*
Y139669D01*
X35430Y140668D01*
X32431D01*
X35430D01*
X36430Y141668D01*
Y142668D01*
X35430Y143667D01*
X32431D01*
X39429Y137669D02*
X41428D01*
X42428Y138669D01*
Y140668D01*
X41428Y141668D01*
X39429D01*
X38429Y140668D01*
Y138669D01*
X39429Y137669D01*
X45427Y142668D02*
Y141668D01*
X44427D01*
X46426D01*
X45427D01*
Y138669D01*
X46426Y137669D01*
X50425Y142668D02*
Y141668D01*
X49426D01*
X51425D01*
X50425D01*
Y138669D01*
X51425Y137669D01*
X55424D02*
X57423D01*
X58423Y138669D01*
Y140668D01*
X57423Y141668D01*
X55424D01*
X54424Y140668D01*
Y138669D01*
X55424Y137669D01*
X60422D02*
Y141668D01*
X61422D01*
X62421Y140668D01*
Y137669D01*
Y140668D01*
X63421Y141668D01*
X64421Y140668D01*
Y137669D01*
X75417Y143667D02*
X73418D01*
X72418Y142668D01*
Y138669D01*
X73418Y137669D01*
X75417D01*
X76417Y138669D01*
Y142668D01*
X75417Y143667D01*
X78416Y141668D02*
X80415Y137669D01*
X82415Y141668D01*
X87413Y137669D02*
X85414D01*
X84414Y138669D01*
Y140668D01*
X85414Y141668D01*
X87413D01*
X88413Y140668D01*
Y139669D01*
X84414D01*
X90412Y141668D02*
Y137669D01*
Y139669D01*
X91412Y140668D01*
X92412Y141668D01*
X93411D01*
X96410Y137669D02*
X98410D01*
X97410D01*
Y143667D01*
X96410D01*
X102408Y141668D02*
X104408D01*
X105407Y140668D01*
Y137669D01*
X102408D01*
X101409Y138669D01*
X102408Y139669D01*
X105407D01*
X107407Y141668D02*
Y138669D01*
X108406Y137669D01*
X111406D01*
Y136670D01*
X110406Y135670D01*
X109406D01*
X111406Y137669D02*
Y141668D01*
X32431Y155667D02*
Y149669D01*
X35430D01*
X36430Y150669D01*
Y151669D01*
X35430Y152668D01*
X32431D01*
X35430D01*
X36430Y153668D01*
Y154668D01*
X35430Y155667D01*
X32431D01*
X39429Y149669D02*
X41428D01*
X42428Y150669D01*
Y152668D01*
X41428Y153668D01*
X39429D01*
X38429Y152668D01*
Y150669D01*
X39429Y149669D01*
X45427Y154668D02*
Y153668D01*
X44427D01*
X46426D01*
X45427D01*
Y150669D01*
X46426Y149669D01*
X50425Y154668D02*
Y153668D01*
X49426D01*
X51425D01*
X50425D01*
Y150669D01*
X51425Y149669D01*
X55424D02*
X57423D01*
X58423Y150669D01*
Y152668D01*
X57423Y153668D01*
X55424D01*
X54424Y152668D01*
Y150669D01*
X55424Y149669D01*
X60422D02*
Y153668D01*
X61422D01*
X62421Y152668D01*
Y149669D01*
Y152668D01*
X63421Y153668D01*
X64421Y152668D01*
Y149669D01*
X76417Y154668D02*
X75417Y155667D01*
X73418D01*
X72418Y154668D01*
Y153668D01*
X73418Y152668D01*
X75417D01*
X76417Y151669D01*
Y150669D01*
X75417Y149669D01*
X73418D01*
X72418Y150669D01*
X79416Y149669D02*
X81415D01*
X82415Y150669D01*
Y152668D01*
X81415Y153668D01*
X79416D01*
X78416Y152668D01*
Y150669D01*
X79416Y149669D01*
X84414D02*
X86414D01*
X85414D01*
Y155667D01*
X84414D01*
X93411D02*
Y149669D01*
X90412D01*
X89413Y150669D01*
Y152668D01*
X90412Y153668D01*
X93411D01*
X98410Y149669D02*
X96410D01*
X95411Y150669D01*
Y152668D01*
X96410Y153668D01*
X98410D01*
X99409Y152668D01*
Y151669D01*
X95411D01*
X101409Y153668D02*
Y149669D01*
Y151669D01*
X102408Y152668D01*
X103408Y153668D01*
X104408D01*
X32431Y167667D02*
Y161669D01*
X35430D01*
X36430Y162669D01*
Y163669D01*
X35430Y164668D01*
X32431D01*
X35430D01*
X36430Y165668D01*
Y166668D01*
X35430Y167667D01*
X32431D01*
X39429Y161669D02*
X41428D01*
X42428Y162669D01*
Y164668D01*
X41428Y165668D01*
X39429D01*
X38429Y164668D01*
Y162669D01*
X39429Y161669D01*
X45427Y166668D02*
Y165668D01*
X44427D01*
X46426D01*
X45427D01*
Y162669D01*
X46426Y161669D01*
X50425Y166668D02*
Y165668D01*
X49426D01*
X51425D01*
X50425D01*
Y162669D01*
X51425Y161669D01*
X55424D02*
X57423D01*
X58423Y162669D01*
Y164668D01*
X57423Y165668D01*
X55424D01*
X54424Y164668D01*
Y162669D01*
X55424Y161669D01*
X60422D02*
Y165668D01*
X61422D01*
X62421Y164668D01*
Y161669D01*
Y164668D01*
X63421Y165668D01*
X64421Y164668D01*
Y161669D01*
X72418Y167667D02*
Y161669D01*
X76417D01*
X79416Y165668D02*
X81415D01*
X82415Y164668D01*
Y161669D01*
X79416D01*
X78416Y162669D01*
X79416Y163669D01*
X82415D01*
X84414Y165668D02*
Y162669D01*
X85414Y161669D01*
X88413D01*
Y160670D01*
X87413Y159670D01*
X86414D01*
X88413Y161669D02*
Y165668D01*
X93411Y161669D02*
X91412D01*
X90412Y162669D01*
Y164668D01*
X91412Y165668D01*
X93411D01*
X94411Y164668D01*
Y163669D01*
X90412D01*
X96410Y165668D02*
Y161669D01*
Y163669D01*
X97410Y164668D01*
X98410Y165668D01*
X99409D01*
X32431Y179667D02*
Y173669D01*
X35430D01*
X36430Y174669D01*
Y178668D01*
X35430Y179667D01*
X32431D01*
X38429Y173669D02*
X40429D01*
X39429D01*
Y177668D01*
X38429D01*
X46426Y173669D02*
X44427D01*
X43428Y174669D01*
Y176668D01*
X44427Y177668D01*
X46426D01*
X47426Y176668D01*
Y175669D01*
X43428D01*
X49426Y173669D02*
X51425D01*
X50425D01*
Y179667D01*
X49426D01*
X57423Y173669D02*
X55424D01*
X54424Y174669D01*
Y176668D01*
X55424Y177668D01*
X57423D01*
X58423Y176668D01*
Y175669D01*
X54424D01*
X64421Y177668D02*
X61422D01*
X60422Y176668D01*
Y174669D01*
X61422Y173669D01*
X64421D01*
X67420Y178668D02*
Y177668D01*
X66420D01*
X68419D01*
X67420D01*
Y174669D01*
X68419Y173669D01*
X71418Y177668D02*
Y173669D01*
Y175669D01*
X72418Y176668D01*
X73418Y177668D01*
X74418D01*
X77416Y173669D02*
X79416D01*
X78416D01*
Y177668D01*
X77416D01*
X86414D02*
X83415D01*
X82415Y176668D01*
Y174669D01*
X83415Y173669D01*
X86414D01*
X94411D02*
X96410D01*
X95411D01*
Y179667D01*
X94411Y178668D01*
X32431Y191667D02*
X36430D01*
X34430D01*
Y185669D01*
X39429D02*
X41428D01*
X42428Y186669D01*
Y188668D01*
X41428Y189668D01*
X39429D01*
X38429Y188668D01*
Y186669D01*
X39429Y185669D01*
X44427Y183670D02*
Y189668D01*
X47426D01*
X48426Y188668D01*
Y186669D01*
X47426Y185669D01*
X44427D01*
X56423Y191667D02*
Y185669D01*
X60422D01*
X63421Y189668D02*
X65420D01*
X66420Y188668D01*
Y185669D01*
X63421D01*
X62421Y186669D01*
X63421Y187669D01*
X66420D01*
X68419Y189668D02*
Y186669D01*
X69419Y185669D01*
X72418D01*
Y184670D01*
X71418Y183670D01*
X70419D01*
X72418Y185669D02*
Y189668D01*
X77416Y185669D02*
X75417D01*
X74418Y186669D01*
Y188668D01*
X75417Y189668D01*
X77416D01*
X78416Y188668D01*
Y187669D01*
X74418D01*
X80415Y189668D02*
Y185669D01*
Y187669D01*
X81415Y188668D01*
X82415Y189668D01*
X83415D01*
X32431Y203667D02*
X36430D01*
X34430D01*
Y197669D01*
X39429D02*
X41428D01*
X42428Y198669D01*
Y200668D01*
X41428Y201668D01*
X39429D01*
X38429Y200668D01*
Y198669D01*
X39429Y197669D01*
X44427Y195670D02*
Y201668D01*
X47426D01*
X48426Y200668D01*
Y198669D01*
X47426Y197669D01*
X44427D01*
X60422Y202668D02*
X59422Y203667D01*
X57423D01*
X56423Y202668D01*
Y201668D01*
X57423Y200668D01*
X59422D01*
X60422Y199669D01*
Y198669D01*
X59422Y197669D01*
X57423D01*
X56423Y198669D01*
X63421Y197669D02*
X65420D01*
X66420Y198669D01*
Y200668D01*
X65420Y201668D01*
X63421D01*
X62421Y200668D01*
Y198669D01*
X63421Y197669D01*
X68419D02*
X70419D01*
X69419D01*
Y203667D01*
X68419D01*
X77416D02*
Y197669D01*
X74418D01*
X73418Y198669D01*
Y200668D01*
X74418Y201668D01*
X77416D01*
X82415Y197669D02*
X80415D01*
X79416Y198669D01*
Y200668D01*
X80415Y201668D01*
X82415D01*
X83415Y200668D01*
Y199669D01*
X79416D01*
X85414Y201668D02*
Y197669D01*
Y199669D01*
X86414Y200668D01*
X87413Y201668D01*
X88413D01*
X32431Y215667D02*
X36430D01*
X34430D01*
Y209669D01*
X39429D02*
X41428D01*
X42428Y210669D01*
Y212668D01*
X41428Y213668D01*
X39429D01*
X38429Y212668D01*
Y210669D01*
X39429Y209669D01*
X44427Y207670D02*
Y213668D01*
X47426D01*
X48426Y212668D01*
Y210669D01*
X47426Y209669D01*
X44427D01*
X59422Y215667D02*
X57423D01*
X56423Y214668D01*
Y210669D01*
X57423Y209669D01*
X59422D01*
X60422Y210669D01*
Y214668D01*
X59422Y215667D01*
X62421Y213668D02*
X64421Y209669D01*
X66420Y213668D01*
X71418Y209669D02*
X69419D01*
X68419Y210669D01*
Y212668D01*
X69419Y213668D01*
X71418D01*
X72418Y212668D01*
Y211669D01*
X68419D01*
X74418Y213668D02*
Y209669D01*
Y211669D01*
X75417Y212668D01*
X76417Y213668D01*
X77416D01*
X80415Y209669D02*
X82415D01*
X81415D01*
Y215667D01*
X80415D01*
X86414Y213668D02*
X88413D01*
X89413Y212668D01*
Y209669D01*
X86414D01*
X85414Y210669D01*
X86414Y211669D01*
X89413D01*
X91412Y213668D02*
Y210669D01*
X92412Y209669D01*
X95411D01*
Y208670D01*
X94411Y207670D01*
X93411D01*
X95411Y209669D02*
Y213668D01*
X125406Y221669D02*
Y227667D01*
X127405Y225668D01*
X129404Y227667D01*
Y221669D01*
X132403Y225668D02*
X134403D01*
X135402Y224668D01*
Y221669D01*
X132403D01*
X131404Y222669D01*
X132403Y223669D01*
X135402D01*
X138401Y226668D02*
Y225668D01*
X137402D01*
X139401D01*
X138401D01*
Y222669D01*
X139401Y221669D01*
X145399D02*
X143400D01*
X142400Y222669D01*
Y224668D01*
X143400Y225668D01*
X145399D01*
X146399Y224668D01*
Y223669D01*
X142400D01*
X148398Y225668D02*
Y221669D01*
Y223669D01*
X149398Y224668D01*
X150397Y225668D01*
X151397D01*
X154396Y221669D02*
X156395D01*
X155396D01*
Y225668D01*
X154396D01*
X160394D02*
X162393D01*
X163393Y224668D01*
Y221669D01*
X160394D01*
X159395Y222669D01*
X160394Y223669D01*
X163393D01*
X165393Y221669D02*
X167392D01*
X166392D01*
Y227667D01*
X165393D01*
X129404Y154668D02*
X128404Y155667D01*
X126405D01*
X125406Y154668D01*
Y153668D01*
X126405Y152668D01*
X128404D01*
X129404Y151669D01*
Y150669D01*
X128404Y149669D01*
X126405D01*
X125406Y150669D01*
X132403Y149669D02*
X134403D01*
X135402Y150669D01*
Y152668D01*
X134403Y153668D01*
X132403D01*
X131404Y152668D01*
Y150669D01*
X132403Y149669D01*
X137402D02*
X139401D01*
X138401D01*
Y155667D01*
X137402D01*
X146399D02*
Y149669D01*
X143400D01*
X142400Y150669D01*
Y152668D01*
X143400Y153668D01*
X146399D01*
X151397Y149669D02*
X149398D01*
X148398Y150669D01*
Y152668D01*
X149398Y153668D01*
X151397D01*
X152397Y152668D01*
Y151669D01*
X148398D01*
X154396Y153668D02*
Y149669D01*
Y151669D01*
X155396Y152668D01*
X156395Y153668D01*
X157395D01*
X166392Y149669D02*
Y155667D01*
X169391D01*
X170391Y154668D01*
Y152668D01*
X169391Y151669D01*
X166392D01*
X168392D02*
X170391Y149669D01*
X175389D02*
X173390D01*
X172390Y150669D01*
Y152668D01*
X173390Y153668D01*
X175389D01*
X176389Y152668D01*
Y151669D01*
X172390D01*
X178388Y149669D02*
X181387D01*
X182387Y150669D01*
X181387Y151669D01*
X179388D01*
X178388Y152668D01*
X179388Y153668D01*
X182387D01*
X184386Y149669D02*
X186386D01*
X185386D01*
Y153668D01*
X184386D01*
X189385Y149669D02*
X192384D01*
X193384Y150669D01*
X192384Y151669D01*
X190384D01*
X189385Y152668D01*
X190384Y153668D01*
X193384D01*
X196382Y154668D02*
Y153668D01*
X195383D01*
X197382D01*
X196382D01*
Y150669D01*
X197382Y149669D01*
X129404Y166668D02*
X128404Y167667D01*
X126405D01*
X125406Y166668D01*
Y162669D01*
X126405Y161669D01*
X128404D01*
X129404Y162669D01*
X132403Y161669D02*
X134403D01*
X135402Y162669D01*
Y164668D01*
X134403Y165668D01*
X132403D01*
X131404Y164668D01*
Y162669D01*
X132403Y161669D01*
X137402Y159670D02*
Y165668D01*
X140401D01*
X141400Y164668D01*
Y162669D01*
X140401Y161669D01*
X137402D01*
X143400Y159670D02*
Y165668D01*
X146399D01*
X147398Y164668D01*
Y162669D01*
X146399Y161669D01*
X143400D01*
X152397D02*
X150397D01*
X149398Y162669D01*
Y164668D01*
X150397Y165668D01*
X152397D01*
X153396Y164668D01*
Y163669D01*
X149398D01*
X155396Y165668D02*
Y161669D01*
Y163669D01*
X156395Y164668D01*
X157395Y165668D01*
X158395D01*
X129404Y179667D02*
X125406D01*
Y176668D01*
X127405D01*
X125406D01*
Y173669D01*
X131404D02*
Y179667D01*
X134403D01*
X135402Y178668D01*
Y176668D01*
X134403Y175669D01*
X131404D01*
X133403D02*
X135402Y173669D01*
X137402Y176668D02*
X141400D01*
X146399Y173669D02*
Y179667D01*
X143400Y176668D01*
X147398D01*
X129404Y190668D02*
X128404Y191667D01*
X126405D01*
X125406Y190668D01*
Y186669D01*
X126405Y185669D01*
X128404D01*
X129404Y186669D01*
X132403Y185669D02*
X134403D01*
X135402Y186669D01*
Y188668D01*
X134403Y189668D01*
X132403D01*
X131404Y188668D01*
Y186669D01*
X132403Y185669D01*
X137402Y183670D02*
Y189668D01*
X140401D01*
X141400Y188668D01*
Y186669D01*
X140401Y185669D01*
X137402D01*
X143400Y183670D02*
Y189668D01*
X146399D01*
X147398Y188668D01*
Y186669D01*
X146399Y185669D01*
X143400D01*
X152397D02*
X150397D01*
X149398Y186669D01*
Y188668D01*
X150397Y189668D01*
X152397D01*
X153396Y188668D01*
Y187669D01*
X149398D01*
X155396Y189668D02*
Y185669D01*
Y187669D01*
X156395Y188668D01*
X157395Y189668D01*
X158395D01*
X129404Y202668D02*
X128404Y203667D01*
X126405D01*
X125406Y202668D01*
Y201668D01*
X126405Y200668D01*
X128404D01*
X129404Y199669D01*
Y198669D01*
X128404Y197669D01*
X126405D01*
X125406Y198669D01*
X132403Y197669D02*
X134403D01*
X135402Y198669D01*
Y200668D01*
X134403Y201668D01*
X132403D01*
X131404Y200668D01*
Y198669D01*
X132403Y197669D01*
X137402D02*
X139401D01*
X138401D01*
Y203667D01*
X137402D01*
X146399D02*
Y197669D01*
X143400D01*
X142400Y198669D01*
Y200668D01*
X143400Y201668D01*
X146399D01*
X151397Y197669D02*
X149398D01*
X148398Y198669D01*
Y200668D01*
X149398Y201668D01*
X151397D01*
X152397Y200668D01*
Y199669D01*
X148398D01*
X154396Y201668D02*
Y197669D01*
Y199669D01*
X155396Y200668D01*
X156395Y201668D01*
X157395D01*
X166392Y197669D02*
Y203667D01*
X169391D01*
X170391Y202668D01*
Y200668D01*
X169391Y199669D01*
X166392D01*
X168392D02*
X170391Y197669D01*
X175389D02*
X173390D01*
X172390Y198669D01*
Y200668D01*
X173390Y201668D01*
X175389D01*
X176389Y200668D01*
Y199669D01*
X172390D01*
X178388Y197669D02*
X181387D01*
X182387Y198669D01*
X181387Y199669D01*
X179388D01*
X178388Y200668D01*
X179388Y201668D01*
X182387D01*
X184386Y197669D02*
X186386D01*
X185386D01*
Y201668D01*
X184386D01*
X189385Y197669D02*
X192384D01*
X193384Y198669D01*
X192384Y199669D01*
X190384D01*
X189385Y200668D01*
X190384Y201668D01*
X193384D01*
X196382Y202668D02*
Y201668D01*
X195383D01*
X197382D01*
X196382D01*
Y198669D01*
X197382Y197669D01*
X211382Y227667D02*
X215381D01*
X213382D01*
Y221669D01*
X217380Y227667D02*
Y221669D01*
Y224668D01*
X218380Y225668D01*
X220379D01*
X221379Y224668D01*
Y221669D01*
X223378D02*
X225378D01*
X224378D01*
Y225668D01*
X223378D01*
X232375D02*
X229376D01*
X228377Y224668D01*
Y222669D01*
X229376Y221669D01*
X232375D01*
X234375D02*
Y227667D01*
Y223669D02*
X237374Y225668D01*
X234375Y223669D02*
X237374Y221669D01*
X240373D02*
Y225668D01*
X243372D01*
X244372Y224668D01*
Y221669D01*
X249370D02*
X247371D01*
X246371Y222669D01*
Y224668D01*
X247371Y225668D01*
X249370D01*
X250370Y224668D01*
Y223669D01*
X246371D01*
X252369Y221669D02*
X255368D01*
X256368Y222669D01*
X255368Y223669D01*
X253369D01*
X252369Y224668D01*
X253369Y225668D01*
X256368D01*
X258367Y221669D02*
X261366D01*
X262366Y222669D01*
X261366Y223669D01*
X259367D01*
X258367Y224668D01*
X259367Y225668D01*
X262366D01*
X211382Y154668D02*
X212382Y155667D01*
X214381D01*
X215381Y154668D01*
Y150669D01*
X214381Y149669D01*
X212382D01*
X211382Y150669D01*
Y154668D01*
X217380Y149669D02*
Y150669D01*
X218380D01*
Y149669D01*
X217380D01*
X225378D02*
Y155667D01*
X222379Y152668D01*
X226377D01*
X228377Y154668D02*
X229376Y155667D01*
X231376D01*
X232375Y154668D01*
Y150669D01*
X231376Y149669D01*
X229376D01*
X228377Y150669D01*
Y154668D01*
X234375Y149669D02*
Y153668D01*
X235374D01*
X236374Y152668D01*
Y149669D01*
Y152668D01*
X237374Y153668D01*
X238373Y152668D01*
Y149669D01*
X240373D02*
X242372D01*
X241372D01*
Y153668D01*
X240373D01*
X245371Y149669D02*
X247371D01*
X246371D01*
Y155667D01*
X245371D01*
X211382Y161669D02*
X213382D01*
X212382D01*
Y167667D01*
X211382Y166668D01*
X216381Y161669D02*
Y162669D01*
X217380D01*
Y161669D01*
X216381D01*
X224378D02*
Y167667D01*
X221379Y164668D01*
X225378D01*
X227377Y166668D02*
X228377Y167667D01*
X230376D01*
X231376Y166668D01*
Y162669D01*
X230376Y161669D01*
X228377D01*
X227377Y162669D01*
Y166668D01*
X233375Y161669D02*
Y165668D01*
X234375D01*
X235374Y164668D01*
Y161669D01*
Y164668D01*
X236374Y165668D01*
X237374Y164668D01*
Y161669D01*
X239373D02*
X241372D01*
X240373D01*
Y165668D01*
X239373D01*
X244372Y161669D02*
X246371D01*
X245371D01*
Y167667D01*
X244372D01*
X215381Y179667D02*
X211382D01*
Y176668D01*
X213382Y177668D01*
X214381D01*
X215381Y176668D01*
Y174669D01*
X214381Y173669D01*
X212382D01*
X211382Y174669D01*
X217380D02*
X218380Y173669D01*
X220379D01*
X221379Y174669D01*
Y178668D01*
X220379Y179667D01*
X218380D01*
X217380Y178668D01*
Y177668D01*
X218380Y176668D01*
X221379D01*
X223378Y173669D02*
Y174669D01*
X224378D01*
Y173669D01*
X223378D01*
X228377Y178668D02*
X229376Y179667D01*
X231376D01*
X232375Y178668D01*
Y174669D01*
X231376Y173669D01*
X229376D01*
X228377Y174669D01*
Y178668D01*
X238373Y179667D02*
X236374Y178668D01*
X234375Y176668D01*
Y174669D01*
X235374Y173669D01*
X237374D01*
X238373Y174669D01*
Y175669D01*
X237374Y176668D01*
X234375D01*
X240373Y173669D02*
Y177668D01*
X241372D01*
X242372Y176668D01*
Y173669D01*
Y176668D01*
X243372Y177668D01*
X244372Y176668D01*
Y173669D01*
X246371D02*
X248370D01*
X247371D01*
Y177668D01*
X246371D01*
X251369Y173669D02*
X253369D01*
X252369D01*
Y179667D01*
X251369D01*
X211382Y185669D02*
X213382D01*
X212382D01*
Y191667D01*
X211382Y190668D01*
X216381Y185669D02*
Y186669D01*
X217380D01*
Y185669D01*
X216381D01*
X224378D02*
Y191667D01*
X221379Y188668D01*
X225378D01*
X227377Y190668D02*
X228377Y191667D01*
X230376D01*
X231376Y190668D01*
Y186669D01*
X230376Y185669D01*
X228377D01*
X227377Y186669D01*
Y190668D01*
X233375Y185669D02*
Y189668D01*
X234375D01*
X235374Y188668D01*
Y185669D01*
Y188668D01*
X236374Y189668D01*
X237374Y188668D01*
Y185669D01*
X239373D02*
X241372D01*
X240373D01*
Y189668D01*
X239373D01*
X244372Y185669D02*
X246371D01*
X245371D01*
Y191667D01*
X244372D01*
X211382Y202668D02*
X212382Y203667D01*
X214381D01*
X215381Y202668D01*
Y198669D01*
X214381Y197669D01*
X212382D01*
X211382Y198669D01*
Y202668D01*
X217380Y197669D02*
Y198669D01*
X218380D01*
Y197669D01*
X217380D01*
X225378D02*
Y203667D01*
X222379Y200668D01*
X226377D01*
X228377Y202668D02*
X229376Y203667D01*
X231376D01*
X232375Y202668D01*
Y198669D01*
X231376Y197669D01*
X229376D01*
X228377Y198669D01*
Y202668D01*
X234375Y197669D02*
Y201668D01*
X235374D01*
X236374Y200668D01*
Y197669D01*
Y200668D01*
X237374Y201668D01*
X238373Y200668D01*
Y197669D01*
X240373D02*
X242372D01*
X241372D01*
Y201668D01*
X240373D01*
X245371Y197669D02*
X247371D01*
X246371D01*
Y203667D01*
X245371D01*
X280364Y226668D02*
X279365Y227667D01*
X277365D01*
X276366Y226668D01*
Y222669D01*
X277365Y221669D01*
X279365D01*
X280364Y222669D01*
X283364Y221669D02*
X285363D01*
X286363Y222669D01*
Y224668D01*
X285363Y225668D01*
X283364D01*
X282364Y224668D01*
Y222669D01*
X283364Y221669D01*
X288362D02*
Y225668D01*
X291361D01*
X292361Y224668D01*
Y221669D01*
X294360D02*
X297359D01*
X298359Y222669D01*
X297359Y223669D01*
X295360D01*
X294360Y224668D01*
X295360Y225668D01*
X298359D01*
X301358Y226668D02*
Y225668D01*
X300358D01*
X302357D01*
X301358D01*
Y222669D01*
X302357Y221669D01*
X306356Y225668D02*
X308355D01*
X309355Y224668D01*
Y221669D01*
X306356D01*
X305356Y222669D01*
X306356Y223669D01*
X309355D01*
X311354Y221669D02*
Y225668D01*
X314353D01*
X315353Y224668D01*
Y221669D01*
X318352Y226668D02*
Y225668D01*
X317353D01*
X319352D01*
X318352D01*
Y222669D01*
X319352Y221669D01*
X276366Y154668D02*
X277365Y155667D01*
X279365D01*
X280364Y154668D01*
Y153668D01*
X279365Y152668D01*
X278365D01*
X279365D01*
X280364Y151669D01*
Y150669D01*
X279365Y149669D01*
X277365D01*
X276366Y150669D01*
X282364Y149669D02*
Y150669D01*
X283364D01*
Y149669D01*
X282364D01*
X287362Y154668D02*
X288362Y155667D01*
X290361D01*
X291361Y154668D01*
Y153668D01*
X290361Y152668D01*
X291361Y151669D01*
Y150669D01*
X290361Y149669D01*
X288362D01*
X287362Y150669D01*
Y151669D01*
X288362Y152668D01*
X287362Y153668D01*
Y154668D01*
X288362Y152668D02*
X290361D01*
X279365Y173669D02*
Y179667D01*
X276366Y176668D01*
X280364D01*
X282364Y173669D02*
Y174669D01*
X283364D01*
Y173669D01*
X282364D01*
X291361Y179667D02*
X287362D01*
Y176668D01*
X289362Y177668D01*
X290361D01*
X291361Y176668D01*
Y174669D01*
X290361Y173669D01*
X288362D01*
X287362Y174669D01*
X276366Y202668D02*
X277365Y203667D01*
X279365D01*
X280364Y202668D01*
Y201668D01*
X279365Y200668D01*
X278365D01*
X279365D01*
X280364Y199669D01*
Y198669D01*
X279365Y197669D01*
X277365D01*
X276366Y198669D01*
X282364Y197669D02*
Y198669D01*
X283364D01*
Y197669D01*
X282364D01*
X287362Y202668D02*
X288362Y203667D01*
X290361D01*
X291361Y202668D01*
Y201668D01*
X290361Y200668D01*
X291361Y199669D01*
Y198669D01*
X290361Y197669D01*
X288362D01*
X287362Y198669D01*
Y199669D01*
X288362Y200668D01*
X287362Y201668D01*
Y202668D01*
X288362Y200668D02*
X290361D01*
X333352Y227667D02*
Y221669D01*
X336351D01*
X337351Y222669D01*
Y223669D01*
X336351Y224668D01*
X333352D01*
X336351D01*
X337351Y225668D01*
Y226668D01*
X336351Y227667D01*
X333352D01*
X340350Y221669D02*
X342349D01*
X343349Y222669D01*
Y224668D01*
X342349Y225668D01*
X340350D01*
X339350Y224668D01*
Y222669D01*
X340350Y221669D01*
X346348Y225668D02*
X348347D01*
X349347Y224668D01*
Y221669D01*
X346348D01*
X345348Y222669D01*
X346348Y223669D01*
X349347D01*
X351346Y225668D02*
Y221669D01*
Y223669D01*
X352346Y224668D01*
X353345Y225668D01*
X354345D01*
X361343Y227667D02*
Y221669D01*
X358344D01*
X357344Y222669D01*
Y224668D01*
X358344Y225668D01*
X361343D01*
X369340Y227667D02*
Y221669D01*
X373339D01*
X376338Y225668D02*
X378337D01*
X379337Y224668D01*
Y221669D01*
X376338D01*
X375338Y222669D01*
X376338Y223669D01*
X379337D01*
X381336Y225668D02*
Y222669D01*
X382336Y221669D01*
X385335D01*
Y220670D01*
X384335Y219670D01*
X383336D01*
X385335Y221669D02*
Y225668D01*
X390333Y221669D02*
X388334D01*
X387334Y222669D01*
Y224668D01*
X388334Y225668D01*
X390333D01*
X391333Y224668D01*
Y223669D01*
X387334D01*
X393332Y225668D02*
Y221669D01*
Y223669D01*
X394332Y224668D01*
X395332Y225668D01*
X396331D01*
X409327Y226668D02*
X408328Y227667D01*
X406328D01*
X405329Y226668D01*
Y225668D01*
X406328Y224668D01*
X408328D01*
X409327Y223669D01*
Y222669D01*
X408328Y221669D01*
X406328D01*
X405329Y222669D01*
X412326Y226668D02*
Y225668D01*
X411327D01*
X413326D01*
X412326D01*
Y222669D01*
X413326Y221669D01*
X417325Y225668D02*
X419324D01*
X420324Y224668D01*
Y221669D01*
X417325D01*
X416325Y222669D01*
X417325Y223669D01*
X420324D01*
X426322Y225668D02*
X423323D01*
X422323Y224668D01*
Y222669D01*
X423323Y221669D01*
X426322D01*
X428321D02*
Y227667D01*
Y223669D02*
X431320Y225668D01*
X428321Y223669D02*
X431320Y221669D01*
D17*
X142640Y60809D02*
X156022D01*
X137835Y56004D02*
X142640Y60809D01*
X141459Y46081D02*
X158920D01*
X162402Y49563D01*
X137835Y49705D02*
Y49902D01*
X156022Y60809D02*
X159252Y57579D01*
X137835Y55807D02*
Y56004D01*
X162402Y49563D02*
Y50098D01*
X137835Y49705D02*
X141459Y46081D01*
X-15560Y218669D02*
X438320D01*
X-15560Y230669D02*
X438320D01*
X-15560Y134669D02*
Y230669D01*
Y134669D02*
X25431D01*
X-15560Y146669D02*
X25431D01*
X-15560Y158669D02*
X25431D01*
X-15560Y170669D02*
X25431D01*
X-15560Y182669D02*
X25431D01*
X-15560Y194669D02*
X25431D01*
X-15560Y206669D02*
X25431D01*
Y134669D02*
Y230669D01*
Y134669D02*
X118405D01*
X25431Y146669D02*
X118405D01*
X25431Y158669D02*
X118405D01*
X25431Y170669D02*
X118405D01*
X25431Y182669D02*
X118405D01*
X25431Y194669D02*
X118405D01*
X25431Y206669D02*
X118405D01*
Y134669D02*
Y230669D01*
Y134669D02*
X204382D01*
X118405Y146669D02*
X204382D01*
X118405Y158669D02*
X204382D01*
X118405Y170669D02*
X204382D01*
X118405Y182669D02*
X204382D01*
X118405Y194669D02*
X204382D01*
X118405Y206669D02*
X204382D01*
Y134669D02*
Y230669D01*
Y134669D02*
X269366D01*
X204382Y146669D02*
X269366D01*
X204382Y158669D02*
X269366D01*
X204382Y170669D02*
X269366D01*
X204382Y182669D02*
X269366D01*
X204382Y194669D02*
X269366D01*
X204382Y206669D02*
X269366D01*
Y134669D02*
Y230669D01*
Y134669D02*
X326352D01*
X269366Y146669D02*
X326352D01*
X269366Y158669D02*
X326352D01*
X269366Y170669D02*
X326352D01*
X269366Y182669D02*
X326352D01*
X269366Y194669D02*
X326352D01*
X269366Y206669D02*
X326352D01*
Y134669D02*
Y230669D01*
Y134669D02*
X438320D01*
X326352Y146669D02*
X438320D01*
X326352Y158669D02*
X438320D01*
X326352Y170669D02*
X438320D01*
X326352Y182669D02*
X438320D01*
X326352Y194669D02*
X438320D01*
X326352Y206669D02*
X438320D01*
Y134669D02*
Y230669D01*
D18*
X432320Y134669D02*
X438320Y140669D01*
X426320Y134669D02*
X438320Y146669D01*
X420320Y134669D02*
X432320Y146669D01*
X414320Y134669D02*
X426320Y146669D01*
X408320Y134669D02*
X420320Y146669D01*
X402320Y134669D02*
X414320Y146669D01*
X396320Y134669D02*
X408320Y146669D01*
X390320Y134669D02*
X402320Y146669D01*
X384320Y134669D02*
X396320Y146669D01*
X378320Y134669D02*
X390320Y146669D01*
X372320Y134669D02*
X384320Y146669D01*
X366320Y134669D02*
X378320Y146669D01*
X360320Y134669D02*
X372320Y146669D01*
X354320Y134669D02*
X366320Y146669D01*
X348320Y134669D02*
X360320Y146669D01*
X342320Y134669D02*
X354320Y146669D01*
X336320Y134669D02*
X348320Y146669D01*
X330320Y134669D02*
X342320Y146669D01*
X326352Y136701D02*
X336320Y146669D01*
X326352Y142701D02*
X330320Y146669D01*
X432320D02*
X438320Y152669D01*
X426320Y146669D02*
X438320Y158669D01*
X420320Y146669D02*
X432320Y158669D01*
X414320Y146669D02*
X426320Y158669D01*
X408320Y146669D02*
X420320Y158669D01*
X402320Y146669D02*
X414320Y158669D01*
X396320Y146669D02*
X408320Y158669D01*
X390320Y146669D02*
X402320Y158669D01*
X384320Y146669D02*
X396320Y158669D01*
X378320Y146669D02*
X390320Y158669D01*
X372320Y146669D02*
X384320Y158669D01*
X366320Y146669D02*
X378320Y158669D01*
X360320Y146669D02*
X372320Y158669D01*
X354320Y146669D02*
X366320Y158669D01*
X348320Y146669D02*
X360320Y158669D01*
X342320Y146669D02*
X354320Y158669D01*
X336320Y146669D02*
X348320Y158669D01*
X330320Y146669D02*
X342320Y158669D01*
X326352Y148701D02*
X336320Y158669D01*
X326352Y154701D02*
X330320Y158669D01*
X432320D02*
X438320Y164669D01*
X426320Y158669D02*
X438320Y170669D01*
X420320Y158669D02*
X432320Y170669D01*
X414320Y158669D02*
X426320Y170669D01*
X408320Y158669D02*
X420320Y170669D01*
X402320Y158669D02*
X414320Y170669D01*
X396320Y158669D02*
X408320Y170669D01*
X390320Y158669D02*
X402320Y170669D01*
X384320Y158669D02*
X396320Y170669D01*
X378320Y158669D02*
X390320Y170669D01*
X372320Y158669D02*
X384320Y170669D01*
X366320Y158669D02*
X378320Y170669D01*
X360320Y158669D02*
X372320Y170669D01*
X354320Y158669D02*
X366320Y170669D01*
X348320Y158669D02*
X360320Y170669D01*
X342320Y158669D02*
X354320Y170669D01*
X336320Y158669D02*
X348320Y170669D01*
X330320Y158669D02*
X342320Y170669D01*
X326352Y160701D02*
X336320Y170669D01*
X326352Y166701D02*
X330320Y170669D01*
X432320D02*
X438320Y176669D01*
X426320Y170669D02*
X438320Y182669D01*
X420320Y170669D02*
X432320Y182669D01*
X414320Y170669D02*
X426320Y182669D01*
X408320Y170669D02*
X420320Y182669D01*
X402320Y170669D02*
X414320Y182669D01*
X396320Y170669D02*
X408320Y182669D01*
X390320Y170669D02*
X402320Y182669D01*
X384320Y170669D02*
X396320Y182669D01*
X378320Y170669D02*
X390320Y182669D01*
X372320Y170669D02*
X384320Y182669D01*
X366320Y170669D02*
X378320Y182669D01*
X360320Y170669D02*
X372320Y182669D01*
X354320Y170669D02*
X366320Y182669D01*
X348320Y170669D02*
X360320Y182669D01*
X342320Y170669D02*
X354320Y182669D01*
X336320Y170669D02*
X348320Y182669D01*
X330320Y170669D02*
X342320Y182669D01*
X326352Y172701D02*
X336320Y182669D01*
X326352Y178701D02*
X330320Y182669D01*
X432320D02*
X438320Y188669D01*
X426320Y182669D02*
X438320Y194669D01*
X420320Y182669D02*
X432320Y194669D01*
X414320Y182669D02*
X426320Y194669D01*
X408320Y182669D02*
X420320Y194669D01*
X402320Y182669D02*
X414320Y194669D01*
X396320Y182669D02*
X408320Y194669D01*
X390320Y182669D02*
X402320Y194669D01*
X384320Y182669D02*
X396320Y194669D01*
X378320Y182669D02*
X390320Y194669D01*
X372320Y182669D02*
X384320Y194669D01*
X366320Y182669D02*
X378320Y194669D01*
X360320Y182669D02*
X372320Y194669D01*
X354320Y182669D02*
X366320Y194669D01*
X348320Y182669D02*
X360320Y194669D01*
X342320Y182669D02*
X354320Y194669D01*
X336320Y182669D02*
X348320Y194669D01*
X330320Y182669D02*
X342320Y194669D01*
X326352Y184701D02*
X336320Y194669D01*
X326352Y190701D02*
X330320Y194669D01*
X432320D02*
X438320Y200669D01*
X426320Y194669D02*
X438320Y206669D01*
X420320Y194669D02*
X432320Y206669D01*
X414320Y194669D02*
X426320Y206669D01*
X408320Y194669D02*
X420320Y206669D01*
X402320Y194669D02*
X414320Y206669D01*
X396320Y194669D02*
X408320Y206669D01*
X390320Y194669D02*
X402320Y206669D01*
X384320Y194669D02*
X396320Y206669D01*
X378320Y194669D02*
X390320Y206669D01*
X372320Y194669D02*
X384320Y206669D01*
X366320Y194669D02*
X378320Y206669D01*
X360320Y194669D02*
X372320Y206669D01*
X354320Y194669D02*
X366320Y206669D01*
X348320Y194669D02*
X360320Y206669D01*
X342320Y194669D02*
X354320Y206669D01*
X336320Y194669D02*
X348320Y206669D01*
X330320Y194669D02*
X342320Y206669D01*
X326352Y196701D02*
X336320Y206669D01*
X326352Y202701D02*
X330320Y206669D01*
X432320D02*
X438320Y212669D01*
X426320Y206669D02*
X438320Y218669D01*
X420320Y206669D02*
X432320Y218669D01*
X414320Y206669D02*
X426320Y218669D01*
X408320Y206669D02*
X420320Y218669D01*
X402320Y206669D02*
X414320Y218669D01*
X396320Y206669D02*
X408320Y218669D01*
X390320Y206669D02*
X402320Y218669D01*
X384320Y206669D02*
X396320Y218669D01*
X378320Y206669D02*
X390320Y218669D01*
X372320Y206669D02*
X384320Y218669D01*
X366320Y206669D02*
X378320Y218669D01*
X360320Y206669D02*
X372320Y218669D01*
X354320Y206669D02*
X366320Y218669D01*
X348320Y206669D02*
X360320Y218669D01*
X342320Y206669D02*
X354320Y218669D01*
X336320Y206669D02*
X348320Y218669D01*
X330320Y206669D02*
X342320Y218669D01*
X326352Y208701D02*
X336320Y218669D01*
X326352Y214701D02*
X330320Y218669D01*
D19*
X170283Y-68908D02*
Y-76468D01*
X175323D01*
X179104Y-71429D02*
X181624D01*
X182884Y-72689D01*
Y-76468D01*
X179104D01*
X177843Y-75208D01*
X179104Y-73949D01*
X182884D01*
X185404Y-71429D02*
Y-75208D01*
X186664Y-76468D01*
X190444D01*
Y-77728D01*
X189184Y-78988D01*
X187924D01*
X190444Y-76468D02*
Y-71429D01*
X196744Y-76468D02*
X194224D01*
X192964Y-75208D01*
Y-72689D01*
X194224Y-71429D01*
X196744D01*
X198004Y-72689D01*
Y-73949D01*
X192964D01*
X200524Y-71429D02*
Y-76468D01*
Y-73949D01*
X201784Y-72689D01*
X203044Y-71429D01*
X204304D01*
X208084Y-76468D02*
X211864D01*
X213124Y-75208D01*
X211864Y-73949D01*
X209344D01*
X208084Y-72689D01*
X209344Y-71429D01*
X213124D01*
X215644D02*
X216904D01*
Y-72689D01*
X215644D01*
Y-71429D01*
Y-75208D02*
X216904D01*
Y-76468D01*
X215644D01*
Y-75208D01*
X229504Y-70168D02*
X230764Y-68908D01*
X233284D01*
X234544Y-70168D01*
Y-75208D01*
X233284Y-76468D01*
X230764D01*
X229504Y-75208D01*
Y-70168D01*
X242104Y-76468D02*
X237064D01*
X242104Y-71429D01*
Y-70168D01*
X240844Y-68908D01*
X238324D01*
X237064Y-70168D01*
X8038Y-68853D02*
Y-76413D01*
X11818D01*
X13078Y-75153D01*
Y-73893D01*
X11818Y-72633D01*
X8038D01*
X11818D01*
X13078Y-71373D01*
Y-70113D01*
X11818Y-68853D01*
X8038D01*
X16858Y-76413D02*
X19378D01*
X20638Y-75153D01*
Y-72633D01*
X19378Y-71373D01*
X16858D01*
X15598Y-72633D01*
Y-75153D01*
X16858Y-76413D01*
X24418Y-71373D02*
X26938D01*
X28198Y-72633D01*
Y-76413D01*
X24418D01*
X23158Y-75153D01*
X24418Y-73893D01*
X28198D01*
X30718Y-71373D02*
Y-76413D01*
Y-73893D01*
X31978Y-72633D01*
X33238Y-71373D01*
X34498D01*
X43318Y-68853D02*
Y-76413D01*
X39538D01*
X38278Y-75153D01*
Y-72633D01*
X39538Y-71373D01*
X43318D01*
X53398Y-68853D02*
X58438D01*
X55918D01*
Y-76413D01*
X60958Y-68853D02*
Y-76413D01*
Y-72633D01*
X62218Y-71373D01*
X64739D01*
X65999Y-72633D01*
Y-76413D01*
X68519D02*
X71039D01*
X69779D01*
Y-71373D01*
X68519D01*
X79859D02*
X76079D01*
X74819Y-72633D01*
Y-75153D01*
X76079Y-76413D01*
X79859D01*
X82379D02*
Y-68853D01*
Y-73893D02*
X86159Y-71373D01*
X82379Y-73893D02*
X86159Y-76413D01*
X89939D02*
Y-71373D01*
X93719D01*
X94979Y-72633D01*
Y-76413D01*
X101279D02*
X98759D01*
X97499Y-75153D01*
Y-72633D01*
X98759Y-71373D01*
X101279D01*
X102539Y-72633D01*
Y-73893D01*
X97499D01*
X105059Y-76413D02*
X108839D01*
X110099Y-75153D01*
X108839Y-73893D01*
X106319D01*
X105059Y-72633D01*
X106319Y-71373D01*
X110099D01*
X112619Y-76413D02*
X116399D01*
X117659Y-75153D01*
X116399Y-73893D01*
X113879D01*
X112619Y-72633D01*
X113879Y-71373D01*
X117659D01*
X120179D02*
X121439D01*
Y-72633D01*
X120179D01*
Y-71373D01*
Y-75153D02*
X121439D01*
Y-76413D01*
X120179D01*
Y-75153D01*
X174536Y-50779D02*
X173276Y-49519D01*
X170756D01*
X169496Y-50779D01*
Y-52039D01*
X170756Y-53299D01*
X173276D01*
X174536Y-54559D01*
Y-55819D01*
X173276Y-57079D01*
X170756D01*
X169496Y-55819D01*
X177056Y-57079D02*
X179576D01*
X178316D01*
Y-52039D01*
X177056D01*
X183356Y-57079D02*
X185876D01*
X184616D01*
Y-49519D01*
X183356D01*
X189656Y-57079D02*
Y-49519D01*
Y-54559D02*
X193436Y-52039D01*
X189656Y-54559D02*
X193436Y-57079D01*
X197216D02*
X200996D01*
X202256Y-55819D01*
X200996Y-54559D01*
X198476D01*
X197216Y-53299D01*
X198476Y-52039D01*
X202256D01*
X209816D02*
X206036D01*
X204776Y-53299D01*
Y-55819D01*
X206036Y-57079D01*
X209816D01*
X212336Y-52039D02*
Y-57079D01*
Y-54559D01*
X213596Y-53299D01*
X214856Y-52039D01*
X216116D01*
X223676Y-57079D02*
X221157D01*
X219897Y-55819D01*
Y-53299D01*
X221157Y-52039D01*
X223676D01*
X224937Y-53299D01*
Y-54559D01*
X219897D01*
X231237Y-57079D02*
X228716D01*
X227456Y-55819D01*
Y-53299D01*
X228716Y-52039D01*
X231237D01*
X232497Y-53299D01*
Y-54559D01*
X227456D01*
X235017Y-57079D02*
Y-52039D01*
X238797D01*
X240057Y-53299D01*
Y-57079D01*
X255177Y-52039D02*
X251397D01*
X250137Y-53299D01*
Y-55819D01*
X251397Y-57079D01*
X255177D01*
X258957D02*
X261477D01*
X262737Y-55819D01*
Y-53299D01*
X261477Y-52039D01*
X258957D01*
X257697Y-53299D01*
Y-55819D01*
X258957Y-57079D01*
X265257D02*
X267777D01*
X266517D01*
Y-49519D01*
X265257D01*
X272817Y-57079D02*
X275337D01*
X276597Y-55819D01*
Y-53299D01*
X275337Y-52039D01*
X272817D01*
X271557Y-53299D01*
Y-55819D01*
X272817Y-57079D01*
X279117Y-52039D02*
Y-57079D01*
Y-54559D01*
X280377Y-53299D01*
X281637Y-52039D01*
X282897D01*
X286677D02*
X287937D01*
Y-53299D01*
X286677D01*
Y-52039D01*
Y-55819D02*
X287937D01*
Y-57079D01*
X286677D01*
Y-55819D01*
X300537Y-52039D02*
Y-55819D01*
X301797Y-57079D01*
X303057Y-55819D01*
X304317Y-57079D01*
X305577Y-55819D01*
Y-52039D01*
X308097Y-49519D02*
Y-57079D01*
Y-53299D01*
X309357Y-52039D01*
X311877D01*
X313137Y-53299D01*
Y-57079D01*
X315657D02*
X318177D01*
X316917D01*
Y-52039D01*
X315657D01*
X323217Y-50779D02*
Y-52039D01*
X321957D01*
X324477D01*
X323217D01*
Y-55819D01*
X324477Y-57079D01*
X332037D02*
X329517D01*
X328257Y-55819D01*
Y-53299D01*
X329517Y-52039D01*
X332037D01*
X333297Y-53299D01*
Y-54559D01*
X328257D01*
X171268Y-86723D02*
Y-94283D01*
X175048D01*
X176308Y-93024D01*
Y-87983D01*
X175048Y-86723D01*
X171268D01*
X178828Y-89243D02*
Y-94283D01*
Y-91763D01*
X180088Y-90503D01*
X181348Y-89243D01*
X182608D01*
X187648D02*
X190168D01*
X191428Y-90503D01*
Y-94283D01*
X187648D01*
X186388Y-93024D01*
X187648Y-91763D01*
X191428D01*
X193948Y-89243D02*
Y-93024D01*
X195208Y-94283D01*
X196468Y-93024D01*
X197728Y-94283D01*
X198988Y-93024D01*
Y-89243D01*
X201508Y-94283D02*
X204028D01*
X202768D01*
Y-89243D01*
X201508D01*
X207808Y-94283D02*
Y-89243D01*
X211588D01*
X212848Y-90503D01*
Y-94283D01*
X217888Y-96803D02*
X219148D01*
X220408Y-95543D01*
Y-89243D01*
X216628D01*
X215368Y-90503D01*
Y-93024D01*
X216628Y-94283D01*
X220408D01*
X222928Y-89243D02*
X224188D01*
Y-90503D01*
X222928D01*
Y-89243D01*
Y-93024D02*
X224188D01*
Y-94283D01*
X222928D01*
Y-93024D01*
X9318Y-57663D02*
Y-50103D01*
X11838Y-52623D01*
X14358Y-50103D01*
Y-57663D01*
X16878D02*
Y-52623D01*
X19398Y-50103D01*
X21918Y-52623D01*
Y-57663D01*
Y-53883D01*
X16878D01*
X24438Y-50103D02*
X29478D01*
X26958D01*
Y-57663D01*
X37038Y-50103D02*
X31998D01*
Y-57663D01*
X37038D01*
X31998Y-53883D02*
X34518D01*
X39558Y-57663D02*
Y-50103D01*
X43338D01*
X44598Y-51363D01*
Y-53883D01*
X43338Y-55143D01*
X39558D01*
X42078D02*
X44598Y-57663D01*
X47118Y-50103D02*
X49638D01*
X48378D01*
Y-57663D01*
X47118D01*
X49638D01*
X53418D02*
Y-52623D01*
X55938Y-50103D01*
X58458Y-52623D01*
Y-57663D01*
Y-53883D01*
X53418D01*
X60978Y-50103D02*
Y-57663D01*
X66018D01*
X68538Y-52623D02*
X69798D01*
Y-53883D01*
X68538D01*
Y-52623D01*
Y-56403D02*
X69798D01*
Y-57663D01*
X68538D01*
Y-56403D01*
X423335Y-28849D02*
Y-36409D01*
X427115D01*
X428375Y-35149D01*
Y-30109D01*
X427115Y-28849D01*
X423335D01*
X430895Y-36409D02*
Y-31369D01*
X433415Y-28849D01*
X435935Y-31369D01*
Y-36409D01*
Y-32629D01*
X430895D01*
X438455Y-28849D02*
X443495D01*
X440975D01*
Y-36409D01*
X451055Y-28849D02*
X446015D01*
Y-36409D01*
X451055D01*
X446015Y-32629D02*
X448535D01*
X453575Y-31369D02*
X454835D01*
Y-32629D01*
X453575D01*
Y-31369D01*
Y-35149D02*
X454835D01*
Y-36409D01*
X453575D01*
Y-35149D01*
X354535Y-37641D02*
Y-28144D01*
X359284D01*
X360867Y-29727D01*
Y-32893D01*
X359284Y-34476D01*
X354535D01*
X357701D02*
X360867Y-37641D01*
X370364Y-28144D02*
X364032D01*
Y-37641D01*
X370364D01*
X364032Y-32893D02*
X367198D01*
X373529Y-28144D02*
Y-34476D01*
X376695Y-37641D01*
X379861Y-34476D01*
Y-28144D01*
X383026Y-31310D02*
X384609D01*
Y-32893D01*
X383026D01*
Y-31310D01*
Y-36059D02*
X384609D01*
Y-37641D01*
X383026D01*
Y-36059D01*
X7291Y-95760D02*
Y-88200D01*
X11071D01*
X12331Y-89460D01*
Y-91980D01*
X11071Y-93240D01*
X7291D01*
X19891Y-89460D02*
X18631Y-88200D01*
X16111D01*
X14851Y-89460D01*
Y-94500D01*
X16111Y-95760D01*
X18631D01*
X19891Y-94500D01*
X22411Y-88200D02*
Y-95760D01*
X26191D01*
X27452Y-94500D01*
Y-93240D01*
X26191Y-91980D01*
X22411D01*
X26191D01*
X27452Y-90720D01*
Y-89460D01*
X26191Y-88200D01*
X22411D01*
X42572Y-89460D02*
X41312Y-88200D01*
X38792D01*
X37532Y-89460D01*
Y-90720D01*
X38792Y-91980D01*
X41312D01*
X42572Y-93240D01*
Y-94500D01*
X41312Y-95760D01*
X38792D01*
X37532Y-94500D01*
X45092Y-90720D02*
Y-94500D01*
X46352Y-95760D01*
X50132D01*
Y-90720D01*
X52652D02*
Y-95760D01*
Y-93240D01*
X53912Y-91980D01*
X55172Y-90720D01*
X56432D01*
X61472Y-95760D02*
Y-89460D01*
Y-91980D01*
X60212D01*
X62732D01*
X61472D01*
Y-89460D01*
X62732Y-88200D01*
X67772Y-90720D02*
X70292D01*
X71552Y-91980D01*
Y-95760D01*
X67772D01*
X66512Y-94500D01*
X67772Y-93240D01*
X71552D01*
X79112Y-90720D02*
X75332D01*
X74072Y-91980D01*
Y-94500D01*
X75332Y-95760D01*
X79112D01*
X85412D02*
X82892D01*
X81632Y-94500D01*
Y-91980D01*
X82892Y-90720D01*
X85412D01*
X86672Y-91980D01*
Y-93240D01*
X81632D01*
X89192Y-90720D02*
X90452D01*
Y-91980D01*
X89192D01*
Y-90720D01*
Y-94500D02*
X90452D01*
Y-95760D01*
X89192D01*
Y-94500D01*
X353650Y-57768D02*
Y-50208D01*
X357430D01*
X358690Y-51468D01*
Y-53988D01*
X357430Y-55248D01*
X353650D01*
X361210Y-52728D02*
Y-57768D01*
Y-55248D01*
X362470Y-53988D01*
X363730Y-52728D01*
X364990D01*
X370030Y-57768D02*
X372550D01*
X373810Y-56508D01*
Y-53988D01*
X372550Y-52728D01*
X370030D01*
X368770Y-53988D01*
Y-56508D01*
X370030Y-57768D01*
X376330Y-60288D02*
X377590D01*
X378850Y-59028D01*
Y-52728D01*
X387670Y-57768D02*
X385150D01*
X383890Y-56508D01*
Y-53988D01*
X385150Y-52728D01*
X387670D01*
X388930Y-53988D01*
Y-55248D01*
X383890D01*
X396490Y-52728D02*
X392710D01*
X391450Y-53988D01*
Y-56508D01*
X392710Y-57768D01*
X396490D01*
X400270Y-51468D02*
Y-52728D01*
X399010D01*
X401530D01*
X400270D01*
Y-56508D01*
X401530Y-57768D01*
X405310Y-52728D02*
X406570D01*
Y-53988D01*
X405310D01*
Y-52728D01*
Y-56508D02*
X406570D01*
Y-57768D01*
X405310D01*
Y-56508D01*
X419170Y-50208D02*
X421690D01*
X420430D01*
Y-57768D01*
X419170D01*
X421690D01*
X425470Y-50208D02*
X427990D01*
X426730D01*
Y-57768D01*
X425470D01*
X427990D01*
X431770D02*
Y-50208D01*
X435550D01*
X436810Y-51468D01*
Y-53988D01*
X435550Y-55248D01*
X431770D01*
D20*
X9949Y-28334D02*
X16613D01*
X13281D01*
Y-38330D01*
X19946Y-28334D02*
X23278D01*
X21612D01*
Y-38330D01*
X19946D01*
X23278D01*
X28276Y-28334D02*
X34941D01*
X31609D01*
Y-38330D01*
X38273Y-28334D02*
Y-38330D01*
X44938D01*
X54934Y-28334D02*
X48270D01*
Y-38330D01*
X54934D01*
X48270Y-33332D02*
X51602D01*
X58267Y-31666D02*
X59933D01*
Y-33332D01*
X58267D01*
Y-31666D01*
Y-36664D02*
X59933D01*
Y-38330D01*
X58267D01*
Y-36664D01*
X76594Y-28334D02*
X79926D01*
X78260D01*
Y-38330D01*
X76594D01*
X79926D01*
X84925Y-28334D02*
X88257D01*
X86591D01*
Y-38330D01*
X84925D01*
X88257D01*
X93255D02*
Y-28334D01*
X98254D01*
X99920Y-30000D01*
Y-33332D01*
X98254Y-34998D01*
X93255D01*
X113249Y-38330D02*
Y-28334D01*
X119913Y-38330D01*
Y-28334D01*
X123246Y-38330D02*
Y-36664D01*
X124912D01*
Y-38330D01*
X123246D01*
X131576Y-30000D02*
X133242Y-28334D01*
X136575D01*
X138241Y-30000D01*
Y-31666D01*
X136575Y-33332D01*
X134908D01*
X136575D01*
X138241Y-34998D01*
Y-36664D01*
X136575Y-38330D01*
X133242D01*
X131576Y-36664D01*
X151570Y-28334D02*
Y-38330D01*
X156568D01*
X158234Y-36664D01*
Y-34998D01*
X156568Y-33332D01*
X151570D01*
X156568D01*
X158234Y-31666D01*
Y-30000D01*
X156568Y-28334D01*
X151570D01*
X166565D02*
X163233D01*
X161566Y-30000D01*
Y-36664D01*
X163233Y-38330D01*
X166565D01*
X168231Y-36664D01*
Y-30000D01*
X166565Y-28334D01*
X171563Y-38330D02*
Y-31666D01*
X174896Y-28334D01*
X178228Y-31666D01*
Y-38330D01*
Y-33332D01*
X171563D01*
X181560Y-38330D02*
Y-28334D01*
X186558D01*
X188224Y-30000D01*
Y-33332D01*
X186558Y-34998D01*
X181560D01*
X184892D02*
X188224Y-38330D01*
X191557Y-28334D02*
Y-38330D01*
X196555D01*
X198221Y-36664D01*
Y-30000D01*
X196555Y-28334D01*
X191557D01*
X218215Y-36664D02*
Y-30000D01*
X216549Y-28334D01*
X213216D01*
X211550Y-30000D01*
Y-36664D01*
X213216Y-38330D01*
X216549D01*
X214883Y-34998D02*
X218215Y-38330D01*
X216549D02*
X218215Y-36664D01*
X221547Y-28334D02*
Y-36664D01*
X223213Y-38330D01*
X226546D01*
X228212Y-36664D01*
Y-28334D01*
X231544Y-38330D02*
Y-31666D01*
X234876Y-28334D01*
X238208Y-31666D01*
Y-38330D01*
Y-33332D01*
X231544D01*
X241541Y-28334D02*
Y-38330D01*
X246539D01*
X248205Y-36664D01*
Y-30000D01*
X246539Y-28334D01*
X241541D01*
X261534D02*
Y-36664D01*
X263200Y-38330D01*
X266533D01*
X268199Y-36664D01*
Y-28334D01*
X271531Y-38330D02*
Y-31666D01*
X274863Y-28334D01*
X278196Y-31666D01*
Y-38330D01*
Y-33332D01*
X271531D01*
X281528Y-38330D02*
Y-28334D01*
X286526D01*
X288192Y-30000D01*
Y-33332D01*
X286526Y-34998D01*
X281528D01*
X284860D02*
X288192Y-38330D01*
X291525Y-28334D02*
X298189D01*
X294857D01*
Y-38330D01*
D21*
X354567Y-89495D02*
X353649Y-88577D01*
X351812D01*
X350894Y-89495D01*
Y-90413D01*
X351812Y-91332D01*
X353649D01*
X354567Y-92250D01*
Y-93168D01*
X353649Y-94087D01*
X351812D01*
X350894Y-93168D01*
X356404Y-95923D02*
Y-90413D01*
X359159D01*
X360077Y-91332D01*
Y-93168D01*
X359159Y-94087D01*
X356404D01*
X362832Y-90413D02*
X364669D01*
X365587Y-91332D01*
Y-94087D01*
X362832D01*
X361914Y-93168D01*
X362832Y-92250D01*
X365587D01*
X371097Y-90413D02*
X368342D01*
X367424Y-91332D01*
Y-93168D01*
X368342Y-94087D01*
X371097D01*
X375689D02*
X373852D01*
X372934Y-93168D01*
Y-91332D01*
X373852Y-90413D01*
X375689D01*
X376607Y-91332D01*
Y-92250D01*
X372934D01*
X378444Y-88577D02*
Y-94087D01*
X382117D01*
X384872Y-90413D02*
X386709D01*
X387627Y-91332D01*
Y-94087D01*
X384872D01*
X383954Y-93168D01*
X384872Y-92250D01*
X387627D01*
X389464Y-88577D02*
Y-94087D01*
X392219D01*
X393137Y-93168D01*
Y-92250D01*
Y-91332D01*
X392219Y-90413D01*
X389464D01*
X400484Y-88577D02*
Y-93168D01*
X401402Y-94087D01*
X403239D01*
X404157Y-93168D01*
Y-88577D01*
X409667D02*
X405994D01*
Y-91332D01*
X407831D01*
X405994D01*
Y-94087D01*
X415177Y-89495D02*
X414259Y-88577D01*
X412422D01*
X411504Y-89495D01*
Y-90413D01*
X412422Y-91332D01*
X414259D01*
X415177Y-92250D01*
Y-93168D01*
X414259Y-94087D01*
X412422D01*
X411504Y-93168D01*
X420687Y-89495D02*
X419769Y-88577D01*
X417932D01*
X417014Y-89495D01*
Y-93168D01*
X417932Y-94087D01*
X419769D01*
X420687Y-93168D01*
D22*
X29528Y15748D02*
D03*
Y94488D02*
D03*
X295276D02*
D03*
D23*
X123130Y74791D02*
D03*
Y81791D02*
D03*
X88189Y80078D02*
D03*
Y87078D02*
D03*
X80413Y75069D02*
D03*
Y82069D02*
D03*
X192520Y30823D02*
D03*
Y37823D02*
D03*
X132973Y37604D02*
D03*
Y30604D02*
D03*
X199606Y23327D02*
D03*
Y16327D02*
D03*
X129232Y75153D02*
D03*
Y68154D02*
D03*
X98130Y87078D02*
D03*
Y80078D02*
D03*
X109843Y21646D02*
D03*
Y14646D02*
D03*
X87752Y21630D02*
D03*
Y14630D02*
D03*
D24*
X105315Y95138D02*
D03*
Y86138D02*
D03*
X73228Y76037D02*
D03*
Y85037D02*
D03*
X199606Y38780D02*
D03*
Y47780D02*
D03*
X174902Y30060D02*
D03*
Y21060D02*
D03*
X140059Y36614D02*
D03*
Y27614D02*
D03*
X116831Y84716D02*
D03*
Y93717D02*
D03*
D25*
X130835Y49902D02*
D03*
X137835D02*
D03*
X186232Y37472D02*
D03*
X179232D02*
D03*
X142378Y68154D02*
D03*
X135378D02*
D03*
X71846Y54838D02*
D03*
X64846D02*
D03*
X137161Y43602D02*
D03*
X130161D02*
D03*
X71216Y43913D02*
D03*
X64217D02*
D03*
X130835Y55807D02*
D03*
X137835D02*
D03*
D26*
X166071Y11012D02*
D03*
X175071D02*
D03*
X172118Y37768D02*
D03*
X163118D02*
D03*
D37*
X100705Y80078D02*
X105315Y84688D01*
X56154Y76037D02*
X73228D01*
X178937Y37768D02*
X179232Y37472D01*
X172118Y37768D02*
X178937D01*
X171752Y38134D02*
X172118Y37768D01*
X171752Y38134D02*
Y43406D01*
X174902Y21060D02*
X175895Y20067D01*
X182972D01*
X192421Y10925D02*
Y12587D01*
Y10925D02*
X194193Y9154D01*
X199606Y23327D02*
X199705Y23425D01*
X199606D02*
Y38780D01*
X192421Y20067D02*
Y21555D01*
X194193Y23327D01*
X199606D01*
X198650Y37823D02*
X199606Y38780D01*
X192520Y37823D02*
X198650D01*
X192169Y37472D02*
X192520Y37823D01*
X186232Y37472D02*
X192169D01*
X98130Y80078D02*
X100705D01*
X71807Y53854D02*
Y58917D01*
X93209Y80035D02*
X98087D01*
X88232D02*
X93209D01*
X92323Y21570D02*
X92476Y21724D01*
X175071Y11012D02*
X176646Y12587D01*
X182972D01*
D38*
X190453Y57776D02*
D03*
X24606Y76279D02*
D03*
X159941Y68996D02*
D03*
X56102Y75985D02*
D03*
X159941Y79528D02*
D03*
X193209Y79921D02*
D03*
X24661Y34055D02*
D03*
X139075Y17028D02*
D03*
X24661Y55167D02*
D03*
X24606Y65723D02*
D03*
X133957Y91142D02*
D03*
X24606Y44611D02*
D03*
D39*
X145866Y53839D02*
D03*
X178937Y53839D02*
D03*
D40*
X162402Y50098D02*
D03*
X159252Y57579D02*
D03*
X165551D02*
D03*
X168701Y50098D02*
D03*
D41*
X156102D02*
D03*
D42*
X12402Y98425D02*
D03*
X312402D02*
D03*
X12402Y11811D02*
D03*
X312402D02*
D03*
D43*
X100681Y65430D02*
D03*
X105070Y79099D02*
D03*
X264650Y76598D02*
D03*
X216240Y92025D02*
D03*
X96161Y37393D02*
D03*
X269543Y76449D02*
D03*
X259756D02*
D03*
X206425Y86499D02*
D03*
X98332Y34352D02*
D03*
X122933Y47017D02*
D03*
X274425Y76449D02*
D03*
X119095Y29739D02*
D03*
X122835Y26885D02*
D03*
X59941Y48292D02*
D03*
X63878Y50310D02*
D03*
X221161Y94387D02*
D03*
X94784Y66649D02*
D03*
X117717Y55724D02*
D03*
X211319Y88547D02*
D03*
X72736Y65665D02*
D03*
D44*
X117717Y49927D02*
D03*
X194193Y9154D02*
D03*
Y23327D02*
D03*
X93209Y80035D02*
D03*
X171752Y43406D02*
D03*
X117717Y59759D02*
D03*
X92323Y21570D02*
D03*
X71653Y59070D02*
D03*
D45*
X151870Y78445D02*
D03*
X137303D02*
D03*
D46*
X192421Y20067D02*
D03*
Y16327D02*
D03*
Y12587D02*
D03*
X182972D02*
D03*
Y20067D02*
D03*
D47*
X231201Y92520D02*
D03*
X191437D02*
D03*
X284449Y92520D02*
D03*
X244685D02*
D03*
D48*
X221161Y81693D02*
D03*
X216240D02*
D03*
X211319D02*
D03*
X206398D02*
D03*
X201476D02*
D03*
X274410Y81693D02*
D03*
X269488D02*
D03*
X264567D02*
D03*
X259646D02*
D03*
X254724D02*
D03*
D49*
X122933Y65665D02*
D03*
Y63696D02*
D03*
Y61728D02*
D03*
Y59759D02*
D03*
Y57791D02*
D03*
Y55822D02*
D03*
Y53854D02*
D03*
Y51885D02*
D03*
Y49917D02*
D03*
Y47948D02*
D03*
Y45980D02*
D03*
Y44011D02*
D03*
Y42042D02*
D03*
Y40074D02*
D03*
Y38105D02*
D03*
Y36137D02*
D03*
X79035D02*
D03*
Y38105D02*
D03*
Y40074D02*
D03*
Y42042D02*
D03*
Y44011D02*
D03*
Y45980D02*
D03*
Y47948D02*
D03*
Y49917D02*
D03*
Y51885D02*
D03*
Y53854D02*
D03*
Y55822D02*
D03*
Y57791D02*
D03*
Y59759D02*
D03*
Y61728D02*
D03*
Y63696D02*
D03*
Y65665D02*
D03*
D50*
X115748Y28952D02*
D03*
X113779D02*
D03*
X111811D02*
D03*
X109843D02*
D03*
X107874D02*
D03*
X105905D02*
D03*
X103937D02*
D03*
X101969D02*
D03*
X100000D02*
D03*
X98032D02*
D03*
X96063D02*
D03*
X94095D02*
D03*
X92126D02*
D03*
X90158D02*
D03*
X88189D02*
D03*
X86221D02*
D03*
Y72850D02*
D03*
X88189D02*
D03*
X90158D02*
D03*
X92126D02*
D03*
X94095D02*
D03*
X96063D02*
D03*
X98032D02*
D03*
X100000D02*
D03*
X101969D02*
D03*
X103937D02*
D03*
X105905D02*
D03*
X107874D02*
D03*
X109843D02*
D03*
X111811D02*
D03*
X113779D02*
D03*
X115748D02*
D03*
M02*
