G04*
G04 #@! TF.GenerationSoftware,Altium Limited,Altium Designer,20.2.6 (244)*
G04*
G04 Layer_Color=65535*
%FSLAX25Y25*%
%MOIN*%
G70*
G04*
G04 #@! TF.SameCoordinates,3A923CF8-0E80-4BF5-A473-74316D4CB4A5*
G04*
G04*
G04 #@! TF.FilePolarity,Positive*
G04*
G01*
G75*
%ADD10C,0.00787*%
%ADD11C,0.00472*%
%ADD12C,0.01000*%
%ADD13C,0.00500*%
%ADD14C,0.00037*%
%ADD15C,0.00394*%
%ADD16C,0.00591*%
%ADD17C,0.01500*%
%ADD18C,0.00100*%
%ADD19C,0.01378*%
%ADD20C,0.01575*%
%ADD21C,0.01299*%
G36*
X231596Y71709D02*
X231706D01*
Y71599D01*
Y71489D01*
Y71379D01*
Y71269D01*
Y71159D01*
Y71049D01*
Y70939D01*
Y70829D01*
Y70720D01*
Y70610D01*
Y70500D01*
X232476D01*
Y70390D01*
X233135D01*
Y70280D01*
X232805D01*
Y70170D01*
X231706D01*
Y70060D01*
Y69950D01*
Y69840D01*
Y69731D01*
Y69621D01*
Y69511D01*
Y69401D01*
X231596D01*
Y69291D01*
Y69181D01*
Y69071D01*
Y68961D01*
Y68851D01*
Y68741D01*
X231487D01*
Y68851D01*
Y68961D01*
Y69071D01*
Y69181D01*
X231377D01*
Y69291D01*
Y69401D01*
Y69511D01*
Y69621D01*
Y69731D01*
Y69840D01*
Y69950D01*
Y70060D01*
Y70170D01*
X230717D01*
Y70280D01*
X230058D01*
Y70390D01*
X230168D01*
Y70500D01*
X231377D01*
Y70610D01*
Y70720D01*
Y70829D01*
Y70939D01*
Y71049D01*
Y71159D01*
X231487D01*
Y71269D01*
Y71379D01*
Y71489D01*
Y71599D01*
Y71709D01*
Y71819D01*
X231596D01*
Y71709D01*
D02*
G37*
G36*
X250280Y66653D02*
Y66543D01*
Y66433D01*
Y66323D01*
Y66214D01*
Y66104D01*
X250390D01*
Y65994D01*
Y65884D01*
Y65774D01*
Y65664D01*
Y65554D01*
Y65444D01*
Y65334D01*
Y65224D01*
X251489D01*
Y65114D01*
X251929D01*
Y65005D01*
X251049D01*
Y64895D01*
X250390D01*
Y64785D01*
Y64675D01*
Y64565D01*
X250280D01*
Y64455D01*
Y64345D01*
Y64235D01*
Y64125D01*
Y64015D01*
Y63906D01*
Y63796D01*
Y63686D01*
X250060D01*
Y63796D01*
Y63906D01*
Y64015D01*
Y64125D01*
Y64235D01*
Y64345D01*
Y64455D01*
Y64565D01*
Y64675D01*
Y64785D01*
Y64895D01*
X249731D01*
Y65005D01*
X248851D01*
Y65114D01*
X248632D01*
Y65224D01*
X249511D01*
Y65334D01*
X250060D01*
Y65444D01*
Y65554D01*
Y65664D01*
Y65774D01*
Y65884D01*
Y65994D01*
Y66104D01*
Y66214D01*
Y66323D01*
X250170D01*
Y66433D01*
Y66543D01*
Y66653D01*
Y66763D01*
X250280D01*
Y66653D01*
D02*
G37*
G36*
X294565Y57855D02*
X290628D01*
X292596Y59824D01*
X294565Y57855D01*
D02*
G37*
G36*
X232586Y61268D02*
X233245D01*
Y61158D01*
X233575D01*
Y61048D01*
X233904D01*
Y60938D01*
X234124D01*
Y60828D01*
X234234D01*
Y60718D01*
X234454D01*
Y60608D01*
X234564D01*
Y60498D01*
X234674D01*
Y60389D01*
X234784D01*
Y60279D01*
X234894D01*
Y60169D01*
Y60059D01*
X235003D01*
Y59949D01*
X235113D01*
Y59839D01*
Y59729D01*
X235223D01*
Y59619D01*
Y59509D01*
X235333D01*
Y59399D01*
Y59290D01*
Y59180D01*
X235443D01*
Y59070D01*
Y58960D01*
Y58850D01*
Y58740D01*
Y58630D01*
X235553D01*
Y58520D01*
Y58410D01*
Y58300D01*
Y58191D01*
Y58081D01*
Y57971D01*
Y57861D01*
Y57751D01*
Y57641D01*
Y57531D01*
Y57421D01*
X235443D01*
Y57311D01*
Y57201D01*
X235883D01*
Y57311D01*
X236652D01*
Y57421D01*
X237312D01*
Y57531D01*
X237641D01*
Y57641D01*
X237751D01*
Y57751D01*
Y57861D01*
Y57971D01*
X237861D01*
Y58081D01*
Y58191D01*
X237971D01*
Y58300D01*
Y58410D01*
Y58520D01*
X238081D01*
Y58630D01*
Y58740D01*
Y58850D01*
X238191D01*
Y58960D01*
Y59070D01*
X238301D01*
Y59180D01*
Y59290D01*
Y59399D01*
X238410D01*
Y59509D01*
Y59619D01*
Y59729D01*
X238520D01*
Y59839D01*
Y59949D01*
X238630D01*
Y60059D01*
Y60169D01*
Y60279D01*
X238740D01*
Y60389D01*
X238850D01*
Y60498D01*
X238960D01*
Y60608D01*
X239070D01*
Y60718D01*
X239180D01*
Y60828D01*
X239400D01*
Y60938D01*
X239729D01*
Y61048D01*
X240828D01*
Y60938D01*
X241158D01*
Y60828D01*
X241378D01*
Y60718D01*
X241488D01*
Y60608D01*
X241598D01*
Y60498D01*
X241708D01*
Y60389D01*
X241817D01*
Y60279D01*
Y60169D01*
X241927D01*
Y60059D01*
Y59949D01*
X242037D01*
Y59839D01*
Y59729D01*
Y59619D01*
X242147D01*
Y59509D01*
Y59399D01*
X242257D01*
Y59290D01*
Y59180D01*
Y59070D01*
X242367D01*
Y58960D01*
Y58850D01*
Y58740D01*
X242477D01*
Y58630D01*
Y58520D01*
X242587D01*
Y58410D01*
Y58300D01*
X242697D01*
Y58191D01*
X242807D01*
Y58300D01*
X243686D01*
Y58410D01*
X244785D01*
Y58520D01*
X244895D01*
Y58630D01*
Y58740D01*
X245005D01*
Y58850D01*
Y58960D01*
X245115D01*
Y59070D01*
Y59180D01*
X245224D01*
Y59290D01*
Y59399D01*
X245334D01*
Y59509D01*
X245444D01*
Y59619D01*
X245554D01*
Y59729D01*
Y59839D01*
X245664D01*
Y59949D01*
X245774D01*
Y60059D01*
X245884D01*
Y60169D01*
X245994D01*
Y60279D01*
X246214D01*
Y60389D01*
X246324D01*
Y60498D01*
X246433D01*
Y60608D01*
X246653D01*
Y60718D01*
X246873D01*
Y60828D01*
X247093D01*
Y60938D01*
X247313D01*
Y61048D01*
X247642D01*
Y61158D01*
X248082D01*
Y61268D01*
X254017D01*
Y61158D01*
Y61048D01*
Y60938D01*
Y60828D01*
Y60718D01*
Y60608D01*
Y60498D01*
Y60389D01*
Y60279D01*
Y60169D01*
Y60059D01*
Y59949D01*
Y59839D01*
Y59729D01*
X248302D01*
Y59619D01*
X247972D01*
Y59509D01*
X247752D01*
Y59399D01*
X247533D01*
Y59290D01*
X247313D01*
Y59180D01*
X247203D01*
Y59070D01*
X247093D01*
Y58960D01*
X246983D01*
Y58850D01*
X246873D01*
Y58740D01*
X246763D01*
Y58630D01*
X247313D01*
Y58740D01*
X248851D01*
Y58850D01*
X250610D01*
Y58960D01*
X252588D01*
Y59070D01*
X255885D01*
Y59180D01*
Y59290D01*
Y59399D01*
Y59509D01*
Y59619D01*
Y59729D01*
Y59839D01*
Y59949D01*
Y60059D01*
Y60169D01*
Y60279D01*
Y60389D01*
Y60498D01*
Y60608D01*
Y60718D01*
Y60828D01*
Y60938D01*
Y61048D01*
Y61158D01*
Y61268D01*
X264128D01*
Y61158D01*
Y61048D01*
Y60938D01*
Y60828D01*
Y60718D01*
Y60608D01*
Y60498D01*
Y60389D01*
Y60279D01*
Y60169D01*
Y60059D01*
Y59949D01*
Y59839D01*
Y59729D01*
X257424D01*
Y59619D01*
Y59509D01*
Y59399D01*
Y59290D01*
Y59180D01*
Y59070D01*
X263908D01*
Y58960D01*
X265886D01*
Y58850D01*
X266876D01*
Y58740D01*
X267425D01*
Y58630D01*
X267865D01*
Y58520D01*
X268195D01*
Y58410D01*
X265117D01*
Y58300D01*
X261930D01*
Y58191D01*
X259622D01*
Y58081D01*
X257644D01*
Y57971D01*
X257424D01*
Y57861D01*
Y57751D01*
Y57641D01*
Y57531D01*
Y57421D01*
X263798D01*
Y57311D01*
Y57201D01*
Y57091D01*
Y56982D01*
Y56872D01*
Y56762D01*
Y56652D01*
Y56542D01*
Y56432D01*
Y56322D01*
Y56212D01*
Y56102D01*
X257424D01*
Y55992D01*
Y55883D01*
Y55773D01*
Y55663D01*
Y55553D01*
Y55443D01*
Y55333D01*
Y55223D01*
Y55113D01*
Y55003D01*
Y54893D01*
Y54783D01*
Y54674D01*
Y54564D01*
Y54454D01*
Y54344D01*
Y54234D01*
Y54124D01*
Y54014D01*
Y53904D01*
Y53794D01*
Y53685D01*
Y53575D01*
X264128D01*
Y53465D01*
Y53355D01*
Y53245D01*
Y53135D01*
Y53025D01*
Y52915D01*
Y52805D01*
Y52695D01*
Y52585D01*
Y52476D01*
Y52366D01*
Y52256D01*
Y52146D01*
Y52036D01*
X255885D01*
Y52146D01*
Y52256D01*
Y52366D01*
Y52476D01*
Y52585D01*
Y52695D01*
Y52805D01*
Y52915D01*
Y53025D01*
Y53135D01*
Y53245D01*
Y53355D01*
Y53465D01*
Y53575D01*
Y53685D01*
Y53794D01*
Y53904D01*
Y54014D01*
Y54124D01*
Y54234D01*
Y54344D01*
Y54454D01*
Y54564D01*
Y54674D01*
Y54783D01*
Y54893D01*
Y55003D01*
Y55113D01*
Y55223D01*
Y55333D01*
Y55443D01*
Y55553D01*
Y55663D01*
Y55773D01*
Y55883D01*
Y55992D01*
Y56102D01*
Y56212D01*
Y56322D01*
Y56432D01*
Y56542D01*
Y56652D01*
Y56762D01*
Y56872D01*
Y56982D01*
Y57091D01*
Y57201D01*
Y57311D01*
Y57421D01*
Y57531D01*
Y57641D01*
Y57751D01*
Y57861D01*
X254347D01*
Y57751D01*
X253028D01*
Y57641D01*
X251709D01*
Y57531D01*
X250500D01*
Y57421D01*
X249511D01*
Y57311D01*
X248412D01*
Y57201D01*
X247423D01*
Y57091D01*
X246543D01*
Y56982D01*
X246104D01*
Y56872D01*
Y56762D01*
Y56652D01*
Y56542D01*
Y56432D01*
Y56322D01*
Y56212D01*
X246214D01*
Y56102D01*
Y55992D01*
Y55883D01*
Y55773D01*
Y55663D01*
X246324D01*
Y55553D01*
Y55443D01*
Y55333D01*
X246433D01*
Y55223D01*
Y55113D01*
X246543D01*
Y55003D01*
X246653D01*
Y54893D01*
Y54783D01*
X246763D01*
Y54674D01*
X246873D01*
Y54564D01*
X246983D01*
Y54454D01*
X247093D01*
Y54344D01*
X247203D01*
Y54234D01*
X247313D01*
Y54124D01*
X247423D01*
Y54014D01*
X247642D01*
Y53904D01*
X247862D01*
Y53794D01*
X248192D01*
Y53685D01*
X248742D01*
Y53575D01*
X254017D01*
Y53465D01*
Y53355D01*
Y53245D01*
Y53135D01*
Y53025D01*
Y52915D01*
Y52805D01*
Y52695D01*
Y52585D01*
Y52476D01*
Y52366D01*
Y52256D01*
Y52146D01*
Y52036D01*
X248632D01*
Y52146D01*
X247972D01*
Y52256D01*
X247642D01*
Y52366D01*
X247313D01*
Y52476D01*
X247093D01*
Y52585D01*
X246873D01*
Y52695D01*
X246653D01*
Y52805D01*
X246543D01*
Y52915D01*
X246324D01*
Y53025D01*
X246214D01*
Y53135D01*
X246104D01*
Y53245D01*
X245994D01*
Y53355D01*
X245884D01*
Y53465D01*
X245774D01*
Y53575D01*
X245664D01*
Y53685D01*
X245554D01*
Y53794D01*
X245444D01*
Y53904D01*
Y54014D01*
X245334D01*
Y54124D01*
X245224D01*
Y54234D01*
Y54344D01*
X245115D01*
Y54454D01*
Y54564D01*
X245005D01*
Y54674D01*
Y54783D01*
X244895D01*
Y54893D01*
Y55003D01*
Y55113D01*
X244785D01*
Y55223D01*
Y55333D01*
Y55443D01*
Y55553D01*
X244675D01*
Y55663D01*
Y55773D01*
Y55883D01*
Y55992D01*
Y56102D01*
X244565D01*
Y56212D01*
Y56322D01*
Y56432D01*
Y56542D01*
Y56652D01*
Y56762D01*
X244016D01*
Y56652D01*
X243356D01*
Y56542D01*
X243246D01*
Y56432D01*
X243356D01*
Y56322D01*
Y56212D01*
X243466D01*
Y56102D01*
Y55992D01*
Y55883D01*
X243576D01*
Y55773D01*
Y55663D01*
X243686D01*
Y55553D01*
Y55443D01*
Y55333D01*
X243796D01*
Y55223D01*
Y55113D01*
Y55003D01*
X243906D01*
Y54893D01*
Y54783D01*
X244016D01*
Y54674D01*
Y54564D01*
Y54454D01*
X244126D01*
Y54344D01*
Y54234D01*
Y54124D01*
X244235D01*
Y54014D01*
Y53904D01*
X244345D01*
Y53794D01*
Y53685D01*
Y53575D01*
X244455D01*
Y53465D01*
Y53355D01*
X244565D01*
Y53245D01*
Y53135D01*
Y53025D01*
X244675D01*
Y52915D01*
Y52805D01*
Y52695D01*
X244785D01*
Y52585D01*
Y52476D01*
X244895D01*
Y52366D01*
X243246D01*
Y52476D01*
Y52585D01*
X243136D01*
Y52695D01*
Y52805D01*
Y52915D01*
X243026D01*
Y53025D01*
Y53135D01*
Y53245D01*
X242917D01*
Y53355D01*
Y53465D01*
X242807D01*
Y53575D01*
Y53685D01*
Y53794D01*
X242697D01*
Y53904D01*
Y54014D01*
X242587D01*
Y54124D01*
Y54234D01*
Y54344D01*
X242477D01*
Y54454D01*
Y54564D01*
Y54674D01*
X242367D01*
Y54783D01*
Y54893D01*
X242257D01*
Y55003D01*
Y55113D01*
Y55223D01*
X242147D01*
Y55333D01*
Y55443D01*
Y55553D01*
X242037D01*
Y55663D01*
Y55773D01*
X241927D01*
Y55883D01*
Y55992D01*
Y56102D01*
X241817D01*
Y56212D01*
Y56322D01*
X241268D01*
Y56212D01*
X240719D01*
Y56102D01*
X240059D01*
Y55992D01*
X239510D01*
Y55883D01*
X238850D01*
Y55773D01*
X238520D01*
Y55663D01*
Y55553D01*
X238410D01*
Y55443D01*
Y55333D01*
Y55223D01*
X238301D01*
Y55113D01*
Y55003D01*
X238191D01*
Y54893D01*
Y54783D01*
Y54674D01*
X238081D01*
Y54564D01*
Y54454D01*
Y54344D01*
X237971D01*
Y54234D01*
Y54124D01*
X237861D01*
Y54014D01*
Y53904D01*
Y53794D01*
X237751D01*
Y53685D01*
Y53575D01*
Y53465D01*
X237641D01*
Y53355D01*
Y53245D01*
X237531D01*
Y53135D01*
Y53025D01*
Y52915D01*
X237421D01*
Y52805D01*
Y52695D01*
Y52585D01*
X237312D01*
Y52476D01*
Y52366D01*
X235663D01*
Y52476D01*
X235773D01*
Y52585D01*
Y52695D01*
Y52805D01*
X235883D01*
Y52915D01*
Y53025D01*
X235993D01*
Y53135D01*
Y53245D01*
Y53355D01*
X236103D01*
Y53465D01*
Y53575D01*
X236212D01*
Y53685D01*
Y53794D01*
Y53904D01*
X236322D01*
Y54014D01*
Y54124D01*
Y54234D01*
X236432D01*
Y54344D01*
Y54454D01*
X236542D01*
Y54564D01*
Y54674D01*
Y54783D01*
X236652D01*
Y54893D01*
Y55003D01*
Y55113D01*
X236762D01*
Y55223D01*
Y55333D01*
X236212D01*
Y55223D01*
X235663D01*
Y55113D01*
X235223D01*
Y55003D01*
X234784D01*
Y54893D01*
X234344D01*
Y54783D01*
X233904D01*
Y54674D01*
X233465D01*
Y54564D01*
X233025D01*
Y54454D01*
X232586D01*
Y54344D01*
X232256D01*
Y54234D01*
X231816D01*
Y54124D01*
X231377D01*
Y54014D01*
X231047D01*
Y53904D01*
X230717D01*
Y53794D01*
X230387D01*
Y53685D01*
X229948D01*
Y53575D01*
X229618D01*
Y53465D01*
X229289D01*
Y53355D01*
X228959D01*
Y53245D01*
X228739D01*
Y53135D01*
X228409D01*
Y53025D01*
X228080D01*
Y52915D01*
X227750D01*
Y52805D01*
X227420D01*
Y52695D01*
X227200D01*
Y52585D01*
Y52476D01*
Y52366D01*
Y52256D01*
Y52146D01*
X225881D01*
Y52036D01*
X225552D01*
Y51926D01*
X225332D01*
Y51816D01*
X225112D01*
Y51706D01*
X224892D01*
Y51596D01*
X224673D01*
Y51486D01*
X224453D01*
Y51376D01*
X224123D01*
Y51267D01*
X223903D01*
Y51157D01*
X223683D01*
Y51047D01*
X223573D01*
Y50937D01*
X223354D01*
Y50827D01*
X223134D01*
Y50717D01*
X222914D01*
Y50607D01*
X222694D01*
Y50497D01*
X222584D01*
Y50387D01*
X222364D01*
Y50277D01*
X222145D01*
Y50168D01*
X222035D01*
Y50058D01*
X221815D01*
Y49948D01*
X221595D01*
Y49838D01*
X221485D01*
Y49728D01*
X221266D01*
Y49618D01*
X221156D01*
Y49508D01*
X220936D01*
Y49398D01*
X220826D01*
Y49288D01*
X220606D01*
Y49178D01*
X220496D01*
Y49068D01*
X220386D01*
Y48959D01*
X220166D01*
Y48849D01*
X220057D01*
Y48739D01*
X219947D01*
Y48629D01*
X219837D01*
Y48519D01*
X219617D01*
Y48409D01*
X219507D01*
Y48299D01*
X219397D01*
Y48189D01*
X219287D01*
Y48079D01*
X219177D01*
Y47969D01*
X219067D01*
Y47859D01*
X218957D01*
Y47750D01*
X218848D01*
Y47640D01*
X218738D01*
Y47530D01*
X218628D01*
Y47420D01*
X218518D01*
Y47310D01*
X218408D01*
Y47200D01*
X218298D01*
Y47090D01*
X218188D01*
Y46980D01*
X218078D01*
Y46870D01*
X217968D01*
Y46760D01*
Y46651D01*
X217858D01*
Y46541D01*
X217748D01*
Y46431D01*
X217639D01*
Y46321D01*
Y46211D01*
X217529D01*
Y46101D01*
X217419D01*
Y45991D01*
X217309D01*
Y45881D01*
Y45771D01*
X217199D01*
Y45662D01*
Y45551D01*
X217089D01*
Y45442D01*
Y45332D01*
X216979D01*
Y45222D01*
X216869D01*
Y45112D01*
Y45002D01*
X216759D01*
Y44892D01*
Y44782D01*
Y44672D01*
X216650D01*
Y44562D01*
Y44453D01*
X216540D01*
Y44343D01*
Y44233D01*
Y44123D01*
X216430D01*
Y44013D01*
Y43903D01*
Y43793D01*
Y43683D01*
X216320D01*
Y43573D01*
Y43463D01*
Y43354D01*
Y43244D01*
Y43134D01*
Y43024D01*
Y42914D01*
X216210D01*
Y43024D01*
Y43134D01*
X216100D01*
Y43244D01*
Y43354D01*
X215990D01*
Y43463D01*
Y43573D01*
X215880D01*
Y43683D01*
Y43793D01*
Y43903D01*
X215770D01*
Y44013D01*
Y44123D01*
Y44233D01*
X215660D01*
Y44343D01*
Y44453D01*
Y44562D01*
Y44672D01*
Y44782D01*
X215550D01*
Y44892D01*
Y45002D01*
Y45112D01*
Y45222D01*
Y45332D01*
Y45442D01*
Y45551D01*
Y45662D01*
Y45771D01*
Y45881D01*
Y45991D01*
Y46101D01*
Y46211D01*
Y46321D01*
Y46431D01*
Y46541D01*
Y46651D01*
X215660D01*
Y46760D01*
Y46870D01*
Y46980D01*
Y47090D01*
Y47200D01*
X215770D01*
Y47310D01*
Y47420D01*
Y47530D01*
X215880D01*
Y47640D01*
Y47750D01*
Y47859D01*
X215990D01*
Y47969D01*
Y48079D01*
X216100D01*
Y48189D01*
Y48299D01*
X216210D01*
Y48409D01*
Y48519D01*
X216320D01*
Y48629D01*
Y48739D01*
X216430D01*
Y48849D01*
X216540D01*
Y48959D01*
Y49068D01*
X216650D01*
Y49178D01*
X216759D01*
Y49288D01*
Y49398D01*
X216869D01*
Y49508D01*
X216979D01*
Y49618D01*
X217089D01*
Y49728D01*
X217199D01*
Y49838D01*
X217309D01*
Y49948D01*
X217419D01*
Y50058D01*
X217529D01*
Y50168D01*
Y50277D01*
X217639D01*
Y50387D01*
X217858D01*
Y50497D01*
X217968D01*
Y50607D01*
X218078D01*
Y50717D01*
X218188D01*
Y50827D01*
X218298D01*
Y50937D01*
X218408D01*
Y51047D01*
X218628D01*
Y51157D01*
X218738D01*
Y51267D01*
X218848D01*
Y51376D01*
X219067D01*
Y51486D01*
X219177D01*
Y51596D01*
X219397D01*
Y51706D01*
X219507D01*
Y51816D01*
X219727D01*
Y51926D01*
X219837D01*
Y52036D01*
X214122D01*
Y52146D01*
Y52256D01*
Y52366D01*
Y52476D01*
Y52585D01*
Y52695D01*
Y52805D01*
Y52915D01*
Y53025D01*
Y53135D01*
Y53245D01*
Y53355D01*
Y53465D01*
Y53575D01*
X221375D01*
Y53685D01*
X221815D01*
Y53794D01*
X222035D01*
Y53904D01*
X222145D01*
Y54014D01*
X222255D01*
Y54124D01*
Y54234D01*
X222364D01*
Y54344D01*
Y54454D01*
X222474D01*
Y54564D01*
Y54674D01*
Y54783D01*
Y54893D01*
Y55003D01*
Y55113D01*
Y55223D01*
Y55333D01*
X222364D01*
Y55443D01*
Y55553D01*
X222255D01*
Y55663D01*
Y55773D01*
X222145D01*
Y55883D01*
X221925D01*
Y55992D01*
X221595D01*
Y56102D01*
X216320D01*
Y56212D01*
X215770D01*
Y56322D01*
X215441D01*
Y56432D01*
X215221D01*
Y56542D01*
X215111D01*
Y56652D01*
X214891D01*
Y56762D01*
X214781D01*
Y56872D01*
X214671D01*
Y56982D01*
X214561D01*
Y57091D01*
Y57201D01*
X214451D01*
Y57311D01*
X214341D01*
Y57421D01*
Y57531D01*
X214232D01*
Y57641D01*
Y57751D01*
X214122D01*
Y57861D01*
Y57971D01*
Y58081D01*
Y58191D01*
X214012D01*
Y58300D01*
Y58410D01*
Y58520D01*
Y58630D01*
Y58740D01*
Y58850D01*
Y58960D01*
Y59070D01*
Y59180D01*
Y59290D01*
X214122D01*
Y59399D01*
Y59509D01*
Y59619D01*
Y59729D01*
X214232D01*
Y59839D01*
Y59949D01*
X214341D01*
Y60059D01*
Y60169D01*
X214451D01*
Y60279D01*
X214561D01*
Y60389D01*
X214671D01*
Y60498D01*
Y60608D01*
X214891D01*
Y60718D01*
X215001D01*
Y60828D01*
X215111D01*
Y60938D01*
X215331D01*
Y61048D01*
X215660D01*
Y61158D01*
X215990D01*
Y61268D01*
X223464D01*
Y61158D01*
Y61048D01*
Y60938D01*
Y60828D01*
Y60718D01*
Y60608D01*
Y60498D01*
Y60389D01*
Y60279D01*
Y60169D01*
Y60059D01*
Y59949D01*
Y59839D01*
Y59729D01*
X216320D01*
Y59619D01*
X216100D01*
Y59509D01*
X215990D01*
Y59399D01*
X215880D01*
Y59290D01*
X215770D01*
Y59180D01*
Y59070D01*
X215660D01*
Y58960D01*
Y58850D01*
Y58740D01*
Y58630D01*
Y58520D01*
Y58410D01*
Y58300D01*
Y58191D01*
Y58081D01*
X215770D01*
Y57971D01*
Y57861D01*
X215880D01*
Y57751D01*
X215990D01*
Y57641D01*
X216100D01*
Y57531D01*
X216320D01*
Y57421D01*
X221705D01*
Y57311D01*
X222255D01*
Y57201D01*
X222584D01*
Y57091D01*
X222804D01*
Y56982D01*
X223024D01*
Y56872D01*
X223134D01*
Y56762D01*
X223244D01*
Y56652D01*
X223354D01*
Y56542D01*
X223464D01*
Y56432D01*
X223573D01*
Y56322D01*
Y56212D01*
X223683D01*
Y56102D01*
Y55992D01*
X223793D01*
Y55883D01*
Y55773D01*
Y55663D01*
X223903D01*
Y55553D01*
Y55443D01*
Y55333D01*
Y55223D01*
Y55113D01*
Y55003D01*
Y54893D01*
Y54783D01*
Y54674D01*
Y54564D01*
Y54454D01*
Y54344D01*
Y54234D01*
Y54124D01*
Y54014D01*
Y53904D01*
X224013D01*
Y54014D01*
X224233D01*
Y54124D01*
X224453D01*
Y54234D01*
X224782D01*
Y54344D01*
X225002D01*
Y54454D01*
X225332D01*
Y54564D01*
X225552D01*
Y54674D01*
X225662D01*
Y54783D01*
Y54893D01*
Y55003D01*
Y55113D01*
Y55223D01*
Y55333D01*
Y55443D01*
Y55553D01*
Y55663D01*
Y55773D01*
Y55883D01*
Y55992D01*
Y56102D01*
Y56212D01*
Y56322D01*
Y56432D01*
Y56542D01*
Y56652D01*
Y56762D01*
Y56872D01*
Y56982D01*
Y57091D01*
Y57201D01*
Y57311D01*
Y57421D01*
Y57531D01*
Y57641D01*
Y57751D01*
Y57861D01*
Y57971D01*
Y58081D01*
Y58191D01*
Y58300D01*
Y58410D01*
Y58520D01*
Y58630D01*
Y58740D01*
Y58850D01*
Y58960D01*
Y59070D01*
Y59180D01*
Y59290D01*
Y59399D01*
Y59509D01*
Y59619D01*
Y59729D01*
Y59839D01*
Y59949D01*
Y60059D01*
Y60169D01*
Y60279D01*
Y60389D01*
Y60498D01*
Y60608D01*
Y60718D01*
Y60828D01*
Y60938D01*
Y61048D01*
Y61158D01*
Y61268D01*
Y61378D01*
X232586D01*
Y61268D01*
D02*
G37*
G36*
X302537Y49883D02*
X300569Y47914D01*
Y51851D01*
X302537Y49883D01*
D02*
G37*
G36*
X237092Y49618D02*
Y49508D01*
Y49398D01*
Y49288D01*
Y49178D01*
Y49068D01*
Y48959D01*
X237202D01*
Y48849D01*
Y48739D01*
Y48629D01*
Y48519D01*
Y48409D01*
Y48299D01*
Y48189D01*
X237421D01*
Y48079D01*
X238301D01*
Y47969D01*
X238630D01*
Y47859D01*
X237751D01*
Y47750D01*
X237202D01*
Y47640D01*
Y47530D01*
Y47420D01*
X237092D01*
Y47310D01*
Y47200D01*
Y47090D01*
Y46980D01*
Y46870D01*
Y46760D01*
Y46651D01*
Y46541D01*
X236982D01*
Y46431D01*
X236872D01*
Y46541D01*
Y46651D01*
Y46760D01*
Y46870D01*
Y46980D01*
Y47090D01*
Y47200D01*
Y47310D01*
Y47420D01*
Y47530D01*
Y47640D01*
Y47750D01*
X236652D01*
Y47859D01*
X235663D01*
Y47969D01*
X235333D01*
Y48079D01*
X236212D01*
Y48189D01*
X236872D01*
Y48299D01*
Y48409D01*
Y48519D01*
Y48629D01*
Y48739D01*
Y48849D01*
Y48959D01*
Y49068D01*
Y49178D01*
X236982D01*
Y49288D01*
Y49398D01*
Y49508D01*
Y49618D01*
Y49728D01*
X237092D01*
Y49618D01*
D02*
G37*
G36*
X248522Y49178D02*
Y49068D01*
Y48959D01*
Y48849D01*
X248632D01*
Y48739D01*
Y48629D01*
Y48519D01*
Y48409D01*
Y48299D01*
Y48189D01*
Y48079D01*
Y47969D01*
Y47859D01*
X249071D01*
Y47750D01*
X249840D01*
Y47640D01*
X249950D01*
Y47530D01*
X248632D01*
Y47420D01*
Y47310D01*
Y47200D01*
Y47090D01*
Y46980D01*
Y46870D01*
X248522D01*
Y46760D01*
Y46651D01*
Y46541D01*
Y46431D01*
Y46321D01*
Y46211D01*
X248412D01*
Y46321D01*
X248302D01*
Y46431D01*
Y46541D01*
Y46651D01*
Y46760D01*
Y46870D01*
Y46980D01*
Y47090D01*
Y47200D01*
Y47310D01*
Y47420D01*
Y47530D01*
X247313D01*
Y47640D01*
X246763D01*
Y47750D01*
X247313D01*
Y47859D01*
X248302D01*
Y47969D01*
Y48079D01*
Y48189D01*
Y48299D01*
Y48409D01*
Y48519D01*
Y48629D01*
Y48739D01*
X248412D01*
Y48849D01*
Y48959D01*
Y49068D01*
Y49178D01*
Y49288D01*
X248522D01*
Y49178D01*
D02*
G37*
G36*
X262699Y49948D02*
X263139D01*
Y49838D01*
X263359D01*
Y49728D01*
X263579D01*
Y49618D01*
X263688D01*
Y49508D01*
X263798D01*
Y49398D01*
Y49288D01*
X263908D01*
Y49178D01*
X264018D01*
Y49068D01*
Y48959D01*
Y48849D01*
Y48739D01*
X264128D01*
Y48629D01*
Y48519D01*
Y48409D01*
Y48299D01*
Y48189D01*
X264018D01*
Y48079D01*
Y47969D01*
Y47859D01*
Y47750D01*
X263908D01*
Y47640D01*
X263798D01*
Y47530D01*
Y47420D01*
X263579D01*
Y47310D01*
X263469D01*
Y47200D01*
X263249D01*
Y47090D01*
X263469D01*
Y46980D01*
X263579D01*
Y46870D01*
X263798D01*
Y46760D01*
X263908D01*
Y46651D01*
Y46541D01*
X264018D01*
Y46431D01*
X264128D01*
Y46321D01*
Y46211D01*
Y46101D01*
Y45991D01*
X264238D01*
Y45881D01*
Y45771D01*
Y45662D01*
Y45551D01*
Y45442D01*
Y45332D01*
X264128D01*
Y45222D01*
Y45112D01*
Y45002D01*
X264018D01*
Y44892D01*
Y44782D01*
X263908D01*
Y44672D01*
Y44562D01*
X263798D01*
Y44453D01*
X263688D01*
Y44343D01*
X263579D01*
Y44233D01*
X263359D01*
Y44123D01*
X263139D01*
Y44013D01*
X262809D01*
Y43903D01*
X257534D01*
Y44013D01*
Y44123D01*
Y44233D01*
Y44343D01*
Y44453D01*
Y44562D01*
Y44672D01*
Y44782D01*
Y44892D01*
Y45002D01*
Y45112D01*
Y45222D01*
Y45332D01*
Y45442D01*
Y45551D01*
Y45662D01*
Y45771D01*
Y45881D01*
Y45991D01*
Y46101D01*
Y46211D01*
Y46321D01*
Y46431D01*
Y46541D01*
Y46651D01*
Y46760D01*
Y46870D01*
Y46980D01*
Y47090D01*
Y47200D01*
Y47310D01*
Y47420D01*
Y47530D01*
Y47640D01*
Y47750D01*
Y47859D01*
Y47969D01*
Y48079D01*
Y48189D01*
Y48299D01*
Y48409D01*
Y48519D01*
Y48629D01*
Y48739D01*
Y48849D01*
Y48959D01*
Y49068D01*
Y49178D01*
Y49288D01*
Y49398D01*
Y49508D01*
Y49618D01*
Y49728D01*
Y49838D01*
Y49948D01*
Y50058D01*
X262699D01*
Y49948D01*
D02*
G37*
G36*
X252918Y50058D02*
X253028D01*
Y49948D01*
X253138D01*
Y49838D01*
X253247D01*
Y49728D01*
X253357D01*
Y49618D01*
Y49508D01*
X253467D01*
Y49398D01*
Y49288D01*
X253577D01*
Y49178D01*
X253687D01*
Y49068D01*
Y48959D01*
X253797D01*
Y48849D01*
X253907D01*
Y48739D01*
Y48629D01*
X254017D01*
Y48519D01*
Y48409D01*
X254127D01*
Y48299D01*
X254237D01*
Y48189D01*
Y48079D01*
X254347D01*
Y47969D01*
Y47859D01*
X254456D01*
Y47750D01*
X254566D01*
Y47640D01*
Y47530D01*
X254676D01*
Y47420D01*
Y47310D01*
X254786D01*
Y47200D01*
X254896D01*
Y47090D01*
Y46980D01*
X255006D01*
Y46870D01*
Y46760D01*
X255116D01*
Y46651D01*
X255226D01*
Y46541D01*
Y46431D01*
X255336D01*
Y46321D01*
Y46211D01*
X255446D01*
Y46101D01*
X255556D01*
Y45991D01*
Y45881D01*
X255665D01*
Y45771D01*
Y45662D01*
X255775D01*
Y45551D01*
X255885D01*
Y45442D01*
Y45332D01*
X255995D01*
Y45222D01*
Y45112D01*
X256105D01*
Y45002D01*
X256215D01*
Y44892D01*
Y44782D01*
X256325D01*
Y44672D01*
Y44562D01*
X256435D01*
Y44453D01*
X256545D01*
Y44343D01*
Y44233D01*
X256655D01*
Y44123D01*
Y44013D01*
X256765D01*
Y43903D01*
X255556D01*
Y44013D01*
X255446D01*
Y44123D01*
Y44233D01*
X255336D01*
Y44343D01*
Y44453D01*
X255226D01*
Y44562D01*
X255116D01*
Y44672D01*
Y44782D01*
X255006D01*
Y44892D01*
Y45002D01*
X254896D01*
Y45112D01*
X254786D01*
Y45222D01*
Y45332D01*
X254676D01*
Y45442D01*
X250720D01*
Y45332D01*
Y45222D01*
X250610D01*
Y45112D01*
X250500D01*
Y45002D01*
Y44892D01*
X250390D01*
Y44782D01*
Y44672D01*
X250280D01*
Y44562D01*
X250170D01*
Y44453D01*
Y44343D01*
X250060D01*
Y44233D01*
Y44123D01*
X249950D01*
Y44013D01*
Y43903D01*
X248742D01*
Y44013D01*
X248851D01*
Y44123D01*
Y44233D01*
X248961D01*
Y44343D01*
X249071D01*
Y44453D01*
Y44562D01*
X249181D01*
Y44672D01*
Y44782D01*
X249291D01*
Y44892D01*
X249401D01*
Y45002D01*
Y45112D01*
X249511D01*
Y45222D01*
Y45332D01*
X249621D01*
Y45442D01*
X249731D01*
Y45551D01*
Y45662D01*
X249840D01*
Y45771D01*
Y45881D01*
X249950D01*
Y45991D01*
X250060D01*
Y46101D01*
Y46211D01*
X250170D01*
Y46321D01*
Y46431D01*
X250280D01*
Y46541D01*
X250390D01*
Y46651D01*
Y46760D01*
X250500D01*
Y46870D01*
Y46980D01*
X250610D01*
Y47090D01*
X250720D01*
Y47200D01*
Y47310D01*
X250830D01*
Y47420D01*
Y47530D01*
X250940D01*
Y47640D01*
X251049D01*
Y47750D01*
Y47859D01*
X251159D01*
Y47969D01*
Y48079D01*
X251269D01*
Y48189D01*
X251379D01*
Y48299D01*
Y48409D01*
X251489D01*
Y48519D01*
Y48629D01*
X251599D01*
Y48739D01*
X251709D01*
Y48849D01*
Y48959D01*
X251819D01*
Y49068D01*
Y49178D01*
X251929D01*
Y49288D01*
X252039D01*
Y49398D01*
Y49508D01*
X252149D01*
Y49618D01*
Y49728D01*
X252258D01*
Y49838D01*
X252368D01*
Y49948D01*
X252478D01*
Y50058D01*
X252588D01*
Y50168D01*
X252918D01*
Y50058D01*
D02*
G37*
G36*
X244016Y49948D02*
Y49838D01*
Y49728D01*
Y49618D01*
Y49508D01*
Y49398D01*
Y49288D01*
Y49178D01*
Y49068D01*
Y48959D01*
Y48849D01*
Y48739D01*
Y48629D01*
Y48519D01*
Y48409D01*
Y48299D01*
Y48189D01*
Y48079D01*
Y47969D01*
Y47859D01*
Y47750D01*
Y47640D01*
Y47530D01*
Y47420D01*
Y47310D01*
Y47200D01*
Y47090D01*
Y46980D01*
Y46870D01*
Y46760D01*
Y46651D01*
Y46541D01*
Y46431D01*
Y46321D01*
Y46211D01*
Y46101D01*
Y45991D01*
Y45881D01*
Y45771D01*
Y45662D01*
Y45551D01*
Y45442D01*
Y45332D01*
Y45222D01*
Y45112D01*
Y45002D01*
Y44892D01*
X248192D01*
Y44782D01*
Y44672D01*
Y44562D01*
Y44453D01*
Y44343D01*
Y44233D01*
Y44123D01*
Y44013D01*
Y43903D01*
X243026D01*
Y44013D01*
Y44123D01*
Y44233D01*
Y44343D01*
Y44453D01*
Y44562D01*
Y44672D01*
Y44782D01*
Y44892D01*
Y45002D01*
Y45112D01*
Y45222D01*
Y45332D01*
Y45442D01*
Y45551D01*
Y45662D01*
Y45771D01*
Y45881D01*
Y45991D01*
Y46101D01*
Y46211D01*
Y46321D01*
Y46431D01*
Y46541D01*
Y46651D01*
Y46760D01*
Y46870D01*
Y46980D01*
Y47090D01*
Y47200D01*
Y47310D01*
Y47420D01*
Y47530D01*
Y47640D01*
Y47750D01*
Y47859D01*
Y47969D01*
Y48079D01*
Y48189D01*
Y48299D01*
Y48409D01*
Y48519D01*
Y48629D01*
Y48739D01*
Y48849D01*
Y48959D01*
Y49068D01*
Y49178D01*
Y49288D01*
Y49398D01*
Y49508D01*
Y49618D01*
Y49728D01*
Y49838D01*
Y49948D01*
Y50058D01*
X244016D01*
Y49948D01*
D02*
G37*
G36*
X219947Y44672D02*
Y44562D01*
Y44453D01*
Y44343D01*
Y44233D01*
Y44123D01*
Y44013D01*
Y43903D01*
Y43793D01*
Y43683D01*
Y43573D01*
Y43463D01*
X220606D01*
Y43354D01*
X221266D01*
Y43244D01*
Y43134D01*
X220057D01*
Y43024D01*
X219947D01*
Y42914D01*
Y42804D01*
Y42694D01*
Y42584D01*
Y42474D01*
Y42364D01*
Y42254D01*
Y42145D01*
X219837D01*
Y42035D01*
Y41925D01*
Y41815D01*
Y41705D01*
Y41595D01*
X219727D01*
Y41705D01*
Y41815D01*
Y41925D01*
Y42035D01*
Y42145D01*
Y42254D01*
Y42364D01*
X219617D01*
Y42474D01*
Y42584D01*
Y42694D01*
Y42804D01*
Y42914D01*
Y43024D01*
Y43134D01*
X218738D01*
Y43244D01*
X218188D01*
Y43354D01*
X218628D01*
Y43463D01*
X219617D01*
Y43573D01*
Y43683D01*
Y43793D01*
Y43903D01*
X219727D01*
Y44013D01*
Y44123D01*
Y44233D01*
Y44343D01*
Y44453D01*
Y44562D01*
Y44672D01*
X219837D01*
Y44782D01*
X219947D01*
Y44672D01*
D02*
G37*
G36*
X115567Y20768D02*
X111630D01*
X113598Y22737D01*
X115567Y20768D01*
D02*
G37*
G36*
X128962Y62222D02*
X129150Y62195D01*
X129339Y62115D01*
X129581Y62034D01*
X129796Y61899D01*
X130011Y61738D01*
X130038Y61711D01*
X130092Y61657D01*
X130146Y61603D01*
X130200Y61523D01*
X130227Y61496D01*
X130254Y61442D01*
X130388Y61280D01*
X138084Y47933D01*
X138111Y47906D01*
X138138Y47825D01*
X138192Y47691D01*
X138246Y47502D01*
X138300Y47314D01*
X138327Y47072D01*
Y46803D01*
X138300Y46507D01*
Y46480D01*
X138273Y46426D01*
X138246Y46345D01*
X138219Y46238D01*
Y46211D01*
X138192Y46157D01*
X138165Y46076D01*
X138111Y45969D01*
X138084D01*
X138058Y45942D01*
X138004Y45861D01*
X137923Y45753D01*
X137815Y45592D01*
X137654Y45457D01*
X137466Y45296D01*
X137250Y45161D01*
X136981Y45054D01*
X136954D01*
X136873Y45027D01*
X136793Y45000D01*
X136631D01*
X136551Y44973D01*
X120862D01*
X120728Y45000D01*
X120539Y45027D01*
X120324Y45081D01*
X120082Y45188D01*
X119866Y45296D01*
X119624Y45484D01*
X119597Y45511D01*
X119570Y45565D01*
X119436Y45700D01*
X119409Y45726D01*
X119382Y45780D01*
X119274Y45942D01*
Y45969D01*
X119247Y45996D01*
X119221Y46076D01*
X119167Y46211D01*
X119113Y46372D01*
X119059Y46587D01*
X119005Y46803D01*
Y47072D01*
X119032Y47341D01*
Y47368D01*
X119059Y47449D01*
X119086Y47556D01*
X119113Y47610D01*
Y47637D01*
X119140Y47691D01*
X119194Y47771D01*
X119247Y47879D01*
Y47906D01*
X119274D01*
X126971Y61253D01*
Y61280D01*
X126998Y61307D01*
X127132Y61469D01*
X127294Y61684D01*
X127536Y61899D01*
X127590Y61926D01*
X127697Y61980D01*
X127724D01*
X127778Y62034D01*
X127859Y62061D01*
X127993Y62115D01*
X128316Y62195D01*
X128693Y62249D01*
X128827D01*
X128962Y62222D01*
D02*
G37*
%LPC*%
G36*
X240499Y59509D02*
X239949D01*
Y59399D01*
Y59290D01*
X239839D01*
Y59180D01*
Y59070D01*
X239729D01*
Y58960D01*
Y58850D01*
Y58740D01*
X239619D01*
Y58630D01*
Y58520D01*
Y58410D01*
X239510D01*
Y58300D01*
Y58191D01*
X239400D01*
Y58081D01*
Y57971D01*
Y57861D01*
X239290D01*
Y57751D01*
X239619D01*
Y57861D01*
X240389D01*
Y57971D01*
X241158D01*
Y58081D01*
X241048D01*
Y58191D01*
Y58300D01*
Y58410D01*
X240938D01*
Y58520D01*
Y58630D01*
Y58740D01*
X240828D01*
Y58850D01*
Y58960D01*
X240719D01*
Y59070D01*
Y59180D01*
Y59290D01*
X240609D01*
Y59399D01*
X240499D01*
Y59509D01*
D02*
G37*
G36*
X232476Y59839D02*
X227200D01*
Y59729D01*
Y59619D01*
Y59509D01*
Y59399D01*
Y59290D01*
Y59180D01*
Y59070D01*
Y58960D01*
Y58850D01*
Y58740D01*
Y58630D01*
Y58520D01*
Y58410D01*
Y58300D01*
Y58191D01*
Y58081D01*
Y57971D01*
Y57861D01*
Y57751D01*
Y57641D01*
Y57531D01*
Y57421D01*
Y57311D01*
Y57201D01*
Y57091D01*
Y56982D01*
Y56872D01*
Y56762D01*
Y56652D01*
Y56542D01*
Y56432D01*
Y56322D01*
Y56212D01*
X230937D01*
Y56322D01*
X231487D01*
Y56432D01*
X231926D01*
Y56542D01*
X232366D01*
Y56652D01*
X232915D01*
Y56762D01*
X233465D01*
Y56872D01*
X233685D01*
Y56982D01*
X233794D01*
Y57091D01*
X233904D01*
Y57201D01*
Y57311D01*
Y57421D01*
X234014D01*
Y57531D01*
Y57641D01*
Y57751D01*
Y57861D01*
Y57971D01*
Y58081D01*
Y58191D01*
Y58300D01*
Y58410D01*
Y58520D01*
Y58630D01*
X233904D01*
Y58740D01*
Y58850D01*
X233794D01*
Y58960D01*
Y59070D01*
X233685D01*
Y59180D01*
X233575D01*
Y59290D01*
X233465D01*
Y59399D01*
X233355D01*
Y59509D01*
X233245D01*
Y59619D01*
X232915D01*
Y59729D01*
X232476D01*
Y59839D01*
D02*
G37*
G36*
X262260Y49068D02*
X258633D01*
Y48959D01*
Y48849D01*
Y48739D01*
Y48629D01*
Y48519D01*
Y48409D01*
Y48299D01*
Y48189D01*
Y48079D01*
Y47969D01*
Y47859D01*
Y47750D01*
Y47640D01*
Y47530D01*
Y47420D01*
X262479D01*
Y47530D01*
X262809D01*
Y47640D01*
X262919D01*
Y47750D01*
X263029D01*
Y47859D01*
Y47969D01*
Y48079D01*
Y48189D01*
Y48299D01*
Y48409D01*
Y48519D01*
Y48629D01*
X262919D01*
Y48739D01*
X262809D01*
Y48849D01*
X262699D01*
Y48959D01*
X262260D01*
Y49068D01*
D02*
G37*
G36*
X262370Y46651D02*
X258633D01*
Y46541D01*
Y46431D01*
Y46321D01*
Y46211D01*
Y46101D01*
Y45991D01*
Y45881D01*
Y45771D01*
Y45662D01*
Y45551D01*
Y45442D01*
Y45332D01*
Y45222D01*
Y45112D01*
Y45002D01*
Y44892D01*
X262479D01*
Y45002D01*
X262809D01*
Y45112D01*
X262919D01*
Y45222D01*
X263029D01*
Y45332D01*
X263139D01*
Y45442D01*
Y45551D01*
Y45662D01*
Y45771D01*
Y45881D01*
Y45991D01*
Y46101D01*
Y46211D01*
X263029D01*
Y46321D01*
X262919D01*
Y46431D01*
X262809D01*
Y46541D01*
X262370D01*
Y46651D01*
D02*
G37*
G36*
X252808Y48629D02*
X252588D01*
Y48519D01*
Y48409D01*
X252478D01*
Y48299D01*
Y48189D01*
X252368D01*
Y48079D01*
X252258D01*
Y47969D01*
Y47859D01*
X252149D01*
Y47750D01*
Y47640D01*
X252039D01*
Y47530D01*
X251929D01*
Y47420D01*
Y47310D01*
X251819D01*
Y47200D01*
Y47090D01*
X251709D01*
Y46980D01*
X251599D01*
Y46870D01*
Y46760D01*
X251489D01*
Y46651D01*
Y46541D01*
X251379D01*
Y46431D01*
Y46321D01*
Y46211D01*
X254127D01*
Y46321D01*
Y46431D01*
X254017D01*
Y46541D01*
Y46651D01*
X253907D01*
Y46760D01*
Y46870D01*
X253797D01*
Y46980D01*
X253687D01*
Y47090D01*
Y47200D01*
X253577D01*
Y47310D01*
Y47420D01*
X253467D01*
Y47530D01*
X253357D01*
Y47640D01*
Y47750D01*
X253247D01*
Y47859D01*
Y47969D01*
X253138D01*
Y48079D01*
X253028D01*
Y48189D01*
Y48299D01*
X252918D01*
Y48409D01*
Y48519D01*
X252808D01*
Y48629D01*
D02*
G37*
G36*
X128693Y60957D02*
X128639D01*
X128505Y60931D01*
X128343Y60904D01*
X128155Y60796D01*
X128128Y60769D01*
X128101D01*
X128074Y60742D01*
X128047Y60715D01*
X127966Y60661D01*
X127859Y60527D01*
X127751Y60392D01*
X124306Y54418D01*
X125437Y53772D01*
X125464Y53799D01*
X125517Y53853D01*
X125625Y53961D01*
X125787Y54095D01*
X125813Y54122D01*
X125894Y54176D01*
X126029Y54284D01*
X126217Y54418D01*
X126244Y54445D01*
X126298Y54472D01*
X126325D01*
X126352Y54499D01*
X126459Y54553D01*
X126513Y54580D01*
X126594Y54634D01*
X126728Y54714D01*
X126809Y54768D01*
X126836Y54795D01*
X126917Y54849D01*
X127051Y54930D01*
X127213Y55037D01*
X127590Y55279D01*
X127805Y55360D01*
X127993Y55441D01*
X128020D01*
X128101Y55468D01*
X128208Y55495D01*
X128370Y55522D01*
X128585Y55575D01*
X128800Y55602D01*
X129931D01*
X130200Y55575D01*
X130630D01*
X130738Y55602D01*
X130980Y55629D01*
X131249Y55710D01*
X132110Y56060D01*
X129608Y60419D01*
X129581D01*
X129554Y60446D01*
X129500Y60554D01*
Y60581D01*
X129473Y60608D01*
X129393Y60661D01*
X129339Y60715D01*
X129204Y60796D01*
X128962Y60877D01*
X128693Y60931D01*
Y60957D01*
D02*
G37*
G36*
X132245Y55818D02*
X131357Y55468D01*
X131330D01*
X131276Y55441D01*
X131195Y55414D01*
X131115Y55387D01*
X130846Y55306D01*
X130523Y55279D01*
X129985D01*
X129662Y55306D01*
X129608D01*
X129473Y55333D01*
X128881D01*
X128505Y55279D01*
X128101Y55172D01*
X128074D01*
X128020Y55145D01*
X127912Y55091D01*
X127778Y55037D01*
X127617Y54957D01*
X127428Y54849D01*
X127213Y54714D01*
X126971Y54553D01*
X126944Y54526D01*
X126890Y54499D01*
X126755Y54418D01*
X126594Y54311D01*
X126540Y54284D01*
X126486Y54257D01*
X126379Y54176D01*
X126352Y54149D01*
X126244Y54095D01*
X126110Y53988D01*
X125948Y53880D01*
X125921Y53853D01*
X125867Y53799D01*
X125679Y53638D01*
X131195Y50436D01*
X131222D01*
X131276Y50463D01*
X131384Y50516D01*
X131545Y50597D01*
X131707Y50705D01*
X131922Y50866D01*
X132164Y51055D01*
X132406Y51297D01*
X132433Y51324D01*
X132460Y51351D01*
X132595Y51485D01*
X132622Y51512D01*
X132649Y51539D01*
X132756Y51674D01*
X132783Y51700D01*
X132810Y51781D01*
X132891Y51916D01*
X132972Y52158D01*
Y52185D01*
X132999Y52212D01*
X133052Y52346D01*
X133106Y52535D01*
X133187Y52696D01*
X133214Y52750D01*
X133294Y52831D01*
X133402Y52992D01*
X133510Y53127D01*
X133537Y53154D01*
X133590Y53180D01*
X133725Y53288D01*
X132245Y55818D01*
D02*
G37*
G36*
X128289Y51135D02*
Y51108D01*
X128262Y51082D01*
Y51001D01*
Y50947D01*
Y50920D01*
Y50866D01*
X128316Y50705D01*
X128343Y50651D01*
X128370Y50624D01*
X128397Y50543D01*
X128451Y50463D01*
X128505Y50382D01*
X128558Y50409D01*
X128666Y50516D01*
X128800Y50624D01*
X128962Y50732D01*
X128289Y51135D01*
D02*
G37*
G36*
X127536Y51566D02*
Y51539D01*
X127482Y51512D01*
X127428Y51351D01*
Y51324D01*
Y51270D01*
X127401Y51082D01*
Y51055D01*
Y51001D01*
Y50866D01*
Y50705D01*
Y50651D01*
Y50624D01*
Y50570D01*
Y50463D01*
Y50328D01*
X127428Y50220D01*
Y50193D01*
X127455Y50113D01*
X127482Y50059D01*
X127509Y50005D01*
X127536Y49978D01*
X127563Y49897D01*
X127617Y49790D01*
X127697Y49628D01*
X127724Y49655D01*
X127751Y49682D01*
X127778Y49709D01*
X127805Y49736D01*
X127832Y49790D01*
X127939Y49897D01*
X128101Y50032D01*
X128262Y50193D01*
Y50220D01*
X128208Y50274D01*
X128155Y50382D01*
X128074Y50543D01*
X128047Y50597D01*
Y50624D01*
X128020Y50705D01*
X127993Y50812D01*
X127966Y50947D01*
Y50974D01*
Y51055D01*
X127993Y51162D01*
X128020Y51297D01*
X127536Y51566D01*
D02*
G37*
G36*
X126863Y51969D02*
Y51943D01*
X126809Y51835D01*
X126728Y51674D01*
X126621Y51458D01*
X126594Y51431D01*
X126540Y51324D01*
X126486Y51216D01*
X126432Y51108D01*
Y51082D01*
Y51001D01*
X126459Y50812D01*
X126486Y50705D01*
X126540Y50543D01*
Y50516D01*
X126567Y50463D01*
X126621Y50301D01*
X126675Y50086D01*
Y49897D01*
Y49844D01*
X126648Y49736D01*
X126621Y49575D01*
Y49386D01*
Y49332D01*
X126648Y49305D01*
Y49279D01*
X126675D01*
X126701Y49252D01*
X126728D01*
Y49225D01*
X126809Y49198D01*
X126836D01*
X126863Y49171D01*
X126890Y49144D01*
Y49117D01*
X126944Y49090D01*
X126998Y49036D01*
X127078Y48983D01*
X127105D01*
X127132Y48956D01*
X127240Y48875D01*
X127267Y48929D01*
X127321Y49036D01*
X127401Y49198D01*
X127536Y49386D01*
X127509Y49440D01*
X127455Y49548D01*
X127347Y49709D01*
X127267Y49897D01*
Y49924D01*
X127240Y49951D01*
X127213Y50005D01*
X127186D01*
Y50032D01*
Y50059D01*
X127159Y50140D01*
Y50166D01*
Y50193D01*
X127132Y50274D01*
X127105Y50409D01*
Y50624D01*
Y50651D01*
Y50705D01*
Y50839D01*
Y50866D01*
Y50920D01*
Y51082D01*
Y51108D01*
Y51189D01*
X127132Y51297D01*
X127159Y51431D01*
Y51458D01*
X127186Y51539D01*
X127240Y51620D01*
X127294Y51727D01*
X126863Y51969D01*
D02*
G37*
G36*
X130038Y49413D02*
X130011D01*
X129985Y49386D01*
X129904Y49332D01*
X129796Y49279D01*
X129716Y49198D01*
X129689Y49171D01*
X129608Y49117D01*
X129527Y48983D01*
X129420Y48821D01*
X129393Y48794D01*
Y48767D01*
X129366Y48740D01*
X129393D01*
X129420Y48713D01*
X129554Y48660D01*
X129608D01*
X129716Y48633D01*
X129877Y48606D01*
X130092Y48579D01*
X130200D01*
X130307Y48606D01*
X130361Y48660D01*
X130388D01*
Y48687D01*
X130415Y48767D01*
X130442Y48848D01*
Y48929D01*
Y48956D01*
Y48983D01*
X130388Y49063D01*
Y49090D01*
X130361D01*
Y49117D01*
Y49144D01*
X130307Y49171D01*
X130227Y49279D01*
X130092Y49359D01*
X130038Y49413D01*
D02*
G37*
G36*
X129231Y50597D02*
X129177Y50570D01*
X129070Y50463D01*
X128881Y50328D01*
X128639Y50140D01*
X128612D01*
X128585Y50086D01*
X128451Y49978D01*
X128235Y49790D01*
X128020Y49548D01*
X127993Y49521D01*
X127912Y49440D01*
X127805Y49305D01*
X127697Y49117D01*
X127590Y48902D01*
X127482Y48687D01*
X127401Y48444D01*
X127378Y48232D01*
X127374Y48229D01*
Y48202D01*
X127378Y48232D01*
X127401Y48256D01*
X127455Y48364D01*
X127482Y48390D01*
X127563Y48444D01*
X127670Y48525D01*
X127832Y48579D01*
X127859D01*
X127886Y48606D01*
X127966D01*
X127993Y48633D01*
X128020D01*
X128074Y48660D01*
X128128D01*
X128289Y48687D01*
X128639D01*
X128666Y48660D01*
X128774Y48633D01*
X128854D01*
X129016Y48579D01*
Y48606D01*
X129043Y48633D01*
Y48687D01*
Y48713D01*
X129070Y48767D01*
X129096Y48848D01*
X129150Y48956D01*
Y48983D01*
X129177Y49009D01*
X129258Y49117D01*
X129393Y49279D01*
X129554Y49440D01*
X129581D01*
X129608Y49494D01*
X129716Y49548D01*
X129877Y49655D01*
X129904D01*
X129931Y49682D01*
X130038Y49763D01*
X130173Y49870D01*
X130307Y49978D01*
X129231Y50597D01*
D02*
G37*
G36*
X129285Y48471D02*
X129258Y48444D01*
X129231Y48364D01*
Y48337D01*
X129204Y48229D01*
X129150Y48068D01*
X129043Y47906D01*
X129070Y47879D01*
X129123Y47852D01*
X129231Y47798D01*
X129366Y47771D01*
X129446D01*
X129527Y47798D01*
X129608Y47852D01*
X129635Y47879D01*
X129662Y47906D01*
Y47933D01*
X129689Y47960D01*
Y48014D01*
Y48041D01*
Y48121D01*
Y48229D01*
X129608Y48364D01*
X129554Y48390D01*
X129446D01*
X129393Y48417D01*
X129339Y48444D01*
X129285Y48471D01*
D02*
G37*
G36*
X125141Y52965D02*
Y52911D01*
X125087Y52750D01*
X125006Y52508D01*
X124845Y52185D01*
Y52158D01*
X124818Y52131D01*
X124764Y51996D01*
X124710Y51835D01*
X124656Y51700D01*
Y51647D01*
Y51593D01*
Y51512D01*
Y51404D01*
X124683Y51243D01*
X124710Y51082D01*
X124764Y50866D01*
Y50839D01*
X124791Y50785D01*
X124818Y50705D01*
X124845Y50624D01*
Y50597D01*
Y50543D01*
X124872Y50409D01*
X124925Y50193D01*
X124952Y49870D01*
Y49844D01*
Y49817D01*
X124979Y49628D01*
X125033Y49440D01*
X125060Y49225D01*
X125087Y49198D01*
X125114Y49090D01*
X125195Y48929D01*
X125275Y48740D01*
X125302Y48713D01*
X125329Y48633D01*
X125356Y48525D01*
X125383Y48417D01*
X125410D01*
X125437Y48444D01*
X125464D01*
X125491Y48471D01*
X125625D01*
X125787Y48417D01*
X125894Y48364D01*
X125975Y48310D01*
X126083Y48202D01*
X126163Y48068D01*
X126190Y48041D01*
X126244Y47960D01*
X126271Y47933D01*
X126298Y47879D01*
X126379Y47718D01*
Y47664D01*
Y47556D01*
Y47502D01*
Y47422D01*
X126406Y47449D01*
X126432Y47475D01*
X126459Y47502D01*
X126540Y47610D01*
X126621Y47745D01*
X126675Y47906D01*
Y47960D01*
Y48014D01*
X126648Y48094D01*
Y48229D01*
X126594Y48390D01*
X126540Y48579D01*
X126459Y48848D01*
Y48875D01*
X126432Y48929D01*
X126406Y49036D01*
Y49090D01*
X126379Y49198D01*
Y49225D01*
X126352Y49279D01*
Y49305D01*
Y49359D01*
Y49386D01*
Y49413D01*
Y49548D01*
Y49763D01*
X126379Y49978D01*
Y50005D01*
Y50059D01*
X126352Y50193D01*
X126325Y50301D01*
X126271Y50436D01*
Y50463D01*
X126244Y50516D01*
X126217Y50597D01*
X126190Y50732D01*
X126163Y50947D01*
Y51082D01*
Y51162D01*
Y51189D01*
X126190Y51297D01*
X126271Y51431D01*
X126379Y51620D01*
Y51647D01*
X126406Y51674D01*
X126486Y51808D01*
X126567Y51969D01*
X126594Y52131D01*
X125141Y52965D01*
D02*
G37*
G36*
X128612Y48552D02*
X128397D01*
X128289Y48525D01*
X128155D01*
X128047Y48498D01*
X128020Y48471D01*
X127939D01*
X127912Y48444D01*
X127859D01*
X127778Y48390D01*
X127670Y48337D01*
X127563Y48256D01*
X127536Y48202D01*
X127509Y48121D01*
X127428Y47987D01*
Y47960D01*
X127401Y47852D01*
Y47798D01*
X127428Y47718D01*
X127482Y47583D01*
X127590Y47475D01*
X127617Y47422D01*
X127670Y47395D01*
X127778Y47368D01*
X127912D01*
X128020Y47395D01*
X128074D01*
X128182Y47422D01*
X128235Y47449D01*
X128289Y47475D01*
X128370Y47529D01*
X128397Y47556D01*
X128478Y47610D01*
X128585Y47745D01*
X128720Y47933D01*
Y47960D01*
X128747Y47987D01*
X128854Y48121D01*
X128935Y48283D01*
X128962Y48417D01*
X128935Y48444D01*
X128881Y48471D01*
X128774Y48498D01*
X128612Y48552D01*
D02*
G37*
G36*
X125679Y48310D02*
X125464D01*
X125437Y48283D01*
X125464Y48202D01*
Y48175D01*
X125491Y48121D01*
X125544Y48014D01*
X125571Y47906D01*
X125679Y47691D01*
X125733Y47583D01*
X125787Y47502D01*
X125813Y47475D01*
X125867Y47422D01*
X125975Y47368D01*
X126083Y47341D01*
X126190D01*
X126217Y47368D01*
Y47422D01*
Y47449D01*
X126244Y47475D01*
Y47556D01*
Y47583D01*
Y47610D01*
Y47637D01*
X126217Y47664D01*
Y47691D01*
X126190Y47745D01*
X126110Y47879D01*
Y47906D01*
X126083Y47933D01*
Y47960D01*
X126056Y48014D01*
Y48041D01*
X126029Y48068D01*
X125921Y48175D01*
X125760Y48256D01*
X125679Y48310D01*
D02*
G37*
G36*
X133860Y53046D02*
X133806Y53019D01*
X133725Y52911D01*
X133698Y52884D01*
X133644Y52831D01*
X133537Y52696D01*
X133429Y52535D01*
Y52508D01*
X133375Y52427D01*
X133321Y52266D01*
X133241Y52050D01*
Y52023D01*
X133214Y51996D01*
X133160Y51835D01*
X133079Y51674D01*
X132972Y51512D01*
Y51485D01*
X132918Y51458D01*
X132837Y51324D01*
X132810Y51297D01*
X132756Y51243D01*
X132703Y51162D01*
X132622Y51082D01*
X132595Y51055D01*
X132514Y50974D01*
X132406Y50893D01*
X132272Y50759D01*
X131895Y50489D01*
X131707Y50355D01*
X131518Y50247D01*
X137062Y47045D01*
Y47099D01*
Y47206D01*
Y47233D01*
Y47287D01*
Y47314D01*
Y47341D01*
X137035Y47449D01*
X137008Y47583D01*
X136927Y47745D01*
X133860Y53046D01*
D02*
G37*
G36*
X123876Y53692D02*
X120431Y47718D01*
Y47691D01*
X120405Y47664D01*
X120351Y47556D01*
Y47529D01*
X120324Y47422D01*
Y47395D01*
Y47341D01*
X120297Y47287D01*
Y47179D01*
X120324Y46937D01*
X120431Y46668D01*
X120458Y46641D01*
X120539Y46534D01*
X120566Y46507D01*
X120647Y46426D01*
X120674D01*
X120701Y46372D01*
X120862Y46292D01*
X121077Y46184D01*
X121212Y46157D01*
X121373Y46130D01*
X136012D01*
Y46157D01*
X136201D01*
X136255Y46184D01*
X136335D01*
X136416Y46211D01*
X136524Y46265D01*
X136604Y46318D01*
X130550Y49817D01*
X130523Y49790D01*
X130469Y49736D01*
X130281Y49575D01*
X130307Y49548D01*
X130361Y49521D01*
X130442Y49440D01*
X130577Y49305D01*
Y49279D01*
X130604Y49252D01*
X130630Y49225D01*
X130684Y49144D01*
X130711Y49036D01*
X130738Y48902D01*
Y48875D01*
X130711Y48821D01*
X130684Y48713D01*
X130657Y48579D01*
X130630Y48552D01*
X130604Y48471D01*
X130577Y48444D01*
X130496Y48390D01*
X130334Y48337D01*
X130092Y48310D01*
X129958D01*
Y48283D01*
X129985Y48202D01*
Y48094D01*
Y47960D01*
X129958Y47933D01*
X129931Y47825D01*
X129904Y47771D01*
X129850Y47691D01*
X129823Y47664D01*
X129796Y47637D01*
X129689Y47583D01*
X129527Y47529D01*
X129339Y47502D01*
X129312D01*
X129204Y47529D01*
X129043Y47583D01*
X128881Y47664D01*
X128854Y47637D01*
X128774Y47529D01*
X128666Y47422D01*
X128531Y47314D01*
X128505D01*
X128478Y47260D01*
X128316Y47179D01*
X128289D01*
X128235Y47153D01*
X128047Y47099D01*
X127724D01*
X127617Y47126D01*
X127482Y47179D01*
X127374Y47260D01*
X127321Y47314D01*
X127240Y47475D01*
X127186Y47583D01*
X127159Y47718D01*
X127105Y47906D01*
Y48094D01*
Y48121D01*
Y48148D01*
Y48175D01*
Y48202D01*
Y48310D01*
Y48444D01*
X127132Y48579D01*
X127105Y48606D01*
X127051Y48660D01*
X126944Y48740D01*
X126917D01*
X126863Y48767D01*
X126809Y48821D01*
X126755Y48848D01*
Y48821D01*
X126782Y48740D01*
X126836Y48606D01*
X126863Y48471D01*
X126944Y48148D01*
X126971Y48014D01*
Y47906D01*
Y47879D01*
Y47852D01*
X126917Y47691D01*
X126809Y47475D01*
X126728Y47368D01*
X126621Y47260D01*
X126594Y47233D01*
X126540Y47206D01*
X126379Y47099D01*
X126352D01*
X126271Y47072D01*
X126083Y47045D01*
X126029D01*
X125921Y47099D01*
X125733Y47179D01*
X125571Y47341D01*
X125544Y47368D01*
X125491Y47422D01*
X125464Y47502D01*
X125410Y47610D01*
X125329Y47745D01*
X125275Y47906D01*
X125195Y48121D01*
Y48148D01*
Y48175D01*
X125168Y48202D01*
Y48229D01*
Y48256D01*
X125141Y48310D01*
X125087Y48417D01*
X125060Y48525D01*
X125006Y48633D01*
Y48660D01*
X124979Y48687D01*
X124925Y48821D01*
X124845Y49009D01*
X124791Y49144D01*
Y49171D01*
X124764Y49305D01*
X124737Y49521D01*
X124710Y49655D01*
X124683Y49817D01*
Y49844D01*
Y49897D01*
X124656Y49978D01*
X124629Y50086D01*
X124603Y50328D01*
X124576Y50516D01*
X124549Y50543D01*
Y50570D01*
Y50597D01*
X124522Y50705D01*
X124495Y50812D01*
Y50839D01*
X124468Y50920D01*
X124441Y51055D01*
X124414Y51189D01*
X124360Y51512D01*
Y51647D01*
X124387Y51781D01*
Y51808D01*
X124441Y51916D01*
X124495Y52077D01*
X124603Y52319D01*
Y52346D01*
X124629Y52400D01*
X124683Y52481D01*
X124737Y52588D01*
X124818Y52858D01*
X124872Y53100D01*
X123876Y53692D01*
D02*
G37*
%LPD*%
D10*
X194783Y57776D02*
G03*
X194783Y57776I-4331J0D01*
G01*
X28937Y76279D02*
G03*
X28937Y76279I-4331J0D01*
G01*
X164272Y68996D02*
G03*
X164272Y68996I-4331J0D01*
G01*
X60433Y75985D02*
G03*
X60433Y75985I-4331J0D01*
G01*
X164272Y79528D02*
G03*
X164272Y79528I-4331J0D01*
G01*
X197539Y79921D02*
G03*
X197539Y79921I-4331J0D01*
G01*
X28992Y34055D02*
G03*
X28992Y34055I-4331J0D01*
G01*
X143405Y17028D02*
G03*
X143405Y17028I-4331J0D01*
G01*
X28992Y55167D02*
G03*
X28992Y55167I-4331J0D01*
G01*
X28937Y65723D02*
G03*
X28937Y65723I-4331J0D01*
G01*
X138287Y91142D02*
G03*
X138287Y91142I-4331J0D01*
G01*
X28937Y44611D02*
G03*
X28937Y44611I-4331J0D01*
G01*
X201973Y98506D02*
X202198Y99181D01*
Y97831D01*
X201973Y98506D01*
X201523Y98956D01*
X200848Y99181D01*
X200173D01*
X199499Y98956D01*
X199049Y98506D01*
Y98056D01*
X199274Y97606D01*
X199499Y97382D01*
X199949Y97157D01*
X201298Y96707D01*
X201748Y96482D01*
X202198Y96032D01*
X199049Y98056D02*
X199499Y97606D01*
X199949Y97382D01*
X201298Y96932D01*
X201748Y96707D01*
X201973Y96482D01*
X202198Y96032D01*
Y95132D01*
X201748Y94682D01*
X201073Y94458D01*
X200398D01*
X199724Y94682D01*
X199274Y95132D01*
X199049Y95807D01*
Y94458D01*
X199274Y95132D01*
X203570Y97606D02*
Y92883D01*
X203795Y97606D02*
Y92883D01*
Y96932D02*
X204244Y97382D01*
X204694Y97606D01*
X205144D01*
X205819Y97382D01*
X206269Y96932D01*
X206494Y96257D01*
Y95807D01*
X206269Y95132D01*
X205819Y94682D01*
X205144Y94458D01*
X204694D01*
X204244Y94682D01*
X203795Y95132D01*
X205144Y97606D02*
X205594Y97382D01*
X206044Y96932D01*
X206269Y96257D01*
Y95807D01*
X206044Y95132D01*
X205594Y94682D01*
X205144Y94458D01*
X202895Y97606D02*
X203795D01*
X202895Y92883D02*
X204469D01*
X207596Y97157D02*
Y96932D01*
X207371D01*
Y97157D01*
X207596Y97382D01*
X208046Y97606D01*
X208945D01*
X209395Y97382D01*
X209620Y97157D01*
X209845Y96707D01*
Y95132D01*
X210070Y94682D01*
X210295Y94458D01*
X209620Y97157D02*
Y95132D01*
X209845Y94682D01*
X210295Y94458D01*
X210520D01*
X209620Y96707D02*
X209395Y96482D01*
X208046Y96257D01*
X207371Y96032D01*
X207146Y95582D01*
Y95132D01*
X207371Y94682D01*
X208046Y94458D01*
X208720D01*
X209170Y94682D01*
X209620Y95132D01*
X208046Y96257D02*
X207596Y96032D01*
X207371Y95582D01*
Y95132D01*
X207596Y94682D01*
X208046Y94458D01*
X213894Y96932D02*
X213669Y96707D01*
X213894Y96482D01*
X214119Y96707D01*
Y96932D01*
X213669Y97382D01*
X213219Y97606D01*
X212544D01*
X211869Y97382D01*
X211420Y96932D01*
X211195Y96257D01*
Y95807D01*
X211420Y95132D01*
X211869Y94682D01*
X212544Y94458D01*
X212994D01*
X213669Y94682D01*
X214119Y95132D01*
X212544Y97606D02*
X212094Y97382D01*
X211645Y96932D01*
X211420Y96257D01*
Y95807D01*
X211645Y95132D01*
X212094Y94682D01*
X212544Y94458D01*
X215063Y96257D02*
X217762D01*
Y96707D01*
X217537Y97157D01*
X217313Y97382D01*
X216863Y97606D01*
X216188D01*
X215513Y97382D01*
X215063Y96932D01*
X214838Y96257D01*
Y95807D01*
X215063Y95132D01*
X215513Y94682D01*
X216188Y94458D01*
X216638D01*
X217313Y94682D01*
X217762Y95132D01*
X217537Y96257D02*
Y96932D01*
X217313Y97382D01*
X216188Y97606D02*
X215738Y97382D01*
X215288Y96932D01*
X215063Y96257D01*
Y95807D01*
X215288Y95132D01*
X215738Y94682D01*
X216188Y94458D01*
X219157Y99181D02*
Y94458D01*
X219382Y99181D02*
Y94458D01*
X218482Y99181D02*
X220057D01*
X218482Y94458D02*
X221856D01*
Y95807D01*
X221631Y94458D01*
X222981Y97157D02*
Y96932D01*
X222756D01*
Y97157D01*
X222981Y97382D01*
X223430Y97606D01*
X224330D01*
X224780Y97382D01*
X225005Y97157D01*
X225230Y96707D01*
Y95132D01*
X225455Y94682D01*
X225680Y94458D01*
X225005Y97157D02*
Y95132D01*
X225230Y94682D01*
X225680Y94458D01*
X225905D01*
X225005Y96707D02*
X224780Y96482D01*
X223430Y96257D01*
X222756Y96032D01*
X222531Y95582D01*
Y95132D01*
X222756Y94682D01*
X223430Y94458D01*
X224105D01*
X224555Y94682D01*
X225005Y95132D01*
X223430Y96257D02*
X222981Y96032D01*
X222756Y95582D01*
Y95132D01*
X222981Y94682D01*
X223430Y94458D01*
X227254Y99181D02*
Y94458D01*
X227479Y99181D02*
Y94458D01*
Y96932D02*
X227929Y97382D01*
X228379Y97606D01*
X228829D01*
X229503Y97382D01*
X229953Y96932D01*
X230178Y96257D01*
Y95807D01*
X229953Y95132D01*
X229503Y94682D01*
X228829Y94458D01*
X228379D01*
X227929Y94682D01*
X227479Y95132D01*
X228829Y97606D02*
X229278Y97382D01*
X229728Y96932D01*
X229953Y96257D01*
Y95807D01*
X229728Y95132D01*
X229278Y94682D01*
X228829Y94458D01*
X226579Y99181D02*
X227479D01*
X235756D02*
Y95807D01*
X235981Y95132D01*
X236431Y94682D01*
X237106Y94458D01*
X237556D01*
X238230Y94682D01*
X238680Y95132D01*
X238905Y95807D01*
Y99181D01*
X235981D02*
Y95807D01*
X236206Y95132D01*
X236656Y94682D01*
X237106Y94458D01*
X235082Y99181D02*
X236656D01*
X238230D02*
X239580D01*
X240817D02*
Y94458D01*
X241042Y99181D02*
Y94458D01*
X242392Y97831D02*
Y96032D01*
X240142Y99181D02*
X243741D01*
Y97831D01*
X243516Y99181D01*
X241042Y96932D02*
X242392D01*
X240142Y94458D02*
X241717D01*
X247317Y98506D02*
X247542Y99181D01*
Y97831D01*
X247317Y98506D01*
X246868Y98956D01*
X246193Y99181D01*
X245518D01*
X244843Y98956D01*
X244393Y98506D01*
Y98056D01*
X244618Y97606D01*
X244843Y97382D01*
X245293Y97157D01*
X246643Y96707D01*
X247093Y96482D01*
X247542Y96032D01*
X244393Y98056D02*
X244843Y97606D01*
X245293Y97382D01*
X246643Y96932D01*
X247093Y96707D01*
X247317Y96482D01*
X247542Y96032D01*
Y95132D01*
X247093Y94682D01*
X246418Y94458D01*
X245743D01*
X245068Y94682D01*
X244618Y95132D01*
X244393Y95807D01*
Y94458D01*
X244618Y95132D01*
X251389Y98506D02*
X251613Y97831D01*
Y99181D01*
X251389Y98506D01*
X250939Y98956D01*
X250264Y99181D01*
X249814D01*
X249139Y98956D01*
X248690Y98506D01*
X248464Y98056D01*
X248240Y97382D01*
Y96257D01*
X248464Y95582D01*
X248690Y95132D01*
X249139Y94682D01*
X249814Y94458D01*
X250264D01*
X250939Y94682D01*
X251389Y95132D01*
X251613Y95582D01*
X249814Y99181D02*
X249364Y98956D01*
X248914Y98506D01*
X248690Y98056D01*
X248464Y97382D01*
Y96257D01*
X248690Y95582D01*
X248914Y95132D01*
X249364Y94682D01*
X249814Y94458D01*
X256764Y98281D02*
X256989Y98056D01*
X256764Y97831D01*
X256539Y98056D01*
Y98281D01*
X256764Y98731D01*
X256989Y98956D01*
X257664Y99181D01*
X258564D01*
X259238Y98956D01*
X259463Y98731D01*
X259688Y98281D01*
Y97831D01*
X259463Y97382D01*
X258788Y96932D01*
X257664Y96482D01*
X257214Y96257D01*
X256764Y95807D01*
X256539Y95132D01*
Y94458D01*
X258564Y99181D02*
X259014Y98956D01*
X259238Y98731D01*
X259463Y98281D01*
Y97831D01*
X259238Y97382D01*
X258564Y96932D01*
X257664Y96482D01*
X256539Y94907D02*
X256764Y95132D01*
X257214D01*
X258339Y94682D01*
X259014D01*
X259463Y94907D01*
X259688Y95132D01*
Y95582D01*
X257214Y95132D02*
X258339Y94458D01*
X259238D01*
X259463Y94682D01*
X259688Y95132D01*
X261735Y99181D02*
X261060Y98956D01*
X260610Y98281D01*
X260385Y97157D01*
Y96482D01*
X260610Y95357D01*
X261060Y94682D01*
X261735Y94458D01*
X262185D01*
X262860Y94682D01*
X263310Y95357D01*
X263534Y96482D01*
Y97157D01*
X263310Y98281D01*
X262860Y98956D01*
X262185Y99181D01*
X261735D01*
X261285Y98956D01*
X261060Y98731D01*
X260835Y98281D01*
X260610Y97157D01*
Y96482D01*
X260835Y95357D01*
X261060Y94907D01*
X261285Y94682D01*
X261735Y94458D01*
X262185D02*
X262635Y94682D01*
X262860Y94907D01*
X263085Y95357D01*
X263310Y96482D01*
Y97157D01*
X263085Y98281D01*
X262860Y98731D01*
X262635Y98956D01*
X262185Y99181D01*
X264457Y98281D02*
X264682Y98056D01*
X264457Y97831D01*
X264232Y98056D01*
Y98281D01*
X264457Y98731D01*
X264682Y98956D01*
X265356Y99181D01*
X266256D01*
X266931Y98956D01*
X267156Y98731D01*
X267381Y98281D01*
Y97831D01*
X267156Y97382D01*
X266481Y96932D01*
X265356Y96482D01*
X264907Y96257D01*
X264457Y95807D01*
X264232Y95132D01*
Y94458D01*
X266256Y99181D02*
X266706Y98956D01*
X266931Y98731D01*
X267156Y98281D01*
Y97831D01*
X266931Y97382D01*
X266256Y96932D01*
X265356Y96482D01*
X264232Y94907D02*
X264457Y95132D01*
X264907D01*
X266031Y94682D01*
X266706D01*
X267156Y94907D01*
X267381Y95132D01*
Y95582D01*
X264907Y95132D02*
X266031Y94458D01*
X266931D01*
X267156Y94682D01*
X267381Y95132D01*
X269427Y99181D02*
X268753Y98956D01*
X268303Y98281D01*
X268078Y97157D01*
Y96482D01*
X268303Y95357D01*
X268753Y94682D01*
X269427Y94458D01*
X269877D01*
X270552Y94682D01*
X271002Y95357D01*
X271227Y96482D01*
Y97157D01*
X271002Y98281D01*
X270552Y98956D01*
X269877Y99181D01*
X269427D01*
X268978Y98956D01*
X268753Y98731D01*
X268528Y98281D01*
X268303Y97157D01*
Y96482D01*
X268528Y95357D01*
X268753Y94907D01*
X268978Y94682D01*
X269427Y94458D01*
X269877D02*
X270327Y94682D01*
X270552Y94907D01*
X270777Y95357D01*
X271002Y96482D01*
Y97157D01*
X270777Y98281D01*
X270552Y98731D01*
X270327Y98956D01*
X269877Y99181D01*
X63097Y14545D02*
X64671D01*
X63884D01*
Y19268D01*
X63097D01*
X67033Y14545D02*
X68607D01*
X67820D01*
Y17694D01*
X67033D01*
X70969Y14545D02*
Y17694D01*
X73330D01*
X74117Y16907D01*
Y14545D01*
X78053D02*
X76478D01*
X75691Y15333D01*
Y16907D01*
X76478Y17694D01*
X78053D01*
X78840Y16907D01*
Y16120D01*
X75691D01*
X85137Y14545D02*
X86712D01*
X85924D01*
Y19268D01*
X85137D01*
X89073Y14545D02*
X90647D01*
X89860D01*
Y17694D01*
X89073D01*
X93009Y14545D02*
Y17694D01*
X93796D01*
X94583Y16907D01*
Y14545D01*
Y16907D01*
X95370Y17694D01*
X96157Y16907D01*
Y14545D01*
X97732D02*
X99306D01*
X98519D01*
Y17694D01*
X97732D01*
X102454Y18481D02*
Y17694D01*
X101667D01*
X103242D01*
X102454D01*
Y15333D01*
X103242Y14545D01*
X42631Y6988D02*
X41057D01*
X40270Y7775D01*
Y9350D01*
X41057Y10137D01*
X42631D01*
X43418Y9350D01*
Y8563D01*
X40270D01*
X44993Y10137D02*
X48141Y6988D01*
X46567Y8563D01*
X48141Y10137D01*
X44993Y6988D01*
X50503Y10924D02*
Y10137D01*
X49716D01*
X51290D01*
X50503D01*
Y7775D01*
X51290Y6988D01*
X56013D02*
X54438D01*
X53651Y7775D01*
Y9350D01*
X54438Y10137D01*
X56013D01*
X56800Y9350D01*
Y8563D01*
X53651D01*
X58374Y10137D02*
Y6988D01*
Y8563D01*
X59161Y9350D01*
X59948Y10137D01*
X60736D01*
X63097Y6988D02*
Y10137D01*
X65459D01*
X66246Y9350D01*
Y6988D01*
X68607Y10137D02*
X70181D01*
X70969Y9350D01*
Y6988D01*
X68607D01*
X67820Y7775D01*
X68607Y8563D01*
X70969D01*
X72543Y6988D02*
X74117D01*
X73330D01*
Y11711D01*
X72543D01*
X84350Y10137D02*
X81989D01*
X81201Y9350D01*
Y7775D01*
X81989Y6988D01*
X84350D01*
X86712D02*
X88286D01*
X89073Y7775D01*
Y9350D01*
X88286Y10137D01*
X86712D01*
X85924Y9350D01*
Y7775D01*
X86712Y6988D01*
X90647D02*
Y10137D01*
X93009D01*
X93796Y9350D01*
Y6988D01*
X95370D02*
Y10137D01*
X97732D01*
X98519Y9350D01*
Y6988D01*
X102454D02*
X100880D01*
X100093Y7775D01*
Y9350D01*
X100880Y10137D01*
X102454D01*
X103242Y9350D01*
Y8563D01*
X100093D01*
X107964Y10137D02*
X105603D01*
X104816Y9350D01*
Y7775D01*
X105603Y6988D01*
X107964D01*
X110326Y10924D02*
Y10137D01*
X109539D01*
X111113D01*
X110326D01*
Y7775D01*
X111113Y6988D01*
X114262D02*
X115836D01*
X116623Y7775D01*
Y9350D01*
X115836Y10137D01*
X114262D01*
X113475Y9350D01*
Y7775D01*
X114262Y6988D01*
X118197Y10137D02*
Y6988D01*
Y8563D01*
X118984Y9350D01*
X119772Y10137D01*
X120559D01*
X122920Y6988D02*
X125282D01*
X126069Y7775D01*
X125282Y8563D01*
X123707D01*
X122920Y9350D01*
X123707Y10137D01*
X126069D01*
X181323Y11513D02*
X183684D01*
X184471Y12300D01*
X183684Y13087D01*
X182110D01*
X181323Y13874D01*
X182110Y14661D01*
X184471D01*
X186833Y15449D02*
Y14661D01*
X186046D01*
X187620D01*
X186833D01*
Y12300D01*
X187620Y11513D01*
X189981Y14661D02*
Y11513D01*
Y13087D01*
X190769Y13874D01*
X191556Y14661D01*
X192343D01*
X194704D02*
Y12300D01*
X195492Y11513D01*
X197853D01*
Y14661D01*
X202576D02*
X200215D01*
X199427Y13874D01*
Y12300D01*
X200215Y11513D01*
X202576D01*
X204937Y15449D02*
Y14661D01*
X204150D01*
X205725D01*
X204937D01*
Y12300D01*
X205725Y11513D01*
X208086Y14661D02*
Y12300D01*
X208873Y11513D01*
X211234D01*
Y14661D01*
X212809D02*
Y11513D01*
Y13087D01*
X213596Y13874D01*
X214383Y14661D01*
X215170D01*
X219893Y11513D02*
X218319D01*
X217532Y12300D01*
Y13874D01*
X218319Y14661D01*
X219893D01*
X220680Y13874D01*
Y13087D01*
X217532D01*
X230126Y14661D02*
X227765D01*
X226977Y13874D01*
Y12300D01*
X227765Y11513D01*
X230126D01*
X232488D02*
X234062D01*
X234849Y12300D01*
Y13874D01*
X234062Y14661D01*
X232488D01*
X231700Y13874D01*
Y12300D01*
X232488Y11513D01*
X236423D02*
Y14661D01*
X238785D01*
X239572Y13874D01*
Y11513D01*
X241933Y15449D02*
Y14661D01*
X241146D01*
X242720D01*
X241933D01*
Y12300D01*
X242720Y11513D01*
X245869Y14661D02*
X247443D01*
X248230Y13874D01*
Y11513D01*
X245869D01*
X245082Y12300D01*
X245869Y13087D01*
X248230D01*
X252953Y14661D02*
X250592D01*
X249805Y13874D01*
Y12300D01*
X250592Y11513D01*
X252953D01*
X255315Y15449D02*
Y14661D01*
X254528D01*
X256102D01*
X255315D01*
Y12300D01*
X256102Y11513D01*
X263973Y14661D02*
X265548D01*
X266335Y13874D01*
Y11513D01*
X263973D01*
X263186Y12300D01*
X263973Y13087D01*
X266335D01*
X267909Y14661D02*
Y11513D01*
Y13087D01*
X268696Y13874D01*
X269483Y14661D01*
X270270D01*
X274993Y11513D02*
X273419D01*
X272632Y12300D01*
Y13874D01*
X273419Y14661D01*
X274993D01*
X275781Y13874D01*
Y13087D01*
X272632D01*
X278142Y14661D02*
X279716D01*
X280503Y13874D01*
Y11513D01*
X278142D01*
X277355Y12300D01*
X278142Y13087D01*
X280503D01*
X44843Y102930D02*
Y98207D01*
X45068Y102930D02*
Y98207D01*
X44168Y102930D02*
X45743D01*
X44168Y98207D02*
X45743D01*
X47272Y101356D02*
Y98207D01*
X47497Y101356D02*
Y98207D01*
Y100681D02*
X47947Y101131D01*
X48622Y101356D01*
X49072D01*
X49747Y101131D01*
X49972Y100681D01*
Y98207D01*
X49072Y101356D02*
X49522Y101131D01*
X49747Y100681D01*
Y98207D01*
X46598Y101356D02*
X47497D01*
X46598Y98207D02*
X48172D01*
X49072D02*
X50646D01*
X52603D02*
X52378Y98432D01*
X52153Y99107D01*
Y102930D01*
X51928D01*
Y99107D01*
X52153Y98432D01*
X52603Y98207D01*
X53053D01*
X53503Y98432D01*
X53728Y98882D01*
X51254Y101356D02*
X53053D01*
X54717Y100006D02*
X57416D01*
Y100456D01*
X57192Y100906D01*
X56967Y101131D01*
X56517Y101356D01*
X55842D01*
X55167Y101131D01*
X54717Y100681D01*
X54492Y100006D01*
Y99557D01*
X54717Y98882D01*
X55167Y98432D01*
X55842Y98207D01*
X56292D01*
X56967Y98432D01*
X57416Y98882D01*
X57192Y100006D02*
Y100681D01*
X56967Y101131D01*
X55842Y101356D02*
X55392Y101131D01*
X54942Y100681D01*
X54717Y100006D01*
Y99557D01*
X54942Y98882D01*
X55392Y98432D01*
X55842Y98207D01*
X58811Y101356D02*
Y98207D01*
X59036Y101356D02*
Y98207D01*
Y100006D02*
X59261Y100681D01*
X59711Y101131D01*
X60161Y101356D01*
X60835D01*
X61060Y101131D01*
Y100906D01*
X60835Y100681D01*
X60610Y100906D01*
X60835Y101131D01*
X58136Y101356D02*
X59036D01*
X58136Y98207D02*
X59711D01*
X64029Y100906D02*
X64254Y101356D01*
Y100456D01*
X64029Y100906D01*
X63804Y101131D01*
X63354Y101356D01*
X62455D01*
X62005Y101131D01*
X61780Y100906D01*
Y100456D01*
X62005Y100231D01*
X62455Y100006D01*
X63579Y99557D01*
X64029Y99332D01*
X64254Y99107D01*
X61780Y100681D02*
X62005Y100456D01*
X62455Y100231D01*
X63579Y99782D01*
X64029Y99557D01*
X64254Y99332D01*
Y98657D01*
X64029Y98432D01*
X63579Y98207D01*
X62680D01*
X62230Y98432D01*
X62005Y98657D01*
X61780Y99107D01*
Y98207D01*
X62005Y98657D01*
X66369Y98207D02*
X66144Y98432D01*
X65919Y99107D01*
Y102930D01*
X65694D01*
Y99107D01*
X65919Y98432D01*
X66369Y98207D01*
X66818D01*
X67268Y98432D01*
X67493Y98882D01*
X65019Y101356D02*
X66818D01*
X68708Y100906D02*
Y100681D01*
X68483D01*
Y100906D01*
X68708Y101131D01*
X69157Y101356D01*
X70057D01*
X70507Y101131D01*
X70732Y100906D01*
X70957Y100456D01*
Y98882D01*
X71182Y98432D01*
X71407Y98207D01*
X70732Y100906D02*
Y98882D01*
X70957Y98432D01*
X71407Y98207D01*
X71632D01*
X70732Y100456D02*
X70507Y100231D01*
X69157Y100006D01*
X68483Y99782D01*
X68258Y99332D01*
Y98882D01*
X68483Y98432D01*
X69157Y98207D01*
X69832D01*
X70282Y98432D01*
X70732Y98882D01*
X69157Y100006D02*
X68708Y99782D01*
X68483Y99332D01*
Y98882D01*
X68708Y98432D01*
X69157Y98207D01*
X73656Y101356D02*
X73206Y101131D01*
X72981Y100906D01*
X72756Y100456D01*
Y100006D01*
X72981Y99557D01*
X73206Y99332D01*
X73656Y99107D01*
X74106D01*
X74556Y99332D01*
X74781Y99557D01*
X75006Y100006D01*
Y100456D01*
X74781Y100906D01*
X74556Y101131D01*
X74106Y101356D01*
X73656D01*
X73206Y101131D02*
X72981Y100681D01*
Y99782D01*
X73206Y99332D01*
X74556D02*
X74781Y99782D01*
Y100681D01*
X74556Y101131D01*
X74781Y100906D02*
X75006Y101131D01*
X75455Y101356D01*
Y101131D01*
X75006D01*
X72981Y99557D02*
X72756Y99332D01*
X72531Y98882D01*
Y98657D01*
X72756Y98207D01*
X73431Y97982D01*
X74556D01*
X75230Y97757D01*
X75455Y97532D01*
X72531Y98657D02*
X72756Y98432D01*
X73431Y98207D01*
X74556D01*
X75230Y97982D01*
X75455Y97532D01*
Y97307D01*
X75230Y96858D01*
X74556Y96633D01*
X73206D01*
X72531Y96858D01*
X72306Y97307D01*
Y97532D01*
X72531Y97982D01*
X73206Y98207D01*
X76378Y100006D02*
X79077D01*
Y100456D01*
X78852Y100906D01*
X78627Y101131D01*
X78177Y101356D01*
X77502D01*
X76827Y101131D01*
X76378Y100681D01*
X76153Y100006D01*
Y99557D01*
X76378Y98882D01*
X76827Y98432D01*
X77502Y98207D01*
X77952D01*
X78627Y98432D01*
X79077Y98882D01*
X78852Y100006D02*
Y100681D01*
X78627Y101131D01*
X77502Y101356D02*
X77052Y101131D01*
X76603Y100681D01*
X76378Y100006D01*
Y99557D01*
X76603Y98882D01*
X77052Y98432D01*
X77502Y98207D01*
X84722Y102930D02*
Y98207D01*
X84947Y102930D02*
Y98207D01*
X84048Y102930D02*
X85622D01*
X84048Y98207D02*
X85622D01*
X87151Y101356D02*
Y98207D01*
X87376Y101356D02*
Y98207D01*
Y100681D02*
X87826Y101131D01*
X88501Y101356D01*
X88951D01*
X89626Y101131D01*
X89850Y100681D01*
Y98207D01*
X88951Y101356D02*
X89401Y101131D01*
X89626Y100681D01*
Y98207D01*
X86477Y101356D02*
X87376D01*
X86477Y98207D02*
X88051D01*
X88951D02*
X90525D01*
X92482D02*
X92257Y98432D01*
X92032Y99107D01*
Y102930D01*
X91807D01*
Y99107D01*
X92032Y98432D01*
X92482Y98207D01*
X92932D01*
X93382Y98432D01*
X93607Y98882D01*
X91133Y101356D02*
X92932D01*
X94596Y100006D02*
X97295D01*
Y100456D01*
X97071Y100906D01*
X96846Y101131D01*
X96396Y101356D01*
X95721D01*
X95046Y101131D01*
X94596Y100681D01*
X94371Y100006D01*
Y99557D01*
X94596Y98882D01*
X95046Y98432D01*
X95721Y98207D01*
X96171D01*
X96846Y98432D01*
X97295Y98882D01*
X97071Y100006D02*
Y100681D01*
X96846Y101131D01*
X95721Y101356D02*
X95271Y101131D01*
X94821Y100681D01*
X94596Y100006D01*
Y99557D01*
X94821Y98882D01*
X95271Y98432D01*
X95721Y98207D01*
X98690Y101356D02*
Y98207D01*
X98915Y101356D02*
Y98207D01*
Y100006D02*
X99140Y100681D01*
X99590Y101131D01*
X100040Y101356D01*
X100714D01*
X100939Y101131D01*
Y100906D01*
X100714Y100681D01*
X100489Y100906D01*
X100714Y101131D01*
X98015Y101356D02*
X98915D01*
X98015Y98207D02*
X99590D01*
X103458Y102706D02*
X103234Y102481D01*
X103458Y102256D01*
X103683Y102481D01*
Y102706D01*
X103458Y102930D01*
X103008D01*
X102559Y102706D01*
X102334Y102256D01*
Y98207D01*
X103008Y102930D02*
X102784Y102706D01*
X102559Y102256D01*
Y98207D01*
X101659Y101356D02*
X103458D01*
X101659Y98207D02*
X103234D01*
X104943Y100906D02*
Y100681D01*
X104718D01*
Y100906D01*
X104943Y101131D01*
X105393Y101356D01*
X106292D01*
X106742Y101131D01*
X106967Y100906D01*
X107192Y100456D01*
Y98882D01*
X107417Y98432D01*
X107642Y98207D01*
X106967Y100906D02*
Y98882D01*
X107192Y98432D01*
X107642Y98207D01*
X107867D01*
X106967Y100456D02*
X106742Y100231D01*
X105393Y100006D01*
X104718Y99782D01*
X104493Y99332D01*
Y98882D01*
X104718Y98432D01*
X105393Y98207D01*
X106068D01*
X106517Y98432D01*
X106967Y98882D01*
X105393Y100006D02*
X104943Y99782D01*
X104718Y99332D01*
Y98882D01*
X104943Y98432D01*
X105393Y98207D01*
X111241Y100681D02*
X111016Y100456D01*
X111241Y100231D01*
X111466Y100456D01*
Y100681D01*
X111016Y101131D01*
X110566Y101356D01*
X109891D01*
X109216Y101131D01*
X108767Y100681D01*
X108542Y100006D01*
Y99557D01*
X108767Y98882D01*
X109216Y98432D01*
X109891Y98207D01*
X110341D01*
X111016Y98432D01*
X111466Y98882D01*
X109891Y101356D02*
X109441Y101131D01*
X108992Y100681D01*
X108767Y100006D01*
Y99557D01*
X108992Y98882D01*
X109441Y98432D01*
X109891Y98207D01*
X112410Y100006D02*
X115109D01*
Y100456D01*
X114884Y100906D01*
X114660Y101131D01*
X114210Y101356D01*
X113535D01*
X112860Y101131D01*
X112410Y100681D01*
X112185Y100006D01*
Y99557D01*
X112410Y98882D01*
X112860Y98432D01*
X113535Y98207D01*
X113985D01*
X114660Y98432D01*
X115109Y98882D01*
X114884Y100006D02*
Y100681D01*
X114660Y101131D01*
X113535Y101356D02*
X113085Y101131D01*
X112635Y100681D01*
X112410Y100006D01*
Y99557D01*
X112635Y98882D01*
X113085Y98432D01*
X113535Y98207D01*
X120755Y102930D02*
Y98207D01*
X120980Y102930D02*
Y98207D01*
X120080Y102930D02*
X122779D01*
X123454Y102706D01*
X123679Y102481D01*
X123904Y102031D01*
Y101356D01*
X123679Y100906D01*
X123454Y100681D01*
X122779Y100456D01*
X120980D01*
X122779Y102930D02*
X123229Y102706D01*
X123454Y102481D01*
X123679Y102031D01*
Y101356D01*
X123454Y100906D01*
X123229Y100681D01*
X122779Y100456D01*
X120080Y98207D02*
X121655D01*
X124984Y100906D02*
Y100681D01*
X124759D01*
Y100906D01*
X124984Y101131D01*
X125433Y101356D01*
X126333D01*
X126783Y101131D01*
X127008Y100906D01*
X127233Y100456D01*
Y98882D01*
X127458Y98432D01*
X127683Y98207D01*
X127008Y100906D02*
Y98882D01*
X127233Y98432D01*
X127683Y98207D01*
X127908D01*
X127008Y100456D02*
X126783Y100231D01*
X125433Y100006D01*
X124759Y99782D01*
X124534Y99332D01*
Y98882D01*
X124759Y98432D01*
X125433Y98207D01*
X126108D01*
X126558Y98432D01*
X127008Y98882D01*
X125433Y100006D02*
X124984Y99782D01*
X124759Y99332D01*
Y98882D01*
X124984Y98432D01*
X125433Y98207D01*
X129257Y101356D02*
Y98207D01*
X129482Y101356D02*
Y98207D01*
Y100681D02*
X129932Y101131D01*
X130607Y101356D01*
X131056D01*
X131731Y101131D01*
X131956Y100681D01*
Y98207D01*
X131056Y101356D02*
X131506Y101131D01*
X131731Y100681D01*
Y98207D01*
X128582Y101356D02*
X129482D01*
X128582Y98207D02*
X130157D01*
X131056D02*
X132631D01*
X133463Y100006D02*
X136162D01*
Y100456D01*
X135937Y100906D01*
X135712Y101131D01*
X135263Y101356D01*
X134588D01*
X133913Y101131D01*
X133463Y100681D01*
X133238Y100006D01*
Y99557D01*
X133463Y98882D01*
X133913Y98432D01*
X134588Y98207D01*
X135038D01*
X135712Y98432D01*
X136162Y98882D01*
X135937Y100006D02*
Y100681D01*
X135712Y101131D01*
X134588Y101356D02*
X134138Y101131D01*
X133688Y100681D01*
X133463Y100006D01*
Y99557D01*
X133688Y98882D01*
X134138Y98432D01*
X134588Y98207D01*
X137557Y102930D02*
Y98207D01*
X137782Y102930D02*
Y98207D01*
X136882Y102930D02*
X137782D01*
X136882Y98207D02*
X138456D01*
X62578Y93798D02*
Y89075D01*
X62803Y93798D02*
Y89075D01*
X61904Y93798D02*
X64603D01*
X65278Y93573D01*
X65503Y93348D01*
X65727Y92898D01*
Y92449D01*
X65503Y91999D01*
X65278Y91774D01*
X64603Y91549D01*
Y93798D02*
X65053Y93573D01*
X65278Y93348D01*
X65503Y92898D01*
Y92449D01*
X65278Y91999D01*
X65053Y91774D01*
X64603Y91549D01*
X62803D02*
X64603D01*
X65278Y91324D01*
X65503Y91099D01*
X65727Y90649D01*
Y89974D01*
X65503Y89525D01*
X65278Y89300D01*
X64603Y89075D01*
X61904D01*
X64603Y91549D02*
X65053Y91324D01*
X65278Y91099D01*
X65503Y90649D01*
Y89974D01*
X65278Y89525D01*
X65053Y89300D01*
X64603Y89075D01*
X67707Y92224D02*
X67032Y91999D01*
X66582Y91549D01*
X66357Y90874D01*
Y90424D01*
X66582Y89750D01*
X67032Y89300D01*
X67707Y89075D01*
X68157D01*
X68831Y89300D01*
X69281Y89750D01*
X69506Y90424D01*
Y90874D01*
X69281Y91549D01*
X68831Y91999D01*
X68157Y92224D01*
X67707D01*
X67257Y91999D01*
X66807Y91549D01*
X66582Y90874D01*
Y90424D01*
X66807Y89750D01*
X67257Y89300D01*
X67707Y89075D01*
X68157D02*
X68606Y89300D01*
X69056Y89750D01*
X69281Y90424D01*
Y90874D01*
X69056Y91549D01*
X68606Y91999D01*
X68157Y92224D01*
X70653Y91774D02*
Y91549D01*
X70428D01*
Y91774D01*
X70653Y91999D01*
X71103Y92224D01*
X72003D01*
X72453Y91999D01*
X72678Y91774D01*
X72903Y91324D01*
Y89750D01*
X73127Y89300D01*
X73352Y89075D01*
X72678Y91774D02*
Y89750D01*
X72903Y89300D01*
X73352Y89075D01*
X73577D01*
X72678Y91324D02*
X72453Y91099D01*
X71103Y90874D01*
X70428Y90649D01*
X70203Y90199D01*
Y89750D01*
X70428Y89300D01*
X71103Y89075D01*
X71778D01*
X72228Y89300D01*
X72678Y89750D01*
X71103Y90874D02*
X70653Y90649D01*
X70428Y90199D01*
Y89750D01*
X70653Y89300D01*
X71103Y89075D01*
X74927Y92224D02*
Y89075D01*
X75152Y92224D02*
Y89075D01*
Y90874D02*
X75377Y91549D01*
X75827Y91999D01*
X76276Y92224D01*
X76951D01*
X77176Y91999D01*
Y91774D01*
X76951Y91549D01*
X76726Y91774D01*
X76951Y91999D01*
X74252Y92224D02*
X75152D01*
X74252Y89075D02*
X75827D01*
X80595Y93798D02*
Y89075D01*
X80820Y93798D02*
Y89075D01*
X80595Y91549D02*
X80145Y91999D01*
X79695Y92224D01*
X79245D01*
X78571Y91999D01*
X78121Y91549D01*
X77896Y90874D01*
Y90424D01*
X78121Y89750D01*
X78571Y89300D01*
X79245Y89075D01*
X79695D01*
X80145Y89300D01*
X80595Y89750D01*
X79245Y92224D02*
X78795Y91999D01*
X78346Y91549D01*
X78121Y90874D01*
Y90424D01*
X78346Y89750D01*
X78795Y89300D01*
X79245Y89075D01*
X79920Y93798D02*
X80820D01*
X80595Y89075D02*
X81495D01*
X87073Y93798D02*
Y89075D01*
X87298Y93798D02*
X89997Y89525D01*
X87298Y93348D02*
X89997Y89075D01*
Y93798D02*
Y89075D01*
X86398Y93798D02*
X87298D01*
X89322D02*
X90671D01*
X86398Y89075D02*
X87748D01*
X91481Y89525D02*
X91256Y89300D01*
X91481Y89075D01*
X91706Y89300D01*
X91481Y89525D01*
X92898Y92898D02*
X93123Y92674D01*
X92898Y92449D01*
X92673Y92674D01*
Y92898D01*
X92898Y93348D01*
X93123Y93573D01*
X93798Y93798D01*
X94698D01*
X95372Y93573D01*
X95597Y93123D01*
Y92449D01*
X95372Y91999D01*
X94698Y91774D01*
X94023D01*
X94698Y93798D02*
X95148Y93573D01*
X95372Y93123D01*
Y92449D01*
X95148Y91999D01*
X94698Y91774D01*
X95148Y91549D01*
X95597Y91099D01*
X95822Y90649D01*
Y89974D01*
X95597Y89525D01*
X95372Y89300D01*
X94698Y89075D01*
X93798D01*
X93123Y89300D01*
X92898Y89525D01*
X92673Y89974D01*
Y90199D01*
X92898Y90424D01*
X93123Y90199D01*
X92898Y89974D01*
X95372Y91324D02*
X95597Y90649D01*
Y89974D01*
X95372Y89525D01*
X95148Y89300D01*
X94698Y89075D01*
X101445Y93798D02*
Y89075D01*
X101670Y93798D02*
Y89075D01*
X100771Y93798D02*
X103470D01*
X104144Y93573D01*
X104369Y93348D01*
X104594Y92898D01*
Y92449D01*
X104369Y91999D01*
X104144Y91774D01*
X103470Y91549D01*
X101670D01*
X103470Y93798D02*
X103919Y93573D01*
X104144Y93348D01*
X104369Y92898D01*
Y92449D01*
X104144Y91999D01*
X103919Y91774D01*
X103470Y91549D01*
X100771Y89075D02*
X102345D01*
X102795Y91549D02*
X103245Y91324D01*
X103470Y91099D01*
X104144Y89525D01*
X104369Y89300D01*
X104594D01*
X104819Y89525D01*
X103245Y91324D02*
X103470Y90874D01*
X103919Y89300D01*
X104144Y89075D01*
X104594D01*
X104819Y89525D01*
Y89750D01*
X105651Y90874D02*
X108351D01*
Y91324D01*
X108125Y91774D01*
X107901Y91999D01*
X107451Y92224D01*
X106776D01*
X106101Y91999D01*
X105651Y91549D01*
X105427Y90874D01*
Y90424D01*
X105651Y89750D01*
X106101Y89300D01*
X106776Y89075D01*
X107226D01*
X107901Y89300D01*
X108351Y89750D01*
X108125Y90874D02*
Y91549D01*
X107901Y91999D01*
X106776Y92224D02*
X106326Y91999D01*
X105876Y91549D01*
X105651Y90874D01*
Y90424D01*
X105876Y89750D01*
X106326Y89300D01*
X106776Y89075D01*
X109520Y92224D02*
X110870Y89075D01*
X109745Y92224D02*
X110870Y89525D01*
X112219Y92224D02*
X110870Y89075D01*
X109070Y92224D02*
X110420D01*
X111319D02*
X112669D01*
X117572Y92898D02*
X118022Y93123D01*
X118697Y93798D01*
Y89075D01*
X118472Y93573D02*
Y89075D01*
X117572D02*
X119597D01*
X120631Y89525D02*
X120406Y89300D01*
X120631Y89075D01*
X120856Y89300D01*
X120631Y89525D01*
X123173Y93798D02*
X122498Y93573D01*
X122048Y92898D01*
X121823Y91774D01*
Y91099D01*
X122048Y89974D01*
X122498Y89300D01*
X123173Y89075D01*
X123623D01*
X124298Y89300D01*
X124747Y89974D01*
X124972Y91099D01*
Y91774D01*
X124747Y92898D01*
X124298Y93573D01*
X123623Y93798D01*
X123173D01*
X122723Y93573D01*
X122498Y93348D01*
X122273Y92898D01*
X122048Y91774D01*
Y91099D01*
X122273Y89974D01*
X122498Y89525D01*
X122723Y89300D01*
X123173Y89075D01*
X123623D02*
X124073Y89300D01*
X124298Y89525D01*
X124522Y89974D01*
X124747Y91099D01*
Y91774D01*
X124522Y92898D01*
X124298Y93348D01*
X124073Y93573D01*
X123623Y93798D01*
X288306Y64941D02*
X291455D01*
X289880Y66515D02*
Y63367D01*
X293029Y67303D02*
X296178D01*
Y66515D01*
X293029Y63367D01*
Y62580D01*
X296178D01*
X305038Y50177D02*
X308187D01*
X309761Y52539D02*
X312910Y47816D01*
Y52539D02*
X309761Y47816D01*
X280432Y44272D02*
X283581D01*
X282007Y45846D02*
Y42698D01*
X285155Y46633D02*
Y45846D01*
X286729Y44272D01*
X288304Y45846D01*
Y46633D01*
X286729Y44272D02*
Y41910D01*
X186319Y50836D02*
X189468D01*
X187893D01*
Y46113D01*
X191042D02*
Y50836D01*
X193403D01*
X194190Y50048D01*
Y48474D01*
X193403Y47687D01*
X191042D01*
X195765Y46113D02*
X197339D01*
X196552D01*
Y50836D01*
X195765Y50048D01*
X202849Y46113D02*
X199700D01*
X202849Y49261D01*
Y50048D01*
X202062Y50836D01*
X200488D01*
X199700Y50048D01*
X31299Y47046D02*
X34448D01*
X32873D01*
Y42323D01*
X36022D02*
Y47046D01*
X38383D01*
X39171Y46259D01*
Y44684D01*
X38383Y43897D01*
X36022D01*
X40745Y42323D02*
X42319D01*
X41532D01*
Y47046D01*
X40745Y46259D01*
X44681Y42323D02*
X46255D01*
X45468D01*
Y47046D01*
X44681Y46259D01*
X140354Y93502D02*
X143503D01*
X141929D01*
Y88779D01*
X145077D02*
Y93502D01*
X147439D01*
X148226Y92715D01*
Y91141D01*
X147439Y90354D01*
X145077D01*
X149800Y88779D02*
X151374D01*
X150587D01*
Y93502D01*
X149800Y92715D01*
X153736D02*
X154523Y93502D01*
X156097D01*
X156884Y92715D01*
Y89567D01*
X156097Y88779D01*
X154523D01*
X153736Y89567D01*
Y92715D01*
X31988Y68109D02*
X35137D01*
X33562D01*
Y63386D01*
X36711D02*
Y68109D01*
X39072D01*
X39860Y67322D01*
Y65747D01*
X39072Y64960D01*
X36711D01*
X41434Y64173D02*
X42221Y63386D01*
X43795D01*
X44583Y64173D01*
Y67322D01*
X43795Y68109D01*
X42221D01*
X41434Y67322D01*
Y66534D01*
X42221Y65747D01*
X44583D01*
X31496Y56888D02*
X34645D01*
X33070D01*
Y52165D01*
X36219D02*
Y56888D01*
X38580D01*
X39367Y56101D01*
Y54527D01*
X38580Y53740D01*
X36219D01*
X40942Y56101D02*
X41729Y56888D01*
X43303D01*
X44090Y56101D01*
Y55314D01*
X43303Y54527D01*
X44090Y53740D01*
Y52952D01*
X43303Y52165D01*
X41729D01*
X40942Y52952D01*
Y53740D01*
X41729Y54527D01*
X40942Y55314D01*
Y56101D01*
X41729Y54527D02*
X43303D01*
X119882Y19457D02*
X123030D01*
X121456D01*
Y14734D01*
X124605D02*
Y19457D01*
X126966D01*
X127753Y18670D01*
Y17096D01*
X126966Y16308D01*
X124605D01*
X129328Y19457D02*
X132476D01*
Y18670D01*
X129328Y15521D01*
Y14734D01*
X31201Y36317D02*
X34349D01*
X32775D01*
Y31594D01*
X35924D02*
Y36317D01*
X38285D01*
X39072Y35530D01*
Y33956D01*
X38285Y33169D01*
X35924D01*
X43795Y36317D02*
X40647D01*
Y33956D01*
X42221Y34743D01*
X43008D01*
X43795Y33956D01*
Y32382D01*
X43008Y31594D01*
X41434D01*
X40647Y32382D01*
X199732Y81987D02*
X202881D01*
X201307D01*
Y77264D01*
X204455D02*
Y81987D01*
X206817D01*
X207604Y81200D01*
Y79625D01*
X206817Y78838D01*
X204455D01*
X211540Y77264D02*
Y81987D01*
X209178Y79625D01*
X212327D01*
X140748Y81790D02*
X143897D01*
X142322D01*
Y77067D01*
X145471D02*
Y81790D01*
X147832D01*
X148619Y81003D01*
Y79428D01*
X147832Y78641D01*
X145471D01*
X150194Y81003D02*
X150981Y81790D01*
X152555D01*
X153342Y81003D01*
Y80216D01*
X152555Y79428D01*
X151768D01*
X152555D01*
X153342Y78641D01*
Y77854D01*
X152555Y77067D01*
X150981D01*
X150194Y77854D01*
X62894Y78050D02*
X66042D01*
X64468D01*
Y73327D01*
X67617D02*
Y78050D01*
X69978D01*
X70765Y77263D01*
Y75688D01*
X69978Y74901D01*
X67617D01*
X75488Y73327D02*
X72339D01*
X75488Y76475D01*
Y77263D01*
X74701Y78050D01*
X73127D01*
X72339Y77263D01*
X143012Y71554D02*
X146160D01*
X144586D01*
Y66831D01*
X147735D02*
Y71554D01*
X150096D01*
X150883Y70766D01*
Y69192D01*
X150096Y68405D01*
X147735D01*
X152458Y66831D02*
X154032D01*
X153245D01*
Y71554D01*
X152458Y70766D01*
X32382Y78345D02*
X35530D01*
X33956D01*
Y73622D01*
X37105D02*
Y78345D01*
X39466D01*
X40253Y77558D01*
Y75984D01*
X39466Y75196D01*
X37105D01*
X44976Y78345D02*
X43402Y77558D01*
X41828Y75984D01*
Y74409D01*
X42615Y73622D01*
X44189D01*
X44976Y74409D01*
Y75196D01*
X44189Y75984D01*
X41828D01*
X11793Y110236D02*
G03*
X0Y98443I0J-11793D01*
G01*
Y11663D02*
G03*
X11663Y0I11663J0D01*
G01*
X313050D02*
G03*
X324803Y11754I0J11754D01*
G01*
Y98418D02*
G03*
X312985Y110236I-11818J0D01*
G01*
X0Y92520D02*
Y98443D01*
X11793Y110236D02*
X12696D01*
X0Y25591D02*
Y92520D01*
Y11663D02*
Y25591D01*
X11663Y0D02*
X313050D01*
X324803Y11754D02*
Y98418D01*
X12696Y110236D02*
X312985D01*
D11*
X110236Y53806D02*
G03*
X109449Y53019I0J-787D01*
G01*
X114173Y41995D02*
G03*
X114961Y42783I0J787D01*
G01*
X109449D02*
G03*
X110236Y41995I787J0D01*
G01*
X114961Y53019D02*
G03*
X114173Y53806I-787J0D01*
G01*
X108169Y53593D02*
G03*
X106988Y54775I-1181J0D01*
G01*
X102264D02*
G03*
X101083Y53593I0J-1181D01*
G01*
Y40208D02*
G03*
X102264Y39027I1181J0D01*
G01*
X106988D02*
G03*
X108169Y40208I0J1181D01*
G01*
X113992Y56559D02*
G03*
X114779Y57347I0J787D01*
G01*
X110055Y68370D02*
G03*
X109268Y67583I0J-787D01*
G01*
X114779D02*
G03*
X113992Y68370I-787J0D01*
G01*
X109268Y57347D02*
G03*
X110055Y56559I787J0D01*
G01*
X101083Y56786D02*
G03*
X102264Y55605I1181J0D01*
G01*
X106988D02*
G03*
X108169Y56786I0J1181D01*
G01*
Y70172D02*
G03*
X106988Y71353I-1181J0D01*
G01*
X102264D02*
G03*
X101083Y70172I0J-1181D01*
G01*
X114961Y42783D02*
Y53019D01*
X110236Y41995D02*
X114173D01*
X109449Y42783D02*
Y53019D01*
X110236Y53806D02*
X114173D01*
X108169Y40208D02*
Y53593D01*
X102264Y39027D02*
X106988D01*
X101083Y40208D02*
Y53593D01*
X102264Y54775D02*
X106988D01*
X109268Y57347D02*
Y67583D01*
X110055Y68370D02*
X113992D01*
X114779Y57347D02*
Y67583D01*
X110055Y56559D02*
X113992D01*
X101083Y56786D02*
Y70172D01*
X102264Y71353D02*
X106988D01*
X108169Y56786D02*
Y70172D01*
X102264Y55605D02*
X106988D01*
X166634Y72244D02*
X182382D01*
X166634D02*
Y79331D01*
X182382D01*
Y72244D02*
Y79331D01*
X166634Y64272D02*
X182382D01*
X166634D02*
Y71358D01*
X182382D01*
Y64272D02*
Y71358D01*
D12*
X295687Y49883D02*
G03*
X295687Y49883I-3091J0D01*
G01*
X292735D02*
G03*
X292735Y49883I-139J0D01*
G01*
X156890Y63287D02*
X183661D01*
Y44783D02*
Y63287D01*
X141142Y44783D02*
X183661D01*
X141142D02*
Y63287D01*
X156890D01*
X301061Y47914D02*
X303029Y49883D01*
X301061Y51851D02*
X303029Y49883D01*
X290628Y58347D02*
X292596Y60316D01*
X294565Y58347D01*
X295687Y49883D02*
X303029D01*
X292596Y52973D02*
Y60316D01*
X12205Y88779D02*
X16437D01*
X21850Y94193D01*
Y98228D01*
X2756Y94095D02*
Y98425D01*
Y94095D02*
X8071Y88779D01*
X12205D01*
X8268Y107874D02*
X12402D01*
X2756Y102362D02*
X8268Y107874D01*
X2756Y98425D02*
Y102362D01*
X12402Y107874D02*
X16240D01*
X21850Y102264D01*
Y98228D02*
Y102264D01*
X12205Y2165D02*
X16437D01*
X21850Y7579D01*
Y11614D01*
X2756Y7480D02*
Y11811D01*
Y7480D02*
X8071Y2165D01*
X12205D01*
X8268Y21260D02*
X12402D01*
X2756Y15748D02*
X8268Y21260D01*
X2756Y11811D02*
Y15748D01*
X12402Y21260D02*
X16240D01*
X21850Y15650D01*
Y11614D02*
Y15650D01*
X312205Y2165D02*
X316437D01*
X321850Y7579D01*
Y11614D01*
X302756Y7480D02*
Y11811D01*
Y7480D02*
X308071Y2165D01*
X312205D01*
X308268Y21260D02*
X312402D01*
X302756Y15748D02*
X308268Y21260D01*
X302756Y11811D02*
Y15748D01*
X312402Y21260D02*
X316240D01*
X321850Y15650D01*
Y11614D02*
Y15650D01*
X312205Y88779D02*
X316437D01*
X321850Y94193D01*
Y98228D01*
X302756Y94095D02*
Y98425D01*
Y94095D02*
X308071Y88779D01*
X312205D01*
X308268Y107874D02*
X312402D01*
X302756Y102362D02*
X308268Y107874D01*
X302756Y98425D02*
Y102362D01*
X312402Y107874D02*
X316240D01*
X321850Y102264D01*
Y98228D02*
Y102264D01*
X113598Y15886D02*
Y23229D01*
X115567Y21260D01*
X111630Y21260D02*
X113598Y23229D01*
X106256Y15886D02*
X113598D01*
X289370Y8661D02*
Y14660D01*
X291369Y12660D01*
X293369Y14660D01*
Y8661D01*
X298367D02*
Y14660D01*
X295368Y11660D01*
X299367D01*
X24766Y1969D02*
Y7967D01*
X26766Y5967D01*
X28765Y7967D01*
Y1969D01*
X30764Y6967D02*
X31764Y7967D01*
X33763D01*
X34763Y6967D01*
Y5967D01*
X33763Y4967D01*
X32764D01*
X33763D01*
X34763Y3968D01*
Y2968D01*
X33763Y1969D01*
X31764D01*
X30764Y2968D01*
X289764Y100787D02*
Y106786D01*
X291763Y104786D01*
X293762Y106786D01*
Y100787D01*
X299761D02*
X295762D01*
X299761Y104786D01*
Y105786D01*
X298761Y106786D01*
X296761D01*
X295762Y105786D01*
X25197Y101575D02*
Y107573D01*
X27196Y105573D01*
X29196Y107573D01*
Y101575D01*
X31195D02*
X33194D01*
X32195D01*
Y107573D01*
X31195Y106573D01*
X40219Y22922D02*
X36220D01*
Y19923D01*
X38220D01*
X36220D01*
Y16924D01*
X42219Y22922D02*
Y16924D01*
X45218D01*
X46217Y17923D01*
Y21922D01*
X45218Y22922D01*
X42219D01*
X48217Y21922D02*
X49216Y22922D01*
X51216D01*
X52215Y21922D01*
Y20922D01*
X51216Y19923D01*
X50216D01*
X51216D01*
X52215Y18923D01*
Y17923D01*
X51216Y16924D01*
X49216D01*
X48217Y17923D01*
X276440Y93006D02*
X272441D01*
Y90007D01*
X274440D01*
X272441D01*
Y87008D01*
X278439Y93006D02*
Y87008D01*
X281438D01*
X282438Y88008D01*
Y92006D01*
X281438Y93006D01*
X278439D01*
X288436Y87008D02*
X284437D01*
X288436Y91007D01*
Y92006D01*
X287436Y93006D01*
X285437D01*
X284437Y92006D01*
X40613Y92612D02*
X36614D01*
Y89613D01*
X38614D01*
X36614D01*
Y86614D01*
X42612Y92612D02*
Y86614D01*
X45611D01*
X46611Y87614D01*
Y91612D01*
X45611Y92612D01*
X42612D01*
X48610Y86614D02*
X50610D01*
X49610D01*
Y92612D01*
X48610Y91612D01*
X-99500Y-99500D02*
X546169D01*
X1681D02*
Y-20319D01*
X164613Y-99205D02*
Y-44277D01*
X1976Y-81777D02*
X345579Y-81777D01*
X345863Y-99106D02*
Y-20515D01*
X1976Y-63027D02*
X545863Y-63027D01*
X2173Y-44277D02*
X545440Y-44277D01*
X1681Y-20319D02*
X545863D01*
X-99500Y356552D02*
X546169D01*
X-99500Y-99500D02*
Y356552D01*
X546169Y-99146D02*
Y356552D01*
X346071Y-43941D02*
Y-20319D01*
X414859Y-43883D02*
Y-20268D01*
X97154Y-89441D02*
Y-96252D01*
X101694Y-89441D02*
Y-96252D01*
X97154Y-92684D02*
X101694D01*
X108765Y-96252D02*
X106170Y-89441D01*
X103575Y-96252D01*
X104548Y-93982D02*
X107792D01*
X114895Y-90414D02*
X114246Y-89765D01*
X113273Y-89441D01*
X111976D01*
X111003Y-89765D01*
X110354Y-90414D01*
Y-91063D01*
X110678Y-91711D01*
X111003Y-92036D01*
X111651Y-92360D01*
X113597Y-93009D01*
X114246Y-93333D01*
X114570Y-93657D01*
X114895Y-94306D01*
Y-95279D01*
X114246Y-95928D01*
X113273Y-96252D01*
X111976D01*
X111003Y-95928D01*
X110354Y-95279D01*
X116419Y-89441D02*
Y-96252D01*
X120311D01*
X231110Y-87472D02*
X233705Y-90716D01*
Y-94283D01*
X236300Y-87472D02*
X233705Y-90716D01*
X241067Y-89743D02*
Y-94283D01*
Y-90716D02*
X240419Y-90067D01*
X239770Y-89743D01*
X238797D01*
X238148Y-90067D01*
X237500Y-90716D01*
X237175Y-91689D01*
Y-92338D01*
X237500Y-93310D01*
X238148Y-93959D01*
X238797Y-94283D01*
X239770D01*
X240419Y-93959D01*
X241067Y-93310D01*
X242884Y-89743D02*
Y-94283D01*
Y-91040D02*
X243857Y-90067D01*
X244505Y-89743D01*
X245478D01*
X246127Y-90067D01*
X246451Y-91040D01*
Y-94283D01*
X258452Y-89094D02*
X258127Y-88445D01*
X257479Y-87797D01*
X256830Y-87472D01*
X255533D01*
X254884Y-87797D01*
X254235Y-88445D01*
X253911Y-89094D01*
X253587Y-90067D01*
Y-91689D01*
X253911Y-92662D01*
X254235Y-93310D01*
X254884Y-93959D01*
X255533Y-94283D01*
X256830D01*
X257479Y-93959D01*
X258127Y-93310D01*
X258452Y-92662D01*
X260690Y-93635D02*
X260365Y-93959D01*
X260690Y-94283D01*
X261014Y-93959D01*
X260690Y-93635D01*
X271749Y-87472D02*
Y-94283D01*
Y-90716D02*
X271101Y-90067D01*
X270452Y-89743D01*
X269479D01*
X268830Y-90067D01*
X268182Y-90716D01*
X267857Y-91689D01*
Y-92338D01*
X268182Y-93310D01*
X268830Y-93959D01*
X269479Y-94283D01*
X270452D01*
X271101Y-93959D01*
X271749Y-93310D01*
X273566Y-91689D02*
X277458D01*
Y-91040D01*
X277133Y-90391D01*
X276809Y-90067D01*
X276160Y-89743D01*
X275187D01*
X274539Y-90067D01*
X273890Y-90716D01*
X273566Y-91689D01*
Y-92338D01*
X273890Y-93310D01*
X274539Y-93959D01*
X275187Y-94283D01*
X276160D01*
X276809Y-93959D01*
X277458Y-93310D01*
X289458Y-94283D02*
X286863Y-87472D01*
X284269Y-94283D01*
X285242Y-92013D02*
X288485D01*
X294615Y-89743D02*
X291047Y-94283D01*
Y-89743D02*
X294615D01*
X291047Y-94283D02*
X294615D01*
X296042Y-91689D02*
X299934D01*
Y-91040D01*
X299610Y-90391D01*
X299286Y-90067D01*
X298637Y-89743D01*
X297664D01*
X297015Y-90067D01*
X296367Y-90716D01*
X296042Y-91689D01*
Y-92338D01*
X296367Y-93310D01*
X297015Y-93959D01*
X297664Y-94283D01*
X298637D01*
X299286Y-93959D01*
X299934Y-93310D01*
X301394Y-89743D02*
Y-94283D01*
Y-91689D02*
X301718Y-90716D01*
X302367Y-90067D01*
X303015Y-89743D01*
X303988D01*
X304605Y-91689D02*
X308497D01*
Y-91040D01*
X308172Y-90391D01*
X307848Y-90067D01*
X307199Y-89743D01*
X306226D01*
X305578Y-90067D01*
X304929Y-90716D01*
X304605Y-91689D01*
Y-92338D01*
X304929Y-93310D01*
X305578Y-93959D01*
X306226Y-94283D01*
X307199D01*
X307848Y-93959D01*
X308497Y-93310D01*
X313848Y-87472D02*
Y-94283D01*
Y-90716D02*
X313199Y-90067D01*
X312551Y-89743D01*
X311578D01*
X310929Y-90067D01*
X310280Y-90716D01*
X309956Y-91689D01*
Y-92338D01*
X310280Y-93310D01*
X310929Y-93959D01*
X311578Y-94283D01*
X312551D01*
X313199Y-93959D01*
X313848Y-93310D01*
X317286Y-89743D02*
X316637Y-90067D01*
X315989Y-90716D01*
X315664Y-91689D01*
Y-92338D01*
X315989Y-93310D01*
X316637Y-93959D01*
X317286Y-94283D01*
X318259D01*
X318908Y-93959D01*
X319556Y-93310D01*
X319881Y-92338D01*
Y-91689D01*
X319556Y-90716D01*
X318908Y-90067D01*
X318259Y-89743D01*
X317286D01*
X125697Y-76764D02*
X128217D01*
X126957D01*
Y-69204D01*
X125697Y-70464D01*
X131997Y-76764D02*
Y-75504D01*
X133257D01*
Y-76764D01*
X131997D01*
X143337Y-69204D02*
X140817Y-70464D01*
X138297Y-72984D01*
Y-75504D01*
X139557Y-76764D01*
X142077D01*
X143337Y-75504D01*
Y-74244D01*
X142077Y-72984D01*
X138297D01*
X145857Y-76764D02*
Y-71724D01*
X147117D01*
X148377Y-72984D01*
Y-76764D01*
Y-72984D01*
X149637Y-71724D01*
X150897Y-72984D01*
Y-76764D01*
X153417D02*
Y-71724D01*
X154677D01*
X155937Y-72984D01*
Y-76764D01*
Y-72984D01*
X157197Y-71724D01*
X158457Y-72984D01*
Y-76764D01*
X80608Y-50103D02*
X75568D01*
Y-53883D01*
X78088D01*
X75568D01*
Y-57663D01*
X83128D02*
Y-50103D01*
X86908D01*
X88168Y-51363D01*
Y-53883D01*
X86908Y-55143D01*
X83128D01*
X85648D02*
X88168Y-57663D01*
X94468D02*
Y-50103D01*
X90688Y-53883D01*
X95728D01*
X390953Y-36705D02*
X393473D01*
X392213D01*
Y-29145D01*
X390953Y-30405D01*
X397253Y-36705D02*
Y-35445D01*
X398513D01*
Y-36705D01*
X397253D01*
X403553Y-30405D02*
X404813Y-29145D01*
X407333D01*
X408593Y-30405D01*
Y-35445D01*
X407333Y-36705D01*
X404813D01*
X403553Y-35445D01*
Y-30405D01*
X465559Y-36705D02*
X468079D01*
X466819D01*
Y-29145D01*
X465559Y-30405D01*
X476899Y-29145D02*
X471859D01*
Y-32925D01*
X474379Y-31665D01*
X475639D01*
X476899Y-32925D01*
Y-35445D01*
X475639Y-36705D01*
X473119D01*
X471859Y-35445D01*
X479419Y-36705D02*
X484459Y-31665D01*
X486979Y-30405D02*
X488239Y-29145D01*
X490759D01*
X492019Y-30405D01*
Y-35445D01*
X490759Y-36705D01*
X488239D01*
X486979Y-35445D01*
Y-30405D01*
X494539Y-29145D02*
X499579D01*
Y-30405D01*
X494539Y-35445D01*
Y-36705D01*
X502099D02*
X507139Y-31665D01*
X514699Y-36705D02*
X509659D01*
X514699Y-31665D01*
Y-30405D01*
X513439Y-29145D01*
X510919D01*
X509659Y-30405D01*
X517219D02*
X518479Y-29145D01*
X520999D01*
X522260Y-30405D01*
Y-35445D01*
X520999Y-36705D01*
X518479D01*
X517219Y-35445D01*
Y-30405D01*
X529820Y-36705D02*
X524780D01*
X529820Y-31665D01*
Y-30405D01*
X528560Y-29145D01*
X526040D01*
X524780Y-30405D01*
X532340D02*
X533600Y-29145D01*
X536120D01*
X537380Y-30405D01*
Y-35445D01*
X536120Y-36705D01*
X533600D01*
X532340Y-35445D01*
Y-30405D01*
X354206Y-67185D02*
X353255Y-66234D01*
X351353D01*
X350402Y-67185D01*
Y-68136D01*
X351353Y-69087D01*
X353255D01*
X354206Y-70039D01*
Y-70990D01*
X353255Y-71941D01*
X351353D01*
X350402Y-70990D01*
X356108Y-73843D02*
Y-68136D01*
X358962D01*
X359913Y-69087D01*
Y-70990D01*
X358962Y-71941D01*
X356108D01*
X362766Y-68136D02*
X364669D01*
X365620Y-69087D01*
Y-71941D01*
X362766D01*
X361815Y-70990D01*
X362766Y-70039D01*
X365620D01*
X371326Y-68136D02*
X368473D01*
X367522Y-69087D01*
Y-70990D01*
X368473Y-71941D01*
X371326D01*
X376082D02*
X374180D01*
X373229Y-70990D01*
Y-69087D01*
X374180Y-68136D01*
X376082D01*
X377033Y-69087D01*
Y-70039D01*
X373229D01*
X384642Y-66234D02*
X388447D01*
X386545D01*
Y-71941D01*
X393203D02*
X391300D01*
X390349Y-70990D01*
Y-69087D01*
X391300Y-68136D01*
X393203D01*
X394154Y-69087D01*
Y-70039D01*
X390349D01*
X399861Y-68136D02*
X397007D01*
X396056Y-69087D01*
Y-70990D01*
X397007Y-71941D01*
X399861D01*
X401763Y-66234D02*
Y-71941D01*
Y-69087D01*
X402714Y-68136D01*
X404616D01*
X405567Y-69087D01*
Y-71941D01*
X407470D02*
Y-68136D01*
X410323D01*
X411274Y-69087D01*
Y-71941D01*
X414128D02*
X416030D01*
X416981Y-70990D01*
Y-69087D01*
X416030Y-68136D01*
X414128D01*
X413176Y-69087D01*
Y-70990D01*
X414128Y-71941D01*
X418883D02*
X420786D01*
X419834D01*
Y-66234D01*
X418883D01*
X424590Y-71941D02*
X426492D01*
X427444Y-70990D01*
Y-69087D01*
X426492Y-68136D01*
X424590D01*
X423639Y-69087D01*
Y-70990D01*
X424590Y-71941D01*
X431248Y-73843D02*
X432199D01*
X433150Y-72892D01*
Y-68136D01*
X430297D01*
X429346Y-69087D01*
Y-70990D01*
X430297Y-71941D01*
X433150D01*
X435053Y-68136D02*
Y-70990D01*
X436004Y-71941D01*
X438857D01*
Y-72892D01*
X437906Y-73843D01*
X436955D01*
X438857Y-71941D02*
Y-68136D01*
X446466Y-71941D02*
Y-66234D01*
X449320D01*
X450271Y-67185D01*
Y-69087D01*
X449320Y-70039D01*
X446466D01*
X448369D02*
X450271Y-71941D01*
X455026D02*
X453124D01*
X452173Y-70990D01*
Y-69087D01*
X453124Y-68136D01*
X455026D01*
X455978Y-69087D01*
Y-70039D01*
X452173D01*
X457880Y-71941D02*
X460733D01*
X461684Y-70990D01*
X460733Y-70039D01*
X458831D01*
X457880Y-69087D01*
X458831Y-68136D01*
X461684D01*
X466440Y-71941D02*
X464538D01*
X463587Y-70990D01*
Y-69087D01*
X464538Y-68136D01*
X466440D01*
X467391Y-69087D01*
Y-70039D01*
X463587D01*
X470245Y-68136D02*
X472147D01*
X473098Y-69087D01*
Y-71941D01*
X470245D01*
X469293Y-70990D01*
X470245Y-70039D01*
X473098D01*
X475000Y-68136D02*
Y-71941D01*
Y-70039D01*
X475951Y-69087D01*
X476902Y-68136D01*
X477854D01*
X484512D02*
X481658D01*
X480707Y-69087D01*
Y-70990D01*
X481658Y-71941D01*
X484512D01*
X486414Y-66234D02*
Y-71941D01*
Y-69087D01*
X487365Y-68136D01*
X489267D01*
X490218Y-69087D01*
Y-71941D01*
X497827Y-66234D02*
Y-71941D01*
X501632D01*
X504486Y-68136D02*
X506388D01*
X507339Y-69087D01*
Y-71941D01*
X504486D01*
X503534Y-70990D01*
X504486Y-70039D01*
X507339D01*
X509241Y-66234D02*
Y-71941D01*
X512094D01*
X513046Y-70990D01*
Y-70039D01*
Y-69087D01*
X512094Y-68136D01*
X509241D01*
X515899Y-71941D02*
X517801D01*
X518752Y-70990D01*
Y-69087D01*
X517801Y-68136D01*
X515899D01*
X514948Y-69087D01*
Y-70990D01*
X515899Y-71941D01*
X520655Y-68136D02*
Y-71941D01*
Y-70039D01*
X521606Y-69087D01*
X522557Y-68136D01*
X523508D01*
X527313D02*
X529215D01*
X530166Y-69087D01*
Y-71941D01*
X527313D01*
X526362Y-70990D01*
X527313Y-70039D01*
X530166D01*
X533019Y-67185D02*
Y-68136D01*
X532068D01*
X533971D01*
X533019D01*
Y-70990D01*
X533971Y-71941D01*
X536824Y-68136D02*
Y-70990D01*
X537775Y-71941D01*
X540629D01*
Y-72892D01*
X539677Y-73843D01*
X538726D01*
X540629Y-71941D02*
Y-68136D01*
X354665Y-77258D02*
X350992D01*
Y-80013D01*
X352829D01*
X350992D01*
Y-82768D01*
X359257D02*
X357420D01*
X356502Y-81849D01*
Y-80013D01*
X357420Y-79094D01*
X359257D01*
X360175Y-80013D01*
Y-80931D01*
X356502D01*
X365686Y-77258D02*
Y-82768D01*
X362930D01*
X362012Y-81849D01*
Y-80013D01*
X362930Y-79094D01*
X365686D01*
X370277Y-82768D02*
X368441D01*
X367522Y-81849D01*
Y-80013D01*
X368441Y-79094D01*
X370277D01*
X371196Y-80013D01*
Y-80931D01*
X367522D01*
X373032Y-79094D02*
Y-82768D01*
Y-80931D01*
X373951Y-80013D01*
X374869Y-79094D01*
X375787D01*
X379461D02*
X381297D01*
X382216Y-80013D01*
Y-82768D01*
X379461D01*
X378542Y-81849D01*
X379461Y-80931D01*
X382216D01*
X384052Y-82768D02*
X385889D01*
X384971D01*
Y-77258D01*
X384052D01*
X394154D02*
Y-81849D01*
X395072Y-82768D01*
X396909D01*
X397827Y-81849D01*
Y-77258D01*
X399664Y-82768D02*
Y-79094D01*
X402419D01*
X403337Y-80013D01*
Y-82768D01*
X405174D02*
X407011D01*
X406092D01*
Y-79094D01*
X405174D01*
X409766D02*
X411602Y-82768D01*
X413439Y-79094D01*
X418031Y-82768D02*
X416194D01*
X415276Y-81849D01*
Y-80013D01*
X416194Y-79094D01*
X418031D01*
X418949Y-80013D01*
Y-80931D01*
X415276D01*
X420786Y-79094D02*
Y-82768D01*
Y-80931D01*
X421704Y-80013D01*
X422622Y-79094D01*
X423541D01*
X426296Y-82768D02*
X429051D01*
X429969Y-81849D01*
X429051Y-80931D01*
X427214D01*
X426296Y-80013D01*
X427214Y-79094D01*
X429969D01*
X431806Y-82768D02*
X433643D01*
X432724D01*
Y-79094D01*
X431806D01*
X437316Y-78176D02*
Y-79094D01*
X436398D01*
X438234D01*
X437316D01*
Y-81849D01*
X438234Y-82768D01*
X440989Y-79094D02*
Y-81849D01*
X441908Y-82768D01*
X444663D01*
Y-83686D01*
X443744Y-84604D01*
X442826D01*
X444663Y-82768D02*
Y-79094D01*
X452928Y-82768D02*
X454764D01*
X455683Y-81849D01*
Y-80013D01*
X454764Y-79094D01*
X452928D01*
X452009Y-80013D01*
Y-81849D01*
X452928Y-82768D01*
X458438D02*
Y-78176D01*
Y-80013D01*
X457519D01*
X459356D01*
X458438D01*
Y-78176D01*
X459356Y-77258D01*
X471294Y-78176D02*
X470376Y-77258D01*
X468539D01*
X467621Y-78176D01*
Y-79094D01*
X468539Y-80013D01*
X470376D01*
X471294Y-80931D01*
Y-81849D01*
X470376Y-82768D01*
X468539D01*
X467621Y-81849D01*
X474050Y-79094D02*
X475886D01*
X476804Y-80013D01*
Y-82768D01*
X474050D01*
X473131Y-81849D01*
X474050Y-80931D01*
X476804D01*
X478641Y-82768D02*
Y-79094D01*
X481396D01*
X482314Y-80013D01*
Y-82768D01*
X485070Y-78176D02*
Y-79094D01*
X484151D01*
X485988D01*
X485070D01*
Y-81849D01*
X485988Y-82768D01*
X489661Y-79094D02*
X491498D01*
X492416Y-80013D01*
Y-82768D01*
X489661D01*
X488743Y-81849D01*
X489661Y-80931D01*
X492416D01*
X503436Y-78176D02*
X502518Y-77258D01*
X500681D01*
X499763Y-78176D01*
Y-81849D01*
X500681Y-82768D01*
X502518D01*
X503436Y-81849D01*
X506191Y-79094D02*
X508028D01*
X508946Y-80013D01*
Y-82768D01*
X506191D01*
X505273Y-81849D01*
X506191Y-80931D01*
X508946D01*
X511701Y-78176D02*
Y-79094D01*
X510783D01*
X512620D01*
X511701D01*
Y-81849D01*
X512620Y-82768D01*
X516293Y-79094D02*
X518130D01*
X519048Y-80013D01*
Y-82768D01*
X516293D01*
X515375Y-81849D01*
X516293Y-80931D01*
X519048D01*
X520885Y-79094D02*
Y-82768D01*
Y-80931D01*
X521803Y-80013D01*
X522721Y-79094D01*
X523640D01*
X526395Y-82768D02*
X528231D01*
X527313D01*
Y-79094D01*
X526395D01*
X530986Y-82768D02*
Y-79094D01*
X533741D01*
X534660Y-80013D01*
Y-82768D01*
X537415Y-79094D02*
X539252D01*
X540170Y-80013D01*
Y-82768D01*
X537415D01*
X536496Y-81849D01*
X537415Y-80931D01*
X540170D01*
X-8560Y227667D02*
Y221669D01*
X-4561D01*
X-1562Y225668D02*
X437D01*
X1437Y224668D01*
Y221669D01*
X-1562D01*
X-2562Y222669D01*
X-1562Y223669D01*
X1437D01*
X3436Y225668D02*
Y222669D01*
X4436Y221669D01*
X7435D01*
Y220670D01*
X6435Y219670D01*
X5435D01*
X7435Y221669D02*
Y225668D01*
X12433Y221669D02*
X10434D01*
X9434Y222669D01*
Y224668D01*
X10434Y225668D01*
X12433D01*
X13433Y224668D01*
Y223669D01*
X9434D01*
X15432Y225668D02*
Y221669D01*
Y223669D01*
X16432Y224668D01*
X17431Y225668D01*
X18431D01*
X-4561Y161669D02*
X-8560D01*
X-4561Y165668D01*
Y166668D01*
X-5561Y167667D01*
X-7560D01*
X-8560Y166668D01*
Y185669D02*
X-6561D01*
X-7560D01*
Y191667D01*
X-8560Y190668D01*
X32431Y221669D02*
Y227667D01*
X36430Y221669D01*
Y227667D01*
X39429Y225668D02*
X41428D01*
X42428Y224668D01*
Y221669D01*
X39429D01*
X38429Y222669D01*
X39429Y223669D01*
X42428D01*
X44427Y221669D02*
Y225668D01*
X45427D01*
X46426Y224668D01*
Y221669D01*
Y224668D01*
X47426Y225668D01*
X48426Y224668D01*
Y221669D01*
X53424D02*
X51425D01*
X50425Y222669D01*
Y224668D01*
X51425Y225668D01*
X53424D01*
X54424Y224668D01*
Y223669D01*
X50425D01*
X32431Y143667D02*
Y137669D01*
X35430D01*
X36430Y138669D01*
Y139669D01*
X35430Y140668D01*
X32431D01*
X35430D01*
X36430Y141668D01*
Y142668D01*
X35430Y143667D01*
X32431D01*
X39429Y137669D02*
X41428D01*
X42428Y138669D01*
Y140668D01*
X41428Y141668D01*
X39429D01*
X38429Y140668D01*
Y138669D01*
X39429Y137669D01*
X45427Y142668D02*
Y141668D01*
X44427D01*
X46426D01*
X45427D01*
Y138669D01*
X46426Y137669D01*
X50425Y142668D02*
Y141668D01*
X49426D01*
X51425D01*
X50425D01*
Y138669D01*
X51425Y137669D01*
X55424D02*
X57423D01*
X58423Y138669D01*
Y140668D01*
X57423Y141668D01*
X55424D01*
X54424Y140668D01*
Y138669D01*
X55424Y137669D01*
X60422D02*
Y141668D01*
X61422D01*
X62421Y140668D01*
Y137669D01*
Y140668D01*
X63421Y141668D01*
X64421Y140668D01*
Y137669D01*
X75417Y143667D02*
X73418D01*
X72418Y142668D01*
Y138669D01*
X73418Y137669D01*
X75417D01*
X76417Y138669D01*
Y142668D01*
X75417Y143667D01*
X78416Y141668D02*
X80415Y137669D01*
X82415Y141668D01*
X87413Y137669D02*
X85414D01*
X84414Y138669D01*
Y140668D01*
X85414Y141668D01*
X87413D01*
X88413Y140668D01*
Y139669D01*
X84414D01*
X90412Y141668D02*
Y137669D01*
Y139669D01*
X91412Y140668D01*
X92412Y141668D01*
X93411D01*
X96410Y137669D02*
X98410D01*
X97410D01*
Y143667D01*
X96410D01*
X102408Y141668D02*
X104408D01*
X105407Y140668D01*
Y137669D01*
X102408D01*
X101409Y138669D01*
X102408Y139669D01*
X105407D01*
X107407Y141668D02*
Y138669D01*
X108406Y137669D01*
X111406D01*
Y136670D01*
X110406Y135670D01*
X109406D01*
X111406Y137669D02*
Y141668D01*
X32431Y155667D02*
Y149669D01*
X35430D01*
X36430Y150669D01*
Y151669D01*
X35430Y152668D01*
X32431D01*
X35430D01*
X36430Y153668D01*
Y154668D01*
X35430Y155667D01*
X32431D01*
X39429Y149669D02*
X41428D01*
X42428Y150669D01*
Y152668D01*
X41428Y153668D01*
X39429D01*
X38429Y152668D01*
Y150669D01*
X39429Y149669D01*
X45427Y154668D02*
Y153668D01*
X44427D01*
X46426D01*
X45427D01*
Y150669D01*
X46426Y149669D01*
X50425Y154668D02*
Y153668D01*
X49426D01*
X51425D01*
X50425D01*
Y150669D01*
X51425Y149669D01*
X55424D02*
X57423D01*
X58423Y150669D01*
Y152668D01*
X57423Y153668D01*
X55424D01*
X54424Y152668D01*
Y150669D01*
X55424Y149669D01*
X60422D02*
Y153668D01*
X61422D01*
X62421Y152668D01*
Y149669D01*
Y152668D01*
X63421Y153668D01*
X64421Y152668D01*
Y149669D01*
X76417Y154668D02*
X75417Y155667D01*
X73418D01*
X72418Y154668D01*
Y153668D01*
X73418Y152668D01*
X75417D01*
X76417Y151669D01*
Y150669D01*
X75417Y149669D01*
X73418D01*
X72418Y150669D01*
X79416Y149669D02*
X81415D01*
X82415Y150669D01*
Y152668D01*
X81415Y153668D01*
X79416D01*
X78416Y152668D01*
Y150669D01*
X79416Y149669D01*
X84414D02*
X86414D01*
X85414D01*
Y155667D01*
X84414D01*
X93411D02*
Y149669D01*
X90412D01*
X89413Y150669D01*
Y152668D01*
X90412Y153668D01*
X93411D01*
X98410Y149669D02*
X96410D01*
X95411Y150669D01*
Y152668D01*
X96410Y153668D01*
X98410D01*
X99409Y152668D01*
Y151669D01*
X95411D01*
X101409Y153668D02*
Y149669D01*
Y151669D01*
X102408Y152668D01*
X103408Y153668D01*
X104408D01*
X32431Y167667D02*
Y161669D01*
X35430D01*
X36430Y162669D01*
Y163669D01*
X35430Y164668D01*
X32431D01*
X35430D01*
X36430Y165668D01*
Y166668D01*
X35430Y167667D01*
X32431D01*
X39429Y161669D02*
X41428D01*
X42428Y162669D01*
Y164668D01*
X41428Y165668D01*
X39429D01*
X38429Y164668D01*
Y162669D01*
X39429Y161669D01*
X45427Y166668D02*
Y165668D01*
X44427D01*
X46426D01*
X45427D01*
Y162669D01*
X46426Y161669D01*
X50425Y166668D02*
Y165668D01*
X49426D01*
X51425D01*
X50425D01*
Y162669D01*
X51425Y161669D01*
X55424D02*
X57423D01*
X58423Y162669D01*
Y164668D01*
X57423Y165668D01*
X55424D01*
X54424Y164668D01*
Y162669D01*
X55424Y161669D01*
X60422D02*
Y165668D01*
X61422D01*
X62421Y164668D01*
Y161669D01*
Y164668D01*
X63421Y165668D01*
X64421Y164668D01*
Y161669D01*
X72418Y167667D02*
Y161669D01*
X76417D01*
X79416Y165668D02*
X81415D01*
X82415Y164668D01*
Y161669D01*
X79416D01*
X78416Y162669D01*
X79416Y163669D01*
X82415D01*
X84414Y165668D02*
Y162669D01*
X85414Y161669D01*
X88413D01*
Y160670D01*
X87413Y159670D01*
X86414D01*
X88413Y161669D02*
Y165668D01*
X93411Y161669D02*
X91412D01*
X90412Y162669D01*
Y164668D01*
X91412Y165668D01*
X93411D01*
X94411Y164668D01*
Y163669D01*
X90412D01*
X96410Y165668D02*
Y161669D01*
Y163669D01*
X97410Y164668D01*
X98410Y165668D01*
X99409D01*
X32431Y179667D02*
Y173669D01*
X35430D01*
X36430Y174669D01*
Y178668D01*
X35430Y179667D01*
X32431D01*
X38429Y173669D02*
X40429D01*
X39429D01*
Y177668D01*
X38429D01*
X46426Y173669D02*
X44427D01*
X43428Y174669D01*
Y176668D01*
X44427Y177668D01*
X46426D01*
X47426Y176668D01*
Y175669D01*
X43428D01*
X49426Y173669D02*
X51425D01*
X50425D01*
Y179667D01*
X49426D01*
X57423Y173669D02*
X55424D01*
X54424Y174669D01*
Y176668D01*
X55424Y177668D01*
X57423D01*
X58423Y176668D01*
Y175669D01*
X54424D01*
X64421Y177668D02*
X61422D01*
X60422Y176668D01*
Y174669D01*
X61422Y173669D01*
X64421D01*
X67420Y178668D02*
Y177668D01*
X66420D01*
X68419D01*
X67420D01*
Y174669D01*
X68419Y173669D01*
X71418Y177668D02*
Y173669D01*
Y175669D01*
X72418Y176668D01*
X73418Y177668D01*
X74418D01*
X77416Y173669D02*
X79416D01*
X78416D01*
Y177668D01*
X77416D01*
X86414D02*
X83415D01*
X82415Y176668D01*
Y174669D01*
X83415Y173669D01*
X86414D01*
X94411D02*
X96410D01*
X95411D01*
Y179667D01*
X94411Y178668D01*
X32431Y191667D02*
X36430D01*
X34430D01*
Y185669D01*
X39429D02*
X41428D01*
X42428Y186669D01*
Y188668D01*
X41428Y189668D01*
X39429D01*
X38429Y188668D01*
Y186669D01*
X39429Y185669D01*
X44427Y183670D02*
Y189668D01*
X47426D01*
X48426Y188668D01*
Y186669D01*
X47426Y185669D01*
X44427D01*
X56423Y191667D02*
Y185669D01*
X60422D01*
X63421Y189668D02*
X65420D01*
X66420Y188668D01*
Y185669D01*
X63421D01*
X62421Y186669D01*
X63421Y187669D01*
X66420D01*
X68419Y189668D02*
Y186669D01*
X69419Y185669D01*
X72418D01*
Y184670D01*
X71418Y183670D01*
X70419D01*
X72418Y185669D02*
Y189668D01*
X77416Y185669D02*
X75417D01*
X74418Y186669D01*
Y188668D01*
X75417Y189668D01*
X77416D01*
X78416Y188668D01*
Y187669D01*
X74418D01*
X80415Y189668D02*
Y185669D01*
Y187669D01*
X81415Y188668D01*
X82415Y189668D01*
X83415D01*
X32431Y203667D02*
X36430D01*
X34430D01*
Y197669D01*
X39429D02*
X41428D01*
X42428Y198669D01*
Y200668D01*
X41428Y201668D01*
X39429D01*
X38429Y200668D01*
Y198669D01*
X39429Y197669D01*
X44427Y195670D02*
Y201668D01*
X47426D01*
X48426Y200668D01*
Y198669D01*
X47426Y197669D01*
X44427D01*
X60422Y202668D02*
X59422Y203667D01*
X57423D01*
X56423Y202668D01*
Y201668D01*
X57423Y200668D01*
X59422D01*
X60422Y199669D01*
Y198669D01*
X59422Y197669D01*
X57423D01*
X56423Y198669D01*
X63421Y197669D02*
X65420D01*
X66420Y198669D01*
Y200668D01*
X65420Y201668D01*
X63421D01*
X62421Y200668D01*
Y198669D01*
X63421Y197669D01*
X68419D02*
X70419D01*
X69419D01*
Y203667D01*
X68419D01*
X77416D02*
Y197669D01*
X74418D01*
X73418Y198669D01*
Y200668D01*
X74418Y201668D01*
X77416D01*
X82415Y197669D02*
X80415D01*
X79416Y198669D01*
Y200668D01*
X80415Y201668D01*
X82415D01*
X83415Y200668D01*
Y199669D01*
X79416D01*
X85414Y201668D02*
Y197669D01*
Y199669D01*
X86414Y200668D01*
X87413Y201668D01*
X88413D01*
X32431Y215667D02*
X36430D01*
X34430D01*
Y209669D01*
X39429D02*
X41428D01*
X42428Y210669D01*
Y212668D01*
X41428Y213668D01*
X39429D01*
X38429Y212668D01*
Y210669D01*
X39429Y209669D01*
X44427Y207670D02*
Y213668D01*
X47426D01*
X48426Y212668D01*
Y210669D01*
X47426Y209669D01*
X44427D01*
X59422Y215667D02*
X57423D01*
X56423Y214668D01*
Y210669D01*
X57423Y209669D01*
X59422D01*
X60422Y210669D01*
Y214668D01*
X59422Y215667D01*
X62421Y213668D02*
X64421Y209669D01*
X66420Y213668D01*
X71418Y209669D02*
X69419D01*
X68419Y210669D01*
Y212668D01*
X69419Y213668D01*
X71418D01*
X72418Y212668D01*
Y211669D01*
X68419D01*
X74418Y213668D02*
Y209669D01*
Y211669D01*
X75417Y212668D01*
X76417Y213668D01*
X77416D01*
X80415Y209669D02*
X82415D01*
X81415D01*
Y215667D01*
X80415D01*
X86414Y213668D02*
X88413D01*
X89413Y212668D01*
Y209669D01*
X86414D01*
X85414Y210669D01*
X86414Y211669D01*
X89413D01*
X91412Y213668D02*
Y210669D01*
X92412Y209669D01*
X95411D01*
Y208670D01*
X94411Y207670D01*
X93411D01*
X95411Y209669D02*
Y213668D01*
X125406Y221669D02*
Y227667D01*
X127405Y225668D01*
X129404Y227667D01*
Y221669D01*
X132403Y225668D02*
X134403D01*
X135402Y224668D01*
Y221669D01*
X132403D01*
X131404Y222669D01*
X132403Y223669D01*
X135402D01*
X138401Y226668D02*
Y225668D01*
X137402D01*
X139401D01*
X138401D01*
Y222669D01*
X139401Y221669D01*
X145399D02*
X143400D01*
X142400Y222669D01*
Y224668D01*
X143400Y225668D01*
X145399D01*
X146399Y224668D01*
Y223669D01*
X142400D01*
X148398Y225668D02*
Y221669D01*
Y223669D01*
X149398Y224668D01*
X150397Y225668D01*
X151397D01*
X154396Y221669D02*
X156395D01*
X155396D01*
Y225668D01*
X154396D01*
X160394D02*
X162393D01*
X163393Y224668D01*
Y221669D01*
X160394D01*
X159395Y222669D01*
X160394Y223669D01*
X163393D01*
X165393Y221669D02*
X167392D01*
X166392D01*
Y227667D01*
X165393D01*
X129404Y154668D02*
X128404Y155667D01*
X126405D01*
X125406Y154668D01*
Y153668D01*
X126405Y152668D01*
X128404D01*
X129404Y151669D01*
Y150669D01*
X128404Y149669D01*
X126405D01*
X125406Y150669D01*
X132403Y149669D02*
X134403D01*
X135402Y150669D01*
Y152668D01*
X134403Y153668D01*
X132403D01*
X131404Y152668D01*
Y150669D01*
X132403Y149669D01*
X137402D02*
X139401D01*
X138401D01*
Y155667D01*
X137402D01*
X146399D02*
Y149669D01*
X143400D01*
X142400Y150669D01*
Y152668D01*
X143400Y153668D01*
X146399D01*
X151397Y149669D02*
X149398D01*
X148398Y150669D01*
Y152668D01*
X149398Y153668D01*
X151397D01*
X152397Y152668D01*
Y151669D01*
X148398D01*
X154396Y153668D02*
Y149669D01*
Y151669D01*
X155396Y152668D01*
X156395Y153668D01*
X157395D01*
X166392Y149669D02*
Y155667D01*
X169391D01*
X170391Y154668D01*
Y152668D01*
X169391Y151669D01*
X166392D01*
X168392D02*
X170391Y149669D01*
X175389D02*
X173390D01*
X172390Y150669D01*
Y152668D01*
X173390Y153668D01*
X175389D01*
X176389Y152668D01*
Y151669D01*
X172390D01*
X178388Y149669D02*
X181387D01*
X182387Y150669D01*
X181387Y151669D01*
X179388D01*
X178388Y152668D01*
X179388Y153668D01*
X182387D01*
X184386Y149669D02*
X186386D01*
X185386D01*
Y153668D01*
X184386D01*
X189385Y149669D02*
X192384D01*
X193384Y150669D01*
X192384Y151669D01*
X190384D01*
X189385Y152668D01*
X190384Y153668D01*
X193384D01*
X196382Y154668D02*
Y153668D01*
X195383D01*
X197382D01*
X196382D01*
Y150669D01*
X197382Y149669D01*
X129404Y166668D02*
X128404Y167667D01*
X126405D01*
X125406Y166668D01*
Y162669D01*
X126405Y161669D01*
X128404D01*
X129404Y162669D01*
X132403Y161669D02*
X134403D01*
X135402Y162669D01*
Y164668D01*
X134403Y165668D01*
X132403D01*
X131404Y164668D01*
Y162669D01*
X132403Y161669D01*
X137402Y159670D02*
Y165668D01*
X140401D01*
X141400Y164668D01*
Y162669D01*
X140401Y161669D01*
X137402D01*
X143400Y159670D02*
Y165668D01*
X146399D01*
X147398Y164668D01*
Y162669D01*
X146399Y161669D01*
X143400D01*
X152397D02*
X150397D01*
X149398Y162669D01*
Y164668D01*
X150397Y165668D01*
X152397D01*
X153396Y164668D01*
Y163669D01*
X149398D01*
X155396Y165668D02*
Y161669D01*
Y163669D01*
X156395Y164668D01*
X157395Y165668D01*
X158395D01*
X129404Y179667D02*
X125406D01*
Y176668D01*
X127405D01*
X125406D01*
Y173669D01*
X131404D02*
Y179667D01*
X134403D01*
X135402Y178668D01*
Y176668D01*
X134403Y175669D01*
X131404D01*
X133403D02*
X135402Y173669D01*
X137402Y176668D02*
X141400D01*
X146399Y173669D02*
Y179667D01*
X143400Y176668D01*
X147398D01*
X129404Y190668D02*
X128404Y191667D01*
X126405D01*
X125406Y190668D01*
Y186669D01*
X126405Y185669D01*
X128404D01*
X129404Y186669D01*
X132403Y185669D02*
X134403D01*
X135402Y186669D01*
Y188668D01*
X134403Y189668D01*
X132403D01*
X131404Y188668D01*
Y186669D01*
X132403Y185669D01*
X137402Y183670D02*
Y189668D01*
X140401D01*
X141400Y188668D01*
Y186669D01*
X140401Y185669D01*
X137402D01*
X143400Y183670D02*
Y189668D01*
X146399D01*
X147398Y188668D01*
Y186669D01*
X146399Y185669D01*
X143400D01*
X152397D02*
X150397D01*
X149398Y186669D01*
Y188668D01*
X150397Y189668D01*
X152397D01*
X153396Y188668D01*
Y187669D01*
X149398D01*
X155396Y189668D02*
Y185669D01*
Y187669D01*
X156395Y188668D01*
X157395Y189668D01*
X158395D01*
X129404Y202668D02*
X128404Y203667D01*
X126405D01*
X125406Y202668D01*
Y201668D01*
X126405Y200668D01*
X128404D01*
X129404Y199669D01*
Y198669D01*
X128404Y197669D01*
X126405D01*
X125406Y198669D01*
X132403Y197669D02*
X134403D01*
X135402Y198669D01*
Y200668D01*
X134403Y201668D01*
X132403D01*
X131404Y200668D01*
Y198669D01*
X132403Y197669D01*
X137402D02*
X139401D01*
X138401D01*
Y203667D01*
X137402D01*
X146399D02*
Y197669D01*
X143400D01*
X142400Y198669D01*
Y200668D01*
X143400Y201668D01*
X146399D01*
X151397Y197669D02*
X149398D01*
X148398Y198669D01*
Y200668D01*
X149398Y201668D01*
X151397D01*
X152397Y200668D01*
Y199669D01*
X148398D01*
X154396Y201668D02*
Y197669D01*
Y199669D01*
X155396Y200668D01*
X156395Y201668D01*
X157395D01*
X166392Y197669D02*
Y203667D01*
X169391D01*
X170391Y202668D01*
Y200668D01*
X169391Y199669D01*
X166392D01*
X168392D02*
X170391Y197669D01*
X175389D02*
X173390D01*
X172390Y198669D01*
Y200668D01*
X173390Y201668D01*
X175389D01*
X176389Y200668D01*
Y199669D01*
X172390D01*
X178388Y197669D02*
X181387D01*
X182387Y198669D01*
X181387Y199669D01*
X179388D01*
X178388Y200668D01*
X179388Y201668D01*
X182387D01*
X184386Y197669D02*
X186386D01*
X185386D01*
Y201668D01*
X184386D01*
X189385Y197669D02*
X192384D01*
X193384Y198669D01*
X192384Y199669D01*
X190384D01*
X189385Y200668D01*
X190384Y201668D01*
X193384D01*
X196382Y202668D02*
Y201668D01*
X195383D01*
X197382D01*
X196382D01*
Y198669D01*
X197382Y197669D01*
X211382Y227667D02*
X215381D01*
X213382D01*
Y221669D01*
X217380Y227667D02*
Y221669D01*
Y224668D01*
X218380Y225668D01*
X220379D01*
X221379Y224668D01*
Y221669D01*
X223378D02*
X225378D01*
X224378D01*
Y225668D01*
X223378D01*
X232375D02*
X229376D01*
X228377Y224668D01*
Y222669D01*
X229376Y221669D01*
X232375D01*
X234375D02*
Y227667D01*
Y223669D02*
X237374Y225668D01*
X234375Y223669D02*
X237374Y221669D01*
X240373D02*
Y225668D01*
X243372D01*
X244372Y224668D01*
Y221669D01*
X249370D02*
X247371D01*
X246371Y222669D01*
Y224668D01*
X247371Y225668D01*
X249370D01*
X250370Y224668D01*
Y223669D01*
X246371D01*
X252369Y221669D02*
X255368D01*
X256368Y222669D01*
X255368Y223669D01*
X253369D01*
X252369Y224668D01*
X253369Y225668D01*
X256368D01*
X258367Y221669D02*
X261366D01*
X262366Y222669D01*
X261366Y223669D01*
X259367D01*
X258367Y224668D01*
X259367Y225668D01*
X262366D01*
X211382Y154668D02*
X212382Y155667D01*
X214381D01*
X215381Y154668D01*
Y150669D01*
X214381Y149669D01*
X212382D01*
X211382Y150669D01*
Y154668D01*
X217380Y149669D02*
Y150669D01*
X218380D01*
Y149669D01*
X217380D01*
X225378D02*
Y155667D01*
X222379Y152668D01*
X226377D01*
X228377Y154668D02*
X229376Y155667D01*
X231376D01*
X232375Y154668D01*
Y150669D01*
X231376Y149669D01*
X229376D01*
X228377Y150669D01*
Y154668D01*
X234375Y149669D02*
Y153668D01*
X235374D01*
X236374Y152668D01*
Y149669D01*
Y152668D01*
X237374Y153668D01*
X238373Y152668D01*
Y149669D01*
X240373D02*
X242372D01*
X241372D01*
Y153668D01*
X240373D01*
X245371Y149669D02*
X247371D01*
X246371D01*
Y155667D01*
X245371D01*
X211382Y161669D02*
X213382D01*
X212382D01*
Y167667D01*
X211382Y166668D01*
X216381Y161669D02*
Y162669D01*
X217380D01*
Y161669D01*
X216381D01*
X224378D02*
Y167667D01*
X221379Y164668D01*
X225378D01*
X227377Y166668D02*
X228377Y167667D01*
X230376D01*
X231376Y166668D01*
Y162669D01*
X230376Y161669D01*
X228377D01*
X227377Y162669D01*
Y166668D01*
X233375Y161669D02*
Y165668D01*
X234375D01*
X235374Y164668D01*
Y161669D01*
Y164668D01*
X236374Y165668D01*
X237374Y164668D01*
Y161669D01*
X239373D02*
X241372D01*
X240373D01*
Y165668D01*
X239373D01*
X244372Y161669D02*
X246371D01*
X245371D01*
Y167667D01*
X244372D01*
X215381Y179667D02*
X211382D01*
Y176668D01*
X213382Y177668D01*
X214381D01*
X215381Y176668D01*
Y174669D01*
X214381Y173669D01*
X212382D01*
X211382Y174669D01*
X217380D02*
X218380Y173669D01*
X220379D01*
X221379Y174669D01*
Y178668D01*
X220379Y179667D01*
X218380D01*
X217380Y178668D01*
Y177668D01*
X218380Y176668D01*
X221379D01*
X223378Y173669D02*
Y174669D01*
X224378D01*
Y173669D01*
X223378D01*
X228377Y178668D02*
X229376Y179667D01*
X231376D01*
X232375Y178668D01*
Y174669D01*
X231376Y173669D01*
X229376D01*
X228377Y174669D01*
Y178668D01*
X238373Y179667D02*
X236374Y178668D01*
X234375Y176668D01*
Y174669D01*
X235374Y173669D01*
X237374D01*
X238373Y174669D01*
Y175669D01*
X237374Y176668D01*
X234375D01*
X240373Y173669D02*
Y177668D01*
X241372D01*
X242372Y176668D01*
Y173669D01*
Y176668D01*
X243372Y177668D01*
X244372Y176668D01*
Y173669D01*
X246371D02*
X248370D01*
X247371D01*
Y177668D01*
X246371D01*
X251369Y173669D02*
X253369D01*
X252369D01*
Y179667D01*
X251369D01*
X211382Y185669D02*
X213382D01*
X212382D01*
Y191667D01*
X211382Y190668D01*
X216381Y185669D02*
Y186669D01*
X217380D01*
Y185669D01*
X216381D01*
X224378D02*
Y191667D01*
X221379Y188668D01*
X225378D01*
X227377Y190668D02*
X228377Y191667D01*
X230376D01*
X231376Y190668D01*
Y186669D01*
X230376Y185669D01*
X228377D01*
X227377Y186669D01*
Y190668D01*
X233375Y185669D02*
Y189668D01*
X234375D01*
X235374Y188668D01*
Y185669D01*
Y188668D01*
X236374Y189668D01*
X237374Y188668D01*
Y185669D01*
X239373D02*
X241372D01*
X240373D01*
Y189668D01*
X239373D01*
X244372Y185669D02*
X246371D01*
X245371D01*
Y191667D01*
X244372D01*
X211382Y202668D02*
X212382Y203667D01*
X214381D01*
X215381Y202668D01*
Y198669D01*
X214381Y197669D01*
X212382D01*
X211382Y198669D01*
Y202668D01*
X217380Y197669D02*
Y198669D01*
X218380D01*
Y197669D01*
X217380D01*
X225378D02*
Y203667D01*
X222379Y200668D01*
X226377D01*
X228377Y202668D02*
X229376Y203667D01*
X231376D01*
X232375Y202668D01*
Y198669D01*
X231376Y197669D01*
X229376D01*
X228377Y198669D01*
Y202668D01*
X234375Y197669D02*
Y201668D01*
X235374D01*
X236374Y200668D01*
Y197669D01*
Y200668D01*
X237374Y201668D01*
X238373Y200668D01*
Y197669D01*
X240373D02*
X242372D01*
X241372D01*
Y201668D01*
X240373D01*
X245371Y197669D02*
X247371D01*
X246371D01*
Y203667D01*
X245371D01*
X280364Y226668D02*
X279365Y227667D01*
X277365D01*
X276366Y226668D01*
Y222669D01*
X277365Y221669D01*
X279365D01*
X280364Y222669D01*
X283364Y221669D02*
X285363D01*
X286363Y222669D01*
Y224668D01*
X285363Y225668D01*
X283364D01*
X282364Y224668D01*
Y222669D01*
X283364Y221669D01*
X288362D02*
Y225668D01*
X291361D01*
X292361Y224668D01*
Y221669D01*
X294360D02*
X297359D01*
X298359Y222669D01*
X297359Y223669D01*
X295360D01*
X294360Y224668D01*
X295360Y225668D01*
X298359D01*
X301358Y226668D02*
Y225668D01*
X300358D01*
X302357D01*
X301358D01*
Y222669D01*
X302357Y221669D01*
X306356Y225668D02*
X308355D01*
X309355Y224668D01*
Y221669D01*
X306356D01*
X305356Y222669D01*
X306356Y223669D01*
X309355D01*
X311354Y221669D02*
Y225668D01*
X314353D01*
X315353Y224668D01*
Y221669D01*
X318352Y226668D02*
Y225668D01*
X317353D01*
X319352D01*
X318352D01*
Y222669D01*
X319352Y221669D01*
X276366Y154668D02*
X277365Y155667D01*
X279365D01*
X280364Y154668D01*
Y153668D01*
X279365Y152668D01*
X278365D01*
X279365D01*
X280364Y151669D01*
Y150669D01*
X279365Y149669D01*
X277365D01*
X276366Y150669D01*
X282364Y149669D02*
Y150669D01*
X283364D01*
Y149669D01*
X282364D01*
X287362Y154668D02*
X288362Y155667D01*
X290361D01*
X291361Y154668D01*
Y153668D01*
X290361Y152668D01*
X291361Y151669D01*
Y150669D01*
X290361Y149669D01*
X288362D01*
X287362Y150669D01*
Y151669D01*
X288362Y152668D01*
X287362Y153668D01*
Y154668D01*
X288362Y152668D02*
X290361D01*
X279365Y173669D02*
Y179667D01*
X276366Y176668D01*
X280364D01*
X282364Y173669D02*
Y174669D01*
X283364D01*
Y173669D01*
X282364D01*
X291361Y179667D02*
X287362D01*
Y176668D01*
X289362Y177668D01*
X290361D01*
X291361Y176668D01*
Y174669D01*
X290361Y173669D01*
X288362D01*
X287362Y174669D01*
X276366Y202668D02*
X277365Y203667D01*
X279365D01*
X280364Y202668D01*
Y201668D01*
X279365Y200668D01*
X278365D01*
X279365D01*
X280364Y199669D01*
Y198669D01*
X279365Y197669D01*
X277365D01*
X276366Y198669D01*
X282364Y197669D02*
Y198669D01*
X283364D01*
Y197669D01*
X282364D01*
X287362Y202668D02*
X288362Y203667D01*
X290361D01*
X291361Y202668D01*
Y201668D01*
X290361Y200668D01*
X291361Y199669D01*
Y198669D01*
X290361Y197669D01*
X288362D01*
X287362Y198669D01*
Y199669D01*
X288362Y200668D01*
X287362Y201668D01*
Y202668D01*
X288362Y200668D02*
X290361D01*
X333352Y227667D02*
Y221669D01*
X336351D01*
X337351Y222669D01*
Y223669D01*
X336351Y224668D01*
X333352D01*
X336351D01*
X337351Y225668D01*
Y226668D01*
X336351Y227667D01*
X333352D01*
X340350Y221669D02*
X342349D01*
X343349Y222669D01*
Y224668D01*
X342349Y225668D01*
X340350D01*
X339350Y224668D01*
Y222669D01*
X340350Y221669D01*
X346348Y225668D02*
X348347D01*
X349347Y224668D01*
Y221669D01*
X346348D01*
X345348Y222669D01*
X346348Y223669D01*
X349347D01*
X351346Y225668D02*
Y221669D01*
Y223669D01*
X352346Y224668D01*
X353345Y225668D01*
X354345D01*
X361343Y227667D02*
Y221669D01*
X358344D01*
X357344Y222669D01*
Y224668D01*
X358344Y225668D01*
X361343D01*
X369340Y227667D02*
Y221669D01*
X373339D01*
X376338Y225668D02*
X378337D01*
X379337Y224668D01*
Y221669D01*
X376338D01*
X375338Y222669D01*
X376338Y223669D01*
X379337D01*
X381336Y225668D02*
Y222669D01*
X382336Y221669D01*
X385335D01*
Y220670D01*
X384335Y219670D01*
X383336D01*
X385335Y221669D02*
Y225668D01*
X390333Y221669D02*
X388334D01*
X387334Y222669D01*
Y224668D01*
X388334Y225668D01*
X390333D01*
X391333Y224668D01*
Y223669D01*
X387334D01*
X393332Y225668D02*
Y221669D01*
Y223669D01*
X394332Y224668D01*
X395332Y225668D01*
X396331D01*
X409327Y226668D02*
X408328Y227667D01*
X406328D01*
X405329Y226668D01*
Y225668D01*
X406328Y224668D01*
X408328D01*
X409327Y223669D01*
Y222669D01*
X408328Y221669D01*
X406328D01*
X405329Y222669D01*
X412326Y226668D02*
Y225668D01*
X411327D01*
X413326D01*
X412326D01*
Y222669D01*
X413326Y221669D01*
X417325Y225668D02*
X419324D01*
X420324Y224668D01*
Y221669D01*
X417325D01*
X416325Y222669D01*
X417325Y223669D01*
X420324D01*
X426322Y225668D02*
X423323D01*
X422323Y224668D01*
Y222669D01*
X423323Y221669D01*
X426322D01*
X428321D02*
Y227667D01*
Y223669D02*
X431320Y225668D01*
X428321Y223669D02*
X431320Y221669D01*
D13*
X88090Y48743D02*
X98917D01*
X88090Y54058D02*
X98917D01*
X88090Y56322D02*
X98917D01*
X88090Y61637D02*
X98917D01*
D14*
X168902Y4007D02*
X169013D01*
X155540D02*
X155651D01*
X168827Y4044D02*
X169087D01*
X155465D02*
X155725D01*
X168790Y4081D02*
X169124D01*
X155428D02*
X155799D01*
X168716Y4118D02*
X169161D01*
X155391D02*
X155836D01*
X168679Y4156D02*
X169199D01*
X155354D02*
X155874D01*
X168605Y4193D02*
X169236D01*
X155317D02*
X155948D01*
X168568Y4230D02*
X169273D01*
X155280D02*
X155985D01*
X168493Y4267D02*
X169310D01*
X155243D02*
X156059D01*
X168456Y4304D02*
X169347D01*
X155205D02*
X156096D01*
X168382Y4341D02*
X169384D01*
X155168D02*
X156170D01*
X168345Y4378D02*
X169421D01*
X155131D02*
X156208D01*
X168308Y4416D02*
X169458D01*
X155094D02*
X156282D01*
X168234Y4453D02*
X169496D01*
X155057D02*
X156319D01*
X168196Y4490D02*
X169533D01*
X155020D02*
X156393D01*
X168122Y4527D02*
X169570D01*
X154983D02*
X156430D01*
X168085Y4564D02*
X169607D01*
X154946D02*
X156504D01*
X168011Y4601D02*
X169644D01*
X154909D02*
X156542D01*
X167974Y4638D02*
X169681D01*
X154871D02*
X156579D01*
X167900Y4675D02*
X169718D01*
X154834D02*
X156653D01*
X167862Y4712D02*
X169755D01*
X154797D02*
X156690D01*
X167788Y4750D02*
X169792D01*
X154760D02*
X156764D01*
X167751Y4787D02*
X169830D01*
X154723D02*
X156801D01*
X167714Y4824D02*
X169867D01*
X154686D02*
X156876D01*
X167640Y4861D02*
X169904D01*
X154649D02*
X156913D01*
X167603Y4898D02*
X169941D01*
X154612D02*
X156987D01*
X167528Y4935D02*
X169978D01*
X154575D02*
X157024D01*
X167491Y4972D02*
X170015D01*
X154537D02*
X157098D01*
X167417Y5009D02*
X170052D01*
X165450D02*
X165635D01*
X158917D02*
X159103D01*
X154500D02*
X157135D01*
X167380Y5046D02*
X170089D01*
X165413D02*
X165710D01*
X158843D02*
X159140D01*
X154463D02*
X157173D01*
X167306Y5084D02*
X170127D01*
X165413D02*
X165784D01*
X158806D02*
X159140D01*
X154426D02*
X157247D01*
X167269Y5121D02*
X170164D01*
X165376D02*
X165858D01*
X158732D02*
X159177D01*
X154389D02*
X157284D01*
X167194Y5158D02*
X170201D01*
X165376D02*
X165895D01*
X158657D02*
X159177D01*
X154352D02*
X157358D01*
X167157Y5195D02*
X170238D01*
X165376D02*
X165970D01*
X158583D02*
X159214D01*
X154315D02*
X157395D01*
X167120Y5232D02*
X170275D01*
X165339D02*
X166044D01*
X158509D02*
X159214D01*
X154278D02*
X157470D01*
X167046Y5269D02*
X170312D01*
X165339D02*
X166118D01*
X158435D02*
X159251D01*
X154240D02*
X157507D01*
X167009Y5306D02*
X170349D01*
X165301D02*
X166192D01*
X158360D02*
X159251D01*
X154203D02*
X157581D01*
X166935Y5343D02*
X170386D01*
X165301D02*
X166266D01*
X158286D02*
X159251D01*
X154166D02*
X157618D01*
X166897Y5381D02*
X170423D01*
X165264D02*
X166341D01*
X158249D02*
X159288D01*
X154129D02*
X157692D01*
X166823Y5418D02*
X170461D01*
X165264D02*
X166415D01*
X158175D02*
X159288D01*
X154092D02*
X157729D01*
X166786Y5455D02*
X170498D01*
X165264D02*
X166452D01*
X158101D02*
X159326D01*
X154055D02*
X157766D01*
X166712Y5492D02*
X170535D01*
X165227D02*
X166526D01*
X158026D02*
X159326D01*
X154018D02*
X157841D01*
X165227Y5529D02*
X170572D01*
X153981D02*
X159326D01*
X165190Y5566D02*
X170609D01*
X153944D02*
X159363D01*
X165190Y5603D02*
X170646D01*
X153906D02*
X159363D01*
X165190Y5640D02*
X170683D01*
X153869D02*
X159400D01*
X165153Y5677D02*
X170721D01*
X153832D02*
X159400D01*
X165153Y5715D02*
X170758D01*
X153795D02*
X159400D01*
X165116Y5752D02*
X170795D01*
X153758D02*
X159437D01*
X165116Y5789D02*
X170832D01*
X153721D02*
X159437D01*
X165116Y5826D02*
X170869D01*
X153684D02*
X159474D01*
X165079Y5863D02*
X170906D01*
X153647D02*
X159474D01*
X165079Y5900D02*
X170943D01*
X153609D02*
X159511D01*
X165041Y5937D02*
X170980D01*
X153572D02*
X159511D01*
X165041Y5974D02*
X171017D01*
X153535D02*
X159511D01*
X165004Y6011D02*
X171054D01*
X153498D02*
X159548D01*
X165004Y6049D02*
X171092D01*
X153498D02*
X159548D01*
X165004Y6086D02*
X171092D01*
X153461D02*
X159585D01*
X164967Y6123D02*
X171092D01*
X153461D02*
X159585D01*
X164967Y6160D02*
X171092D01*
X153461D02*
X159585D01*
X164930Y6197D02*
X171092D01*
X153498D02*
X159622D01*
X164930Y6234D02*
X171054D01*
X153498D02*
X159622D01*
X164930Y6271D02*
X171017D01*
X153535D02*
X159660D01*
X164893Y6308D02*
X171017D01*
X153535D02*
X159660D01*
X164893Y6346D02*
X170980D01*
X153572D02*
X159697D01*
X164856Y6383D02*
X170943D01*
X153609D02*
X159697D01*
X164856Y6420D02*
X170943D01*
X153647D02*
X159697D01*
X164819Y6457D02*
X170906D01*
X153647D02*
X159734D01*
X164819Y6494D02*
X170869D01*
X153684D02*
X159734D01*
X164819Y6531D02*
X170869D01*
X153721D02*
X159771D01*
X164782Y6568D02*
X170832D01*
X153721D02*
X159771D01*
X164782Y6605D02*
X170795D01*
X153758D02*
X159771D01*
X164745Y6643D02*
X170795D01*
X153795D02*
X159808D01*
X164745Y6680D02*
X170758D01*
X153795D02*
X159808D01*
X164745Y6717D02*
X170721D01*
X153832D02*
X159845D01*
X164708Y6754D02*
X170721D01*
X153869D02*
X159845D01*
X164708Y6791D02*
X170683D01*
X153869D02*
X159845D01*
X164670Y6828D02*
X170646D01*
X153906D02*
X159882D01*
X164670Y6865D02*
X170609D01*
X153944D02*
X159882D01*
X164670Y6902D02*
X170609D01*
X153944D02*
X159919D01*
X164633Y6939D02*
X170572D01*
X153981D02*
X159919D01*
X164633Y6977D02*
X170535D01*
X154018D02*
X159957D01*
X164596Y7014D02*
X170535D01*
X154055D02*
X159957D01*
X164596Y7051D02*
X170498D01*
X154055D02*
X159957D01*
X164559Y7088D02*
X170461D01*
X154092D02*
X159994D01*
X164559Y7125D02*
X170461D01*
X154129D02*
X159994D01*
X164559Y7162D02*
X170423D01*
X154129D02*
X160031D01*
X164522Y7199D02*
X170386D01*
X154166D02*
X160031D01*
X164522Y7236D02*
X170386D01*
X154203D02*
X160031D01*
X164485Y7273D02*
X170349D01*
X154203D02*
X160068D01*
X164485Y7311D02*
X170312D01*
X154240D02*
X160068D01*
X164485Y7348D02*
X170312D01*
X154278D02*
X160105D01*
X164448Y7385D02*
X170275D01*
X154278D02*
X160105D01*
X164448Y7422D02*
X170238D01*
X154315D02*
X160142D01*
X164410Y7459D02*
X170238D01*
X154352D02*
X160142D01*
X164410Y7496D02*
X170201D01*
X154352D02*
X160142D01*
X164373Y7533D02*
X170164D01*
X154389D02*
X160179D01*
X164373Y7570D02*
X170127D01*
X154426D02*
X160179D01*
X164373Y7608D02*
X170127D01*
X154426D02*
X160216D01*
X164336Y7645D02*
X170089D01*
X154463D02*
X160216D01*
X164336Y7682D02*
X170052D01*
X154500D02*
X160216D01*
X164299Y7719D02*
X170052D01*
X154537D02*
X160253D01*
X164299Y7756D02*
X170015D01*
X154537D02*
X160253D01*
X164299Y7793D02*
X169978D01*
X154575D02*
X160291D01*
X164262Y7830D02*
X169978D01*
X154612D02*
X160291D01*
X164262Y7867D02*
X169941D01*
X154612D02*
X160291D01*
X164225Y7904D02*
X169904D01*
X154649D02*
X160328D01*
X164225Y7942D02*
X169904D01*
X154686D02*
X160328D01*
X164225Y7979D02*
X169867D01*
X154686D02*
X160365D01*
X164188Y8016D02*
X169830D01*
X154723D02*
X160365D01*
X164188Y8053D02*
X169830D01*
X154760D02*
X160402D01*
X164151Y8090D02*
X169792D01*
X154760D02*
X160402D01*
X164151Y8127D02*
X169755D01*
X154797D02*
X160402D01*
X164114Y8164D02*
X169718D01*
X154834D02*
X160439D01*
X164114Y8201D02*
X169718D01*
X154834D02*
X160439D01*
X164114Y8239D02*
X169681D01*
X154871D02*
X160476D01*
X164076Y8276D02*
X169644D01*
X154909D02*
X160476D01*
X164076Y8313D02*
X169644D01*
X154946D02*
X160476D01*
X164039Y8350D02*
X169607D01*
X154946D02*
X160513D01*
X164039Y8387D02*
X169570D01*
X154983D02*
X160513D01*
X164039Y8424D02*
X169570D01*
X155020D02*
X160550D01*
X164002Y8461D02*
X169533D01*
X155020D02*
X160550D01*
X164002Y8498D02*
X169533D01*
X155020D02*
X160587D01*
X163965Y8535D02*
X169533D01*
X155020D02*
X160587D01*
X163965Y8573D02*
X169570D01*
X155020D02*
X160587D01*
X163928Y8610D02*
X169570D01*
X154983D02*
X160625D01*
X163928Y8647D02*
X169570D01*
X154983D02*
X160625D01*
X163928Y8684D02*
X169607D01*
X154983D02*
X160662D01*
X163891Y8721D02*
X169607D01*
X154946D02*
X160662D01*
X163891Y8758D02*
X169644D01*
X154946D02*
X160662D01*
X163854Y8795D02*
X169644D01*
X154909D02*
X160699D01*
X163854Y8832D02*
X169644D01*
X154909D02*
X160699D01*
X163854Y8869D02*
X169681D01*
X154909D02*
X160736D01*
X163817Y8907D02*
X169681D01*
X154871D02*
X160736D01*
X163817Y8944D02*
X169718D01*
X154871D02*
X160736D01*
X163779Y8981D02*
X169718D01*
X154834D02*
X160773D01*
X163779Y9018D02*
X169718D01*
X154834D02*
X160773D01*
X163779Y9055D02*
X169755D01*
X154834D02*
X160810D01*
X163742Y9092D02*
X169755D01*
X154797D02*
X160810D01*
X163742Y9129D02*
X169792D01*
X154797D02*
X160847D01*
X163705Y9166D02*
X169792D01*
X154760D02*
X160847D01*
X163705Y9204D02*
X169792D01*
X154760D02*
X160847D01*
X163668Y9241D02*
X169830D01*
X154760D02*
X160884D01*
X163668Y9278D02*
X169830D01*
X154723D02*
X160884D01*
X163668Y9315D02*
X169867D01*
X154723D02*
X160922D01*
X163631Y9352D02*
X169867D01*
X154686D02*
X160922D01*
X163631Y9389D02*
X169867D01*
X154686D02*
X160922D01*
X163594Y9426D02*
X169904D01*
X154686D02*
X160959D01*
X163594Y9463D02*
X169904D01*
X154649D02*
X160959D01*
X163594Y9500D02*
X169941D01*
X154649D02*
X160996D01*
X163557Y9538D02*
X169941D01*
X154612D02*
X160996D01*
X163557Y9575D02*
X169941D01*
X154612D02*
X161033D01*
X163520Y9612D02*
X169978D01*
X154612D02*
X161033D01*
X163520Y9649D02*
X169978D01*
X154575D02*
X161033D01*
X163483Y9686D02*
X170015D01*
X154575D02*
X161070D01*
X163483Y9723D02*
X170015D01*
X154537D02*
X161070D01*
X163483Y9760D02*
X170015D01*
X154537D02*
X161107D01*
X163445Y9798D02*
X170052D01*
X154537D02*
X161107D01*
X163445Y9835D02*
X170052D01*
X154500D02*
X161107D01*
X163483Y9872D02*
X170089D01*
X154500D02*
X161107D01*
X163483Y9909D02*
X170089D01*
X154463D02*
X161070D01*
X163520Y9946D02*
X170089D01*
X154463D02*
X161070D01*
X163557Y9983D02*
X170127D01*
X154463D02*
X160996D01*
X163631Y10020D02*
X170127D01*
X154426D02*
X160959D01*
X163668Y10057D02*
X170164D01*
X154426D02*
X160884D01*
X163742Y10094D02*
X170164D01*
X154389D02*
X160810D01*
X163779Y10131D02*
X170164D01*
X154389D02*
X160773D01*
X163854Y10169D02*
X170201D01*
X154389D02*
X160699D01*
X163891Y10206D02*
X170201D01*
X154352D02*
X160662D01*
X163928Y10243D02*
X170238D01*
X154352D02*
X160625D01*
X164002Y10280D02*
X170238D01*
X154315D02*
X160550D01*
X164039Y10317D02*
X170238D01*
X154315D02*
X160513D01*
X164114Y10354D02*
X170275D01*
X154315D02*
X160476D01*
X164151Y10391D02*
X170275D01*
X154278D02*
X160402D01*
X164188Y10429D02*
X170312D01*
X154278D02*
X160365D01*
X164225Y10466D02*
X170312D01*
X154240D02*
X160328D01*
X164299Y10503D02*
X170312D01*
X154240D02*
X160291D01*
X164336Y10540D02*
X170349D01*
X154240D02*
X160253D01*
X164373Y10577D02*
X170349D01*
X154203D02*
X160179D01*
X164410Y10614D02*
X170386D01*
X154203D02*
X160142D01*
X164448Y10651D02*
X170386D01*
X154166D02*
X160105D01*
X164485Y10688D02*
X170423D01*
X154166D02*
X160068D01*
X164522Y10725D02*
X170461D01*
X154129D02*
X160031D01*
X164559Y10763D02*
X170498D01*
X154055D02*
X160031D01*
X164596Y10800D02*
X170683D01*
X153869D02*
X159994D01*
X164596Y10837D02*
X170906D01*
X153647D02*
X159957D01*
X164633Y10874D02*
X171092D01*
X153461D02*
X159919D01*
X164670Y10911D02*
X171314D01*
X153275D02*
X159882D01*
X164708Y10948D02*
X171500D01*
X153053D02*
X159845D01*
X164745Y10985D02*
X171686D01*
X152867D02*
X159845D01*
X164745Y11022D02*
X171908D01*
X152682D02*
X159808D01*
X164782Y11059D02*
X172094D01*
X152459D02*
X159771D01*
X164819Y11097D02*
X172279D01*
X152273D02*
X159771D01*
X164819Y11134D02*
X172502D01*
X152050D02*
X159734D01*
X164856Y11171D02*
X172688D01*
X151865D02*
X159697D01*
X164893Y11208D02*
X172910D01*
X151679D02*
X159697D01*
X164893Y11245D02*
X173096D01*
X151457D02*
X159660D01*
X164930Y11282D02*
X173207D01*
X151345D02*
X159622D01*
X164930Y11319D02*
X173244D01*
X151308D02*
X159622D01*
X164967Y11356D02*
X173282D01*
X151271D02*
X159585D01*
X164967Y11394D02*
X173282D01*
X151271D02*
X159585D01*
X165004Y11431D02*
X173282D01*
X151271D02*
X159548D01*
X165004Y11468D02*
X173282D01*
X151271D02*
X159548D01*
X165041Y11505D02*
X173282D01*
X151271D02*
X159511D01*
X165041Y11542D02*
X173282D01*
X151271D02*
X159511D01*
X165079Y11579D02*
X173282D01*
X151271D02*
X159474D01*
X165079Y11616D02*
X173282D01*
X151271D02*
X159474D01*
X165116Y11653D02*
X173282D01*
X151271D02*
X159474D01*
X165116Y11690D02*
X173282D01*
X151271D02*
X159437D01*
X165153Y11728D02*
X173282D01*
X151271D02*
X159437D01*
X165153Y11765D02*
X173282D01*
X151271D02*
X159400D01*
X165153Y11802D02*
X173282D01*
X151271D02*
X159400D01*
X165190Y11839D02*
X173282D01*
X151271D02*
X159400D01*
X165190Y11876D02*
X173282D01*
X151271D02*
X159363D01*
X165190Y11913D02*
X173282D01*
X151271D02*
X159363D01*
X165227Y11950D02*
X173282D01*
X151271D02*
X159363D01*
X165227Y11987D02*
X173282D01*
X151271D02*
X159326D01*
X165227Y12025D02*
X173282D01*
X151271D02*
X159326D01*
X165227Y12062D02*
X173282D01*
X151271D02*
X159326D01*
X165264Y12099D02*
X173282D01*
X151271D02*
X159326D01*
X165264Y12136D02*
X173282D01*
X151271D02*
X159288D01*
X165264Y12173D02*
X173282D01*
X151271D02*
X159288D01*
X165264Y12210D02*
X173282D01*
X151271D02*
X159288D01*
X165264Y12247D02*
X173282D01*
X151271D02*
X159288D01*
X165301Y12284D02*
X173282D01*
X151271D02*
X159288D01*
X165301Y12321D02*
X173282D01*
X151271D02*
X159251D01*
X165301Y12359D02*
X173282D01*
X151271D02*
X159251D01*
X165301Y12396D02*
X173282D01*
X151271D02*
X159251D01*
X165301Y12433D02*
X173282D01*
X151271D02*
X159251D01*
X165301Y12470D02*
X173282D01*
X151271D02*
X159251D01*
X165301Y12507D02*
X173282D01*
X151271D02*
X159251D01*
X165339Y12544D02*
X173282D01*
X151271D02*
X159251D01*
X165339Y12581D02*
X173282D01*
X151271D02*
X159251D01*
X165339Y12618D02*
X173282D01*
X151271D02*
X159251D01*
X165339Y12655D02*
X173282D01*
X151271D02*
X159251D01*
X165339Y12693D02*
X173282D01*
X151271D02*
X159214D01*
X165339Y12730D02*
X173282D01*
X151271D02*
X159214D01*
X165339Y12767D02*
X173282D01*
X151271D02*
X159214D01*
X165339Y12804D02*
X173282D01*
X151271D02*
X159214D01*
X165339Y12841D02*
X173282D01*
X151271D02*
X159214D01*
X165339Y12878D02*
X173282D01*
X151271D02*
X159214D01*
X165339Y12915D02*
X173282D01*
X151271D02*
X159251D01*
X165339Y12952D02*
X173282D01*
X151271D02*
X159251D01*
X165339Y12990D02*
X173282D01*
X151271D02*
X159251D01*
X165339Y13027D02*
X173282D01*
X151271D02*
X159251D01*
X165301Y13064D02*
X173282D01*
X151271D02*
X159251D01*
X165301Y13101D02*
X173282D01*
X151271D02*
X159251D01*
X165301Y13138D02*
X173282D01*
X151271D02*
X159251D01*
X165301Y13175D02*
X173282D01*
X151271D02*
X159251D01*
X165301Y13212D02*
X173282D01*
X151271D02*
X159251D01*
X165301Y13249D02*
X173282D01*
X151271D02*
X159251D01*
X165301Y13286D02*
X173282D01*
X151271D02*
X159288D01*
X165264Y13324D02*
X173282D01*
X151271D02*
X159288D01*
X165264Y13361D02*
X173282D01*
X151271D02*
X159288D01*
X165264Y13398D02*
X173282D01*
X151271D02*
X159288D01*
X165264Y13435D02*
X173282D01*
X151271D02*
X159288D01*
X165264Y13472D02*
X173282D01*
X151271D02*
X159326D01*
X165227Y13509D02*
X173282D01*
X151271D02*
X159326D01*
X165227Y13546D02*
X173282D01*
X151271D02*
X159326D01*
X165227Y13583D02*
X173282D01*
X151271D02*
X159326D01*
X165227Y13621D02*
X173282D01*
X151271D02*
X159363D01*
X165190Y13658D02*
X173282D01*
X151271D02*
X159363D01*
X165190Y13695D02*
X173282D01*
X151271D02*
X159363D01*
X165190Y13732D02*
X173282D01*
X151271D02*
X159400D01*
X165153Y13769D02*
X173282D01*
X151271D02*
X159400D01*
X165153Y13806D02*
X173282D01*
X151271D02*
X159400D01*
X165153Y13843D02*
X173282D01*
X151271D02*
X159437D01*
X165116Y13880D02*
X173282D01*
X151271D02*
X159437D01*
X165116Y13917D02*
X173282D01*
X151271D02*
X159437D01*
X165079Y13955D02*
X173282D01*
X151271D02*
X159474D01*
X165079Y13992D02*
X173282D01*
X151271D02*
X159474D01*
X165079Y14029D02*
X173282D01*
X151271D02*
X159511D01*
X165041Y14066D02*
X173282D01*
X151271D02*
X159511D01*
X165041Y14103D02*
X173282D01*
X151271D02*
X159548D01*
X165004Y14140D02*
X173282D01*
X151271D02*
X159548D01*
X165004Y14177D02*
X173282D01*
X151271D02*
X159585D01*
X164967Y14214D02*
X173282D01*
X151271D02*
X159585D01*
X164967Y14252D02*
X173282D01*
X151271D02*
X159622D01*
X164930Y14289D02*
X173244D01*
X151308D02*
X159622D01*
X164893Y14326D02*
X173244D01*
X151345D02*
X159660D01*
X164893Y14363D02*
X173133D01*
X151419D02*
X159660D01*
X164856Y14400D02*
X172948D01*
X151605D02*
X159697D01*
X164856Y14437D02*
X172725D01*
X151828D02*
X159734D01*
X164819Y14474D02*
X172539D01*
X152013D02*
X159734D01*
X164782Y14511D02*
X172354D01*
X152236D02*
X159771D01*
X164782Y14548D02*
X172131D01*
X152422D02*
X159808D01*
X164745Y14586D02*
X171945D01*
X152607D02*
X159808D01*
X164708Y14623D02*
X171760D01*
X152830D02*
X159845D01*
X164670Y14660D02*
X171537D01*
X153015D02*
X159882D01*
X164670Y14697D02*
X171352D01*
X153201D02*
X159919D01*
X164633Y14734D02*
X171129D01*
X153424D02*
X159919D01*
X164596Y14771D02*
X170943D01*
X153609D02*
X159957D01*
X164559Y14808D02*
X170758D01*
X153832D02*
X159994D01*
X164522Y14845D02*
X170535D01*
X154018D02*
X160031D01*
X164485Y14883D02*
X170423D01*
X154166D02*
X160068D01*
X164448Y14920D02*
X170349D01*
X154203D02*
X160105D01*
X164410Y14957D02*
X170312D01*
X154240D02*
X160142D01*
X164373Y14994D02*
X170312D01*
X154240D02*
X160179D01*
X164336Y15031D02*
X170275D01*
X154278D02*
X160216D01*
X164299Y15068D02*
X170275D01*
X154278D02*
X160253D01*
X164262Y15105D02*
X170275D01*
X154315D02*
X160291D01*
X164225Y15142D02*
X170238D01*
X154315D02*
X160365D01*
X164188Y15179D02*
X170238D01*
X154352D02*
X160402D01*
X164114Y15217D02*
X170201D01*
X154352D02*
X160439D01*
X164076Y15254D02*
X170201D01*
X154352D02*
X160476D01*
X164002Y15291D02*
X170164D01*
X154389D02*
X160550D01*
X163965Y15328D02*
X170164D01*
X154389D02*
X160587D01*
X163891Y15365D02*
X170164D01*
X154426D02*
X160662D01*
X163854Y15402D02*
X170127D01*
X154426D02*
X160699D01*
X163779Y15439D02*
X170127D01*
X154463D02*
X160773D01*
X163705Y15476D02*
X170089D01*
X154463D02*
X160847D01*
X163631Y15514D02*
X170089D01*
X154463D02*
X160922D01*
X163557Y15551D02*
X170052D01*
X154500D02*
X160996D01*
X163483Y15588D02*
X170052D01*
X154500D02*
X161070D01*
X163408Y15625D02*
X170052D01*
X154537D02*
X161144D01*
X163297Y15662D02*
X170015D01*
X154537D02*
X161256D01*
X163186Y15699D02*
X170015D01*
X154575D02*
X161367D01*
X163074Y15736D02*
X169978D01*
X154575D02*
X161478D01*
X162926Y15773D02*
X169978D01*
X154575D02*
X161627D01*
X162703Y15811D02*
X169941D01*
X154612D02*
X161849D01*
X154612Y15848D02*
X169941D01*
X154649Y15885D02*
X169941D01*
X154649Y15922D02*
X169904D01*
X154686Y15959D02*
X169904D01*
X154686Y15996D02*
X169867D01*
X154686Y16033D02*
X169867D01*
X154723Y16070D02*
X169830D01*
X154723Y16107D02*
X169830D01*
X154760Y16145D02*
X169830D01*
X154760Y16182D02*
X169792D01*
X154797Y16219D02*
X169792D01*
X154797Y16256D02*
X169755D01*
X154797Y16293D02*
X169755D01*
X154834Y16330D02*
X169718D01*
X154834Y16367D02*
X169718D01*
X154871Y16404D02*
X169718D01*
X154871Y16442D02*
X169681D01*
X154909Y16479D02*
X169681D01*
X154909Y16516D02*
X169644D01*
X154909Y16553D02*
X169644D01*
X154946Y16590D02*
X169607D01*
X154946Y16627D02*
X169607D01*
X154983Y16664D02*
X169607D01*
X154983Y16701D02*
X169570D01*
X155020Y16738D02*
X169570D01*
X155020Y16775D02*
X169533D01*
X155020Y16813D02*
X169533D01*
X155057Y16850D02*
X169496D01*
X155057Y16887D02*
X169496D01*
X155094Y16924D02*
X169496D01*
X155094Y16961D02*
X169458D01*
X155094Y16998D02*
X169458D01*
X155094Y17035D02*
X169458D01*
X155094Y17073D02*
X169496D01*
X155057Y17110D02*
X169496D01*
X155020Y17147D02*
X169533D01*
X155020Y17184D02*
X169570D01*
X154983Y17221D02*
X169570D01*
X154946Y17258D02*
X169607D01*
X154946Y17295D02*
X169644D01*
X154909Y17332D02*
X169644D01*
X154871Y17369D02*
X169681D01*
X154871Y17406D02*
X169718D01*
X154834Y17444D02*
X169718D01*
X154797Y17481D02*
X169755D01*
X154797Y17518D02*
X169792D01*
X154760Y17555D02*
X169792D01*
X154723Y17592D02*
X169830D01*
X154723Y17629D02*
X169867D01*
X154686Y17666D02*
X169867D01*
X154649Y17703D02*
X169904D01*
X154612Y17741D02*
X169941D01*
X154612Y17778D02*
X169941D01*
X154575Y17815D02*
X169978D01*
X154537Y17852D02*
X170015D01*
X154537Y17889D02*
X170052D01*
X154500Y17926D02*
X170052D01*
X154463Y17963D02*
X170089D01*
X154463Y18000D02*
X170127D01*
X154426Y18037D02*
X170127D01*
X154389Y18075D02*
X170164D01*
X154389Y18112D02*
X170201D01*
X154352Y18149D02*
X170201D01*
X154315Y18186D02*
X170238D01*
X154315Y18223D02*
X170275D01*
X154278Y18260D02*
X170275D01*
X154240Y18297D02*
X170312D01*
X154203Y18334D02*
X170349D01*
X154203Y18372D02*
X170349D01*
X154166Y18409D02*
X170386D01*
X154129Y18446D02*
X170423D01*
X154129Y18483D02*
X170461D01*
X154092Y18520D02*
X170461D01*
X154055Y18557D02*
X170498D01*
X154055Y18594D02*
X170535D01*
X154018Y18631D02*
X170535D01*
X153981Y18668D02*
X170572D01*
X153981Y18706D02*
X170609D01*
X153944Y18743D02*
X170609D01*
X153906Y18780D02*
X170646D01*
X153906Y18817D02*
X170683D01*
X153869Y18854D02*
X170683D01*
X153832Y18891D02*
X170721D01*
X153795Y18928D02*
X170758D01*
X153795Y18965D02*
X170758D01*
X153758Y19003D02*
X170795D01*
X153721Y19040D02*
X170832D01*
X153721Y19077D02*
X170869D01*
X153684Y19114D02*
X170869D01*
X153647Y19151D02*
X170906D01*
X153647Y19188D02*
X170943D01*
X153609Y19225D02*
X170943D01*
X153572Y19262D02*
X170980D01*
X153572Y19299D02*
X171017D01*
X153535Y19337D02*
X171017D01*
X153498Y19374D02*
X171054D01*
X153498Y19411D02*
X171092D01*
X153461Y19448D02*
X171092D01*
X153461Y19485D02*
X171092D01*
X153461Y19522D02*
X171092D01*
X153498Y19559D02*
X171092D01*
X153498Y19596D02*
X171054D01*
X153535Y19634D02*
X171017D01*
X153572Y19671D02*
X170980D01*
X153609Y19708D02*
X170943D01*
X153647Y19745D02*
X170906D01*
X153684Y19782D02*
X170869D01*
X153721Y19819D02*
X170832D01*
X153758Y19856D02*
X170795D01*
X153795Y19893D02*
X170758D01*
X153832Y19930D02*
X170721D01*
X166489Y19968D02*
X170683D01*
X158175D02*
X166378D01*
X153869D02*
X158101D01*
X166563Y20005D02*
X170646D01*
X158286D02*
X166304D01*
X153906D02*
X158026D01*
X166600Y20042D02*
X170609D01*
X158360D02*
X166192D01*
X153944D02*
X157952D01*
X166675Y20079D02*
X170572D01*
X158435D02*
X166118D01*
X153981D02*
X157915D01*
X166712Y20116D02*
X170535D01*
X158546D02*
X166007D01*
X154018D02*
X157841D01*
X166749Y20153D02*
X170498D01*
X158620D02*
X165932D01*
X154055D02*
X157804D01*
X166823Y20190D02*
X170461D01*
X158732D02*
X165821D01*
X154092D02*
X157729D01*
X166860Y20227D02*
X170423D01*
X158806D02*
X165747D01*
X154129D02*
X157692D01*
X166935Y20265D02*
X170386D01*
X158917D02*
X165673D01*
X154166D02*
X157618D01*
X166972Y20302D02*
X170349D01*
X158991D02*
X165561D01*
X154203D02*
X157581D01*
X167046Y20339D02*
X170312D01*
X159103D02*
X165487D01*
X154240D02*
X157544D01*
X167083Y20376D02*
X170275D01*
X159177D02*
X165376D01*
X154278D02*
X157470D01*
X167157Y20413D02*
X170238D01*
X159251D02*
X165301D01*
X154315D02*
X157432D01*
X167194Y20450D02*
X170201D01*
X159363D02*
X165190D01*
X154352D02*
X157358D01*
X167269Y20487D02*
X170164D01*
X159437D02*
X165116D01*
X154389D02*
X157321D01*
X167306Y20524D02*
X170127D01*
X159548D02*
X165004D01*
X154426D02*
X157247D01*
X167343Y20561D02*
X170089D01*
X159622D02*
X164930D01*
X154463D02*
X157210D01*
X167417Y20599D02*
X170052D01*
X159734D02*
X164856D01*
X154500D02*
X157135D01*
X167454Y20636D02*
X170015D01*
X159808D02*
X164745D01*
X154537D02*
X157098D01*
X167528Y20673D02*
X169978D01*
X159919D02*
X164670D01*
X154575D02*
X157024D01*
X167566Y20710D02*
X169941D01*
X159994D02*
X164559D01*
X154612D02*
X156987D01*
X167640Y20747D02*
X169904D01*
X160068D02*
X164485D01*
X154649D02*
X156950D01*
X167677Y20784D02*
X169867D01*
X160142D02*
X164410D01*
X154686D02*
X156876D01*
X167751Y20821D02*
X169830D01*
X160179D02*
X164373D01*
X154723D02*
X156839D01*
X167788Y20858D02*
X169792D01*
X160179D02*
X164373D01*
X154760D02*
X156764D01*
X167862Y20896D02*
X169755D01*
X160216D02*
X164336D01*
X154797D02*
X156727D01*
X167900Y20933D02*
X169718D01*
X160216D02*
X164336D01*
X154834D02*
X156653D01*
X167937Y20970D02*
X169681D01*
X160216D02*
X164336D01*
X154871D02*
X156616D01*
X168011Y21007D02*
X169644D01*
X160216D02*
X164336D01*
X154909D02*
X156542D01*
X168048Y21044D02*
X169607D01*
X160253D02*
X164336D01*
X154946D02*
X156504D01*
X168122Y21081D02*
X169570D01*
X160253D02*
X164299D01*
X154983D02*
X156430D01*
X168159Y21118D02*
X169533D01*
X160253D02*
X164299D01*
X155020D02*
X156393D01*
X168234Y21155D02*
X169496D01*
X160253D02*
X164299D01*
X155057D02*
X156319D01*
X168271Y21192D02*
X169458D01*
X160253D02*
X164299D01*
X155094D02*
X156282D01*
X168345Y21230D02*
X169421D01*
X160291D02*
X164299D01*
X155131D02*
X156245D01*
X168382Y21267D02*
X169384D01*
X160291D02*
X164299D01*
X155168D02*
X156170D01*
X168456Y21304D02*
X169347D01*
X160291D02*
X164262D01*
X155205D02*
X156133D01*
X168493Y21341D02*
X169310D01*
X160291D02*
X164262D01*
X155243D02*
X156059D01*
X168568Y21378D02*
X169273D01*
X160291D02*
X164262D01*
X155280D02*
X156022D01*
X168605Y21415D02*
X169236D01*
X160291D02*
X164262D01*
X155317D02*
X155948D01*
X168642Y21452D02*
X169199D01*
X160328D02*
X164262D01*
X155354D02*
X155911D01*
X168716Y21489D02*
X169161D01*
X160328D02*
X164225D01*
X155391D02*
X155836D01*
X168753Y21527D02*
X169124D01*
X160328D02*
X164225D01*
X155428D02*
X155799D01*
X168827Y21564D02*
X169087D01*
X160328D02*
X164225D01*
X155465D02*
X155725D01*
X168865Y21601D02*
X169050D01*
X160328D02*
X164225D01*
X155502D02*
X155688D01*
X160365Y21638D02*
X164225D01*
X160365Y21675D02*
X164188D01*
X160365Y21712D02*
X164188D01*
X160365Y21749D02*
X164188D01*
X160365Y21786D02*
X164188D01*
X160365Y21824D02*
X164188D01*
X160402Y21861D02*
X164188D01*
X160402Y21898D02*
X164151D01*
X160402Y21935D02*
X164151D01*
X160402Y21972D02*
X164151D01*
X160402Y22009D02*
X164151D01*
X160439Y22046D02*
X164151D01*
X160439Y22083D02*
X164114D01*
X160439Y22120D02*
X164114D01*
X160439Y22158D02*
X164114D01*
X160439Y22195D02*
X164114D01*
X160476Y22232D02*
X164114D01*
X160476Y22269D02*
X164114D01*
X160476Y22306D02*
X164076D01*
X160476Y22343D02*
X164076D01*
X160476Y22380D02*
X164076D01*
X160476Y22417D02*
X164076D01*
X160513Y22454D02*
X164076D01*
X160513Y22492D02*
X164039D01*
X160513Y22529D02*
X164039D01*
X160513Y22566D02*
X164039D01*
X160513Y22603D02*
X164039D01*
X160550Y22640D02*
X164039D01*
X160550Y22677D02*
X164002D01*
X160550Y22714D02*
X164002D01*
X160550Y22751D02*
X164002D01*
X160550Y22788D02*
X164002D01*
X160587Y22826D02*
X164002D01*
X160587Y22863D02*
X164002D01*
X160587Y22900D02*
X163965D01*
X160587Y22937D02*
X163965D01*
X160587Y22974D02*
X163965D01*
X160587Y23011D02*
X163965D01*
X160625Y23048D02*
X163965D01*
X160625Y23086D02*
X163928D01*
X160625Y23123D02*
X163928D01*
X160625Y23160D02*
X163928D01*
X160625Y23197D02*
X163928D01*
X160662Y23234D02*
X163928D01*
X160662Y23271D02*
X163891D01*
X160662Y23308D02*
X163891D01*
X160662Y23345D02*
X163891D01*
X160662Y23382D02*
X163891D01*
X160662Y23419D02*
X163891D01*
X160699Y23457D02*
X163891D01*
X160699Y23494D02*
X163854D01*
X160699Y23531D02*
X163854D01*
X160699Y23568D02*
X163854D01*
X160699Y23605D02*
X163854D01*
X160736Y23642D02*
X163854D01*
X160736Y23679D02*
X163817D01*
X160736Y23716D02*
X163817D01*
X160773Y23754D02*
X163817D01*
X160810Y23791D02*
X163742D01*
D15*
X1181Y25591D02*
X323622Y25591D01*
X1181Y84646D02*
X323622Y84646D01*
D16*
X184055Y66240D02*
Y69586D01*
X185728D01*
X186285Y69028D01*
Y67913D01*
X185728Y67355D01*
X184055D01*
X185170D02*
X186285Y66240D01*
X189073D02*
Y69586D01*
X187400Y67913D01*
X189631D01*
X183957Y71850D02*
Y75196D01*
X185629D01*
X186187Y74638D01*
Y73523D01*
X185629Y72966D01*
X183957D01*
X185072D02*
X186187Y71850D01*
X187302Y74638D02*
X187860Y75196D01*
X188975D01*
X189532Y74638D01*
Y74081D01*
X188975Y73523D01*
X188417D01*
X188975D01*
X189532Y72966D01*
Y72408D01*
X188975Y71850D01*
X187860D01*
X187302Y72408D01*
X91404Y66534D02*
X89173D01*
Y64862D01*
X90288D01*
X89173D01*
Y63189D01*
X92519Y66534D02*
Y63189D01*
X94191D01*
X94749Y63747D01*
Y64304D01*
X94191Y64862D01*
X92519D01*
X94191D01*
X94749Y65419D01*
Y65977D01*
X94191Y66534D01*
X92519D01*
X98094Y63189D02*
X95864D01*
X98094Y65419D01*
Y65977D01*
X97537Y66534D01*
X96422D01*
X95864Y65977D01*
X92191Y47046D02*
X89961D01*
Y45373D01*
X91076D01*
X89961D01*
Y43701D01*
X93306Y47046D02*
Y43701D01*
X94979D01*
X95536Y44258D01*
Y44816D01*
X94979Y45373D01*
X93306D01*
X94979D01*
X95536Y45931D01*
Y46489D01*
X94979Y47046D01*
X93306D01*
X96651Y43701D02*
X97767D01*
X97209D01*
Y47046D01*
X96651Y46489D01*
X143569Y41961D02*
X143011Y42519D01*
X141896D01*
X141339Y41961D01*
Y39731D01*
X141896Y39173D01*
X143011D01*
X143569Y39731D01*
X144684Y39173D02*
Y42519D01*
X146914Y39173D01*
Y42519D01*
X150260Y39173D02*
X148029D01*
X150260Y41403D01*
Y41961D01*
X149702Y42519D01*
X148587D01*
X148029Y41961D01*
X104100Y75721D02*
X103543Y76278D01*
X102428D01*
X101870Y75721D01*
Y73491D01*
X102428Y72933D01*
X103543D01*
X104100Y73491D01*
X107446Y76278D02*
X105216D01*
Y74606D01*
X106331Y75163D01*
X106888D01*
X107446Y74606D01*
Y73491D01*
X106888Y72933D01*
X105773D01*
X105216Y73491D01*
X112171Y72768D02*
X111614Y73326D01*
X110498D01*
X109941Y72768D01*
Y70538D01*
X110498Y69980D01*
X111614D01*
X112171Y70538D01*
X114959Y69980D02*
Y73326D01*
X113286Y71653D01*
X115517D01*
X104297Y36843D02*
X103740Y37400D01*
X102624D01*
X102067Y36843D01*
Y34613D01*
X102624Y34055D01*
X103740D01*
X104297Y34613D01*
X107643Y34055D02*
X105412D01*
X107643Y36285D01*
Y36843D01*
X107085Y37400D01*
X105970D01*
X105412Y36843D01*
X112467Y39894D02*
X111909Y40452D01*
X110794D01*
X110236Y39894D01*
Y37664D01*
X110794Y37106D01*
X111909D01*
X112467Y37664D01*
X113582Y37106D02*
X114697D01*
X114139D01*
Y40452D01*
X113582Y39894D01*
D17*
X-15560Y218669D02*
X438320D01*
X-15560Y230669D02*
X438320D01*
X-15560Y134669D02*
Y230669D01*
Y134669D02*
X25431D01*
X-15560Y146669D02*
X25431D01*
X-15560Y158669D02*
X25431D01*
X-15560Y170669D02*
X25431D01*
X-15560Y182669D02*
X25431D01*
X-15560Y194669D02*
X25431D01*
X-15560Y206669D02*
X25431D01*
Y134669D02*
Y230669D01*
Y134669D02*
X118405D01*
X25431Y146669D02*
X118405D01*
X25431Y158669D02*
X118405D01*
X25431Y170669D02*
X118405D01*
X25431Y182669D02*
X118405D01*
X25431Y194669D02*
X118405D01*
X25431Y206669D02*
X118405D01*
Y134669D02*
Y230669D01*
Y134669D02*
X204382D01*
X118405Y146669D02*
X204382D01*
X118405Y158669D02*
X204382D01*
X118405Y170669D02*
X204382D01*
X118405Y182669D02*
X204382D01*
X118405Y194669D02*
X204382D01*
X118405Y206669D02*
X204382D01*
Y134669D02*
Y230669D01*
Y134669D02*
X269366D01*
X204382Y146669D02*
X269366D01*
X204382Y158669D02*
X269366D01*
X204382Y170669D02*
X269366D01*
X204382Y182669D02*
X269366D01*
X204382Y194669D02*
X269366D01*
X204382Y206669D02*
X269366D01*
Y134669D02*
Y230669D01*
Y134669D02*
X326352D01*
X269366Y146669D02*
X326352D01*
X269366Y158669D02*
X326352D01*
X269366Y170669D02*
X326352D01*
X269366Y182669D02*
X326352D01*
X269366Y194669D02*
X326352D01*
X269366Y206669D02*
X326352D01*
Y134669D02*
Y230669D01*
Y134669D02*
X438320D01*
X326352Y146669D02*
X438320D01*
X326352Y158669D02*
X438320D01*
X326352Y170669D02*
X438320D01*
X326352Y182669D02*
X438320D01*
X326352Y194669D02*
X438320D01*
X326352Y206669D02*
X438320D01*
Y134669D02*
Y230669D01*
D18*
X432320Y134669D02*
X438320Y140669D01*
X426320Y134669D02*
X438320Y146669D01*
X420320Y134669D02*
X432320Y146669D01*
X414320Y134669D02*
X426320Y146669D01*
X408320Y134669D02*
X420320Y146669D01*
X402320Y134669D02*
X414320Y146669D01*
X396320Y134669D02*
X408320Y146669D01*
X390320Y134669D02*
X402320Y146669D01*
X384320Y134669D02*
X396320Y146669D01*
X378320Y134669D02*
X390320Y146669D01*
X372320Y134669D02*
X384320Y146669D01*
X366320Y134669D02*
X378320Y146669D01*
X360320Y134669D02*
X372320Y146669D01*
X354320Y134669D02*
X366320Y146669D01*
X348320Y134669D02*
X360320Y146669D01*
X342320Y134669D02*
X354320Y146669D01*
X336320Y134669D02*
X348320Y146669D01*
X330320Y134669D02*
X342320Y146669D01*
X326352Y136701D02*
X336320Y146669D01*
X326352Y142701D02*
X330320Y146669D01*
X432320D02*
X438320Y152669D01*
X426320Y146669D02*
X438320Y158669D01*
X420320Y146669D02*
X432320Y158669D01*
X414320Y146669D02*
X426320Y158669D01*
X408320Y146669D02*
X420320Y158669D01*
X402320Y146669D02*
X414320Y158669D01*
X396320Y146669D02*
X408320Y158669D01*
X390320Y146669D02*
X402320Y158669D01*
X384320Y146669D02*
X396320Y158669D01*
X378320Y146669D02*
X390320Y158669D01*
X372320Y146669D02*
X384320Y158669D01*
X366320Y146669D02*
X378320Y158669D01*
X360320Y146669D02*
X372320Y158669D01*
X354320Y146669D02*
X366320Y158669D01*
X348320Y146669D02*
X360320Y158669D01*
X342320Y146669D02*
X354320Y158669D01*
X336320Y146669D02*
X348320Y158669D01*
X330320Y146669D02*
X342320Y158669D01*
X326352Y148701D02*
X336320Y158669D01*
X326352Y154701D02*
X330320Y158669D01*
X432320D02*
X438320Y164669D01*
X426320Y158669D02*
X438320Y170669D01*
X420320Y158669D02*
X432320Y170669D01*
X414320Y158669D02*
X426320Y170669D01*
X408320Y158669D02*
X420320Y170669D01*
X402320Y158669D02*
X414320Y170669D01*
X396320Y158669D02*
X408320Y170669D01*
X390320Y158669D02*
X402320Y170669D01*
X384320Y158669D02*
X396320Y170669D01*
X378320Y158669D02*
X390320Y170669D01*
X372320Y158669D02*
X384320Y170669D01*
X366320Y158669D02*
X378320Y170669D01*
X360320Y158669D02*
X372320Y170669D01*
X354320Y158669D02*
X366320Y170669D01*
X348320Y158669D02*
X360320Y170669D01*
X342320Y158669D02*
X354320Y170669D01*
X336320Y158669D02*
X348320Y170669D01*
X330320Y158669D02*
X342320Y170669D01*
X326352Y160701D02*
X336320Y170669D01*
X326352Y166701D02*
X330320Y170669D01*
X432320D02*
X438320Y176669D01*
X426320Y170669D02*
X438320Y182669D01*
X420320Y170669D02*
X432320Y182669D01*
X414320Y170669D02*
X426320Y182669D01*
X408320Y170669D02*
X420320Y182669D01*
X402320Y170669D02*
X414320Y182669D01*
X396320Y170669D02*
X408320Y182669D01*
X390320Y170669D02*
X402320Y182669D01*
X384320Y170669D02*
X396320Y182669D01*
X378320Y170669D02*
X390320Y182669D01*
X372320Y170669D02*
X384320Y182669D01*
X366320Y170669D02*
X378320Y182669D01*
X360320Y170669D02*
X372320Y182669D01*
X354320Y170669D02*
X366320Y182669D01*
X348320Y170669D02*
X360320Y182669D01*
X342320Y170669D02*
X354320Y182669D01*
X336320Y170669D02*
X348320Y182669D01*
X330320Y170669D02*
X342320Y182669D01*
X326352Y172701D02*
X336320Y182669D01*
X326352Y178701D02*
X330320Y182669D01*
X432320D02*
X438320Y188669D01*
X426320Y182669D02*
X438320Y194669D01*
X420320Y182669D02*
X432320Y194669D01*
X414320Y182669D02*
X426320Y194669D01*
X408320Y182669D02*
X420320Y194669D01*
X402320Y182669D02*
X414320Y194669D01*
X396320Y182669D02*
X408320Y194669D01*
X390320Y182669D02*
X402320Y194669D01*
X384320Y182669D02*
X396320Y194669D01*
X378320Y182669D02*
X390320Y194669D01*
X372320Y182669D02*
X384320Y194669D01*
X366320Y182669D02*
X378320Y194669D01*
X360320Y182669D02*
X372320Y194669D01*
X354320Y182669D02*
X366320Y194669D01*
X348320Y182669D02*
X360320Y194669D01*
X342320Y182669D02*
X354320Y194669D01*
X336320Y182669D02*
X348320Y194669D01*
X330320Y182669D02*
X342320Y194669D01*
X326352Y184701D02*
X336320Y194669D01*
X326352Y190701D02*
X330320Y194669D01*
X432320D02*
X438320Y200669D01*
X426320Y194669D02*
X438320Y206669D01*
X420320Y194669D02*
X432320Y206669D01*
X414320Y194669D02*
X426320Y206669D01*
X408320Y194669D02*
X420320Y206669D01*
X402320Y194669D02*
X414320Y206669D01*
X396320Y194669D02*
X408320Y206669D01*
X390320Y194669D02*
X402320Y206669D01*
X384320Y194669D02*
X396320Y206669D01*
X378320Y194669D02*
X390320Y206669D01*
X372320Y194669D02*
X384320Y206669D01*
X366320Y194669D02*
X378320Y206669D01*
X360320Y194669D02*
X372320Y206669D01*
X354320Y194669D02*
X366320Y206669D01*
X348320Y194669D02*
X360320Y206669D01*
X342320Y194669D02*
X354320Y206669D01*
X336320Y194669D02*
X348320Y206669D01*
X330320Y194669D02*
X342320Y206669D01*
X326352Y196701D02*
X336320Y206669D01*
X326352Y202701D02*
X330320Y206669D01*
X432320D02*
X438320Y212669D01*
X426320Y206669D02*
X438320Y218669D01*
X420320Y206669D02*
X432320Y218669D01*
X414320Y206669D02*
X426320Y218669D01*
X408320Y206669D02*
X420320Y218669D01*
X402320Y206669D02*
X414320Y218669D01*
X396320Y206669D02*
X408320Y218669D01*
X390320Y206669D02*
X402320Y218669D01*
X384320Y206669D02*
X396320Y218669D01*
X378320Y206669D02*
X390320Y218669D01*
X372320Y206669D02*
X384320Y218669D01*
X366320Y206669D02*
X378320Y218669D01*
X360320Y206669D02*
X372320Y218669D01*
X354320Y206669D02*
X366320Y218669D01*
X348320Y206669D02*
X360320Y218669D01*
X342320Y206669D02*
X354320Y218669D01*
X336320Y206669D02*
X348320Y218669D01*
X330320Y206669D02*
X342320Y218669D01*
X326352Y208701D02*
X336320Y218669D01*
X326352Y214701D02*
X330320Y218669D01*
D19*
X170283Y-68908D02*
Y-76468D01*
X175323D01*
X179104Y-71429D02*
X181624D01*
X182884Y-72689D01*
Y-76468D01*
X179104D01*
X177843Y-75208D01*
X179104Y-73949D01*
X182884D01*
X185404Y-71429D02*
Y-75208D01*
X186664Y-76468D01*
X190444D01*
Y-77728D01*
X189184Y-78988D01*
X187924D01*
X190444Y-76468D02*
Y-71429D01*
X196744Y-76468D02*
X194224D01*
X192964Y-75208D01*
Y-72689D01*
X194224Y-71429D01*
X196744D01*
X198004Y-72689D01*
Y-73949D01*
X192964D01*
X200524Y-71429D02*
Y-76468D01*
Y-73949D01*
X201784Y-72689D01*
X203044Y-71429D01*
X204304D01*
X208084Y-76468D02*
X211864D01*
X213124Y-75208D01*
X211864Y-73949D01*
X209344D01*
X208084Y-72689D01*
X209344Y-71429D01*
X213124D01*
X215644D02*
X216904D01*
Y-72689D01*
X215644D01*
Y-71429D01*
Y-75208D02*
X216904D01*
Y-76468D01*
X215644D01*
Y-75208D01*
X229504Y-70168D02*
X230764Y-68908D01*
X233284D01*
X234544Y-70168D01*
Y-75208D01*
X233284Y-76468D01*
X230764D01*
X229504Y-75208D01*
Y-70168D01*
X242104Y-76468D02*
X237064D01*
X242104Y-71429D01*
Y-70168D01*
X240844Y-68908D01*
X238324D01*
X237064Y-70168D01*
X8038Y-68853D02*
Y-76413D01*
X11818D01*
X13078Y-75153D01*
Y-73893D01*
X11818Y-72633D01*
X8038D01*
X11818D01*
X13078Y-71373D01*
Y-70113D01*
X11818Y-68853D01*
X8038D01*
X16858Y-76413D02*
X19378D01*
X20638Y-75153D01*
Y-72633D01*
X19378Y-71373D01*
X16858D01*
X15598Y-72633D01*
Y-75153D01*
X16858Y-76413D01*
X24418Y-71373D02*
X26938D01*
X28198Y-72633D01*
Y-76413D01*
X24418D01*
X23158Y-75153D01*
X24418Y-73893D01*
X28198D01*
X30718Y-71373D02*
Y-76413D01*
Y-73893D01*
X31978Y-72633D01*
X33238Y-71373D01*
X34498D01*
X43318Y-68853D02*
Y-76413D01*
X39538D01*
X38278Y-75153D01*
Y-72633D01*
X39538Y-71373D01*
X43318D01*
X53398Y-68853D02*
X58438D01*
X55918D01*
Y-76413D01*
X60958Y-68853D02*
Y-76413D01*
Y-72633D01*
X62218Y-71373D01*
X64739D01*
X65999Y-72633D01*
Y-76413D01*
X68519D02*
X71039D01*
X69779D01*
Y-71373D01*
X68519D01*
X79859D02*
X76079D01*
X74819Y-72633D01*
Y-75153D01*
X76079Y-76413D01*
X79859D01*
X82379D02*
Y-68853D01*
Y-73893D02*
X86159Y-71373D01*
X82379Y-73893D02*
X86159Y-76413D01*
X89939D02*
Y-71373D01*
X93719D01*
X94979Y-72633D01*
Y-76413D01*
X101279D02*
X98759D01*
X97499Y-75153D01*
Y-72633D01*
X98759Y-71373D01*
X101279D01*
X102539Y-72633D01*
Y-73893D01*
X97499D01*
X105059Y-76413D02*
X108839D01*
X110099Y-75153D01*
X108839Y-73893D01*
X106319D01*
X105059Y-72633D01*
X106319Y-71373D01*
X110099D01*
X112619Y-76413D02*
X116399D01*
X117659Y-75153D01*
X116399Y-73893D01*
X113879D01*
X112619Y-72633D01*
X113879Y-71373D01*
X117659D01*
X120179D02*
X121439D01*
Y-72633D01*
X120179D01*
Y-71373D01*
Y-75153D02*
X121439D01*
Y-76413D01*
X120179D01*
Y-75153D01*
X174536Y-50779D02*
X173276Y-49519D01*
X170756D01*
X169496Y-50779D01*
Y-52039D01*
X170756Y-53299D01*
X173276D01*
X174536Y-54559D01*
Y-55819D01*
X173276Y-57079D01*
X170756D01*
X169496Y-55819D01*
X177056Y-57079D02*
X179576D01*
X178316D01*
Y-52039D01*
X177056D01*
X183356Y-57079D02*
X185876D01*
X184616D01*
Y-49519D01*
X183356D01*
X189656Y-57079D02*
Y-49519D01*
Y-54559D02*
X193436Y-52039D01*
X189656Y-54559D02*
X193436Y-57079D01*
X197216D02*
X200996D01*
X202256Y-55819D01*
X200996Y-54559D01*
X198476D01*
X197216Y-53299D01*
X198476Y-52039D01*
X202256D01*
X209816D02*
X206036D01*
X204776Y-53299D01*
Y-55819D01*
X206036Y-57079D01*
X209816D01*
X212336Y-52039D02*
Y-57079D01*
Y-54559D01*
X213596Y-53299D01*
X214856Y-52039D01*
X216116D01*
X223676Y-57079D02*
X221157D01*
X219897Y-55819D01*
Y-53299D01*
X221157Y-52039D01*
X223676D01*
X224937Y-53299D01*
Y-54559D01*
X219897D01*
X231237Y-57079D02*
X228716D01*
X227456Y-55819D01*
Y-53299D01*
X228716Y-52039D01*
X231237D01*
X232497Y-53299D01*
Y-54559D01*
X227456D01*
X235017Y-57079D02*
Y-52039D01*
X238797D01*
X240057Y-53299D01*
Y-57079D01*
X255177Y-52039D02*
X251397D01*
X250137Y-53299D01*
Y-55819D01*
X251397Y-57079D01*
X255177D01*
X258957D02*
X261477D01*
X262737Y-55819D01*
Y-53299D01*
X261477Y-52039D01*
X258957D01*
X257697Y-53299D01*
Y-55819D01*
X258957Y-57079D01*
X265257D02*
X267777D01*
X266517D01*
Y-49519D01*
X265257D01*
X272817Y-57079D02*
X275337D01*
X276597Y-55819D01*
Y-53299D01*
X275337Y-52039D01*
X272817D01*
X271557Y-53299D01*
Y-55819D01*
X272817Y-57079D01*
X279117Y-52039D02*
Y-57079D01*
Y-54559D01*
X280377Y-53299D01*
X281637Y-52039D01*
X282897D01*
X286677D02*
X287937D01*
Y-53299D01*
X286677D01*
Y-52039D01*
Y-55819D02*
X287937D01*
Y-57079D01*
X286677D01*
Y-55819D01*
X300537Y-52039D02*
Y-55819D01*
X301797Y-57079D01*
X303057Y-55819D01*
X304317Y-57079D01*
X305577Y-55819D01*
Y-52039D01*
X308097Y-49519D02*
Y-57079D01*
Y-53299D01*
X309357Y-52039D01*
X311877D01*
X313137Y-53299D01*
Y-57079D01*
X315657D02*
X318177D01*
X316917D01*
Y-52039D01*
X315657D01*
X323217Y-50779D02*
Y-52039D01*
X321957D01*
X324477D01*
X323217D01*
Y-55819D01*
X324477Y-57079D01*
X332037D02*
X329517D01*
X328257Y-55819D01*
Y-53299D01*
X329517Y-52039D01*
X332037D01*
X333297Y-53299D01*
Y-54559D01*
X328257D01*
X171268Y-86723D02*
Y-94283D01*
X175048D01*
X176308Y-93024D01*
Y-87983D01*
X175048Y-86723D01*
X171268D01*
X178828Y-89243D02*
Y-94283D01*
Y-91763D01*
X180088Y-90503D01*
X181348Y-89243D01*
X182608D01*
X187648D02*
X190168D01*
X191428Y-90503D01*
Y-94283D01*
X187648D01*
X186388Y-93024D01*
X187648Y-91763D01*
X191428D01*
X193948Y-89243D02*
Y-93024D01*
X195208Y-94283D01*
X196468Y-93024D01*
X197728Y-94283D01*
X198988Y-93024D01*
Y-89243D01*
X201508Y-94283D02*
X204028D01*
X202768D01*
Y-89243D01*
X201508D01*
X207808Y-94283D02*
Y-89243D01*
X211588D01*
X212848Y-90503D01*
Y-94283D01*
X217888Y-96803D02*
X219148D01*
X220408Y-95543D01*
Y-89243D01*
X216628D01*
X215368Y-90503D01*
Y-93024D01*
X216628Y-94283D01*
X220408D01*
X222928Y-89243D02*
X224188D01*
Y-90503D01*
X222928D01*
Y-89243D01*
Y-93024D02*
X224188D01*
Y-94283D01*
X222928D01*
Y-93024D01*
X9318Y-57663D02*
Y-50103D01*
X11838Y-52623D01*
X14358Y-50103D01*
Y-57663D01*
X16878D02*
Y-52623D01*
X19398Y-50103D01*
X21918Y-52623D01*
Y-57663D01*
Y-53883D01*
X16878D01*
X24438Y-50103D02*
X29478D01*
X26958D01*
Y-57663D01*
X37038Y-50103D02*
X31998D01*
Y-57663D01*
X37038D01*
X31998Y-53883D02*
X34518D01*
X39558Y-57663D02*
Y-50103D01*
X43338D01*
X44598Y-51363D01*
Y-53883D01*
X43338Y-55143D01*
X39558D01*
X42078D02*
X44598Y-57663D01*
X47118Y-50103D02*
X49638D01*
X48378D01*
Y-57663D01*
X47118D01*
X49638D01*
X53418D02*
Y-52623D01*
X55938Y-50103D01*
X58458Y-52623D01*
Y-57663D01*
Y-53883D01*
X53418D01*
X60978Y-50103D02*
Y-57663D01*
X66018D01*
X68538Y-52623D02*
X69798D01*
Y-53883D01*
X68538D01*
Y-52623D01*
Y-56403D02*
X69798D01*
Y-57663D01*
X68538D01*
Y-56403D01*
X423335Y-28849D02*
Y-36409D01*
X427115D01*
X428375Y-35149D01*
Y-30109D01*
X427115Y-28849D01*
X423335D01*
X430895Y-36409D02*
Y-31369D01*
X433415Y-28849D01*
X435935Y-31369D01*
Y-36409D01*
Y-32629D01*
X430895D01*
X438455Y-28849D02*
X443495D01*
X440975D01*
Y-36409D01*
X451055Y-28849D02*
X446015D01*
Y-36409D01*
X451055D01*
X446015Y-32629D02*
X448535D01*
X453575Y-31369D02*
X454835D01*
Y-32629D01*
X453575D01*
Y-31369D01*
Y-35149D02*
X454835D01*
Y-36409D01*
X453575D01*
Y-35149D01*
X354535Y-37641D02*
Y-28144D01*
X359284D01*
X360867Y-29727D01*
Y-32893D01*
X359284Y-34476D01*
X354535D01*
X357701D02*
X360867Y-37641D01*
X370364Y-28144D02*
X364032D01*
Y-37641D01*
X370364D01*
X364032Y-32893D02*
X367198D01*
X373529Y-28144D02*
Y-34476D01*
X376695Y-37641D01*
X379861Y-34476D01*
Y-28144D01*
X383026Y-31310D02*
X384609D01*
Y-32893D01*
X383026D01*
Y-31310D01*
Y-36059D02*
X384609D01*
Y-37641D01*
X383026D01*
Y-36059D01*
X7291Y-95760D02*
Y-88200D01*
X11071D01*
X12331Y-89460D01*
Y-91980D01*
X11071Y-93240D01*
X7291D01*
X19891Y-89460D02*
X18631Y-88200D01*
X16111D01*
X14851Y-89460D01*
Y-94500D01*
X16111Y-95760D01*
X18631D01*
X19891Y-94500D01*
X22411Y-88200D02*
Y-95760D01*
X26191D01*
X27452Y-94500D01*
Y-93240D01*
X26191Y-91980D01*
X22411D01*
X26191D01*
X27452Y-90720D01*
Y-89460D01*
X26191Y-88200D01*
X22411D01*
X42572Y-89460D02*
X41312Y-88200D01*
X38792D01*
X37532Y-89460D01*
Y-90720D01*
X38792Y-91980D01*
X41312D01*
X42572Y-93240D01*
Y-94500D01*
X41312Y-95760D01*
X38792D01*
X37532Y-94500D01*
X45092Y-90720D02*
Y-94500D01*
X46352Y-95760D01*
X50132D01*
Y-90720D01*
X52652D02*
Y-95760D01*
Y-93240D01*
X53912Y-91980D01*
X55172Y-90720D01*
X56432D01*
X61472Y-95760D02*
Y-89460D01*
Y-91980D01*
X60212D01*
X62732D01*
X61472D01*
Y-89460D01*
X62732Y-88200D01*
X67772Y-90720D02*
X70292D01*
X71552Y-91980D01*
Y-95760D01*
X67772D01*
X66512Y-94500D01*
X67772Y-93240D01*
X71552D01*
X79112Y-90720D02*
X75332D01*
X74072Y-91980D01*
Y-94500D01*
X75332Y-95760D01*
X79112D01*
X85412D02*
X82892D01*
X81632Y-94500D01*
Y-91980D01*
X82892Y-90720D01*
X85412D01*
X86672Y-91980D01*
Y-93240D01*
X81632D01*
X89192Y-90720D02*
X90452D01*
Y-91980D01*
X89192D01*
Y-90720D01*
Y-94500D02*
X90452D01*
Y-95760D01*
X89192D01*
Y-94500D01*
X353650Y-57768D02*
Y-50208D01*
X357430D01*
X358690Y-51468D01*
Y-53988D01*
X357430Y-55248D01*
X353650D01*
X361210Y-52728D02*
Y-57768D01*
Y-55248D01*
X362470Y-53988D01*
X363730Y-52728D01*
X364990D01*
X370030Y-57768D02*
X372550D01*
X373810Y-56508D01*
Y-53988D01*
X372550Y-52728D01*
X370030D01*
X368770Y-53988D01*
Y-56508D01*
X370030Y-57768D01*
X376330Y-60288D02*
X377590D01*
X378850Y-59028D01*
Y-52728D01*
X387670Y-57768D02*
X385150D01*
X383890Y-56508D01*
Y-53988D01*
X385150Y-52728D01*
X387670D01*
X388930Y-53988D01*
Y-55248D01*
X383890D01*
X396490Y-52728D02*
X392710D01*
X391450Y-53988D01*
Y-56508D01*
X392710Y-57768D01*
X396490D01*
X400270Y-51468D02*
Y-52728D01*
X399010D01*
X401530D01*
X400270D01*
Y-56508D01*
X401530Y-57768D01*
X405310Y-52728D02*
X406570D01*
Y-53988D01*
X405310D01*
Y-52728D01*
Y-56508D02*
X406570D01*
Y-57768D01*
X405310D01*
Y-56508D01*
X419170Y-50208D02*
X421690D01*
X420430D01*
Y-57768D01*
X419170D01*
X421690D01*
X425470Y-50208D02*
X427990D01*
X426730D01*
Y-57768D01*
X425470D01*
X427990D01*
X431770D02*
Y-50208D01*
X435550D01*
X436810Y-51468D01*
Y-53988D01*
X435550Y-55248D01*
X431770D01*
D20*
X9949Y-28334D02*
X16613D01*
X13281D01*
Y-38330D01*
X19946Y-28334D02*
X23278D01*
X21612D01*
Y-38330D01*
X19946D01*
X23278D01*
X28276Y-28334D02*
X34941D01*
X31609D01*
Y-38330D01*
X38273Y-28334D02*
Y-38330D01*
X44938D01*
X54934Y-28334D02*
X48270D01*
Y-38330D01*
X54934D01*
X48270Y-33332D02*
X51602D01*
X58267Y-31666D02*
X59933D01*
Y-33332D01*
X58267D01*
Y-31666D01*
Y-36664D02*
X59933D01*
Y-38330D01*
X58267D01*
Y-36664D01*
X76594Y-28334D02*
X79926D01*
X78260D01*
Y-38330D01*
X76594D01*
X79926D01*
X84925Y-28334D02*
X88257D01*
X86591D01*
Y-38330D01*
X84925D01*
X88257D01*
X93255D02*
Y-28334D01*
X98254D01*
X99920Y-30000D01*
Y-33332D01*
X98254Y-34998D01*
X93255D01*
X113249Y-38330D02*
Y-28334D01*
X119913Y-38330D01*
Y-28334D01*
X123246Y-38330D02*
Y-36664D01*
X124912D01*
Y-38330D01*
X123246D01*
X131576Y-30000D02*
X133242Y-28334D01*
X136575D01*
X138241Y-30000D01*
Y-31666D01*
X136575Y-33332D01*
X134908D01*
X136575D01*
X138241Y-34998D01*
Y-36664D01*
X136575Y-38330D01*
X133242D01*
X131576Y-36664D01*
X151570Y-28334D02*
Y-38330D01*
X156568D01*
X158234Y-36664D01*
Y-34998D01*
X156568Y-33332D01*
X151570D01*
X156568D01*
X158234Y-31666D01*
Y-30000D01*
X156568Y-28334D01*
X151570D01*
X166565D02*
X163233D01*
X161566Y-30000D01*
Y-36664D01*
X163233Y-38330D01*
X166565D01*
X168231Y-36664D01*
Y-30000D01*
X166565Y-28334D01*
X171563Y-38330D02*
Y-31666D01*
X174896Y-28334D01*
X178228Y-31666D01*
Y-38330D01*
Y-33332D01*
X171563D01*
X181560Y-38330D02*
Y-28334D01*
X186558D01*
X188224Y-30000D01*
Y-33332D01*
X186558Y-34998D01*
X181560D01*
X184892D02*
X188224Y-38330D01*
X191557Y-28334D02*
Y-38330D01*
X196555D01*
X198221Y-36664D01*
Y-30000D01*
X196555Y-28334D01*
X191557D01*
X218215Y-36664D02*
Y-30000D01*
X216549Y-28334D01*
X213216D01*
X211550Y-30000D01*
Y-36664D01*
X213216Y-38330D01*
X216549D01*
X214883Y-34998D02*
X218215Y-38330D01*
X216549D02*
X218215Y-36664D01*
X221547Y-28334D02*
Y-36664D01*
X223213Y-38330D01*
X226546D01*
X228212Y-36664D01*
Y-28334D01*
X231544Y-38330D02*
Y-31666D01*
X234876Y-28334D01*
X238208Y-31666D01*
Y-38330D01*
Y-33332D01*
X231544D01*
X241541Y-28334D02*
Y-38330D01*
X246539D01*
X248205Y-36664D01*
Y-30000D01*
X246539Y-28334D01*
X241541D01*
X261534D02*
Y-36664D01*
X263200Y-38330D01*
X266533D01*
X268199Y-36664D01*
Y-28334D01*
X271531Y-38330D02*
Y-31666D01*
X274863Y-28334D01*
X278196Y-31666D01*
Y-38330D01*
Y-33332D01*
X271531D01*
X281528Y-38330D02*
Y-28334D01*
X286526D01*
X288192Y-30000D01*
Y-33332D01*
X286526Y-34998D01*
X281528D01*
X284860D02*
X288192Y-38330D01*
X291525Y-28334D02*
X298189D01*
X294857D01*
Y-38330D01*
D21*
X354567Y-89495D02*
X353649Y-88577D01*
X351812D01*
X350894Y-89495D01*
Y-90413D01*
X351812Y-91332D01*
X353649D01*
X354567Y-92250D01*
Y-93168D01*
X353649Y-94087D01*
X351812D01*
X350894Y-93168D01*
X356404Y-95923D02*
Y-90413D01*
X359159D01*
X360077Y-91332D01*
Y-93168D01*
X359159Y-94087D01*
X356404D01*
X362832Y-90413D02*
X364669D01*
X365587Y-91332D01*
Y-94087D01*
X362832D01*
X361914Y-93168D01*
X362832Y-92250D01*
X365587D01*
X371097Y-90413D02*
X368342D01*
X367424Y-91332D01*
Y-93168D01*
X368342Y-94087D01*
X371097D01*
X375689D02*
X373852D01*
X372934Y-93168D01*
Y-91332D01*
X373852Y-90413D01*
X375689D01*
X376607Y-91332D01*
Y-92250D01*
X372934D01*
X378444Y-88577D02*
Y-94087D01*
X382117D01*
X384872Y-90413D02*
X386709D01*
X387627Y-91332D01*
Y-94087D01*
X384872D01*
X383954Y-93168D01*
X384872Y-92250D01*
X387627D01*
X389464Y-88577D02*
Y-94087D01*
X392219D01*
X393137Y-93168D01*
Y-92250D01*
Y-91332D01*
X392219Y-90413D01*
X389464D01*
X400484Y-88577D02*
Y-93168D01*
X401402Y-94087D01*
X403239D01*
X404157Y-93168D01*
Y-88577D01*
X409667D02*
X405994D01*
Y-91332D01*
X407831D01*
X405994D01*
Y-94087D01*
X415177Y-89495D02*
X414259Y-88577D01*
X412422D01*
X411504Y-89495D01*
Y-90413D01*
X412422Y-91332D01*
X414259D01*
X415177Y-92250D01*
Y-93168D01*
X414259Y-94087D01*
X412422D01*
X411504Y-93168D01*
X420687Y-89495D02*
X419769Y-88577D01*
X417932D01*
X417014Y-89495D01*
Y-93168D01*
X417932Y-94087D01*
X419769D01*
X420687Y-93168D01*
M02*
