G04*
G04 #@! TF.GenerationSoftware,Altium Limited,Altium Designer,20.2.6 (244)*
G04*
G04 Layer_Color=65535*
%FSLAX25Y25*%
%MOIN*%
G70*
G04*
G04 #@! TF.SameCoordinates,BC087348-C804-4798-9038-869343D915B4*
G04*
G04*
G04 #@! TF.FilePolarity,Positive*
G04*
G01*
G75*
%ADD10C,0.00787*%
%ADD11C,0.01000*%
%ADD12C,0.00394*%
%ADD13C,0.00037*%
%ADD14C,0.00100*%
%ADD15C,0.01378*%
%ADD16C,0.01575*%
%ADD17C,0.01299*%
G36*
X15840Y60814D02*
X15911D01*
Y60742D01*
Y60671D01*
Y60600D01*
Y60529D01*
Y60458D01*
Y60387D01*
Y60315D01*
Y60244D01*
Y60173D01*
Y60102D01*
Y60031D01*
X16410D01*
Y59959D01*
X16837D01*
Y59888D01*
X16623D01*
Y59817D01*
X15911D01*
Y59746D01*
Y59675D01*
Y59604D01*
Y59532D01*
Y59461D01*
Y59390D01*
Y59319D01*
X15840D01*
Y59248D01*
Y59176D01*
Y59105D01*
Y59034D01*
Y58963D01*
Y58892D01*
X15769D01*
Y58963D01*
Y59034D01*
Y59105D01*
Y59176D01*
X15698D01*
Y59248D01*
Y59319D01*
Y59390D01*
Y59461D01*
Y59532D01*
Y59604D01*
Y59675D01*
Y59746D01*
Y59817D01*
X15271D01*
Y59888D01*
X14844D01*
Y59959D01*
X14915D01*
Y60031D01*
X15698D01*
Y60102D01*
Y60173D01*
Y60244D01*
Y60315D01*
Y60387D01*
Y60458D01*
X15769D01*
Y60529D01*
Y60600D01*
Y60671D01*
Y60742D01*
Y60814D01*
Y60885D01*
X15840D01*
Y60814D01*
D02*
G37*
G36*
X27941Y57539D02*
Y57468D01*
Y57397D01*
Y57326D01*
Y57254D01*
Y57183D01*
X28012D01*
Y57112D01*
Y57041D01*
Y56970D01*
Y56899D01*
Y56827D01*
Y56756D01*
Y56685D01*
Y56614D01*
X28724D01*
Y56543D01*
X29009D01*
Y56472D01*
X28440D01*
Y56400D01*
X28012D01*
Y56329D01*
Y56258D01*
Y56187D01*
X27941D01*
Y56116D01*
Y56044D01*
Y55973D01*
Y55902D01*
Y55831D01*
Y55760D01*
Y55689D01*
Y55617D01*
X27799D01*
Y55689D01*
Y55760D01*
Y55831D01*
Y55902D01*
Y55973D01*
Y56044D01*
Y56116D01*
Y56187D01*
Y56258D01*
Y56329D01*
Y56400D01*
X27585D01*
Y56472D01*
X27016D01*
Y56543D01*
X26874D01*
Y56614D01*
X27443D01*
Y56685D01*
X27799D01*
Y56756D01*
Y56827D01*
Y56899D01*
Y56970D01*
Y57041D01*
Y57112D01*
Y57183D01*
Y57254D01*
Y57326D01*
X27870D01*
Y57397D01*
Y57468D01*
Y57539D01*
Y57610D01*
X27941D01*
Y57539D01*
D02*
G37*
G36*
X16481Y54051D02*
X16908D01*
Y53980D01*
X17122D01*
Y53909D01*
X17335D01*
Y53838D01*
X17478D01*
Y53767D01*
X17549D01*
Y53695D01*
X17691D01*
Y53624D01*
X17762D01*
Y53553D01*
X17833D01*
Y53482D01*
X17905D01*
Y53411D01*
X17976D01*
Y53339D01*
Y53268D01*
X18047D01*
Y53197D01*
X18118D01*
Y53126D01*
Y53055D01*
X18189D01*
Y52983D01*
Y52912D01*
X18260D01*
Y52841D01*
Y52770D01*
Y52699D01*
X18332D01*
Y52628D01*
Y52556D01*
Y52485D01*
Y52414D01*
Y52343D01*
X18403D01*
Y52272D01*
Y52201D01*
Y52129D01*
Y52058D01*
Y51987D01*
Y51916D01*
Y51845D01*
Y51773D01*
Y51702D01*
Y51631D01*
Y51560D01*
X18332D01*
Y51489D01*
Y51417D01*
X18616D01*
Y51489D01*
X19115D01*
Y51560D01*
X19542D01*
Y51631D01*
X19755D01*
Y51702D01*
X19827D01*
Y51773D01*
Y51845D01*
Y51916D01*
X19898D01*
Y51987D01*
Y52058D01*
X19969D01*
Y52129D01*
Y52201D01*
Y52272D01*
X20040D01*
Y52343D01*
Y52414D01*
Y52485D01*
X20111D01*
Y52556D01*
Y52628D01*
X20182D01*
Y52699D01*
Y52770D01*
Y52841D01*
X20254D01*
Y52912D01*
Y52983D01*
Y53055D01*
X20325D01*
Y53126D01*
Y53197D01*
X20396D01*
Y53268D01*
Y53339D01*
Y53411D01*
X20467D01*
Y53482D01*
X20538D01*
Y53553D01*
X20609D01*
Y53624D01*
X20681D01*
Y53695D01*
X20752D01*
Y53767D01*
X20894D01*
Y53838D01*
X21108D01*
Y53909D01*
X21820D01*
Y53838D01*
X22033D01*
Y53767D01*
X22176D01*
Y53695D01*
X22247D01*
Y53624D01*
X22318D01*
Y53553D01*
X22389D01*
Y53482D01*
X22460D01*
Y53411D01*
Y53339D01*
X22532D01*
Y53268D01*
Y53197D01*
X22603D01*
Y53126D01*
Y53055D01*
Y52983D01*
X22674D01*
Y52912D01*
Y52841D01*
X22745D01*
Y52770D01*
Y52699D01*
Y52628D01*
X22816D01*
Y52556D01*
Y52485D01*
Y52414D01*
X22887D01*
Y52343D01*
Y52272D01*
X22959D01*
Y52201D01*
Y52129D01*
X23030D01*
Y52058D01*
X23101D01*
Y52129D01*
X23670D01*
Y52201D01*
X24382D01*
Y52272D01*
X24453D01*
Y52343D01*
Y52414D01*
X24525D01*
Y52485D01*
Y52556D01*
X24596D01*
Y52628D01*
Y52699D01*
X24667D01*
Y52770D01*
Y52841D01*
X24738D01*
Y52912D01*
X24809D01*
Y52983D01*
X24881D01*
Y53055D01*
Y53126D01*
X24952D01*
Y53197D01*
X25023D01*
Y53268D01*
X25094D01*
Y53339D01*
X25165D01*
Y53411D01*
X25308D01*
Y53482D01*
X25379D01*
Y53553D01*
X25450D01*
Y53624D01*
X25592D01*
Y53695D01*
X25735D01*
Y53767D01*
X25877D01*
Y53838D01*
X26019D01*
Y53909D01*
X26233D01*
Y53980D01*
X26518D01*
Y54051D01*
X30362D01*
Y53980D01*
Y53909D01*
Y53838D01*
Y53767D01*
Y53695D01*
Y53624D01*
Y53553D01*
Y53482D01*
Y53411D01*
Y53339D01*
Y53268D01*
Y53197D01*
Y53126D01*
Y53055D01*
X26660D01*
Y52983D01*
X26447D01*
Y52912D01*
X26304D01*
Y52841D01*
X26162D01*
Y52770D01*
X26019D01*
Y52699D01*
X25948D01*
Y52628D01*
X25877D01*
Y52556D01*
X25806D01*
Y52485D01*
X25735D01*
Y52414D01*
X25664D01*
Y52343D01*
X26019D01*
Y52414D01*
X27016D01*
Y52485D01*
X28155D01*
Y52556D01*
X29436D01*
Y52628D01*
X31572D01*
Y52699D01*
Y52770D01*
Y52841D01*
Y52912D01*
Y52983D01*
Y53055D01*
Y53126D01*
Y53197D01*
Y53268D01*
Y53339D01*
Y53411D01*
Y53482D01*
Y53553D01*
Y53624D01*
Y53695D01*
Y53767D01*
Y53838D01*
Y53909D01*
Y53980D01*
Y54051D01*
X36910D01*
Y53980D01*
Y53909D01*
Y53838D01*
Y53767D01*
Y53695D01*
Y53624D01*
Y53553D01*
Y53482D01*
Y53411D01*
Y53339D01*
Y53268D01*
Y53197D01*
Y53126D01*
Y53055D01*
X32568D01*
Y52983D01*
Y52912D01*
Y52841D01*
Y52770D01*
Y52699D01*
Y52628D01*
X36768D01*
Y52556D01*
X38049D01*
Y52485D01*
X38690D01*
Y52414D01*
X39046D01*
Y52343D01*
X39331D01*
Y52272D01*
X39544D01*
Y52201D01*
X37551D01*
Y52129D01*
X35487D01*
Y52058D01*
X33992D01*
Y51987D01*
X32711D01*
Y51916D01*
X32568D01*
Y51845D01*
Y51773D01*
Y51702D01*
Y51631D01*
Y51560D01*
X36697D01*
Y51489D01*
Y51417D01*
Y51346D01*
Y51275D01*
Y51204D01*
Y51133D01*
Y51062D01*
Y50990D01*
Y50919D01*
Y50848D01*
Y50777D01*
Y50706D01*
X32568D01*
Y50634D01*
Y50563D01*
Y50492D01*
Y50421D01*
Y50350D01*
Y50279D01*
Y50207D01*
Y50136D01*
Y50065D01*
Y49994D01*
Y49923D01*
Y49852D01*
Y49780D01*
Y49709D01*
Y49638D01*
Y49567D01*
Y49496D01*
Y49424D01*
Y49353D01*
Y49282D01*
Y49211D01*
Y49140D01*
Y49068D01*
X36910D01*
Y48997D01*
Y48926D01*
Y48855D01*
Y48784D01*
Y48713D01*
Y48641D01*
Y48570D01*
Y48499D01*
Y48428D01*
Y48357D01*
Y48285D01*
Y48214D01*
Y48143D01*
Y48072D01*
X31572D01*
Y48143D01*
Y48214D01*
Y48285D01*
Y48357D01*
Y48428D01*
Y48499D01*
Y48570D01*
Y48641D01*
Y48713D01*
Y48784D01*
Y48855D01*
Y48926D01*
Y48997D01*
Y49068D01*
Y49140D01*
Y49211D01*
Y49282D01*
Y49353D01*
Y49424D01*
Y49496D01*
Y49567D01*
Y49638D01*
Y49709D01*
Y49780D01*
Y49852D01*
Y49923D01*
Y49994D01*
Y50065D01*
Y50136D01*
Y50207D01*
Y50279D01*
Y50350D01*
Y50421D01*
Y50492D01*
Y50563D01*
Y50634D01*
Y50706D01*
Y50777D01*
Y50848D01*
Y50919D01*
Y50990D01*
Y51062D01*
Y51133D01*
Y51204D01*
Y51275D01*
Y51346D01*
Y51417D01*
Y51489D01*
Y51560D01*
Y51631D01*
Y51702D01*
Y51773D01*
Y51845D01*
X30575D01*
Y51773D01*
X29721D01*
Y51702D01*
X28867D01*
Y51631D01*
X28084D01*
Y51560D01*
X27443D01*
Y51489D01*
X26731D01*
Y51417D01*
X26091D01*
Y51346D01*
X25521D01*
Y51275D01*
X25236D01*
Y51204D01*
Y51133D01*
Y51062D01*
Y50990D01*
Y50919D01*
Y50848D01*
Y50777D01*
X25308D01*
Y50706D01*
Y50634D01*
Y50563D01*
Y50492D01*
Y50421D01*
X25379D01*
Y50350D01*
Y50279D01*
Y50207D01*
X25450D01*
Y50136D01*
Y50065D01*
X25521D01*
Y49994D01*
X25592D01*
Y49923D01*
Y49852D01*
X25664D01*
Y49780D01*
X25735D01*
Y49709D01*
X25806D01*
Y49638D01*
X25877D01*
Y49567D01*
X25948D01*
Y49496D01*
X26019D01*
Y49424D01*
X26091D01*
Y49353D01*
X26233D01*
Y49282D01*
X26375D01*
Y49211D01*
X26589D01*
Y49140D01*
X26945D01*
Y49068D01*
X30362D01*
Y48997D01*
Y48926D01*
Y48855D01*
Y48784D01*
Y48713D01*
Y48641D01*
Y48570D01*
Y48499D01*
Y48428D01*
Y48357D01*
Y48285D01*
Y48214D01*
Y48143D01*
Y48072D01*
X26874D01*
Y48143D01*
X26447D01*
Y48214D01*
X26233D01*
Y48285D01*
X26019D01*
Y48357D01*
X25877D01*
Y48428D01*
X25735D01*
Y48499D01*
X25592D01*
Y48570D01*
X25521D01*
Y48641D01*
X25379D01*
Y48713D01*
X25308D01*
Y48784D01*
X25236D01*
Y48855D01*
X25165D01*
Y48926D01*
X25094D01*
Y48997D01*
X25023D01*
Y49068D01*
X24952D01*
Y49140D01*
X24881D01*
Y49211D01*
X24809D01*
Y49282D01*
Y49353D01*
X24738D01*
Y49424D01*
X24667D01*
Y49496D01*
Y49567D01*
X24596D01*
Y49638D01*
Y49709D01*
X24525D01*
Y49780D01*
Y49852D01*
X24453D01*
Y49923D01*
Y49994D01*
Y50065D01*
X24382D01*
Y50136D01*
Y50207D01*
Y50279D01*
Y50350D01*
X24311D01*
Y50421D01*
Y50492D01*
Y50563D01*
Y50634D01*
Y50706D01*
X24240D01*
Y50777D01*
Y50848D01*
Y50919D01*
Y50990D01*
Y51062D01*
Y51133D01*
X23884D01*
Y51062D01*
X23457D01*
Y50990D01*
X23386D01*
Y50919D01*
X23457D01*
Y50848D01*
Y50777D01*
X23528D01*
Y50706D01*
Y50634D01*
Y50563D01*
X23599D01*
Y50492D01*
Y50421D01*
X23670D01*
Y50350D01*
Y50279D01*
Y50207D01*
X23742D01*
Y50136D01*
Y50065D01*
Y49994D01*
X23813D01*
Y49923D01*
Y49852D01*
X23884D01*
Y49780D01*
Y49709D01*
Y49638D01*
X23955D01*
Y49567D01*
Y49496D01*
Y49424D01*
X24026D01*
Y49353D01*
Y49282D01*
X24098D01*
Y49211D01*
Y49140D01*
Y49068D01*
X24169D01*
Y48997D01*
Y48926D01*
X24240D01*
Y48855D01*
Y48784D01*
Y48713D01*
X24311D01*
Y48641D01*
Y48570D01*
Y48499D01*
X24382D01*
Y48428D01*
Y48357D01*
X24453D01*
Y48285D01*
X23386D01*
Y48357D01*
Y48428D01*
X23314D01*
Y48499D01*
Y48570D01*
Y48641D01*
X23243D01*
Y48713D01*
Y48784D01*
Y48855D01*
X23172D01*
Y48926D01*
Y48997D01*
X23101D01*
Y49068D01*
Y49140D01*
Y49211D01*
X23030D01*
Y49282D01*
Y49353D01*
X22959D01*
Y49424D01*
Y49496D01*
Y49567D01*
X22887D01*
Y49638D01*
Y49709D01*
Y49780D01*
X22816D01*
Y49852D01*
Y49923D01*
X22745D01*
Y49994D01*
Y50065D01*
Y50136D01*
X22674D01*
Y50207D01*
Y50279D01*
Y50350D01*
X22603D01*
Y50421D01*
Y50492D01*
X22532D01*
Y50563D01*
Y50634D01*
Y50706D01*
X22460D01*
Y50777D01*
Y50848D01*
X22104D01*
Y50777D01*
X21748D01*
Y50706D01*
X21321D01*
Y50634D01*
X20965D01*
Y50563D01*
X20538D01*
Y50492D01*
X20325D01*
Y50421D01*
Y50350D01*
X20254D01*
Y50279D01*
Y50207D01*
Y50136D01*
X20182D01*
Y50065D01*
Y49994D01*
X20111D01*
Y49923D01*
Y49852D01*
Y49780D01*
X20040D01*
Y49709D01*
Y49638D01*
Y49567D01*
X19969D01*
Y49496D01*
Y49424D01*
X19898D01*
Y49353D01*
Y49282D01*
Y49211D01*
X19827D01*
Y49140D01*
Y49068D01*
Y48997D01*
X19755D01*
Y48926D01*
Y48855D01*
X19684D01*
Y48784D01*
Y48713D01*
Y48641D01*
X19613D01*
Y48570D01*
Y48499D01*
Y48428D01*
X19542D01*
Y48357D01*
Y48285D01*
X18474D01*
Y48357D01*
X18545D01*
Y48428D01*
Y48499D01*
Y48570D01*
X18616D01*
Y48641D01*
Y48713D01*
X18688D01*
Y48784D01*
Y48855D01*
Y48926D01*
X18759D01*
Y48997D01*
Y49068D01*
X18830D01*
Y49140D01*
Y49211D01*
Y49282D01*
X18901D01*
Y49353D01*
Y49424D01*
Y49496D01*
X18972D01*
Y49567D01*
Y49638D01*
X19044D01*
Y49709D01*
Y49780D01*
Y49852D01*
X19115D01*
Y49923D01*
Y49994D01*
Y50065D01*
X19186D01*
Y50136D01*
Y50207D01*
X18830D01*
Y50136D01*
X18474D01*
Y50065D01*
X18189D01*
Y49994D01*
X17905D01*
Y49923D01*
X17620D01*
Y49852D01*
X17335D01*
Y49780D01*
X17050D01*
Y49709D01*
X16766D01*
Y49638D01*
X16481D01*
Y49567D01*
X16267D01*
Y49496D01*
X15983D01*
Y49424D01*
X15698D01*
Y49353D01*
X15484D01*
Y49282D01*
X15271D01*
Y49211D01*
X15057D01*
Y49140D01*
X14773D01*
Y49068D01*
X14559D01*
Y48997D01*
X14345D01*
Y48926D01*
X14132D01*
Y48855D01*
X13990D01*
Y48784D01*
X13776D01*
Y48713D01*
X13562D01*
Y48641D01*
X13349D01*
Y48570D01*
X13135D01*
Y48499D01*
X12993D01*
Y48428D01*
Y48357D01*
Y48285D01*
Y48214D01*
Y48143D01*
X12139D01*
Y48072D01*
X11925D01*
Y48001D01*
X11783D01*
Y47929D01*
X11641D01*
Y47858D01*
X11498D01*
Y47787D01*
X11356D01*
Y47716D01*
X11213D01*
Y47645D01*
X11000D01*
Y47574D01*
X10858D01*
Y47502D01*
X10715D01*
Y47431D01*
X10644D01*
Y47360D01*
X10502D01*
Y47289D01*
X10359D01*
Y47218D01*
X10217D01*
Y47146D01*
X10074D01*
Y47075D01*
X10003D01*
Y47004D01*
X9861D01*
Y46933D01*
X9719D01*
Y46862D01*
X9647D01*
Y46791D01*
X9505D01*
Y46719D01*
X9363D01*
Y46648D01*
X9291D01*
Y46577D01*
X9149D01*
Y46506D01*
X9078D01*
Y46435D01*
X8935D01*
Y46363D01*
X8864D01*
Y46292D01*
X8722D01*
Y46221D01*
X8651D01*
Y46150D01*
X8580D01*
Y46079D01*
X8437D01*
Y46008D01*
X8366D01*
Y45936D01*
X8295D01*
Y45865D01*
X8224D01*
Y45794D01*
X8081D01*
Y45723D01*
X8010D01*
Y45652D01*
X7939D01*
Y45581D01*
X7868D01*
Y45509D01*
X7797D01*
Y45438D01*
X7725D01*
Y45367D01*
X7654D01*
Y45296D01*
X7583D01*
Y45225D01*
X7512D01*
Y45153D01*
X7441D01*
Y45082D01*
X7369D01*
Y45011D01*
X7298D01*
Y44940D01*
X7227D01*
Y44869D01*
X7156D01*
Y44798D01*
X7085D01*
Y44726D01*
X7014D01*
Y44655D01*
Y44584D01*
X6942D01*
Y44513D01*
X6871D01*
Y44442D01*
X6800D01*
Y44370D01*
Y44299D01*
X6729D01*
Y44228D01*
X6658D01*
Y44157D01*
X6587D01*
Y44086D01*
Y44014D01*
X6515D01*
Y43943D01*
Y43872D01*
X6444D01*
Y43801D01*
Y43730D01*
X6373D01*
Y43659D01*
X6302D01*
Y43587D01*
Y43516D01*
X6231D01*
Y43445D01*
Y43374D01*
Y43303D01*
X6159D01*
Y43231D01*
Y43160D01*
X6088D01*
Y43089D01*
Y43018D01*
Y42947D01*
X6017D01*
Y42876D01*
Y42804D01*
Y42733D01*
Y42662D01*
X5946D01*
Y42591D01*
Y42520D01*
Y42448D01*
Y42377D01*
Y42306D01*
Y42235D01*
Y42164D01*
X5875D01*
Y42235D01*
Y42306D01*
X5804D01*
Y42377D01*
Y42448D01*
X5732D01*
Y42520D01*
Y42591D01*
X5661D01*
Y42662D01*
Y42733D01*
Y42804D01*
X5590D01*
Y42876D01*
Y42947D01*
Y43018D01*
X5519D01*
Y43089D01*
Y43160D01*
Y43231D01*
Y43303D01*
Y43374D01*
X5448D01*
Y43445D01*
Y43516D01*
Y43587D01*
Y43659D01*
Y43730D01*
Y43801D01*
Y43872D01*
Y43943D01*
Y44014D01*
Y44086D01*
Y44157D01*
Y44228D01*
Y44299D01*
Y44370D01*
Y44442D01*
Y44513D01*
Y44584D01*
X5519D01*
Y44655D01*
Y44726D01*
Y44798D01*
Y44869D01*
Y44940D01*
X5590D01*
Y45011D01*
Y45082D01*
Y45153D01*
X5661D01*
Y45225D01*
Y45296D01*
Y45367D01*
X5732D01*
Y45438D01*
Y45509D01*
X5804D01*
Y45581D01*
Y45652D01*
X5875D01*
Y45723D01*
Y45794D01*
X5946D01*
Y45865D01*
Y45936D01*
X6017D01*
Y46008D01*
X6088D01*
Y46079D01*
Y46150D01*
X6159D01*
Y46221D01*
X6231D01*
Y46292D01*
Y46363D01*
X6302D01*
Y46435D01*
X6373D01*
Y46506D01*
X6444D01*
Y46577D01*
X6515D01*
Y46648D01*
X6587D01*
Y46719D01*
X6658D01*
Y46791D01*
X6729D01*
Y46862D01*
Y46933D01*
X6800D01*
Y47004D01*
X6942D01*
Y47075D01*
X7014D01*
Y47146D01*
X7085D01*
Y47218D01*
X7156D01*
Y47289D01*
X7227D01*
Y47360D01*
X7298D01*
Y47431D01*
X7441D01*
Y47502D01*
X7512D01*
Y47574D01*
X7583D01*
Y47645D01*
X7725D01*
Y47716D01*
X7797D01*
Y47787D01*
X7939D01*
Y47858D01*
X8010D01*
Y47929D01*
X8152D01*
Y48001D01*
X8224D01*
Y48072D01*
X4522D01*
Y48143D01*
Y48214D01*
Y48285D01*
Y48357D01*
Y48428D01*
Y48499D01*
Y48570D01*
Y48641D01*
Y48713D01*
Y48784D01*
Y48855D01*
Y48926D01*
Y48997D01*
Y49068D01*
X9220D01*
Y49140D01*
X9505D01*
Y49211D01*
X9647D01*
Y49282D01*
X9719D01*
Y49353D01*
X9790D01*
Y49424D01*
Y49496D01*
X9861D01*
Y49567D01*
Y49638D01*
X9932D01*
Y49709D01*
Y49780D01*
Y49852D01*
Y49923D01*
Y49994D01*
Y50065D01*
Y50136D01*
Y50207D01*
X9861D01*
Y50279D01*
Y50350D01*
X9790D01*
Y50421D01*
Y50492D01*
X9719D01*
Y50563D01*
X9576D01*
Y50634D01*
X9363D01*
Y50706D01*
X5946D01*
Y50777D01*
X5590D01*
Y50848D01*
X5376D01*
Y50919D01*
X5234D01*
Y50990D01*
X5163D01*
Y51062D01*
X5020D01*
Y51133D01*
X4949D01*
Y51204D01*
X4878D01*
Y51275D01*
X4807D01*
Y51346D01*
Y51417D01*
X4736D01*
Y51489D01*
X4665D01*
Y51560D01*
Y51631D01*
X4593D01*
Y51702D01*
Y51773D01*
X4522D01*
Y51845D01*
Y51916D01*
Y51987D01*
Y52058D01*
X4451D01*
Y52129D01*
Y52201D01*
Y52272D01*
Y52343D01*
Y52414D01*
Y52485D01*
Y52556D01*
Y52628D01*
Y52699D01*
Y52770D01*
X4522D01*
Y52841D01*
Y52912D01*
Y52983D01*
Y53055D01*
X4593D01*
Y53126D01*
Y53197D01*
X4665D01*
Y53268D01*
Y53339D01*
X4736D01*
Y53411D01*
X4807D01*
Y53482D01*
X4878D01*
Y53553D01*
Y53624D01*
X5020D01*
Y53695D01*
X5092D01*
Y53767D01*
X5163D01*
Y53838D01*
X5305D01*
Y53909D01*
X5519D01*
Y53980D01*
X5732D01*
Y54051D01*
X10573D01*
Y53980D01*
Y53909D01*
Y53838D01*
Y53767D01*
Y53695D01*
Y53624D01*
Y53553D01*
Y53482D01*
Y53411D01*
Y53339D01*
Y53268D01*
Y53197D01*
Y53126D01*
Y53055D01*
X5946D01*
Y52983D01*
X5804D01*
Y52912D01*
X5732D01*
Y52841D01*
X5661D01*
Y52770D01*
X5590D01*
Y52699D01*
Y52628D01*
X5519D01*
Y52556D01*
Y52485D01*
Y52414D01*
Y52343D01*
Y52272D01*
Y52201D01*
Y52129D01*
Y52058D01*
Y51987D01*
X5590D01*
Y51916D01*
Y51845D01*
X5661D01*
Y51773D01*
X5732D01*
Y51702D01*
X5804D01*
Y51631D01*
X5946D01*
Y51560D01*
X9434D01*
Y51489D01*
X9790D01*
Y51417D01*
X10003D01*
Y51346D01*
X10146D01*
Y51275D01*
X10288D01*
Y51204D01*
X10359D01*
Y51133D01*
X10430D01*
Y51062D01*
X10502D01*
Y50990D01*
X10573D01*
Y50919D01*
X10644D01*
Y50848D01*
Y50777D01*
X10715D01*
Y50706D01*
Y50634D01*
X10786D01*
Y50563D01*
Y50492D01*
Y50421D01*
X10858D01*
Y50350D01*
Y50279D01*
Y50207D01*
Y50136D01*
Y50065D01*
Y49994D01*
Y49923D01*
Y49852D01*
Y49780D01*
Y49709D01*
Y49638D01*
Y49567D01*
Y49496D01*
Y49424D01*
Y49353D01*
Y49282D01*
X10929D01*
Y49353D01*
X11071D01*
Y49424D01*
X11213D01*
Y49496D01*
X11427D01*
Y49567D01*
X11569D01*
Y49638D01*
X11783D01*
Y49709D01*
X11925D01*
Y49780D01*
X11996D01*
Y49852D01*
Y49923D01*
Y49994D01*
Y50065D01*
Y50136D01*
Y50207D01*
Y50279D01*
Y50350D01*
Y50421D01*
Y50492D01*
Y50563D01*
Y50634D01*
Y50706D01*
Y50777D01*
Y50848D01*
Y50919D01*
Y50990D01*
Y51062D01*
Y51133D01*
Y51204D01*
Y51275D01*
Y51346D01*
Y51417D01*
Y51489D01*
Y51560D01*
Y51631D01*
Y51702D01*
Y51773D01*
Y51845D01*
Y51916D01*
Y51987D01*
Y52058D01*
Y52129D01*
Y52201D01*
Y52272D01*
Y52343D01*
Y52414D01*
Y52485D01*
Y52556D01*
Y52628D01*
Y52699D01*
Y52770D01*
Y52841D01*
Y52912D01*
Y52983D01*
Y53055D01*
Y53126D01*
Y53197D01*
Y53268D01*
Y53339D01*
Y53411D01*
Y53482D01*
Y53553D01*
Y53624D01*
Y53695D01*
Y53767D01*
Y53838D01*
Y53909D01*
Y53980D01*
Y54051D01*
Y54122D01*
X16481D01*
Y54051D01*
D02*
G37*
G36*
X19399Y46506D02*
Y46435D01*
Y46363D01*
Y46292D01*
Y46221D01*
Y46150D01*
Y46079D01*
X19471D01*
Y46008D01*
Y45936D01*
Y45865D01*
Y45794D01*
Y45723D01*
Y45652D01*
Y45581D01*
X19613D01*
Y45509D01*
X20182D01*
Y45438D01*
X20396D01*
Y45367D01*
X19827D01*
Y45296D01*
X19471D01*
Y45225D01*
Y45153D01*
Y45082D01*
X19399D01*
Y45011D01*
Y44940D01*
Y44869D01*
Y44798D01*
Y44726D01*
Y44655D01*
Y44584D01*
Y44513D01*
X19328D01*
Y44442D01*
X19257D01*
Y44513D01*
Y44584D01*
Y44655D01*
Y44726D01*
Y44798D01*
Y44869D01*
Y44940D01*
Y45011D01*
Y45082D01*
Y45153D01*
Y45225D01*
Y45296D01*
X19115D01*
Y45367D01*
X18474D01*
Y45438D01*
X18260D01*
Y45509D01*
X18830D01*
Y45581D01*
X19257D01*
Y45652D01*
Y45723D01*
Y45794D01*
Y45865D01*
Y45936D01*
Y46008D01*
Y46079D01*
Y46150D01*
Y46221D01*
X19328D01*
Y46292D01*
Y46363D01*
Y46435D01*
Y46506D01*
Y46577D01*
X19399D01*
Y46506D01*
D02*
G37*
G36*
X26802Y46221D02*
Y46150D01*
Y46079D01*
Y46008D01*
X26874D01*
Y45936D01*
Y45865D01*
Y45794D01*
Y45723D01*
Y45652D01*
Y45581D01*
Y45509D01*
Y45438D01*
Y45367D01*
X27158D01*
Y45296D01*
X27657D01*
Y45225D01*
X27728D01*
Y45153D01*
X26874D01*
Y45082D01*
Y45011D01*
Y44940D01*
Y44869D01*
Y44798D01*
Y44726D01*
X26802D01*
Y44655D01*
Y44584D01*
Y44513D01*
Y44442D01*
Y44370D01*
Y44299D01*
X26731D01*
Y44370D01*
X26660D01*
Y44442D01*
Y44513D01*
Y44584D01*
Y44655D01*
Y44726D01*
Y44798D01*
Y44869D01*
Y44940D01*
Y45011D01*
Y45082D01*
Y45153D01*
X26019D01*
Y45225D01*
X25664D01*
Y45296D01*
X26019D01*
Y45367D01*
X26660D01*
Y45438D01*
Y45509D01*
Y45581D01*
Y45652D01*
Y45723D01*
Y45794D01*
Y45865D01*
Y45936D01*
X26731D01*
Y46008D01*
Y46079D01*
Y46150D01*
Y46221D01*
Y46292D01*
X26802D01*
Y46221D01*
D02*
G37*
G36*
X134646Y43406D02*
X130709D01*
X132677Y45374D01*
X134646Y43406D01*
D02*
G37*
G36*
X35985Y46719D02*
X36270D01*
Y46648D01*
X36412D01*
Y46577D01*
X36555D01*
Y46506D01*
X36626D01*
Y46435D01*
X36697D01*
Y46363D01*
Y46292D01*
X36768D01*
Y46221D01*
X36839D01*
Y46150D01*
Y46079D01*
Y46008D01*
Y45936D01*
X36910D01*
Y45865D01*
Y45794D01*
Y45723D01*
Y45652D01*
Y45581D01*
X36839D01*
Y45509D01*
Y45438D01*
Y45367D01*
Y45296D01*
X36768D01*
Y45225D01*
X36697D01*
Y45153D01*
Y45082D01*
X36555D01*
Y45011D01*
X36483D01*
Y44940D01*
X36341D01*
Y44869D01*
X36483D01*
Y44798D01*
X36555D01*
Y44726D01*
X36697D01*
Y44655D01*
X36768D01*
Y44584D01*
Y44513D01*
X36839D01*
Y44442D01*
X36910D01*
Y44370D01*
Y44299D01*
Y44228D01*
Y44157D01*
X36982D01*
Y44086D01*
Y44014D01*
Y43943D01*
Y43872D01*
Y43801D01*
Y43730D01*
X36910D01*
Y43659D01*
Y43587D01*
Y43516D01*
X36839D01*
Y43445D01*
Y43374D01*
X36768D01*
Y43303D01*
Y43231D01*
X36697D01*
Y43160D01*
X36626D01*
Y43089D01*
X36555D01*
Y43018D01*
X36412D01*
Y42947D01*
X36270D01*
Y42876D01*
X36056D01*
Y42804D01*
X32639D01*
Y42876D01*
Y42947D01*
Y43018D01*
Y43089D01*
Y43160D01*
Y43231D01*
Y43303D01*
Y43374D01*
Y43445D01*
Y43516D01*
Y43587D01*
Y43659D01*
Y43730D01*
Y43801D01*
Y43872D01*
Y43943D01*
Y44014D01*
Y44086D01*
Y44157D01*
Y44228D01*
Y44299D01*
Y44370D01*
Y44442D01*
Y44513D01*
Y44584D01*
Y44655D01*
Y44726D01*
Y44798D01*
Y44869D01*
Y44940D01*
Y45011D01*
Y45082D01*
Y45153D01*
Y45225D01*
Y45296D01*
Y45367D01*
Y45438D01*
Y45509D01*
Y45581D01*
Y45652D01*
Y45723D01*
Y45794D01*
Y45865D01*
Y45936D01*
Y46008D01*
Y46079D01*
Y46150D01*
Y46221D01*
Y46292D01*
Y46363D01*
Y46435D01*
Y46506D01*
Y46577D01*
Y46648D01*
Y46719D01*
Y46791D01*
X35985D01*
Y46719D01*
D02*
G37*
G36*
X29650Y46791D02*
X29721D01*
Y46719D01*
X29792D01*
Y46648D01*
X29863D01*
Y46577D01*
X29934D01*
Y46506D01*
Y46435D01*
X30006D01*
Y46363D01*
Y46292D01*
X30077D01*
Y46221D01*
X30148D01*
Y46150D01*
Y46079D01*
X30219D01*
Y46008D01*
X30290D01*
Y45936D01*
Y45865D01*
X30362D01*
Y45794D01*
Y45723D01*
X30433D01*
Y45652D01*
X30504D01*
Y45581D01*
Y45509D01*
X30575D01*
Y45438D01*
Y45367D01*
X30646D01*
Y45296D01*
X30718D01*
Y45225D01*
Y45153D01*
X30789D01*
Y45082D01*
Y45011D01*
X30860D01*
Y44940D01*
X30931D01*
Y44869D01*
Y44798D01*
X31002D01*
Y44726D01*
Y44655D01*
X31073D01*
Y44584D01*
X31145D01*
Y44513D01*
Y44442D01*
X31216D01*
Y44370D01*
Y44299D01*
X31287D01*
Y44228D01*
X31358D01*
Y44157D01*
Y44086D01*
X31429D01*
Y44014D01*
Y43943D01*
X31501D01*
Y43872D01*
X31572D01*
Y43801D01*
Y43730D01*
X31643D01*
Y43659D01*
Y43587D01*
X31714D01*
Y43516D01*
X31785D01*
Y43445D01*
Y43374D01*
X31856D01*
Y43303D01*
Y43231D01*
X31928D01*
Y43160D01*
X31999D01*
Y43089D01*
Y43018D01*
X32070D01*
Y42947D01*
Y42876D01*
X32141D01*
Y42804D01*
X31358D01*
Y42876D01*
X31287D01*
Y42947D01*
Y43018D01*
X31216D01*
Y43089D01*
Y43160D01*
X31145D01*
Y43231D01*
X31073D01*
Y43303D01*
Y43374D01*
X31002D01*
Y43445D01*
Y43516D01*
X30931D01*
Y43587D01*
X30860D01*
Y43659D01*
Y43730D01*
X30789D01*
Y43801D01*
X28226D01*
Y43730D01*
Y43659D01*
X28155D01*
Y43587D01*
X28084D01*
Y43516D01*
Y43445D01*
X28012D01*
Y43374D01*
Y43303D01*
X27941D01*
Y43231D01*
X27870D01*
Y43160D01*
Y43089D01*
X27799D01*
Y43018D01*
Y42947D01*
X27728D01*
Y42876D01*
Y42804D01*
X26945D01*
Y42876D01*
X27016D01*
Y42947D01*
Y43018D01*
X27087D01*
Y43089D01*
X27158D01*
Y43160D01*
Y43231D01*
X27229D01*
Y43303D01*
Y43374D01*
X27301D01*
Y43445D01*
X27372D01*
Y43516D01*
Y43587D01*
X27443D01*
Y43659D01*
Y43730D01*
X27514D01*
Y43801D01*
X27585D01*
Y43872D01*
Y43943D01*
X27657D01*
Y44014D01*
Y44086D01*
X27728D01*
Y44157D01*
X27799D01*
Y44228D01*
Y44299D01*
X27870D01*
Y44370D01*
Y44442D01*
X27941D01*
Y44513D01*
X28012D01*
Y44584D01*
Y44655D01*
X28084D01*
Y44726D01*
Y44798D01*
X28155D01*
Y44869D01*
X28226D01*
Y44940D01*
Y45011D01*
X28297D01*
Y45082D01*
Y45153D01*
X28368D01*
Y45225D01*
X28440D01*
Y45296D01*
Y45367D01*
X28511D01*
Y45438D01*
Y45509D01*
X28582D01*
Y45581D01*
X28653D01*
Y45652D01*
Y45723D01*
X28724D01*
Y45794D01*
Y45865D01*
X28795D01*
Y45936D01*
X28867D01*
Y46008D01*
Y46079D01*
X28938D01*
Y46150D01*
Y46221D01*
X29009D01*
Y46292D01*
X29080D01*
Y46363D01*
Y46435D01*
X29151D01*
Y46506D01*
Y46577D01*
X29223D01*
Y46648D01*
X29294D01*
Y46719D01*
X29365D01*
Y46791D01*
X29436D01*
Y46862D01*
X29650D01*
Y46791D01*
D02*
G37*
G36*
X23884Y46719D02*
Y46648D01*
Y46577D01*
Y46506D01*
Y46435D01*
Y46363D01*
Y46292D01*
Y46221D01*
Y46150D01*
Y46079D01*
Y46008D01*
Y45936D01*
Y45865D01*
Y45794D01*
Y45723D01*
Y45652D01*
Y45581D01*
Y45509D01*
Y45438D01*
Y45367D01*
Y45296D01*
Y45225D01*
Y45153D01*
Y45082D01*
Y45011D01*
Y44940D01*
Y44869D01*
Y44798D01*
Y44726D01*
Y44655D01*
Y44584D01*
Y44513D01*
Y44442D01*
Y44370D01*
Y44299D01*
Y44228D01*
Y44157D01*
Y44086D01*
Y44014D01*
Y43943D01*
Y43872D01*
Y43801D01*
Y43730D01*
Y43659D01*
Y43587D01*
Y43516D01*
Y43445D01*
X26589D01*
Y43374D01*
Y43303D01*
Y43231D01*
Y43160D01*
Y43089D01*
Y43018D01*
Y42947D01*
Y42876D01*
Y42804D01*
X23243D01*
Y42876D01*
Y42947D01*
Y43018D01*
Y43089D01*
Y43160D01*
Y43231D01*
Y43303D01*
Y43374D01*
Y43445D01*
Y43516D01*
Y43587D01*
Y43659D01*
Y43730D01*
Y43801D01*
Y43872D01*
Y43943D01*
Y44014D01*
Y44086D01*
Y44157D01*
Y44228D01*
Y44299D01*
Y44370D01*
Y44442D01*
Y44513D01*
Y44584D01*
Y44655D01*
Y44726D01*
Y44798D01*
Y44869D01*
Y44940D01*
Y45011D01*
Y45082D01*
Y45153D01*
Y45225D01*
Y45296D01*
Y45367D01*
Y45438D01*
Y45509D01*
Y45581D01*
Y45652D01*
Y45723D01*
Y45794D01*
Y45865D01*
Y45936D01*
Y46008D01*
Y46079D01*
Y46150D01*
Y46221D01*
Y46292D01*
Y46363D01*
Y46435D01*
Y46506D01*
Y46577D01*
Y46648D01*
Y46719D01*
Y46791D01*
X23884D01*
Y46719D01*
D02*
G37*
G36*
X8295Y43303D02*
Y43231D01*
Y43160D01*
Y43089D01*
Y43018D01*
Y42947D01*
Y42876D01*
Y42804D01*
Y42733D01*
Y42662D01*
Y42591D01*
Y42520D01*
X8722D01*
Y42448D01*
X9149D01*
Y42377D01*
Y42306D01*
X8366D01*
Y42235D01*
X8295D01*
Y42164D01*
Y42092D01*
Y42021D01*
Y41950D01*
Y41879D01*
Y41808D01*
Y41737D01*
Y41666D01*
X8224D01*
Y41594D01*
Y41523D01*
Y41452D01*
Y41381D01*
Y41309D01*
X8152D01*
Y41381D01*
Y41452D01*
Y41523D01*
Y41594D01*
Y41666D01*
Y41737D01*
Y41808D01*
X8081D01*
Y41879D01*
Y41950D01*
Y42021D01*
Y42092D01*
Y42164D01*
Y42235D01*
Y42306D01*
X7512D01*
Y42377D01*
X7156D01*
Y42448D01*
X7441D01*
Y42520D01*
X8081D01*
Y42591D01*
Y42662D01*
Y42733D01*
Y42804D01*
X8152D01*
Y42876D01*
Y42947D01*
Y43018D01*
Y43089D01*
Y43160D01*
Y43231D01*
Y43303D01*
X8224D01*
Y43374D01*
X8295D01*
Y43303D01*
D02*
G37*
G36*
X142618Y35433D02*
X140650Y33465D01*
Y37402D01*
X142618Y35433D01*
D02*
G37*
G36*
X108774Y19107D02*
X104837D01*
X106806Y21075D01*
X108774Y19107D01*
D02*
G37*
%LPC*%
G36*
X21606Y52912D02*
X21250D01*
Y52841D01*
Y52770D01*
X21179D01*
Y52699D01*
Y52628D01*
X21108D01*
Y52556D01*
Y52485D01*
Y52414D01*
X21037D01*
Y52343D01*
Y52272D01*
Y52201D01*
X20965D01*
Y52129D01*
Y52058D01*
X20894D01*
Y51987D01*
Y51916D01*
Y51845D01*
X20823D01*
Y51773D01*
X21037D01*
Y51845D01*
X21535D01*
Y51916D01*
X22033D01*
Y51987D01*
X21962D01*
Y52058D01*
Y52129D01*
Y52201D01*
X21891D01*
Y52272D01*
Y52343D01*
Y52414D01*
X21820D01*
Y52485D01*
Y52556D01*
X21748D01*
Y52628D01*
Y52699D01*
Y52770D01*
X21677D01*
Y52841D01*
X21606D01*
Y52912D01*
D02*
G37*
G36*
X16410Y53126D02*
X12993D01*
Y53055D01*
Y52983D01*
Y52912D01*
Y52841D01*
Y52770D01*
Y52699D01*
Y52628D01*
Y52556D01*
Y52485D01*
Y52414D01*
Y52343D01*
Y52272D01*
Y52201D01*
Y52129D01*
Y52058D01*
Y51987D01*
Y51916D01*
Y51845D01*
Y51773D01*
Y51702D01*
Y51631D01*
Y51560D01*
Y51489D01*
Y51417D01*
Y51346D01*
Y51275D01*
Y51204D01*
Y51133D01*
Y51062D01*
Y50990D01*
Y50919D01*
Y50848D01*
Y50777D01*
X15413D01*
Y50848D01*
X15769D01*
Y50919D01*
X16054D01*
Y50990D01*
X16339D01*
Y51062D01*
X16694D01*
Y51133D01*
X17050D01*
Y51204D01*
X17193D01*
Y51275D01*
X17264D01*
Y51346D01*
X17335D01*
Y51417D01*
Y51489D01*
Y51560D01*
X17406D01*
Y51631D01*
Y51702D01*
Y51773D01*
Y51845D01*
Y51916D01*
Y51987D01*
Y52058D01*
Y52129D01*
Y52201D01*
Y52272D01*
Y52343D01*
X17335D01*
Y52414D01*
Y52485D01*
X17264D01*
Y52556D01*
Y52628D01*
X17193D01*
Y52699D01*
X17122D01*
Y52770D01*
X17050D01*
Y52841D01*
X16979D01*
Y52912D01*
X16908D01*
Y52983D01*
X16694D01*
Y53055D01*
X16410D01*
Y53126D01*
D02*
G37*
G36*
X35700Y46150D02*
X33351D01*
Y46079D01*
Y46008D01*
Y45936D01*
Y45865D01*
Y45794D01*
Y45723D01*
Y45652D01*
Y45581D01*
Y45509D01*
Y45438D01*
Y45367D01*
Y45296D01*
Y45225D01*
Y45153D01*
Y45082D01*
X35843D01*
Y45153D01*
X36056D01*
Y45225D01*
X36127D01*
Y45296D01*
X36199D01*
Y45367D01*
Y45438D01*
Y45509D01*
Y45581D01*
Y45652D01*
Y45723D01*
Y45794D01*
Y45865D01*
X36127D01*
Y45936D01*
X36056D01*
Y46008D01*
X35985D01*
Y46079D01*
X35700D01*
Y46150D01*
D02*
G37*
G36*
X35772Y44584D02*
X33351D01*
Y44513D01*
Y44442D01*
Y44370D01*
Y44299D01*
Y44228D01*
Y44157D01*
Y44086D01*
Y44014D01*
Y43943D01*
Y43872D01*
Y43801D01*
Y43730D01*
Y43659D01*
Y43587D01*
Y43516D01*
Y43445D01*
X35843D01*
Y43516D01*
X36056D01*
Y43587D01*
X36127D01*
Y43659D01*
X36199D01*
Y43730D01*
X36270D01*
Y43801D01*
Y43872D01*
Y43943D01*
Y44014D01*
Y44086D01*
Y44157D01*
Y44228D01*
Y44299D01*
X36199D01*
Y44370D01*
X36127D01*
Y44442D01*
X36056D01*
Y44513D01*
X35772D01*
Y44584D01*
D02*
G37*
G36*
X29579Y45865D02*
X29436D01*
Y45794D01*
Y45723D01*
X29365D01*
Y45652D01*
Y45581D01*
X29294D01*
Y45509D01*
X29223D01*
Y45438D01*
Y45367D01*
X29151D01*
Y45296D01*
Y45225D01*
X29080D01*
Y45153D01*
X29009D01*
Y45082D01*
Y45011D01*
X28938D01*
Y44940D01*
Y44869D01*
X28867D01*
Y44798D01*
X28795D01*
Y44726D01*
Y44655D01*
X28724D01*
Y44584D01*
Y44513D01*
X28653D01*
Y44442D01*
Y44370D01*
Y44299D01*
X30433D01*
Y44370D01*
Y44442D01*
X30362D01*
Y44513D01*
Y44584D01*
X30290D01*
Y44655D01*
Y44726D01*
X30219D01*
Y44798D01*
X30148D01*
Y44869D01*
Y44940D01*
X30077D01*
Y45011D01*
Y45082D01*
X30006D01*
Y45153D01*
X29934D01*
Y45225D01*
Y45296D01*
X29863D01*
Y45367D01*
Y45438D01*
X29792D01*
Y45509D01*
X29721D01*
Y45581D01*
Y45652D01*
X29650D01*
Y45723D01*
Y45794D01*
X29579D01*
Y45865D01*
D02*
G37*
%LPD*%
D10*
X159843Y68113D02*
G03*
X159843Y68113I-4331J0D01*
G01*
X54567D02*
G03*
X54567Y68113I-4331J0D01*
G01*
X236516Y62283D02*
X247736D01*
X236516Y41024D02*
Y62283D01*
Y41024D02*
X247736D01*
Y62283D01*
X150079Y40157D02*
Y62008D01*
Y40157D02*
X221732D01*
X150079Y62008D02*
X186339D01*
X221732Y40157D02*
Y62008D01*
X186339D02*
X221732D01*
X81063Y61929D02*
X116457D01*
Y40079D02*
Y61929D01*
X44803D02*
X81063D01*
X44803Y40079D02*
X116457D01*
X44803D02*
Y61929D01*
X90079Y36339D02*
Y40079D01*
X70394Y36339D02*
X90079D01*
X70394D02*
Y40079D01*
X195354Y36417D02*
Y40157D01*
X175669Y36417D02*
X195354D01*
X175669D02*
Y40157D01*
X150595Y100111D02*
X150820Y100786D01*
Y99436D01*
X150595Y100111D01*
X150145Y100561D01*
X149470Y100786D01*
X148795D01*
X148121Y100561D01*
X147671Y100111D01*
Y99661D01*
X147896Y99212D01*
X148121Y98987D01*
X148571Y98762D01*
X149920Y98312D01*
X150370Y98087D01*
X150820Y97637D01*
X147671Y99661D02*
X148121Y99212D01*
X148571Y98987D01*
X149920Y98537D01*
X150370Y98312D01*
X150595Y98087D01*
X150820Y97637D01*
Y96737D01*
X150370Y96288D01*
X149695Y96063D01*
X149020D01*
X148346Y96288D01*
X147896Y96737D01*
X147671Y97412D01*
Y96063D01*
X147896Y96737D01*
X152192Y99212D02*
Y94488D01*
X152417Y99212D02*
Y94488D01*
Y98537D02*
X152867Y98987D01*
X153316Y99212D01*
X153766D01*
X154441Y98987D01*
X154891Y98537D01*
X155116Y97862D01*
Y97412D01*
X154891Y96737D01*
X154441Y96288D01*
X153766Y96063D01*
X153316D01*
X152867Y96288D01*
X152417Y96737D01*
X153766Y99212D02*
X154216Y98987D01*
X154666Y98537D01*
X154891Y97862D01*
Y97412D01*
X154666Y96737D01*
X154216Y96288D01*
X153766Y96063D01*
X151517Y99212D02*
X152417D01*
X151517Y94488D02*
X153092D01*
X156218Y98762D02*
Y98537D01*
X155993D01*
Y98762D01*
X156218Y98987D01*
X156668Y99212D01*
X157568D01*
X158017Y98987D01*
X158242Y98762D01*
X158467Y98312D01*
Y96737D01*
X158692Y96288D01*
X158917Y96063D01*
X158242Y98762D02*
Y96737D01*
X158467Y96288D01*
X158917Y96063D01*
X159142D01*
X158242Y98312D02*
X158017Y98087D01*
X156668Y97862D01*
X155993Y97637D01*
X155768Y97187D01*
Y96737D01*
X155993Y96288D01*
X156668Y96063D01*
X157343D01*
X157792Y96288D01*
X158242Y96737D01*
X156668Y97862D02*
X156218Y97637D01*
X155993Y97187D01*
Y96737D01*
X156218Y96288D01*
X156668Y96063D01*
X162516Y98537D02*
X162291Y98312D01*
X162516Y98087D01*
X162741Y98312D01*
Y98537D01*
X162291Y98987D01*
X161841Y99212D01*
X161166D01*
X160492Y98987D01*
X160042Y98537D01*
X159817Y97862D01*
Y97412D01*
X160042Y96737D01*
X160492Y96288D01*
X161166Y96063D01*
X161616D01*
X162291Y96288D01*
X162741Y96737D01*
X161166Y99212D02*
X160716Y98987D01*
X160267Y98537D01*
X160042Y97862D01*
Y97412D01*
X160267Y96737D01*
X160716Y96288D01*
X161166Y96063D01*
X163685Y97862D02*
X166384D01*
Y98312D01*
X166159Y98762D01*
X165935Y98987D01*
X165485Y99212D01*
X164810D01*
X164135Y98987D01*
X163685Y98537D01*
X163461Y97862D01*
Y97412D01*
X163685Y96737D01*
X164135Y96288D01*
X164810Y96063D01*
X165260D01*
X165935Y96288D01*
X166384Y96737D01*
X166159Y97862D02*
Y98537D01*
X165935Y98987D01*
X164810Y99212D02*
X164360Y98987D01*
X163910Y98537D01*
X163685Y97862D01*
Y97412D01*
X163910Y96737D01*
X164360Y96288D01*
X164810Y96063D01*
X167779Y100786D02*
Y96063D01*
X168004Y100786D02*
Y96063D01*
X167104Y100786D02*
X168679D01*
X167104Y96063D02*
X170478D01*
Y97412D01*
X170253Y96063D01*
X171603Y98762D02*
Y98537D01*
X171378D01*
Y98762D01*
X171603Y98987D01*
X172053Y99212D01*
X172952D01*
X173402Y98987D01*
X173627Y98762D01*
X173852Y98312D01*
Y96737D01*
X174077Y96288D01*
X174302Y96063D01*
X173627Y98762D02*
Y96737D01*
X173852Y96288D01*
X174302Y96063D01*
X174527D01*
X173627Y98312D02*
X173402Y98087D01*
X172053Y97862D01*
X171378Y97637D01*
X171153Y97187D01*
Y96737D01*
X171378Y96288D01*
X172053Y96063D01*
X172727D01*
X173177Y96288D01*
X173627Y96737D01*
X172053Y97862D02*
X171603Y97637D01*
X171378Y97187D01*
Y96737D01*
X171603Y96288D01*
X172053Y96063D01*
X175876Y100786D02*
Y96063D01*
X176101Y100786D02*
Y96063D01*
Y98537D02*
X176551Y98987D01*
X177001Y99212D01*
X177451D01*
X178126Y98987D01*
X178575Y98537D01*
X178800Y97862D01*
Y97412D01*
X178575Y96737D01*
X178126Y96288D01*
X177451Y96063D01*
X177001D01*
X176551Y96288D01*
X176101Y96737D01*
X177451Y99212D02*
X177901Y98987D01*
X178350Y98537D01*
X178575Y97862D01*
Y97412D01*
X178350Y96737D01*
X177901Y96288D01*
X177451Y96063D01*
X175201Y100786D02*
X176101D01*
X184378D02*
Y97412D01*
X184603Y96737D01*
X185053Y96288D01*
X185728Y96063D01*
X186178D01*
X186853Y96288D01*
X187302Y96737D01*
X187527Y97412D01*
Y100786D01*
X184603D02*
Y97412D01*
X184828Y96737D01*
X185278Y96288D01*
X185728Y96063D01*
X183704Y100786D02*
X185278D01*
X186853D02*
X188202D01*
X189439D02*
Y96063D01*
X189664Y100786D02*
Y96063D01*
X191014Y99436D02*
Y97637D01*
X188764Y100786D02*
X192363D01*
Y99436D01*
X192138Y100786D01*
X189664Y98537D02*
X191014D01*
X188764Y96063D02*
X190339D01*
X195940Y100111D02*
X196164Y100786D01*
Y99436D01*
X195940Y100111D01*
X195490Y100561D01*
X194815Y100786D01*
X194140D01*
X193465Y100561D01*
X193016Y100111D01*
Y99661D01*
X193240Y99212D01*
X193465Y98987D01*
X193915Y98762D01*
X195265Y98312D01*
X195714Y98087D01*
X196164Y97637D01*
X193016Y99661D02*
X193465Y99212D01*
X193915Y98987D01*
X195265Y98537D01*
X195714Y98312D01*
X195940Y98087D01*
X196164Y97637D01*
Y96737D01*
X195714Y96288D01*
X195040Y96063D01*
X194365D01*
X193690Y96288D01*
X193240Y96737D01*
X193016Y97412D01*
Y96063D01*
X193240Y96737D01*
X200011Y100111D02*
X200236Y99436D01*
Y100786D01*
X200011Y100111D01*
X199561Y100561D01*
X198886Y100786D01*
X198436D01*
X197761Y100561D01*
X197311Y100111D01*
X197087Y99661D01*
X196862Y98987D01*
Y97862D01*
X197087Y97187D01*
X197311Y96737D01*
X197761Y96288D01*
X198436Y96063D01*
X198886D01*
X199561Y96288D01*
X200011Y96737D01*
X200236Y97187D01*
X198436Y100786D02*
X197986Y100561D01*
X197536Y100111D01*
X197311Y99661D01*
X197087Y98987D01*
Y97862D01*
X197311Y97187D01*
X197536Y96737D01*
X197986Y96288D01*
X198436Y96063D01*
X205386Y99886D02*
X205611Y99661D01*
X205386Y99436D01*
X205161Y99661D01*
Y99886D01*
X205386Y100336D01*
X205611Y100561D01*
X206286Y100786D01*
X207186D01*
X207860Y100561D01*
X208085Y100336D01*
X208310Y99886D01*
Y99436D01*
X208085Y98987D01*
X207411Y98537D01*
X206286Y98087D01*
X205836Y97862D01*
X205386Y97412D01*
X205161Y96737D01*
Y96063D01*
X207186Y100786D02*
X207635Y100561D01*
X207860Y100336D01*
X208085Y99886D01*
Y99436D01*
X207860Y98987D01*
X207186Y98537D01*
X206286Y98087D01*
X205161Y96513D02*
X205386Y96737D01*
X205836D01*
X206961Y96288D01*
X207635D01*
X208085Y96513D01*
X208310Y96737D01*
Y97187D01*
X205836Y96737D02*
X206961Y96063D01*
X207860D01*
X208085Y96288D01*
X208310Y96737D01*
X210357Y100786D02*
X209682Y100561D01*
X209232Y99886D01*
X209008Y98762D01*
Y98087D01*
X209232Y96962D01*
X209682Y96288D01*
X210357Y96063D01*
X210807D01*
X211482Y96288D01*
X211932Y96962D01*
X212157Y98087D01*
Y98762D01*
X211932Y99886D01*
X211482Y100561D01*
X210807Y100786D01*
X210357D01*
X209907Y100561D01*
X209682Y100336D01*
X209457Y99886D01*
X209232Y98762D01*
Y98087D01*
X209457Y96962D01*
X209682Y96513D01*
X209907Y96288D01*
X210357Y96063D01*
X210807D02*
X211257Y96288D01*
X211482Y96513D01*
X211707Y96962D01*
X211932Y98087D01*
Y98762D01*
X211707Y99886D01*
X211482Y100336D01*
X211257Y100561D01*
X210807Y100786D01*
X213079Y99886D02*
X213304Y99661D01*
X213079Y99436D01*
X212854Y99661D01*
Y99886D01*
X213079Y100336D01*
X213304Y100561D01*
X213978Y100786D01*
X214878D01*
X215553Y100561D01*
X215778Y100336D01*
X216003Y99886D01*
Y99436D01*
X215778Y98987D01*
X215103Y98537D01*
X213978Y98087D01*
X213528Y97862D01*
X213079Y97412D01*
X212854Y96737D01*
Y96063D01*
X214878Y100786D02*
X215328Y100561D01*
X215553Y100336D01*
X215778Y99886D01*
Y99436D01*
X215553Y98987D01*
X214878Y98537D01*
X213978Y98087D01*
X212854Y96513D02*
X213079Y96737D01*
X213528D01*
X214653Y96288D01*
X215328D01*
X215778Y96513D01*
X216003Y96737D01*
Y97187D01*
X213528Y96737D02*
X214653Y96063D01*
X215553D01*
X215778Y96288D01*
X216003Y96737D01*
X218050Y100786D02*
X217375Y100561D01*
X216925Y99886D01*
X216700Y98762D01*
Y98087D01*
X216925Y96962D01*
X217375Y96288D01*
X218050Y96063D01*
X218499D01*
X219174Y96288D01*
X219624Y96962D01*
X219849Y98087D01*
Y98762D01*
X219624Y99886D01*
X219174Y100561D01*
X218499Y100786D01*
X218050D01*
X217600Y100561D01*
X217375Y100336D01*
X217150Y99886D01*
X216925Y98762D01*
Y98087D01*
X217150Y96962D01*
X217375Y96513D01*
X217600Y96288D01*
X218050Y96063D01*
X218499D02*
X218949Y96288D01*
X219174Y96513D01*
X219399Y96962D01*
X219624Y98087D01*
Y98762D01*
X219399Y99886D01*
X219174Y100336D01*
X218949Y100561D01*
X218499Y100786D01*
X63092Y68723D02*
X61518D01*
X62305D01*
Y64787D01*
X61518Y64000D01*
X60731D01*
X59943Y64787D01*
X64666Y68723D02*
X67815D01*
X66241D01*
Y64000D01*
X69389D02*
Y67149D01*
X70964Y68723D01*
X72538Y67149D01*
Y64000D01*
Y66361D01*
X69389D01*
X77261Y67936D02*
X76474Y68723D01*
X74899D01*
X74112Y67936D01*
Y64787D01*
X74899Y64000D01*
X76474D01*
X77261Y64787D01*
Y66361D01*
X75686D01*
X78835Y64000D02*
X81984Y67149D01*
X83558Y68723D02*
Y64787D01*
X84345Y64000D01*
X85919D01*
X86707Y64787D01*
Y68723D01*
X88281Y64000D02*
Y67149D01*
X89855Y68723D01*
X91429Y67149D01*
Y64000D01*
Y66361D01*
X88281D01*
X93004Y64000D02*
Y68723D01*
X95365D01*
X96152Y67936D01*
Y66361D01*
X95365Y65574D01*
X93004D01*
X94578D02*
X96152Y64000D01*
X97727Y68723D02*
X100875D01*
X99301D01*
Y64000D01*
X107172D02*
Y68723D01*
X110321Y64000D01*
Y68723D01*
X111895Y67936D02*
X112682Y68723D01*
X114257D01*
X115044Y67936D01*
Y67149D01*
X114257Y66361D01*
X113470D01*
X114257D01*
X115044Y65574D01*
Y64787D01*
X114257Y64000D01*
X112682D01*
X111895Y64787D01*
X168309Y69290D02*
X166734D01*
X167522D01*
Y65354D01*
X166734Y64567D01*
X165947D01*
X165160Y65354D01*
X169883Y69290D02*
X173031D01*
X171457D01*
Y64567D01*
X174606D02*
Y67716D01*
X176180Y69290D01*
X177754Y67716D01*
Y64567D01*
Y66928D01*
X174606D01*
X182477Y68503D02*
X181690Y69290D01*
X180116D01*
X179329Y68503D01*
Y65354D01*
X180116Y64567D01*
X181690D01*
X182477Y65354D01*
Y66928D01*
X180903D01*
X184052Y64567D02*
X187200Y67716D01*
X188774Y69290D02*
Y65354D01*
X189562Y64567D01*
X191136D01*
X191923Y65354D01*
Y69290D01*
X193497Y64567D02*
Y67716D01*
X195072Y69290D01*
X196646Y67716D01*
Y64567D01*
Y66928D01*
X193497D01*
X198220Y64567D02*
Y69290D01*
X200582D01*
X201369Y68503D01*
Y66928D01*
X200582Y66141D01*
X198220D01*
X199794D02*
X201369Y64567D01*
X202943Y69290D02*
X206092D01*
X204517D01*
Y64567D01*
X212389D02*
Y69290D01*
X215537Y64567D01*
Y69290D01*
X219473Y64567D02*
Y69290D01*
X217112Y66928D01*
X220260D01*
X37035Y103226D02*
Y98502D01*
X37260Y103226D02*
Y98502D01*
X36360Y103226D02*
X37934D01*
X36360Y98502D02*
X37934D01*
X39464Y101651D02*
Y98502D01*
X39689Y101651D02*
Y98502D01*
Y100977D02*
X40139Y101426D01*
X40813Y101651D01*
X41263D01*
X41938Y101426D01*
X42163Y100977D01*
Y98502D01*
X41263Y101651D02*
X41713Y101426D01*
X41938Y100977D01*
Y98502D01*
X38789Y101651D02*
X39689D01*
X38789Y98502D02*
X40363D01*
X41263D02*
X42838D01*
X44794D02*
X44570Y98727D01*
X44345Y99402D01*
Y103226D01*
X44120D01*
Y99402D01*
X44345Y98727D01*
X44794Y98502D01*
X45244D01*
X45694Y98727D01*
X45919Y99177D01*
X43445Y101651D02*
X45244D01*
X46909Y100302D02*
X49608D01*
Y100752D01*
X49383Y101201D01*
X49158Y101426D01*
X48708Y101651D01*
X48033D01*
X47359Y101426D01*
X46909Y100977D01*
X46684Y100302D01*
Y99852D01*
X46909Y99177D01*
X47359Y98727D01*
X48033Y98502D01*
X48483D01*
X49158Y98727D01*
X49608Y99177D01*
X49383Y100302D02*
Y100977D01*
X49158Y101426D01*
X48033Y101651D02*
X47584Y101426D01*
X47134Y100977D01*
X46909Y100302D01*
Y99852D01*
X47134Y99177D01*
X47584Y98727D01*
X48033Y98502D01*
X51002Y101651D02*
Y98502D01*
X51227Y101651D02*
Y98502D01*
Y100302D02*
X51452Y100977D01*
X51902Y101426D01*
X52352Y101651D01*
X53027D01*
X53252Y101426D01*
Y101201D01*
X53027Y100977D01*
X52802Y101201D01*
X53027Y101426D01*
X50328Y101651D02*
X51227D01*
X50328Y98502D02*
X51902D01*
X56221Y101201D02*
X56446Y101651D01*
Y100752D01*
X56221Y101201D01*
X55996Y101426D01*
X55546Y101651D01*
X54646D01*
X54196Y101426D01*
X53971Y101201D01*
Y100752D01*
X54196Y100527D01*
X54646Y100302D01*
X55771Y99852D01*
X56221Y99627D01*
X56446Y99402D01*
X53971Y100977D02*
X54196Y100752D01*
X54646Y100527D01*
X55771Y100077D01*
X56221Y99852D01*
X56446Y99627D01*
Y98952D01*
X56221Y98727D01*
X55771Y98502D01*
X54871D01*
X54421Y98727D01*
X54196Y98952D01*
X53971Y99402D01*
Y98502D01*
X54196Y98952D01*
X58560Y98502D02*
X58335Y98727D01*
X58110Y99402D01*
Y103226D01*
X57885D01*
Y99402D01*
X58110Y98727D01*
X58560Y98502D01*
X59010D01*
X59460Y98727D01*
X59684Y99177D01*
X57210Y101651D02*
X59010D01*
X60899Y101201D02*
Y100977D01*
X60674D01*
Y101201D01*
X60899Y101426D01*
X61349Y101651D01*
X62249D01*
X62699Y101426D01*
X62923Y101201D01*
X63148Y100752D01*
Y99177D01*
X63373Y98727D01*
X63598Y98502D01*
X62923Y101201D02*
Y99177D01*
X63148Y98727D01*
X63598Y98502D01*
X63823D01*
X62923Y100752D02*
X62699Y100527D01*
X61349Y100302D01*
X60674Y100077D01*
X60449Y99627D01*
Y99177D01*
X60674Y98727D01*
X61349Y98502D01*
X62024D01*
X62473Y98727D01*
X62923Y99177D01*
X61349Y100302D02*
X60899Y100077D01*
X60674Y99627D01*
Y99177D01*
X60899Y98727D01*
X61349Y98502D01*
X65847Y101651D02*
X65398Y101426D01*
X65173Y101201D01*
X64948Y100752D01*
Y100302D01*
X65173Y99852D01*
X65398Y99627D01*
X65847Y99402D01*
X66297D01*
X66747Y99627D01*
X66972Y99852D01*
X67197Y100302D01*
Y100752D01*
X66972Y101201D01*
X66747Y101426D01*
X66297Y101651D01*
X65847D01*
X65398Y101426D02*
X65173Y100977D01*
Y100077D01*
X65398Y99627D01*
X66747D02*
X66972Y100077D01*
Y100977D01*
X66747Y101426D01*
X66972Y101201D02*
X67197Y101426D01*
X67647Y101651D01*
Y101426D01*
X67197D01*
X65173Y99852D02*
X64948Y99627D01*
X64723Y99177D01*
Y98952D01*
X64948Y98502D01*
X65623Y98277D01*
X66747D01*
X67422Y98053D01*
X67647Y97828D01*
X64723Y98952D02*
X64948Y98727D01*
X65623Y98502D01*
X66747D01*
X67422Y98277D01*
X67647Y97828D01*
Y97603D01*
X67422Y97153D01*
X66747Y96928D01*
X65398D01*
X64723Y97153D01*
X64498Y97603D01*
Y97828D01*
X64723Y98277D01*
X65398Y98502D01*
X68569Y100302D02*
X71268D01*
Y100752D01*
X71043Y101201D01*
X70818Y101426D01*
X70368Y101651D01*
X69694D01*
X69019Y101426D01*
X68569Y100977D01*
X68344Y100302D01*
Y99852D01*
X68569Y99177D01*
X69019Y98727D01*
X69694Y98502D01*
X70143D01*
X70818Y98727D01*
X71268Y99177D01*
X71043Y100302D02*
Y100977D01*
X70818Y101426D01*
X69694Y101651D02*
X69244Y101426D01*
X68794Y100977D01*
X68569Y100302D01*
Y99852D01*
X68794Y99177D01*
X69244Y98727D01*
X69694Y98502D01*
X76914Y103226D02*
Y98502D01*
X77139Y103226D02*
Y98502D01*
X76239Y103226D02*
X77813D01*
X76239Y98502D02*
X77813D01*
X79343Y101651D02*
Y98502D01*
X79568Y101651D02*
Y98502D01*
Y100977D02*
X80018Y101426D01*
X80692Y101651D01*
X81142D01*
X81817Y101426D01*
X82042Y100977D01*
Y98502D01*
X81142Y101651D02*
X81592Y101426D01*
X81817Y100977D01*
Y98502D01*
X78668Y101651D02*
X79568D01*
X78668Y98502D02*
X80243D01*
X81142D02*
X82717D01*
X84674D02*
X84449Y98727D01*
X84224Y99402D01*
Y103226D01*
X83999D01*
Y99402D01*
X84224Y98727D01*
X84674Y98502D01*
X85123D01*
X85573Y98727D01*
X85798Y99177D01*
X83324Y101651D02*
X85123D01*
X86788Y100302D02*
X89487D01*
Y100752D01*
X89262Y101201D01*
X89037Y101426D01*
X88587Y101651D01*
X87912D01*
X87238Y101426D01*
X86788Y100977D01*
X86563Y100302D01*
Y99852D01*
X86788Y99177D01*
X87238Y98727D01*
X87912Y98502D01*
X88362D01*
X89037Y98727D01*
X89487Y99177D01*
X89262Y100302D02*
Y100977D01*
X89037Y101426D01*
X87912Y101651D02*
X87463Y101426D01*
X87013Y100977D01*
X86788Y100302D01*
Y99852D01*
X87013Y99177D01*
X87463Y98727D01*
X87912Y98502D01*
X90881Y101651D02*
Y98502D01*
X91106Y101651D02*
Y98502D01*
Y100302D02*
X91331Y100977D01*
X91781Y101426D01*
X92231Y101651D01*
X92906D01*
X93131Y101426D01*
Y101201D01*
X92906Y100977D01*
X92681Y101201D01*
X92906Y101426D01*
X90207Y101651D02*
X91106D01*
X90207Y98502D02*
X91781D01*
X95650Y103001D02*
X95425Y102776D01*
X95650Y102551D01*
X95875Y102776D01*
Y103001D01*
X95650Y103226D01*
X95200D01*
X94750Y103001D01*
X94525Y102551D01*
Y98502D01*
X95200Y103226D02*
X94975Y103001D01*
X94750Y102551D01*
Y98502D01*
X93850Y101651D02*
X95650D01*
X93850Y98502D02*
X95425D01*
X97134Y101201D02*
Y100977D01*
X96909D01*
Y101201D01*
X97134Y101426D01*
X97584Y101651D01*
X98484D01*
X98934Y101426D01*
X99159Y101201D01*
X99383Y100752D01*
Y99177D01*
X99608Y98727D01*
X99833Y98502D01*
X99159Y101201D02*
Y99177D01*
X99383Y98727D01*
X99833Y98502D01*
X100058D01*
X99159Y100752D02*
X98934Y100527D01*
X97584Y100302D01*
X96909Y100077D01*
X96684Y99627D01*
Y99177D01*
X96909Y98727D01*
X97584Y98502D01*
X98259D01*
X98709Y98727D01*
X99159Y99177D01*
X97584Y100302D02*
X97134Y100077D01*
X96909Y99627D01*
Y99177D01*
X97134Y98727D01*
X97584Y98502D01*
X103432Y100977D02*
X103207Y100752D01*
X103432Y100527D01*
X103657Y100752D01*
Y100977D01*
X103207Y101426D01*
X102757Y101651D01*
X102083D01*
X101408Y101426D01*
X100958Y100977D01*
X100733Y100302D01*
Y99852D01*
X100958Y99177D01*
X101408Y98727D01*
X102083Y98502D01*
X102532D01*
X103207Y98727D01*
X103657Y99177D01*
X102083Y101651D02*
X101633Y101426D01*
X101183Y100977D01*
X100958Y100302D01*
Y99852D01*
X101183Y99177D01*
X101633Y98727D01*
X102083Y98502D01*
X104602Y100302D02*
X107301D01*
Y100752D01*
X107076Y101201D01*
X106851Y101426D01*
X106401Y101651D01*
X105726D01*
X105052Y101426D01*
X104602Y100977D01*
X104377Y100302D01*
Y99852D01*
X104602Y99177D01*
X105052Y98727D01*
X105726Y98502D01*
X106176D01*
X106851Y98727D01*
X107301Y99177D01*
X107076Y100302D02*
Y100977D01*
X106851Y101426D01*
X105726Y101651D02*
X105277Y101426D01*
X104827Y100977D01*
X104602Y100302D01*
Y99852D01*
X104827Y99177D01*
X105277Y98727D01*
X105726Y98502D01*
X112946Y103226D02*
Y98502D01*
X113171Y103226D02*
Y98502D01*
X112272Y103226D02*
X114971D01*
X115646Y103001D01*
X115870Y102776D01*
X116095Y102326D01*
Y101651D01*
X115870Y101201D01*
X115646Y100977D01*
X114971Y100752D01*
X113171D01*
X114971Y103226D02*
X115421Y103001D01*
X115646Y102776D01*
X115870Y102326D01*
Y101651D01*
X115646Y101201D01*
X115421Y100977D01*
X114971Y100752D01*
X112272Y98502D02*
X113846D01*
X117175Y101201D02*
Y100977D01*
X116950D01*
Y101201D01*
X117175Y101426D01*
X117625Y101651D01*
X118525D01*
X118974Y101426D01*
X119199Y101201D01*
X119424Y100752D01*
Y99177D01*
X119649Y98727D01*
X119874Y98502D01*
X119199Y101201D02*
Y99177D01*
X119424Y98727D01*
X119874Y98502D01*
X120099D01*
X119199Y100752D02*
X118974Y100527D01*
X117625Y100302D01*
X116950Y100077D01*
X116725Y99627D01*
Y99177D01*
X116950Y98727D01*
X117625Y98502D01*
X118300D01*
X118749Y98727D01*
X119199Y99177D01*
X117625Y100302D02*
X117175Y100077D01*
X116950Y99627D01*
Y99177D01*
X117175Y98727D01*
X117625Y98502D01*
X121449Y101651D02*
Y98502D01*
X121674Y101651D02*
Y98502D01*
Y100977D02*
X122123Y101426D01*
X122798Y101651D01*
X123248D01*
X123923Y101426D01*
X124148Y100977D01*
Y98502D01*
X123248Y101651D02*
X123698Y101426D01*
X123923Y100977D01*
Y98502D01*
X120774Y101651D02*
X121674D01*
X120774Y98502D02*
X122348D01*
X123248D02*
X124822D01*
X125655Y100302D02*
X128354D01*
Y100752D01*
X128129Y101201D01*
X127904Y101426D01*
X127454Y101651D01*
X126779D01*
X126104Y101426D01*
X125655Y100977D01*
X125430Y100302D01*
Y99852D01*
X125655Y99177D01*
X126104Y98727D01*
X126779Y98502D01*
X127229D01*
X127904Y98727D01*
X128354Y99177D01*
X128129Y100302D02*
Y100977D01*
X127904Y101426D01*
X126779Y101651D02*
X126329Y101426D01*
X125880Y100977D01*
X125655Y100302D01*
Y99852D01*
X125880Y99177D01*
X126329Y98727D01*
X126779Y98502D01*
X129748Y103226D02*
Y98502D01*
X129973Y103226D02*
Y98502D01*
X129073Y103226D02*
X129973D01*
X129073Y98502D02*
X130648D01*
X54770Y94094D02*
Y89370D01*
X54995Y94094D02*
Y89370D01*
X54095Y94094D02*
X56794D01*
X57469Y93869D01*
X57694Y93644D01*
X57919Y93194D01*
Y92744D01*
X57694Y92294D01*
X57469Y92069D01*
X56794Y91844D01*
Y94094D02*
X57244Y93869D01*
X57469Y93644D01*
X57694Y93194D01*
Y92744D01*
X57469Y92294D01*
X57244Y92069D01*
X56794Y91844D01*
X54995D02*
X56794D01*
X57469Y91619D01*
X57694Y91394D01*
X57919Y90945D01*
Y90270D01*
X57694Y89820D01*
X57469Y89595D01*
X56794Y89370D01*
X54095D01*
X56794Y91844D02*
X57244Y91619D01*
X57469Y91394D01*
X57694Y90945D01*
Y90270D01*
X57469Y89820D01*
X57244Y89595D01*
X56794Y89370D01*
X59898Y92519D02*
X59223Y92294D01*
X58773Y91844D01*
X58549Y91170D01*
Y90720D01*
X58773Y90045D01*
X59223Y89595D01*
X59898Y89370D01*
X60348D01*
X61023Y89595D01*
X61473Y90045D01*
X61698Y90720D01*
Y91170D01*
X61473Y91844D01*
X61023Y92294D01*
X60348Y92519D01*
X59898D01*
X59448Y92294D01*
X58999Y91844D01*
X58773Y91170D01*
Y90720D01*
X58999Y90045D01*
X59448Y89595D01*
X59898Y89370D01*
X60348D02*
X60798Y89595D01*
X61248Y90045D01*
X61473Y90720D01*
Y91170D01*
X61248Y91844D01*
X60798Y92294D01*
X60348Y92519D01*
X62845Y92069D02*
Y91844D01*
X62620D01*
Y92069D01*
X62845Y92294D01*
X63295Y92519D01*
X64194D01*
X64644Y92294D01*
X64869Y92069D01*
X65094Y91619D01*
Y90045D01*
X65319Y89595D01*
X65544Y89370D01*
X64869Y92069D02*
Y90045D01*
X65094Y89595D01*
X65544Y89370D01*
X65769D01*
X64869Y91619D02*
X64644Y91394D01*
X63295Y91170D01*
X62620Y90945D01*
X62395Y90495D01*
Y90045D01*
X62620Y89595D01*
X63295Y89370D01*
X63969D01*
X64419Y89595D01*
X64869Y90045D01*
X63295Y91170D02*
X62845Y90945D01*
X62620Y90495D01*
Y90045D01*
X62845Y89595D01*
X63295Y89370D01*
X67118Y92519D02*
Y89370D01*
X67343Y92519D02*
Y89370D01*
Y91170D02*
X67568Y91844D01*
X68018Y92294D01*
X68468Y92519D01*
X69143D01*
X69367Y92294D01*
Y92069D01*
X69143Y91844D01*
X68918Y92069D01*
X69143Y92294D01*
X66443Y92519D02*
X67343D01*
X66443Y89370D02*
X68018D01*
X72786Y94094D02*
Y89370D01*
X73011Y94094D02*
Y89370D01*
X72786Y91844D02*
X72336Y92294D01*
X71887Y92519D01*
X71437D01*
X70762Y92294D01*
X70312Y91844D01*
X70087Y91170D01*
Y90720D01*
X70312Y90045D01*
X70762Y89595D01*
X71437Y89370D01*
X71887D01*
X72336Y89595D01*
X72786Y90045D01*
X71437Y92519D02*
X70987Y92294D01*
X70537Y91844D01*
X70312Y91170D01*
Y90720D01*
X70537Y90045D01*
X70987Y89595D01*
X71437Y89370D01*
X72111Y94094D02*
X73011D01*
X72786Y89370D02*
X73686D01*
X79264Y94094D02*
Y89370D01*
X79489Y94094D02*
X82188Y89820D01*
X79489Y93644D02*
X82188Y89370D01*
Y94094D02*
Y89370D01*
X78589Y94094D02*
X79489D01*
X81513D02*
X82863D01*
X78589Y89370D02*
X79939D01*
X83673Y89820D02*
X83448Y89595D01*
X83673Y89370D01*
X83898Y89595D01*
X83673Y89820D01*
X85090Y93194D02*
X85315Y92969D01*
X85090Y92744D01*
X84865Y92969D01*
Y93194D01*
X85090Y93644D01*
X85315Y93869D01*
X85989Y94094D01*
X86889D01*
X87564Y93869D01*
X87789Y93644D01*
X88014Y93194D01*
Y92744D01*
X87789Y92294D01*
X87114Y91844D01*
X85989Y91394D01*
X85540Y91170D01*
X85090Y90720D01*
X84865Y90045D01*
Y89370D01*
X86889Y94094D02*
X87339Y93869D01*
X87564Y93644D01*
X87789Y93194D01*
Y92744D01*
X87564Y92294D01*
X86889Y91844D01*
X85989Y91394D01*
X84865Y89820D02*
X85090Y90045D01*
X85540D01*
X86664Y89595D01*
X87339D01*
X87789Y89820D01*
X88014Y90045D01*
Y90495D01*
X85540Y90045D02*
X86664Y89370D01*
X87564D01*
X87789Y89595D01*
X88014Y90045D01*
X93637Y94094D02*
Y89370D01*
X93862Y94094D02*
Y89370D01*
X92962Y94094D02*
X95661D01*
X96336Y93869D01*
X96561Y93644D01*
X96786Y93194D01*
Y92744D01*
X96561Y92294D01*
X96336Y92069D01*
X95661Y91844D01*
X93862D01*
X95661Y94094D02*
X96111Y93869D01*
X96336Y93644D01*
X96561Y93194D01*
Y92744D01*
X96336Y92294D01*
X96111Y92069D01*
X95661Y91844D01*
X92962Y89370D02*
X94536D01*
X94986Y91844D02*
X95436Y91619D01*
X95661Y91394D01*
X96336Y89820D01*
X96561Y89595D01*
X96786D01*
X97011Y89820D01*
X95436Y91619D02*
X95661Y91170D01*
X96111Y89595D01*
X96336Y89370D01*
X96786D01*
X97011Y89820D01*
Y90045D01*
X97843Y91170D02*
X100542D01*
Y91619D01*
X100317Y92069D01*
X100092Y92294D01*
X99642Y92519D01*
X98967D01*
X98293Y92294D01*
X97843Y91844D01*
X97618Y91170D01*
Y90720D01*
X97843Y90045D01*
X98293Y89595D01*
X98967Y89370D01*
X99417D01*
X100092Y89595D01*
X100542Y90045D01*
X100317Y91170D02*
Y91844D01*
X100092Y92294D01*
X98967Y92519D02*
X98518Y92294D01*
X98068Y91844D01*
X97843Y91170D01*
Y90720D01*
X98068Y90045D01*
X98518Y89595D01*
X98967Y89370D01*
X101711Y92519D02*
X103061Y89370D01*
X101936Y92519D02*
X103061Y89820D01*
X104411Y92519D02*
X103061Y89370D01*
X101262Y92519D02*
X102611D01*
X103511D02*
X104860D01*
X109764Y93194D02*
X110214Y93419D01*
X110888Y94094D01*
Y89370D01*
X110663Y93869D02*
Y89370D01*
X109764D02*
X111788D01*
X112823Y89820D02*
X112598Y89595D01*
X112823Y89370D01*
X113048Y89595D01*
X112823Y89820D01*
X115364Y94094D02*
X114690Y93869D01*
X114240Y93194D01*
X114015Y92069D01*
Y91394D01*
X114240Y90270D01*
X114690Y89595D01*
X115364Y89370D01*
X115814D01*
X116489Y89595D01*
X116939Y90270D01*
X117164Y91394D01*
Y92069D01*
X116939Y93194D01*
X116489Y93869D01*
X115814Y94094D01*
X115364D01*
X114915Y93869D01*
X114690Y93644D01*
X114465Y93194D01*
X114240Y92069D01*
Y91394D01*
X114465Y90270D01*
X114690Y89820D01*
X114915Y89595D01*
X115364Y89370D01*
X115814D02*
X116264Y89595D01*
X116489Y89820D01*
X116714Y90270D01*
X116939Y91394D01*
Y92069D01*
X116714Y93194D01*
X116489Y93644D01*
X116264Y93869D01*
X115814Y94094D01*
X153162Y13052D02*
X155523D01*
X156310Y13839D01*
X155523Y14627D01*
X153949D01*
X153162Y15414D01*
X153949Y16201D01*
X156310D01*
X158672Y16988D02*
Y16201D01*
X157885D01*
X159459D01*
X158672D01*
Y13839D01*
X159459Y13052D01*
X161820Y16201D02*
Y13052D01*
Y14627D01*
X162608Y15414D01*
X163395Y16201D01*
X164182D01*
X166543D02*
Y13839D01*
X167330Y13052D01*
X169692D01*
Y16201D01*
X174415D02*
X172053D01*
X171266Y15414D01*
Y13839D01*
X172053Y13052D01*
X174415D01*
X176776Y16988D02*
Y16201D01*
X175989D01*
X177563D01*
X176776D01*
Y13839D01*
X177563Y13052D01*
X179925Y16201D02*
Y13839D01*
X180712Y13052D01*
X183073D01*
Y16201D01*
X184648D02*
Y13052D01*
Y14627D01*
X185435Y15414D01*
X186222Y16201D01*
X187009D01*
X191732Y13052D02*
X190158D01*
X189371Y13839D01*
Y15414D01*
X190158Y16201D01*
X191732D01*
X192519Y15414D01*
Y14627D01*
X189371D01*
X201965Y16201D02*
X199603D01*
X198816Y15414D01*
Y13839D01*
X199603Y13052D01*
X201965D01*
X204326D02*
X205901D01*
X206688Y13839D01*
Y15414D01*
X205901Y16201D01*
X204326D01*
X203539Y15414D01*
Y13839D01*
X204326Y13052D01*
X208262D02*
Y16201D01*
X210623D01*
X211411Y15414D01*
Y13052D01*
X213772Y16988D02*
Y16201D01*
X212985D01*
X214559D01*
X213772D01*
Y13839D01*
X214559Y13052D01*
X217708Y16201D02*
X219282D01*
X220069Y15414D01*
Y13052D01*
X217708D01*
X216921Y13839D01*
X217708Y14627D01*
X220069D01*
X224792Y16201D02*
X222431D01*
X221643Y15414D01*
Y13839D01*
X222431Y13052D01*
X224792D01*
X227153Y16988D02*
Y16201D01*
X226366D01*
X227941D01*
X227153D01*
Y13839D01*
X227941Y13052D01*
X182680Y10218D02*
X184254D01*
X185041Y9431D01*
Y7069D01*
X182680D01*
X181893Y7856D01*
X182680Y8643D01*
X185041D01*
X186615Y10218D02*
Y7069D01*
Y8643D01*
X187403Y9431D01*
X188190Y10218D01*
X188977D01*
X193700Y7069D02*
X192125D01*
X191338Y7856D01*
Y9431D01*
X192125Y10218D01*
X193700D01*
X194487Y9431D01*
Y8643D01*
X191338D01*
X196848Y10218D02*
X198423D01*
X199210Y9431D01*
Y7069D01*
X196848D01*
X196061Y7856D01*
X196848Y8643D01*
X199210D01*
X56298Y16690D02*
X57873D01*
X57086D01*
Y21412D01*
X56298D01*
X60234Y16690D02*
X61809D01*
X61021D01*
Y19838D01*
X60234D01*
X64170Y16690D02*
Y19838D01*
X66531D01*
X67318Y19051D01*
Y16690D01*
X71254D02*
X69680D01*
X68893Y17477D01*
Y19051D01*
X69680Y19838D01*
X71254D01*
X72041Y19051D01*
Y18264D01*
X68893D01*
X78339Y16690D02*
X79913D01*
X79126D01*
Y21412D01*
X78339D01*
X82274Y16690D02*
X83849D01*
X83061D01*
Y19838D01*
X82274D01*
X86210Y16690D02*
Y19838D01*
X86997D01*
X87784Y19051D01*
Y16690D01*
Y19051D01*
X88572Y19838D01*
X89359Y19051D01*
Y16690D01*
X90933D02*
X92507D01*
X91720D01*
Y19838D01*
X90933D01*
X95656Y20625D02*
Y19838D01*
X94869D01*
X96443D01*
X95656D01*
Y17477D01*
X96443Y16690D01*
X64170Y9132D02*
X62596D01*
X61809Y9919D01*
Y11494D01*
X62596Y12281D01*
X64170D01*
X64957Y11494D01*
Y10707D01*
X61809D01*
X66531Y12281D02*
X69680Y9132D01*
X68106Y10707D01*
X69680Y12281D01*
X66531Y9132D01*
X72041Y13068D02*
Y12281D01*
X71254D01*
X72829D01*
X72041D01*
Y9919D01*
X72829Y9132D01*
X77551D02*
X75977D01*
X75190Y9919D01*
Y11494D01*
X75977Y12281D01*
X77551D01*
X78339Y11494D01*
Y10707D01*
X75190D01*
X79913Y12281D02*
Y9132D01*
Y10707D01*
X80700Y11494D01*
X81487Y12281D01*
X82274D01*
X84636Y9132D02*
Y12281D01*
X86997D01*
X87784Y11494D01*
Y9132D01*
X90146Y12281D02*
X91720D01*
X92507Y11494D01*
Y9132D01*
X90146D01*
X89359Y9919D01*
X90146Y10707D01*
X92507D01*
X94081Y9132D02*
X95656D01*
X94869D01*
Y13855D01*
X94081D01*
X57086Y5511D02*
X54724D01*
X53937Y4724D01*
Y3149D01*
X54724Y2362D01*
X57086D01*
X59447D02*
X61021D01*
X61809Y3149D01*
Y4724D01*
X61021Y5511D01*
X59447D01*
X58660Y4724D01*
Y3149D01*
X59447Y2362D01*
X63383D02*
Y5511D01*
X65744D01*
X66531Y4724D01*
Y2362D01*
X68106D02*
Y5511D01*
X70467D01*
X71254Y4724D01*
Y2362D01*
X75190D02*
X73616D01*
X72829Y3149D01*
Y4724D01*
X73616Y5511D01*
X75190D01*
X75977Y4724D01*
Y3937D01*
X72829D01*
X80700Y5511D02*
X78339D01*
X77551Y4724D01*
Y3149D01*
X78339Y2362D01*
X80700D01*
X83061Y6298D02*
Y5511D01*
X82274D01*
X83849D01*
X83061D01*
Y3149D01*
X83849Y2362D01*
X86997D02*
X88572D01*
X89359Y3149D01*
Y4724D01*
X88572Y5511D01*
X86997D01*
X86210Y4724D01*
Y3149D01*
X86997Y2362D01*
X90933Y5511D02*
Y2362D01*
Y3937D01*
X91720Y4724D01*
X92507Y5511D01*
X93294D01*
X95656Y2362D02*
X98017D01*
X98804Y3149D01*
X98017Y3937D01*
X96443D01*
X95656Y4724D01*
X96443Y5511D01*
X98804D01*
X233465Y36318D02*
X236613D01*
X238187Y33957D02*
Y38680D01*
X240549D01*
X241336Y37892D01*
Y36318D01*
X240549Y35531D01*
X238187D01*
X239762D02*
X241336Y33957D01*
X242910Y38680D02*
Y33957D01*
X245272D01*
X246059Y34744D01*
Y35531D01*
X245272Y36318D01*
X242910D01*
X245272D01*
X246059Y37105D01*
Y37892D01*
X245272Y38680D01*
X242910D01*
X250782D02*
X247633D01*
Y36318D01*
X249207D01*
X247633D01*
Y33957D01*
X233465Y67224D02*
X236613D01*
X235039Y68798D02*
Y65649D01*
X238187Y64862D02*
Y69585D01*
X240549D01*
X241336Y68798D01*
Y67224D01*
X240549Y66436D01*
X238187D01*
X239762D02*
X241336Y64862D01*
X242910Y69585D02*
Y64862D01*
X245272D01*
X246059Y65649D01*
Y66436D01*
X245272Y67224D01*
X242910D01*
X245272D01*
X246059Y68011D01*
Y68798D01*
X245272Y69585D01*
X242910D01*
X250782D02*
X247633D01*
Y67224D01*
X249207D01*
X247633D01*
Y64862D01*
X118740Y54067D02*
X120315D01*
X119527D01*
Y58790D01*
X118740Y58003D01*
X125037Y54067D02*
Y58790D01*
X122676Y56429D01*
X125824D01*
X118740Y43505D02*
X120315D01*
X119527D01*
Y48228D01*
X118740Y47440D01*
X122676D02*
X123463Y48228D01*
X125037D01*
X125824Y47440D01*
Y46653D01*
X125037Y45866D01*
X124250D01*
X125037D01*
X125824Y45079D01*
Y44292D01*
X125037Y43505D01*
X123463D01*
X122676Y44292D01*
X42755Y54067D02*
X39606D01*
X42755Y57216D01*
Y58003D01*
X41968Y58790D01*
X40393D01*
X39606Y58003D01*
X40517Y43968D02*
X42092D01*
X41304D01*
Y48690D01*
X40517Y47903D01*
X145793Y44046D02*
X147367D01*
X146580D01*
Y48769D01*
X145793Y47982D01*
X148030Y54146D02*
X144882D01*
X148030Y57295D01*
Y58082D01*
X147243Y58869D01*
X145669D01*
X144882Y58082D01*
X224016Y43584D02*
X225590D01*
X224803D01*
Y48306D01*
X224016Y47519D01*
X227952D02*
X228739Y48306D01*
X230313D01*
X231100Y47519D01*
Y46732D01*
X230313Y45945D01*
X229526D01*
X230313D01*
X231100Y45158D01*
Y44371D01*
X230313Y43584D01*
X228739D01*
X227952Y44371D01*
X224016Y54146D02*
X225590D01*
X224803D01*
Y58869D01*
X224016Y58082D01*
X230313Y54146D02*
Y58869D01*
X227952Y56508D01*
X231100D01*
X128387Y50491D02*
X131536D01*
X129962Y52066D02*
Y48917D01*
X133110Y52853D02*
X136259D01*
Y52066D01*
X133110Y48917D01*
Y48130D01*
X136259D01*
X145120Y35728D02*
X148268D01*
X149842Y38089D02*
Y37302D01*
X151417Y35728D01*
X152991Y37302D01*
Y38089D01*
X151417Y35728D02*
Y33366D01*
X120513Y29822D02*
X123662D01*
X125236Y32184D02*
X128385Y27461D01*
Y32184D02*
X125236Y27461D01*
X40550Y20471D02*
X37402D01*
Y18110D01*
X38976D01*
X37402D01*
Y15748D01*
X42125Y20471D02*
Y15748D01*
X44486D01*
X45273Y16535D01*
Y19684D01*
X44486Y20471D01*
X42125D01*
X46847Y19684D02*
X47635Y20471D01*
X49209D01*
X49996Y19684D01*
Y18897D01*
X49209Y18110D01*
X48422D01*
X49209D01*
X49996Y17322D01*
Y16535D01*
X49209Y15748D01*
X47635D01*
X46847Y16535D01*
X220471Y93306D02*
X217323D01*
Y90944D01*
X218897D01*
X217323D01*
Y88583D01*
X222046Y93306D02*
Y88583D01*
X224407D01*
X225194Y89370D01*
Y92518D01*
X224407Y93306D01*
X222046D01*
X229917Y88583D02*
X226769D01*
X229917Y91731D01*
Y92518D01*
X229130Y93306D01*
X227556D01*
X226769Y92518D01*
X40550Y92912D02*
X37402D01*
Y90550D01*
X38976D01*
X37402D01*
Y88189D01*
X42125Y92912D02*
Y88189D01*
X44486D01*
X45273Y88976D01*
Y92125D01*
X44486Y92912D01*
X42125D01*
X46847Y88189D02*
X48422D01*
X47635D01*
Y92912D01*
X46847Y92125D01*
X149508Y78935D02*
X152656D01*
X151082D01*
Y74213D01*
X154231D02*
Y78935D01*
X156592D01*
X157379Y78148D01*
Y76574D01*
X156592Y75787D01*
X154231D01*
X162102Y74213D02*
X158954D01*
X162102Y77361D01*
Y78148D01*
X161315Y78935D01*
X159741D01*
X158954Y78148D01*
X44882Y79115D02*
X48030D01*
X46456D01*
Y74392D01*
X49605D02*
Y79115D01*
X51966D01*
X52753Y78328D01*
Y76754D01*
X51966Y75967D01*
X49605D01*
X54328Y74392D02*
X55902D01*
X55115D01*
Y79115D01*
X54328Y78328D01*
X0Y12067D02*
G03*
X12067Y0I12067J0D01*
G01*
X253681D02*
G03*
X265748Y12067I0J12067D01*
G01*
Y98264D02*
G03*
X253776Y110236I-11972J0D01*
G01*
X12359D02*
G03*
X0Y97877I0J-12359D01*
G01*
Y12067D02*
Y54331D01*
X12067Y0D02*
X253681D01*
X265748Y12067D02*
Y98264D01*
X12359Y110236D02*
X253776D01*
X0Y54331D02*
Y97877D01*
X-50128Y201648D02*
X307259D01*
X-50128Y211097D02*
X307259D01*
X-50128Y135506D02*
Y211097D01*
Y135506D02*
X-17851D01*
X-50128Y144955D02*
X-17851D01*
X-50128Y154404D02*
X-17851D01*
X-50128Y163853D02*
X-17851D01*
X-50128Y173302D02*
X-17851D01*
X-50128Y182751D02*
X-17851D01*
X-50128Y192199D02*
X-17851D01*
Y135506D02*
Y211097D01*
Y135506D02*
X55357D01*
X-17851Y144955D02*
X55357D01*
X-17851Y154404D02*
X55357D01*
X-17851Y163853D02*
X55357D01*
X-17851Y173302D02*
X55357D01*
X-17851Y182751D02*
X55357D01*
X-17851Y192199D02*
X55357D01*
Y135506D02*
Y211097D01*
Y135506D02*
X123055D01*
X55357Y144955D02*
X123055D01*
X55357Y154404D02*
X123055D01*
X55357Y163853D02*
X123055D01*
X55357Y173302D02*
X123055D01*
X55357Y182751D02*
X123055D01*
X55357Y192199D02*
X123055D01*
Y135506D02*
Y211097D01*
Y135506D02*
X174224D01*
X123055Y144955D02*
X174224D01*
X123055Y154404D02*
X174224D01*
X123055Y163853D02*
X174224D01*
X123055Y173302D02*
X174224D01*
X123055Y182751D02*
X174224D01*
X123055Y192199D02*
X174224D01*
Y135506D02*
Y211097D01*
Y135506D02*
X219094D01*
X174224Y144955D02*
X219094D01*
X174224Y154404D02*
X219094D01*
X174224Y163853D02*
X219094D01*
X174224Y173302D02*
X219094D01*
X174224Y182751D02*
X219094D01*
X174224Y192199D02*
X219094D01*
Y135506D02*
Y211097D01*
Y135506D02*
X307259D01*
X219094Y144955D02*
X307259D01*
X219094Y154404D02*
X307259D01*
X219094Y163853D02*
X307259D01*
X219094Y173302D02*
X307259D01*
X219094Y182751D02*
X307259D01*
X219094Y192199D02*
X307259D01*
Y135506D02*
Y211097D01*
X-44616Y208733D02*
Y204010D01*
X-41467D01*
X-39106Y207159D02*
X-37531D01*
X-36744Y206372D01*
Y204010D01*
X-39106D01*
X-39893Y204798D01*
X-39106Y205585D01*
X-36744D01*
X-35170Y207159D02*
Y204798D01*
X-34383Y204010D01*
X-32021D01*
Y203223D01*
X-32809Y202436D01*
X-33596D01*
X-32021Y204010D02*
Y207159D01*
X-28086Y204010D02*
X-29660D01*
X-30447Y204798D01*
Y206372D01*
X-29660Y207159D01*
X-28086D01*
X-27299Y206372D01*
Y205585D01*
X-30447D01*
X-25724Y207159D02*
Y204010D01*
Y205585D01*
X-24937Y206372D01*
X-24150Y207159D01*
X-23363D01*
X-41467Y156766D02*
X-44616D01*
X-41467Y159915D01*
Y160702D01*
X-42254Y161489D01*
X-43829D01*
X-44616Y160702D01*
Y175664D02*
X-43041D01*
X-43829D01*
Y180387D01*
X-44616Y179600D01*
X-12339Y204010D02*
Y208733D01*
X-9191Y204010D01*
Y208733D01*
X-6829Y207159D02*
X-5255D01*
X-4468Y206372D01*
Y204010D01*
X-6829D01*
X-7616Y204798D01*
X-6829Y205585D01*
X-4468D01*
X-2893Y204010D02*
Y207159D01*
X-2106D01*
X-1319Y206372D01*
Y204010D01*
Y206372D01*
X-532Y207159D01*
X255Y206372D01*
Y204010D01*
X4191D02*
X2617D01*
X1829Y204798D01*
Y206372D01*
X2617Y207159D01*
X4191D01*
X4978Y206372D01*
Y205585D01*
X1829D01*
X-12339Y142592D02*
Y137869D01*
X-9978D01*
X-9191Y138656D01*
Y139443D01*
X-9978Y140230D01*
X-12339D01*
X-9978D01*
X-9191Y141017D01*
Y141805D01*
X-9978Y142592D01*
X-12339D01*
X-6829Y137869D02*
X-5255D01*
X-4468Y138656D01*
Y140230D01*
X-5255Y141017D01*
X-6829D01*
X-7616Y140230D01*
Y138656D01*
X-6829Y137869D01*
X-2106Y141805D02*
Y141017D01*
X-2893D01*
X-1319D01*
X-2106D01*
Y138656D01*
X-1319Y137869D01*
X1829Y141805D02*
Y141017D01*
X1042D01*
X2617D01*
X1829D01*
Y138656D01*
X2617Y137869D01*
X5765D02*
X7339D01*
X8127Y138656D01*
Y140230D01*
X7339Y141017D01*
X5765D01*
X4978Y140230D01*
Y138656D01*
X5765Y137869D01*
X9701D02*
Y141017D01*
X10488D01*
X11275Y140230D01*
Y137869D01*
Y140230D01*
X12062Y141017D01*
X12849Y140230D01*
Y137869D01*
X21508Y142592D02*
X19934D01*
X19147Y141805D01*
Y138656D01*
X19934Y137869D01*
X21508D01*
X22295Y138656D01*
Y141805D01*
X21508Y142592D01*
X23870Y141017D02*
X25444Y137869D01*
X27018Y141017D01*
X30954Y137869D02*
X29380D01*
X28593Y138656D01*
Y140230D01*
X29380Y141017D01*
X30954D01*
X31741Y140230D01*
Y139443D01*
X28593D01*
X33315Y141017D02*
Y137869D01*
Y139443D01*
X34102Y140230D01*
X34890Y141017D01*
X35677D01*
X38038Y137869D02*
X39612D01*
X38825D01*
Y142592D01*
X38038D01*
X42761Y141017D02*
X44335D01*
X45123Y140230D01*
Y137869D01*
X42761D01*
X41974Y138656D01*
X42761Y139443D01*
X45123D01*
X46697Y141017D02*
Y138656D01*
X47484Y137869D01*
X49845D01*
Y137082D01*
X49058Y136294D01*
X48271D01*
X49845Y137869D02*
Y141017D01*
X-12339Y152040D02*
Y147318D01*
X-9978D01*
X-9191Y148105D01*
Y148892D01*
X-9978Y149679D01*
X-12339D01*
X-9978D01*
X-9191Y150466D01*
Y151253D01*
X-9978Y152040D01*
X-12339D01*
X-6829Y147318D02*
X-5255D01*
X-4468Y148105D01*
Y149679D01*
X-5255Y150466D01*
X-6829D01*
X-7616Y149679D01*
Y148105D01*
X-6829Y147318D01*
X-2106Y151253D02*
Y150466D01*
X-2893D01*
X-1319D01*
X-2106D01*
Y148105D01*
X-1319Y147318D01*
X1829Y151253D02*
Y150466D01*
X1042D01*
X2617D01*
X1829D01*
Y148105D01*
X2617Y147318D01*
X5765D02*
X7339D01*
X8127Y148105D01*
Y149679D01*
X7339Y150466D01*
X5765D01*
X4978Y149679D01*
Y148105D01*
X5765Y147318D01*
X9701D02*
Y150466D01*
X10488D01*
X11275Y149679D01*
Y147318D01*
Y149679D01*
X12062Y150466D01*
X12849Y149679D01*
Y147318D01*
X22295Y151253D02*
X21508Y152040D01*
X19934D01*
X19147Y151253D01*
Y150466D01*
X19934Y149679D01*
X21508D01*
X22295Y148892D01*
Y148105D01*
X21508Y147318D01*
X19934D01*
X19147Y148105D01*
X24657Y147318D02*
X26231D01*
X27018Y148105D01*
Y149679D01*
X26231Y150466D01*
X24657D01*
X23870Y149679D01*
Y148105D01*
X24657Y147318D01*
X28593D02*
X30167D01*
X29380D01*
Y152040D01*
X28593D01*
X35677D02*
Y147318D01*
X33315D01*
X32528Y148105D01*
Y149679D01*
X33315Y150466D01*
X35677D01*
X39612Y147318D02*
X38038D01*
X37251Y148105D01*
Y149679D01*
X38038Y150466D01*
X39612D01*
X40400Y149679D01*
Y148892D01*
X37251D01*
X41974Y150466D02*
Y147318D01*
Y148892D01*
X42761Y149679D01*
X43548Y150466D01*
X44335D01*
X-12339Y161489D02*
Y156766D01*
X-9978D01*
X-9191Y157554D01*
Y158341D01*
X-9978Y159128D01*
X-12339D01*
X-9978D01*
X-9191Y159915D01*
Y160702D01*
X-9978Y161489D01*
X-12339D01*
X-6829Y156766D02*
X-5255D01*
X-4468Y157554D01*
Y159128D01*
X-5255Y159915D01*
X-6829D01*
X-7616Y159128D01*
Y157554D01*
X-6829Y156766D01*
X-2106Y160702D02*
Y159915D01*
X-2893D01*
X-1319D01*
X-2106D01*
Y157554D01*
X-1319Y156766D01*
X1829Y160702D02*
Y159915D01*
X1042D01*
X2617D01*
X1829D01*
Y157554D01*
X2617Y156766D01*
X5765D02*
X7339D01*
X8127Y157554D01*
Y159128D01*
X7339Y159915D01*
X5765D01*
X4978Y159128D01*
Y157554D01*
X5765Y156766D01*
X9701D02*
Y159915D01*
X10488D01*
X11275Y159128D01*
Y156766D01*
Y159128D01*
X12062Y159915D01*
X12849Y159128D01*
Y156766D01*
X19147Y161489D02*
Y156766D01*
X22295D01*
X24657Y159915D02*
X26231D01*
X27018Y159128D01*
Y156766D01*
X24657D01*
X23870Y157554D01*
X24657Y158341D01*
X27018D01*
X28593Y159915D02*
Y157554D01*
X29380Y156766D01*
X31741D01*
Y155979D01*
X30954Y155192D01*
X30167D01*
X31741Y156766D02*
Y159915D01*
X35677Y156766D02*
X34102D01*
X33315Y157554D01*
Y159128D01*
X34102Y159915D01*
X35677D01*
X36464Y159128D01*
Y158341D01*
X33315D01*
X38038Y159915D02*
Y156766D01*
Y158341D01*
X38825Y159128D01*
X39612Y159915D01*
X40400D01*
X-12339Y170938D02*
Y166215D01*
X-9978D01*
X-9191Y167002D01*
Y170151D01*
X-9978Y170938D01*
X-12339D01*
X-7616Y166215D02*
X-6042D01*
X-6829D01*
Y169364D01*
X-7616D01*
X-1319Y166215D02*
X-2893D01*
X-3681Y167002D01*
Y168577D01*
X-2893Y169364D01*
X-1319D01*
X-532Y168577D01*
Y167789D01*
X-3681D01*
X1042Y166215D02*
X2617D01*
X1829D01*
Y170938D01*
X1042D01*
X7339Y166215D02*
X5765D01*
X4978Y167002D01*
Y168577D01*
X5765Y169364D01*
X7339D01*
X8127Y168577D01*
Y167789D01*
X4978D01*
X12849Y169364D02*
X10488D01*
X9701Y168577D01*
Y167002D01*
X10488Y166215D01*
X12849D01*
X15211Y170151D02*
Y169364D01*
X14424D01*
X15998D01*
X15211D01*
Y167002D01*
X15998Y166215D01*
X18360Y169364D02*
Y166215D01*
Y167789D01*
X19147Y168577D01*
X19934Y169364D01*
X20721D01*
X23083Y166215D02*
X24657D01*
X23870D01*
Y169364D01*
X23083D01*
X30167D02*
X27805D01*
X27018Y168577D01*
Y167002D01*
X27805Y166215D01*
X30167D01*
X36464D02*
X38038D01*
X37251D01*
Y170938D01*
X36464Y170151D01*
X-12339Y180387D02*
X-9191D01*
X-10765D01*
Y175664D01*
X-6829D02*
X-5255D01*
X-4468Y176451D01*
Y178025D01*
X-5255Y178813D01*
X-6829D01*
X-7616Y178025D01*
Y176451D01*
X-6829Y175664D01*
X-2893Y174090D02*
Y178813D01*
X-532D01*
X255Y178025D01*
Y176451D01*
X-532Y175664D01*
X-2893D01*
X6552Y180387D02*
Y175664D01*
X9701D01*
X12062Y178813D02*
X13637D01*
X14424Y178025D01*
Y175664D01*
X12062D01*
X11275Y176451D01*
X12062Y177238D01*
X14424D01*
X15998Y178813D02*
Y176451D01*
X16785Y175664D01*
X19147D01*
Y174877D01*
X18360Y174090D01*
X17572D01*
X19147Y175664D02*
Y178813D01*
X23082Y175664D02*
X21508D01*
X20721Y176451D01*
Y178025D01*
X21508Y178813D01*
X23082D01*
X23870Y178025D01*
Y177238D01*
X20721D01*
X25444Y178813D02*
Y175664D01*
Y177238D01*
X26231Y178025D01*
X27018Y178813D01*
X27805D01*
X-12339Y189836D02*
X-9191D01*
X-10765D01*
Y185113D01*
X-6829D02*
X-5255D01*
X-4468Y185900D01*
Y187474D01*
X-5255Y188261D01*
X-6829D01*
X-7616Y187474D01*
Y185900D01*
X-6829Y185113D01*
X-2893Y183538D02*
Y188261D01*
X-532D01*
X255Y187474D01*
Y185900D01*
X-532Y185113D01*
X-2893D01*
X9701Y189049D02*
X8914Y189836D01*
X7339D01*
X6552Y189049D01*
Y188261D01*
X7339Y187474D01*
X8914D01*
X9701Y186687D01*
Y185900D01*
X8914Y185113D01*
X7339D01*
X6552Y185900D01*
X12062Y185113D02*
X13637D01*
X14424Y185900D01*
Y187474D01*
X13637Y188261D01*
X12062D01*
X11275Y187474D01*
Y185900D01*
X12062Y185113D01*
X15998D02*
X17572D01*
X16785D01*
Y189836D01*
X15998D01*
X23083D02*
Y185113D01*
X20721D01*
X19934Y185900D01*
Y187474D01*
X20721Y188261D01*
X23083D01*
X27018Y185113D02*
X25444D01*
X24657Y185900D01*
Y187474D01*
X25444Y188261D01*
X27018D01*
X27805Y187474D01*
Y186687D01*
X24657D01*
X29380Y188261D02*
Y185113D01*
Y186687D01*
X30167Y187474D01*
X30954Y188261D01*
X31741D01*
X-12339Y199285D02*
X-9191D01*
X-10765D01*
Y194562D01*
X-6829D02*
X-5255D01*
X-4468Y195349D01*
Y196923D01*
X-5255Y197710D01*
X-6829D01*
X-7616Y196923D01*
Y195349D01*
X-6829Y194562D01*
X-2893Y192987D02*
Y197710D01*
X-532D01*
X255Y196923D01*
Y195349D01*
X-532Y194562D01*
X-2893D01*
X8914Y199285D02*
X7339D01*
X6552Y198497D01*
Y195349D01*
X7339Y194562D01*
X8914D01*
X9701Y195349D01*
Y198497D01*
X8914Y199285D01*
X11275Y197710D02*
X12849Y194562D01*
X14424Y197710D01*
X18360Y194562D02*
X16785D01*
X15998Y195349D01*
Y196923D01*
X16785Y197710D01*
X18360D01*
X19147Y196923D01*
Y196136D01*
X15998D01*
X20721Y197710D02*
Y194562D01*
Y196136D01*
X21508Y196923D01*
X22295Y197710D01*
X23082D01*
X25444Y194562D02*
X27018D01*
X26231D01*
Y199285D01*
X25444D01*
X30167Y197710D02*
X31741D01*
X32528Y196923D01*
Y194562D01*
X30167D01*
X29380Y195349D01*
X30167Y196136D01*
X32528D01*
X34102Y197710D02*
Y195349D01*
X34890Y194562D01*
X37251D01*
Y193774D01*
X36464Y192987D01*
X35677D01*
X37251Y194562D02*
Y197710D01*
X60869Y204010D02*
Y208733D01*
X62443Y207159D01*
X64018Y208733D01*
Y204010D01*
X66379Y207159D02*
X67953D01*
X68740Y206372D01*
Y204010D01*
X66379D01*
X65592Y204798D01*
X66379Y205585D01*
X68740D01*
X71102Y207946D02*
Y207159D01*
X70315D01*
X71889D01*
X71102D01*
Y204798D01*
X71889Y204010D01*
X76612D02*
X75038D01*
X74251Y204798D01*
Y206372D01*
X75038Y207159D01*
X76612D01*
X77399Y206372D01*
Y205585D01*
X74251D01*
X78974Y207159D02*
Y204010D01*
Y205585D01*
X79761Y206372D01*
X80548Y207159D01*
X81335D01*
X83696Y204010D02*
X85271D01*
X84483D01*
Y207159D01*
X83696D01*
X88419D02*
X89994D01*
X90781Y206372D01*
Y204010D01*
X88419D01*
X87632Y204798D01*
X88419Y205585D01*
X90781D01*
X92355Y204010D02*
X93929D01*
X93142D01*
Y208733D01*
X92355D01*
X64018Y151253D02*
X63231Y152040D01*
X61656D01*
X60869Y151253D01*
Y150466D01*
X61656Y149679D01*
X63231D01*
X64018Y148892D01*
Y148105D01*
X63231Y147318D01*
X61656D01*
X60869Y148105D01*
X66379Y147318D02*
X67953D01*
X68740Y148105D01*
Y149679D01*
X67953Y150466D01*
X66379D01*
X65592Y149679D01*
Y148105D01*
X66379Y147318D01*
X70315D02*
X71889D01*
X71102D01*
Y152040D01*
X70315D01*
X77399D02*
Y147318D01*
X75038D01*
X74251Y148105D01*
Y149679D01*
X75038Y150466D01*
X77399D01*
X81335Y147318D02*
X79761D01*
X78974Y148105D01*
Y149679D01*
X79761Y150466D01*
X81335D01*
X82122Y149679D01*
Y148892D01*
X78974D01*
X83696Y150466D02*
Y147318D01*
Y148892D01*
X84483Y149679D01*
X85271Y150466D01*
X86058D01*
X93142Y147318D02*
Y152040D01*
X95503D01*
X96291Y151253D01*
Y149679D01*
X95503Y148892D01*
X93142D01*
X94716D02*
X96291Y147318D01*
X100226D02*
X98652D01*
X97865Y148105D01*
Y149679D01*
X98652Y150466D01*
X100226D01*
X101014Y149679D01*
Y148892D01*
X97865D01*
X102588Y147318D02*
X104949D01*
X105736Y148105D01*
X104949Y148892D01*
X103375D01*
X102588Y149679D01*
X103375Y150466D01*
X105736D01*
X107311Y147318D02*
X108885D01*
X108098D01*
Y150466D01*
X107311D01*
X111247Y147318D02*
X113608D01*
X114395Y148105D01*
X113608Y148892D01*
X112034D01*
X111247Y149679D01*
X112034Y150466D01*
X114395D01*
X116756Y151253D02*
Y150466D01*
X115969D01*
X117544D01*
X116756D01*
Y148105D01*
X117544Y147318D01*
X64018Y160702D02*
X63231Y161489D01*
X61656D01*
X60869Y160702D01*
Y157554D01*
X61656Y156766D01*
X63231D01*
X64018Y157554D01*
X66379Y156766D02*
X67953D01*
X68740Y157554D01*
Y159128D01*
X67953Y159915D01*
X66379D01*
X65592Y159128D01*
Y157554D01*
X66379Y156766D01*
X70315Y155192D02*
Y159915D01*
X72676D01*
X73463Y159128D01*
Y157554D01*
X72676Y156766D01*
X70315D01*
X75038Y155192D02*
Y159915D01*
X77399D01*
X78186Y159128D01*
Y157554D01*
X77399Y156766D01*
X75038D01*
X82122D02*
X80548D01*
X79761Y157554D01*
Y159128D01*
X80548Y159915D01*
X82122D01*
X82909Y159128D01*
Y158341D01*
X79761D01*
X84483Y159915D02*
Y156766D01*
Y158341D01*
X85271Y159128D01*
X86058Y159915D01*
X86845D01*
X64018Y170938D02*
X60869D01*
Y168577D01*
X62443D01*
X60869D01*
Y166215D01*
X65592D02*
Y170938D01*
X67953D01*
X68740Y170151D01*
Y168577D01*
X67953Y167789D01*
X65592D01*
X67166D02*
X68740Y166215D01*
X70315Y168577D02*
X73463D01*
X77399Y166215D02*
Y170938D01*
X75038Y168577D01*
X78186D01*
X64018Y179600D02*
X63231Y180387D01*
X61656D01*
X60869Y179600D01*
Y176451D01*
X61656Y175664D01*
X63231D01*
X64018Y176451D01*
X66379Y175664D02*
X67953D01*
X68740Y176451D01*
Y178025D01*
X67953Y178813D01*
X66379D01*
X65592Y178025D01*
Y176451D01*
X66379Y175664D01*
X70315Y174090D02*
Y178813D01*
X72676D01*
X73463Y178025D01*
Y176451D01*
X72676Y175664D01*
X70315D01*
X75038Y174090D02*
Y178813D01*
X77399D01*
X78186Y178025D01*
Y176451D01*
X77399Y175664D01*
X75038D01*
X82122D02*
X80548D01*
X79761Y176451D01*
Y178025D01*
X80548Y178813D01*
X82122D01*
X82909Y178025D01*
Y177238D01*
X79761D01*
X84483Y178813D02*
Y175664D01*
Y177238D01*
X85271Y178025D01*
X86058Y178813D01*
X86845D01*
X64018Y189049D02*
X63231Y189836D01*
X61656D01*
X60869Y189049D01*
Y188261D01*
X61656Y187474D01*
X63231D01*
X64018Y186687D01*
Y185900D01*
X63231Y185113D01*
X61656D01*
X60869Y185900D01*
X66379Y185113D02*
X67953D01*
X68740Y185900D01*
Y187474D01*
X67953Y188261D01*
X66379D01*
X65592Y187474D01*
Y185900D01*
X66379Y185113D01*
X70315D02*
X71889D01*
X71102D01*
Y189836D01*
X70315D01*
X77399D02*
Y185113D01*
X75038D01*
X74251Y185900D01*
Y187474D01*
X75038Y188261D01*
X77399D01*
X81335Y185113D02*
X79761D01*
X78974Y185900D01*
Y187474D01*
X79761Y188261D01*
X81335D01*
X82122Y187474D01*
Y186687D01*
X78974D01*
X83696Y188261D02*
Y185113D01*
Y186687D01*
X84483Y187474D01*
X85271Y188261D01*
X86058D01*
X93142Y185113D02*
Y189836D01*
X95503D01*
X96291Y189049D01*
Y187474D01*
X95503Y186687D01*
X93142D01*
X94716D02*
X96291Y185113D01*
X100226D02*
X98652D01*
X97865Y185900D01*
Y187474D01*
X98652Y188261D01*
X100226D01*
X101014Y187474D01*
Y186687D01*
X97865D01*
X102588Y185113D02*
X104949D01*
X105736Y185900D01*
X104949Y186687D01*
X103375D01*
X102588Y187474D01*
X103375Y188261D01*
X105736D01*
X107311Y185113D02*
X108885D01*
X108098D01*
Y188261D01*
X107311D01*
X111247Y185113D02*
X113608D01*
X114395Y185900D01*
X113608Y186687D01*
X112034D01*
X111247Y187474D01*
X112034Y188261D01*
X114395D01*
X116756Y189049D02*
Y188261D01*
X115969D01*
X117544D01*
X116756D01*
Y185900D01*
X117544Y185113D01*
X128567Y208733D02*
X131716D01*
X130142D01*
Y204010D01*
X133290Y208733D02*
Y204010D01*
Y206372D01*
X134077Y207159D01*
X135652D01*
X136439Y206372D01*
Y204010D01*
X138013D02*
X139587D01*
X138800D01*
Y207159D01*
X138013D01*
X145097D02*
X142736D01*
X141949Y206372D01*
Y204798D01*
X142736Y204010D01*
X145097D01*
X146672D02*
Y208733D01*
Y205585D02*
X149033Y207159D01*
X146672Y205585D02*
X149033Y204010D01*
X151394D02*
Y207159D01*
X153756D01*
X154543Y206372D01*
Y204010D01*
X158479D02*
X156904D01*
X156117Y204798D01*
Y206372D01*
X156904Y207159D01*
X158479D01*
X159266Y206372D01*
Y205585D01*
X156117D01*
X160840Y204010D02*
X163202D01*
X163989Y204798D01*
X163202Y205585D01*
X161627D01*
X160840Y206372D01*
X161627Y207159D01*
X163989D01*
X165563Y204010D02*
X167925D01*
X168712Y204798D01*
X167925Y205585D01*
X166350D01*
X165563Y206372D01*
X166350Y207159D01*
X168712D01*
X128567Y151253D02*
X129354Y152040D01*
X130929D01*
X131716Y151253D01*
Y148105D01*
X130929Y147318D01*
X129354D01*
X128567Y148105D01*
Y151253D01*
X133290Y147318D02*
Y148105D01*
X134077D01*
Y147318D01*
X133290D01*
X137226Y151253D02*
X138013Y152040D01*
X139587D01*
X140375Y151253D01*
Y148105D01*
X139587Y147318D01*
X138013D01*
X137226Y148105D01*
Y151253D01*
X141949Y147318D02*
X143523D01*
X142736D01*
Y152040D01*
X141949Y151253D01*
X145885D02*
X146672Y152040D01*
X148246D01*
X149033Y151253D01*
Y148105D01*
X148246Y147318D01*
X146672D01*
X145885Y148105D01*
Y151253D01*
X150607Y147318D02*
Y150466D01*
X151394D01*
X152182Y149679D01*
Y147318D01*
Y149679D01*
X152969Y150466D01*
X153756Y149679D01*
Y147318D01*
X155330D02*
Y150466D01*
X156117D01*
X156904Y149679D01*
Y147318D01*
Y149679D01*
X157692Y150466D01*
X158479Y149679D01*
Y147318D01*
X128567Y160702D02*
X129354Y161489D01*
X130929D01*
X131716Y160702D01*
Y157554D01*
X130929Y156766D01*
X129354D01*
X128567Y157554D01*
Y160702D01*
X133290Y156766D02*
Y157554D01*
X134077D01*
Y156766D01*
X133290D01*
X137226Y160702D02*
X138013Y161489D01*
X139587D01*
X140375Y160702D01*
Y157554D01*
X139587Y156766D01*
X138013D01*
X137226Y157554D01*
Y160702D01*
X141949D02*
X142736Y161489D01*
X144310D01*
X145097Y160702D01*
Y159915D01*
X144310Y159128D01*
X143523D01*
X144310D01*
X145097Y158341D01*
Y157554D01*
X144310Y156766D01*
X142736D01*
X141949Y157554D01*
X149820Y161489D02*
X148246Y160702D01*
X146672Y159128D01*
Y157554D01*
X147459Y156766D01*
X149033D01*
X149820Y157554D01*
Y158341D01*
X149033Y159128D01*
X146672D01*
X151394Y156766D02*
Y159915D01*
X152182D01*
X152969Y159128D01*
Y156766D01*
Y159128D01*
X153756Y159915D01*
X154543Y159128D01*
Y156766D01*
X156117D02*
Y159915D01*
X156904D01*
X157692Y159128D01*
Y156766D01*
Y159128D01*
X158479Y159915D01*
X159266Y159128D01*
Y156766D01*
X128567Y166215D02*
X130142D01*
X129354D01*
Y170938D01*
X128567Y170151D01*
X132503Y166215D02*
Y167002D01*
X133290D01*
Y166215D01*
X132503D01*
X139587Y170938D02*
X136439D01*
Y168577D01*
X138013Y169364D01*
X138800D01*
X139587Y168577D01*
Y167002D01*
X138800Y166215D01*
X137226D01*
X136439Y167002D01*
X141162Y170151D02*
X141949Y170938D01*
X143523D01*
X144310Y170151D01*
Y167002D01*
X143523Y166215D01*
X141949D01*
X141162Y167002D01*
Y170151D01*
X145885D02*
X146672Y170938D01*
X148246D01*
X149033Y170151D01*
Y167002D01*
X148246Y166215D01*
X146672D01*
X145885Y167002D01*
Y170151D01*
X150607Y166215D02*
Y169364D01*
X151394D01*
X152182Y168577D01*
Y166215D01*
Y168577D01*
X152969Y169364D01*
X153756Y168577D01*
Y166215D01*
X155330D02*
Y169364D01*
X156117D01*
X156904Y168577D01*
Y166215D01*
Y168577D01*
X157692Y169364D01*
X158479Y168577D01*
Y166215D01*
X128567Y179600D02*
X129354Y180387D01*
X130929D01*
X131716Y179600D01*
Y176451D01*
X130929Y175664D01*
X129354D01*
X128567Y176451D01*
Y179600D01*
X133290Y175664D02*
Y176451D01*
X134077D01*
Y175664D01*
X133290D01*
X137226Y179600D02*
X138013Y180387D01*
X139587D01*
X140375Y179600D01*
Y176451D01*
X139587Y175664D01*
X138013D01*
X137226Y176451D01*
Y179600D01*
X141949D02*
X142736Y180387D01*
X144310D01*
X145097Y179600D01*
Y178813D01*
X144310Y178025D01*
X143523D01*
X144310D01*
X145097Y177238D01*
Y176451D01*
X144310Y175664D01*
X142736D01*
X141949Y176451D01*
X149820Y180387D02*
X148246Y179600D01*
X146672Y178025D01*
Y176451D01*
X147459Y175664D01*
X149033D01*
X149820Y176451D01*
Y177238D01*
X149033Y178025D01*
X146672D01*
X151394Y175664D02*
Y178813D01*
X152182D01*
X152969Y178025D01*
Y175664D01*
Y178025D01*
X153756Y178813D01*
X154543Y178025D01*
Y175664D01*
X156117D02*
Y178813D01*
X156904D01*
X157692Y178025D01*
Y175664D01*
Y178025D01*
X158479Y178813D01*
X159266Y178025D01*
Y175664D01*
X128567Y189049D02*
X129354Y189836D01*
X130929D01*
X131716Y189049D01*
Y185900D01*
X130929Y185113D01*
X129354D01*
X128567Y185900D01*
Y189049D01*
X133290Y185113D02*
Y185900D01*
X134077D01*
Y185113D01*
X133290D01*
X137226Y189049D02*
X138013Y189836D01*
X139587D01*
X140375Y189049D01*
Y185900D01*
X139587Y185113D01*
X138013D01*
X137226Y185900D01*
Y189049D01*
X141949Y185113D02*
X143523D01*
X142736D01*
Y189836D01*
X141949Y189049D01*
X145885D02*
X146672Y189836D01*
X148246D01*
X149033Y189049D01*
Y185900D01*
X148246Y185113D01*
X146672D01*
X145885Y185900D01*
Y189049D01*
X150607Y185113D02*
Y188261D01*
X151394D01*
X152182Y187474D01*
Y185113D01*
Y187474D01*
X152969Y188261D01*
X153756Y187474D01*
Y185113D01*
X155330D02*
Y188261D01*
X156117D01*
X156904Y187474D01*
Y185113D01*
Y187474D01*
X157692Y188261D01*
X158479Y187474D01*
Y185113D01*
X182884Y207946D02*
X182097Y208733D01*
X180523D01*
X179735Y207946D01*
Y204798D01*
X180523Y204010D01*
X182097D01*
X182884Y204798D01*
X185245Y204010D02*
X186820D01*
X187607Y204798D01*
Y206372D01*
X186820Y207159D01*
X185245D01*
X184458Y206372D01*
Y204798D01*
X185245Y204010D01*
X189181D02*
Y207159D01*
X191543D01*
X192330Y206372D01*
Y204010D01*
X193904D02*
X196265D01*
X197053Y204798D01*
X196265Y205585D01*
X194691D01*
X193904Y206372D01*
X194691Y207159D01*
X197053D01*
X199414Y207946D02*
Y207159D01*
X198627D01*
X200201D01*
X199414D01*
Y204798D01*
X200201Y204010D01*
X203350Y207159D02*
X204924D01*
X205711Y206372D01*
Y204010D01*
X203350D01*
X202563Y204798D01*
X203350Y205585D01*
X205711D01*
X207285Y204010D02*
Y207159D01*
X209647D01*
X210434Y206372D01*
Y204010D01*
X212795Y207946D02*
Y207159D01*
X212008D01*
X213583D01*
X212795D01*
Y204798D01*
X213583Y204010D01*
X179735Y151253D02*
X180523Y152040D01*
X182097D01*
X182884Y151253D01*
Y150466D01*
X182097Y149679D01*
X181310D01*
X182097D01*
X182884Y148892D01*
Y148105D01*
X182097Y147318D01*
X180523D01*
X179735Y148105D01*
X184458Y147318D02*
Y148105D01*
X185245D01*
Y147318D01*
X184458D01*
X191543Y152040D02*
X188394D01*
Y149679D01*
X189968Y150466D01*
X190755D01*
X191543Y149679D01*
Y148105D01*
X190755Y147318D01*
X189181D01*
X188394Y148105D01*
X182097Y166215D02*
Y170938D01*
X179735Y168577D01*
X182884D01*
X184458Y166215D02*
Y167002D01*
X185245D01*
Y166215D01*
X184458D01*
X188394Y170151D02*
X189181Y170938D01*
X190755D01*
X191543Y170151D01*
Y169364D01*
X190755Y168577D01*
X191543Y167789D01*
Y167002D01*
X190755Y166215D01*
X189181D01*
X188394Y167002D01*
Y167789D01*
X189181Y168577D01*
X188394Y169364D01*
Y170151D01*
X189181Y168577D02*
X190755D01*
X179735Y189049D02*
X180523Y189836D01*
X182097D01*
X182884Y189049D01*
Y188261D01*
X182097Y187474D01*
X181310D01*
X182097D01*
X182884Y186687D01*
Y185900D01*
X182097Y185113D01*
X180523D01*
X179735Y185900D01*
X184458Y185113D02*
Y185900D01*
X185245D01*
Y185113D01*
X184458D01*
X191543Y189836D02*
X188394D01*
Y187474D01*
X189968Y188261D01*
X190755D01*
X191543Y187474D01*
Y185900D01*
X190755Y185113D01*
X189181D01*
X188394Y185900D01*
X224606Y208733D02*
Y204010D01*
X226968D01*
X227755Y204798D01*
Y205585D01*
X226968Y206372D01*
X224606D01*
X226968D01*
X227755Y207159D01*
Y207946D01*
X226968Y208733D01*
X224606D01*
X230116Y204010D02*
X231691D01*
X232478Y204798D01*
Y206372D01*
X231691Y207159D01*
X230116D01*
X229329Y206372D01*
Y204798D01*
X230116Y204010D01*
X234839Y207159D02*
X236414D01*
X237201Y206372D01*
Y204010D01*
X234839D01*
X234052Y204798D01*
X234839Y205585D01*
X237201D01*
X238775Y207159D02*
Y204010D01*
Y205585D01*
X239562Y206372D01*
X240349Y207159D01*
X241136D01*
X246646Y208733D02*
Y204010D01*
X244285D01*
X243498Y204798D01*
Y206372D01*
X244285Y207159D01*
X246646D01*
X252944Y208733D02*
Y204010D01*
X256092D01*
X258454Y207159D02*
X260028D01*
X260815Y206372D01*
Y204010D01*
X258454D01*
X257666Y204798D01*
X258454Y205585D01*
X260815D01*
X262389Y207159D02*
Y204798D01*
X263176Y204010D01*
X265538D01*
Y203223D01*
X264751Y202436D01*
X263964D01*
X265538Y204010D02*
Y207159D01*
X269474Y204010D02*
X267899D01*
X267112Y204798D01*
Y206372D01*
X267899Y207159D01*
X269474D01*
X270261Y206372D01*
Y205585D01*
X267112D01*
X271835Y207159D02*
Y204010D01*
Y205585D01*
X272622Y206372D01*
X273409Y207159D01*
X274197D01*
X284429Y207946D02*
X283642Y208733D01*
X282068D01*
X281281Y207946D01*
Y207159D01*
X282068Y206372D01*
X283642D01*
X284429Y205585D01*
Y204798D01*
X283642Y204010D01*
X282068D01*
X281281Y204798D01*
X286791Y207946D02*
Y207159D01*
X286004D01*
X287578D01*
X286791D01*
Y204798D01*
X287578Y204010D01*
X290727Y207159D02*
X292301D01*
X293088Y206372D01*
Y204010D01*
X290727D01*
X289939Y204798D01*
X290727Y205585D01*
X293088D01*
X297811Y207159D02*
X295449D01*
X294662Y206372D01*
Y204798D01*
X295449Y204010D01*
X297811D01*
X299385D02*
Y208733D01*
Y205585D02*
X301747Y207159D01*
X299385Y205585D02*
X301747Y204010D01*
D11*
X135768Y35433D02*
G03*
X135768Y35433I-3091J0D01*
G01*
X132816D02*
G03*
X132816Y35433I-139J0D01*
G01*
X106806Y14225D02*
Y21567D01*
X108774Y19599D01*
X104837Y19599D02*
X106806Y21567D01*
X99463Y14225D02*
X106806D01*
X252756Y88976D02*
X256988D01*
X262402Y94390D01*
Y98425D01*
X243307Y94291D02*
Y98622D01*
Y94291D02*
X248622Y88976D01*
X252756D01*
X248819Y108071D02*
X252953D01*
X243307Y102559D02*
X248819Y108071D01*
X243307Y98622D02*
Y102559D01*
X252953Y108071D02*
X256791D01*
X262402Y102461D01*
Y98425D02*
Y102461D01*
X12598Y88976D02*
X16831D01*
X22244Y94390D01*
Y98425D01*
X3150Y94291D02*
Y98622D01*
Y94291D02*
X8465Y88976D01*
X12598D01*
X8661Y108071D02*
X12795D01*
X3150Y102559D02*
X8661Y108071D01*
X3150Y98622D02*
Y102559D01*
X12795Y108071D02*
X16634D01*
X22244Y102461D01*
Y98425D02*
Y102461D01*
X12598Y2362D02*
X16831D01*
X22244Y7776D01*
Y11811D01*
X3150Y7677D02*
Y12008D01*
Y7677D02*
X8465Y2362D01*
X12598D01*
X8661Y21457D02*
X12795D01*
X3150Y15945D02*
X8661Y21457D01*
X3150Y12008D02*
Y15945D01*
X12795Y21457D02*
X16634D01*
X22244Y15846D01*
Y11811D02*
Y15846D01*
X252756Y2362D02*
X256988D01*
X262402Y7776D01*
Y11811D01*
X243307Y7677D02*
Y12008D01*
Y7677D02*
X248622Y2362D01*
X252756D01*
X248819Y21457D02*
X252953D01*
X243307Y15945D02*
X248819Y21457D01*
X243307Y12008D02*
Y15945D01*
X252953Y21457D02*
X256791D01*
X262402Y15846D01*
Y11811D02*
Y15846D01*
X141142Y33465D02*
X143110Y35433D01*
X141142Y37402D02*
X143110Y35433D01*
X130709Y43898D02*
X132677Y45866D01*
X134646Y43898D01*
X135768Y35433D02*
X143110D01*
X132677Y38524D02*
Y45866D01*
X230315Y3987D02*
Y9985D01*
X232314Y7985D01*
X234314Y9985D01*
Y3987D01*
X239312D02*
Y9985D01*
X236313Y6986D01*
X240312D01*
X25602Y2362D02*
Y8360D01*
X27601Y6361D01*
X29601Y8360D01*
Y2362D01*
X31600Y7361D02*
X32600Y8360D01*
X34599D01*
X35599Y7361D01*
Y6361D01*
X34599Y5361D01*
X33599D01*
X34599D01*
X35599Y4361D01*
Y3362D01*
X34599Y2362D01*
X32600D01*
X31600Y3362D01*
X26378Y101969D02*
Y107967D01*
X28377Y105967D01*
X30377Y107967D01*
Y101969D01*
X32376D02*
X34375D01*
X33376D01*
Y107967D01*
X32376Y106967D01*
X230315Y101969D02*
Y107967D01*
X232314Y105967D01*
X234314Y107967D01*
Y101969D01*
X240312D02*
X236313D01*
X240312Y105967D01*
Y106967D01*
X239312Y107967D01*
X237313D01*
X236313Y106967D01*
X-115650Y-100787D02*
X530020D01*
X-14469D02*
Y-21606D01*
X148463Y-100492D02*
Y-45565D01*
X-14173Y-83065D02*
X329429Y-83065D01*
X329713Y-100394D02*
Y-21803D01*
X-14173Y-64315D02*
X529713Y-64315D01*
X-13976Y-45565D02*
X529290Y-45565D01*
X-14469Y-21606D02*
X529713D01*
X-115650Y355264D02*
X530020D01*
X-115650Y-100787D02*
Y355264D01*
X530020Y-100433D02*
Y355264D01*
X329921Y-45228D02*
Y-21606D01*
X398709Y-45171D02*
Y-21555D01*
X81004Y-90728D02*
Y-97539D01*
X85545Y-90728D02*
Y-97539D01*
X81004Y-93972D02*
X85545D01*
X92615Y-97539D02*
X90021Y-90728D01*
X87426Y-97539D01*
X88399Y-95269D02*
X91642D01*
X98745Y-91701D02*
X98096Y-91053D01*
X97123Y-90728D01*
X95826D01*
X94853Y-91053D01*
X94204Y-91701D01*
Y-92350D01*
X94529Y-92999D01*
X94853Y-93323D01*
X95502Y-93647D01*
X97448Y-94296D01*
X98096Y-94620D01*
X98421Y-94945D01*
X98745Y-95593D01*
Y-96566D01*
X98096Y-97215D01*
X97123Y-97539D01*
X95826D01*
X94853Y-97215D01*
X94204Y-96566D01*
X100269Y-90728D02*
Y-97539D01*
X104162D01*
X214961Y-88760D02*
X217555Y-92003D01*
Y-95571D01*
X220150Y-88760D02*
X217555Y-92003D01*
X224918Y-91030D02*
Y-95571D01*
Y-92003D02*
X224269Y-91355D01*
X223620Y-91030D01*
X222647D01*
X221999Y-91355D01*
X221350Y-92003D01*
X221026Y-92976D01*
Y-93625D01*
X221350Y-94598D01*
X221999Y-95246D01*
X222647Y-95571D01*
X223620D01*
X224269Y-95246D01*
X224918Y-94598D01*
X226734Y-91030D02*
Y-95571D01*
Y-92327D02*
X227707Y-91355D01*
X228356Y-91030D01*
X229329D01*
X229977Y-91355D01*
X230302Y-92327D01*
Y-95571D01*
X242302Y-90381D02*
X241978Y-89733D01*
X241329Y-89084D01*
X240680Y-88760D01*
X239383D01*
X238734Y-89084D01*
X238086Y-89733D01*
X237761Y-90381D01*
X237437Y-91355D01*
Y-92976D01*
X237761Y-93949D01*
X238086Y-94598D01*
X238734Y-95246D01*
X239383Y-95571D01*
X240680D01*
X241329Y-95246D01*
X241978Y-94598D01*
X242302Y-93949D01*
X244540Y-94922D02*
X244216Y-95246D01*
X244540Y-95571D01*
X244864Y-95246D01*
X244540Y-94922D01*
X255600Y-88760D02*
Y-95571D01*
Y-92003D02*
X254951Y-91355D01*
X254303Y-91030D01*
X253329D01*
X252681Y-91355D01*
X252032Y-92003D01*
X251708Y-92976D01*
Y-93625D01*
X252032Y-94598D01*
X252681Y-95246D01*
X253329Y-95571D01*
X254303D01*
X254951Y-95246D01*
X255600Y-94598D01*
X257416Y-92976D02*
X261308D01*
Y-92327D01*
X260984Y-91679D01*
X260660Y-91355D01*
X260011Y-91030D01*
X259038D01*
X258389Y-91355D01*
X257740Y-92003D01*
X257416Y-92976D01*
Y-93625D01*
X257740Y-94598D01*
X258389Y-95246D01*
X259038Y-95571D01*
X260011D01*
X260660Y-95246D01*
X261308Y-94598D01*
X273308Y-95571D02*
X270714Y-88760D01*
X268119Y-95571D01*
X269092Y-93300D02*
X272336D01*
X278466Y-91030D02*
X274898Y-95571D01*
Y-91030D02*
X278466D01*
X274898Y-95571D02*
X278466D01*
X279892Y-92976D02*
X283785D01*
Y-92327D01*
X283460Y-91679D01*
X283136Y-91355D01*
X282487Y-91030D01*
X281514D01*
X280866Y-91355D01*
X280217Y-92003D01*
X279892Y-92976D01*
Y-93625D01*
X280217Y-94598D01*
X280866Y-95246D01*
X281514Y-95571D01*
X282487D01*
X283136Y-95246D01*
X283785Y-94598D01*
X285244Y-91030D02*
Y-95571D01*
Y-92976D02*
X285568Y-92003D01*
X286217Y-91355D01*
X286866Y-91030D01*
X287839D01*
X288455Y-92976D02*
X292347D01*
Y-92327D01*
X292023Y-91679D01*
X291698Y-91355D01*
X291050Y-91030D01*
X290077D01*
X289428Y-91355D01*
X288779Y-92003D01*
X288455Y-92976D01*
Y-93625D01*
X288779Y-94598D01*
X289428Y-95246D01*
X290077Y-95571D01*
X291050D01*
X291698Y-95246D01*
X292347Y-94598D01*
X297698Y-88760D02*
Y-95571D01*
Y-92003D02*
X297050Y-91355D01*
X296401Y-91030D01*
X295428D01*
X294779Y-91355D01*
X294131Y-92003D01*
X293807Y-92976D01*
Y-93625D01*
X294131Y-94598D01*
X294779Y-95246D01*
X295428Y-95571D01*
X296401D01*
X297050Y-95246D01*
X297698Y-94598D01*
X301136Y-91030D02*
X300488Y-91355D01*
X299839Y-92003D01*
X299515Y-92976D01*
Y-93625D01*
X299839Y-94598D01*
X300488Y-95246D01*
X301136Y-95571D01*
X302110D01*
X302758Y-95246D01*
X303407Y-94598D01*
X303731Y-93625D01*
Y-92976D01*
X303407Y-92003D01*
X302758Y-91355D01*
X302110Y-91030D01*
X301136D01*
X109153Y-78347D02*
X111674D01*
X110414D01*
Y-70786D01*
X109153Y-72046D01*
X115454Y-78347D02*
Y-77087D01*
X116714D01*
Y-78347D01*
X115454D01*
X126794Y-70786D02*
X124274Y-72046D01*
X121754Y-74566D01*
Y-77087D01*
X123014Y-78347D01*
X125534D01*
X126794Y-77087D01*
Y-75826D01*
X125534Y-74566D01*
X121754D01*
X129314Y-78347D02*
Y-73306D01*
X130574D01*
X131834Y-74566D01*
Y-78347D01*
Y-74566D01*
X133094Y-73306D01*
X134354Y-74566D01*
Y-78347D01*
X136874D02*
Y-73306D01*
X138134D01*
X139394Y-74566D01*
Y-78347D01*
Y-74566D01*
X140654Y-73306D01*
X141914Y-74566D01*
Y-78347D01*
X64458Y-51390D02*
X59418D01*
Y-55170D01*
X61938D01*
X59418D01*
Y-58950D01*
X66978D02*
Y-51390D01*
X70758D01*
X72018Y-52650D01*
Y-55170D01*
X70758Y-56430D01*
X66978D01*
X69498D02*
X72018Y-58950D01*
X78318D02*
Y-51390D01*
X74538Y-55170D01*
X79578D01*
X374803Y-37992D02*
X377323D01*
X376063D01*
Y-30432D01*
X374803Y-31692D01*
X381103Y-37992D02*
Y-36732D01*
X382363D01*
Y-37992D01*
X381103D01*
X387403Y-31692D02*
X388663Y-30432D01*
X391183D01*
X392443Y-31692D01*
Y-36732D01*
X391183Y-37992D01*
X388663D01*
X387403Y-36732D01*
Y-31692D01*
X449409D02*
X450669Y-30432D01*
X453190D01*
X454450Y-31692D01*
Y-36732D01*
X453190Y-37992D01*
X450669D01*
X449409Y-36732D01*
Y-31692D01*
X462010Y-37992D02*
X456969D01*
X462010Y-32952D01*
Y-31692D01*
X460749Y-30432D01*
X458229D01*
X456969Y-31692D01*
X464530Y-37992D02*
X469570Y-32952D01*
X472090Y-31692D02*
X473350Y-30432D01*
X475870D01*
X477130Y-31692D01*
Y-36732D01*
X475870Y-37992D01*
X473350D01*
X472090Y-36732D01*
Y-31692D01*
X479650Y-30432D02*
X484690D01*
Y-31692D01*
X479650Y-36732D01*
Y-37992D01*
X487210D02*
X492250Y-32952D01*
X499810Y-37992D02*
X494770D01*
X499810Y-32952D01*
Y-31692D01*
X498550Y-30432D01*
X496030D01*
X494770Y-31692D01*
X502330D02*
X503590Y-30432D01*
X506110D01*
X507370Y-31692D01*
Y-36732D01*
X506110Y-37992D01*
X503590D01*
X502330Y-36732D01*
Y-31692D01*
X514930Y-37992D02*
X509890D01*
X514930Y-32952D01*
Y-31692D01*
X513670Y-30432D01*
X511150D01*
X509890Y-31692D01*
X517450D02*
X518710Y-30432D01*
X521230D01*
X522490Y-31692D01*
Y-36732D01*
X521230Y-37992D01*
X518710D01*
X517450Y-36732D01*
Y-31692D01*
X335957Y-69030D02*
X335038Y-68112D01*
X333202D01*
X332283Y-69030D01*
Y-69949D01*
X333202Y-70867D01*
X335038D01*
X335957Y-71785D01*
Y-72704D01*
X335038Y-73622D01*
X333202D01*
X332283Y-72704D01*
X337793Y-75459D02*
Y-69949D01*
X340548D01*
X341467Y-70867D01*
Y-72704D01*
X340548Y-73622D01*
X337793D01*
X344222Y-69949D02*
X346059D01*
X346977Y-70867D01*
Y-73622D01*
X344222D01*
X343303Y-72704D01*
X344222Y-71785D01*
X346977D01*
X352487Y-69949D02*
X349732D01*
X348814Y-70867D01*
Y-72704D01*
X349732Y-73622D01*
X352487D01*
X357079D02*
X355242D01*
X354324Y-72704D01*
Y-70867D01*
X355242Y-69949D01*
X357079D01*
X357997Y-70867D01*
Y-71785D01*
X354324D01*
X365344Y-68112D02*
X369017D01*
X367180D01*
Y-73622D01*
X373609D02*
X371772D01*
X370854Y-72704D01*
Y-70867D01*
X371772Y-69949D01*
X373609D01*
X374527Y-70867D01*
Y-71785D01*
X370854D01*
X380037Y-69949D02*
X377282D01*
X376364Y-70867D01*
Y-72704D01*
X377282Y-73622D01*
X380037D01*
X381874Y-68112D02*
Y-73622D01*
Y-70867D01*
X382792Y-69949D01*
X384629D01*
X385547Y-70867D01*
Y-73622D01*
X387384D02*
Y-69949D01*
X390139D01*
X391057Y-70867D01*
Y-73622D01*
X393812D02*
X395649D01*
X396567Y-72704D01*
Y-70867D01*
X395649Y-69949D01*
X393812D01*
X392894Y-70867D01*
Y-72704D01*
X393812Y-73622D01*
X398404D02*
X400241D01*
X399322D01*
Y-68112D01*
X398404D01*
X403914Y-73622D02*
X405751D01*
X406669Y-72704D01*
Y-70867D01*
X405751Y-69949D01*
X403914D01*
X402995Y-70867D01*
Y-72704D01*
X403914Y-73622D01*
X410342Y-75459D02*
X411261D01*
X412179Y-74540D01*
Y-69949D01*
X409424D01*
X408505Y-70867D01*
Y-72704D01*
X409424Y-73622D01*
X412179D01*
X414016Y-69949D02*
Y-72704D01*
X414934Y-73622D01*
X417689D01*
Y-74540D01*
X416771Y-75459D01*
X415852D01*
X417689Y-73622D02*
Y-69949D01*
X425036Y-73622D02*
Y-68112D01*
X427791D01*
X428709Y-69030D01*
Y-70867D01*
X427791Y-71785D01*
X425036D01*
X426872D02*
X428709Y-73622D01*
X433301D02*
X431464D01*
X430546Y-72704D01*
Y-70867D01*
X431464Y-69949D01*
X433301D01*
X434219Y-70867D01*
Y-71785D01*
X430546D01*
X436056Y-73622D02*
X438811D01*
X439729Y-72704D01*
X438811Y-71785D01*
X436974D01*
X436056Y-70867D01*
X436974Y-69949D01*
X439729D01*
X444321Y-73622D02*
X442484D01*
X441566Y-72704D01*
Y-70867D01*
X442484Y-69949D01*
X444321D01*
X445239Y-70867D01*
Y-71785D01*
X441566D01*
X447994Y-69949D02*
X449831D01*
X450749Y-70867D01*
Y-73622D01*
X447994D01*
X447076Y-72704D01*
X447994Y-71785D01*
X450749D01*
X452586Y-69949D02*
Y-73622D01*
Y-71785D01*
X453504Y-70867D01*
X454423Y-69949D01*
X455341D01*
X461769D02*
X459014D01*
X458096Y-70867D01*
Y-72704D01*
X459014Y-73622D01*
X461769D01*
X463606Y-68112D02*
Y-73622D01*
Y-70867D01*
X464524Y-69949D01*
X466361D01*
X467279Y-70867D01*
Y-73622D01*
X474626Y-68112D02*
Y-73622D01*
X478299D01*
X481054Y-69949D02*
X482891D01*
X483809Y-70867D01*
Y-73622D01*
X481054D01*
X480136Y-72704D01*
X481054Y-71785D01*
X483809D01*
X485646Y-68112D02*
Y-73622D01*
X488401D01*
X489319Y-72704D01*
Y-71785D01*
Y-70867D01*
X488401Y-69949D01*
X485646D01*
X492074Y-73622D02*
X493911D01*
X494829Y-72704D01*
Y-70867D01*
X493911Y-69949D01*
X492074D01*
X491156Y-70867D01*
Y-72704D01*
X492074Y-73622D01*
X496666Y-69949D02*
Y-73622D01*
Y-71785D01*
X497584Y-70867D01*
X498503Y-69949D01*
X499421D01*
X503094D02*
X504931D01*
X505849Y-70867D01*
Y-73622D01*
X503094D01*
X502176Y-72704D01*
X503094Y-71785D01*
X505849D01*
X508604Y-69030D02*
Y-69949D01*
X507686D01*
X509523D01*
X508604D01*
Y-72704D01*
X509523Y-73622D01*
X513196D02*
X515033D01*
X515951Y-72704D01*
Y-70867D01*
X515033Y-69949D01*
X513196D01*
X512278Y-70867D01*
Y-72704D01*
X513196Y-73622D01*
X517788Y-69949D02*
Y-73622D01*
Y-71785D01*
X518706Y-70867D01*
X519625Y-69949D01*
X520543D01*
X523298D02*
Y-72704D01*
X524216Y-73622D01*
X526971D01*
Y-74540D01*
X526053Y-75459D01*
X525135D01*
X526971Y-73622D02*
Y-69949D01*
X338516Y-78545D02*
X334842D01*
Y-81300D01*
X336679D01*
X334842D01*
Y-84055D01*
X343108D02*
X341271D01*
X340353Y-83137D01*
Y-81300D01*
X341271Y-80382D01*
X343108D01*
X344026Y-81300D01*
Y-82218D01*
X340353D01*
X349536Y-78545D02*
Y-84055D01*
X346781D01*
X345863Y-83137D01*
Y-81300D01*
X346781Y-80382D01*
X349536D01*
X354128Y-84055D02*
X352291D01*
X351373Y-83137D01*
Y-81300D01*
X352291Y-80382D01*
X354128D01*
X355046Y-81300D01*
Y-82218D01*
X351373D01*
X356883Y-80382D02*
Y-84055D01*
Y-82218D01*
X357801Y-81300D01*
X358719Y-80382D01*
X359638D01*
X363311D02*
X365148D01*
X366066Y-81300D01*
Y-84055D01*
X363311D01*
X362393Y-83137D01*
X363311Y-82218D01*
X366066D01*
X367903Y-84055D02*
X369739D01*
X368821D01*
Y-78545D01*
X367903D01*
X378004D02*
Y-83137D01*
X378923Y-84055D01*
X380759D01*
X381678Y-83137D01*
Y-78545D01*
X383514Y-84055D02*
Y-80382D01*
X386269D01*
X387188Y-81300D01*
Y-84055D01*
X389024D02*
X390861D01*
X389943D01*
Y-80382D01*
X389024D01*
X393616D02*
X395453Y-84055D01*
X397289Y-80382D01*
X401881Y-84055D02*
X400044D01*
X399126Y-83137D01*
Y-81300D01*
X400044Y-80382D01*
X401881D01*
X402800Y-81300D01*
Y-82218D01*
X399126D01*
X404636Y-80382D02*
Y-84055D01*
Y-82218D01*
X405555Y-81300D01*
X406473Y-80382D01*
X407391D01*
X410146Y-84055D02*
X412901D01*
X413820Y-83137D01*
X412901Y-82218D01*
X411065D01*
X410146Y-81300D01*
X411065Y-80382D01*
X413820D01*
X415656Y-84055D02*
X417493D01*
X416575D01*
Y-80382D01*
X415656D01*
X421166Y-79463D02*
Y-80382D01*
X420248D01*
X422085D01*
X421166D01*
Y-83137D01*
X422085Y-84055D01*
X424840Y-80382D02*
Y-83137D01*
X425758Y-84055D01*
X428513D01*
Y-84974D01*
X427595Y-85892D01*
X426676D01*
X428513Y-84055D02*
Y-80382D01*
X436778Y-84055D02*
X438615D01*
X439533Y-83137D01*
Y-81300D01*
X438615Y-80382D01*
X436778D01*
X435860Y-81300D01*
Y-83137D01*
X436778Y-84055D01*
X442288D02*
Y-79463D01*
Y-81300D01*
X441370D01*
X443207D01*
X442288D01*
Y-79463D01*
X443207Y-78545D01*
X455145Y-79463D02*
X454226Y-78545D01*
X452390D01*
X451472Y-79463D01*
Y-80382D01*
X452390Y-81300D01*
X454226D01*
X455145Y-82218D01*
Y-83137D01*
X454226Y-84055D01*
X452390D01*
X451472Y-83137D01*
X457900Y-80382D02*
X459736D01*
X460655Y-81300D01*
Y-84055D01*
X457900D01*
X456982Y-83137D01*
X457900Y-82218D01*
X460655D01*
X462492Y-84055D02*
Y-80382D01*
X465247D01*
X466165Y-81300D01*
Y-84055D01*
X468920Y-79463D02*
Y-80382D01*
X468002D01*
X469838D01*
X468920D01*
Y-83137D01*
X469838Y-84055D01*
X473512Y-80382D02*
X475348D01*
X476267Y-81300D01*
Y-84055D01*
X473512D01*
X472593Y-83137D01*
X473512Y-82218D01*
X476267D01*
X487287Y-79463D02*
X486368Y-78545D01*
X484532D01*
X483613Y-79463D01*
Y-83137D01*
X484532Y-84055D01*
X486368D01*
X487287Y-83137D01*
X490042Y-80382D02*
X491878D01*
X492797Y-81300D01*
Y-84055D01*
X490042D01*
X489123Y-83137D01*
X490042Y-82218D01*
X492797D01*
X495552Y-79463D02*
Y-80382D01*
X494633D01*
X496470D01*
X495552D01*
Y-83137D01*
X496470Y-84055D01*
X500143Y-80382D02*
X501980D01*
X502898Y-81300D01*
Y-84055D01*
X500143D01*
X499225Y-83137D01*
X500143Y-82218D01*
X502898D01*
X504735Y-80382D02*
Y-84055D01*
Y-82218D01*
X505653Y-81300D01*
X506572Y-80382D01*
X507490D01*
X510245Y-84055D02*
X512082D01*
X511164D01*
Y-80382D01*
X510245D01*
X514837Y-84055D02*
Y-80382D01*
X517592D01*
X518510Y-81300D01*
Y-84055D01*
X521265Y-80382D02*
X523102D01*
X524020Y-81300D01*
Y-84055D01*
X521265D01*
X520347Y-83137D01*
X521265Y-82218D01*
X524020D01*
D12*
X1181Y25591D02*
X264567D01*
X1575Y84646D02*
X264567Y84646D01*
D13*
X139360Y2607D02*
X139471D01*
X125997D02*
X126109D01*
X139285Y2644D02*
X139545D01*
X125923D02*
X126183D01*
X139248Y2682D02*
X139582D01*
X125886D02*
X126257D01*
X139174Y2719D02*
X139619D01*
X125849D02*
X126294D01*
X139137Y2756D02*
X139656D01*
X125812D02*
X126331D01*
X139063Y2793D02*
X139694D01*
X125775D02*
X126406D01*
X139025Y2830D02*
X139731D01*
X125738D02*
X126443D01*
X138951Y2867D02*
X139768D01*
X125700D02*
X126517D01*
X138914Y2904D02*
X139805D01*
X125663D02*
X126554D01*
X138840Y2941D02*
X139842D01*
X125626D02*
X126628D01*
X138803Y2978D02*
X139879D01*
X125589D02*
X126665D01*
X138766Y3015D02*
X139916D01*
X125552D02*
X126740D01*
X138691Y3053D02*
X139953D01*
X125515D02*
X126777D01*
X138654Y3090D02*
X139991D01*
X125478D02*
X126851D01*
X138580Y3127D02*
X140028D01*
X125441D02*
X126888D01*
X138543Y3164D02*
X140065D01*
X125403D02*
X126962D01*
X138469Y3201D02*
X140102D01*
X125366D02*
X126999D01*
X138432Y3238D02*
X140139D01*
X125329D02*
X127037D01*
X138357Y3275D02*
X140176D01*
X125292D02*
X127111D01*
X138320Y3312D02*
X140213D01*
X125255D02*
X127148D01*
X138246Y3350D02*
X140250D01*
X125218D02*
X127222D01*
X138209Y3387D02*
X140287D01*
X125181D02*
X127259D01*
X138172Y3424D02*
X140325D01*
X125144D02*
X127334D01*
X138098Y3461D02*
X140362D01*
X125107D02*
X127371D01*
X138060Y3498D02*
X140399D01*
X125069D02*
X127445D01*
X137986Y3535D02*
X140436D01*
X125032D02*
X127482D01*
X137949Y3572D02*
X140473D01*
X124995D02*
X127556D01*
X137875Y3609D02*
X140510D01*
X135908D02*
X136093D01*
X129375D02*
X129561D01*
X124958D02*
X127593D01*
X137838Y3647D02*
X140547D01*
X135871D02*
X136168D01*
X129301D02*
X129598D01*
X124921D02*
X127630D01*
X137764Y3684D02*
X140584D01*
X135871D02*
X136242D01*
X129264D02*
X129598D01*
X124884D02*
X127705D01*
X137726Y3721D02*
X140622D01*
X135833D02*
X136316D01*
X129189D02*
X129635D01*
X124847D02*
X127742D01*
X137652Y3758D02*
X140659D01*
X135833D02*
X136353D01*
X129115D02*
X129635D01*
X124810D02*
X127816D01*
X137615Y3795D02*
X140696D01*
X135833D02*
X136427D01*
X129041D02*
X129672D01*
X124773D02*
X127853D01*
X137578Y3832D02*
X140733D01*
X135796D02*
X136502D01*
X128967D02*
X129672D01*
X124735D02*
X127927D01*
X137504Y3869D02*
X140770D01*
X135796D02*
X136576D01*
X128893D02*
X129709D01*
X124698D02*
X127965D01*
X137467Y3906D02*
X140807D01*
X135759D02*
X136650D01*
X128818D02*
X129709D01*
X124661D02*
X128039D01*
X137392Y3943D02*
X140844D01*
X135759D02*
X136724D01*
X128744D02*
X129709D01*
X124624D02*
X128076D01*
X137355Y3981D02*
X140881D01*
X135722D02*
X136799D01*
X128707D02*
X129746D01*
X124587D02*
X128150D01*
X137281Y4018D02*
X140919D01*
X135722D02*
X136873D01*
X128633D02*
X129746D01*
X124550D02*
X128187D01*
X137244Y4055D02*
X140956D01*
X135722D02*
X136910D01*
X128558D02*
X129783D01*
X124513D02*
X128224D01*
X137170Y4092D02*
X140993D01*
X135685D02*
X136984D01*
X128484D02*
X129783D01*
X124476D02*
X128299D01*
X135685Y4129D02*
X141030D01*
X124438D02*
X129783D01*
X135648Y4166D02*
X141067D01*
X124401D02*
X129820D01*
X135648Y4203D02*
X141104D01*
X124364D02*
X129820D01*
X135648Y4240D02*
X141141D01*
X124327D02*
X129858D01*
X135611Y4278D02*
X141178D01*
X124290D02*
X129858D01*
X135611Y4315D02*
X141215D01*
X124253D02*
X129858D01*
X135574Y4352D02*
X141253D01*
X124216D02*
X129895D01*
X135574Y4389D02*
X141290D01*
X124179D02*
X129895D01*
X135574Y4426D02*
X141327D01*
X124142D02*
X129932D01*
X135537Y4463D02*
X141364D01*
X124104D02*
X129932D01*
X135537Y4500D02*
X141401D01*
X124067D02*
X129969D01*
X135499Y4537D02*
X141438D01*
X124030D02*
X129969D01*
X135499Y4575D02*
X141475D01*
X123993D02*
X129969D01*
X135462Y4612D02*
X141512D01*
X123956D02*
X130006D01*
X135462Y4649D02*
X141550D01*
X123956D02*
X130006D01*
X135462Y4686D02*
X141550D01*
X123919D02*
X130043D01*
X135425Y4723D02*
X141550D01*
X123919D02*
X130043D01*
X135425Y4760D02*
X141550D01*
X123919D02*
X130043D01*
X135388Y4797D02*
X141550D01*
X123956D02*
X130080D01*
X135388Y4834D02*
X141512D01*
X123956D02*
X130080D01*
X135388Y4871D02*
X141475D01*
X123993D02*
X130117D01*
X135351Y4908D02*
X141475D01*
X123993D02*
X130117D01*
X135351Y4946D02*
X141438D01*
X124030D02*
X130155D01*
X135314Y4983D02*
X141401D01*
X124067D02*
X130155D01*
X135314Y5020D02*
X141401D01*
X124104D02*
X130155D01*
X135277Y5057D02*
X141364D01*
X124104D02*
X130192D01*
X135277Y5094D02*
X141327D01*
X124142D02*
X130192D01*
X135277Y5131D02*
X141327D01*
X124179D02*
X130229D01*
X135240Y5168D02*
X141290D01*
X124179D02*
X130229D01*
X135240Y5205D02*
X141253D01*
X124216D02*
X130229D01*
X135202Y5243D02*
X141253D01*
X124253D02*
X130266D01*
X135202Y5280D02*
X141215D01*
X124253D02*
X130266D01*
X135202Y5317D02*
X141178D01*
X124290D02*
X130303D01*
X135165Y5354D02*
X141178D01*
X124327D02*
X130303D01*
X135165Y5391D02*
X141141D01*
X124327D02*
X130303D01*
X135128Y5428D02*
X141104D01*
X124364D02*
X130340D01*
X135128Y5465D02*
X141067D01*
X124401D02*
X130340D01*
X135128Y5502D02*
X141067D01*
X124401D02*
X130377D01*
X135091Y5539D02*
X141030D01*
X124438D02*
X130377D01*
X135091Y5577D02*
X140993D01*
X124476D02*
X130414D01*
X135054Y5614D02*
X140993D01*
X124513D02*
X130414D01*
X135054Y5651D02*
X140956D01*
X124513D02*
X130414D01*
X135017Y5688D02*
X140919D01*
X124550D02*
X130451D01*
X135017Y5725D02*
X140919D01*
X124587D02*
X130451D01*
X135017Y5762D02*
X140881D01*
X124587D02*
X130489D01*
X134980Y5799D02*
X140844D01*
X124624D02*
X130489D01*
X134980Y5836D02*
X140844D01*
X124661D02*
X130489D01*
X134943Y5874D02*
X140807D01*
X124661D02*
X130526D01*
X134943Y5911D02*
X140770D01*
X124698D02*
X130526D01*
X134943Y5948D02*
X140770D01*
X124735D02*
X130563D01*
X134906Y5985D02*
X140733D01*
X124735D02*
X130563D01*
X134906Y6022D02*
X140696D01*
X124773D02*
X130600D01*
X134868Y6059D02*
X140696D01*
X124810D02*
X130600D01*
X134868Y6096D02*
X140659D01*
X124810D02*
X130600D01*
X134831Y6133D02*
X140622D01*
X124847D02*
X130637D01*
X134831Y6171D02*
X140584D01*
X124884D02*
X130637D01*
X134831Y6208D02*
X140584D01*
X124884D02*
X130674D01*
X134794Y6245D02*
X140547D01*
X124921D02*
X130674D01*
X134794Y6282D02*
X140510D01*
X124958D02*
X130674D01*
X134757Y6319D02*
X140510D01*
X124995D02*
X130711D01*
X134757Y6356D02*
X140473D01*
X124995D02*
X130711D01*
X134757Y6393D02*
X140436D01*
X125032D02*
X130748D01*
X134720Y6430D02*
X140436D01*
X125069D02*
X130748D01*
X134720Y6467D02*
X140399D01*
X125069D02*
X130748D01*
X134683Y6505D02*
X140362D01*
X125107D02*
X130786D01*
X134683Y6542D02*
X140362D01*
X125144D02*
X130786D01*
X134683Y6579D02*
X140325D01*
X125144D02*
X130823D01*
X134646Y6616D02*
X140287D01*
X125181D02*
X130823D01*
X134646Y6653D02*
X140287D01*
X125218D02*
X130860D01*
X134609Y6690D02*
X140250D01*
X125218D02*
X130860D01*
X134609Y6727D02*
X140213D01*
X125255D02*
X130860D01*
X134571Y6764D02*
X140176D01*
X125292D02*
X130897D01*
X134571Y6802D02*
X140176D01*
X125292D02*
X130897D01*
X134571Y6839D02*
X140139D01*
X125329D02*
X130934D01*
X134534Y6876D02*
X140102D01*
X125366D02*
X130934D01*
X134534Y6913D02*
X140102D01*
X125403D02*
X130934D01*
X134497Y6950D02*
X140065D01*
X125403D02*
X130971D01*
X134497Y6987D02*
X140028D01*
X125441D02*
X130971D01*
X134497Y7024D02*
X140028D01*
X125478D02*
X131008D01*
X134460Y7061D02*
X139991D01*
X125478D02*
X131008D01*
X134460Y7098D02*
X139991D01*
X125478D02*
X131045D01*
X134423Y7136D02*
X139991D01*
X125478D02*
X131045D01*
X134423Y7173D02*
X140028D01*
X125478D02*
X131045D01*
X134386Y7210D02*
X140028D01*
X125441D02*
X131082D01*
X134386Y7247D02*
X140028D01*
X125441D02*
X131082D01*
X134386Y7284D02*
X140065D01*
X125441D02*
X131120D01*
X134349Y7321D02*
X140065D01*
X125403D02*
X131120D01*
X134349Y7358D02*
X140102D01*
X125403D02*
X131120D01*
X134312Y7395D02*
X140102D01*
X125366D02*
X131157D01*
X134312Y7433D02*
X140102D01*
X125366D02*
X131157D01*
X134312Y7470D02*
X140139D01*
X125366D02*
X131194D01*
X134274Y7507D02*
X140139D01*
X125329D02*
X131194D01*
X134274Y7544D02*
X140176D01*
X125329D02*
X131194D01*
X134237Y7581D02*
X140176D01*
X125292D02*
X131231D01*
X134237Y7618D02*
X140176D01*
X125292D02*
X131231D01*
X134237Y7655D02*
X140213D01*
X125292D02*
X131268D01*
X134200Y7692D02*
X140213D01*
X125255D02*
X131268D01*
X134200Y7729D02*
X140250D01*
X125255D02*
X131305D01*
X134163Y7767D02*
X140250D01*
X125218D02*
X131305D01*
X134163Y7804D02*
X140250D01*
X125218D02*
X131305D01*
X134126Y7841D02*
X140287D01*
X125218D02*
X131342D01*
X134126Y7878D02*
X140287D01*
X125181D02*
X131342D01*
X134126Y7915D02*
X140325D01*
X125181D02*
X131379D01*
X134089Y7952D02*
X140325D01*
X125144D02*
X131379D01*
X134089Y7989D02*
X140325D01*
X125144D02*
X131379D01*
X134052Y8026D02*
X140362D01*
X125144D02*
X131416D01*
X134052Y8063D02*
X140362D01*
X125107D02*
X131416D01*
X134052Y8101D02*
X140399D01*
X125107D02*
X131454D01*
X134015Y8138D02*
X140399D01*
X125069D02*
X131454D01*
X134015Y8175D02*
X140399D01*
X125069D02*
X131491D01*
X133978Y8212D02*
X140436D01*
X125069D02*
X131491D01*
X133978Y8249D02*
X140436D01*
X125032D02*
X131491D01*
X133940Y8286D02*
X140473D01*
X125032D02*
X131528D01*
X133940Y8323D02*
X140473D01*
X124995D02*
X131528D01*
X133940Y8360D02*
X140473D01*
X124995D02*
X131565D01*
X133903Y8398D02*
X140510D01*
X124995D02*
X131565D01*
X133903Y8435D02*
X140510D01*
X124958D02*
X131565D01*
X133940Y8472D02*
X140547D01*
X124958D02*
X131565D01*
X133940Y8509D02*
X140547D01*
X124921D02*
X131528D01*
X133978Y8546D02*
X140547D01*
X124921D02*
X131528D01*
X134015Y8583D02*
X140584D01*
X124921D02*
X131454D01*
X134089Y8620D02*
X140584D01*
X124884D02*
X131416D01*
X134126Y8657D02*
X140622D01*
X124884D02*
X131342D01*
X134200Y8694D02*
X140622D01*
X124847D02*
X131268D01*
X134237Y8732D02*
X140622D01*
X124847D02*
X131231D01*
X134312Y8769D02*
X140659D01*
X124847D02*
X131157D01*
X134349Y8806D02*
X140659D01*
X124810D02*
X131120D01*
X134386Y8843D02*
X140696D01*
X124810D02*
X131082D01*
X134460Y8880D02*
X140696D01*
X124773D02*
X131008D01*
X134497Y8917D02*
X140696D01*
X124773D02*
X130971D01*
X134571Y8954D02*
X140733D01*
X124773D02*
X130934D01*
X134609Y8991D02*
X140733D01*
X124735D02*
X130860D01*
X134646Y9029D02*
X140770D01*
X124735D02*
X130823D01*
X134683Y9066D02*
X140770D01*
X124698D02*
X130786D01*
X134757Y9103D02*
X140770D01*
X124698D02*
X130748D01*
X134794Y9140D02*
X140807D01*
X124698D02*
X130711D01*
X134831Y9177D02*
X140807D01*
X124661D02*
X130637D01*
X134868Y9214D02*
X140844D01*
X124661D02*
X130600D01*
X134906Y9251D02*
X140844D01*
X124624D02*
X130563D01*
X134943Y9288D02*
X140881D01*
X124624D02*
X130526D01*
X134980Y9325D02*
X140919D01*
X124587D02*
X130489D01*
X135017Y9363D02*
X140956D01*
X124513D02*
X130489D01*
X135054Y9400D02*
X141141D01*
X124327D02*
X130451D01*
X135054Y9437D02*
X141364D01*
X124104D02*
X130414D01*
X135091Y9474D02*
X141550D01*
X123919D02*
X130377D01*
X135128Y9511D02*
X141772D01*
X123733D02*
X130340D01*
X135165Y9548D02*
X141958D01*
X123511D02*
X130303D01*
X135202Y9585D02*
X142143D01*
X123325D02*
X130303D01*
X135202Y9622D02*
X142366D01*
X123139D02*
X130266D01*
X135240Y9659D02*
X142552D01*
X122917D02*
X130229D01*
X135277Y9697D02*
X142737D01*
X122731D02*
X130229D01*
X135277Y9734D02*
X142960D01*
X122508D02*
X130192D01*
X135314Y9771D02*
X143146D01*
X122323D02*
X130155D01*
X135351Y9808D02*
X143368D01*
X122137D02*
X130155D01*
X135351Y9845D02*
X143554D01*
X121915D02*
X130117D01*
X135388Y9882D02*
X143665D01*
X121803D02*
X130080D01*
X135388Y9919D02*
X143702D01*
X121766D02*
X130080D01*
X135425Y9956D02*
X143739D01*
X121729D02*
X130043D01*
X135425Y9994D02*
X143739D01*
X121729D02*
X130043D01*
X135462Y10031D02*
X143739D01*
X121729D02*
X130006D01*
X135462Y10068D02*
X143739D01*
X121729D02*
X130006D01*
X135499Y10105D02*
X143739D01*
X121729D02*
X129969D01*
X135499Y10142D02*
X143739D01*
X121729D02*
X129969D01*
X135537Y10179D02*
X143739D01*
X121729D02*
X129932D01*
X135537Y10216D02*
X143739D01*
X121729D02*
X129932D01*
X135574Y10253D02*
X143739D01*
X121729D02*
X129932D01*
X135574Y10290D02*
X143739D01*
X121729D02*
X129895D01*
X135611Y10328D02*
X143739D01*
X121729D02*
X129895D01*
X135611Y10365D02*
X143739D01*
X121729D02*
X129858D01*
X135611Y10402D02*
X143739D01*
X121729D02*
X129858D01*
X135648Y10439D02*
X143739D01*
X121729D02*
X129858D01*
X135648Y10476D02*
X143739D01*
X121729D02*
X129820D01*
X135648Y10513D02*
X143739D01*
X121729D02*
X129820D01*
X135685Y10550D02*
X143739D01*
X121729D02*
X129820D01*
X135685Y10587D02*
X143739D01*
X121729D02*
X129783D01*
X135685Y10625D02*
X143739D01*
X121729D02*
X129783D01*
X135685Y10662D02*
X143739D01*
X121729D02*
X129783D01*
X135722Y10699D02*
X143739D01*
X121729D02*
X129783D01*
X135722Y10736D02*
X143739D01*
X121729D02*
X129746D01*
X135722Y10773D02*
X143739D01*
X121729D02*
X129746D01*
X135722Y10810D02*
X143739D01*
X121729D02*
X129746D01*
X135722Y10847D02*
X143739D01*
X121729D02*
X129746D01*
X135759Y10884D02*
X143739D01*
X121729D02*
X129746D01*
X135759Y10921D02*
X143739D01*
X121729D02*
X129709D01*
X135759Y10959D02*
X143739D01*
X121729D02*
X129709D01*
X135759Y10996D02*
X143739D01*
X121729D02*
X129709D01*
X135759Y11033D02*
X143739D01*
X121729D02*
X129709D01*
X135759Y11070D02*
X143739D01*
X121729D02*
X129709D01*
X135759Y11107D02*
X143739D01*
X121729D02*
X129709D01*
X135796Y11144D02*
X143739D01*
X121729D02*
X129709D01*
X135796Y11181D02*
X143739D01*
X121729D02*
X129709D01*
X135796Y11218D02*
X143739D01*
X121729D02*
X129709D01*
X135796Y11256D02*
X143739D01*
X121729D02*
X129709D01*
X135796Y11293D02*
X143739D01*
X121729D02*
X129672D01*
X135796Y11330D02*
X143739D01*
X121729D02*
X129672D01*
X135796Y11367D02*
X143739D01*
X121729D02*
X129672D01*
X135796Y11404D02*
X143739D01*
X121729D02*
X129672D01*
X135796Y11441D02*
X143739D01*
X121729D02*
X129672D01*
X135796Y11478D02*
X143739D01*
X121729D02*
X129672D01*
X135796Y11515D02*
X143739D01*
X121729D02*
X129709D01*
X135796Y11552D02*
X143739D01*
X121729D02*
X129709D01*
X135796Y11590D02*
X143739D01*
X121729D02*
X129709D01*
X135796Y11627D02*
X143739D01*
X121729D02*
X129709D01*
X135759Y11664D02*
X143739D01*
X121729D02*
X129709D01*
X135759Y11701D02*
X143739D01*
X121729D02*
X129709D01*
X135759Y11738D02*
X143739D01*
X121729D02*
X129709D01*
X135759Y11775D02*
X143739D01*
X121729D02*
X129709D01*
X135759Y11812D02*
X143739D01*
X121729D02*
X129709D01*
X135759Y11849D02*
X143739D01*
X121729D02*
X129709D01*
X135759Y11886D02*
X143739D01*
X121729D02*
X129746D01*
X135722Y11924D02*
X143739D01*
X121729D02*
X129746D01*
X135722Y11961D02*
X143739D01*
X121729D02*
X129746D01*
X135722Y11998D02*
X143739D01*
X121729D02*
X129746D01*
X135722Y12035D02*
X143739D01*
X121729D02*
X129746D01*
X135722Y12072D02*
X143739D01*
X121729D02*
X129783D01*
X135685Y12109D02*
X143739D01*
X121729D02*
X129783D01*
X135685Y12146D02*
X143739D01*
X121729D02*
X129783D01*
X135685Y12184D02*
X143739D01*
X121729D02*
X129783D01*
X135685Y12221D02*
X143739D01*
X121729D02*
X129820D01*
X135648Y12258D02*
X143739D01*
X121729D02*
X129820D01*
X135648Y12295D02*
X143739D01*
X121729D02*
X129820D01*
X135648Y12332D02*
X143739D01*
X121729D02*
X129858D01*
X135611Y12369D02*
X143739D01*
X121729D02*
X129858D01*
X135611Y12406D02*
X143739D01*
X121729D02*
X129858D01*
X135611Y12443D02*
X143739D01*
X121729D02*
X129895D01*
X135574Y12480D02*
X143739D01*
X121729D02*
X129895D01*
X135574Y12517D02*
X143739D01*
X121729D02*
X129895D01*
X135537Y12555D02*
X143739D01*
X121729D02*
X129932D01*
X135537Y12592D02*
X143739D01*
X121729D02*
X129932D01*
X135537Y12629D02*
X143739D01*
X121729D02*
X129969D01*
X135499Y12666D02*
X143739D01*
X121729D02*
X129969D01*
X135499Y12703D02*
X143739D01*
X121729D02*
X130006D01*
X135462Y12740D02*
X143739D01*
X121729D02*
X130006D01*
X135462Y12777D02*
X143739D01*
X121729D02*
X130043D01*
X135425Y12814D02*
X143739D01*
X121729D02*
X130043D01*
X135425Y12852D02*
X143739D01*
X121729D02*
X130080D01*
X135388Y12889D02*
X143702D01*
X121766D02*
X130080D01*
X135351Y12926D02*
X143702D01*
X121803D02*
X130117D01*
X135351Y12963D02*
X143591D01*
X121877D02*
X130117D01*
X135314Y13000D02*
X143405D01*
X122063D02*
X130155D01*
X135314Y13037D02*
X143183D01*
X122286D02*
X130192D01*
X135277Y13074D02*
X142997D01*
X122471D02*
X130192D01*
X135240Y13111D02*
X142812D01*
X122694D02*
X130229D01*
X135240Y13149D02*
X142589D01*
X122880D02*
X130266D01*
X135202Y13186D02*
X142403D01*
X123065D02*
X130266D01*
X135165Y13223D02*
X142218D01*
X123288D02*
X130303D01*
X135128Y13260D02*
X141995D01*
X123473D02*
X130340D01*
X135128Y13297D02*
X141809D01*
X123659D02*
X130377D01*
X135091Y13334D02*
X141587D01*
X123882D02*
X130377D01*
X135054Y13371D02*
X141401D01*
X124067D02*
X130414D01*
X135017Y13408D02*
X141215D01*
X124290D02*
X130451D01*
X134980Y13445D02*
X140993D01*
X124476D02*
X130489D01*
X134943Y13483D02*
X140881D01*
X124624D02*
X130526D01*
X134906Y13520D02*
X140807D01*
X124661D02*
X130563D01*
X134868Y13557D02*
X140770D01*
X124698D02*
X130600D01*
X134831Y13594D02*
X140770D01*
X124698D02*
X130637D01*
X134794Y13631D02*
X140733D01*
X124735D02*
X130674D01*
X134757Y13668D02*
X140733D01*
X124735D02*
X130711D01*
X134720Y13705D02*
X140733D01*
X124773D02*
X130748D01*
X134683Y13742D02*
X140696D01*
X124773D02*
X130823D01*
X134646Y13780D02*
X140696D01*
X124810D02*
X130860D01*
X134571Y13817D02*
X140659D01*
X124810D02*
X130897D01*
X134534Y13854D02*
X140659D01*
X124810D02*
X130934D01*
X134460Y13891D02*
X140622D01*
X124847D02*
X131008D01*
X134423Y13928D02*
X140622D01*
X124847D02*
X131045D01*
X134349Y13965D02*
X140622D01*
X124884D02*
X131120D01*
X134312Y14002D02*
X140584D01*
X124884D02*
X131157D01*
X134237Y14039D02*
X140584D01*
X124921D02*
X131231D01*
X134163Y14076D02*
X140547D01*
X124921D02*
X131305D01*
X134089Y14114D02*
X140547D01*
X124921D02*
X131379D01*
X134015Y14151D02*
X140510D01*
X124958D02*
X131454D01*
X133940Y14188D02*
X140510D01*
X124958D02*
X131528D01*
X133866Y14225D02*
X140510D01*
X124995D02*
X131602D01*
X133755Y14262D02*
X140473D01*
X124995D02*
X131713D01*
X133643Y14299D02*
X140473D01*
X125032D02*
X131825D01*
X133532Y14336D02*
X140436D01*
X125032D02*
X131936D01*
X133384Y14373D02*
X140436D01*
X125032D02*
X132085D01*
X133161Y14411D02*
X140399D01*
X125069D02*
X132307D01*
X125069Y14448D02*
X140399D01*
X125107Y14485D02*
X140399D01*
X125107Y14522D02*
X140362D01*
X125144Y14559D02*
X140362D01*
X125144Y14596D02*
X140325D01*
X125144Y14633D02*
X140325D01*
X125181Y14670D02*
X140287D01*
X125181Y14707D02*
X140287D01*
X125218Y14745D02*
X140287D01*
X125218Y14782D02*
X140250D01*
X125255Y14819D02*
X140250D01*
X125255Y14856D02*
X140213D01*
X125255Y14893D02*
X140213D01*
X125292Y14930D02*
X140176D01*
X125292Y14967D02*
X140176D01*
X125329Y15004D02*
X140176D01*
X125329Y15042D02*
X140139D01*
X125366Y15079D02*
X140139D01*
X125366Y15116D02*
X140102D01*
X125366Y15153D02*
X140102D01*
X125403Y15190D02*
X140065D01*
X125403Y15227D02*
X140065D01*
X125441Y15264D02*
X140065D01*
X125441Y15301D02*
X140028D01*
X125478Y15338D02*
X140028D01*
X125478Y15376D02*
X139991D01*
X125478Y15413D02*
X139991D01*
X125515Y15450D02*
X139953D01*
X125515Y15487D02*
X139953D01*
X125552Y15524D02*
X139953D01*
X125552Y15561D02*
X139916D01*
X125552Y15598D02*
X139916D01*
X125552Y15635D02*
X139916D01*
X125552Y15673D02*
X139953D01*
X125515Y15710D02*
X139953D01*
X125478Y15747D02*
X139991D01*
X125478Y15784D02*
X140028D01*
X125441Y15821D02*
X140028D01*
X125403Y15858D02*
X140065D01*
X125403Y15895D02*
X140102D01*
X125366Y15932D02*
X140102D01*
X125329Y15969D02*
X140139D01*
X125329Y16007D02*
X140176D01*
X125292Y16044D02*
X140176D01*
X125255Y16081D02*
X140213D01*
X125255Y16118D02*
X140250D01*
X125218Y16155D02*
X140250D01*
X125181Y16192D02*
X140287D01*
X125181Y16229D02*
X140325D01*
X125144Y16266D02*
X140325D01*
X125107Y16304D02*
X140362D01*
X125069Y16341D02*
X140399D01*
X125069Y16378D02*
X140399D01*
X125032Y16415D02*
X140436D01*
X124995Y16452D02*
X140473D01*
X124995Y16489D02*
X140510D01*
X124958Y16526D02*
X140510D01*
X124921Y16563D02*
X140547D01*
X124921Y16600D02*
X140584D01*
X124884Y16638D02*
X140584D01*
X124847Y16675D02*
X140622D01*
X124847Y16712D02*
X140659D01*
X124810Y16749D02*
X140659D01*
X124773Y16786D02*
X140696D01*
X124773Y16823D02*
X140733D01*
X124735Y16860D02*
X140733D01*
X124698Y16897D02*
X140770D01*
X124661Y16935D02*
X140807D01*
X124661Y16972D02*
X140807D01*
X124624Y17009D02*
X140844D01*
X124587Y17046D02*
X140881D01*
X124587Y17083D02*
X140919D01*
X124550Y17120D02*
X140919D01*
X124513Y17157D02*
X140956D01*
X124513Y17194D02*
X140993D01*
X124476Y17231D02*
X140993D01*
X124438Y17268D02*
X141030D01*
X124438Y17306D02*
X141067D01*
X124401Y17343D02*
X141067D01*
X124364Y17380D02*
X141104D01*
X124364Y17417D02*
X141141D01*
X124327Y17454D02*
X141141D01*
X124290Y17491D02*
X141178D01*
X124253Y17528D02*
X141215D01*
X124253Y17566D02*
X141215D01*
X124216Y17603D02*
X141253D01*
X124179Y17640D02*
X141290D01*
X124179Y17677D02*
X141327D01*
X124142Y17714D02*
X141327D01*
X124104Y17751D02*
X141364D01*
X124104Y17788D02*
X141401D01*
X124067Y17825D02*
X141401D01*
X124030Y17862D02*
X141438D01*
X124030Y17899D02*
X141475D01*
X123993Y17937D02*
X141475D01*
X123956Y17974D02*
X141512D01*
X123956Y18011D02*
X141550D01*
X123919Y18048D02*
X141550D01*
X123919Y18085D02*
X141550D01*
X123919Y18122D02*
X141550D01*
X123956Y18159D02*
X141550D01*
X123956Y18196D02*
X141512D01*
X123993Y18234D02*
X141475D01*
X124030Y18271D02*
X141438D01*
X124067Y18308D02*
X141401D01*
X124104Y18345D02*
X141364D01*
X124142Y18382D02*
X141327D01*
X124179Y18419D02*
X141290D01*
X124216Y18456D02*
X141253D01*
X124253Y18493D02*
X141215D01*
X124290Y18530D02*
X141178D01*
X136947Y18568D02*
X141141D01*
X128633D02*
X136836D01*
X124327D02*
X128558D01*
X137021Y18605D02*
X141104D01*
X128744D02*
X136761D01*
X124364D02*
X128484D01*
X137058Y18642D02*
X141067D01*
X128818D02*
X136650D01*
X124401D02*
X128410D01*
X137133Y18679D02*
X141030D01*
X128893D02*
X136576D01*
X124438D02*
X128373D01*
X137170Y18716D02*
X140993D01*
X129004D02*
X136464D01*
X124476D02*
X128299D01*
X137207Y18753D02*
X140956D01*
X129078D02*
X136390D01*
X124513D02*
X128261D01*
X137281Y18790D02*
X140919D01*
X129189D02*
X136279D01*
X124550D02*
X128187D01*
X137318Y18827D02*
X140881D01*
X129264D02*
X136205D01*
X124587D02*
X128150D01*
X137392Y18865D02*
X140844D01*
X129375D02*
X136130D01*
X124624D02*
X128076D01*
X137429Y18902D02*
X140807D01*
X129449D02*
X136019D01*
X124661D02*
X128039D01*
X137504Y18939D02*
X140770D01*
X129561D02*
X135945D01*
X124698D02*
X128002D01*
X137541Y18976D02*
X140733D01*
X129635D02*
X135833D01*
X124735D02*
X127927D01*
X137615Y19013D02*
X140696D01*
X129709D02*
X135759D01*
X124773D02*
X127890D01*
X137652Y19050D02*
X140659D01*
X129820D02*
X135648D01*
X124810D02*
X127816D01*
X137726Y19087D02*
X140622D01*
X129895D02*
X135574D01*
X124847D02*
X127779D01*
X137764Y19124D02*
X140584D01*
X130006D02*
X135462D01*
X124884D02*
X127705D01*
X137801Y19162D02*
X140547D01*
X130080D02*
X135388D01*
X124921D02*
X127668D01*
X137875Y19199D02*
X140510D01*
X130192D02*
X135314D01*
X124958D02*
X127593D01*
X137912Y19236D02*
X140473D01*
X130266D02*
X135202D01*
X124995D02*
X127556D01*
X137986Y19273D02*
X140436D01*
X130377D02*
X135128D01*
X125032D02*
X127482D01*
X138023Y19310D02*
X140399D01*
X130451D02*
X135017D01*
X125069D02*
X127445D01*
X138098Y19347D02*
X140362D01*
X130526D02*
X134943D01*
X125107D02*
X127408D01*
X138135Y19384D02*
X140325D01*
X130600D02*
X134868D01*
X125144D02*
X127334D01*
X138209Y19421D02*
X140287D01*
X130637D02*
X134831D01*
X125181D02*
X127296D01*
X138246Y19458D02*
X140250D01*
X130637D02*
X134831D01*
X125218D02*
X127222D01*
X138320Y19496D02*
X140213D01*
X130674D02*
X134794D01*
X125255D02*
X127185D01*
X138357Y19533D02*
X140176D01*
X130674D02*
X134794D01*
X125292D02*
X127111D01*
X138394Y19570D02*
X140139D01*
X130674D02*
X134794D01*
X125329D02*
X127074D01*
X138469Y19607D02*
X140102D01*
X130674D02*
X134794D01*
X125366D02*
X126999D01*
X138506Y19644D02*
X140065D01*
X130711D02*
X134794D01*
X125403D02*
X126962D01*
X138580Y19681D02*
X140028D01*
X130711D02*
X134757D01*
X125441D02*
X126888D01*
X138617Y19718D02*
X139991D01*
X130711D02*
X134757D01*
X125478D02*
X126851D01*
X138691Y19755D02*
X139953D01*
X130711D02*
X134757D01*
X125515D02*
X126777D01*
X138729Y19793D02*
X139916D01*
X130711D02*
X134757D01*
X125552D02*
X126740D01*
X138803Y19830D02*
X139879D01*
X130748D02*
X134757D01*
X125589D02*
X126703D01*
X138840Y19867D02*
X139842D01*
X130748D02*
X134757D01*
X125626D02*
X126628D01*
X138914Y19904D02*
X139805D01*
X130748D02*
X134720D01*
X125663D02*
X126591D01*
X138951Y19941D02*
X139768D01*
X130748D02*
X134720D01*
X125700D02*
X126517D01*
X139025Y19978D02*
X139731D01*
X130748D02*
X134720D01*
X125738D02*
X126480D01*
X139063Y20015D02*
X139694D01*
X130748D02*
X134720D01*
X125775D02*
X126406D01*
X139100Y20052D02*
X139656D01*
X130786D02*
X134720D01*
X125812D02*
X126368D01*
X139174Y20089D02*
X139619D01*
X130786D02*
X134683D01*
X125849D02*
X126294D01*
X139211Y20127D02*
X139582D01*
X130786D02*
X134683D01*
X125886D02*
X126257D01*
X139285Y20164D02*
X139545D01*
X130786D02*
X134683D01*
X125923D02*
X126183D01*
X139322Y20201D02*
X139508D01*
X130786D02*
X134683D01*
X125960D02*
X126146D01*
X130823Y20238D02*
X134683D01*
X130823Y20275D02*
X134646D01*
X130823Y20312D02*
X134646D01*
X130823Y20349D02*
X134646D01*
X130823Y20386D02*
X134646D01*
X130823Y20424D02*
X134646D01*
X130860Y20461D02*
X134646D01*
X130860Y20498D02*
X134609D01*
X130860Y20535D02*
X134609D01*
X130860Y20572D02*
X134609D01*
X130860Y20609D02*
X134609D01*
X130897Y20646D02*
X134609D01*
X130897Y20683D02*
X134571D01*
X130897Y20720D02*
X134571D01*
X130897Y20758D02*
X134571D01*
X130897Y20795D02*
X134571D01*
X130934Y20832D02*
X134571D01*
X130934Y20869D02*
X134571D01*
X130934Y20906D02*
X134534D01*
X130934Y20943D02*
X134534D01*
X130934Y20980D02*
X134534D01*
X130934Y21017D02*
X134534D01*
X130971Y21055D02*
X134534D01*
X130971Y21092D02*
X134497D01*
X130971Y21129D02*
X134497D01*
X130971Y21166D02*
X134497D01*
X130971Y21203D02*
X134497D01*
X131008Y21240D02*
X134497D01*
X131008Y21277D02*
X134460D01*
X131008Y21314D02*
X134460D01*
X131008Y21351D02*
X134460D01*
X131008Y21389D02*
X134460D01*
X131045Y21426D02*
X134460D01*
X131045Y21463D02*
X134460D01*
X131045Y21500D02*
X134423D01*
X131045Y21537D02*
X134423D01*
X131045Y21574D02*
X134423D01*
X131045Y21611D02*
X134423D01*
X131082Y21648D02*
X134423D01*
X131082Y21686D02*
X134386D01*
X131082Y21723D02*
X134386D01*
X131082Y21760D02*
X134386D01*
X131082Y21797D02*
X134386D01*
X131120Y21834D02*
X134386D01*
X131120Y21871D02*
X134349D01*
X131120Y21908D02*
X134349D01*
X131120Y21945D02*
X134349D01*
X131120Y21982D02*
X134349D01*
X131120Y22020D02*
X134349D01*
X131157Y22057D02*
X134349D01*
X131157Y22094D02*
X134312D01*
X131157Y22131D02*
X134312D01*
X131157Y22168D02*
X134312D01*
X131157Y22205D02*
X134312D01*
X131194Y22242D02*
X134312D01*
X131194Y22279D02*
X134274D01*
X131194Y22317D02*
X134274D01*
X131231Y22354D02*
X134274D01*
X131268Y22391D02*
X134200D01*
D14*
X302534Y135506D02*
X307259Y140231D01*
X297810Y135506D02*
X307259Y144955D01*
X293085Y135506D02*
X302534Y144955D01*
X288361Y135506D02*
X297810Y144955D01*
X283636Y135506D02*
X293085Y144955D01*
X278912Y135506D02*
X288361Y144955D01*
X274188Y135506D02*
X283636Y144955D01*
X269463Y135506D02*
X278912Y144955D01*
X264739Y135506D02*
X274188Y144955D01*
X260014Y135506D02*
X269463Y144955D01*
X255290Y135506D02*
X264739Y144955D01*
X250566Y135506D02*
X260014Y144955D01*
X245841Y135506D02*
X255290Y144955D01*
X241117Y135506D02*
X250566Y144955D01*
X236392Y135506D02*
X245841Y144955D01*
X231668Y135506D02*
X241117Y144955D01*
X226943Y135506D02*
X236392Y144955D01*
X222219Y135506D02*
X231668Y144955D01*
X219094Y137106D02*
X226943Y144955D01*
X219094Y141831D02*
X222219Y144955D01*
X302534D02*
X307259Y149680D01*
X297810Y144955D02*
X307259Y154404D01*
X293085Y144955D02*
X302534Y154404D01*
X288361Y144955D02*
X297810Y154404D01*
X283636Y144955D02*
X293085Y154404D01*
X278912Y144955D02*
X288361Y154404D01*
X274188Y144955D02*
X283636Y154404D01*
X269463Y144955D02*
X278912Y154404D01*
X264739Y144955D02*
X274188Y154404D01*
X260014Y144955D02*
X269463Y154404D01*
X255290Y144955D02*
X264739Y154404D01*
X250566Y144955D02*
X260014Y154404D01*
X245841Y144955D02*
X255290Y154404D01*
X241117Y144955D02*
X250566Y154404D01*
X236392Y144955D02*
X245841Y154404D01*
X231668Y144955D02*
X241117Y154404D01*
X226943Y144955D02*
X236392Y154404D01*
X222219Y144955D02*
X231668Y154404D01*
X219094Y146555D02*
X226943Y154404D01*
X219094Y151279D02*
X222219Y154404D01*
X302534D02*
X307259Y159129D01*
X297810Y154404D02*
X307259Y163853D01*
X293085Y154404D02*
X302534Y163853D01*
X288361Y154404D02*
X297810Y163853D01*
X283636Y154404D02*
X293085Y163853D01*
X278912Y154404D02*
X288361Y163853D01*
X274188Y154404D02*
X283636Y163853D01*
X269463Y154404D02*
X278912Y163853D01*
X264739Y154404D02*
X274188Y163853D01*
X260014Y154404D02*
X269463Y163853D01*
X255290Y154404D02*
X264739Y163853D01*
X250566Y154404D02*
X260014Y163853D01*
X245841Y154404D02*
X255290Y163853D01*
X241117Y154404D02*
X250566Y163853D01*
X236392Y154404D02*
X245841Y163853D01*
X231668Y154404D02*
X241117Y163853D01*
X226943Y154404D02*
X236392Y163853D01*
X222219Y154404D02*
X231668Y163853D01*
X219094Y156004D02*
X226943Y163853D01*
X219094Y160728D02*
X222219Y163853D01*
X302534D02*
X307259Y168577D01*
X297810Y163853D02*
X307259Y173302D01*
X293085Y163853D02*
X302534Y173302D01*
X288361Y163853D02*
X297810Y173302D01*
X283636Y163853D02*
X293085Y173302D01*
X278912Y163853D02*
X288361Y173302D01*
X274188Y163853D02*
X283636Y173302D01*
X269463Y163853D02*
X278912Y173302D01*
X264739Y163853D02*
X274188Y173302D01*
X260014Y163853D02*
X269463Y173302D01*
X255290Y163853D02*
X264739Y173302D01*
X250566Y163853D02*
X260014Y173302D01*
X245841Y163853D02*
X255290Y173302D01*
X241117Y163853D02*
X250566Y173302D01*
X236392Y163853D02*
X245841Y173302D01*
X231668Y163853D02*
X241117Y173302D01*
X226943Y163853D02*
X236392Y173302D01*
X222219Y163853D02*
X231668Y173302D01*
X219094Y165453D02*
X226943Y173302D01*
X219094Y170177D02*
X222219Y173302D01*
X302534D02*
X307259Y178026D01*
X297810Y173302D02*
X307259Y182751D01*
X293085Y173302D02*
X302534Y182751D01*
X288361Y173302D02*
X297810Y182751D01*
X283636Y173302D02*
X293085Y182751D01*
X278912Y173302D02*
X288361Y182751D01*
X274188Y173302D02*
X283636Y182751D01*
X269463Y173302D02*
X278912Y182751D01*
X264739Y173302D02*
X274188Y182751D01*
X260014Y173302D02*
X269463Y182751D01*
X255290Y173302D02*
X264739Y182751D01*
X250566Y173302D02*
X260014Y182751D01*
X245841Y173302D02*
X255290Y182751D01*
X241117Y173302D02*
X250566Y182751D01*
X236392Y173302D02*
X245841Y182751D01*
X231668Y173302D02*
X241117Y182751D01*
X226943Y173302D02*
X236392Y182751D01*
X222219Y173302D02*
X231668Y182751D01*
X219094Y174902D02*
X226943Y182751D01*
X219094Y179626D02*
X222219Y182751D01*
X302534D02*
X307259Y187475D01*
X297810Y182751D02*
X307259Y192199D01*
X293085Y182751D02*
X302534Y192199D01*
X288361Y182751D02*
X297810Y192199D01*
X283636Y182751D02*
X293085Y192199D01*
X278912Y182751D02*
X288361Y192199D01*
X274188Y182751D02*
X283636Y192199D01*
X269463Y182751D02*
X278912Y192199D01*
X264739Y182751D02*
X274188Y192199D01*
X260014Y182751D02*
X269463Y192199D01*
X255290Y182751D02*
X264739Y192199D01*
X250566Y182751D02*
X260014Y192199D01*
X245841Y182751D02*
X255290Y192199D01*
X241117Y182751D02*
X250566Y192199D01*
X236392Y182751D02*
X245841Y192199D01*
X231668Y182751D02*
X241117Y192199D01*
X226943Y182751D02*
X236392Y192199D01*
X222219Y182751D02*
X231668Y192199D01*
X219094Y184350D02*
X226943Y192199D01*
X219094Y189075D02*
X222219Y192199D01*
X302534D02*
X307259Y196924D01*
X297810Y192199D02*
X307259Y201648D01*
X293085Y192199D02*
X302534Y201648D01*
X288361Y192199D02*
X297810Y201648D01*
X283636Y192199D02*
X293085Y201648D01*
X278912Y192199D02*
X288361Y201648D01*
X274188Y192199D02*
X283636Y201648D01*
X269463Y192199D02*
X278912Y201648D01*
X264739Y192199D02*
X274188Y201648D01*
X260014Y192199D02*
X269463Y201648D01*
X255290Y192199D02*
X264739Y201648D01*
X250566Y192199D02*
X260014Y201648D01*
X245841Y192199D02*
X255290Y201648D01*
X241117Y192199D02*
X250566Y201648D01*
X236392Y192199D02*
X245841Y201648D01*
X231668Y192199D02*
X241117Y201648D01*
X226943Y192199D02*
X236392Y201648D01*
X222219Y192199D02*
X231668Y201648D01*
X219094Y193799D02*
X226943Y201648D01*
X219094Y198524D02*
X222219Y201648D01*
D15*
X154134Y-70196D02*
Y-77756D01*
X159174D01*
X162954Y-72716D02*
X165474D01*
X166734Y-73976D01*
Y-77756D01*
X162954D01*
X161694Y-76496D01*
X162954Y-75236D01*
X166734D01*
X169254Y-72716D02*
Y-76496D01*
X170514Y-77756D01*
X174294D01*
Y-79016D01*
X173034Y-80276D01*
X171774D01*
X174294Y-77756D02*
Y-72716D01*
X180594Y-77756D02*
X178074D01*
X176814Y-76496D01*
Y-73976D01*
X178074Y-72716D01*
X180594D01*
X181854Y-73976D01*
Y-75236D01*
X176814D01*
X184374Y-72716D02*
Y-77756D01*
Y-75236D01*
X185634Y-73976D01*
X186894Y-72716D01*
X188154D01*
X191934Y-77756D02*
X195714D01*
X196974Y-76496D01*
X195714Y-75236D01*
X193194D01*
X191934Y-73976D01*
X193194Y-72716D01*
X196974D01*
X199494D02*
X200754D01*
Y-73976D01*
X199494D01*
Y-72716D01*
Y-76496D02*
X200754D01*
Y-77756D01*
X199494D01*
Y-76496D01*
X213354Y-71456D02*
X214614Y-70196D01*
X217134D01*
X218394Y-71456D01*
Y-76496D01*
X217134Y-77756D01*
X214614D01*
X213354Y-76496D01*
Y-71456D01*
X225954Y-77756D02*
X220914D01*
X225954Y-72716D01*
Y-71456D01*
X224694Y-70196D01*
X222174D01*
X220914Y-71456D01*
X-8111Y-70140D02*
Y-77700D01*
X-4332D01*
X-3071Y-76440D01*
Y-75180D01*
X-4332Y-73920D01*
X-8111D01*
X-4332D01*
X-3071Y-72660D01*
Y-71400D01*
X-4332Y-70140D01*
X-8111D01*
X709Y-77700D02*
X3229D01*
X4489Y-76440D01*
Y-73920D01*
X3229Y-72660D01*
X709D01*
X-551Y-73920D01*
Y-76440D01*
X709Y-77700D01*
X8269Y-72660D02*
X10789D01*
X12049Y-73920D01*
Y-77700D01*
X8269D01*
X7009Y-76440D01*
X8269Y-75180D01*
X12049D01*
X14569Y-72660D02*
Y-77700D01*
Y-75180D01*
X15829Y-73920D01*
X17089Y-72660D01*
X18349D01*
X27169Y-70140D02*
Y-77700D01*
X23389D01*
X22129Y-76440D01*
Y-73920D01*
X23389Y-72660D01*
X27169D01*
X37249Y-70140D02*
X42289D01*
X39769D01*
Y-77700D01*
X44809Y-70140D02*
Y-77700D01*
Y-73920D01*
X46069Y-72660D01*
X48589D01*
X49849Y-73920D01*
Y-77700D01*
X52369D02*
X54889D01*
X53629D01*
Y-72660D01*
X52369D01*
X63709D02*
X59929D01*
X58669Y-73920D01*
Y-76440D01*
X59929Y-77700D01*
X63709D01*
X66229D02*
Y-70140D01*
Y-75180D02*
X70009Y-72660D01*
X66229Y-75180D02*
X70009Y-77700D01*
X73789D02*
Y-72660D01*
X77569D01*
X78829Y-73920D01*
Y-77700D01*
X85129D02*
X82609D01*
X81349Y-76440D01*
Y-73920D01*
X82609Y-72660D01*
X85129D01*
X86389Y-73920D01*
Y-75180D01*
X81349D01*
X88909Y-77700D02*
X92689D01*
X93949Y-76440D01*
X92689Y-75180D01*
X90169D01*
X88909Y-73920D01*
X90169Y-72660D01*
X93949D01*
X96469Y-77700D02*
X100249D01*
X101509Y-76440D01*
X100249Y-75180D01*
X97729D01*
X96469Y-73920D01*
X97729Y-72660D01*
X101509D01*
X104029D02*
X105289D01*
Y-73920D01*
X104029D01*
Y-72660D01*
Y-76440D02*
X105289D01*
Y-77700D01*
X104029D01*
Y-76440D01*
X158387Y-52066D02*
X157126Y-50806D01*
X154606D01*
X153347Y-52066D01*
Y-53326D01*
X154606Y-54586D01*
X157126D01*
X158387Y-55846D01*
Y-57106D01*
X157126Y-58366D01*
X154606D01*
X153347Y-57106D01*
X160907Y-58366D02*
X163426D01*
X162167D01*
Y-53326D01*
X160907D01*
X167207Y-58366D02*
X169727D01*
X168467D01*
Y-50806D01*
X167207D01*
X173507Y-58366D02*
Y-50806D01*
Y-55846D02*
X177287Y-53326D01*
X173507Y-55846D02*
X177287Y-58366D01*
X181067D02*
X184847D01*
X186107Y-57106D01*
X184847Y-55846D01*
X182327D01*
X181067Y-54586D01*
X182327Y-53326D01*
X186107D01*
X193667D02*
X189887D01*
X188627Y-54586D01*
Y-57106D01*
X189887Y-58366D01*
X193667D01*
X196187Y-53326D02*
Y-58366D01*
Y-55846D01*
X197447Y-54586D01*
X198707Y-53326D01*
X199967D01*
X207527Y-58366D02*
X205007D01*
X203747Y-57106D01*
Y-54586D01*
X205007Y-53326D01*
X207527D01*
X208787Y-54586D01*
Y-55846D01*
X203747D01*
X215087Y-58366D02*
X212567D01*
X211307Y-57106D01*
Y-54586D01*
X212567Y-53326D01*
X215087D01*
X216347Y-54586D01*
Y-55846D01*
X211307D01*
X218867Y-58366D02*
Y-53326D01*
X222647D01*
X223907Y-54586D01*
Y-58366D01*
X239027Y-53326D02*
X235247D01*
X233987Y-54586D01*
Y-57106D01*
X235247Y-58366D01*
X239027D01*
X242807D02*
X245327D01*
X246587Y-57106D01*
Y-54586D01*
X245327Y-53326D01*
X242807D01*
X241547Y-54586D01*
Y-57106D01*
X242807Y-58366D01*
X249107D02*
X251627D01*
X250367D01*
Y-50806D01*
X249107D01*
X256667Y-58366D02*
X259187D01*
X260447Y-57106D01*
Y-54586D01*
X259187Y-53326D01*
X256667D01*
X255407Y-54586D01*
Y-57106D01*
X256667Y-58366D01*
X262967Y-53326D02*
Y-58366D01*
Y-55846D01*
X264227Y-54586D01*
X265487Y-53326D01*
X266747D01*
X270527D02*
X271787D01*
Y-54586D01*
X270527D01*
Y-53326D01*
Y-57106D02*
X271787D01*
Y-58366D01*
X270527D01*
Y-57106D01*
X284387Y-53326D02*
Y-57106D01*
X285648Y-58366D01*
X286908Y-57106D01*
X288168Y-58366D01*
X289428Y-57106D01*
Y-53326D01*
X291948Y-50806D02*
Y-58366D01*
Y-54586D01*
X293208Y-53326D01*
X295728D01*
X296988Y-54586D01*
Y-58366D01*
X299508D02*
X302028D01*
X300768D01*
Y-53326D01*
X299508D01*
X307068Y-52066D02*
Y-53326D01*
X305808D01*
X308328D01*
X307068D01*
Y-57106D01*
X308328Y-58366D01*
X315888D02*
X313368D01*
X312108Y-57106D01*
Y-54586D01*
X313368Y-53326D01*
X315888D01*
X317148Y-54586D01*
Y-55846D01*
X312108D01*
X155118Y-88011D02*
Y-95571D01*
X158898D01*
X160158Y-94311D01*
Y-89271D01*
X158898Y-88011D01*
X155118D01*
X162678Y-90531D02*
Y-95571D01*
Y-93051D01*
X163938Y-91791D01*
X165198Y-90531D01*
X166458D01*
X171498D02*
X174018D01*
X175278Y-91791D01*
Y-95571D01*
X171498D01*
X170238Y-94311D01*
X171498Y-93051D01*
X175278D01*
X177798Y-90531D02*
Y-94311D01*
X179058Y-95571D01*
X180318Y-94311D01*
X181578Y-95571D01*
X182838Y-94311D01*
Y-90531D01*
X185358Y-95571D02*
X187878D01*
X186618D01*
Y-90531D01*
X185358D01*
X191658Y-95571D02*
Y-90531D01*
X195438D01*
X196698Y-91791D01*
Y-95571D01*
X201739Y-98091D02*
X202998D01*
X204258Y-96831D01*
Y-90531D01*
X200479D01*
X199218Y-91791D01*
Y-94311D01*
X200479Y-95571D01*
X204258D01*
X206779Y-90531D02*
X208038D01*
Y-91791D01*
X206779D01*
Y-90531D01*
Y-94311D02*
X208038D01*
Y-95571D01*
X206779D01*
Y-94311D01*
X-6832Y-58950D02*
Y-51390D01*
X-4312Y-53910D01*
X-1792Y-51390D01*
Y-58950D01*
X728D02*
Y-53910D01*
X3248Y-51390D01*
X5768Y-53910D01*
Y-58950D01*
Y-55170D01*
X728D01*
X8288Y-51390D02*
X13328D01*
X10808D01*
Y-58950D01*
X20888Y-51390D02*
X15848D01*
Y-58950D01*
X20888D01*
X15848Y-55170D02*
X18368D01*
X23408Y-58950D02*
Y-51390D01*
X27188D01*
X28448Y-52650D01*
Y-55170D01*
X27188Y-56430D01*
X23408D01*
X25928D02*
X28448Y-58950D01*
X30968Y-51390D02*
X33488D01*
X32228D01*
Y-58950D01*
X30968D01*
X33488D01*
X37268D02*
Y-53910D01*
X39788Y-51390D01*
X42308Y-53910D01*
Y-58950D01*
Y-55170D01*
X37268D01*
X44828Y-51390D02*
Y-58950D01*
X49868D01*
X52388Y-53910D02*
X53649D01*
Y-55170D01*
X52388D01*
Y-53910D01*
Y-57690D02*
X53649D01*
Y-58950D01*
X52388D01*
Y-57690D01*
X407185Y-30137D02*
Y-37697D01*
X410965D01*
X412225Y-36437D01*
Y-31397D01*
X410965Y-30137D01*
X407185D01*
X414745Y-37697D02*
Y-32657D01*
X417265Y-30137D01*
X419785Y-32657D01*
Y-37697D01*
Y-33917D01*
X414745D01*
X422305Y-30137D02*
X427345D01*
X424825D01*
Y-37697D01*
X434905Y-30137D02*
X429865D01*
Y-37697D01*
X434905D01*
X429865Y-33917D02*
X432385D01*
X437425Y-32657D02*
X438685D01*
Y-33917D01*
X437425D01*
Y-32657D01*
Y-36437D02*
X438685D01*
Y-37697D01*
X437425D01*
Y-36437D01*
X338386Y-38929D02*
Y-29432D01*
X343134D01*
X344717Y-31015D01*
Y-34180D01*
X343134Y-35763D01*
X338386D01*
X341551D02*
X344717Y-38929D01*
X354214Y-29432D02*
X347883D01*
Y-38929D01*
X354214D01*
X347883Y-34180D02*
X351048D01*
X357380Y-29432D02*
Y-35763D01*
X360545Y-38929D01*
X363711Y-35763D01*
Y-29432D01*
X366877Y-32598D02*
X368460D01*
Y-34180D01*
X366877D01*
Y-32598D01*
Y-37346D02*
X368460D01*
Y-38929D01*
X366877D01*
Y-37346D01*
X-8858Y-97047D02*
Y-89487D01*
X-5078D01*
X-3818Y-90747D01*
Y-93267D01*
X-5078Y-94527D01*
X-8858D01*
X3742Y-90747D02*
X2482Y-89487D01*
X-38D01*
X-1298Y-90747D01*
Y-95787D01*
X-38Y-97047D01*
X2482D01*
X3742Y-95787D01*
X6262Y-89487D02*
Y-97047D01*
X10042D01*
X11302Y-95787D01*
Y-94527D01*
X10042Y-93267D01*
X6262D01*
X10042D01*
X11302Y-92007D01*
Y-90747D01*
X10042Y-89487D01*
X6262D01*
X26422Y-90747D02*
X25162Y-89487D01*
X22642D01*
X21382Y-90747D01*
Y-92007D01*
X22642Y-93267D01*
X25162D01*
X26422Y-94527D01*
Y-95787D01*
X25162Y-97047D01*
X22642D01*
X21382Y-95787D01*
X28942Y-92007D02*
Y-95787D01*
X30202Y-97047D01*
X33982D01*
Y-92007D01*
X36502D02*
Y-97047D01*
Y-94527D01*
X37762Y-93267D01*
X39022Y-92007D01*
X40282D01*
X45322Y-97047D02*
Y-90747D01*
Y-93267D01*
X44062D01*
X46582D01*
X45322D01*
Y-90747D01*
X46582Y-89487D01*
X51622Y-92007D02*
X54142D01*
X55402Y-93267D01*
Y-97047D01*
X51622D01*
X50362Y-95787D01*
X51622Y-94527D01*
X55402D01*
X62962Y-92007D02*
X59182D01*
X57922Y-93267D01*
Y-95787D01*
X59182Y-97047D01*
X62962D01*
X69262D02*
X66742D01*
X65482Y-95787D01*
Y-93267D01*
X66742Y-92007D01*
X69262D01*
X70522Y-93267D01*
Y-94527D01*
X65482D01*
X73042Y-92007D02*
X74302D01*
Y-93267D01*
X73042D01*
Y-92007D01*
Y-95787D02*
X74302D01*
Y-97047D01*
X73042D01*
Y-95787D01*
X337500Y-59055D02*
Y-51495D01*
X341280D01*
X342540Y-52755D01*
Y-55275D01*
X341280Y-56535D01*
X337500D01*
X345060Y-54015D02*
Y-59055D01*
Y-56535D01*
X346320Y-55275D01*
X347580Y-54015D01*
X348840D01*
X353880Y-59055D02*
X356400D01*
X357660Y-57795D01*
Y-55275D01*
X356400Y-54015D01*
X353880D01*
X352620Y-55275D01*
Y-57795D01*
X353880Y-59055D01*
X360180Y-61575D02*
X361440D01*
X362700Y-60315D01*
Y-54015D01*
X371520Y-59055D02*
X369000D01*
X367740Y-57795D01*
Y-55275D01*
X369000Y-54015D01*
X371520D01*
X372780Y-55275D01*
Y-56535D01*
X367740D01*
X380340Y-54015D02*
X376560D01*
X375300Y-55275D01*
Y-57795D01*
X376560Y-59055D01*
X380340D01*
X384120Y-52755D02*
Y-54015D01*
X382860D01*
X385380D01*
X384120D01*
Y-57795D01*
X385380Y-59055D01*
X389160Y-54015D02*
X390420D01*
Y-55275D01*
X389160D01*
Y-54015D01*
Y-57795D02*
X390420D01*
Y-59055D01*
X389160D01*
Y-57795D01*
X403020Y-51495D02*
X405541D01*
X404281D01*
Y-59055D01*
X403020D01*
X405541D01*
X409321Y-51495D02*
X411841D01*
X410581D01*
Y-59055D01*
X409321D01*
X411841D01*
X415621D02*
Y-51495D01*
X419401D01*
X420661Y-52755D01*
Y-55275D01*
X419401Y-56535D01*
X415621D01*
D16*
X-6201Y-29621D02*
X464D01*
X-2868D01*
Y-39618D01*
X3796Y-29621D02*
X7128D01*
X5462D01*
Y-39618D01*
X3796D01*
X7128D01*
X12127Y-29621D02*
X18791D01*
X15459D01*
Y-39618D01*
X22123Y-29621D02*
Y-39618D01*
X28788D01*
X38785Y-29621D02*
X32120D01*
Y-39618D01*
X38785D01*
X32120Y-34619D02*
X35452D01*
X42117Y-32953D02*
X43783D01*
Y-34619D01*
X42117D01*
Y-32953D01*
Y-37952D02*
X43783D01*
Y-39618D01*
X42117D01*
Y-37952D01*
X60444Y-29621D02*
X63777D01*
X62111D01*
Y-39618D01*
X60444D01*
X63777D01*
X68775Y-29621D02*
X72107D01*
X70441D01*
Y-39618D01*
X68775D01*
X72107D01*
X77106D02*
Y-29621D01*
X82104D01*
X83770Y-31287D01*
Y-34619D01*
X82104Y-36285D01*
X77106D01*
X97099Y-39618D02*
Y-29621D01*
X103764Y-39618D01*
Y-29621D01*
X107096Y-39618D02*
Y-37952D01*
X108762D01*
Y-39618D01*
X107096D01*
X122091D02*
X115427D01*
X122091Y-32953D01*
Y-31287D01*
X120425Y-29621D01*
X117093D01*
X115427Y-31287D01*
X135420Y-29621D02*
Y-39618D01*
X140419D01*
X142085Y-37952D01*
Y-36285D01*
X140419Y-34619D01*
X135420D01*
X140419D01*
X142085Y-32953D01*
Y-31287D01*
X140419Y-29621D01*
X135420D01*
X150415D02*
X147083D01*
X145417Y-31287D01*
Y-37952D01*
X147083Y-39618D01*
X150415D01*
X152081Y-37952D01*
Y-31287D01*
X150415Y-29621D01*
X155414Y-39618D02*
Y-32953D01*
X158746Y-29621D01*
X162078Y-32953D01*
Y-39618D01*
Y-34619D01*
X155414D01*
X165410Y-39618D02*
Y-29621D01*
X170409D01*
X172075Y-31287D01*
Y-34619D01*
X170409Y-36285D01*
X165410D01*
X168743D02*
X172075Y-39618D01*
X175407Y-29621D02*
Y-39618D01*
X180406D01*
X182072Y-37952D01*
Y-31287D01*
X180406Y-29621D01*
X175407D01*
X195401Y-39618D02*
Y-29621D01*
X200399D01*
X202065Y-31287D01*
Y-34619D01*
X200399Y-36285D01*
X195401D01*
X198733D02*
X202065Y-39618D01*
X205398Y-29621D02*
Y-39618D01*
X210396D01*
X212062Y-37952D01*
Y-36285D01*
X210396Y-34619D01*
X205398D01*
X210396D01*
X212062Y-32953D01*
Y-31287D01*
X210396Y-29621D01*
X205398D01*
X222059D02*
X215394D01*
Y-34619D01*
X218726D01*
X215394D01*
Y-39618D01*
D17*
X338418Y-90782D02*
X337499Y-89864D01*
X335662D01*
X334744Y-90782D01*
Y-91701D01*
X335662Y-92619D01*
X337499D01*
X338418Y-93537D01*
Y-94456D01*
X337499Y-95374D01*
X335662D01*
X334744Y-94456D01*
X340254Y-97211D02*
Y-91701D01*
X343009D01*
X343928Y-92619D01*
Y-94456D01*
X343009Y-95374D01*
X340254D01*
X346683Y-91701D02*
X348519D01*
X349437Y-92619D01*
Y-95374D01*
X346683D01*
X345764Y-94456D01*
X346683Y-93537D01*
X349437D01*
X354948Y-91701D02*
X352192D01*
X351274Y-92619D01*
Y-94456D01*
X352192Y-95374D01*
X354948D01*
X359539D02*
X357703D01*
X356784Y-94456D01*
Y-92619D01*
X357703Y-91701D01*
X359539D01*
X360458Y-92619D01*
Y-93537D01*
X356784D01*
X362294Y-89864D02*
Y-95374D01*
X365968D01*
X368723Y-91701D02*
X370559D01*
X371478Y-92619D01*
Y-95374D01*
X368723D01*
X367804Y-94456D01*
X368723Y-93537D01*
X371478D01*
X373314Y-89864D02*
Y-95374D01*
X376069D01*
X376988Y-94456D01*
Y-93537D01*
Y-92619D01*
X376069Y-91701D01*
X373314D01*
X384334Y-89864D02*
Y-94456D01*
X385253Y-95374D01*
X387089D01*
X388008Y-94456D01*
Y-89864D01*
X393518D02*
X389844D01*
Y-92619D01*
X391681D01*
X389844D01*
Y-95374D01*
X399028Y-90782D02*
X398110Y-89864D01*
X396273D01*
X395354Y-90782D01*
Y-91701D01*
X396273Y-92619D01*
X398110D01*
X399028Y-93537D01*
Y-94456D01*
X398110Y-95374D01*
X396273D01*
X395354Y-94456D01*
X404538Y-90782D02*
X403619Y-89864D01*
X401783D01*
X400865Y-90782D01*
Y-94456D01*
X401783Y-95374D01*
X403619D01*
X404538Y-94456D01*
M02*
