G04*
G04 #@! TF.GenerationSoftware,Altium Limited,Altium Designer,20.2.6 (244)*
G04*
G04 Layer_Color=2752767*
%FSLAX25Y25*%
%MOIN*%
G70*
G04*
G04 #@! TF.SameCoordinates,BC087348-C804-4798-9038-869343D915B4*
G04*
G04*
G04 #@! TF.FilePolarity,Positive*
G04*
G01*
G75*
%ADD10C,0.00787*%
%ADD11C,0.01000*%
%ADD14C,0.00100*%
%ADD15C,0.01378*%
%ADD16C,0.01575*%
%ADD17C,0.01299*%
%ADD37C,0.01181*%
%ADD40C,0.00200*%
%ADD41C,0.01260*%
D10*
X0Y12067D02*
G03*
X12067Y0I12067J0D01*
G01*
X253681D02*
G03*
X265748Y12067I0J12067D01*
G01*
Y98264D02*
G03*
X253776Y110236I-11972J0D01*
G01*
X12359D02*
G03*
X0Y97877I0J-12359D01*
G01*
Y12067D02*
Y54331D01*
X12067Y0D02*
X253681D01*
X265748Y12067D02*
Y98264D01*
X12359Y110236D02*
X253776D01*
X0Y54331D02*
Y97877D01*
X-50128Y201648D02*
X307259D01*
X-50128Y211097D02*
X307259D01*
X-50128Y135506D02*
Y211097D01*
Y135506D02*
X-17851D01*
X-50128Y144955D02*
X-17851D01*
X-50128Y154404D02*
X-17851D01*
X-50128Y163853D02*
X-17851D01*
X-50128Y173302D02*
X-17851D01*
X-50128Y182751D02*
X-17851D01*
X-50128Y192199D02*
X-17851D01*
Y135506D02*
Y211097D01*
Y135506D02*
X55357D01*
X-17851Y144955D02*
X55357D01*
X-17851Y154404D02*
X55357D01*
X-17851Y163853D02*
X55357D01*
X-17851Y173302D02*
X55357D01*
X-17851Y182751D02*
X55357D01*
X-17851Y192199D02*
X55357D01*
Y135506D02*
Y211097D01*
Y135506D02*
X123055D01*
X55357Y144955D02*
X123055D01*
X55357Y154404D02*
X123055D01*
X55357Y163853D02*
X123055D01*
X55357Y173302D02*
X123055D01*
X55357Y182751D02*
X123055D01*
X55357Y192199D02*
X123055D01*
Y135506D02*
Y211097D01*
Y135506D02*
X174224D01*
X123055Y144955D02*
X174224D01*
X123055Y154404D02*
X174224D01*
X123055Y163853D02*
X174224D01*
X123055Y173302D02*
X174224D01*
X123055Y182751D02*
X174224D01*
X123055Y192199D02*
X174224D01*
Y135506D02*
Y211097D01*
Y135506D02*
X219094D01*
X174224Y144955D02*
X219094D01*
X174224Y154404D02*
X219094D01*
X174224Y163853D02*
X219094D01*
X174224Y173302D02*
X219094D01*
X174224Y182751D02*
X219094D01*
X174224Y192199D02*
X219094D01*
Y135506D02*
Y211097D01*
Y135506D02*
X307259D01*
X219094Y144955D02*
X307259D01*
X219094Y154404D02*
X307259D01*
X219094Y163853D02*
X307259D01*
X219094Y173302D02*
X307259D01*
X219094Y182751D02*
X307259D01*
X219094Y192199D02*
X307259D01*
Y135506D02*
Y211097D01*
X-44616Y208733D02*
Y204010D01*
X-41467D01*
X-39106Y207159D02*
X-37531D01*
X-36744Y206372D01*
Y204010D01*
X-39106D01*
X-39893Y204798D01*
X-39106Y205585D01*
X-36744D01*
X-35170Y207159D02*
Y204798D01*
X-34383Y204010D01*
X-32021D01*
Y203223D01*
X-32809Y202436D01*
X-33596D01*
X-32021Y204010D02*
Y207159D01*
X-28086Y204010D02*
X-29660D01*
X-30447Y204798D01*
Y206372D01*
X-29660Y207159D01*
X-28086D01*
X-27299Y206372D01*
Y205585D01*
X-30447D01*
X-25724Y207159D02*
Y204010D01*
Y205585D01*
X-24937Y206372D01*
X-24150Y207159D01*
X-23363D01*
X-41467Y156766D02*
X-44616D01*
X-41467Y159915D01*
Y160702D01*
X-42254Y161489D01*
X-43829D01*
X-44616Y160702D01*
Y175664D02*
X-43041D01*
X-43829D01*
Y180387D01*
X-44616Y179600D01*
X-12339Y204010D02*
Y208733D01*
X-9191Y204010D01*
Y208733D01*
X-6829Y207159D02*
X-5255D01*
X-4468Y206372D01*
Y204010D01*
X-6829D01*
X-7616Y204798D01*
X-6829Y205585D01*
X-4468D01*
X-2893Y204010D02*
Y207159D01*
X-2106D01*
X-1319Y206372D01*
Y204010D01*
Y206372D01*
X-532Y207159D01*
X255Y206372D01*
Y204010D01*
X4191D02*
X2617D01*
X1829Y204798D01*
Y206372D01*
X2617Y207159D01*
X4191D01*
X4978Y206372D01*
Y205585D01*
X1829D01*
X-12339Y142592D02*
Y137869D01*
X-9978D01*
X-9191Y138656D01*
Y139443D01*
X-9978Y140230D01*
X-12339D01*
X-9978D01*
X-9191Y141017D01*
Y141805D01*
X-9978Y142592D01*
X-12339D01*
X-6829Y137869D02*
X-5255D01*
X-4468Y138656D01*
Y140230D01*
X-5255Y141017D01*
X-6829D01*
X-7616Y140230D01*
Y138656D01*
X-6829Y137869D01*
X-2106Y141805D02*
Y141017D01*
X-2893D01*
X-1319D01*
X-2106D01*
Y138656D01*
X-1319Y137869D01*
X1829Y141805D02*
Y141017D01*
X1042D01*
X2617D01*
X1829D01*
Y138656D01*
X2617Y137869D01*
X5765D02*
X7339D01*
X8127Y138656D01*
Y140230D01*
X7339Y141017D01*
X5765D01*
X4978Y140230D01*
Y138656D01*
X5765Y137869D01*
X9701D02*
Y141017D01*
X10488D01*
X11275Y140230D01*
Y137869D01*
Y140230D01*
X12062Y141017D01*
X12849Y140230D01*
Y137869D01*
X21508Y142592D02*
X19934D01*
X19147Y141805D01*
Y138656D01*
X19934Y137869D01*
X21508D01*
X22295Y138656D01*
Y141805D01*
X21508Y142592D01*
X23870Y141017D02*
X25444Y137869D01*
X27018Y141017D01*
X30954Y137869D02*
X29380D01*
X28593Y138656D01*
Y140230D01*
X29380Y141017D01*
X30954D01*
X31741Y140230D01*
Y139443D01*
X28593D01*
X33315Y141017D02*
Y137869D01*
Y139443D01*
X34102Y140230D01*
X34890Y141017D01*
X35677D01*
X38038Y137869D02*
X39612D01*
X38825D01*
Y142592D01*
X38038D01*
X42761Y141017D02*
X44335D01*
X45123Y140230D01*
Y137869D01*
X42761D01*
X41974Y138656D01*
X42761Y139443D01*
X45123D01*
X46697Y141017D02*
Y138656D01*
X47484Y137869D01*
X49845D01*
Y137082D01*
X49058Y136294D01*
X48271D01*
X49845Y137869D02*
Y141017D01*
X-12339Y152040D02*
Y147318D01*
X-9978D01*
X-9191Y148105D01*
Y148892D01*
X-9978Y149679D01*
X-12339D01*
X-9978D01*
X-9191Y150466D01*
Y151253D01*
X-9978Y152040D01*
X-12339D01*
X-6829Y147318D02*
X-5255D01*
X-4468Y148105D01*
Y149679D01*
X-5255Y150466D01*
X-6829D01*
X-7616Y149679D01*
Y148105D01*
X-6829Y147318D01*
X-2106Y151253D02*
Y150466D01*
X-2893D01*
X-1319D01*
X-2106D01*
Y148105D01*
X-1319Y147318D01*
X1829Y151253D02*
Y150466D01*
X1042D01*
X2617D01*
X1829D01*
Y148105D01*
X2617Y147318D01*
X5765D02*
X7339D01*
X8127Y148105D01*
Y149679D01*
X7339Y150466D01*
X5765D01*
X4978Y149679D01*
Y148105D01*
X5765Y147318D01*
X9701D02*
Y150466D01*
X10488D01*
X11275Y149679D01*
Y147318D01*
Y149679D01*
X12062Y150466D01*
X12849Y149679D01*
Y147318D01*
X22295Y151253D02*
X21508Y152040D01*
X19934D01*
X19147Y151253D01*
Y150466D01*
X19934Y149679D01*
X21508D01*
X22295Y148892D01*
Y148105D01*
X21508Y147318D01*
X19934D01*
X19147Y148105D01*
X24657Y147318D02*
X26231D01*
X27018Y148105D01*
Y149679D01*
X26231Y150466D01*
X24657D01*
X23870Y149679D01*
Y148105D01*
X24657Y147318D01*
X28593D02*
X30167D01*
X29380D01*
Y152040D01*
X28593D01*
X35677D02*
Y147318D01*
X33315D01*
X32528Y148105D01*
Y149679D01*
X33315Y150466D01*
X35677D01*
X39612Y147318D02*
X38038D01*
X37251Y148105D01*
Y149679D01*
X38038Y150466D01*
X39612D01*
X40400Y149679D01*
Y148892D01*
X37251D01*
X41974Y150466D02*
Y147318D01*
Y148892D01*
X42761Y149679D01*
X43548Y150466D01*
X44335D01*
X-12339Y161489D02*
Y156766D01*
X-9978D01*
X-9191Y157554D01*
Y158341D01*
X-9978Y159128D01*
X-12339D01*
X-9978D01*
X-9191Y159915D01*
Y160702D01*
X-9978Y161489D01*
X-12339D01*
X-6829Y156766D02*
X-5255D01*
X-4468Y157554D01*
Y159128D01*
X-5255Y159915D01*
X-6829D01*
X-7616Y159128D01*
Y157554D01*
X-6829Y156766D01*
X-2106Y160702D02*
Y159915D01*
X-2893D01*
X-1319D01*
X-2106D01*
Y157554D01*
X-1319Y156766D01*
X1829Y160702D02*
Y159915D01*
X1042D01*
X2617D01*
X1829D01*
Y157554D01*
X2617Y156766D01*
X5765D02*
X7339D01*
X8127Y157554D01*
Y159128D01*
X7339Y159915D01*
X5765D01*
X4978Y159128D01*
Y157554D01*
X5765Y156766D01*
X9701D02*
Y159915D01*
X10488D01*
X11275Y159128D01*
Y156766D01*
Y159128D01*
X12062Y159915D01*
X12849Y159128D01*
Y156766D01*
X19147Y161489D02*
Y156766D01*
X22295D01*
X24657Y159915D02*
X26231D01*
X27018Y159128D01*
Y156766D01*
X24657D01*
X23870Y157554D01*
X24657Y158341D01*
X27018D01*
X28593Y159915D02*
Y157554D01*
X29380Y156766D01*
X31741D01*
Y155979D01*
X30954Y155192D01*
X30167D01*
X31741Y156766D02*
Y159915D01*
X35677Y156766D02*
X34102D01*
X33315Y157554D01*
Y159128D01*
X34102Y159915D01*
X35677D01*
X36464Y159128D01*
Y158341D01*
X33315D01*
X38038Y159915D02*
Y156766D01*
Y158341D01*
X38825Y159128D01*
X39612Y159915D01*
X40400D01*
X-12339Y170938D02*
Y166215D01*
X-9978D01*
X-9191Y167002D01*
Y170151D01*
X-9978Y170938D01*
X-12339D01*
X-7616Y166215D02*
X-6042D01*
X-6829D01*
Y169364D01*
X-7616D01*
X-1319Y166215D02*
X-2893D01*
X-3681Y167002D01*
Y168577D01*
X-2893Y169364D01*
X-1319D01*
X-532Y168577D01*
Y167789D01*
X-3681D01*
X1042Y166215D02*
X2617D01*
X1829D01*
Y170938D01*
X1042D01*
X7339Y166215D02*
X5765D01*
X4978Y167002D01*
Y168577D01*
X5765Y169364D01*
X7339D01*
X8127Y168577D01*
Y167789D01*
X4978D01*
X12849Y169364D02*
X10488D01*
X9701Y168577D01*
Y167002D01*
X10488Y166215D01*
X12849D01*
X15211Y170151D02*
Y169364D01*
X14424D01*
X15998D01*
X15211D01*
Y167002D01*
X15998Y166215D01*
X18360Y169364D02*
Y166215D01*
Y167789D01*
X19147Y168577D01*
X19934Y169364D01*
X20721D01*
X23083Y166215D02*
X24657D01*
X23870D01*
Y169364D01*
X23083D01*
X30167D02*
X27805D01*
X27018Y168577D01*
Y167002D01*
X27805Y166215D01*
X30167D01*
X36464D02*
X38038D01*
X37251D01*
Y170938D01*
X36464Y170151D01*
X-12339Y180387D02*
X-9191D01*
X-10765D01*
Y175664D01*
X-6829D02*
X-5255D01*
X-4468Y176451D01*
Y178025D01*
X-5255Y178813D01*
X-6829D01*
X-7616Y178025D01*
Y176451D01*
X-6829Y175664D01*
X-2893Y174090D02*
Y178813D01*
X-532D01*
X255Y178025D01*
Y176451D01*
X-532Y175664D01*
X-2893D01*
X6552Y180387D02*
Y175664D01*
X9701D01*
X12062Y178813D02*
X13637D01*
X14424Y178025D01*
Y175664D01*
X12062D01*
X11275Y176451D01*
X12062Y177238D01*
X14424D01*
X15998Y178813D02*
Y176451D01*
X16785Y175664D01*
X19147D01*
Y174877D01*
X18360Y174090D01*
X17572D01*
X19147Y175664D02*
Y178813D01*
X23082Y175664D02*
X21508D01*
X20721Y176451D01*
Y178025D01*
X21508Y178813D01*
X23082D01*
X23870Y178025D01*
Y177238D01*
X20721D01*
X25444Y178813D02*
Y175664D01*
Y177238D01*
X26231Y178025D01*
X27018Y178813D01*
X27805D01*
X-12339Y189836D02*
X-9191D01*
X-10765D01*
Y185113D01*
X-6829D02*
X-5255D01*
X-4468Y185900D01*
Y187474D01*
X-5255Y188261D01*
X-6829D01*
X-7616Y187474D01*
Y185900D01*
X-6829Y185113D01*
X-2893Y183538D02*
Y188261D01*
X-532D01*
X255Y187474D01*
Y185900D01*
X-532Y185113D01*
X-2893D01*
X9701Y189049D02*
X8914Y189836D01*
X7339D01*
X6552Y189049D01*
Y188261D01*
X7339Y187474D01*
X8914D01*
X9701Y186687D01*
Y185900D01*
X8914Y185113D01*
X7339D01*
X6552Y185900D01*
X12062Y185113D02*
X13637D01*
X14424Y185900D01*
Y187474D01*
X13637Y188261D01*
X12062D01*
X11275Y187474D01*
Y185900D01*
X12062Y185113D01*
X15998D02*
X17572D01*
X16785D01*
Y189836D01*
X15998D01*
X23083D02*
Y185113D01*
X20721D01*
X19934Y185900D01*
Y187474D01*
X20721Y188261D01*
X23083D01*
X27018Y185113D02*
X25444D01*
X24657Y185900D01*
Y187474D01*
X25444Y188261D01*
X27018D01*
X27805Y187474D01*
Y186687D01*
X24657D01*
X29380Y188261D02*
Y185113D01*
Y186687D01*
X30167Y187474D01*
X30954Y188261D01*
X31741D01*
X-12339Y199285D02*
X-9191D01*
X-10765D01*
Y194562D01*
X-6829D02*
X-5255D01*
X-4468Y195349D01*
Y196923D01*
X-5255Y197710D01*
X-6829D01*
X-7616Y196923D01*
Y195349D01*
X-6829Y194562D01*
X-2893Y192987D02*
Y197710D01*
X-532D01*
X255Y196923D01*
Y195349D01*
X-532Y194562D01*
X-2893D01*
X8914Y199285D02*
X7339D01*
X6552Y198497D01*
Y195349D01*
X7339Y194562D01*
X8914D01*
X9701Y195349D01*
Y198497D01*
X8914Y199285D01*
X11275Y197710D02*
X12849Y194562D01*
X14424Y197710D01*
X18360Y194562D02*
X16785D01*
X15998Y195349D01*
Y196923D01*
X16785Y197710D01*
X18360D01*
X19147Y196923D01*
Y196136D01*
X15998D01*
X20721Y197710D02*
Y194562D01*
Y196136D01*
X21508Y196923D01*
X22295Y197710D01*
X23082D01*
X25444Y194562D02*
X27018D01*
X26231D01*
Y199285D01*
X25444D01*
X30167Y197710D02*
X31741D01*
X32528Y196923D01*
Y194562D01*
X30167D01*
X29380Y195349D01*
X30167Y196136D01*
X32528D01*
X34102Y197710D02*
Y195349D01*
X34890Y194562D01*
X37251D01*
Y193774D01*
X36464Y192987D01*
X35677D01*
X37251Y194562D02*
Y197710D01*
X60869Y204010D02*
Y208733D01*
X62443Y207159D01*
X64018Y208733D01*
Y204010D01*
X66379Y207159D02*
X67953D01*
X68740Y206372D01*
Y204010D01*
X66379D01*
X65592Y204798D01*
X66379Y205585D01*
X68740D01*
X71102Y207946D02*
Y207159D01*
X70315D01*
X71889D01*
X71102D01*
Y204798D01*
X71889Y204010D01*
X76612D02*
X75038D01*
X74251Y204798D01*
Y206372D01*
X75038Y207159D01*
X76612D01*
X77399Y206372D01*
Y205585D01*
X74251D01*
X78974Y207159D02*
Y204010D01*
Y205585D01*
X79761Y206372D01*
X80548Y207159D01*
X81335D01*
X83696Y204010D02*
X85271D01*
X84483D01*
Y207159D01*
X83696D01*
X88419D02*
X89994D01*
X90781Y206372D01*
Y204010D01*
X88419D01*
X87632Y204798D01*
X88419Y205585D01*
X90781D01*
X92355Y204010D02*
X93929D01*
X93142D01*
Y208733D01*
X92355D01*
X64018Y151253D02*
X63231Y152040D01*
X61656D01*
X60869Y151253D01*
Y150466D01*
X61656Y149679D01*
X63231D01*
X64018Y148892D01*
Y148105D01*
X63231Y147318D01*
X61656D01*
X60869Y148105D01*
X66379Y147318D02*
X67953D01*
X68740Y148105D01*
Y149679D01*
X67953Y150466D01*
X66379D01*
X65592Y149679D01*
Y148105D01*
X66379Y147318D01*
X70315D02*
X71889D01*
X71102D01*
Y152040D01*
X70315D01*
X77399D02*
Y147318D01*
X75038D01*
X74251Y148105D01*
Y149679D01*
X75038Y150466D01*
X77399D01*
X81335Y147318D02*
X79761D01*
X78974Y148105D01*
Y149679D01*
X79761Y150466D01*
X81335D01*
X82122Y149679D01*
Y148892D01*
X78974D01*
X83696Y150466D02*
Y147318D01*
Y148892D01*
X84483Y149679D01*
X85271Y150466D01*
X86058D01*
X93142Y147318D02*
Y152040D01*
X95503D01*
X96291Y151253D01*
Y149679D01*
X95503Y148892D01*
X93142D01*
X94716D02*
X96291Y147318D01*
X100226D02*
X98652D01*
X97865Y148105D01*
Y149679D01*
X98652Y150466D01*
X100226D01*
X101014Y149679D01*
Y148892D01*
X97865D01*
X102588Y147318D02*
X104949D01*
X105736Y148105D01*
X104949Y148892D01*
X103375D01*
X102588Y149679D01*
X103375Y150466D01*
X105736D01*
X107311Y147318D02*
X108885D01*
X108098D01*
Y150466D01*
X107311D01*
X111247Y147318D02*
X113608D01*
X114395Y148105D01*
X113608Y148892D01*
X112034D01*
X111247Y149679D01*
X112034Y150466D01*
X114395D01*
X116756Y151253D02*
Y150466D01*
X115969D01*
X117544D01*
X116756D01*
Y148105D01*
X117544Y147318D01*
X64018Y160702D02*
X63231Y161489D01*
X61656D01*
X60869Y160702D01*
Y157554D01*
X61656Y156766D01*
X63231D01*
X64018Y157554D01*
X66379Y156766D02*
X67953D01*
X68740Y157554D01*
Y159128D01*
X67953Y159915D01*
X66379D01*
X65592Y159128D01*
Y157554D01*
X66379Y156766D01*
X70315Y155192D02*
Y159915D01*
X72676D01*
X73463Y159128D01*
Y157554D01*
X72676Y156766D01*
X70315D01*
X75038Y155192D02*
Y159915D01*
X77399D01*
X78186Y159128D01*
Y157554D01*
X77399Y156766D01*
X75038D01*
X82122D02*
X80548D01*
X79761Y157554D01*
Y159128D01*
X80548Y159915D01*
X82122D01*
X82909Y159128D01*
Y158341D01*
X79761D01*
X84483Y159915D02*
Y156766D01*
Y158341D01*
X85271Y159128D01*
X86058Y159915D01*
X86845D01*
X64018Y170938D02*
X60869D01*
Y168577D01*
X62443D01*
X60869D01*
Y166215D01*
X65592D02*
Y170938D01*
X67953D01*
X68740Y170151D01*
Y168577D01*
X67953Y167789D01*
X65592D01*
X67166D02*
X68740Y166215D01*
X70315Y168577D02*
X73463D01*
X77399Y166215D02*
Y170938D01*
X75038Y168577D01*
X78186D01*
X64018Y179600D02*
X63231Y180387D01*
X61656D01*
X60869Y179600D01*
Y176451D01*
X61656Y175664D01*
X63231D01*
X64018Y176451D01*
X66379Y175664D02*
X67953D01*
X68740Y176451D01*
Y178025D01*
X67953Y178813D01*
X66379D01*
X65592Y178025D01*
Y176451D01*
X66379Y175664D01*
X70315Y174090D02*
Y178813D01*
X72676D01*
X73463Y178025D01*
Y176451D01*
X72676Y175664D01*
X70315D01*
X75038Y174090D02*
Y178813D01*
X77399D01*
X78186Y178025D01*
Y176451D01*
X77399Y175664D01*
X75038D01*
X82122D02*
X80548D01*
X79761Y176451D01*
Y178025D01*
X80548Y178813D01*
X82122D01*
X82909Y178025D01*
Y177238D01*
X79761D01*
X84483Y178813D02*
Y175664D01*
Y177238D01*
X85271Y178025D01*
X86058Y178813D01*
X86845D01*
X64018Y189049D02*
X63231Y189836D01*
X61656D01*
X60869Y189049D01*
Y188261D01*
X61656Y187474D01*
X63231D01*
X64018Y186687D01*
Y185900D01*
X63231Y185113D01*
X61656D01*
X60869Y185900D01*
X66379Y185113D02*
X67953D01*
X68740Y185900D01*
Y187474D01*
X67953Y188261D01*
X66379D01*
X65592Y187474D01*
Y185900D01*
X66379Y185113D01*
X70315D02*
X71889D01*
X71102D01*
Y189836D01*
X70315D01*
X77399D02*
Y185113D01*
X75038D01*
X74251Y185900D01*
Y187474D01*
X75038Y188261D01*
X77399D01*
X81335Y185113D02*
X79761D01*
X78974Y185900D01*
Y187474D01*
X79761Y188261D01*
X81335D01*
X82122Y187474D01*
Y186687D01*
X78974D01*
X83696Y188261D02*
Y185113D01*
Y186687D01*
X84483Y187474D01*
X85271Y188261D01*
X86058D01*
X93142Y185113D02*
Y189836D01*
X95503D01*
X96291Y189049D01*
Y187474D01*
X95503Y186687D01*
X93142D01*
X94716D02*
X96291Y185113D01*
X100226D02*
X98652D01*
X97865Y185900D01*
Y187474D01*
X98652Y188261D01*
X100226D01*
X101014Y187474D01*
Y186687D01*
X97865D01*
X102588Y185113D02*
X104949D01*
X105736Y185900D01*
X104949Y186687D01*
X103375D01*
X102588Y187474D01*
X103375Y188261D01*
X105736D01*
X107311Y185113D02*
X108885D01*
X108098D01*
Y188261D01*
X107311D01*
X111247Y185113D02*
X113608D01*
X114395Y185900D01*
X113608Y186687D01*
X112034D01*
X111247Y187474D01*
X112034Y188261D01*
X114395D01*
X116756Y189049D02*
Y188261D01*
X115969D01*
X117544D01*
X116756D01*
Y185900D01*
X117544Y185113D01*
X128567Y208733D02*
X131716D01*
X130142D01*
Y204010D01*
X133290Y208733D02*
Y204010D01*
Y206372D01*
X134077Y207159D01*
X135652D01*
X136439Y206372D01*
Y204010D01*
X138013D02*
X139587D01*
X138800D01*
Y207159D01*
X138013D01*
X145097D02*
X142736D01*
X141949Y206372D01*
Y204798D01*
X142736Y204010D01*
X145097D01*
X146672D02*
Y208733D01*
Y205585D02*
X149033Y207159D01*
X146672Y205585D02*
X149033Y204010D01*
X151394D02*
Y207159D01*
X153756D01*
X154543Y206372D01*
Y204010D01*
X158479D02*
X156904D01*
X156117Y204798D01*
Y206372D01*
X156904Y207159D01*
X158479D01*
X159266Y206372D01*
Y205585D01*
X156117D01*
X160840Y204010D02*
X163202D01*
X163989Y204798D01*
X163202Y205585D01*
X161627D01*
X160840Y206372D01*
X161627Y207159D01*
X163989D01*
X165563Y204010D02*
X167925D01*
X168712Y204798D01*
X167925Y205585D01*
X166350D01*
X165563Y206372D01*
X166350Y207159D01*
X168712D01*
X128567Y151253D02*
X129354Y152040D01*
X130929D01*
X131716Y151253D01*
Y148105D01*
X130929Y147318D01*
X129354D01*
X128567Y148105D01*
Y151253D01*
X133290Y147318D02*
Y148105D01*
X134077D01*
Y147318D01*
X133290D01*
X137226Y151253D02*
X138013Y152040D01*
X139587D01*
X140375Y151253D01*
Y148105D01*
X139587Y147318D01*
X138013D01*
X137226Y148105D01*
Y151253D01*
X141949Y147318D02*
X143523D01*
X142736D01*
Y152040D01*
X141949Y151253D01*
X145885D02*
X146672Y152040D01*
X148246D01*
X149033Y151253D01*
Y148105D01*
X148246Y147318D01*
X146672D01*
X145885Y148105D01*
Y151253D01*
X150607Y147318D02*
Y150466D01*
X151394D01*
X152182Y149679D01*
Y147318D01*
Y149679D01*
X152969Y150466D01*
X153756Y149679D01*
Y147318D01*
X155330D02*
Y150466D01*
X156117D01*
X156904Y149679D01*
Y147318D01*
Y149679D01*
X157692Y150466D01*
X158479Y149679D01*
Y147318D01*
X128567Y160702D02*
X129354Y161489D01*
X130929D01*
X131716Y160702D01*
Y157554D01*
X130929Y156766D01*
X129354D01*
X128567Y157554D01*
Y160702D01*
X133290Y156766D02*
Y157554D01*
X134077D01*
Y156766D01*
X133290D01*
X137226Y160702D02*
X138013Y161489D01*
X139587D01*
X140375Y160702D01*
Y157554D01*
X139587Y156766D01*
X138013D01*
X137226Y157554D01*
Y160702D01*
X141949D02*
X142736Y161489D01*
X144310D01*
X145097Y160702D01*
Y159915D01*
X144310Y159128D01*
X143523D01*
X144310D01*
X145097Y158341D01*
Y157554D01*
X144310Y156766D01*
X142736D01*
X141949Y157554D01*
X149820Y161489D02*
X148246Y160702D01*
X146672Y159128D01*
Y157554D01*
X147459Y156766D01*
X149033D01*
X149820Y157554D01*
Y158341D01*
X149033Y159128D01*
X146672D01*
X151394Y156766D02*
Y159915D01*
X152182D01*
X152969Y159128D01*
Y156766D01*
Y159128D01*
X153756Y159915D01*
X154543Y159128D01*
Y156766D01*
X156117D02*
Y159915D01*
X156904D01*
X157692Y159128D01*
Y156766D01*
Y159128D01*
X158479Y159915D01*
X159266Y159128D01*
Y156766D01*
X128567Y166215D02*
X130142D01*
X129354D01*
Y170938D01*
X128567Y170151D01*
X132503Y166215D02*
Y167002D01*
X133290D01*
Y166215D01*
X132503D01*
X139587Y170938D02*
X136439D01*
Y168577D01*
X138013Y169364D01*
X138800D01*
X139587Y168577D01*
Y167002D01*
X138800Y166215D01*
X137226D01*
X136439Y167002D01*
X141162Y170151D02*
X141949Y170938D01*
X143523D01*
X144310Y170151D01*
Y167002D01*
X143523Y166215D01*
X141949D01*
X141162Y167002D01*
Y170151D01*
X145885D02*
X146672Y170938D01*
X148246D01*
X149033Y170151D01*
Y167002D01*
X148246Y166215D01*
X146672D01*
X145885Y167002D01*
Y170151D01*
X150607Y166215D02*
Y169364D01*
X151394D01*
X152182Y168577D01*
Y166215D01*
Y168577D01*
X152969Y169364D01*
X153756Y168577D01*
Y166215D01*
X155330D02*
Y169364D01*
X156117D01*
X156904Y168577D01*
Y166215D01*
Y168577D01*
X157692Y169364D01*
X158479Y168577D01*
Y166215D01*
X128567Y179600D02*
X129354Y180387D01*
X130929D01*
X131716Y179600D01*
Y176451D01*
X130929Y175664D01*
X129354D01*
X128567Y176451D01*
Y179600D01*
X133290Y175664D02*
Y176451D01*
X134077D01*
Y175664D01*
X133290D01*
X137226Y179600D02*
X138013Y180387D01*
X139587D01*
X140375Y179600D01*
Y176451D01*
X139587Y175664D01*
X138013D01*
X137226Y176451D01*
Y179600D01*
X141949D02*
X142736Y180387D01*
X144310D01*
X145097Y179600D01*
Y178813D01*
X144310Y178025D01*
X143523D01*
X144310D01*
X145097Y177238D01*
Y176451D01*
X144310Y175664D01*
X142736D01*
X141949Y176451D01*
X149820Y180387D02*
X148246Y179600D01*
X146672Y178025D01*
Y176451D01*
X147459Y175664D01*
X149033D01*
X149820Y176451D01*
Y177238D01*
X149033Y178025D01*
X146672D01*
X151394Y175664D02*
Y178813D01*
X152182D01*
X152969Y178025D01*
Y175664D01*
Y178025D01*
X153756Y178813D01*
X154543Y178025D01*
Y175664D01*
X156117D02*
Y178813D01*
X156904D01*
X157692Y178025D01*
Y175664D01*
Y178025D01*
X158479Y178813D01*
X159266Y178025D01*
Y175664D01*
X128567Y189049D02*
X129354Y189836D01*
X130929D01*
X131716Y189049D01*
Y185900D01*
X130929Y185113D01*
X129354D01*
X128567Y185900D01*
Y189049D01*
X133290Y185113D02*
Y185900D01*
X134077D01*
Y185113D01*
X133290D01*
X137226Y189049D02*
X138013Y189836D01*
X139587D01*
X140375Y189049D01*
Y185900D01*
X139587Y185113D01*
X138013D01*
X137226Y185900D01*
Y189049D01*
X141949Y185113D02*
X143523D01*
X142736D01*
Y189836D01*
X141949Y189049D01*
X145885D02*
X146672Y189836D01*
X148246D01*
X149033Y189049D01*
Y185900D01*
X148246Y185113D01*
X146672D01*
X145885Y185900D01*
Y189049D01*
X150607Y185113D02*
Y188261D01*
X151394D01*
X152182Y187474D01*
Y185113D01*
Y187474D01*
X152969Y188261D01*
X153756Y187474D01*
Y185113D01*
X155330D02*
Y188261D01*
X156117D01*
X156904Y187474D01*
Y185113D01*
Y187474D01*
X157692Y188261D01*
X158479Y187474D01*
Y185113D01*
X182884Y207946D02*
X182097Y208733D01*
X180523D01*
X179735Y207946D01*
Y204798D01*
X180523Y204010D01*
X182097D01*
X182884Y204798D01*
X185245Y204010D02*
X186820D01*
X187607Y204798D01*
Y206372D01*
X186820Y207159D01*
X185245D01*
X184458Y206372D01*
Y204798D01*
X185245Y204010D01*
X189181D02*
Y207159D01*
X191543D01*
X192330Y206372D01*
Y204010D01*
X193904D02*
X196265D01*
X197053Y204798D01*
X196265Y205585D01*
X194691D01*
X193904Y206372D01*
X194691Y207159D01*
X197053D01*
X199414Y207946D02*
Y207159D01*
X198627D01*
X200201D01*
X199414D01*
Y204798D01*
X200201Y204010D01*
X203350Y207159D02*
X204924D01*
X205711Y206372D01*
Y204010D01*
X203350D01*
X202563Y204798D01*
X203350Y205585D01*
X205711D01*
X207285Y204010D02*
Y207159D01*
X209647D01*
X210434Y206372D01*
Y204010D01*
X212795Y207946D02*
Y207159D01*
X212008D01*
X213583D01*
X212795D01*
Y204798D01*
X213583Y204010D01*
X179735Y151253D02*
X180523Y152040D01*
X182097D01*
X182884Y151253D01*
Y150466D01*
X182097Y149679D01*
X181310D01*
X182097D01*
X182884Y148892D01*
Y148105D01*
X182097Y147318D01*
X180523D01*
X179735Y148105D01*
X184458Y147318D02*
Y148105D01*
X185245D01*
Y147318D01*
X184458D01*
X191543Y152040D02*
X188394D01*
Y149679D01*
X189968Y150466D01*
X190755D01*
X191543Y149679D01*
Y148105D01*
X190755Y147318D01*
X189181D01*
X188394Y148105D01*
X182097Y166215D02*
Y170938D01*
X179735Y168577D01*
X182884D01*
X184458Y166215D02*
Y167002D01*
X185245D01*
Y166215D01*
X184458D01*
X188394Y170151D02*
X189181Y170938D01*
X190755D01*
X191543Y170151D01*
Y169364D01*
X190755Y168577D01*
X191543Y167789D01*
Y167002D01*
X190755Y166215D01*
X189181D01*
X188394Y167002D01*
Y167789D01*
X189181Y168577D01*
X188394Y169364D01*
Y170151D01*
X189181Y168577D02*
X190755D01*
X179735Y189049D02*
X180523Y189836D01*
X182097D01*
X182884Y189049D01*
Y188261D01*
X182097Y187474D01*
X181310D01*
X182097D01*
X182884Y186687D01*
Y185900D01*
X182097Y185113D01*
X180523D01*
X179735Y185900D01*
X184458Y185113D02*
Y185900D01*
X185245D01*
Y185113D01*
X184458D01*
X191543Y189836D02*
X188394D01*
Y187474D01*
X189968Y188261D01*
X190755D01*
X191543Y187474D01*
Y185900D01*
X190755Y185113D01*
X189181D01*
X188394Y185900D01*
X224606Y208733D02*
Y204010D01*
X226968D01*
X227755Y204798D01*
Y205585D01*
X226968Y206372D01*
X224606D01*
X226968D01*
X227755Y207159D01*
Y207946D01*
X226968Y208733D01*
X224606D01*
X230116Y204010D02*
X231691D01*
X232478Y204798D01*
Y206372D01*
X231691Y207159D01*
X230116D01*
X229329Y206372D01*
Y204798D01*
X230116Y204010D01*
X234839Y207159D02*
X236414D01*
X237201Y206372D01*
Y204010D01*
X234839D01*
X234052Y204798D01*
X234839Y205585D01*
X237201D01*
X238775Y207159D02*
Y204010D01*
Y205585D01*
X239562Y206372D01*
X240349Y207159D01*
X241136D01*
X246646Y208733D02*
Y204010D01*
X244285D01*
X243498Y204798D01*
Y206372D01*
X244285Y207159D01*
X246646D01*
X252944Y208733D02*
Y204010D01*
X256092D01*
X258454Y207159D02*
X260028D01*
X260815Y206372D01*
Y204010D01*
X258454D01*
X257666Y204798D01*
X258454Y205585D01*
X260815D01*
X262389Y207159D02*
Y204798D01*
X263176Y204010D01*
X265538D01*
Y203223D01*
X264751Y202436D01*
X263964D01*
X265538Y204010D02*
Y207159D01*
X269474Y204010D02*
X267899D01*
X267112Y204798D01*
Y206372D01*
X267899Y207159D01*
X269474D01*
X270261Y206372D01*
Y205585D01*
X267112D01*
X271835Y207159D02*
Y204010D01*
Y205585D01*
X272622Y206372D01*
X273409Y207159D01*
X274197D01*
X284429Y207946D02*
X283642Y208733D01*
X282068D01*
X281281Y207946D01*
Y207159D01*
X282068Y206372D01*
X283642D01*
X284429Y205585D01*
Y204798D01*
X283642Y204010D01*
X282068D01*
X281281Y204798D01*
X286791Y207946D02*
Y207159D01*
X286004D01*
X287578D01*
X286791D01*
Y204798D01*
X287578Y204010D01*
X290727Y207159D02*
X292301D01*
X293088Y206372D01*
Y204010D01*
X290727D01*
X289939Y204798D01*
X290727Y205585D01*
X293088D01*
X297811Y207159D02*
X295449D01*
X294662Y206372D01*
Y204798D01*
X295449Y204010D01*
X297811D01*
X299385D02*
Y208733D01*
Y205585D02*
X301747Y207159D01*
X299385Y205585D02*
X301747Y204010D01*
X-64261Y278707D02*
G03*
X-64261Y278707I-2625J0D01*
G01*
X-68198Y289206D02*
X-66886Y287894D01*
X-69510Y289206D02*
X-68198D01*
X-69510D02*
X-68198Y290518D01*
X-69510Y291831D02*
X-68198Y290518D01*
X-69510Y291831D02*
X-68198D01*
X-66886Y293143D01*
X-65573Y291831D01*
X-64261D01*
X-65573Y290518D02*
X-64261Y291831D01*
X-65573Y290518D02*
X-64261Y289206D01*
X-65573D02*
X-64261D01*
X-66886Y287894D02*
X-65573Y289206D01*
X-66886Y264272D02*
X-64261Y269521D01*
X-69510D02*
X-64261D01*
X-69510D02*
X-66886Y264272D01*
X-69510Y252461D02*
X-64261D01*
Y257710D01*
X-69510D02*
X-64261D01*
X-69510Y252461D02*
Y257710D01*
X426591Y291042D02*
X428165Y287894D01*
X429739Y291042D01*
X434462Y292617D02*
X432888Y291829D01*
X431314Y290255D01*
Y288681D01*
X432101Y287894D01*
X433675D01*
X434462Y288681D01*
Y289468D01*
X433675Y290255D01*
X431314D01*
X436037Y291829D02*
X436824Y292617D01*
X438398D01*
X439185Y291829D01*
Y288681D01*
X438398Y287894D01*
X436824D01*
X436037Y288681D01*
Y291829D01*
X440759Y292617D02*
Y287894D01*
Y290255D01*
X441547Y291042D01*
X443121D01*
X443908Y290255D01*
Y287894D01*
X445482Y291829D02*
X446270Y292617D01*
X447844D01*
X448631Y291829D01*
Y291042D01*
X447844Y290255D01*
X447057D01*
X447844D01*
X448631Y289468D01*
Y288681D01*
X447844Y287894D01*
X446270D01*
X445482Y288681D01*
X450205Y291829D02*
X450992Y292617D01*
X452567D01*
X453354Y291829D01*
Y288681D01*
X452567Y287894D01*
X450992D01*
X450205Y288681D01*
Y291829D01*
X454928Y287894D02*
Y291042D01*
X455715D01*
X456502Y290255D01*
Y287894D01*
Y290255D01*
X457290Y291042D01*
X458077Y290255D01*
Y287894D01*
X459651Y291829D02*
X460438Y292617D01*
X462012D01*
X462800Y291829D01*
Y288681D01*
X462012Y287894D01*
X460438D01*
X459651Y288681D01*
Y291829D01*
X464374Y287894D02*
Y291042D01*
X465161D01*
X465948Y290255D01*
Y287894D01*
Y290255D01*
X466735Y291042D01*
X467522Y290255D01*
Y287894D01*
X469097Y291042D02*
X472245Y287894D01*
X470671Y289468D01*
X472245Y291042D01*
X469097Y287894D01*
X473820Y291829D02*
X474607Y292617D01*
X476181D01*
X476968Y291829D01*
Y288681D01*
X476181Y287894D01*
X474607D01*
X473820Y288681D01*
Y291829D01*
X429739Y279231D02*
X427378D01*
X426591Y278444D01*
Y276870D01*
X427378Y276083D01*
X429739D01*
X431314D02*
X432888D01*
X432101D01*
Y280806D01*
X431314Y280018D01*
X438398Y280806D02*
X435249D01*
Y278444D01*
X436824Y279231D01*
X437611D01*
X438398Y278444D01*
Y276870D01*
X437611Y276083D01*
X436037D01*
X435249Y276870D01*
X439972Y280018D02*
X440760Y280806D01*
X442334D01*
X443121Y280018D01*
Y276870D01*
X442334Y276083D01*
X440760D01*
X439972Y276870D01*
Y280018D01*
X444695Y280806D02*
Y276083D01*
Y278444D01*
X445482Y279231D01*
X447057D01*
X447844Y278444D01*
Y276083D01*
X449418Y276870D02*
X450205Y276083D01*
X451780D01*
X452567Y276870D01*
Y280018D01*
X451780Y280806D01*
X450205D01*
X449418Y280018D01*
Y279231D01*
X450205Y278444D01*
X452567D01*
X454141Y280018D02*
X454928Y280806D01*
X456502D01*
X457290Y280018D01*
Y276870D01*
X456502Y276083D01*
X454928D01*
X454141Y276870D01*
Y280018D01*
X428165Y264272D02*
X426591Y265846D01*
Y267420D01*
X428165Y268994D01*
X430526Y264272D02*
Y268994D01*
X432101Y267420D01*
X433675Y268994D01*
Y264272D01*
X435249D02*
X436824D01*
X436037D01*
Y267420D01*
X435249D01*
X439185D02*
X442334Y264272D01*
X440760Y265846D01*
X442334Y267420D01*
X439185Y264272D01*
X446270D02*
X444695D01*
X443908Y265059D01*
Y266633D01*
X444695Y267420D01*
X446270D01*
X447057Y266633D01*
Y265846D01*
X443908D01*
X451780Y268994D02*
Y264272D01*
X449418D01*
X448631Y265059D01*
Y266633D01*
X449418Y267420D01*
X451780D01*
X453354Y264272D02*
X454928Y265846D01*
Y267420D01*
X453354Y268994D01*
X429739Y255609D02*
X427378D01*
X426591Y254822D01*
Y253248D01*
X427378Y252461D01*
X429739D01*
X431314Y256396D02*
X432101Y257184D01*
X433675D01*
X434462Y256396D01*
Y255609D01*
X433675Y254822D01*
X432888D01*
X433675D01*
X434462Y254035D01*
Y253248D01*
X433675Y252461D01*
X432101D01*
X431314Y253248D01*
X436037Y257184D02*
X439185D01*
Y256396D01*
X436037Y253248D01*
Y252461D01*
X440759Y256396D02*
X441547Y257184D01*
X443121D01*
X443908Y256396D01*
Y253248D01*
X443121Y252461D01*
X441547D01*
X440759Y253248D01*
Y256396D01*
X445482Y257184D02*
Y252461D01*
Y254822D01*
X446270Y255609D01*
X447844D01*
X448631Y254822D01*
Y252461D01*
X450205Y256396D02*
X450992Y257184D01*
X452567D01*
X453354Y256396D01*
Y255609D01*
X452567Y254822D01*
X451780D01*
X452567D01*
X453354Y254035D01*
Y253248D01*
X452567Y252461D01*
X450992D01*
X450205Y253248D01*
X458077Y252461D02*
X454928D01*
X458077Y255609D01*
Y256396D01*
X457290Y257184D01*
X455715D01*
X454928Y256396D01*
X459651D02*
X460438Y257184D01*
X462012D01*
X462800Y256396D01*
Y253248D01*
X462012Y252461D01*
X460438D01*
X459651Y253248D01*
Y256396D01*
X367866Y287894D02*
Y292617D01*
X370228D01*
X371015Y291829D01*
Y290255D01*
X370228Y289468D01*
X367866D01*
X369441D02*
X371015Y287894D01*
X373377D02*
X374951D01*
X375738Y288681D01*
Y290255D01*
X374951Y291042D01*
X373377D01*
X372589Y290255D01*
Y288681D01*
X373377Y287894D01*
X377312Y291042D02*
Y288681D01*
X378099Y287894D01*
X380461D01*
Y291042D01*
X382035Y287894D02*
Y291042D01*
X384397D01*
X385184Y290255D01*
Y287894D01*
X389907Y292617D02*
Y287894D01*
X387545D01*
X386758Y288681D01*
Y290255D01*
X387545Y291042D01*
X389907D01*
X393842Y287894D02*
X392268D01*
X391481Y288681D01*
Y290255D01*
X392268Y291042D01*
X393842D01*
X394630Y290255D01*
Y289468D01*
X391481D01*
X399352Y292617D02*
Y287894D01*
X396991D01*
X396204Y288681D01*
Y290255D01*
X396991Y291042D01*
X399352D01*
X367866Y276083D02*
Y280806D01*
X370228D01*
X371015Y280018D01*
Y278444D01*
X370228Y277657D01*
X367866D01*
X369441D02*
X371015Y276083D01*
X373377D02*
X374951D01*
X375738Y276870D01*
Y278444D01*
X374951Y279231D01*
X373377D01*
X372589Y278444D01*
Y276870D01*
X373377Y276083D01*
X377312Y279231D02*
Y276870D01*
X378099Y276083D01*
X380461D01*
Y279231D01*
X382035Y276083D02*
Y279231D01*
X384397D01*
X385184Y278444D01*
Y276083D01*
X389907Y280806D02*
Y276083D01*
X387545D01*
X386758Y276870D01*
Y278444D01*
X387545Y279231D01*
X389907D01*
X393842Y276083D02*
X392268D01*
X391481Y276870D01*
Y278444D01*
X392268Y279231D01*
X393842D01*
X394630Y278444D01*
Y277657D01*
X391481D01*
X399352Y280806D02*
Y276083D01*
X396991D01*
X396204Y276870D01*
Y278444D01*
X396991Y279231D01*
X399352D01*
X369441Y264272D02*
X367866Y265846D01*
Y267420D01*
X369441Y268994D01*
X371802Y264272D02*
Y268994D01*
X373377Y267420D01*
X374951Y268994D01*
Y264272D01*
X376525D02*
X378099D01*
X377312D01*
Y267420D01*
X376525D01*
X380461D02*
X383610Y264272D01*
X382035Y265846D01*
X383610Y267420D01*
X380461Y264272D01*
X387545D02*
X385971D01*
X385184Y265059D01*
Y266633D01*
X385971Y267420D01*
X387545D01*
X388332Y266633D01*
Y265846D01*
X385184D01*
X393055Y268994D02*
Y264272D01*
X390694D01*
X389907Y265059D01*
Y266633D01*
X390694Y267420D01*
X393055D01*
X394630Y264272D02*
X396204Y265846D01*
Y267420D01*
X394630Y268994D01*
X367866Y252461D02*
Y257184D01*
X370228D01*
X371015Y256396D01*
Y254822D01*
X370228Y254035D01*
X367866D01*
X369441D02*
X371015Y252461D01*
X373377D02*
X374951D01*
X375738Y253248D01*
Y254822D01*
X374951Y255609D01*
X373377D01*
X372589Y254822D01*
Y253248D01*
X373377Y252461D01*
X377312Y255609D02*
Y253248D01*
X378099Y252461D01*
X380461D01*
Y255609D01*
X382035Y252461D02*
Y255609D01*
X384397D01*
X385184Y254822D01*
Y252461D01*
X389907Y257184D02*
Y252461D01*
X387545D01*
X386758Y253248D01*
Y254822D01*
X387545Y255609D01*
X389907D01*
X393842Y252461D02*
X392268D01*
X391481Y253248D01*
Y254822D01*
X392268Y255609D01*
X393842D01*
X394630Y254822D01*
Y254035D01*
X391481D01*
X399352Y257184D02*
Y252461D01*
X396991D01*
X396204Y253248D01*
Y254822D01*
X396991Y255609D01*
X399352D01*
X321422Y292617D02*
Y289468D01*
X322996Y287894D01*
X324570Y289468D01*
Y292617D01*
X326145Y287894D02*
X327719D01*
X326932D01*
Y291042D01*
X326145D01*
X330868D02*
X332442D01*
X333229Y290255D01*
Y287894D01*
X330868D01*
X330080Y288681D01*
X330868Y289468D01*
X333229D01*
X321422Y276083D02*
Y280806D01*
X323783D01*
X324570Y280018D01*
Y278444D01*
X323783Y277657D01*
X321422D01*
X326932Y279231D02*
X328506D01*
X329293Y278444D01*
Y276083D01*
X326932D01*
X326145Y276870D01*
X326932Y277657D01*
X329293D01*
X334016Y280806D02*
Y276083D01*
X331655D01*
X330868Y276870D01*
Y278444D01*
X331655Y279231D01*
X334016D01*
X321422Y264272D02*
Y268994D01*
X323783D01*
X324570Y268207D01*
Y266633D01*
X323783Y265846D01*
X321422D01*
X326932Y267420D02*
X328506D01*
X329293Y266633D01*
Y264272D01*
X326932D01*
X326145Y265059D01*
X326932Y265846D01*
X329293D01*
X334016Y268994D02*
Y264272D01*
X331655D01*
X330868Y265059D01*
Y266633D01*
X331655Y267420D01*
X334016D01*
X321422Y252461D02*
Y257184D01*
X323783D01*
X324570Y256396D01*
Y254822D01*
X323783Y254035D01*
X321422D01*
X326932Y255609D02*
X328506D01*
X329293Y254822D01*
Y252461D01*
X326932D01*
X326145Y253248D01*
X326932Y254035D01*
X329293D01*
X334016Y257184D02*
Y252461D01*
X331655D01*
X330868Y253248D01*
Y254822D01*
X331655Y255609D01*
X334016D01*
X203347Y292617D02*
X206496D01*
X204921D01*
Y287894D01*
X208857D02*
X210431D01*
X211218Y288681D01*
Y290255D01*
X210431Y291042D01*
X208857D01*
X208070Y290255D01*
Y288681D01*
X208857Y287894D01*
X212793Y286319D02*
Y291042D01*
X215154D01*
X215941Y290255D01*
Y288681D01*
X215154Y287894D01*
X212793D01*
X222238Y292617D02*
Y287894D01*
X225387D01*
X227748Y291042D02*
X229323D01*
X230110Y290255D01*
Y287894D01*
X227748D01*
X226961Y288681D01*
X227748Y289468D01*
X230110D01*
X231684Y291042D02*
Y288681D01*
X232471Y287894D01*
X234833D01*
Y287106D01*
X234046Y286319D01*
X233259D01*
X234833Y287894D02*
Y291042D01*
X238769Y287894D02*
X237194D01*
X236407Y288681D01*
Y290255D01*
X237194Y291042D01*
X238769D01*
X239556Y290255D01*
Y289468D01*
X236407D01*
X241130Y291042D02*
Y287894D01*
Y289468D01*
X241917Y290255D01*
X242704Y291042D01*
X243492D01*
X250576Y290255D02*
X253724D01*
X260021Y292617D02*
Y287894D01*
X262383D01*
X263170Y288681D01*
Y289468D01*
X262383Y290255D01*
X260021D01*
X262383D01*
X263170Y291042D01*
Y291829D01*
X262383Y292617D01*
X260021D01*
X265532Y287894D02*
X267106D01*
X267893Y288681D01*
Y290255D01*
X267106Y291042D01*
X265532D01*
X264744Y290255D01*
Y288681D01*
X265532Y287894D01*
X270254Y291829D02*
Y291042D01*
X269467D01*
X271042D01*
X270254D01*
Y288681D01*
X271042Y287894D01*
X274190Y291829D02*
Y291042D01*
X273403D01*
X274977D01*
X274190D01*
Y288681D01*
X274977Y287894D01*
X278126D02*
X279700D01*
X280487Y288681D01*
Y290255D01*
X279700Y291042D01*
X278126D01*
X277339Y290255D01*
Y288681D01*
X278126Y287894D01*
X282062D02*
Y291042D01*
X282849D01*
X283636Y290255D01*
Y287894D01*
Y290255D01*
X284423Y291042D01*
X285210Y290255D01*
Y287894D01*
X291507Y292617D02*
Y287894D01*
X294656D01*
X297018Y291042D02*
X298592D01*
X299379Y290255D01*
Y287894D01*
X297018D01*
X296230Y288681D01*
X297018Y289468D01*
X299379D01*
X300953Y291042D02*
Y288681D01*
X301740Y287894D01*
X304102D01*
Y287106D01*
X303315Y286319D01*
X302527D01*
X304102Y287894D02*
Y291042D01*
X308037Y287894D02*
X306463D01*
X305676Y288681D01*
Y290255D01*
X306463Y291042D01*
X308037D01*
X308825Y290255D01*
Y289468D01*
X305676D01*
X310399Y291042D02*
Y287894D01*
Y289468D01*
X311186Y290255D01*
X311973Y291042D01*
X312760D01*
X203347Y280806D02*
X206496D01*
X204921D01*
Y276083D01*
X208857D02*
X210431D01*
X211218Y276870D01*
Y278444D01*
X210431Y279231D01*
X208857D01*
X208070Y278444D01*
Y276870D01*
X208857Y276083D01*
X212793Y274508D02*
Y279231D01*
X215154D01*
X215941Y278444D01*
Y276870D01*
X215154Y276083D01*
X212793D01*
X222238Y280806D02*
Y276083D01*
X225387D01*
X227748Y279231D02*
X229323D01*
X230110Y278444D01*
Y276083D01*
X227748D01*
X226961Y276870D01*
X227748Y277657D01*
X230110D01*
X231684Y279231D02*
Y276870D01*
X232471Y276083D01*
X234833D01*
Y275295D01*
X234046Y274508D01*
X233259D01*
X234833Y276083D02*
Y279231D01*
X238769Y276083D02*
X237194D01*
X236407Y276870D01*
Y278444D01*
X237194Y279231D01*
X238769D01*
X239556Y278444D01*
Y277657D01*
X236407D01*
X241130Y279231D02*
Y276083D01*
Y277657D01*
X241917Y278444D01*
X242704Y279231D01*
X243492D01*
X250576Y278444D02*
X253724D01*
X260021Y280806D02*
Y276083D01*
X262383D01*
X263170Y276870D01*
Y277657D01*
X262383Y278444D01*
X260021D01*
X262383D01*
X263170Y279231D01*
Y280018D01*
X262383Y280806D01*
X260021D01*
X265532Y276083D02*
X267106D01*
X267893Y276870D01*
Y278444D01*
X267106Y279231D01*
X265532D01*
X264744Y278444D01*
Y276870D01*
X265532Y276083D01*
X270254Y280018D02*
Y279231D01*
X269467D01*
X271042D01*
X270254D01*
Y276870D01*
X271042Y276083D01*
X274190Y280018D02*
Y279231D01*
X273403D01*
X274977D01*
X274190D01*
Y276870D01*
X274977Y276083D01*
X278126D02*
X279700D01*
X280487Y276870D01*
Y278444D01*
X279700Y279231D01*
X278126D01*
X277339Y278444D01*
Y276870D01*
X278126Y276083D01*
X282062D02*
Y279231D01*
X282849D01*
X283636Y278444D01*
Y276083D01*
Y278444D01*
X284423Y279231D01*
X285210Y278444D01*
Y276083D01*
X291507Y280806D02*
Y276083D01*
X294656D01*
X297018Y279231D02*
X298592D01*
X299379Y278444D01*
Y276083D01*
X297018D01*
X296230Y276870D01*
X297018Y277657D01*
X299379D01*
X300953Y279231D02*
Y276870D01*
X301740Y276083D01*
X304102D01*
Y275295D01*
X303315Y274508D01*
X302527D01*
X304102Y276083D02*
Y279231D01*
X308037Y276083D02*
X306463D01*
X305676Y276870D01*
Y278444D01*
X306463Y279231D01*
X308037D01*
X308825Y278444D01*
Y277657D01*
X305676D01*
X310399Y279231D02*
Y276083D01*
Y277657D01*
X311186Y278444D01*
X311973Y279231D01*
X312760D01*
X203347Y268994D02*
X206496D01*
X204921D01*
Y264272D01*
X208857D02*
X210431D01*
X211218Y265059D01*
Y266633D01*
X210431Y267420D01*
X208857D01*
X208070Y266633D01*
Y265059D01*
X208857Y264272D01*
X212793Y262697D02*
Y267420D01*
X215154D01*
X215941Y266633D01*
Y265059D01*
X215154Y264272D01*
X212793D01*
X222238Y268994D02*
Y264272D01*
X225387D01*
X227748Y267420D02*
X229323D01*
X230110Y266633D01*
Y264272D01*
X227748D01*
X226961Y265059D01*
X227748Y265846D01*
X230110D01*
X231684Y267420D02*
Y265059D01*
X232471Y264272D01*
X234833D01*
Y263485D01*
X234046Y262697D01*
X233259D01*
X234833Y264272D02*
Y267420D01*
X238769Y264272D02*
X237194D01*
X236407Y265059D01*
Y266633D01*
X237194Y267420D01*
X238769D01*
X239556Y266633D01*
Y265846D01*
X236407D01*
X241130Y267420D02*
Y264272D01*
Y265846D01*
X241917Y266633D01*
X242704Y267420D01*
X243492D01*
X250576Y266633D02*
X253724D01*
X260021Y268994D02*
Y264272D01*
X262383D01*
X263170Y265059D01*
Y265846D01*
X262383Y266633D01*
X260021D01*
X262383D01*
X263170Y267420D01*
Y268207D01*
X262383Y268994D01*
X260021D01*
X265532Y264272D02*
X267106D01*
X267893Y265059D01*
Y266633D01*
X267106Y267420D01*
X265532D01*
X264744Y266633D01*
Y265059D01*
X265532Y264272D01*
X270254Y268207D02*
Y267420D01*
X269467D01*
X271042D01*
X270254D01*
Y265059D01*
X271042Y264272D01*
X274190Y268207D02*
Y267420D01*
X273403D01*
X274977D01*
X274190D01*
Y265059D01*
X274977Y264272D01*
X278126D02*
X279700D01*
X280487Y265059D01*
Y266633D01*
X279700Y267420D01*
X278126D01*
X277339Y266633D01*
Y265059D01*
X278126Y264272D01*
X282062D02*
Y267420D01*
X282849D01*
X283636Y266633D01*
Y264272D01*
Y266633D01*
X284423Y267420D01*
X285210Y266633D01*
Y264272D01*
X291507Y268994D02*
Y264272D01*
X294656D01*
X297018Y267420D02*
X298592D01*
X299379Y266633D01*
Y264272D01*
X297018D01*
X296230Y265059D01*
X297018Y265846D01*
X299379D01*
X300953Y267420D02*
Y265059D01*
X301740Y264272D01*
X304102D01*
Y263485D01*
X303315Y262697D01*
X302527D01*
X304102Y264272D02*
Y267420D01*
X308037Y264272D02*
X306463D01*
X305676Y265059D01*
Y266633D01*
X306463Y267420D01*
X308037D01*
X308825Y266633D01*
Y265846D01*
X305676D01*
X310399Y267420D02*
Y264272D01*
Y265846D01*
X311186Y266633D01*
X311973Y267420D01*
X312760D01*
X203347Y257184D02*
X206496D01*
X204921D01*
Y252461D01*
X208857D02*
X210431D01*
X211218Y253248D01*
Y254822D01*
X210431Y255609D01*
X208857D01*
X208070Y254822D01*
Y253248D01*
X208857Y252461D01*
X212793Y250886D02*
Y255609D01*
X215154D01*
X215941Y254822D01*
Y253248D01*
X215154Y252461D01*
X212793D01*
X222238Y257184D02*
Y252461D01*
X225387D01*
X227748Y255609D02*
X229323D01*
X230110Y254822D01*
Y252461D01*
X227748D01*
X226961Y253248D01*
X227748Y254035D01*
X230110D01*
X231684Y255609D02*
Y253248D01*
X232471Y252461D01*
X234833D01*
Y251674D01*
X234046Y250886D01*
X233259D01*
X234833Y252461D02*
Y255609D01*
X238769Y252461D02*
X237194D01*
X236407Y253248D01*
Y254822D01*
X237194Y255609D01*
X238769D01*
X239556Y254822D01*
Y254035D01*
X236407D01*
X241130Y255609D02*
Y252461D01*
Y254035D01*
X241917Y254822D01*
X242704Y255609D01*
X243492D01*
X250576Y254822D02*
X253724D01*
X260021Y257184D02*
Y252461D01*
X262383D01*
X263170Y253248D01*
Y254035D01*
X262383Y254822D01*
X260021D01*
X262383D01*
X263170Y255609D01*
Y256396D01*
X262383Y257184D01*
X260021D01*
X265532Y252461D02*
X267106D01*
X267893Y253248D01*
Y254822D01*
X267106Y255609D01*
X265532D01*
X264744Y254822D01*
Y253248D01*
X265532Y252461D01*
X270254Y256396D02*
Y255609D01*
X269467D01*
X271042D01*
X270254D01*
Y253248D01*
X271042Y252461D01*
X274190Y256396D02*
Y255609D01*
X273403D01*
X274977D01*
X274190D01*
Y253248D01*
X274977Y252461D01*
X278126D02*
X279700D01*
X280487Y253248D01*
Y254822D01*
X279700Y255609D01*
X278126D01*
X277339Y254822D01*
Y253248D01*
X278126Y252461D01*
X282062D02*
Y255609D01*
X282849D01*
X283636Y254822D01*
Y252461D01*
Y254822D01*
X284423Y255609D01*
X285210Y254822D01*
Y252461D01*
X291507Y257184D02*
Y252461D01*
X294656D01*
X297018Y255609D02*
X298592D01*
X299379Y254822D01*
Y252461D01*
X297018D01*
X296230Y253248D01*
X297018Y254035D01*
X299379D01*
X300953Y255609D02*
Y253248D01*
X301740Y252461D01*
X304102D01*
Y251674D01*
X303315Y250886D01*
X302527D01*
X304102Y252461D02*
Y255609D01*
X308037Y252461D02*
X306463D01*
X305676Y253248D01*
Y254822D01*
X306463Y255609D01*
X308037D01*
X308825Y254822D01*
Y254035D01*
X305676D01*
X310399Y255609D02*
Y252461D01*
Y254035D01*
X311186Y254822D01*
X311973Y255609D01*
X312760D01*
X145567Y287894D02*
Y292617D01*
X147929D01*
X148716Y291829D01*
Y290255D01*
X147929Y289468D01*
X145567D01*
X147142D02*
X148716Y287894D01*
X151077D02*
X152652D01*
X153439Y288681D01*
Y290255D01*
X152652Y291042D01*
X151077D01*
X150290Y290255D01*
Y288681D01*
X151077Y287894D01*
X155013Y291042D02*
Y288681D01*
X155800Y287894D01*
X158162D01*
Y291042D01*
X159736Y287894D02*
Y291042D01*
X162097D01*
X162884Y290255D01*
Y287894D01*
X167607Y292617D02*
Y287894D01*
X165246D01*
X164459Y288681D01*
Y290255D01*
X165246Y291042D01*
X167607D01*
X145567Y276083D02*
Y280806D01*
X147929D01*
X148716Y280018D01*
Y278444D01*
X147929Y277657D01*
X145567D01*
X147142D02*
X148716Y276083D01*
X151077D02*
X152652D01*
X153439Y276870D01*
Y278444D01*
X152652Y279231D01*
X151077D01*
X150290Y278444D01*
Y276870D01*
X151077Y276083D01*
X155013Y279231D02*
Y276870D01*
X155800Y276083D01*
X158162D01*
Y279231D01*
X159736Y276083D02*
Y279231D01*
X162097D01*
X162884Y278444D01*
Y276083D01*
X167607Y280806D02*
Y276083D01*
X165246D01*
X164459Y276870D01*
Y278444D01*
X165246Y279231D01*
X167607D01*
X145567Y264272D02*
Y268994D01*
X147929D01*
X148716Y268207D01*
Y266633D01*
X147929Y265846D01*
X145567D01*
X147142D02*
X148716Y264272D01*
X151077D02*
X152652D01*
X153439Y265059D01*
Y266633D01*
X152652Y267420D01*
X151077D01*
X150290Y266633D01*
Y265059D01*
X151077Y264272D01*
X155013Y267420D02*
Y265059D01*
X155800Y264272D01*
X158162D01*
Y267420D01*
X159736Y264272D02*
Y267420D01*
X162097D01*
X162884Y266633D01*
Y264272D01*
X167607Y268994D02*
Y264272D01*
X165246D01*
X164459Y265059D01*
Y266633D01*
X165246Y267420D01*
X167607D01*
X145567Y252461D02*
Y257184D01*
X147929D01*
X148716Y256396D01*
Y254822D01*
X147929Y254035D01*
X145567D01*
X147142D02*
X148716Y252461D01*
X151077D02*
X152652D01*
X153439Y253248D01*
Y254822D01*
X152652Y255609D01*
X151077D01*
X150290Y254822D01*
Y253248D01*
X151077Y252461D01*
X155013Y255609D02*
Y253248D01*
X155800Y252461D01*
X158162D01*
Y255609D01*
X159736Y252461D02*
Y255609D01*
X162097D01*
X162884Y254822D01*
Y252461D01*
X167607Y257184D02*
Y252461D01*
X165246D01*
X164459Y253248D01*
Y254822D01*
X165246Y255609D01*
X167607D01*
X105735Y287894D02*
Y292617D01*
X108096D01*
X108883Y291829D01*
Y290255D01*
X108096Y289468D01*
X105735D01*
X110458Y292617D02*
X113606D01*
X112032D01*
Y287894D01*
X115180Y292617D02*
Y287894D01*
Y290255D01*
X118329D01*
Y292617D01*
Y287894D01*
X105735Y276083D02*
Y280806D01*
X108096D01*
X108883Y280018D01*
Y278444D01*
X108096Y277657D01*
X105735D01*
X110458Y280806D02*
X113606D01*
X112032D01*
Y276083D01*
X115180Y280806D02*
Y276083D01*
Y278444D01*
X118329D01*
Y280806D01*
Y276083D01*
X105735Y264272D02*
Y268994D01*
X108096D01*
X108883Y268207D01*
Y266633D01*
X108096Y265846D01*
X105735D01*
X110458Y268994D02*
X113606D01*
X112032D01*
Y264272D01*
X115180Y268994D02*
Y264272D01*
Y266633D01*
X118329D01*
Y268994D01*
Y264272D01*
X105735Y252461D02*
Y257184D01*
X108096D01*
X108883Y256396D01*
Y254822D01*
X108096Y254035D01*
X105735D01*
X110458Y257184D02*
X113606D01*
X112032D01*
Y252461D01*
X115180Y257184D02*
Y252461D01*
Y254822D01*
X118329D01*
Y257184D01*
Y252461D01*
X15210Y291829D02*
X15997Y292617D01*
X17571D01*
X18359Y291829D01*
Y288681D01*
X17571Y287894D01*
X15997D01*
X15210Y288681D01*
Y291829D01*
X19933Y287894D02*
Y288681D01*
X20720D01*
Y287894D01*
X19933D01*
X23868Y291829D02*
X24656Y292617D01*
X26230D01*
X27017Y291829D01*
Y291042D01*
X26230Y290255D01*
X25443D01*
X26230D01*
X27017Y289468D01*
Y288681D01*
X26230Y287894D01*
X24656D01*
X23868Y288681D01*
X28591Y291829D02*
X29379Y292617D01*
X30953D01*
X31740Y291829D01*
Y288681D01*
X30953Y287894D01*
X29379D01*
X28591Y288681D01*
Y291829D01*
X33314D02*
X34101Y292617D01*
X35676D01*
X36463Y291829D01*
Y288681D01*
X35676Y287894D01*
X34101D01*
X33314Y288681D01*
Y291829D01*
X38037Y287894D02*
Y291042D01*
X38824D01*
X39611Y290255D01*
Y287894D01*
Y290255D01*
X40399Y291042D01*
X41186Y290255D01*
Y287894D01*
X42760D02*
Y291042D01*
X43547D01*
X44334Y290255D01*
Y287894D01*
Y290255D01*
X45121Y291042D01*
X45909Y290255D01*
Y287894D01*
X53780D02*
X52206Y289468D01*
Y291042D01*
X53780Y292617D01*
X56142Y287894D02*
X57716D01*
X56929D01*
Y292617D01*
X56142Y291829D01*
X60077Y287894D02*
X61652D01*
X60864D01*
Y292617D01*
X60077Y291829D01*
X64013Y287894D02*
Y288681D01*
X64800D01*
Y287894D01*
X64013D01*
X67949Y291829D02*
X68736Y292617D01*
X70310D01*
X71097Y291829D01*
Y291042D01*
X70310Y290255D01*
X71097Y289468D01*
Y288681D01*
X70310Y287894D01*
X68736D01*
X67949Y288681D01*
Y289468D01*
X68736Y290255D01*
X67949Y291042D01*
Y291829D01*
X68736Y290255D02*
X70310D01*
X72672Y287894D02*
X74246D01*
X73459D01*
Y292617D01*
X72672Y291829D01*
X76607Y287894D02*
Y291042D01*
X77394D01*
X78182Y290255D01*
Y287894D01*
Y290255D01*
X78969Y291042D01*
X79756Y290255D01*
Y287894D01*
X81330D02*
X82904D01*
X82117D01*
Y291042D01*
X81330D01*
X85266Y287894D02*
X86840D01*
X86053D01*
Y292617D01*
X85266D01*
X89202Y287894D02*
X90776Y289468D01*
Y291042D01*
X89202Y292617D01*
X15210Y280018D02*
X15997Y280806D01*
X17571D01*
X18359Y280018D01*
Y276870D01*
X17571Y276083D01*
X15997D01*
X15210Y276870D01*
Y280018D01*
X19933Y276083D02*
Y276870D01*
X20720D01*
Y276083D01*
X19933D01*
X23868Y276870D02*
X24656Y276083D01*
X26230D01*
X27017Y276870D01*
Y280018D01*
X26230Y280806D01*
X24656D01*
X23868Y280018D01*
Y279231D01*
X24656Y278444D01*
X27017D01*
X28591Y280018D02*
X29379Y280806D01*
X30953D01*
X31740Y280018D01*
Y276870D01*
X30953Y276083D01*
X29379D01*
X28591Y276870D01*
Y280018D01*
X33314D02*
X34101Y280806D01*
X35676D01*
X36463Y280018D01*
Y276870D01*
X35676Y276083D01*
X34101D01*
X33314Y276870D01*
Y280018D01*
X38037Y276083D02*
Y279231D01*
X38824D01*
X39611Y278444D01*
Y276083D01*
Y278444D01*
X40399Y279231D01*
X41186Y278444D01*
Y276083D01*
X42760D02*
Y279231D01*
X43547D01*
X44334Y278444D01*
Y276083D01*
Y278444D01*
X45121Y279231D01*
X45909Y278444D01*
Y276083D01*
X53780D02*
X52206Y277657D01*
Y279231D01*
X53780Y280806D01*
X56142Y280018D02*
X56929Y280806D01*
X58503D01*
X59290Y280018D01*
Y279231D01*
X58503Y278444D01*
X57716D01*
X58503D01*
X59290Y277657D01*
Y276870D01*
X58503Y276083D01*
X56929D01*
X56142Y276870D01*
X64013Y280806D02*
X60864D01*
Y278444D01*
X62439Y279231D01*
X63226D01*
X64013Y278444D01*
Y276870D01*
X63226Y276083D01*
X61652D01*
X60864Y276870D01*
X65587Y276083D02*
Y276870D01*
X66374D01*
Y276083D01*
X65587D01*
X71885D02*
Y280806D01*
X69523Y278444D01*
X72672D01*
X74246Y280018D02*
X75033Y280806D01*
X76607D01*
X77394Y280018D01*
Y279231D01*
X76607Y278444D01*
X75820D01*
X76607D01*
X77394Y277657D01*
Y276870D01*
X76607Y276083D01*
X75033D01*
X74246Y276870D01*
X78969Y276083D02*
Y279231D01*
X79756D01*
X80543Y278444D01*
Y276083D01*
Y278444D01*
X81330Y279231D01*
X82117Y278444D01*
Y276083D01*
X83692D02*
X85266D01*
X84479D01*
Y279231D01*
X83692D01*
X87627Y276083D02*
X89202D01*
X88415D01*
Y280806D01*
X87627D01*
X91563Y276083D02*
X93137Y277657D01*
Y279231D01*
X91563Y280806D01*
X15210Y264272D02*
X16784D01*
X15997D01*
Y268994D01*
X15210Y268207D01*
X19146Y264272D02*
Y265059D01*
X19933D01*
Y264272D01*
X19146D01*
X23081Y268207D02*
X23868Y268994D01*
X25443D01*
X26230Y268207D01*
Y265059D01*
X25443Y264272D01*
X23868D01*
X23081Y265059D01*
Y268207D01*
X27804D02*
X28591Y268994D01*
X30166D01*
X30953Y268207D01*
Y265059D01*
X30166Y264272D01*
X28591D01*
X27804Y265059D01*
Y268207D01*
X32527D02*
X33314Y268994D01*
X34889D01*
X35676Y268207D01*
Y265059D01*
X34889Y264272D01*
X33314D01*
X32527Y265059D01*
Y268207D01*
X37250Y264272D02*
Y267420D01*
X38037D01*
X38824Y266633D01*
Y264272D01*
Y266633D01*
X39612Y267420D01*
X40399Y266633D01*
Y264272D01*
X41973D02*
Y267420D01*
X42760D01*
X43547Y266633D01*
Y264272D01*
Y266633D01*
X44334Y267420D01*
X45121Y266633D01*
Y264272D01*
X52993D02*
X51419Y265846D01*
Y267420D01*
X52993Y268994D01*
X55354Y268207D02*
X56142Y268994D01*
X57716D01*
X58503Y268207D01*
Y267420D01*
X57716Y266633D01*
X56929D01*
X57716D01*
X58503Y265846D01*
Y265059D01*
X57716Y264272D01*
X56142D01*
X55354Y265059D01*
X60077D02*
X60864Y264272D01*
X62439D01*
X63226Y265059D01*
Y268207D01*
X62439Y268994D01*
X60864D01*
X60077Y268207D01*
Y267420D01*
X60864Y266633D01*
X63226D01*
X64800Y264272D02*
Y265059D01*
X65587D01*
Y264272D01*
X64800D01*
X68736Y268207D02*
X69523Y268994D01*
X71097D01*
X71885Y268207D01*
Y267420D01*
X71097Y266633D01*
X70310D01*
X71097D01*
X71885Y265846D01*
Y265059D01*
X71097Y264272D01*
X69523D01*
X68736Y265059D01*
X73459Y268994D02*
X76607D01*
Y268207D01*
X73459Y265059D01*
Y264272D01*
X78182D02*
Y267420D01*
X78969D01*
X79756Y266633D01*
Y264272D01*
Y266633D01*
X80543Y267420D01*
X81330Y266633D01*
Y264272D01*
X82904D02*
X84479D01*
X83692D01*
Y267420D01*
X82904D01*
X86840Y264272D02*
X88415D01*
X87627D01*
Y268994D01*
X86840D01*
X90776Y264272D02*
X92350Y265846D01*
Y267420D01*
X90776Y268994D01*
X15210Y256396D02*
X15997Y257184D01*
X17571D01*
X18359Y256396D01*
Y255609D01*
X17571Y254822D01*
X16784D01*
X17571D01*
X18359Y254035D01*
Y253248D01*
X17571Y252461D01*
X15997D01*
X15210Y253248D01*
X19933Y252461D02*
Y253248D01*
X20720D01*
Y252461D01*
X19933D01*
X27017D02*
X23868D01*
X27017Y255609D01*
Y256396D01*
X26230Y257184D01*
X24656D01*
X23868Y256396D01*
X28591D02*
X29379Y257184D01*
X30953D01*
X31740Y256396D01*
Y253248D01*
X30953Y252461D01*
X29379D01*
X28591Y253248D01*
Y256396D01*
X33314D02*
X34101Y257184D01*
X35676D01*
X36463Y256396D01*
Y253248D01*
X35676Y252461D01*
X34101D01*
X33314Y253248D01*
Y256396D01*
X38037Y252461D02*
Y255609D01*
X38824D01*
X39611Y254822D01*
Y252461D01*
Y254822D01*
X40399Y255609D01*
X41186Y254822D01*
Y252461D01*
X42760D02*
Y255609D01*
X43547D01*
X44334Y254822D01*
Y252461D01*
Y254822D01*
X45121Y255609D01*
X45909Y254822D01*
Y252461D01*
X53780D02*
X52206Y254035D01*
Y255609D01*
X53780Y257184D01*
X56142Y252461D02*
X57716D01*
X56929D01*
Y257184D01*
X56142Y256396D01*
X63226Y252461D02*
X60077D01*
X63226Y255609D01*
Y256396D01*
X62439Y257184D01*
X60864D01*
X60077Y256396D01*
X67949Y257184D02*
X64800D01*
Y254822D01*
X66374Y255609D01*
X67162D01*
X67949Y254822D01*
Y253248D01*
X67162Y252461D01*
X65587D01*
X64800Y253248D01*
X69523Y252461D02*
Y253248D01*
X70310D01*
Y252461D01*
X69523D01*
X73459Y253248D02*
X74246Y252461D01*
X75820D01*
X76607Y253248D01*
Y256396D01*
X75820Y257184D01*
X74246D01*
X73459Y256396D01*
Y255609D01*
X74246Y254822D01*
X76607D01*
X78182Y256396D02*
X78969Y257184D01*
X80543D01*
X81330Y256396D01*
Y255609D01*
X80543Y254822D01*
X81330Y254035D01*
Y253248D01*
X80543Y252461D01*
X78969D01*
X78182Y253248D01*
Y254035D01*
X78969Y254822D01*
X78182Y255609D01*
Y256396D01*
X78969Y254822D02*
X80543D01*
X82904Y252461D02*
Y255609D01*
X83692D01*
X84479Y254822D01*
Y252461D01*
Y254822D01*
X85266Y255609D01*
X86053Y254822D01*
Y252461D01*
X87627D02*
X89202D01*
X88415D01*
Y255609D01*
X87627D01*
X91563Y252461D02*
X93137D01*
X92350D01*
Y257184D01*
X91563D01*
X95499Y252461D02*
X97073Y254035D01*
Y255609D01*
X95499Y257184D01*
X-24937Y240650D02*
Y245373D01*
X-27299Y243011D01*
X-24150D01*
X-20214Y240650D02*
Y245373D01*
X-22576Y243011D01*
X-19427D01*
X-13130Y245373D02*
X-9982D01*
X-11556D01*
Y240650D01*
X-7620D02*
X-6046D01*
X-5259Y241437D01*
Y243011D01*
X-6046Y243798D01*
X-7620D01*
X-8407Y243011D01*
Y241437D01*
X-7620Y240650D01*
X-2897Y244585D02*
Y243798D01*
X-3684D01*
X-2110D01*
X-2897D01*
Y241437D01*
X-2110Y240650D01*
X1039Y243798D02*
X2613D01*
X3400Y243011D01*
Y240650D01*
X1039D01*
X251Y241437D01*
X1039Y242224D01*
X3400D01*
X4974Y240650D02*
X6549D01*
X5761D01*
Y245373D01*
X4974D01*
X-27299Y291829D02*
X-26512Y292617D01*
X-24937D01*
X-24150Y291829D01*
Y291042D01*
X-24937Y290255D01*
X-24150Y289468D01*
Y288681D01*
X-24937Y287894D01*
X-26512D01*
X-27299Y288681D01*
Y289468D01*
X-26512Y290255D01*
X-27299Y291042D01*
Y291829D01*
X-26512Y290255D02*
X-24937D01*
X-24150Y276083D02*
X-27299D01*
X-24150Y279231D01*
Y280018D01*
X-24937Y280806D01*
X-26512D01*
X-27299Y280018D01*
Y268207D02*
X-26512Y268994D01*
X-24937D01*
X-24150Y268207D01*
Y267420D01*
X-24937Y266633D01*
X-25725D01*
X-24937D01*
X-24150Y265846D01*
Y265059D01*
X-24937Y264272D01*
X-26512D01*
X-27299Y265059D01*
X-22576Y268207D02*
X-21789Y268994D01*
X-20214D01*
X-19427Y268207D01*
Y265059D01*
X-20214Y264272D01*
X-21789D01*
X-22576Y265059D01*
Y268207D01*
X-24937Y252461D02*
Y257184D01*
X-27299Y254822D01*
X-24150D01*
D11*
X-115650Y-100787D02*
X530020D01*
X-14469D02*
Y-21606D01*
X148463Y-100492D02*
Y-45565D01*
X-14173Y-83065D02*
X329429Y-83065D01*
X329713Y-100394D02*
Y-21803D01*
X-14173Y-64315D02*
X529713Y-64315D01*
X-13976Y-45565D02*
X529290Y-45565D01*
X-14469Y-21606D02*
X529713D01*
X-115650Y355264D02*
X530020D01*
X-115650Y-100787D02*
Y355264D01*
X530020Y-100433D02*
Y355264D01*
X329921Y-45228D02*
Y-21606D01*
X398709Y-45171D02*
Y-21555D01*
X81004Y-90728D02*
Y-97539D01*
X85545Y-90728D02*
Y-97539D01*
X81004Y-93972D02*
X85545D01*
X92615Y-97539D02*
X90021Y-90728D01*
X87426Y-97539D01*
X88399Y-95269D02*
X91642D01*
X98745Y-91701D02*
X98096Y-91053D01*
X97123Y-90728D01*
X95826D01*
X94853Y-91053D01*
X94204Y-91701D01*
Y-92350D01*
X94529Y-92999D01*
X94853Y-93323D01*
X95502Y-93647D01*
X97448Y-94296D01*
X98096Y-94620D01*
X98421Y-94945D01*
X98745Y-95593D01*
Y-96566D01*
X98096Y-97215D01*
X97123Y-97539D01*
X95826D01*
X94853Y-97215D01*
X94204Y-96566D01*
X100269Y-90728D02*
Y-97539D01*
X104162D01*
X214961Y-88760D02*
X217555Y-92003D01*
Y-95571D01*
X220150Y-88760D02*
X217555Y-92003D01*
X224918Y-91030D02*
Y-95571D01*
Y-92003D02*
X224269Y-91355D01*
X223620Y-91030D01*
X222647D01*
X221999Y-91355D01*
X221350Y-92003D01*
X221026Y-92976D01*
Y-93625D01*
X221350Y-94598D01*
X221999Y-95246D01*
X222647Y-95571D01*
X223620D01*
X224269Y-95246D01*
X224918Y-94598D01*
X226734Y-91030D02*
Y-95571D01*
Y-92327D02*
X227707Y-91355D01*
X228356Y-91030D01*
X229329D01*
X229977Y-91355D01*
X230302Y-92327D01*
Y-95571D01*
X242302Y-90381D02*
X241978Y-89733D01*
X241329Y-89084D01*
X240680Y-88760D01*
X239383D01*
X238734Y-89084D01*
X238086Y-89733D01*
X237761Y-90381D01*
X237437Y-91355D01*
Y-92976D01*
X237761Y-93949D01*
X238086Y-94598D01*
X238734Y-95246D01*
X239383Y-95571D01*
X240680D01*
X241329Y-95246D01*
X241978Y-94598D01*
X242302Y-93949D01*
X244540Y-94922D02*
X244216Y-95246D01*
X244540Y-95571D01*
X244864Y-95246D01*
X244540Y-94922D01*
X255600Y-88760D02*
Y-95571D01*
Y-92003D02*
X254951Y-91355D01*
X254303Y-91030D01*
X253329D01*
X252681Y-91355D01*
X252032Y-92003D01*
X251708Y-92976D01*
Y-93625D01*
X252032Y-94598D01*
X252681Y-95246D01*
X253329Y-95571D01*
X254303D01*
X254951Y-95246D01*
X255600Y-94598D01*
X257416Y-92976D02*
X261308D01*
Y-92327D01*
X260984Y-91679D01*
X260660Y-91355D01*
X260011Y-91030D01*
X259038D01*
X258389Y-91355D01*
X257740Y-92003D01*
X257416Y-92976D01*
Y-93625D01*
X257740Y-94598D01*
X258389Y-95246D01*
X259038Y-95571D01*
X260011D01*
X260660Y-95246D01*
X261308Y-94598D01*
X273308Y-95571D02*
X270714Y-88760D01*
X268119Y-95571D01*
X269092Y-93300D02*
X272336D01*
X278466Y-91030D02*
X274898Y-95571D01*
Y-91030D02*
X278466D01*
X274898Y-95571D02*
X278466D01*
X279892Y-92976D02*
X283785D01*
Y-92327D01*
X283460Y-91679D01*
X283136Y-91355D01*
X282487Y-91030D01*
X281514D01*
X280866Y-91355D01*
X280217Y-92003D01*
X279892Y-92976D01*
Y-93625D01*
X280217Y-94598D01*
X280866Y-95246D01*
X281514Y-95571D01*
X282487D01*
X283136Y-95246D01*
X283785Y-94598D01*
X285244Y-91030D02*
Y-95571D01*
Y-92976D02*
X285568Y-92003D01*
X286217Y-91355D01*
X286866Y-91030D01*
X287839D01*
X288455Y-92976D02*
X292347D01*
Y-92327D01*
X292023Y-91679D01*
X291698Y-91355D01*
X291050Y-91030D01*
X290077D01*
X289428Y-91355D01*
X288779Y-92003D01*
X288455Y-92976D01*
Y-93625D01*
X288779Y-94598D01*
X289428Y-95246D01*
X290077Y-95571D01*
X291050D01*
X291698Y-95246D01*
X292347Y-94598D01*
X297698Y-88760D02*
Y-95571D01*
Y-92003D02*
X297050Y-91355D01*
X296401Y-91030D01*
X295428D01*
X294779Y-91355D01*
X294131Y-92003D01*
X293807Y-92976D01*
Y-93625D01*
X294131Y-94598D01*
X294779Y-95246D01*
X295428Y-95571D01*
X296401D01*
X297050Y-95246D01*
X297698Y-94598D01*
X301136Y-91030D02*
X300488Y-91355D01*
X299839Y-92003D01*
X299515Y-92976D01*
Y-93625D01*
X299839Y-94598D01*
X300488Y-95246D01*
X301136Y-95571D01*
X302110D01*
X302758Y-95246D01*
X303407Y-94598D01*
X303731Y-93625D01*
Y-92976D01*
X303407Y-92003D01*
X302758Y-91355D01*
X302110Y-91030D01*
X301136D01*
X109153Y-78347D02*
X111674D01*
X110414D01*
Y-70786D01*
X109153Y-72046D01*
X115454Y-78347D02*
Y-77087D01*
X116714D01*
Y-78347D01*
X115454D01*
X126794Y-70786D02*
X124274Y-72046D01*
X121754Y-74566D01*
Y-77087D01*
X123014Y-78347D01*
X125534D01*
X126794Y-77087D01*
Y-75826D01*
X125534Y-74566D01*
X121754D01*
X129314Y-78347D02*
Y-73306D01*
X130574D01*
X131834Y-74566D01*
Y-78347D01*
Y-74566D01*
X133094Y-73306D01*
X134354Y-74566D01*
Y-78347D01*
X136874D02*
Y-73306D01*
X138134D01*
X139394Y-74566D01*
Y-78347D01*
Y-74566D01*
X140654Y-73306D01*
X141914Y-74566D01*
Y-78347D01*
X64458Y-51390D02*
X59418D01*
Y-55170D01*
X61938D01*
X59418D01*
Y-58950D01*
X66978D02*
Y-51390D01*
X70758D01*
X72018Y-52650D01*
Y-55170D01*
X70758Y-56430D01*
X66978D01*
X69498D02*
X72018Y-58950D01*
X78318D02*
Y-51390D01*
X74538Y-55170D01*
X79578D01*
X374803Y-37992D02*
X377323D01*
X376063D01*
Y-30432D01*
X374803Y-31692D01*
X381103Y-37992D02*
Y-36732D01*
X382363D01*
Y-37992D01*
X381103D01*
X387403Y-31692D02*
X388663Y-30432D01*
X391183D01*
X392443Y-31692D01*
Y-36732D01*
X391183Y-37992D01*
X388663D01*
X387403Y-36732D01*
Y-31692D01*
X449409D02*
X450669Y-30432D01*
X453190D01*
X454450Y-31692D01*
Y-36732D01*
X453190Y-37992D01*
X450669D01*
X449409Y-36732D01*
Y-31692D01*
X462010Y-37992D02*
X456969D01*
X462010Y-32952D01*
Y-31692D01*
X460749Y-30432D01*
X458229D01*
X456969Y-31692D01*
X464530Y-37992D02*
X469570Y-32952D01*
X472090Y-31692D02*
X473350Y-30432D01*
X475870D01*
X477130Y-31692D01*
Y-36732D01*
X475870Y-37992D01*
X473350D01*
X472090Y-36732D01*
Y-31692D01*
X479650Y-30432D02*
X484690D01*
Y-31692D01*
X479650Y-36732D01*
Y-37992D01*
X487210D02*
X492250Y-32952D01*
X499810Y-37992D02*
X494770D01*
X499810Y-32952D01*
Y-31692D01*
X498550Y-30432D01*
X496030D01*
X494770Y-31692D01*
X502330D02*
X503590Y-30432D01*
X506110D01*
X507370Y-31692D01*
Y-36732D01*
X506110Y-37992D01*
X503590D01*
X502330Y-36732D01*
Y-31692D01*
X514930Y-37992D02*
X509890D01*
X514930Y-32952D01*
Y-31692D01*
X513670Y-30432D01*
X511150D01*
X509890Y-31692D01*
X517450D02*
X518710Y-30432D01*
X521230D01*
X522490Y-31692D01*
Y-36732D01*
X521230Y-37992D01*
X518710D01*
X517450Y-36732D01*
Y-31692D01*
X335957Y-69030D02*
X335038Y-68112D01*
X333202D01*
X332283Y-69030D01*
Y-69949D01*
X333202Y-70867D01*
X335038D01*
X335957Y-71785D01*
Y-72704D01*
X335038Y-73622D01*
X333202D01*
X332283Y-72704D01*
X337793Y-75459D02*
Y-69949D01*
X340548D01*
X341467Y-70867D01*
Y-72704D01*
X340548Y-73622D01*
X337793D01*
X344222Y-69949D02*
X346059D01*
X346977Y-70867D01*
Y-73622D01*
X344222D01*
X343303Y-72704D01*
X344222Y-71785D01*
X346977D01*
X352487Y-69949D02*
X349732D01*
X348814Y-70867D01*
Y-72704D01*
X349732Y-73622D01*
X352487D01*
X357079D02*
X355242D01*
X354324Y-72704D01*
Y-70867D01*
X355242Y-69949D01*
X357079D01*
X357997Y-70867D01*
Y-71785D01*
X354324D01*
X365344Y-68112D02*
X369017D01*
X367180D01*
Y-73622D01*
X373609D02*
X371772D01*
X370854Y-72704D01*
Y-70867D01*
X371772Y-69949D01*
X373609D01*
X374527Y-70867D01*
Y-71785D01*
X370854D01*
X380037Y-69949D02*
X377282D01*
X376364Y-70867D01*
Y-72704D01*
X377282Y-73622D01*
X380037D01*
X381874Y-68112D02*
Y-73622D01*
Y-70867D01*
X382792Y-69949D01*
X384629D01*
X385547Y-70867D01*
Y-73622D01*
X387384D02*
Y-69949D01*
X390139D01*
X391057Y-70867D01*
Y-73622D01*
X393812D02*
X395649D01*
X396567Y-72704D01*
Y-70867D01*
X395649Y-69949D01*
X393812D01*
X392894Y-70867D01*
Y-72704D01*
X393812Y-73622D01*
X398404D02*
X400241D01*
X399322D01*
Y-68112D01*
X398404D01*
X403914Y-73622D02*
X405751D01*
X406669Y-72704D01*
Y-70867D01*
X405751Y-69949D01*
X403914D01*
X402995Y-70867D01*
Y-72704D01*
X403914Y-73622D01*
X410342Y-75459D02*
X411261D01*
X412179Y-74540D01*
Y-69949D01*
X409424D01*
X408505Y-70867D01*
Y-72704D01*
X409424Y-73622D01*
X412179D01*
X414016Y-69949D02*
Y-72704D01*
X414934Y-73622D01*
X417689D01*
Y-74540D01*
X416771Y-75459D01*
X415852D01*
X417689Y-73622D02*
Y-69949D01*
X425036Y-73622D02*
Y-68112D01*
X427791D01*
X428709Y-69030D01*
Y-70867D01*
X427791Y-71785D01*
X425036D01*
X426872D02*
X428709Y-73622D01*
X433301D02*
X431464D01*
X430546Y-72704D01*
Y-70867D01*
X431464Y-69949D01*
X433301D01*
X434219Y-70867D01*
Y-71785D01*
X430546D01*
X436056Y-73622D02*
X438811D01*
X439729Y-72704D01*
X438811Y-71785D01*
X436974D01*
X436056Y-70867D01*
X436974Y-69949D01*
X439729D01*
X444321Y-73622D02*
X442484D01*
X441566Y-72704D01*
Y-70867D01*
X442484Y-69949D01*
X444321D01*
X445239Y-70867D01*
Y-71785D01*
X441566D01*
X447994Y-69949D02*
X449831D01*
X450749Y-70867D01*
Y-73622D01*
X447994D01*
X447076Y-72704D01*
X447994Y-71785D01*
X450749D01*
X452586Y-69949D02*
Y-73622D01*
Y-71785D01*
X453504Y-70867D01*
X454423Y-69949D01*
X455341D01*
X461769D02*
X459014D01*
X458096Y-70867D01*
Y-72704D01*
X459014Y-73622D01*
X461769D01*
X463606Y-68112D02*
Y-73622D01*
Y-70867D01*
X464524Y-69949D01*
X466361D01*
X467279Y-70867D01*
Y-73622D01*
X474626Y-68112D02*
Y-73622D01*
X478299D01*
X481054Y-69949D02*
X482891D01*
X483809Y-70867D01*
Y-73622D01*
X481054D01*
X480136Y-72704D01*
X481054Y-71785D01*
X483809D01*
X485646Y-68112D02*
Y-73622D01*
X488401D01*
X489319Y-72704D01*
Y-71785D01*
Y-70867D01*
X488401Y-69949D01*
X485646D01*
X492074Y-73622D02*
X493911D01*
X494829Y-72704D01*
Y-70867D01*
X493911Y-69949D01*
X492074D01*
X491156Y-70867D01*
Y-72704D01*
X492074Y-73622D01*
X496666Y-69949D02*
Y-73622D01*
Y-71785D01*
X497584Y-70867D01*
X498503Y-69949D01*
X499421D01*
X503094D02*
X504931D01*
X505849Y-70867D01*
Y-73622D01*
X503094D01*
X502176Y-72704D01*
X503094Y-71785D01*
X505849D01*
X508604Y-69030D02*
Y-69949D01*
X507686D01*
X509523D01*
X508604D01*
Y-72704D01*
X509523Y-73622D01*
X513196D02*
X515033D01*
X515951Y-72704D01*
Y-70867D01*
X515033Y-69949D01*
X513196D01*
X512278Y-70867D01*
Y-72704D01*
X513196Y-73622D01*
X517788Y-69949D02*
Y-73622D01*
Y-71785D01*
X518706Y-70867D01*
X519625Y-69949D01*
X520543D01*
X523298D02*
Y-72704D01*
X524216Y-73622D01*
X526971D01*
Y-74540D01*
X526053Y-75459D01*
X525135D01*
X526971Y-73622D02*
Y-69949D01*
X338516Y-78545D02*
X334842D01*
Y-81300D01*
X336679D01*
X334842D01*
Y-84055D01*
X343108D02*
X341271D01*
X340353Y-83137D01*
Y-81300D01*
X341271Y-80382D01*
X343108D01*
X344026Y-81300D01*
Y-82218D01*
X340353D01*
X349536Y-78545D02*
Y-84055D01*
X346781D01*
X345863Y-83137D01*
Y-81300D01*
X346781Y-80382D01*
X349536D01*
X354128Y-84055D02*
X352291D01*
X351373Y-83137D01*
Y-81300D01*
X352291Y-80382D01*
X354128D01*
X355046Y-81300D01*
Y-82218D01*
X351373D01*
X356883Y-80382D02*
Y-84055D01*
Y-82218D01*
X357801Y-81300D01*
X358719Y-80382D01*
X359638D01*
X363311D02*
X365148D01*
X366066Y-81300D01*
Y-84055D01*
X363311D01*
X362393Y-83137D01*
X363311Y-82218D01*
X366066D01*
X367903Y-84055D02*
X369739D01*
X368821D01*
Y-78545D01*
X367903D01*
X378004D02*
Y-83137D01*
X378923Y-84055D01*
X380759D01*
X381678Y-83137D01*
Y-78545D01*
X383514Y-84055D02*
Y-80382D01*
X386269D01*
X387188Y-81300D01*
Y-84055D01*
X389024D02*
X390861D01*
X389943D01*
Y-80382D01*
X389024D01*
X393616D02*
X395453Y-84055D01*
X397289Y-80382D01*
X401881Y-84055D02*
X400044D01*
X399126Y-83137D01*
Y-81300D01*
X400044Y-80382D01*
X401881D01*
X402800Y-81300D01*
Y-82218D01*
X399126D01*
X404636Y-80382D02*
Y-84055D01*
Y-82218D01*
X405555Y-81300D01*
X406473Y-80382D01*
X407391D01*
X410146Y-84055D02*
X412901D01*
X413820Y-83137D01*
X412901Y-82218D01*
X411065D01*
X410146Y-81300D01*
X411065Y-80382D01*
X413820D01*
X415656Y-84055D02*
X417493D01*
X416575D01*
Y-80382D01*
X415656D01*
X421166Y-79463D02*
Y-80382D01*
X420248D01*
X422085D01*
X421166D01*
Y-83137D01*
X422085Y-84055D01*
X424840Y-80382D02*
Y-83137D01*
X425758Y-84055D01*
X428513D01*
Y-84974D01*
X427595Y-85892D01*
X426676D01*
X428513Y-84055D02*
Y-80382D01*
X436778Y-84055D02*
X438615D01*
X439533Y-83137D01*
Y-81300D01*
X438615Y-80382D01*
X436778D01*
X435860Y-81300D01*
Y-83137D01*
X436778Y-84055D01*
X442288D02*
Y-79463D01*
Y-81300D01*
X441370D01*
X443207D01*
X442288D01*
Y-79463D01*
X443207Y-78545D01*
X455145Y-79463D02*
X454226Y-78545D01*
X452390D01*
X451472Y-79463D01*
Y-80382D01*
X452390Y-81300D01*
X454226D01*
X455145Y-82218D01*
Y-83137D01*
X454226Y-84055D01*
X452390D01*
X451472Y-83137D01*
X457900Y-80382D02*
X459736D01*
X460655Y-81300D01*
Y-84055D01*
X457900D01*
X456982Y-83137D01*
X457900Y-82218D01*
X460655D01*
X462492Y-84055D02*
Y-80382D01*
X465247D01*
X466165Y-81300D01*
Y-84055D01*
X468920Y-79463D02*
Y-80382D01*
X468002D01*
X469838D01*
X468920D01*
Y-83137D01*
X469838Y-84055D01*
X473512Y-80382D02*
X475348D01*
X476267Y-81300D01*
Y-84055D01*
X473512D01*
X472593Y-83137D01*
X473512Y-82218D01*
X476267D01*
X487287Y-79463D02*
X486368Y-78545D01*
X484532D01*
X483613Y-79463D01*
Y-83137D01*
X484532Y-84055D01*
X486368D01*
X487287Y-83137D01*
X490042Y-80382D02*
X491878D01*
X492797Y-81300D01*
Y-84055D01*
X490042D01*
X489123Y-83137D01*
X490042Y-82218D01*
X492797D01*
X495552Y-79463D02*
Y-80382D01*
X494633D01*
X496470D01*
X495552D01*
Y-83137D01*
X496470Y-84055D01*
X500143Y-80382D02*
X501980D01*
X502898Y-81300D01*
Y-84055D01*
X500143D01*
X499225Y-83137D01*
X500143Y-82218D01*
X502898D01*
X504735Y-80382D02*
Y-84055D01*
Y-82218D01*
X505653Y-81300D01*
X506572Y-80382D01*
X507490D01*
X510245Y-84055D02*
X512082D01*
X511164D01*
Y-80382D01*
X510245D01*
X514837Y-84055D02*
Y-80382D01*
X517592D01*
X518510Y-81300D01*
Y-84055D01*
X521265Y-80382D02*
X523102D01*
X524020Y-81300D01*
Y-84055D01*
X521265D01*
X520347Y-83137D01*
X521265Y-82218D01*
X524020D01*
D14*
X302534Y135506D02*
X307259Y140231D01*
X297810Y135506D02*
X307259Y144955D01*
X293085Y135506D02*
X302534Y144955D01*
X288361Y135506D02*
X297810Y144955D01*
X283636Y135506D02*
X293085Y144955D01*
X278912Y135506D02*
X288361Y144955D01*
X274188Y135506D02*
X283636Y144955D01*
X269463Y135506D02*
X278912Y144955D01*
X264739Y135506D02*
X274188Y144955D01*
X260014Y135506D02*
X269463Y144955D01*
X255290Y135506D02*
X264739Y144955D01*
X250566Y135506D02*
X260014Y144955D01*
X245841Y135506D02*
X255290Y144955D01*
X241117Y135506D02*
X250566Y144955D01*
X236392Y135506D02*
X245841Y144955D01*
X231668Y135506D02*
X241117Y144955D01*
X226943Y135506D02*
X236392Y144955D01*
X222219Y135506D02*
X231668Y144955D01*
X219094Y137106D02*
X226943Y144955D01*
X219094Y141831D02*
X222219Y144955D01*
X302534D02*
X307259Y149680D01*
X297810Y144955D02*
X307259Y154404D01*
X293085Y144955D02*
X302534Y154404D01*
X288361Y144955D02*
X297810Y154404D01*
X283636Y144955D02*
X293085Y154404D01*
X278912Y144955D02*
X288361Y154404D01*
X274188Y144955D02*
X283636Y154404D01*
X269463Y144955D02*
X278912Y154404D01*
X264739Y144955D02*
X274188Y154404D01*
X260014Y144955D02*
X269463Y154404D01*
X255290Y144955D02*
X264739Y154404D01*
X250566Y144955D02*
X260014Y154404D01*
X245841Y144955D02*
X255290Y154404D01*
X241117Y144955D02*
X250566Y154404D01*
X236392Y144955D02*
X245841Y154404D01*
X231668Y144955D02*
X241117Y154404D01*
X226943Y144955D02*
X236392Y154404D01*
X222219Y144955D02*
X231668Y154404D01*
X219094Y146555D02*
X226943Y154404D01*
X219094Y151279D02*
X222219Y154404D01*
X302534D02*
X307259Y159129D01*
X297810Y154404D02*
X307259Y163853D01*
X293085Y154404D02*
X302534Y163853D01*
X288361Y154404D02*
X297810Y163853D01*
X283636Y154404D02*
X293085Y163853D01*
X278912Y154404D02*
X288361Y163853D01*
X274188Y154404D02*
X283636Y163853D01*
X269463Y154404D02*
X278912Y163853D01*
X264739Y154404D02*
X274188Y163853D01*
X260014Y154404D02*
X269463Y163853D01*
X255290Y154404D02*
X264739Y163853D01*
X250566Y154404D02*
X260014Y163853D01*
X245841Y154404D02*
X255290Y163853D01*
X241117Y154404D02*
X250566Y163853D01*
X236392Y154404D02*
X245841Y163853D01*
X231668Y154404D02*
X241117Y163853D01*
X226943Y154404D02*
X236392Y163853D01*
X222219Y154404D02*
X231668Y163853D01*
X219094Y156004D02*
X226943Y163853D01*
X219094Y160728D02*
X222219Y163853D01*
X302534D02*
X307259Y168577D01*
X297810Y163853D02*
X307259Y173302D01*
X293085Y163853D02*
X302534Y173302D01*
X288361Y163853D02*
X297810Y173302D01*
X283636Y163853D02*
X293085Y173302D01*
X278912Y163853D02*
X288361Y173302D01*
X274188Y163853D02*
X283636Y173302D01*
X269463Y163853D02*
X278912Y173302D01*
X264739Y163853D02*
X274188Y173302D01*
X260014Y163853D02*
X269463Y173302D01*
X255290Y163853D02*
X264739Y173302D01*
X250566Y163853D02*
X260014Y173302D01*
X245841Y163853D02*
X255290Y173302D01*
X241117Y163853D02*
X250566Y173302D01*
X236392Y163853D02*
X245841Y173302D01*
X231668Y163853D02*
X241117Y173302D01*
X226943Y163853D02*
X236392Y173302D01*
X222219Y163853D02*
X231668Y173302D01*
X219094Y165453D02*
X226943Y173302D01*
X219094Y170177D02*
X222219Y173302D01*
X302534D02*
X307259Y178026D01*
X297810Y173302D02*
X307259Y182751D01*
X293085Y173302D02*
X302534Y182751D01*
X288361Y173302D02*
X297810Y182751D01*
X283636Y173302D02*
X293085Y182751D01*
X278912Y173302D02*
X288361Y182751D01*
X274188Y173302D02*
X283636Y182751D01*
X269463Y173302D02*
X278912Y182751D01*
X264739Y173302D02*
X274188Y182751D01*
X260014Y173302D02*
X269463Y182751D01*
X255290Y173302D02*
X264739Y182751D01*
X250566Y173302D02*
X260014Y182751D01*
X245841Y173302D02*
X255290Y182751D01*
X241117Y173302D02*
X250566Y182751D01*
X236392Y173302D02*
X245841Y182751D01*
X231668Y173302D02*
X241117Y182751D01*
X226943Y173302D02*
X236392Y182751D01*
X222219Y173302D02*
X231668Y182751D01*
X219094Y174902D02*
X226943Y182751D01*
X219094Y179626D02*
X222219Y182751D01*
X302534D02*
X307259Y187475D01*
X297810Y182751D02*
X307259Y192199D01*
X293085Y182751D02*
X302534Y192199D01*
X288361Y182751D02*
X297810Y192199D01*
X283636Y182751D02*
X293085Y192199D01*
X278912Y182751D02*
X288361Y192199D01*
X274188Y182751D02*
X283636Y192199D01*
X269463Y182751D02*
X278912Y192199D01*
X264739Y182751D02*
X274188Y192199D01*
X260014Y182751D02*
X269463Y192199D01*
X255290Y182751D02*
X264739Y192199D01*
X250566Y182751D02*
X260014Y192199D01*
X245841Y182751D02*
X255290Y192199D01*
X241117Y182751D02*
X250566Y192199D01*
X236392Y182751D02*
X245841Y192199D01*
X231668Y182751D02*
X241117Y192199D01*
X226943Y182751D02*
X236392Y192199D01*
X222219Y182751D02*
X231668Y192199D01*
X219094Y184350D02*
X226943Y192199D01*
X219094Y189075D02*
X222219Y192199D01*
X302534D02*
X307259Y196924D01*
X297810Y192199D02*
X307259Y201648D01*
X293085Y192199D02*
X302534Y201648D01*
X288361Y192199D02*
X297810Y201648D01*
X283636Y192199D02*
X293085Y201648D01*
X278912Y192199D02*
X288361Y201648D01*
X274188Y192199D02*
X283636Y201648D01*
X269463Y192199D02*
X278912Y201648D01*
X264739Y192199D02*
X274188Y201648D01*
X260014Y192199D02*
X269463Y201648D01*
X255290Y192199D02*
X264739Y201648D01*
X250566Y192199D02*
X260014Y201648D01*
X245841Y192199D02*
X255290Y201648D01*
X241117Y192199D02*
X250566Y201648D01*
X236392Y192199D02*
X245841Y201648D01*
X231668Y192199D02*
X241117Y201648D01*
X226943Y192199D02*
X236392Y201648D01*
X222219Y192199D02*
X231668Y201648D01*
X219094Y193799D02*
X226943Y201648D01*
X219094Y198524D02*
X222219Y201648D01*
D15*
X154134Y-70196D02*
Y-77756D01*
X159174D01*
X162954Y-72716D02*
X165474D01*
X166734Y-73976D01*
Y-77756D01*
X162954D01*
X161694Y-76496D01*
X162954Y-75236D01*
X166734D01*
X169254Y-72716D02*
Y-76496D01*
X170514Y-77756D01*
X174294D01*
Y-79016D01*
X173034Y-80276D01*
X171774D01*
X174294Y-77756D02*
Y-72716D01*
X180594Y-77756D02*
X178074D01*
X176814Y-76496D01*
Y-73976D01*
X178074Y-72716D01*
X180594D01*
X181854Y-73976D01*
Y-75236D01*
X176814D01*
X184374Y-72716D02*
Y-77756D01*
Y-75236D01*
X185634Y-73976D01*
X186894Y-72716D01*
X188154D01*
X191934Y-77756D02*
X195714D01*
X196974Y-76496D01*
X195714Y-75236D01*
X193194D01*
X191934Y-73976D01*
X193194Y-72716D01*
X196974D01*
X199494D02*
X200754D01*
Y-73976D01*
X199494D01*
Y-72716D01*
Y-76496D02*
X200754D01*
Y-77756D01*
X199494D01*
Y-76496D01*
X213354Y-71456D02*
X214614Y-70196D01*
X217134D01*
X218394Y-71456D01*
Y-76496D01*
X217134Y-77756D01*
X214614D01*
X213354Y-76496D01*
Y-71456D01*
X225954Y-77756D02*
X220914D01*
X225954Y-72716D01*
Y-71456D01*
X224694Y-70196D01*
X222174D01*
X220914Y-71456D01*
X-8111Y-70140D02*
Y-77700D01*
X-4332D01*
X-3071Y-76440D01*
Y-75180D01*
X-4332Y-73920D01*
X-8111D01*
X-4332D01*
X-3071Y-72660D01*
Y-71400D01*
X-4332Y-70140D01*
X-8111D01*
X709Y-77700D02*
X3229D01*
X4489Y-76440D01*
Y-73920D01*
X3229Y-72660D01*
X709D01*
X-551Y-73920D01*
Y-76440D01*
X709Y-77700D01*
X8269Y-72660D02*
X10789D01*
X12049Y-73920D01*
Y-77700D01*
X8269D01*
X7009Y-76440D01*
X8269Y-75180D01*
X12049D01*
X14569Y-72660D02*
Y-77700D01*
Y-75180D01*
X15829Y-73920D01*
X17089Y-72660D01*
X18349D01*
X27169Y-70140D02*
Y-77700D01*
X23389D01*
X22129Y-76440D01*
Y-73920D01*
X23389Y-72660D01*
X27169D01*
X37249Y-70140D02*
X42289D01*
X39769D01*
Y-77700D01*
X44809Y-70140D02*
Y-77700D01*
Y-73920D01*
X46069Y-72660D01*
X48589D01*
X49849Y-73920D01*
Y-77700D01*
X52369D02*
X54889D01*
X53629D01*
Y-72660D01*
X52369D01*
X63709D02*
X59929D01*
X58669Y-73920D01*
Y-76440D01*
X59929Y-77700D01*
X63709D01*
X66229D02*
Y-70140D01*
Y-75180D02*
X70009Y-72660D01*
X66229Y-75180D02*
X70009Y-77700D01*
X73789D02*
Y-72660D01*
X77569D01*
X78829Y-73920D01*
Y-77700D01*
X85129D02*
X82609D01*
X81349Y-76440D01*
Y-73920D01*
X82609Y-72660D01*
X85129D01*
X86389Y-73920D01*
Y-75180D01*
X81349D01*
X88909Y-77700D02*
X92689D01*
X93949Y-76440D01*
X92689Y-75180D01*
X90169D01*
X88909Y-73920D01*
X90169Y-72660D01*
X93949D01*
X96469Y-77700D02*
X100249D01*
X101509Y-76440D01*
X100249Y-75180D01*
X97729D01*
X96469Y-73920D01*
X97729Y-72660D01*
X101509D01*
X104029D02*
X105289D01*
Y-73920D01*
X104029D01*
Y-72660D01*
Y-76440D02*
X105289D01*
Y-77700D01*
X104029D01*
Y-76440D01*
X158387Y-52066D02*
X157126Y-50806D01*
X154606D01*
X153347Y-52066D01*
Y-53326D01*
X154606Y-54586D01*
X157126D01*
X158387Y-55846D01*
Y-57106D01*
X157126Y-58366D01*
X154606D01*
X153347Y-57106D01*
X160907Y-58366D02*
X163426D01*
X162167D01*
Y-53326D01*
X160907D01*
X167207Y-58366D02*
X169727D01*
X168467D01*
Y-50806D01*
X167207D01*
X173507Y-58366D02*
Y-50806D01*
Y-55846D02*
X177287Y-53326D01*
X173507Y-55846D02*
X177287Y-58366D01*
X181067D02*
X184847D01*
X186107Y-57106D01*
X184847Y-55846D01*
X182327D01*
X181067Y-54586D01*
X182327Y-53326D01*
X186107D01*
X193667D02*
X189887D01*
X188627Y-54586D01*
Y-57106D01*
X189887Y-58366D01*
X193667D01*
X196187Y-53326D02*
Y-58366D01*
Y-55846D01*
X197447Y-54586D01*
X198707Y-53326D01*
X199967D01*
X207527Y-58366D02*
X205007D01*
X203747Y-57106D01*
Y-54586D01*
X205007Y-53326D01*
X207527D01*
X208787Y-54586D01*
Y-55846D01*
X203747D01*
X215087Y-58366D02*
X212567D01*
X211307Y-57106D01*
Y-54586D01*
X212567Y-53326D01*
X215087D01*
X216347Y-54586D01*
Y-55846D01*
X211307D01*
X218867Y-58366D02*
Y-53326D01*
X222647D01*
X223907Y-54586D01*
Y-58366D01*
X239027Y-53326D02*
X235247D01*
X233987Y-54586D01*
Y-57106D01*
X235247Y-58366D01*
X239027D01*
X242807D02*
X245327D01*
X246587Y-57106D01*
Y-54586D01*
X245327Y-53326D01*
X242807D01*
X241547Y-54586D01*
Y-57106D01*
X242807Y-58366D01*
X249107D02*
X251627D01*
X250367D01*
Y-50806D01*
X249107D01*
X256667Y-58366D02*
X259187D01*
X260447Y-57106D01*
Y-54586D01*
X259187Y-53326D01*
X256667D01*
X255407Y-54586D01*
Y-57106D01*
X256667Y-58366D01*
X262967Y-53326D02*
Y-58366D01*
Y-55846D01*
X264227Y-54586D01*
X265487Y-53326D01*
X266747D01*
X270527D02*
X271787D01*
Y-54586D01*
X270527D01*
Y-53326D01*
Y-57106D02*
X271787D01*
Y-58366D01*
X270527D01*
Y-57106D01*
X284387Y-53326D02*
Y-57106D01*
X285648Y-58366D01*
X286908Y-57106D01*
X288168Y-58366D01*
X289428Y-57106D01*
Y-53326D01*
X291948Y-50806D02*
Y-58366D01*
Y-54586D01*
X293208Y-53326D01*
X295728D01*
X296988Y-54586D01*
Y-58366D01*
X299508D02*
X302028D01*
X300768D01*
Y-53326D01*
X299508D01*
X307068Y-52066D02*
Y-53326D01*
X305808D01*
X308328D01*
X307068D01*
Y-57106D01*
X308328Y-58366D01*
X315888D02*
X313368D01*
X312108Y-57106D01*
Y-54586D01*
X313368Y-53326D01*
X315888D01*
X317148Y-54586D01*
Y-55846D01*
X312108D01*
X155118Y-88011D02*
Y-95571D01*
X158898D01*
X160158Y-94311D01*
Y-89271D01*
X158898Y-88011D01*
X155118D01*
X162678Y-90531D02*
Y-95571D01*
Y-93051D01*
X163938Y-91791D01*
X165198Y-90531D01*
X166458D01*
X171498D02*
X174018D01*
X175278Y-91791D01*
Y-95571D01*
X171498D01*
X170238Y-94311D01*
X171498Y-93051D01*
X175278D01*
X177798Y-90531D02*
Y-94311D01*
X179058Y-95571D01*
X180318Y-94311D01*
X181578Y-95571D01*
X182838Y-94311D01*
Y-90531D01*
X185358Y-95571D02*
X187878D01*
X186618D01*
Y-90531D01*
X185358D01*
X191658Y-95571D02*
Y-90531D01*
X195438D01*
X196698Y-91791D01*
Y-95571D01*
X201739Y-98091D02*
X202998D01*
X204258Y-96831D01*
Y-90531D01*
X200479D01*
X199218Y-91791D01*
Y-94311D01*
X200479Y-95571D01*
X204258D01*
X206779Y-90531D02*
X208038D01*
Y-91791D01*
X206779D01*
Y-90531D01*
Y-94311D02*
X208038D01*
Y-95571D01*
X206779D01*
Y-94311D01*
X-6832Y-58950D02*
Y-51390D01*
X-4312Y-53910D01*
X-1792Y-51390D01*
Y-58950D01*
X728D02*
Y-53910D01*
X3248Y-51390D01*
X5768Y-53910D01*
Y-58950D01*
Y-55170D01*
X728D01*
X8288Y-51390D02*
X13328D01*
X10808D01*
Y-58950D01*
X20888Y-51390D02*
X15848D01*
Y-58950D01*
X20888D01*
X15848Y-55170D02*
X18368D01*
X23408Y-58950D02*
Y-51390D01*
X27188D01*
X28448Y-52650D01*
Y-55170D01*
X27188Y-56430D01*
X23408D01*
X25928D02*
X28448Y-58950D01*
X30968Y-51390D02*
X33488D01*
X32228D01*
Y-58950D01*
X30968D01*
X33488D01*
X37268D02*
Y-53910D01*
X39788Y-51390D01*
X42308Y-53910D01*
Y-58950D01*
Y-55170D01*
X37268D01*
X44828Y-51390D02*
Y-58950D01*
X49868D01*
X52388Y-53910D02*
X53649D01*
Y-55170D01*
X52388D01*
Y-53910D01*
Y-57690D02*
X53649D01*
Y-58950D01*
X52388D01*
Y-57690D01*
X407185Y-30137D02*
Y-37697D01*
X410965D01*
X412225Y-36437D01*
Y-31397D01*
X410965Y-30137D01*
X407185D01*
X414745Y-37697D02*
Y-32657D01*
X417265Y-30137D01*
X419785Y-32657D01*
Y-37697D01*
Y-33917D01*
X414745D01*
X422305Y-30137D02*
X427345D01*
X424825D01*
Y-37697D01*
X434905Y-30137D02*
X429865D01*
Y-37697D01*
X434905D01*
X429865Y-33917D02*
X432385D01*
X437425Y-32657D02*
X438685D01*
Y-33917D01*
X437425D01*
Y-32657D01*
Y-36437D02*
X438685D01*
Y-37697D01*
X437425D01*
Y-36437D01*
X338386Y-38929D02*
Y-29432D01*
X343134D01*
X344717Y-31015D01*
Y-34180D01*
X343134Y-35763D01*
X338386D01*
X341551D02*
X344717Y-38929D01*
X354214Y-29432D02*
X347883D01*
Y-38929D01*
X354214D01*
X347883Y-34180D02*
X351048D01*
X357380Y-29432D02*
Y-35763D01*
X360545Y-38929D01*
X363711Y-35763D01*
Y-29432D01*
X366877Y-32598D02*
X368460D01*
Y-34180D01*
X366877D01*
Y-32598D01*
Y-37346D02*
X368460D01*
Y-38929D01*
X366877D01*
Y-37346D01*
X-8858Y-97047D02*
Y-89487D01*
X-5078D01*
X-3818Y-90747D01*
Y-93267D01*
X-5078Y-94527D01*
X-8858D01*
X3742Y-90747D02*
X2482Y-89487D01*
X-38D01*
X-1298Y-90747D01*
Y-95787D01*
X-38Y-97047D01*
X2482D01*
X3742Y-95787D01*
X6262Y-89487D02*
Y-97047D01*
X10042D01*
X11302Y-95787D01*
Y-94527D01*
X10042Y-93267D01*
X6262D01*
X10042D01*
X11302Y-92007D01*
Y-90747D01*
X10042Y-89487D01*
X6262D01*
X26422Y-90747D02*
X25162Y-89487D01*
X22642D01*
X21382Y-90747D01*
Y-92007D01*
X22642Y-93267D01*
X25162D01*
X26422Y-94527D01*
Y-95787D01*
X25162Y-97047D01*
X22642D01*
X21382Y-95787D01*
X28942Y-92007D02*
Y-95787D01*
X30202Y-97047D01*
X33982D01*
Y-92007D01*
X36502D02*
Y-97047D01*
Y-94527D01*
X37762Y-93267D01*
X39022Y-92007D01*
X40282D01*
X45322Y-97047D02*
Y-90747D01*
Y-93267D01*
X44062D01*
X46582D01*
X45322D01*
Y-90747D01*
X46582Y-89487D01*
X51622Y-92007D02*
X54142D01*
X55402Y-93267D01*
Y-97047D01*
X51622D01*
X50362Y-95787D01*
X51622Y-94527D01*
X55402D01*
X62962Y-92007D02*
X59182D01*
X57922Y-93267D01*
Y-95787D01*
X59182Y-97047D01*
X62962D01*
X69262D02*
X66742D01*
X65482Y-95787D01*
Y-93267D01*
X66742Y-92007D01*
X69262D01*
X70522Y-93267D01*
Y-94527D01*
X65482D01*
X73042Y-92007D02*
X74302D01*
Y-93267D01*
X73042D01*
Y-92007D01*
Y-95787D02*
X74302D01*
Y-97047D01*
X73042D01*
Y-95787D01*
X337500Y-59055D02*
Y-51495D01*
X341280D01*
X342540Y-52755D01*
Y-55275D01*
X341280Y-56535D01*
X337500D01*
X345060Y-54015D02*
Y-59055D01*
Y-56535D01*
X346320Y-55275D01*
X347580Y-54015D01*
X348840D01*
X353880Y-59055D02*
X356400D01*
X357660Y-57795D01*
Y-55275D01*
X356400Y-54015D01*
X353880D01*
X352620Y-55275D01*
Y-57795D01*
X353880Y-59055D01*
X360180Y-61575D02*
X361440D01*
X362700Y-60315D01*
Y-54015D01*
X371520Y-59055D02*
X369000D01*
X367740Y-57795D01*
Y-55275D01*
X369000Y-54015D01*
X371520D01*
X372780Y-55275D01*
Y-56535D01*
X367740D01*
X380340Y-54015D02*
X376560D01*
X375300Y-55275D01*
Y-57795D01*
X376560Y-59055D01*
X380340D01*
X384120Y-52755D02*
Y-54015D01*
X382860D01*
X385380D01*
X384120D01*
Y-57795D01*
X385380Y-59055D01*
X389160Y-54015D02*
X390420D01*
Y-55275D01*
X389160D01*
Y-54015D01*
Y-57795D02*
X390420D01*
Y-59055D01*
X389160D01*
Y-57795D01*
X403020Y-51495D02*
X405541D01*
X404281D01*
Y-59055D01*
X403020D01*
X405541D01*
X409321Y-51495D02*
X411841D01*
X410581D01*
Y-59055D01*
X409321D01*
X411841D01*
X415621D02*
Y-51495D01*
X419401D01*
X420661Y-52755D01*
Y-55275D01*
X419401Y-56535D01*
X415621D01*
D16*
X-6201Y-29621D02*
X464D01*
X-2868D01*
Y-39618D01*
X3796Y-29621D02*
X7128D01*
X5462D01*
Y-39618D01*
X3796D01*
X7128D01*
X12127Y-29621D02*
X18791D01*
X15459D01*
Y-39618D01*
X22123Y-29621D02*
Y-39618D01*
X28788D01*
X38785Y-29621D02*
X32120D01*
Y-39618D01*
X38785D01*
X32120Y-34619D02*
X35452D01*
X42117Y-32953D02*
X43783D01*
Y-34619D01*
X42117D01*
Y-32953D01*
Y-37952D02*
X43783D01*
Y-39618D01*
X42117D01*
Y-37952D01*
X60444Y-29621D02*
X63777D01*
X62111D01*
Y-39618D01*
X60444D01*
X63777D01*
X68775Y-29621D02*
X72107D01*
X70441D01*
Y-39618D01*
X68775D01*
X72107D01*
X77106D02*
Y-29621D01*
X82104D01*
X83770Y-31287D01*
Y-34619D01*
X82104Y-36285D01*
X77106D01*
X97099Y-39618D02*
Y-29621D01*
X103764Y-39618D01*
Y-29621D01*
X107096Y-39618D02*
Y-37952D01*
X108762D01*
Y-39618D01*
X107096D01*
X122091D02*
X115427D01*
X122091Y-32953D01*
Y-31287D01*
X120425Y-29621D01*
X117093D01*
X115427Y-31287D01*
X135420Y-29621D02*
Y-39618D01*
X140419D01*
X142085Y-37952D01*
Y-36285D01*
X140419Y-34619D01*
X135420D01*
X140419D01*
X142085Y-32953D01*
Y-31287D01*
X140419Y-29621D01*
X135420D01*
X150415D02*
X147083D01*
X145417Y-31287D01*
Y-37952D01*
X147083Y-39618D01*
X150415D01*
X152081Y-37952D01*
Y-31287D01*
X150415Y-29621D01*
X155414Y-39618D02*
Y-32953D01*
X158746Y-29621D01*
X162078Y-32953D01*
Y-39618D01*
Y-34619D01*
X155414D01*
X165410Y-39618D02*
Y-29621D01*
X170409D01*
X172075Y-31287D01*
Y-34619D01*
X170409Y-36285D01*
X165410D01*
X168743D02*
X172075Y-39618D01*
X175407Y-29621D02*
Y-39618D01*
X180406D01*
X182072Y-37952D01*
Y-31287D01*
X180406Y-29621D01*
X175407D01*
X195401Y-39618D02*
Y-29621D01*
X200399D01*
X202065Y-31287D01*
Y-34619D01*
X200399Y-36285D01*
X195401D01*
X198733D02*
X202065Y-39618D01*
X205398Y-29621D02*
Y-39618D01*
X210396D01*
X212062Y-37952D01*
Y-36285D01*
X210396Y-34619D01*
X205398D01*
X210396D01*
X212062Y-32953D01*
Y-31287D01*
X210396Y-29621D01*
X205398D01*
X222059D02*
X215394D01*
Y-34619D01*
X218726D01*
X215394D01*
Y-39618D01*
D17*
X338418Y-90782D02*
X337499Y-89864D01*
X335662D01*
X334744Y-90782D01*
Y-91701D01*
X335662Y-92619D01*
X337499D01*
X338418Y-93537D01*
Y-94456D01*
X337499Y-95374D01*
X335662D01*
X334744Y-94456D01*
X340254Y-97211D02*
Y-91701D01*
X343009D01*
X343928Y-92619D01*
Y-94456D01*
X343009Y-95374D01*
X340254D01*
X346683Y-91701D02*
X348519D01*
X349437Y-92619D01*
Y-95374D01*
X346683D01*
X345764Y-94456D01*
X346683Y-93537D01*
X349437D01*
X354948Y-91701D02*
X352192D01*
X351274Y-92619D01*
Y-94456D01*
X352192Y-95374D01*
X354948D01*
X359539D02*
X357703D01*
X356784Y-94456D01*
Y-92619D01*
X357703Y-91701D01*
X359539D01*
X360458Y-92619D01*
Y-93537D01*
X356784D01*
X362294Y-89864D02*
Y-95374D01*
X365968D01*
X368723Y-91701D02*
X370559D01*
X371478Y-92619D01*
Y-95374D01*
X368723D01*
X367804Y-94456D01*
X368723Y-93537D01*
X371478D01*
X373314Y-89864D02*
Y-95374D01*
X376069D01*
X376988Y-94456D01*
Y-93537D01*
Y-92619D01*
X376069Y-91701D01*
X373314D01*
X384334Y-89864D02*
Y-94456D01*
X385253Y-95374D01*
X387089D01*
X388008Y-94456D01*
Y-89864D01*
X393518D02*
X389844D01*
Y-92619D01*
X391681D01*
X389844D01*
Y-95374D01*
X399028Y-90782D02*
X398110Y-89864D01*
X396273D01*
X395354Y-90782D01*
Y-91701D01*
X396273Y-92619D01*
X398110D01*
X399028Y-93537D01*
Y-94456D01*
X398110Y-95374D01*
X396273D01*
X395354Y-94456D01*
X404538Y-90782D02*
X403619Y-89864D01*
X401783D01*
X400865Y-90782D01*
Y-94456D01*
X401783Y-95374D01*
X403619D01*
X404538Y-94456D01*
D37*
X-74218Y296161D02*
X485630D01*
X-74218Y248917D02*
X485630D01*
X-74218Y237106D02*
X485630D01*
Y307972D01*
X-74218D02*
X485630D01*
X-74218Y237106D02*
Y307972D01*
X423047Y237106D02*
Y307972D01*
X364323Y237106D02*
Y307972D01*
X317879Y237106D02*
Y307972D01*
X199804Y237106D02*
Y307972D01*
X142024Y237106D02*
Y307972D01*
X102191Y237106D02*
Y307972D01*
X11667Y237106D02*
Y307972D01*
X-30842Y237106D02*
Y307972D01*
D40*
X51236Y68113D02*
G03*
X51236Y68113I-1000J0D01*
G01*
X156512D02*
G03*
X156512Y68113I-1000J0D01*
G01*
X192394Y14067D02*
X192894Y13567D01*
X191894Y14067D02*
X192394D01*
X191894D02*
X192394Y14567D01*
X191894Y15067D02*
X192394Y14567D01*
X191894Y15067D02*
X192394D01*
X192894Y15567D01*
X193394Y15067D01*
X193894D01*
X193394Y14567D02*
X193894Y15067D01*
X193394Y14567D02*
X193894Y14067D01*
X193394D02*
X193894D01*
X192894Y13567D02*
X193394Y14067D01*
X87118D02*
X87618Y13567D01*
X86618Y14067D02*
X87118D01*
X86618D02*
X87118Y14567D01*
X86618Y15067D02*
X87118Y14567D01*
X86618Y15067D02*
X87118D01*
X87618Y15567D01*
X88118Y15067D01*
X88618D01*
X88118Y14567D02*
X88618Y15067D01*
X88118Y14567D02*
X88618Y14067D01*
X88118D02*
X88618D01*
X87618Y13567D02*
X88118Y14067D01*
X82197Y14146D02*
X82697Y13646D01*
X81697Y14146D02*
X82197D01*
X81697D02*
X82197Y14646D01*
X81697Y15146D02*
X82197Y14646D01*
X81697Y15146D02*
X82197D01*
X82697Y15646D01*
X83197Y15146D01*
X83697D01*
X83197Y14646D02*
X83697Y15146D01*
X83197Y14646D02*
X83697Y14146D01*
X83197D02*
X83697D01*
X82697Y13646D02*
X83197Y14146D01*
X187472Y14087D02*
X187972Y13587D01*
X186972Y14087D02*
X187472D01*
X186972D02*
X187472Y14587D01*
X186972Y15087D02*
X187472Y14587D01*
X186972Y15087D02*
X187472D01*
X187972Y15587D01*
X188472Y15087D01*
X188972D01*
X188472Y14587D02*
X188972Y15087D01*
X188472Y14587D02*
X188972Y14087D01*
X188472D02*
X188972D01*
X187972Y13587D02*
X188472Y14087D01*
X79716Y76567D02*
X80216Y76067D01*
X79216Y76567D02*
X79716D01*
X79216D02*
X79716Y77067D01*
X79216Y77567D02*
X79716Y77067D01*
X79216Y77567D02*
X79716D01*
X80216Y78067D01*
X80717Y77567D01*
X81217D01*
X80717Y77067D02*
X81217Y77567D01*
X80717Y77067D02*
X81217Y76567D01*
X80717D02*
X81217D01*
X80216Y76067D02*
X80717Y76567D01*
X84736Y81193D02*
X85236Y80693D01*
X84236Y81193D02*
X84736D01*
X84236D02*
X84736Y81693D01*
X84236Y82193D02*
X84736Y81693D01*
X84236Y82193D02*
X84736D01*
X85236Y82693D01*
X85736Y82193D01*
X86236D01*
X85736Y81693D02*
X86236Y82193D01*
X85736Y81693D02*
X86236Y81193D01*
X85736D02*
X86236D01*
X85236Y80693D02*
X85736Y81193D01*
X70465Y67610D02*
X70965Y67110D01*
X69965Y67610D02*
X70465D01*
X69965D02*
X70465Y68110D01*
X69965Y68610D02*
X70465Y68110D01*
X69965Y68610D02*
X70465D01*
X70965Y69110D01*
X71465Y68610D01*
X71965D01*
X71465Y68110D02*
X71965Y68610D01*
X71465Y68110D02*
X71965Y67610D01*
X71465D02*
X71965D01*
X70965Y67110D02*
X71465Y67610D01*
X74697Y72039D02*
X75197Y71539D01*
X74197Y72039D02*
X74697D01*
X74197D02*
X74697Y72539D01*
X74197Y73039D02*
X74697Y72539D01*
X74197Y73039D02*
X74697D01*
X75197Y73539D01*
X75697Y73039D01*
X76197D01*
X75697Y72539D02*
X76197Y73039D01*
X75697Y72539D02*
X76197Y72039D01*
X75697D02*
X76197D01*
X75197Y71539D02*
X75697Y72039D01*
X11795Y10811D02*
X13795D01*
Y12811D01*
X11795D02*
X13795D01*
X11795Y10811D02*
Y12811D01*
X251953Y97425D02*
X253953D01*
Y99425D01*
X251953D02*
X253953D01*
X251953Y97425D02*
Y99425D01*
X50236Y55102D02*
X51236Y57102D01*
X49236D02*
X51236D01*
X49236D02*
X50236Y55102D01*
X60236D02*
X61236Y57102D01*
X59236D02*
X61236D01*
X59236D02*
X60236Y55102D01*
X70236D02*
X71236Y57102D01*
X69236D02*
X71236D01*
X69236D02*
X70236Y55102D01*
X80236D02*
X81236Y57102D01*
X79236D02*
X81236D01*
X79236D02*
X80236Y55102D01*
X90236D02*
X91236Y57102D01*
X89236D02*
X91236D01*
X89236D02*
X90236Y55102D01*
X100236D02*
X101236Y57102D01*
X99236D02*
X101236D01*
X99236D02*
X100236Y55102D01*
X110236D02*
X111236Y57102D01*
X109236D02*
X111236D01*
X109236D02*
X110236Y55102D01*
Y45102D02*
X111236Y47102D01*
X109236D02*
X111236D01*
X109236D02*
X110236Y45102D01*
X100236D02*
X101236Y47102D01*
X99236D02*
X101236D01*
X99236D02*
X100236Y45102D01*
X90236D02*
X91236Y47102D01*
X89236D02*
X91236D01*
X89236D02*
X90236Y45102D01*
X80236D02*
X81236Y47102D01*
X79236D02*
X81236D01*
X79236D02*
X80236Y45102D01*
X70236D02*
X71236Y47102D01*
X69236D02*
X71236D01*
X69236D02*
X70236Y45102D01*
X60236D02*
X61236Y47102D01*
X59236D02*
X61236D01*
X59236D02*
X60236Y45102D01*
X50236D02*
X51236Y47102D01*
X49236D02*
X51236D01*
X49236D02*
X50236Y45102D01*
X155512Y45181D02*
X156512Y47181D01*
X154512D02*
X156512D01*
X154512D02*
X155512Y45181D01*
X165512D02*
X166512Y47181D01*
X164512D02*
X166512D01*
X164512D02*
X165512Y45181D01*
X175512D02*
X176512Y47181D01*
X174512D02*
X176512D01*
X174512D02*
X175512Y45181D01*
X185512D02*
X186512Y47181D01*
X184512D02*
X186512D01*
X184512D02*
X185512Y45181D01*
X195512D02*
X196512Y47181D01*
X194512D02*
X196512D01*
X194512D02*
X195512Y45181D01*
X205512D02*
X206512Y47181D01*
X204512D02*
X206512D01*
X204512D02*
X205512Y45181D01*
X215512D02*
X216512Y47181D01*
X214512D02*
X216512D01*
X214512D02*
X215512Y45181D01*
Y55181D02*
X216512Y57181D01*
X214512D02*
X216512D01*
X214512D02*
X215512Y55181D01*
X205512D02*
X206512Y57181D01*
X204512D02*
X206512D01*
X204512D02*
X205512Y55181D01*
X195512D02*
X196512Y57181D01*
X194512D02*
X196512D01*
X194512D02*
X195512Y55181D01*
X185512D02*
X186512Y57181D01*
X184512D02*
X186512D01*
X184512D02*
X185512Y55181D01*
X175512D02*
X176512Y57181D01*
X174512D02*
X176512D01*
X174512D02*
X175512Y55181D01*
X165512D02*
X166512Y57181D01*
X164512D02*
X166512D01*
X164512D02*
X165512Y55181D01*
X155512D02*
X156512Y57181D01*
X154512D02*
X156512D01*
X154512D02*
X155512Y55181D01*
X242028Y45654D02*
X243028Y47653D01*
X241028D02*
X243028D01*
X241028D02*
X242028Y45654D01*
Y55654D02*
X243028Y57653D01*
X241028D02*
X243028D01*
X241028D02*
X242028Y55654D01*
X251953Y10811D02*
X253953D01*
Y12811D01*
X251953D02*
X253953D01*
X251953Y10811D02*
Y12811D01*
X11795Y97425D02*
X13795D01*
Y99425D01*
X11795D02*
X13795D01*
X11795Y97425D02*
Y99425D01*
D41*
X426591Y305372D02*
X430369D01*
X428480D01*
Y299705D01*
X435092D02*
X433203D01*
X432258Y300649D01*
Y302538D01*
X433203Y303483D01*
X435092D01*
X436037Y302538D01*
Y301594D01*
X432258D01*
X437926Y299705D02*
Y303483D01*
X438870D01*
X439815Y302538D01*
Y299705D01*
Y302538D01*
X440760Y303483D01*
X441704Y302538D01*
Y299705D01*
X443593Y297815D02*
Y303483D01*
X446427D01*
X447371Y302538D01*
Y300649D01*
X446427Y299705D01*
X443593D01*
X449261D02*
X451150D01*
X450205D01*
Y305372D01*
X449261D01*
X454928Y303483D02*
X456817D01*
X457762Y302538D01*
Y299705D01*
X454928D01*
X453983Y300649D01*
X454928Y301594D01*
X457762D01*
X460596Y304428D02*
Y303483D01*
X459651D01*
X461540D01*
X460596D01*
Y300649D01*
X461540Y299705D01*
X467208D02*
X465318D01*
X464374Y300649D01*
Y302538D01*
X465318Y303483D01*
X467208D01*
X468152Y302538D01*
Y301594D01*
X464374D01*
X367866Y299705D02*
Y305372D01*
X370700D01*
X371645Y304428D01*
Y302538D01*
X370700Y301594D01*
X367866D01*
X374479Y303483D02*
X376368D01*
X377312Y302538D01*
Y299705D01*
X374479D01*
X373534Y300649D01*
X374479Y301594D01*
X377312D01*
X382980Y305372D02*
Y299705D01*
X380146D01*
X379202Y300649D01*
Y302538D01*
X380146Y303483D01*
X382980D01*
X394315Y304428D02*
X393370Y305372D01*
X391481D01*
X390536Y304428D01*
Y303483D01*
X391481Y302538D01*
X393370D01*
X394315Y301594D01*
Y300649D01*
X393370Y299705D01*
X391481D01*
X390536Y300649D01*
X396204Y305372D02*
Y299705D01*
Y302538D01*
X397148Y303483D01*
X399038D01*
X399982Y302538D01*
Y299705D01*
X402816Y303483D02*
X404705D01*
X405650Y302538D01*
Y299705D01*
X402816D01*
X401871Y300649D01*
X402816Y301594D01*
X405650D01*
X407539Y297815D02*
Y303483D01*
X410372D01*
X411317Y302538D01*
Y300649D01*
X410372Y299705D01*
X407539D01*
X416040D02*
X414151D01*
X413206Y300649D01*
Y302538D01*
X414151Y303483D01*
X416040D01*
X416985Y302538D01*
Y301594D01*
X413206D01*
X321422Y305372D02*
Y301594D01*
X323311Y299705D01*
X325200Y301594D01*
Y305372D01*
X327089Y299705D02*
X328978D01*
X328034D01*
Y303483D01*
X327089D01*
X332757D02*
X334646D01*
X335590Y302538D01*
Y299705D01*
X332757D01*
X331812Y300649D01*
X332757Y301594D01*
X335590D01*
X337480Y299705D02*
X341258Y303483D01*
X343147Y299705D02*
Y305372D01*
X345981D01*
X346925Y304428D01*
Y302538D01*
X345981Y301594D01*
X343147D01*
X349759Y303483D02*
X351648D01*
X352593Y302538D01*
Y299705D01*
X349759D01*
X348815Y300649D01*
X349759Y301594D01*
X352593D01*
X358260Y305372D02*
Y299705D01*
X355427D01*
X354482Y300649D01*
Y302538D01*
X355427Y303483D01*
X358260D01*
X203347Y305372D02*
Y299705D01*
X206181D01*
X207125Y300649D01*
Y304428D01*
X206181Y305372D01*
X203347D01*
X209014Y303483D02*
Y299705D01*
Y301594D01*
X209959Y302538D01*
X210904Y303483D01*
X211848D01*
X214682Y299705D02*
X216571D01*
X215627D01*
Y303483D01*
X214682D01*
X219405Y299705D02*
X221294D01*
X220349D01*
Y305372D01*
X219405D01*
X224128Y299705D02*
X226017D01*
X225072D01*
Y305372D01*
X224128D01*
X234518D02*
Y299705D01*
X238296D01*
X241130Y303483D02*
X243019D01*
X243964Y302538D01*
Y299705D01*
X241130D01*
X240185Y300649D01*
X241130Y301594D01*
X243964D01*
X245853Y303483D02*
Y300649D01*
X246797Y299705D01*
X249631D01*
Y298760D01*
X248687Y297815D01*
X247742D01*
X249631Y299705D02*
Y303483D01*
X254354Y299705D02*
X252465D01*
X251520Y300649D01*
Y302538D01*
X252465Y303483D01*
X254354D01*
X255299Y302538D01*
Y301594D01*
X251520D01*
X257188Y303483D02*
Y299705D01*
Y301594D01*
X258132Y302538D01*
X259077Y303483D01*
X260022D01*
X268523Y299705D02*
Y305372D01*
X271357D01*
X272301Y304428D01*
Y302538D01*
X271357Y301594D01*
X268523D01*
X275135Y303483D02*
X277024D01*
X277969Y302538D01*
Y299705D01*
X275135D01*
X274190Y300649D01*
X275135Y301594D01*
X277969D01*
X279858Y299705D02*
X281747D01*
X280802D01*
Y303483D01*
X279858D01*
X284581D02*
Y299705D01*
Y301594D01*
X285525Y302538D01*
X286470Y303483D01*
X287414D01*
X145567Y305372D02*
Y299705D01*
Y302538D01*
X149346D01*
Y305372D01*
Y299705D01*
X152179D02*
X154069D01*
X155013Y300649D01*
Y302538D01*
X154069Y303483D01*
X152179D01*
X151235Y302538D01*
Y300649D01*
X152179Y299705D01*
X156902D02*
X158791D01*
X157847D01*
Y305372D01*
X156902D01*
X164459Y299705D02*
X162570D01*
X161625Y300649D01*
Y302538D01*
X162570Y303483D01*
X164459D01*
X165403Y302538D01*
Y301594D01*
X161625D01*
X172960Y305372D02*
X176738D01*
X174849D01*
Y299705D01*
X178628Y303483D02*
Y300649D01*
X179572Y299705D01*
X182406D01*
Y298760D01*
X181461Y297815D01*
X180517D01*
X182406Y299705D02*
Y303483D01*
X184295Y297815D02*
Y303483D01*
X187129D01*
X188073Y302538D01*
Y300649D01*
X187129Y299705D01*
X184295D01*
X192796D02*
X190907D01*
X189962Y300649D01*
Y302538D01*
X190907Y303483D01*
X192796D01*
X193741Y302538D01*
Y301594D01*
X189962D01*
X105735Y299705D02*
Y305372D01*
X108568D01*
X109513Y304428D01*
Y302538D01*
X108568Y301594D01*
X105735D01*
X111402Y299705D02*
X113291D01*
X112347D01*
Y305372D01*
X111402D01*
X117069Y303483D02*
X118959D01*
X119903Y302538D01*
Y299705D01*
X117069D01*
X116125Y300649D01*
X117069Y301594D01*
X119903D01*
X122737Y304428D02*
Y303483D01*
X121792D01*
X123681D01*
X122737D01*
Y300649D01*
X123681Y299705D01*
X129349D02*
X127460D01*
X126515Y300649D01*
Y302538D01*
X127460Y303483D01*
X129349D01*
X130294Y302538D01*
Y301594D01*
X126515D01*
X135961Y305372D02*
Y299705D01*
X133127D01*
X132183Y300649D01*
Y302538D01*
X133127Y303483D01*
X135961D01*
X15210Y305372D02*
Y299705D01*
Y302538D01*
X18988D01*
Y305372D01*
Y299705D01*
X21822D02*
X23711D01*
X24656Y300649D01*
Y302538D01*
X23711Y303483D01*
X21822D01*
X20877Y302538D01*
Y300649D01*
X21822Y299705D01*
X26545D02*
X28434D01*
X27489D01*
Y305372D01*
X26545D01*
X34101Y299705D02*
X32212D01*
X31268Y300649D01*
Y302538D01*
X32212Y303483D01*
X34101D01*
X35046Y302538D01*
Y301594D01*
X31268D01*
X46381Y304428D02*
X45436Y305372D01*
X43547D01*
X42603Y304428D01*
Y303483D01*
X43547Y302538D01*
X45436D01*
X46381Y301594D01*
Y300649D01*
X45436Y299705D01*
X43547D01*
X42603Y300649D01*
X48270Y299705D02*
X50159D01*
X49215D01*
Y303483D01*
X48270D01*
X52993D02*
X56771D01*
X52993Y299705D01*
X56771D01*
X61494D02*
X59605D01*
X58660Y300649D01*
Y302538D01*
X59605Y303483D01*
X61494D01*
X62439Y302538D01*
Y301594D01*
X58660D01*
X-23520Y304428D02*
X-24465Y305372D01*
X-26354D01*
X-27299Y304428D01*
Y300649D01*
X-26354Y299705D01*
X-24465D01*
X-23520Y300649D01*
X-20687Y299705D02*
X-18798D01*
X-17853Y300649D01*
Y302538D01*
X-18798Y303483D01*
X-20687D01*
X-21631Y302538D01*
Y300649D01*
X-20687Y299705D01*
X-15964Y303483D02*
Y300649D01*
X-15019Y299705D01*
X-12186D01*
Y303483D01*
X-10296Y299705D02*
Y303483D01*
X-7463D01*
X-6518Y302538D01*
Y299705D01*
X-3684Y304428D02*
Y303483D01*
X-4629D01*
X-2740D01*
X-3684D01*
Y300649D01*
X-2740Y299705D01*
X-63353Y304428D02*
X-64298Y305372D01*
X-66187D01*
X-67132Y304428D01*
Y303483D01*
X-66187Y302538D01*
X-64298D01*
X-63353Y301594D01*
Y300649D01*
X-64298Y299705D01*
X-66187D01*
X-67132Y300649D01*
X-61464Y303483D02*
Y300649D01*
X-60519Y299705D01*
X-57686D01*
Y298760D01*
X-58630Y297815D01*
X-59575D01*
X-57686Y299705D02*
Y303483D01*
X-55797Y299705D02*
Y303483D01*
X-54852D01*
X-53908Y302538D01*
Y299705D01*
Y302538D01*
X-52963Y303483D01*
X-52018Y302538D01*
Y299705D01*
X-50129Y305372D02*
Y299705D01*
X-47295D01*
X-46351Y300649D01*
Y301594D01*
Y302538D01*
X-47295Y303483D01*
X-50129D01*
X-43517Y299705D02*
X-41628D01*
X-40683Y300649D01*
Y302538D01*
X-41628Y303483D01*
X-43517D01*
X-44462Y302538D01*
Y300649D01*
X-43517Y299705D01*
X-38794D02*
X-36905D01*
X-37850D01*
Y305372D01*
X-38794D01*
M02*
