G04*
G04 #@! TF.GenerationSoftware,Altium Limited,Altium Designer,20.2.6 (244)*
G04*
G04 Layer_Color=32896*
%FSLAX25Y25*%
%MOIN*%
G70*
G04*
G04 #@! TF.SameCoordinates,3A923CF8-0E80-4BF5-A473-74316D4CB4A5*
G04*
G04*
G04 #@! TF.FilePolarity,Positive*
G04*
G01*
G75*
%ADD10C,0.00787*%
%ADD11C,0.00472*%
%ADD12C,0.01000*%
%ADD13C,0.00500*%
%ADD16C,0.00591*%
%ADD17C,0.01500*%
%ADD18C,0.00100*%
%ADD19C,0.01378*%
%ADD20C,0.01575*%
%ADD21C,0.01299*%
%ADD57C,0.00984*%
%ADD58C,0.02362*%
%ADD59C,0.00602*%
G36*
X300590Y51772D02*
X302559Y49803D01*
X300590Y47835D01*
Y51772D01*
D02*
G37*
G36*
X290650Y57776D02*
X292618Y59744D01*
X294587Y57776D01*
X290650D01*
D02*
G37*
D10*
X134941Y72736D02*
X135925Y71752D01*
X153248D01*
X154232Y72736D01*
X134941Y84153D02*
X135925Y85138D01*
X153248D01*
X154232Y84153D01*
X186713Y10224D02*
X188681D01*
X186713D02*
Y22429D01*
X187328D01*
X188681Y21076D01*
Y10224D02*
Y21076D01*
X225319Y81988D02*
X227658D01*
Y84106D01*
X194980Y81988D02*
Y84106D01*
Y81988D02*
X197319D01*
X198327Y97736D02*
X224327D01*
X117913Y33972D02*
Y67830D01*
X84055Y33972D02*
Y67830D01*
X117913D01*
X84055Y33972D02*
X117913D01*
X119488Y71373D02*
X121456Y69405D01*
Y67436D02*
Y69405D01*
X117519Y71373D02*
X119488D01*
X80512Y67437D02*
Y71374D01*
X80511Y71373D02*
X80512Y71374D01*
X80511Y71373D02*
X84449D01*
X80510Y30428D02*
X84449D01*
X80510D02*
X80512Y30426D01*
Y34365D01*
X117520Y30428D02*
X121455D01*
X121457Y30430D01*
Y34365D01*
X278567Y81988D02*
X280906D01*
Y84106D01*
X248228Y81988D02*
Y84106D01*
Y81988D02*
X250567D01*
X251575Y97736D02*
X277575D01*
X286216Y15170D02*
X285991Y15845D01*
Y14496D01*
X286216Y15170D01*
X286666Y15620D01*
X287341Y15845D01*
X288016D01*
X288690Y15620D01*
X289140Y15170D01*
Y14720D01*
X288915Y14271D01*
X288690Y14046D01*
X288241Y13821D01*
X286891Y13371D01*
X286441Y13146D01*
X285991Y12696D01*
X289140Y14720D02*
X288690Y14271D01*
X288241Y14046D01*
X286891Y13596D01*
X286441Y13371D01*
X286216Y13146D01*
X285991Y12696D01*
Y11796D01*
X286441Y11347D01*
X287116Y11122D01*
X287791D01*
X288465Y11347D01*
X288915Y11796D01*
X289140Y12471D01*
Y11122D01*
X288915Y11796D01*
X284619Y14271D02*
Y9547D01*
X284394Y14271D02*
Y9547D01*
Y13596D02*
X283945Y14046D01*
X283495Y14271D01*
X283045D01*
X282370Y14046D01*
X281920Y13596D01*
X281695Y12921D01*
Y12471D01*
X281920Y11796D01*
X282370Y11347D01*
X283045Y11122D01*
X283495D01*
X283945Y11347D01*
X284394Y11796D01*
X283045Y14271D02*
X282595Y14046D01*
X282145Y13596D01*
X281920Y12921D01*
Y12471D01*
X282145Y11796D01*
X282595Y11347D01*
X283045Y11122D01*
X285294Y14271D02*
X284394D01*
X285294Y9547D02*
X283719D01*
X280593Y13821D02*
Y13596D01*
X280818D01*
Y13821D01*
X280593Y14046D01*
X280143Y14271D01*
X279244D01*
X278794Y14046D01*
X278569Y13821D01*
X278344Y13371D01*
Y11796D01*
X278119Y11347D01*
X277894Y11122D01*
X278569Y13821D02*
Y11796D01*
X278344Y11347D01*
X277894Y11122D01*
X277669D01*
X278569Y13371D02*
X278794Y13146D01*
X280143Y12921D01*
X280818Y12696D01*
X281043Y12246D01*
Y11796D01*
X280818Y11347D01*
X280143Y11122D01*
X279468D01*
X279019Y11347D01*
X278569Y11796D01*
X280143Y12921D02*
X280593Y12696D01*
X280818Y12246D01*
Y11796D01*
X280593Y11347D01*
X280143Y11122D01*
X274295Y13596D02*
X274520Y13371D01*
X274295Y13146D01*
X274070Y13371D01*
Y13596D01*
X274520Y14046D01*
X274970Y14271D01*
X275645D01*
X276320Y14046D01*
X276769Y13596D01*
X276994Y12921D01*
Y12471D01*
X276769Y11796D01*
X276320Y11347D01*
X275645Y11122D01*
X275195D01*
X274520Y11347D01*
X274070Y11796D01*
X275645Y14271D02*
X276095Y14046D01*
X276544Y13596D01*
X276769Y12921D01*
Y12471D01*
X276544Y11796D01*
X276095Y11347D01*
X275645Y11122D01*
X273126Y12921D02*
X270427D01*
Y13371D01*
X270652Y13821D01*
X270876Y14046D01*
X271326Y14271D01*
X272001D01*
X272676Y14046D01*
X273126Y13596D01*
X273351Y12921D01*
Y12471D01*
X273126Y11796D01*
X272676Y11347D01*
X272001Y11122D01*
X271551D01*
X270876Y11347D01*
X270427Y11796D01*
X270652Y12921D02*
Y13596D01*
X270876Y14046D01*
X272001Y14271D02*
X272451Y14046D01*
X272901Y13596D01*
X273126Y12921D01*
Y12471D01*
X272901Y11796D01*
X272451Y11347D01*
X272001Y11122D01*
X269032Y15845D02*
Y11122D01*
X268807Y15845D02*
Y11122D01*
X269707Y15845D02*
X268132D01*
X269707Y11122D02*
X266333D01*
Y12471D01*
X266558Y11122D01*
X265208Y13821D02*
Y13596D01*
X265433D01*
Y13821D01*
X265208Y14046D01*
X264758Y14271D01*
X263859D01*
X263409Y14046D01*
X263184Y13821D01*
X262959Y13371D01*
Y11796D01*
X262734Y11347D01*
X262509Y11122D01*
X263184Y13821D02*
Y11796D01*
X262959Y11347D01*
X262509Y11122D01*
X262284D01*
X263184Y13371D02*
X263409Y13146D01*
X264758Y12921D01*
X265433Y12696D01*
X265658Y12246D01*
Y11796D01*
X265433Y11347D01*
X264758Y11122D01*
X264084D01*
X263634Y11347D01*
X263184Y11796D01*
X264758Y12921D02*
X265208Y12696D01*
X265433Y12246D01*
Y11796D01*
X265208Y11347D01*
X264758Y11122D01*
X260935Y15845D02*
Y11122D01*
X260710Y15845D02*
Y11122D01*
Y13596D02*
X260260Y14046D01*
X259810Y14271D01*
X259360D01*
X258685Y14046D01*
X258236Y13596D01*
X258011Y12921D01*
Y12471D01*
X258236Y11796D01*
X258685Y11347D01*
X259360Y11122D01*
X259810D01*
X260260Y11347D01*
X260710Y11796D01*
X259360Y14271D02*
X258910Y14046D01*
X258461Y13596D01*
X258236Y12921D01*
Y12471D01*
X258461Y11796D01*
X258910Y11347D01*
X259360Y11122D01*
X261610Y15845D02*
X260710D01*
X252433D02*
Y12471D01*
X252208Y11796D01*
X251758Y11347D01*
X251083Y11122D01*
X250633D01*
X249958Y11347D01*
X249509Y11796D01*
X249284Y12471D01*
Y15845D01*
X252208D02*
Y12471D01*
X251983Y11796D01*
X251533Y11347D01*
X251083Y11122D01*
X253107Y15845D02*
X251533D01*
X249958D02*
X248609D01*
X247372D02*
Y11122D01*
X247147Y15845D02*
Y11122D01*
X245797Y14496D02*
Y12696D01*
X248047Y15845D02*
X244448D01*
Y14496D01*
X244673Y15845D01*
X247147Y13596D02*
X245797D01*
X248047Y11122D02*
X246472D01*
X240872Y15170D02*
X240647Y15845D01*
Y14496D01*
X240872Y15170D01*
X241321Y15620D01*
X241996Y15845D01*
X242671D01*
X243346Y15620D01*
X243796Y15170D01*
Y14720D01*
X243571Y14271D01*
X243346Y14046D01*
X242896Y13821D01*
X241546Y13371D01*
X241096Y13146D01*
X240647Y12696D01*
X243796Y14720D02*
X243346Y14271D01*
X242896Y14046D01*
X241546Y13596D01*
X241096Y13371D01*
X240872Y13146D01*
X240647Y12696D01*
Y11796D01*
X241096Y11347D01*
X241771Y11122D01*
X242446D01*
X243121Y11347D01*
X243571Y11796D01*
X243796Y12471D01*
Y11122D01*
X243571Y11796D01*
X236800Y15170D02*
X236576Y14496D01*
Y15845D01*
X236800Y15170D01*
X237250Y15620D01*
X237925Y15845D01*
X238375D01*
X239050Y15620D01*
X239499Y15170D01*
X239724Y14720D01*
X239949Y14046D01*
Y12921D01*
X239724Y12246D01*
X239499Y11796D01*
X239050Y11347D01*
X238375Y11122D01*
X237925D01*
X237250Y11347D01*
X236800Y11796D01*
X236576Y12246D01*
X238375Y15845D02*
X238825Y15620D01*
X239275Y15170D01*
X239499Y14720D01*
X239724Y14046D01*
Y12921D01*
X239499Y12246D01*
X239275Y11796D01*
X238825Y11347D01*
X238375Y11122D01*
X231425Y14945D02*
X231200Y14720D01*
X231425Y14496D01*
X231650Y14720D01*
Y14945D01*
X231425Y15395D01*
X231200Y15620D01*
X230525Y15845D01*
X229625D01*
X228951Y15620D01*
X228726Y15395D01*
X228501Y14945D01*
Y14496D01*
X228726Y14046D01*
X229400Y13596D01*
X230525Y13146D01*
X230975Y12921D01*
X231425Y12471D01*
X231650Y11796D01*
Y11122D01*
X229625Y15845D02*
X229175Y15620D01*
X228951Y15395D01*
X228726Y14945D01*
Y14496D01*
X228951Y14046D01*
X229625Y13596D01*
X230525Y13146D01*
X231650Y11572D02*
X231425Y11796D01*
X230975D01*
X229850Y11347D01*
X229175D01*
X228726Y11572D01*
X228501Y11796D01*
Y12246D01*
X230975Y11796D02*
X229850Y11122D01*
X228951D01*
X228726Y11347D01*
X228501Y11796D01*
X226454Y15845D02*
X227129Y15620D01*
X227579Y14945D01*
X227803Y13821D01*
Y13146D01*
X227579Y12021D01*
X227129Y11347D01*
X226454Y11122D01*
X226004D01*
X225329Y11347D01*
X224880Y12021D01*
X224655Y13146D01*
Y13821D01*
X224880Y14945D01*
X225329Y15620D01*
X226004Y15845D01*
X226454D01*
X226904Y15620D01*
X227129Y15395D01*
X227354Y14945D01*
X227579Y13821D01*
Y13146D01*
X227354Y12021D01*
X227129Y11572D01*
X226904Y11347D01*
X226454Y11122D01*
X226004D02*
X225554Y11347D01*
X225329Y11572D01*
X225104Y12021D01*
X224880Y13146D01*
Y13821D01*
X225104Y14945D01*
X225329Y15395D01*
X225554Y15620D01*
X226004Y15845D01*
X223732Y14945D02*
X223507Y14720D01*
X223732Y14496D01*
X223957Y14720D01*
Y14945D01*
X223732Y15395D01*
X223507Y15620D01*
X222833Y15845D01*
X221933D01*
X221258Y15620D01*
X221033Y15395D01*
X220808Y14945D01*
Y14496D01*
X221033Y14046D01*
X221708Y13596D01*
X222833Y13146D01*
X223283Y12921D01*
X223732Y12471D01*
X223957Y11796D01*
Y11122D01*
X221933Y15845D02*
X221483Y15620D01*
X221258Y15395D01*
X221033Y14945D01*
Y14496D01*
X221258Y14046D01*
X221933Y13596D01*
X222833Y13146D01*
X223957Y11572D02*
X223732Y11796D01*
X223283D01*
X222158Y11347D01*
X221483D01*
X221033Y11572D01*
X220808Y11796D01*
Y12246D01*
X223283Y11796D02*
X222158Y11122D01*
X221258D01*
X221033Y11347D01*
X220808Y11796D01*
X218761Y15845D02*
X219436Y15620D01*
X219886Y14945D01*
X220111Y13821D01*
Y13146D01*
X219886Y12021D01*
X219436Y11347D01*
X218761Y11122D01*
X218312D01*
X217637Y11347D01*
X217187Y12021D01*
X216962Y13146D01*
Y13821D01*
X217187Y14945D01*
X217637Y15620D01*
X218312Y15845D01*
X218761D01*
X219211Y15620D01*
X219436Y15395D01*
X219661Y14945D01*
X219886Y13821D01*
Y13146D01*
X219661Y12021D01*
X219436Y11572D01*
X219211Y11347D01*
X218761Y11122D01*
X218312D02*
X217862Y11347D01*
X217637Y11572D01*
X217412Y12021D01*
X217187Y13146D01*
Y13821D01*
X217412Y14945D01*
X217637Y15395D01*
X217862Y15620D01*
X218312Y15845D01*
X195472Y79724D02*
X196784D01*
X196128D01*
Y75789D01*
X195472Y76445D01*
X248721Y79724D02*
X250032D01*
X249376D01*
Y75789D01*
X248721Y76445D01*
X280454Y44192D02*
X283603D01*
X285177Y46554D02*
Y45766D01*
X286751Y44192D01*
X288326Y45766D01*
Y46554D01*
X286751Y44192D02*
Y41831D01*
X305061Y50098D02*
X308209D01*
X309783Y52459D02*
X312932Y47736D01*
Y52459D02*
X309783Y47736D01*
X288328Y64862D02*
X291477D01*
X289902Y66436D02*
Y63287D01*
X293051Y67223D02*
X296200D01*
Y66436D01*
X293051Y63287D01*
Y62500D01*
X296200D01*
X184997Y83660D02*
X185784Y84447D01*
X187358D01*
X188146Y83660D01*
Y80512D01*
X187358Y79724D01*
X185784D01*
X184997Y80512D01*
X183423Y79724D02*
Y84447D01*
X180274Y79724D01*
Y84447D01*
X178700Y83660D02*
X177913Y84447D01*
X176339D01*
X175551Y83660D01*
Y82873D01*
X176339Y82086D01*
X177126D01*
X176339D01*
X175551Y81299D01*
Y80512D01*
X176339Y79724D01*
X177913D01*
X178700Y80512D01*
X241733Y83660D02*
X242520Y84447D01*
X244095D01*
X244882Y83660D01*
Y80512D01*
X244095Y79724D01*
X242520D01*
X241733Y80512D01*
X240159Y79724D02*
Y84447D01*
X237010Y79724D01*
Y84447D01*
X235436Y79724D02*
X233862D01*
X234649D01*
Y84447D01*
X235436Y83660D01*
X11793Y110236D02*
G03*
X0Y98443I0J-11793D01*
G01*
Y11663D02*
G03*
X11663Y0I11663J0D01*
G01*
X313050D02*
G03*
X324803Y11754I0J11754D01*
G01*
Y98418D02*
G03*
X312985Y110236I-11818J0D01*
G01*
X0Y92520D02*
Y98443D01*
X11793Y110236D02*
X12696D01*
X0Y25591D02*
Y92520D01*
Y11663D02*
Y25591D01*
X11663Y0D02*
X313050D01*
X324803Y11754D02*
Y98418D01*
X12696Y110236D02*
X312985D01*
D11*
X178445Y13374D02*
G03*
X177264Y14555I-1181J0D01*
G01*
Y7468D02*
G03*
X178445Y8650I0J1181D01*
G01*
X162697D02*
G03*
X163878Y7468I1181J0D01*
G01*
Y14555D02*
G03*
X162697Y13374I0J-1181D01*
G01*
X120374Y73173D02*
G03*
X121161Y72386I787J0D01*
G01*
X125886Y83410D02*
G03*
X125098Y84197I-787J0D01*
G01*
X121161D02*
G03*
X120374Y83410I0J-787D01*
G01*
X125098Y72386D02*
G03*
X125886Y73173I0J787D01*
G01*
X85433Y78460D02*
G03*
X86221Y77672I787J0D01*
G01*
X90945Y88696D02*
G03*
X90158Y89483I-787J0D01*
G01*
X86221D02*
G03*
X85433Y88696I0J-787D01*
G01*
X90158Y77672D02*
G03*
X90945Y78460I0J787D01*
G01*
X76772Y87230D02*
G03*
X75590Y88411I-1181J0D01*
G01*
X70866D02*
G03*
X69685Y87230I0J-1181D01*
G01*
Y73844D02*
G03*
X70866Y72663I1181J0D01*
G01*
X75590D02*
G03*
X76772Y73844I0J1181D01*
G01*
X77658Y73451D02*
G03*
X78445Y72663I787J0D01*
G01*
X83169Y83687D02*
G03*
X82382Y84474I-787J0D01*
G01*
X78445D02*
G03*
X77658Y83687I0J-787D01*
G01*
X82382Y72663D02*
G03*
X83169Y73451I0J787D01*
G01*
X160925Y41311D02*
G03*
X159744Y40130I0J-1181D01*
G01*
Y35405D02*
G03*
X160925Y34224I1181J0D01*
G01*
X174311D02*
G03*
X175492Y35405I0J1181D01*
G01*
Y40130D02*
G03*
X174311Y41311I-1181J0D01*
G01*
X190551Y40228D02*
G03*
X189764Y39441I0J-787D01*
G01*
X194488Y28417D02*
G03*
X195276Y29205I0J787D01*
G01*
X189764D02*
G03*
X190551Y28417I787J0D01*
G01*
X195276Y39441D02*
G03*
X194488Y40228I-787J0D01*
G01*
X203150Y49972D02*
G03*
X201969Y51154I-1181J0D01*
G01*
X197244D02*
G03*
X196063Y49972I0J-1181D01*
G01*
Y36587D02*
G03*
X197244Y35405I1181J0D01*
G01*
X201969D02*
G03*
X203150Y36587I0J1181D01*
G01*
X135728Y39222D02*
G03*
X134941Y40009I-787J0D01*
G01*
X130217Y28986D02*
G03*
X131004Y28198I787J0D01*
G01*
X134941D02*
G03*
X135728Y28986I0J787D01*
G01*
X131004Y40009D02*
G03*
X130217Y39222I0J-787D01*
G01*
X177264Y17686D02*
G03*
X178445Y18868I0J1181D01*
G01*
X171358D02*
G03*
X172539Y17686I1181J0D01*
G01*
Y33435D02*
G03*
X171358Y32253I0J-1181D01*
G01*
X178445D02*
G03*
X177264Y33435I-1181J0D01*
G01*
X202362Y24945D02*
G03*
X201575Y25732I-787J0D01*
G01*
X196850Y14709D02*
G03*
X197638Y13921I787J0D01*
G01*
X201575D02*
G03*
X202362Y14709I0J787D01*
G01*
X197638Y25732D02*
G03*
X196850Y24945I0J-787D01*
G01*
X131201Y65748D02*
G03*
X131988Y66535I0J787D01*
G01*
X127264Y77559D02*
G03*
X126476Y76772I0J-787D01*
G01*
X131988D02*
G03*
X131201Y77559I-787J0D01*
G01*
X126476Y66535D02*
G03*
X127264Y65748I787J0D01*
G01*
X132972Y66185D02*
G03*
X133760Y65398I787J0D01*
G01*
X144783Y70122D02*
G03*
X143996Y70910I-787J0D01*
G01*
Y65398D02*
G03*
X144783Y66185I0J787D01*
G01*
X133760Y70910D02*
G03*
X132972Y70122I0J-787D01*
G01*
X100098Y77672D02*
G03*
X100886Y78460I0J787D01*
G01*
X96161Y89483D02*
G03*
X95374Y88696I0J-787D01*
G01*
X100886D02*
G03*
X100098Y89483I-787J0D01*
G01*
X95374Y78460D02*
G03*
X96161Y77672I787J0D01*
G01*
X112598Y23264D02*
G03*
X111811Y24051I-787J0D01*
G01*
X107087Y13028D02*
G03*
X107874Y12240I787J0D01*
G01*
X111811D02*
G03*
X112598Y13028I0J787D01*
G01*
X107874Y24051D02*
G03*
X107087Y23264I0J-787D01*
G01*
X90508Y23248D02*
G03*
X89720Y24036I-787J0D01*
G01*
X84996Y13012D02*
G03*
X85783Y12225I787J0D01*
G01*
X89720D02*
G03*
X90508Y13012I0J787D01*
G01*
X85783Y24036D02*
G03*
X84996Y23248I0J-787D01*
G01*
X73465Y52082D02*
G03*
X74252Y52869I0J787D01*
G01*
X63228Y57594D02*
G03*
X62441Y56806I0J-787D01*
G01*
Y52869D02*
G03*
X63228Y52082I787J0D01*
G01*
X74252Y56806D02*
G03*
X73465Y57594I-787J0D01*
G01*
X127756Y41634D02*
G03*
X128543Y40846I787J0D01*
G01*
X139567Y45571D02*
G03*
X138779Y46358I-787J0D01*
G01*
Y40846D02*
G03*
X139567Y41634I0J787D01*
G01*
X128543Y46358D02*
G03*
X127756Y45571I0J-787D01*
G01*
X72835Y41157D02*
G03*
X73622Y41944I0J787D01*
G01*
X62598Y46668D02*
G03*
X61811Y45881I0J-787D01*
G01*
Y41944D02*
G03*
X62598Y41157I787J0D01*
G01*
X73622Y45881D02*
G03*
X72835Y46668I-787J0D01*
G01*
X101772Y82764D02*
X108858D01*
X101772D02*
Y98512D01*
X108858D01*
Y82764D02*
Y98512D01*
X140240Y47146D02*
Y52658D01*
X128429Y47146D02*
X140240D01*
X128429D02*
Y52658D01*
X140240D01*
X163878Y14555D02*
X177264D01*
X162697Y8650D02*
Y13374D01*
X163878Y7468D02*
X177264D01*
X178445Y8650D02*
Y13374D01*
X125886Y73173D02*
Y83410D01*
X121161Y84197D02*
X125098D01*
X120374Y73173D02*
Y83410D01*
X121161Y72386D02*
X125098D01*
X90945Y78460D02*
Y88696D01*
X86221Y89483D02*
X90158D01*
X85433Y78460D02*
Y88696D01*
X86221Y77672D02*
X90158D01*
X70866Y72663D02*
X75590D01*
X69685Y73844D02*
Y87230D01*
X70866Y88411D02*
X75590D01*
X76772Y73844D02*
Y87230D01*
X83169Y73451D02*
Y83687D01*
X78445Y84474D02*
X82382D01*
X77658Y73451D02*
Y83687D01*
X78445Y72663D02*
X82382D01*
X175492Y35405D02*
Y40130D01*
X160925Y34224D02*
X174311D01*
X159744Y35405D02*
Y40130D01*
X160925Y41311D02*
X174311D01*
X190551Y40228D02*
X194488D01*
X195276Y29205D02*
Y39441D01*
X190551Y28417D02*
X194488D01*
X189764Y29205D02*
Y39441D01*
X197244Y35405D02*
X201969D01*
X196063Y36587D02*
Y49972D01*
X197244Y51154D02*
X201969D01*
X203150Y36587D02*
Y49972D01*
X130217Y28986D02*
Y39222D01*
X131004Y28198D02*
X134941D01*
X135728Y28986D02*
Y39222D01*
X131004Y40009D02*
X134941D01*
X178445Y18868D02*
Y32253D01*
X172539Y33435D02*
X177264D01*
X171358Y18868D02*
Y32253D01*
X172539Y17686D02*
X177264D01*
X196850Y14709D02*
Y24945D01*
X197638Y13921D02*
X201575D01*
X202362Y14709D02*
Y24945D01*
X197638Y25732D02*
X201575D01*
X127264Y65748D02*
X131201D01*
X126476Y66535D02*
Y76772D01*
X127264Y77559D02*
X131201D01*
X131988Y66535D02*
Y76772D01*
X132972Y66185D02*
Y70122D01*
X133760Y70910D02*
X143996D01*
X144783Y66185D02*
Y70122D01*
X133760Y65398D02*
X143996D01*
X96161Y77672D02*
X100098D01*
X95374Y78460D02*
Y88696D01*
X96161Y89483D02*
X100098D01*
X100886Y78460D02*
Y88696D01*
X107087Y13028D02*
Y23264D01*
X107874Y12240D02*
X111811D01*
X112598Y13028D02*
Y23264D01*
X107874Y24051D02*
X111811D01*
X84996Y13012D02*
Y23248D01*
X85783Y12225D02*
X89720D01*
X90508Y13012D02*
Y23248D01*
X85783Y24036D02*
X89720D01*
X63228Y57594D02*
X73465D01*
X62441Y52869D02*
Y56806D01*
X63228Y52082D02*
X73465D01*
X74252Y52869D02*
Y56806D01*
X127756Y41634D02*
Y45571D01*
X128543Y46358D02*
X138779D01*
X139567Y41634D02*
Y45571D01*
X128543Y40846D02*
X138779D01*
X62598Y46668D02*
X72835D01*
X61811Y41944D02*
Y45881D01*
X62598Y41157D02*
X72835D01*
X73622Y41944D02*
Y45881D01*
X140240Y53051D02*
Y58563D01*
X128429Y53051D02*
X140240D01*
X128429D02*
Y58563D01*
X140240D01*
X136516Y24240D02*
X143602D01*
X136516D02*
Y39988D01*
X143602D01*
Y24240D02*
Y39988D01*
X113287Y97091D02*
X120374D01*
Y81343D02*
Y97091D01*
X113287Y81343D02*
X120374D01*
X113287D02*
Y97091D01*
D12*
X292757Y49803D02*
G03*
X292757Y49803I-139J0D01*
G01*
X295709D02*
G03*
X295709Y49803I-3091J0D01*
G01*
X292618Y52894D02*
Y60236D01*
X295709Y49803D02*
X303051D01*
X292618Y60236D02*
X294587Y58268D01*
X290650Y58268D02*
X292618Y60236D01*
X301083Y51772D02*
X303051Y49803D01*
X301083Y47835D02*
X303051Y49803D01*
X-99500Y-99500D02*
X546169D01*
X1681D02*
Y-20319D01*
X164613Y-99205D02*
Y-44277D01*
X1976Y-81777D02*
X345579Y-81777D01*
X345863Y-99106D02*
Y-20515D01*
X1976Y-63027D02*
X545863Y-63027D01*
X2173Y-44277D02*
X545440Y-44277D01*
X1681Y-20319D02*
X545863D01*
X-99500Y356552D02*
X546169D01*
X-99500Y-99500D02*
Y356552D01*
X546169Y-99146D02*
Y356552D01*
X346071Y-43941D02*
Y-20319D01*
X414859Y-43883D02*
Y-20268D01*
X97154Y-89441D02*
Y-96252D01*
X101694Y-89441D02*
Y-96252D01*
X97154Y-92684D02*
X101694D01*
X108765Y-96252D02*
X106170Y-89441D01*
X103575Y-96252D01*
X104548Y-93982D02*
X107792D01*
X114895Y-90414D02*
X114246Y-89765D01*
X113273Y-89441D01*
X111976D01*
X111003Y-89765D01*
X110354Y-90414D01*
Y-91063D01*
X110678Y-91711D01*
X111003Y-92036D01*
X111651Y-92360D01*
X113597Y-93009D01*
X114246Y-93333D01*
X114570Y-93657D01*
X114895Y-94306D01*
Y-95279D01*
X114246Y-95928D01*
X113273Y-96252D01*
X111976D01*
X111003Y-95928D01*
X110354Y-95279D01*
X116419Y-89441D02*
Y-96252D01*
X120311D01*
X231110Y-87472D02*
X233705Y-90716D01*
Y-94283D01*
X236300Y-87472D02*
X233705Y-90716D01*
X241067Y-89743D02*
Y-94283D01*
Y-90716D02*
X240419Y-90067D01*
X239770Y-89743D01*
X238797D01*
X238148Y-90067D01*
X237500Y-90716D01*
X237175Y-91689D01*
Y-92338D01*
X237500Y-93310D01*
X238148Y-93959D01*
X238797Y-94283D01*
X239770D01*
X240419Y-93959D01*
X241067Y-93310D01*
X242884Y-89743D02*
Y-94283D01*
Y-91040D02*
X243857Y-90067D01*
X244505Y-89743D01*
X245478D01*
X246127Y-90067D01*
X246451Y-91040D01*
Y-94283D01*
X258452Y-89094D02*
X258127Y-88445D01*
X257479Y-87797D01*
X256830Y-87472D01*
X255533D01*
X254884Y-87797D01*
X254235Y-88445D01*
X253911Y-89094D01*
X253587Y-90067D01*
Y-91689D01*
X253911Y-92662D01*
X254235Y-93310D01*
X254884Y-93959D01*
X255533Y-94283D01*
X256830D01*
X257479Y-93959D01*
X258127Y-93310D01*
X258452Y-92662D01*
X260690Y-93635D02*
X260365Y-93959D01*
X260690Y-94283D01*
X261014Y-93959D01*
X260690Y-93635D01*
X271749Y-87472D02*
Y-94283D01*
Y-90716D02*
X271101Y-90067D01*
X270452Y-89743D01*
X269479D01*
X268830Y-90067D01*
X268182Y-90716D01*
X267857Y-91689D01*
Y-92338D01*
X268182Y-93310D01*
X268830Y-93959D01*
X269479Y-94283D01*
X270452D01*
X271101Y-93959D01*
X271749Y-93310D01*
X273566Y-91689D02*
X277458D01*
Y-91040D01*
X277133Y-90391D01*
X276809Y-90067D01*
X276160Y-89743D01*
X275187D01*
X274539Y-90067D01*
X273890Y-90716D01*
X273566Y-91689D01*
Y-92338D01*
X273890Y-93310D01*
X274539Y-93959D01*
X275187Y-94283D01*
X276160D01*
X276809Y-93959D01*
X277458Y-93310D01*
X289458Y-94283D02*
X286863Y-87472D01*
X284269Y-94283D01*
X285242Y-92013D02*
X288485D01*
X294615Y-89743D02*
X291047Y-94283D01*
Y-89743D02*
X294615D01*
X291047Y-94283D02*
X294615D01*
X296042Y-91689D02*
X299934D01*
Y-91040D01*
X299610Y-90391D01*
X299286Y-90067D01*
X298637Y-89743D01*
X297664D01*
X297015Y-90067D01*
X296367Y-90716D01*
X296042Y-91689D01*
Y-92338D01*
X296367Y-93310D01*
X297015Y-93959D01*
X297664Y-94283D01*
X298637D01*
X299286Y-93959D01*
X299934Y-93310D01*
X301394Y-89743D02*
Y-94283D01*
Y-91689D02*
X301718Y-90716D01*
X302367Y-90067D01*
X303015Y-89743D01*
X303988D01*
X304605Y-91689D02*
X308497D01*
Y-91040D01*
X308172Y-90391D01*
X307848Y-90067D01*
X307199Y-89743D01*
X306226D01*
X305578Y-90067D01*
X304929Y-90716D01*
X304605Y-91689D01*
Y-92338D01*
X304929Y-93310D01*
X305578Y-93959D01*
X306226Y-94283D01*
X307199D01*
X307848Y-93959D01*
X308497Y-93310D01*
X313848Y-87472D02*
Y-94283D01*
Y-90716D02*
X313199Y-90067D01*
X312551Y-89743D01*
X311578D01*
X310929Y-90067D01*
X310280Y-90716D01*
X309956Y-91689D01*
Y-92338D01*
X310280Y-93310D01*
X310929Y-93959D01*
X311578Y-94283D01*
X312551D01*
X313199Y-93959D01*
X313848Y-93310D01*
X317286Y-89743D02*
X316637Y-90067D01*
X315989Y-90716D01*
X315664Y-91689D01*
Y-92338D01*
X315989Y-93310D01*
X316637Y-93959D01*
X317286Y-94283D01*
X318259D01*
X318908Y-93959D01*
X319556Y-93310D01*
X319881Y-92338D01*
Y-91689D01*
X319556Y-90716D01*
X318908Y-90067D01*
X318259Y-89743D01*
X317286D01*
X125697Y-76764D02*
X128217D01*
X126957D01*
Y-69204D01*
X125697Y-70464D01*
X131997Y-76764D02*
Y-75504D01*
X133257D01*
Y-76764D01*
X131997D01*
X143337Y-69204D02*
X140817Y-70464D01*
X138297Y-72984D01*
Y-75504D01*
X139557Y-76764D01*
X142077D01*
X143337Y-75504D01*
Y-74244D01*
X142077Y-72984D01*
X138297D01*
X145857Y-76764D02*
Y-71724D01*
X147117D01*
X148377Y-72984D01*
Y-76764D01*
Y-72984D01*
X149637Y-71724D01*
X150897Y-72984D01*
Y-76764D01*
X153417D02*
Y-71724D01*
X154677D01*
X155937Y-72984D01*
Y-76764D01*
Y-72984D01*
X157197Y-71724D01*
X158457Y-72984D01*
Y-76764D01*
X80608Y-50103D02*
X75568D01*
Y-53883D01*
X78088D01*
X75568D01*
Y-57663D01*
X83128D02*
Y-50103D01*
X86908D01*
X88168Y-51363D01*
Y-53883D01*
X86908Y-55143D01*
X83128D01*
X85648D02*
X88168Y-57663D01*
X94468D02*
Y-50103D01*
X90688Y-53883D01*
X95728D01*
X390953Y-36705D02*
X393473D01*
X392213D01*
Y-29145D01*
X390953Y-30405D01*
X397253Y-36705D02*
Y-35445D01*
X398513D01*
Y-36705D01*
X397253D01*
X403553Y-30405D02*
X404813Y-29145D01*
X407333D01*
X408593Y-30405D01*
Y-35445D01*
X407333Y-36705D01*
X404813D01*
X403553Y-35445D01*
Y-30405D01*
X465559Y-36705D02*
X468079D01*
X466819D01*
Y-29145D01*
X465559Y-30405D01*
X476899Y-29145D02*
X471859D01*
Y-32925D01*
X474379Y-31665D01*
X475639D01*
X476899Y-32925D01*
Y-35445D01*
X475639Y-36705D01*
X473119D01*
X471859Y-35445D01*
X479419Y-36705D02*
X484459Y-31665D01*
X486979Y-30405D02*
X488239Y-29145D01*
X490759D01*
X492019Y-30405D01*
Y-35445D01*
X490759Y-36705D01*
X488239D01*
X486979Y-35445D01*
Y-30405D01*
X494539Y-29145D02*
X499579D01*
Y-30405D01*
X494539Y-35445D01*
Y-36705D01*
X502099D02*
X507139Y-31665D01*
X514699Y-36705D02*
X509659D01*
X514699Y-31665D01*
Y-30405D01*
X513439Y-29145D01*
X510919D01*
X509659Y-30405D01*
X517219D02*
X518479Y-29145D01*
X520999D01*
X522260Y-30405D01*
Y-35445D01*
X520999Y-36705D01*
X518479D01*
X517219Y-35445D01*
Y-30405D01*
X529820Y-36705D02*
X524780D01*
X529820Y-31665D01*
Y-30405D01*
X528560Y-29145D01*
X526040D01*
X524780Y-30405D01*
X532340D02*
X533600Y-29145D01*
X536120D01*
X537380Y-30405D01*
Y-35445D01*
X536120Y-36705D01*
X533600D01*
X532340Y-35445D01*
Y-30405D01*
X354206Y-67185D02*
X353255Y-66234D01*
X351353D01*
X350402Y-67185D01*
Y-68136D01*
X351353Y-69087D01*
X353255D01*
X354206Y-70039D01*
Y-70990D01*
X353255Y-71941D01*
X351353D01*
X350402Y-70990D01*
X356108Y-73843D02*
Y-68136D01*
X358962D01*
X359913Y-69087D01*
Y-70990D01*
X358962Y-71941D01*
X356108D01*
X362766Y-68136D02*
X364669D01*
X365620Y-69087D01*
Y-71941D01*
X362766D01*
X361815Y-70990D01*
X362766Y-70039D01*
X365620D01*
X371326Y-68136D02*
X368473D01*
X367522Y-69087D01*
Y-70990D01*
X368473Y-71941D01*
X371326D01*
X376082D02*
X374180D01*
X373229Y-70990D01*
Y-69087D01*
X374180Y-68136D01*
X376082D01*
X377033Y-69087D01*
Y-70039D01*
X373229D01*
X384642Y-66234D02*
X388447D01*
X386545D01*
Y-71941D01*
X393203D02*
X391300D01*
X390349Y-70990D01*
Y-69087D01*
X391300Y-68136D01*
X393203D01*
X394154Y-69087D01*
Y-70039D01*
X390349D01*
X399861Y-68136D02*
X397007D01*
X396056Y-69087D01*
Y-70990D01*
X397007Y-71941D01*
X399861D01*
X401763Y-66234D02*
Y-71941D01*
Y-69087D01*
X402714Y-68136D01*
X404616D01*
X405567Y-69087D01*
Y-71941D01*
X407470D02*
Y-68136D01*
X410323D01*
X411274Y-69087D01*
Y-71941D01*
X414128D02*
X416030D01*
X416981Y-70990D01*
Y-69087D01*
X416030Y-68136D01*
X414128D01*
X413176Y-69087D01*
Y-70990D01*
X414128Y-71941D01*
X418883D02*
X420786D01*
X419834D01*
Y-66234D01*
X418883D01*
X424590Y-71941D02*
X426492D01*
X427444Y-70990D01*
Y-69087D01*
X426492Y-68136D01*
X424590D01*
X423639Y-69087D01*
Y-70990D01*
X424590Y-71941D01*
X431248Y-73843D02*
X432199D01*
X433150Y-72892D01*
Y-68136D01*
X430297D01*
X429346Y-69087D01*
Y-70990D01*
X430297Y-71941D01*
X433150D01*
X435053Y-68136D02*
Y-70990D01*
X436004Y-71941D01*
X438857D01*
Y-72892D01*
X437906Y-73843D01*
X436955D01*
X438857Y-71941D02*
Y-68136D01*
X446466Y-71941D02*
Y-66234D01*
X449320D01*
X450271Y-67185D01*
Y-69087D01*
X449320Y-70039D01*
X446466D01*
X448369D02*
X450271Y-71941D01*
X455026D02*
X453124D01*
X452173Y-70990D01*
Y-69087D01*
X453124Y-68136D01*
X455026D01*
X455978Y-69087D01*
Y-70039D01*
X452173D01*
X457880Y-71941D02*
X460733D01*
X461684Y-70990D01*
X460733Y-70039D01*
X458831D01*
X457880Y-69087D01*
X458831Y-68136D01*
X461684D01*
X466440Y-71941D02*
X464538D01*
X463587Y-70990D01*
Y-69087D01*
X464538Y-68136D01*
X466440D01*
X467391Y-69087D01*
Y-70039D01*
X463587D01*
X470245Y-68136D02*
X472147D01*
X473098Y-69087D01*
Y-71941D01*
X470245D01*
X469293Y-70990D01*
X470245Y-70039D01*
X473098D01*
X475000Y-68136D02*
Y-71941D01*
Y-70039D01*
X475951Y-69087D01*
X476902Y-68136D01*
X477854D01*
X484512D02*
X481658D01*
X480707Y-69087D01*
Y-70990D01*
X481658Y-71941D01*
X484512D01*
X486414Y-66234D02*
Y-71941D01*
Y-69087D01*
X487365Y-68136D01*
X489267D01*
X490218Y-69087D01*
Y-71941D01*
X497827Y-66234D02*
Y-71941D01*
X501632D01*
X504486Y-68136D02*
X506388D01*
X507339Y-69087D01*
Y-71941D01*
X504486D01*
X503534Y-70990D01*
X504486Y-70039D01*
X507339D01*
X509241Y-66234D02*
Y-71941D01*
X512094D01*
X513046Y-70990D01*
Y-70039D01*
Y-69087D01*
X512094Y-68136D01*
X509241D01*
X515899Y-71941D02*
X517801D01*
X518752Y-70990D01*
Y-69087D01*
X517801Y-68136D01*
X515899D01*
X514948Y-69087D01*
Y-70990D01*
X515899Y-71941D01*
X520655Y-68136D02*
Y-71941D01*
Y-70039D01*
X521606Y-69087D01*
X522557Y-68136D01*
X523508D01*
X527313D02*
X529215D01*
X530166Y-69087D01*
Y-71941D01*
X527313D01*
X526362Y-70990D01*
X527313Y-70039D01*
X530166D01*
X533019Y-67185D02*
Y-68136D01*
X532068D01*
X533971D01*
X533019D01*
Y-70990D01*
X533971Y-71941D01*
X536824Y-68136D02*
Y-70990D01*
X537775Y-71941D01*
X540629D01*
Y-72892D01*
X539677Y-73843D01*
X538726D01*
X540629Y-71941D02*
Y-68136D01*
X354665Y-77258D02*
X350992D01*
Y-80013D01*
X352829D01*
X350992D01*
Y-82768D01*
X359257D02*
X357420D01*
X356502Y-81849D01*
Y-80013D01*
X357420Y-79094D01*
X359257D01*
X360175Y-80013D01*
Y-80931D01*
X356502D01*
X365686Y-77258D02*
Y-82768D01*
X362930D01*
X362012Y-81849D01*
Y-80013D01*
X362930Y-79094D01*
X365686D01*
X370277Y-82768D02*
X368441D01*
X367522Y-81849D01*
Y-80013D01*
X368441Y-79094D01*
X370277D01*
X371196Y-80013D01*
Y-80931D01*
X367522D01*
X373032Y-79094D02*
Y-82768D01*
Y-80931D01*
X373951Y-80013D01*
X374869Y-79094D01*
X375787D01*
X379461D02*
X381297D01*
X382216Y-80013D01*
Y-82768D01*
X379461D01*
X378542Y-81849D01*
X379461Y-80931D01*
X382216D01*
X384052Y-82768D02*
X385889D01*
X384971D01*
Y-77258D01*
X384052D01*
X394154D02*
Y-81849D01*
X395072Y-82768D01*
X396909D01*
X397827Y-81849D01*
Y-77258D01*
X399664Y-82768D02*
Y-79094D01*
X402419D01*
X403337Y-80013D01*
Y-82768D01*
X405174D02*
X407011D01*
X406092D01*
Y-79094D01*
X405174D01*
X409766D02*
X411602Y-82768D01*
X413439Y-79094D01*
X418031Y-82768D02*
X416194D01*
X415276Y-81849D01*
Y-80013D01*
X416194Y-79094D01*
X418031D01*
X418949Y-80013D01*
Y-80931D01*
X415276D01*
X420786Y-79094D02*
Y-82768D01*
Y-80931D01*
X421704Y-80013D01*
X422622Y-79094D01*
X423541D01*
X426296Y-82768D02*
X429051D01*
X429969Y-81849D01*
X429051Y-80931D01*
X427214D01*
X426296Y-80013D01*
X427214Y-79094D01*
X429969D01*
X431806Y-82768D02*
X433643D01*
X432724D01*
Y-79094D01*
X431806D01*
X437316Y-78176D02*
Y-79094D01*
X436398D01*
X438234D01*
X437316D01*
Y-81849D01*
X438234Y-82768D01*
X440989Y-79094D02*
Y-81849D01*
X441908Y-82768D01*
X444663D01*
Y-83686D01*
X443744Y-84604D01*
X442826D01*
X444663Y-82768D02*
Y-79094D01*
X452928Y-82768D02*
X454764D01*
X455683Y-81849D01*
Y-80013D01*
X454764Y-79094D01*
X452928D01*
X452009Y-80013D01*
Y-81849D01*
X452928Y-82768D01*
X458438D02*
Y-78176D01*
Y-80013D01*
X457519D01*
X459356D01*
X458438D01*
Y-78176D01*
X459356Y-77258D01*
X471294Y-78176D02*
X470376Y-77258D01*
X468539D01*
X467621Y-78176D01*
Y-79094D01*
X468539Y-80013D01*
X470376D01*
X471294Y-80931D01*
Y-81849D01*
X470376Y-82768D01*
X468539D01*
X467621Y-81849D01*
X474050Y-79094D02*
X475886D01*
X476804Y-80013D01*
Y-82768D01*
X474050D01*
X473131Y-81849D01*
X474050Y-80931D01*
X476804D01*
X478641Y-82768D02*
Y-79094D01*
X481396D01*
X482314Y-80013D01*
Y-82768D01*
X485070Y-78176D02*
Y-79094D01*
X484151D01*
X485988D01*
X485070D01*
Y-81849D01*
X485988Y-82768D01*
X489661Y-79094D02*
X491498D01*
X492416Y-80013D01*
Y-82768D01*
X489661D01*
X488743Y-81849D01*
X489661Y-80931D01*
X492416D01*
X503436Y-78176D02*
X502518Y-77258D01*
X500681D01*
X499763Y-78176D01*
Y-81849D01*
X500681Y-82768D01*
X502518D01*
X503436Y-81849D01*
X506191Y-79094D02*
X508028D01*
X508946Y-80013D01*
Y-82768D01*
X506191D01*
X505273Y-81849D01*
X506191Y-80931D01*
X508946D01*
X511701Y-78176D02*
Y-79094D01*
X510783D01*
X512620D01*
X511701D01*
Y-81849D01*
X512620Y-82768D01*
X516293Y-79094D02*
X518130D01*
X519048Y-80013D01*
Y-82768D01*
X516293D01*
X515375Y-81849D01*
X516293Y-80931D01*
X519048D01*
X520885Y-79094D02*
Y-82768D01*
Y-80931D01*
X521803Y-80013D01*
X522721Y-79094D01*
X523640D01*
X526395Y-82768D02*
X528231D01*
X527313D01*
Y-79094D01*
X526395D01*
X530986Y-82768D02*
Y-79094D01*
X533741D01*
X534660Y-80013D01*
Y-82768D01*
X537415Y-79094D02*
X539252D01*
X540170Y-80013D01*
Y-82768D01*
X537415D01*
X536496Y-81849D01*
X537415Y-80931D01*
X540170D01*
X-8560Y227667D02*
Y221669D01*
X-4561D01*
X-1562Y225668D02*
X437D01*
X1437Y224668D01*
Y221669D01*
X-1562D01*
X-2562Y222669D01*
X-1562Y223669D01*
X1437D01*
X3436Y225668D02*
Y222669D01*
X4436Y221669D01*
X7435D01*
Y220670D01*
X6435Y219670D01*
X5435D01*
X7435Y221669D02*
Y225668D01*
X12433Y221669D02*
X10434D01*
X9434Y222669D01*
Y224668D01*
X10434Y225668D01*
X12433D01*
X13433Y224668D01*
Y223669D01*
X9434D01*
X15432Y225668D02*
Y221669D01*
Y223669D01*
X16432Y224668D01*
X17431Y225668D01*
X18431D01*
X-4561Y161669D02*
X-8560D01*
X-4561Y165668D01*
Y166668D01*
X-5561Y167667D01*
X-7560D01*
X-8560Y166668D01*
Y185669D02*
X-6561D01*
X-7560D01*
Y191667D01*
X-8560Y190668D01*
X32431Y221669D02*
Y227667D01*
X36430Y221669D01*
Y227667D01*
X39429Y225668D02*
X41428D01*
X42428Y224668D01*
Y221669D01*
X39429D01*
X38429Y222669D01*
X39429Y223669D01*
X42428D01*
X44427Y221669D02*
Y225668D01*
X45427D01*
X46426Y224668D01*
Y221669D01*
Y224668D01*
X47426Y225668D01*
X48426Y224668D01*
Y221669D01*
X53424D02*
X51425D01*
X50425Y222669D01*
Y224668D01*
X51425Y225668D01*
X53424D01*
X54424Y224668D01*
Y223669D01*
X50425D01*
X32431Y143667D02*
Y137669D01*
X35430D01*
X36430Y138669D01*
Y139669D01*
X35430Y140668D01*
X32431D01*
X35430D01*
X36430Y141668D01*
Y142668D01*
X35430Y143667D01*
X32431D01*
X39429Y137669D02*
X41428D01*
X42428Y138669D01*
Y140668D01*
X41428Y141668D01*
X39429D01*
X38429Y140668D01*
Y138669D01*
X39429Y137669D01*
X45427Y142668D02*
Y141668D01*
X44427D01*
X46426D01*
X45427D01*
Y138669D01*
X46426Y137669D01*
X50425Y142668D02*
Y141668D01*
X49426D01*
X51425D01*
X50425D01*
Y138669D01*
X51425Y137669D01*
X55424D02*
X57423D01*
X58423Y138669D01*
Y140668D01*
X57423Y141668D01*
X55424D01*
X54424Y140668D01*
Y138669D01*
X55424Y137669D01*
X60422D02*
Y141668D01*
X61422D01*
X62421Y140668D01*
Y137669D01*
Y140668D01*
X63421Y141668D01*
X64421Y140668D01*
Y137669D01*
X75417Y143667D02*
X73418D01*
X72418Y142668D01*
Y138669D01*
X73418Y137669D01*
X75417D01*
X76417Y138669D01*
Y142668D01*
X75417Y143667D01*
X78416Y141668D02*
X80415Y137669D01*
X82415Y141668D01*
X87413Y137669D02*
X85414D01*
X84414Y138669D01*
Y140668D01*
X85414Y141668D01*
X87413D01*
X88413Y140668D01*
Y139669D01*
X84414D01*
X90412Y141668D02*
Y137669D01*
Y139669D01*
X91412Y140668D01*
X92412Y141668D01*
X93411D01*
X96410Y137669D02*
X98410D01*
X97410D01*
Y143667D01*
X96410D01*
X102408Y141668D02*
X104408D01*
X105407Y140668D01*
Y137669D01*
X102408D01*
X101409Y138669D01*
X102408Y139669D01*
X105407D01*
X107407Y141668D02*
Y138669D01*
X108406Y137669D01*
X111406D01*
Y136670D01*
X110406Y135670D01*
X109406D01*
X111406Y137669D02*
Y141668D01*
X32431Y155667D02*
Y149669D01*
X35430D01*
X36430Y150669D01*
Y151669D01*
X35430Y152668D01*
X32431D01*
X35430D01*
X36430Y153668D01*
Y154668D01*
X35430Y155667D01*
X32431D01*
X39429Y149669D02*
X41428D01*
X42428Y150669D01*
Y152668D01*
X41428Y153668D01*
X39429D01*
X38429Y152668D01*
Y150669D01*
X39429Y149669D01*
X45427Y154668D02*
Y153668D01*
X44427D01*
X46426D01*
X45427D01*
Y150669D01*
X46426Y149669D01*
X50425Y154668D02*
Y153668D01*
X49426D01*
X51425D01*
X50425D01*
Y150669D01*
X51425Y149669D01*
X55424D02*
X57423D01*
X58423Y150669D01*
Y152668D01*
X57423Y153668D01*
X55424D01*
X54424Y152668D01*
Y150669D01*
X55424Y149669D01*
X60422D02*
Y153668D01*
X61422D01*
X62421Y152668D01*
Y149669D01*
Y152668D01*
X63421Y153668D01*
X64421Y152668D01*
Y149669D01*
X76417Y154668D02*
X75417Y155667D01*
X73418D01*
X72418Y154668D01*
Y153668D01*
X73418Y152668D01*
X75417D01*
X76417Y151669D01*
Y150669D01*
X75417Y149669D01*
X73418D01*
X72418Y150669D01*
X79416Y149669D02*
X81415D01*
X82415Y150669D01*
Y152668D01*
X81415Y153668D01*
X79416D01*
X78416Y152668D01*
Y150669D01*
X79416Y149669D01*
X84414D02*
X86414D01*
X85414D01*
Y155667D01*
X84414D01*
X93411D02*
Y149669D01*
X90412D01*
X89413Y150669D01*
Y152668D01*
X90412Y153668D01*
X93411D01*
X98410Y149669D02*
X96410D01*
X95411Y150669D01*
Y152668D01*
X96410Y153668D01*
X98410D01*
X99409Y152668D01*
Y151669D01*
X95411D01*
X101409Y153668D02*
Y149669D01*
Y151669D01*
X102408Y152668D01*
X103408Y153668D01*
X104408D01*
X32431Y167667D02*
Y161669D01*
X35430D01*
X36430Y162669D01*
Y163669D01*
X35430Y164668D01*
X32431D01*
X35430D01*
X36430Y165668D01*
Y166668D01*
X35430Y167667D01*
X32431D01*
X39429Y161669D02*
X41428D01*
X42428Y162669D01*
Y164668D01*
X41428Y165668D01*
X39429D01*
X38429Y164668D01*
Y162669D01*
X39429Y161669D01*
X45427Y166668D02*
Y165668D01*
X44427D01*
X46426D01*
X45427D01*
Y162669D01*
X46426Y161669D01*
X50425Y166668D02*
Y165668D01*
X49426D01*
X51425D01*
X50425D01*
Y162669D01*
X51425Y161669D01*
X55424D02*
X57423D01*
X58423Y162669D01*
Y164668D01*
X57423Y165668D01*
X55424D01*
X54424Y164668D01*
Y162669D01*
X55424Y161669D01*
X60422D02*
Y165668D01*
X61422D01*
X62421Y164668D01*
Y161669D01*
Y164668D01*
X63421Y165668D01*
X64421Y164668D01*
Y161669D01*
X72418Y167667D02*
Y161669D01*
X76417D01*
X79416Y165668D02*
X81415D01*
X82415Y164668D01*
Y161669D01*
X79416D01*
X78416Y162669D01*
X79416Y163669D01*
X82415D01*
X84414Y165668D02*
Y162669D01*
X85414Y161669D01*
X88413D01*
Y160670D01*
X87413Y159670D01*
X86414D01*
X88413Y161669D02*
Y165668D01*
X93411Y161669D02*
X91412D01*
X90412Y162669D01*
Y164668D01*
X91412Y165668D01*
X93411D01*
X94411Y164668D01*
Y163669D01*
X90412D01*
X96410Y165668D02*
Y161669D01*
Y163669D01*
X97410Y164668D01*
X98410Y165668D01*
X99409D01*
X32431Y179667D02*
Y173669D01*
X35430D01*
X36430Y174669D01*
Y178668D01*
X35430Y179667D01*
X32431D01*
X38429Y173669D02*
X40429D01*
X39429D01*
Y177668D01*
X38429D01*
X46426Y173669D02*
X44427D01*
X43428Y174669D01*
Y176668D01*
X44427Y177668D01*
X46426D01*
X47426Y176668D01*
Y175669D01*
X43428D01*
X49426Y173669D02*
X51425D01*
X50425D01*
Y179667D01*
X49426D01*
X57423Y173669D02*
X55424D01*
X54424Y174669D01*
Y176668D01*
X55424Y177668D01*
X57423D01*
X58423Y176668D01*
Y175669D01*
X54424D01*
X64421Y177668D02*
X61422D01*
X60422Y176668D01*
Y174669D01*
X61422Y173669D01*
X64421D01*
X67420Y178668D02*
Y177668D01*
X66420D01*
X68419D01*
X67420D01*
Y174669D01*
X68419Y173669D01*
X71418Y177668D02*
Y173669D01*
Y175669D01*
X72418Y176668D01*
X73418Y177668D01*
X74418D01*
X77416Y173669D02*
X79416D01*
X78416D01*
Y177668D01*
X77416D01*
X86414D02*
X83415D01*
X82415Y176668D01*
Y174669D01*
X83415Y173669D01*
X86414D01*
X94411D02*
X96410D01*
X95411D01*
Y179667D01*
X94411Y178668D01*
X32431Y191667D02*
X36430D01*
X34430D01*
Y185669D01*
X39429D02*
X41428D01*
X42428Y186669D01*
Y188668D01*
X41428Y189668D01*
X39429D01*
X38429Y188668D01*
Y186669D01*
X39429Y185669D01*
X44427Y183670D02*
Y189668D01*
X47426D01*
X48426Y188668D01*
Y186669D01*
X47426Y185669D01*
X44427D01*
X56423Y191667D02*
Y185669D01*
X60422D01*
X63421Y189668D02*
X65420D01*
X66420Y188668D01*
Y185669D01*
X63421D01*
X62421Y186669D01*
X63421Y187669D01*
X66420D01*
X68419Y189668D02*
Y186669D01*
X69419Y185669D01*
X72418D01*
Y184670D01*
X71418Y183670D01*
X70419D01*
X72418Y185669D02*
Y189668D01*
X77416Y185669D02*
X75417D01*
X74418Y186669D01*
Y188668D01*
X75417Y189668D01*
X77416D01*
X78416Y188668D01*
Y187669D01*
X74418D01*
X80415Y189668D02*
Y185669D01*
Y187669D01*
X81415Y188668D01*
X82415Y189668D01*
X83415D01*
X32431Y203667D02*
X36430D01*
X34430D01*
Y197669D01*
X39429D02*
X41428D01*
X42428Y198669D01*
Y200668D01*
X41428Y201668D01*
X39429D01*
X38429Y200668D01*
Y198669D01*
X39429Y197669D01*
X44427Y195670D02*
Y201668D01*
X47426D01*
X48426Y200668D01*
Y198669D01*
X47426Y197669D01*
X44427D01*
X60422Y202668D02*
X59422Y203667D01*
X57423D01*
X56423Y202668D01*
Y201668D01*
X57423Y200668D01*
X59422D01*
X60422Y199669D01*
Y198669D01*
X59422Y197669D01*
X57423D01*
X56423Y198669D01*
X63421Y197669D02*
X65420D01*
X66420Y198669D01*
Y200668D01*
X65420Y201668D01*
X63421D01*
X62421Y200668D01*
Y198669D01*
X63421Y197669D01*
X68419D02*
X70419D01*
X69419D01*
Y203667D01*
X68419D01*
X77416D02*
Y197669D01*
X74418D01*
X73418Y198669D01*
Y200668D01*
X74418Y201668D01*
X77416D01*
X82415Y197669D02*
X80415D01*
X79416Y198669D01*
Y200668D01*
X80415Y201668D01*
X82415D01*
X83415Y200668D01*
Y199669D01*
X79416D01*
X85414Y201668D02*
Y197669D01*
Y199669D01*
X86414Y200668D01*
X87413Y201668D01*
X88413D01*
X32431Y215667D02*
X36430D01*
X34430D01*
Y209669D01*
X39429D02*
X41428D01*
X42428Y210669D01*
Y212668D01*
X41428Y213668D01*
X39429D01*
X38429Y212668D01*
Y210669D01*
X39429Y209669D01*
X44427Y207670D02*
Y213668D01*
X47426D01*
X48426Y212668D01*
Y210669D01*
X47426Y209669D01*
X44427D01*
X59422Y215667D02*
X57423D01*
X56423Y214668D01*
Y210669D01*
X57423Y209669D01*
X59422D01*
X60422Y210669D01*
Y214668D01*
X59422Y215667D01*
X62421Y213668D02*
X64421Y209669D01*
X66420Y213668D01*
X71418Y209669D02*
X69419D01*
X68419Y210669D01*
Y212668D01*
X69419Y213668D01*
X71418D01*
X72418Y212668D01*
Y211669D01*
X68419D01*
X74418Y213668D02*
Y209669D01*
Y211669D01*
X75417Y212668D01*
X76417Y213668D01*
X77416D01*
X80415Y209669D02*
X82415D01*
X81415D01*
Y215667D01*
X80415D01*
X86414Y213668D02*
X88413D01*
X89413Y212668D01*
Y209669D01*
X86414D01*
X85414Y210669D01*
X86414Y211669D01*
X89413D01*
X91412Y213668D02*
Y210669D01*
X92412Y209669D01*
X95411D01*
Y208670D01*
X94411Y207670D01*
X93411D01*
X95411Y209669D02*
Y213668D01*
X125406Y221669D02*
Y227667D01*
X127405Y225668D01*
X129404Y227667D01*
Y221669D01*
X132403Y225668D02*
X134403D01*
X135402Y224668D01*
Y221669D01*
X132403D01*
X131404Y222669D01*
X132403Y223669D01*
X135402D01*
X138401Y226668D02*
Y225668D01*
X137402D01*
X139401D01*
X138401D01*
Y222669D01*
X139401Y221669D01*
X145399D02*
X143400D01*
X142400Y222669D01*
Y224668D01*
X143400Y225668D01*
X145399D01*
X146399Y224668D01*
Y223669D01*
X142400D01*
X148398Y225668D02*
Y221669D01*
Y223669D01*
X149398Y224668D01*
X150397Y225668D01*
X151397D01*
X154396Y221669D02*
X156395D01*
X155396D01*
Y225668D01*
X154396D01*
X160394D02*
X162393D01*
X163393Y224668D01*
Y221669D01*
X160394D01*
X159395Y222669D01*
X160394Y223669D01*
X163393D01*
X165393Y221669D02*
X167392D01*
X166392D01*
Y227667D01*
X165393D01*
X129404Y154668D02*
X128404Y155667D01*
X126405D01*
X125406Y154668D01*
Y153668D01*
X126405Y152668D01*
X128404D01*
X129404Y151669D01*
Y150669D01*
X128404Y149669D01*
X126405D01*
X125406Y150669D01*
X132403Y149669D02*
X134403D01*
X135402Y150669D01*
Y152668D01*
X134403Y153668D01*
X132403D01*
X131404Y152668D01*
Y150669D01*
X132403Y149669D01*
X137402D02*
X139401D01*
X138401D01*
Y155667D01*
X137402D01*
X146399D02*
Y149669D01*
X143400D01*
X142400Y150669D01*
Y152668D01*
X143400Y153668D01*
X146399D01*
X151397Y149669D02*
X149398D01*
X148398Y150669D01*
Y152668D01*
X149398Y153668D01*
X151397D01*
X152397Y152668D01*
Y151669D01*
X148398D01*
X154396Y153668D02*
Y149669D01*
Y151669D01*
X155396Y152668D01*
X156395Y153668D01*
X157395D01*
X166392Y149669D02*
Y155667D01*
X169391D01*
X170391Y154668D01*
Y152668D01*
X169391Y151669D01*
X166392D01*
X168392D02*
X170391Y149669D01*
X175389D02*
X173390D01*
X172390Y150669D01*
Y152668D01*
X173390Y153668D01*
X175389D01*
X176389Y152668D01*
Y151669D01*
X172390D01*
X178388Y149669D02*
X181387D01*
X182387Y150669D01*
X181387Y151669D01*
X179388D01*
X178388Y152668D01*
X179388Y153668D01*
X182387D01*
X184386Y149669D02*
X186386D01*
X185386D01*
Y153668D01*
X184386D01*
X189385Y149669D02*
X192384D01*
X193384Y150669D01*
X192384Y151669D01*
X190384D01*
X189385Y152668D01*
X190384Y153668D01*
X193384D01*
X196382Y154668D02*
Y153668D01*
X195383D01*
X197382D01*
X196382D01*
Y150669D01*
X197382Y149669D01*
X129404Y166668D02*
X128404Y167667D01*
X126405D01*
X125406Y166668D01*
Y162669D01*
X126405Y161669D01*
X128404D01*
X129404Y162669D01*
X132403Y161669D02*
X134403D01*
X135402Y162669D01*
Y164668D01*
X134403Y165668D01*
X132403D01*
X131404Y164668D01*
Y162669D01*
X132403Y161669D01*
X137402Y159670D02*
Y165668D01*
X140401D01*
X141400Y164668D01*
Y162669D01*
X140401Y161669D01*
X137402D01*
X143400Y159670D02*
Y165668D01*
X146399D01*
X147398Y164668D01*
Y162669D01*
X146399Y161669D01*
X143400D01*
X152397D02*
X150397D01*
X149398Y162669D01*
Y164668D01*
X150397Y165668D01*
X152397D01*
X153396Y164668D01*
Y163669D01*
X149398D01*
X155396Y165668D02*
Y161669D01*
Y163669D01*
X156395Y164668D01*
X157395Y165668D01*
X158395D01*
X129404Y179667D02*
X125406D01*
Y176668D01*
X127405D01*
X125406D01*
Y173669D01*
X131404D02*
Y179667D01*
X134403D01*
X135402Y178668D01*
Y176668D01*
X134403Y175669D01*
X131404D01*
X133403D02*
X135402Y173669D01*
X137402Y176668D02*
X141400D01*
X146399Y173669D02*
Y179667D01*
X143400Y176668D01*
X147398D01*
X129404Y190668D02*
X128404Y191667D01*
X126405D01*
X125406Y190668D01*
Y186669D01*
X126405Y185669D01*
X128404D01*
X129404Y186669D01*
X132403Y185669D02*
X134403D01*
X135402Y186669D01*
Y188668D01*
X134403Y189668D01*
X132403D01*
X131404Y188668D01*
Y186669D01*
X132403Y185669D01*
X137402Y183670D02*
Y189668D01*
X140401D01*
X141400Y188668D01*
Y186669D01*
X140401Y185669D01*
X137402D01*
X143400Y183670D02*
Y189668D01*
X146399D01*
X147398Y188668D01*
Y186669D01*
X146399Y185669D01*
X143400D01*
X152397D02*
X150397D01*
X149398Y186669D01*
Y188668D01*
X150397Y189668D01*
X152397D01*
X153396Y188668D01*
Y187669D01*
X149398D01*
X155396Y189668D02*
Y185669D01*
Y187669D01*
X156395Y188668D01*
X157395Y189668D01*
X158395D01*
X129404Y202668D02*
X128404Y203667D01*
X126405D01*
X125406Y202668D01*
Y201668D01*
X126405Y200668D01*
X128404D01*
X129404Y199669D01*
Y198669D01*
X128404Y197669D01*
X126405D01*
X125406Y198669D01*
X132403Y197669D02*
X134403D01*
X135402Y198669D01*
Y200668D01*
X134403Y201668D01*
X132403D01*
X131404Y200668D01*
Y198669D01*
X132403Y197669D01*
X137402D02*
X139401D01*
X138401D01*
Y203667D01*
X137402D01*
X146399D02*
Y197669D01*
X143400D01*
X142400Y198669D01*
Y200668D01*
X143400Y201668D01*
X146399D01*
X151397Y197669D02*
X149398D01*
X148398Y198669D01*
Y200668D01*
X149398Y201668D01*
X151397D01*
X152397Y200668D01*
Y199669D01*
X148398D01*
X154396Y201668D02*
Y197669D01*
Y199669D01*
X155396Y200668D01*
X156395Y201668D01*
X157395D01*
X166392Y197669D02*
Y203667D01*
X169391D01*
X170391Y202668D01*
Y200668D01*
X169391Y199669D01*
X166392D01*
X168392D02*
X170391Y197669D01*
X175389D02*
X173390D01*
X172390Y198669D01*
Y200668D01*
X173390Y201668D01*
X175389D01*
X176389Y200668D01*
Y199669D01*
X172390D01*
X178388Y197669D02*
X181387D01*
X182387Y198669D01*
X181387Y199669D01*
X179388D01*
X178388Y200668D01*
X179388Y201668D01*
X182387D01*
X184386Y197669D02*
X186386D01*
X185386D01*
Y201668D01*
X184386D01*
X189385Y197669D02*
X192384D01*
X193384Y198669D01*
X192384Y199669D01*
X190384D01*
X189385Y200668D01*
X190384Y201668D01*
X193384D01*
X196382Y202668D02*
Y201668D01*
X195383D01*
X197382D01*
X196382D01*
Y198669D01*
X197382Y197669D01*
X211382Y227667D02*
X215381D01*
X213382D01*
Y221669D01*
X217380Y227667D02*
Y221669D01*
Y224668D01*
X218380Y225668D01*
X220379D01*
X221379Y224668D01*
Y221669D01*
X223378D02*
X225378D01*
X224378D01*
Y225668D01*
X223378D01*
X232375D02*
X229376D01*
X228377Y224668D01*
Y222669D01*
X229376Y221669D01*
X232375D01*
X234375D02*
Y227667D01*
Y223669D02*
X237374Y225668D01*
X234375Y223669D02*
X237374Y221669D01*
X240373D02*
Y225668D01*
X243372D01*
X244372Y224668D01*
Y221669D01*
X249370D02*
X247371D01*
X246371Y222669D01*
Y224668D01*
X247371Y225668D01*
X249370D01*
X250370Y224668D01*
Y223669D01*
X246371D01*
X252369Y221669D02*
X255368D01*
X256368Y222669D01*
X255368Y223669D01*
X253369D01*
X252369Y224668D01*
X253369Y225668D01*
X256368D01*
X258367Y221669D02*
X261366D01*
X262366Y222669D01*
X261366Y223669D01*
X259367D01*
X258367Y224668D01*
X259367Y225668D01*
X262366D01*
X211382Y154668D02*
X212382Y155667D01*
X214381D01*
X215381Y154668D01*
Y150669D01*
X214381Y149669D01*
X212382D01*
X211382Y150669D01*
Y154668D01*
X217380Y149669D02*
Y150669D01*
X218380D01*
Y149669D01*
X217380D01*
X225378D02*
Y155667D01*
X222379Y152668D01*
X226377D01*
X228377Y154668D02*
X229376Y155667D01*
X231376D01*
X232375Y154668D01*
Y150669D01*
X231376Y149669D01*
X229376D01*
X228377Y150669D01*
Y154668D01*
X234375Y149669D02*
Y153668D01*
X235374D01*
X236374Y152668D01*
Y149669D01*
Y152668D01*
X237374Y153668D01*
X238373Y152668D01*
Y149669D01*
X240373D02*
X242372D01*
X241372D01*
Y153668D01*
X240373D01*
X245371Y149669D02*
X247371D01*
X246371D01*
Y155667D01*
X245371D01*
X211382Y161669D02*
X213382D01*
X212382D01*
Y167667D01*
X211382Y166668D01*
X216381Y161669D02*
Y162669D01*
X217380D01*
Y161669D01*
X216381D01*
X224378D02*
Y167667D01*
X221379Y164668D01*
X225378D01*
X227377Y166668D02*
X228377Y167667D01*
X230376D01*
X231376Y166668D01*
Y162669D01*
X230376Y161669D01*
X228377D01*
X227377Y162669D01*
Y166668D01*
X233375Y161669D02*
Y165668D01*
X234375D01*
X235374Y164668D01*
Y161669D01*
Y164668D01*
X236374Y165668D01*
X237374Y164668D01*
Y161669D01*
X239373D02*
X241372D01*
X240373D01*
Y165668D01*
X239373D01*
X244372Y161669D02*
X246371D01*
X245371D01*
Y167667D01*
X244372D01*
X215381Y179667D02*
X211382D01*
Y176668D01*
X213382Y177668D01*
X214381D01*
X215381Y176668D01*
Y174669D01*
X214381Y173669D01*
X212382D01*
X211382Y174669D01*
X217380D02*
X218380Y173669D01*
X220379D01*
X221379Y174669D01*
Y178668D01*
X220379Y179667D01*
X218380D01*
X217380Y178668D01*
Y177668D01*
X218380Y176668D01*
X221379D01*
X223378Y173669D02*
Y174669D01*
X224378D01*
Y173669D01*
X223378D01*
X228377Y178668D02*
X229376Y179667D01*
X231376D01*
X232375Y178668D01*
Y174669D01*
X231376Y173669D01*
X229376D01*
X228377Y174669D01*
Y178668D01*
X238373Y179667D02*
X236374Y178668D01*
X234375Y176668D01*
Y174669D01*
X235374Y173669D01*
X237374D01*
X238373Y174669D01*
Y175669D01*
X237374Y176668D01*
X234375D01*
X240373Y173669D02*
Y177668D01*
X241372D01*
X242372Y176668D01*
Y173669D01*
Y176668D01*
X243372Y177668D01*
X244372Y176668D01*
Y173669D01*
X246371D02*
X248370D01*
X247371D01*
Y177668D01*
X246371D01*
X251369Y173669D02*
X253369D01*
X252369D01*
Y179667D01*
X251369D01*
X211382Y185669D02*
X213382D01*
X212382D01*
Y191667D01*
X211382Y190668D01*
X216381Y185669D02*
Y186669D01*
X217380D01*
Y185669D01*
X216381D01*
X224378D02*
Y191667D01*
X221379Y188668D01*
X225378D01*
X227377Y190668D02*
X228377Y191667D01*
X230376D01*
X231376Y190668D01*
Y186669D01*
X230376Y185669D01*
X228377D01*
X227377Y186669D01*
Y190668D01*
X233375Y185669D02*
Y189668D01*
X234375D01*
X235374Y188668D01*
Y185669D01*
Y188668D01*
X236374Y189668D01*
X237374Y188668D01*
Y185669D01*
X239373D02*
X241372D01*
X240373D01*
Y189668D01*
X239373D01*
X244372Y185669D02*
X246371D01*
X245371D01*
Y191667D01*
X244372D01*
X211382Y202668D02*
X212382Y203667D01*
X214381D01*
X215381Y202668D01*
Y198669D01*
X214381Y197669D01*
X212382D01*
X211382Y198669D01*
Y202668D01*
X217380Y197669D02*
Y198669D01*
X218380D01*
Y197669D01*
X217380D01*
X225378D02*
Y203667D01*
X222379Y200668D01*
X226377D01*
X228377Y202668D02*
X229376Y203667D01*
X231376D01*
X232375Y202668D01*
Y198669D01*
X231376Y197669D01*
X229376D01*
X228377Y198669D01*
Y202668D01*
X234375Y197669D02*
Y201668D01*
X235374D01*
X236374Y200668D01*
Y197669D01*
Y200668D01*
X237374Y201668D01*
X238373Y200668D01*
Y197669D01*
X240373D02*
X242372D01*
X241372D01*
Y201668D01*
X240373D01*
X245371Y197669D02*
X247371D01*
X246371D01*
Y203667D01*
X245371D01*
X280364Y226668D02*
X279365Y227667D01*
X277365D01*
X276366Y226668D01*
Y222669D01*
X277365Y221669D01*
X279365D01*
X280364Y222669D01*
X283364Y221669D02*
X285363D01*
X286363Y222669D01*
Y224668D01*
X285363Y225668D01*
X283364D01*
X282364Y224668D01*
Y222669D01*
X283364Y221669D01*
X288362D02*
Y225668D01*
X291361D01*
X292361Y224668D01*
Y221669D01*
X294360D02*
X297359D01*
X298359Y222669D01*
X297359Y223669D01*
X295360D01*
X294360Y224668D01*
X295360Y225668D01*
X298359D01*
X301358Y226668D02*
Y225668D01*
X300358D01*
X302357D01*
X301358D01*
Y222669D01*
X302357Y221669D01*
X306356Y225668D02*
X308355D01*
X309355Y224668D01*
Y221669D01*
X306356D01*
X305356Y222669D01*
X306356Y223669D01*
X309355D01*
X311354Y221669D02*
Y225668D01*
X314353D01*
X315353Y224668D01*
Y221669D01*
X318352Y226668D02*
Y225668D01*
X317353D01*
X319352D01*
X318352D01*
Y222669D01*
X319352Y221669D01*
X276366Y154668D02*
X277365Y155667D01*
X279365D01*
X280364Y154668D01*
Y153668D01*
X279365Y152668D01*
X278365D01*
X279365D01*
X280364Y151669D01*
Y150669D01*
X279365Y149669D01*
X277365D01*
X276366Y150669D01*
X282364Y149669D02*
Y150669D01*
X283364D01*
Y149669D01*
X282364D01*
X287362Y154668D02*
X288362Y155667D01*
X290361D01*
X291361Y154668D01*
Y153668D01*
X290361Y152668D01*
X291361Y151669D01*
Y150669D01*
X290361Y149669D01*
X288362D01*
X287362Y150669D01*
Y151669D01*
X288362Y152668D01*
X287362Y153668D01*
Y154668D01*
X288362Y152668D02*
X290361D01*
X279365Y173669D02*
Y179667D01*
X276366Y176668D01*
X280364D01*
X282364Y173669D02*
Y174669D01*
X283364D01*
Y173669D01*
X282364D01*
X291361Y179667D02*
X287362D01*
Y176668D01*
X289362Y177668D01*
X290361D01*
X291361Y176668D01*
Y174669D01*
X290361Y173669D01*
X288362D01*
X287362Y174669D01*
X276366Y202668D02*
X277365Y203667D01*
X279365D01*
X280364Y202668D01*
Y201668D01*
X279365Y200668D01*
X278365D01*
X279365D01*
X280364Y199669D01*
Y198669D01*
X279365Y197669D01*
X277365D01*
X276366Y198669D01*
X282364Y197669D02*
Y198669D01*
X283364D01*
Y197669D01*
X282364D01*
X287362Y202668D02*
X288362Y203667D01*
X290361D01*
X291361Y202668D01*
Y201668D01*
X290361Y200668D01*
X291361Y199669D01*
Y198669D01*
X290361Y197669D01*
X288362D01*
X287362Y198669D01*
Y199669D01*
X288362Y200668D01*
X287362Y201668D01*
Y202668D01*
X288362Y200668D02*
X290361D01*
X333352Y227667D02*
Y221669D01*
X336351D01*
X337351Y222669D01*
Y223669D01*
X336351Y224668D01*
X333352D01*
X336351D01*
X337351Y225668D01*
Y226668D01*
X336351Y227667D01*
X333352D01*
X340350Y221669D02*
X342349D01*
X343349Y222669D01*
Y224668D01*
X342349Y225668D01*
X340350D01*
X339350Y224668D01*
Y222669D01*
X340350Y221669D01*
X346348Y225668D02*
X348347D01*
X349347Y224668D01*
Y221669D01*
X346348D01*
X345348Y222669D01*
X346348Y223669D01*
X349347D01*
X351346Y225668D02*
Y221669D01*
Y223669D01*
X352346Y224668D01*
X353345Y225668D01*
X354345D01*
X361343Y227667D02*
Y221669D01*
X358344D01*
X357344Y222669D01*
Y224668D01*
X358344Y225668D01*
X361343D01*
X369340Y227667D02*
Y221669D01*
X373339D01*
X376338Y225668D02*
X378337D01*
X379337Y224668D01*
Y221669D01*
X376338D01*
X375338Y222669D01*
X376338Y223669D01*
X379337D01*
X381336Y225668D02*
Y222669D01*
X382336Y221669D01*
X385335D01*
Y220670D01*
X384335Y219670D01*
X383336D01*
X385335Y221669D02*
Y225668D01*
X390333Y221669D02*
X388334D01*
X387334Y222669D01*
Y224668D01*
X388334Y225668D01*
X390333D01*
X391333Y224668D01*
Y223669D01*
X387334D01*
X393332Y225668D02*
Y221669D01*
Y223669D01*
X394332Y224668D01*
X395332Y225668D01*
X396331D01*
X409327Y226668D02*
X408328Y227667D01*
X406328D01*
X405329Y226668D01*
Y225668D01*
X406328Y224668D01*
X408328D01*
X409327Y223669D01*
Y222669D01*
X408328Y221669D01*
X406328D01*
X405329Y222669D01*
X412326Y226668D02*
Y225668D01*
X411327D01*
X413326D01*
X412326D01*
Y222669D01*
X413326Y221669D01*
X417325Y225668D02*
X419324D01*
X420324Y224668D01*
Y221669D01*
X417325D01*
X416325Y222669D01*
X417325Y223669D01*
X420324D01*
X426322Y225668D02*
X423323D01*
X422323Y224668D01*
Y222669D01*
X423323Y221669D01*
X426322D01*
X428321D02*
Y227667D01*
Y223669D02*
X431320Y225668D01*
X428321Y223669D02*
X431320Y221669D01*
D13*
X177319Y34815D02*
X188146D01*
X177319Y40130D02*
X188146D01*
D16*
X151870Y90353D02*
X149640Y87008D01*
Y90353D02*
X151870Y87008D01*
X148525Y90353D02*
X146294D01*
X147410D01*
Y87008D01*
X145179D02*
Y89238D01*
X144064Y90353D01*
X142949Y89238D01*
Y87008D01*
Y88681D01*
X145179D01*
X141834Y90353D02*
Y87008D01*
X139604D01*
X138489D02*
X137373D01*
X137931D01*
Y90353D01*
X138489Y89796D01*
X187303Y27853D02*
Y25065D01*
X186746Y24508D01*
X185631D01*
X185073Y25065D01*
Y27853D01*
X181728Y24508D02*
X183958D01*
X181728Y26738D01*
Y27296D01*
X182285Y27853D01*
X183400D01*
X183958Y27296D01*
X121457Y27755D02*
Y24967D01*
X120899Y24409D01*
X119784D01*
X119226Y24967D01*
Y27755D01*
X118111Y24409D02*
X116996D01*
X117554D01*
Y27755D01*
X118111Y27197D01*
X107579Y100197D02*
Y103542D01*
X105906D01*
X105349Y102985D01*
Y101869D01*
X105906Y101312D01*
X107579D01*
X106464D02*
X105349Y100197D01*
X104233Y103542D02*
X102003D01*
Y102985D01*
X104233Y100754D01*
Y100197D01*
X119488Y98819D02*
Y102164D01*
X117815D01*
X117258Y101607D01*
Y100492D01*
X117815Y99934D01*
X119488D01*
X118373D02*
X117258Y98819D01*
X113913Y102164D02*
X115028Y101607D01*
X116143Y100492D01*
Y99376D01*
X115585Y98819D01*
X114470D01*
X113913Y99376D01*
Y99934D01*
X114470Y100492D01*
X116143D01*
X150295Y32508D02*
X146950D01*
Y30835D01*
X147507Y30278D01*
X148623D01*
X149180Y30835D01*
Y32508D01*
Y31393D02*
X150295Y30278D01*
X146950Y26932D02*
Y29162D01*
X148623D01*
X148065Y28047D01*
Y27490D01*
X148623Y26932D01*
X149738D01*
X150295Y27490D01*
Y28605D01*
X149738Y29162D01*
X147441Y46555D02*
Y49900D01*
X145768D01*
X145211Y49343D01*
Y48228D01*
X145768Y47670D01*
X147441D01*
X146326D02*
X145211Y46555D01*
X141865D02*
X144096D01*
X141865Y48785D01*
Y49343D01*
X142423Y49900D01*
X143538D01*
X144096Y49343D01*
X146260Y57480D02*
Y60826D01*
X144587D01*
X144030Y60268D01*
Y59153D01*
X144587Y58595D01*
X146260D01*
X145145D02*
X144030Y57480D01*
X142914D02*
X141799D01*
X142357D01*
Y60826D01*
X142914Y60268D01*
X184876Y45078D02*
X187106D01*
Y43405D01*
X185991D01*
X187106D01*
Y41732D01*
X183761Y45078D02*
Y41732D01*
X182088D01*
X181531Y42290D01*
Y42847D01*
X182088Y43405D01*
X183761D01*
X182088D01*
X181531Y43962D01*
Y44520D01*
X182088Y45078D01*
X183761D01*
X180415Y44520D02*
X179858Y45078D01*
X178743D01*
X178185Y44520D01*
Y43962D01*
X178743Y43405D01*
X179300D01*
X178743D01*
X178185Y42847D01*
Y42290D01*
X178743Y41732D01*
X179858D01*
X180415Y42290D01*
X123196Y92652D02*
X122639Y93209D01*
Y94324D01*
X123196Y94882D01*
X125427D01*
X125984Y94324D01*
Y93209D01*
X125427Y92652D01*
X125984Y89306D02*
Y91536D01*
X123754Y89306D01*
X123196D01*
X122639Y89864D01*
Y90979D01*
X123196Y91536D01*
Y88191D02*
X122639Y87634D01*
Y86518D01*
X123196Y85961D01*
X123754D01*
X124312Y86518D01*
Y87076D01*
Y86518D01*
X124869Y85961D01*
X125427D01*
X125984Y86518D01*
Y87634D01*
X125427Y88191D01*
X57908Y45012D02*
X58465Y45570D01*
X59580D01*
X60138Y45012D01*
Y42782D01*
X59580Y42224D01*
X58465D01*
X57908Y42782D01*
X54562Y42224D02*
X56792D01*
X54562Y44455D01*
Y45012D01*
X55120Y45570D01*
X56235D01*
X56792Y45012D01*
X51217Y42224D02*
X53447D01*
X51217Y44455D01*
Y45012D01*
X51774Y45570D01*
X52890D01*
X53447Y45012D01*
X147081Y44323D02*
X147638Y44881D01*
X148753D01*
X149311Y44323D01*
Y42093D01*
X148753Y41535D01*
X147638D01*
X147081Y42093D01*
X143735Y41535D02*
X145966D01*
X143735Y43766D01*
Y44323D01*
X144293Y44881D01*
X145408D01*
X145966Y44323D01*
X142620Y41535D02*
X141505D01*
X142063D01*
Y44881D01*
X142620Y44323D01*
X58596Y55839D02*
X59154Y56397D01*
X60269D01*
X60827Y55839D01*
Y53609D01*
X60269Y53051D01*
X59154D01*
X58596Y53609D01*
X55251Y53051D02*
X57481D01*
X55251Y55281D01*
Y55839D01*
X55809Y56397D01*
X56924D01*
X57481Y55839D01*
X54136D02*
X53578Y56397D01*
X52463D01*
X51906Y55839D01*
Y53609D01*
X52463Y53051D01*
X53578D01*
X54136Y53609D01*
Y55839D01*
X89600Y10071D02*
X90158Y10629D01*
X91273D01*
X91831Y10071D01*
Y7841D01*
X91273Y7283D01*
X90158D01*
X89600Y7841D01*
X88485Y7283D02*
X87370D01*
X87928D01*
Y10629D01*
X88485Y10071D01*
X85698Y7841D02*
X85140Y7283D01*
X84025D01*
X83467Y7841D01*
Y10071D01*
X84025Y10629D01*
X85140D01*
X85698Y10071D01*
Y9514D01*
X85140Y8956D01*
X83467D01*
X111845Y10071D02*
X112402Y10629D01*
X113517D01*
X114075Y10071D01*
Y7841D01*
X113517Y7283D01*
X112402D01*
X111845Y7841D01*
X110729Y7283D02*
X109614D01*
X110172D01*
Y10629D01*
X110729Y10071D01*
X107942D02*
X107384Y10629D01*
X106269D01*
X105711Y10071D01*
Y9514D01*
X106269Y8956D01*
X105711Y8399D01*
Y7841D01*
X106269Y7283D01*
X107384D01*
X107942Y7841D01*
Y8399D01*
X107384Y8956D01*
X107942Y9514D01*
Y10071D01*
X107384Y8956D02*
X106269D01*
X96523Y97376D02*
X95966Y97934D01*
Y99049D01*
X96523Y99606D01*
X98753D01*
X99311Y99049D01*
Y97934D01*
X98753Y97376D01*
X99311Y96261D02*
Y95146D01*
Y95703D01*
X95966D01*
X96523Y96261D01*
X95966Y93473D02*
Y91243D01*
X96523D01*
X98753Y93473D01*
X99311D01*
X152494Y69028D02*
X153052Y69586D01*
X154167D01*
X154724Y69028D01*
Y66798D01*
X154167Y66240D01*
X153052D01*
X152494Y66798D01*
X151379Y66240D02*
X150264D01*
X150821D01*
Y69586D01*
X151379Y69028D01*
X146361Y69586D02*
X147476Y69028D01*
X148591Y67913D01*
Y66798D01*
X148034Y66240D01*
X146918D01*
X146361Y66798D01*
Y67355D01*
X146918Y67913D01*
X148591D01*
X129004Y85663D02*
X128446Y86221D01*
Y87336D01*
X129004Y87894D01*
X131234D01*
X131791Y87336D01*
Y86221D01*
X131234Y85663D01*
X131791Y84548D02*
Y83433D01*
Y83991D01*
X128446D01*
X129004Y84548D01*
X128446Y79530D02*
Y81761D01*
X130119D01*
X129561Y80645D01*
Y80088D01*
X130119Y79530D01*
X131234D01*
X131791Y80088D01*
Y81203D01*
X131234Y81761D01*
X158695Y12335D02*
X159253Y12893D01*
X160368D01*
X160925Y12335D01*
Y10105D01*
X160368Y9547D01*
X159253D01*
X158695Y10105D01*
X157580Y9547D02*
X156465D01*
X157022D01*
Y12893D01*
X157580Y12335D01*
X153119Y9547D02*
Y12893D01*
X154792Y11220D01*
X152562D01*
X203577Y30052D02*
X204134Y30609D01*
X205250D01*
X205807Y30052D01*
Y27821D01*
X205250Y27264D01*
X204134D01*
X203577Y27821D01*
X202462Y27264D02*
X201347D01*
X201904D01*
Y30609D01*
X202462Y30052D01*
X199674D02*
X199116Y30609D01*
X198001D01*
X197444Y30052D01*
Y29494D01*
X198001Y28936D01*
X198559D01*
X198001D01*
X197444Y28379D01*
Y27821D01*
X198001Y27264D01*
X199116D01*
X199674Y27821D01*
X166700Y27297D02*
X166143Y27855D01*
Y28970D01*
X166700Y29528D01*
X168931D01*
X169488Y28970D01*
Y27855D01*
X168931Y27297D01*
X169488Y26182D02*
Y25067D01*
Y25625D01*
X166143D01*
X166700Y26182D01*
X169488Y21164D02*
Y23394D01*
X167258Y21164D01*
X166700D01*
X166143Y21722D01*
Y22837D01*
X166700Y23394D01*
X131169Y24246D02*
X130611Y24804D01*
Y25919D01*
X131169Y26476D01*
X133399D01*
X133957Y25919D01*
Y24804D01*
X133399Y24246D01*
X133957Y23131D02*
Y22016D01*
Y22573D01*
X130611D01*
X131169Y23131D01*
X133957Y20343D02*
Y19228D01*
Y19786D01*
X130611D01*
X131169Y20343D01*
X201510Y55642D02*
X202067Y56200D01*
X203183D01*
X203740Y55642D01*
Y53412D01*
X203183Y52854D01*
X202067D01*
X201510Y53412D01*
X200395Y52854D02*
X199280D01*
X199837D01*
Y56200D01*
X200395Y55642D01*
X197607D02*
X197049Y56200D01*
X195934D01*
X195377Y55642D01*
Y53412D01*
X195934Y52854D01*
X197049D01*
X197607Y53412D01*
Y55642D01*
X191208Y45112D02*
X190651Y45670D01*
Y46785D01*
X191208Y47343D01*
X193438D01*
X193996Y46785D01*
Y45670D01*
X193438Y45112D01*
Y43997D02*
X193996Y43440D01*
Y42325D01*
X193438Y41767D01*
X191208D01*
X190651Y42325D01*
Y43440D01*
X191208Y43997D01*
X191766D01*
X192323Y43440D01*
Y41767D01*
X155742Y38713D02*
X156300Y39271D01*
X157415D01*
X157972Y38713D01*
Y36483D01*
X157415Y35925D01*
X156300D01*
X155742Y36483D01*
X154627Y38713D02*
X154069Y39271D01*
X152954D01*
X152397Y38713D01*
Y38155D01*
X152954Y37598D01*
X152397Y37040D01*
Y36483D01*
X152954Y35925D01*
X154069D01*
X154627Y36483D01*
Y37040D01*
X154069Y37598D01*
X154627Y38155D01*
Y38713D01*
X154069Y37598D02*
X152954D01*
X80939Y89107D02*
X81497Y89664D01*
X82612D01*
X83169Y89107D01*
Y86876D01*
X82612Y86319D01*
X81497D01*
X80939Y86876D01*
X79824Y89664D02*
X77594D01*
Y89107D01*
X79824Y86876D01*
Y86319D01*
X73754Y92945D02*
X74312Y93503D01*
X75427D01*
X75984Y92945D01*
Y90715D01*
X75427Y90158D01*
X74312D01*
X73754Y90715D01*
X70409Y93503D02*
X71524Y92945D01*
X72639Y91830D01*
Y90715D01*
X72081Y90158D01*
X70966D01*
X70409Y90715D01*
Y91273D01*
X70966Y91830D01*
X72639D01*
X88813Y93929D02*
X89371Y94487D01*
X90486D01*
X91043Y93929D01*
Y91699D01*
X90486Y91142D01*
X89371D01*
X88813Y91699D01*
X87698Y93929D02*
X87140Y94487D01*
X86025D01*
X85468Y93929D01*
Y93372D01*
X86025Y92814D01*
X86583D01*
X86025D01*
X85468Y92257D01*
Y91699D01*
X86025Y91142D01*
X87140D01*
X87698Y91699D01*
D17*
X-15560Y218669D02*
X438320D01*
X-15560Y230669D02*
X438320D01*
X-15560Y134669D02*
Y230669D01*
Y134669D02*
X25431D01*
X-15560Y146669D02*
X25431D01*
X-15560Y158669D02*
X25431D01*
X-15560Y170669D02*
X25431D01*
X-15560Y182669D02*
X25431D01*
X-15560Y194669D02*
X25431D01*
X-15560Y206669D02*
X25431D01*
Y134669D02*
Y230669D01*
Y134669D02*
X118405D01*
X25431Y146669D02*
X118405D01*
X25431Y158669D02*
X118405D01*
X25431Y170669D02*
X118405D01*
X25431Y182669D02*
X118405D01*
X25431Y194669D02*
X118405D01*
X25431Y206669D02*
X118405D01*
Y134669D02*
Y230669D01*
Y134669D02*
X204382D01*
X118405Y146669D02*
X204382D01*
X118405Y158669D02*
X204382D01*
X118405Y170669D02*
X204382D01*
X118405Y182669D02*
X204382D01*
X118405Y194669D02*
X204382D01*
X118405Y206669D02*
X204382D01*
Y134669D02*
Y230669D01*
Y134669D02*
X269366D01*
X204382Y146669D02*
X269366D01*
X204382Y158669D02*
X269366D01*
X204382Y170669D02*
X269366D01*
X204382Y182669D02*
X269366D01*
X204382Y194669D02*
X269366D01*
X204382Y206669D02*
X269366D01*
Y134669D02*
Y230669D01*
Y134669D02*
X326352D01*
X269366Y146669D02*
X326352D01*
X269366Y158669D02*
X326352D01*
X269366Y170669D02*
X326352D01*
X269366Y182669D02*
X326352D01*
X269366Y194669D02*
X326352D01*
X269366Y206669D02*
X326352D01*
Y134669D02*
Y230669D01*
Y134669D02*
X438320D01*
X326352Y146669D02*
X438320D01*
X326352Y158669D02*
X438320D01*
X326352Y170669D02*
X438320D01*
X326352Y182669D02*
X438320D01*
X326352Y194669D02*
X438320D01*
X326352Y206669D02*
X438320D01*
Y134669D02*
Y230669D01*
D18*
X432320Y134669D02*
X438320Y140669D01*
X426320Y134669D02*
X438320Y146669D01*
X420320Y134669D02*
X432320Y146669D01*
X414320Y134669D02*
X426320Y146669D01*
X408320Y134669D02*
X420320Y146669D01*
X402320Y134669D02*
X414320Y146669D01*
X396320Y134669D02*
X408320Y146669D01*
X390320Y134669D02*
X402320Y146669D01*
X384320Y134669D02*
X396320Y146669D01*
X378320Y134669D02*
X390320Y146669D01*
X372320Y134669D02*
X384320Y146669D01*
X366320Y134669D02*
X378320Y146669D01*
X360320Y134669D02*
X372320Y146669D01*
X354320Y134669D02*
X366320Y146669D01*
X348320Y134669D02*
X360320Y146669D01*
X342320Y134669D02*
X354320Y146669D01*
X336320Y134669D02*
X348320Y146669D01*
X330320Y134669D02*
X342320Y146669D01*
X326352Y136701D02*
X336320Y146669D01*
X326352Y142701D02*
X330320Y146669D01*
X432320D02*
X438320Y152669D01*
X426320Y146669D02*
X438320Y158669D01*
X420320Y146669D02*
X432320Y158669D01*
X414320Y146669D02*
X426320Y158669D01*
X408320Y146669D02*
X420320Y158669D01*
X402320Y146669D02*
X414320Y158669D01*
X396320Y146669D02*
X408320Y158669D01*
X390320Y146669D02*
X402320Y158669D01*
X384320Y146669D02*
X396320Y158669D01*
X378320Y146669D02*
X390320Y158669D01*
X372320Y146669D02*
X384320Y158669D01*
X366320Y146669D02*
X378320Y158669D01*
X360320Y146669D02*
X372320Y158669D01*
X354320Y146669D02*
X366320Y158669D01*
X348320Y146669D02*
X360320Y158669D01*
X342320Y146669D02*
X354320Y158669D01*
X336320Y146669D02*
X348320Y158669D01*
X330320Y146669D02*
X342320Y158669D01*
X326352Y148701D02*
X336320Y158669D01*
X326352Y154701D02*
X330320Y158669D01*
X432320D02*
X438320Y164669D01*
X426320Y158669D02*
X438320Y170669D01*
X420320Y158669D02*
X432320Y170669D01*
X414320Y158669D02*
X426320Y170669D01*
X408320Y158669D02*
X420320Y170669D01*
X402320Y158669D02*
X414320Y170669D01*
X396320Y158669D02*
X408320Y170669D01*
X390320Y158669D02*
X402320Y170669D01*
X384320Y158669D02*
X396320Y170669D01*
X378320Y158669D02*
X390320Y170669D01*
X372320Y158669D02*
X384320Y170669D01*
X366320Y158669D02*
X378320Y170669D01*
X360320Y158669D02*
X372320Y170669D01*
X354320Y158669D02*
X366320Y170669D01*
X348320Y158669D02*
X360320Y170669D01*
X342320Y158669D02*
X354320Y170669D01*
X336320Y158669D02*
X348320Y170669D01*
X330320Y158669D02*
X342320Y170669D01*
X326352Y160701D02*
X336320Y170669D01*
X326352Y166701D02*
X330320Y170669D01*
X432320D02*
X438320Y176669D01*
X426320Y170669D02*
X438320Y182669D01*
X420320Y170669D02*
X432320Y182669D01*
X414320Y170669D02*
X426320Y182669D01*
X408320Y170669D02*
X420320Y182669D01*
X402320Y170669D02*
X414320Y182669D01*
X396320Y170669D02*
X408320Y182669D01*
X390320Y170669D02*
X402320Y182669D01*
X384320Y170669D02*
X396320Y182669D01*
X378320Y170669D02*
X390320Y182669D01*
X372320Y170669D02*
X384320Y182669D01*
X366320Y170669D02*
X378320Y182669D01*
X360320Y170669D02*
X372320Y182669D01*
X354320Y170669D02*
X366320Y182669D01*
X348320Y170669D02*
X360320Y182669D01*
X342320Y170669D02*
X354320Y182669D01*
X336320Y170669D02*
X348320Y182669D01*
X330320Y170669D02*
X342320Y182669D01*
X326352Y172701D02*
X336320Y182669D01*
X326352Y178701D02*
X330320Y182669D01*
X432320D02*
X438320Y188669D01*
X426320Y182669D02*
X438320Y194669D01*
X420320Y182669D02*
X432320Y194669D01*
X414320Y182669D02*
X426320Y194669D01*
X408320Y182669D02*
X420320Y194669D01*
X402320Y182669D02*
X414320Y194669D01*
X396320Y182669D02*
X408320Y194669D01*
X390320Y182669D02*
X402320Y194669D01*
X384320Y182669D02*
X396320Y194669D01*
X378320Y182669D02*
X390320Y194669D01*
X372320Y182669D02*
X384320Y194669D01*
X366320Y182669D02*
X378320Y194669D01*
X360320Y182669D02*
X372320Y194669D01*
X354320Y182669D02*
X366320Y194669D01*
X348320Y182669D02*
X360320Y194669D01*
X342320Y182669D02*
X354320Y194669D01*
X336320Y182669D02*
X348320Y194669D01*
X330320Y182669D02*
X342320Y194669D01*
X326352Y184701D02*
X336320Y194669D01*
X326352Y190701D02*
X330320Y194669D01*
X432320D02*
X438320Y200669D01*
X426320Y194669D02*
X438320Y206669D01*
X420320Y194669D02*
X432320Y206669D01*
X414320Y194669D02*
X426320Y206669D01*
X408320Y194669D02*
X420320Y206669D01*
X402320Y194669D02*
X414320Y206669D01*
X396320Y194669D02*
X408320Y206669D01*
X390320Y194669D02*
X402320Y206669D01*
X384320Y194669D02*
X396320Y206669D01*
X378320Y194669D02*
X390320Y206669D01*
X372320Y194669D02*
X384320Y206669D01*
X366320Y194669D02*
X378320Y206669D01*
X360320Y194669D02*
X372320Y206669D01*
X354320Y194669D02*
X366320Y206669D01*
X348320Y194669D02*
X360320Y206669D01*
X342320Y194669D02*
X354320Y206669D01*
X336320Y194669D02*
X348320Y206669D01*
X330320Y194669D02*
X342320Y206669D01*
X326352Y196701D02*
X336320Y206669D01*
X326352Y202701D02*
X330320Y206669D01*
X432320D02*
X438320Y212669D01*
X426320Y206669D02*
X438320Y218669D01*
X420320Y206669D02*
X432320Y218669D01*
X414320Y206669D02*
X426320Y218669D01*
X408320Y206669D02*
X420320Y218669D01*
X402320Y206669D02*
X414320Y218669D01*
X396320Y206669D02*
X408320Y218669D01*
X390320Y206669D02*
X402320Y218669D01*
X384320Y206669D02*
X396320Y218669D01*
X378320Y206669D02*
X390320Y218669D01*
X372320Y206669D02*
X384320Y218669D01*
X366320Y206669D02*
X378320Y218669D01*
X360320Y206669D02*
X372320Y218669D01*
X354320Y206669D02*
X366320Y218669D01*
X348320Y206669D02*
X360320Y218669D01*
X342320Y206669D02*
X354320Y218669D01*
X336320Y206669D02*
X348320Y218669D01*
X330320Y206669D02*
X342320Y218669D01*
X326352Y208701D02*
X336320Y218669D01*
X326352Y214701D02*
X330320Y218669D01*
D19*
X170283Y-68908D02*
Y-76468D01*
X175323D01*
X179104Y-71429D02*
X181624D01*
X182884Y-72689D01*
Y-76468D01*
X179104D01*
X177843Y-75208D01*
X179104Y-73949D01*
X182884D01*
X185404Y-71429D02*
Y-75208D01*
X186664Y-76468D01*
X190444D01*
Y-77728D01*
X189184Y-78988D01*
X187924D01*
X190444Y-76468D02*
Y-71429D01*
X196744Y-76468D02*
X194224D01*
X192964Y-75208D01*
Y-72689D01*
X194224Y-71429D01*
X196744D01*
X198004Y-72689D01*
Y-73949D01*
X192964D01*
X200524Y-71429D02*
Y-76468D01*
Y-73949D01*
X201784Y-72689D01*
X203044Y-71429D01*
X204304D01*
X208084Y-76468D02*
X211864D01*
X213124Y-75208D01*
X211864Y-73949D01*
X209344D01*
X208084Y-72689D01*
X209344Y-71429D01*
X213124D01*
X215644D02*
X216904D01*
Y-72689D01*
X215644D01*
Y-71429D01*
Y-75208D02*
X216904D01*
Y-76468D01*
X215644D01*
Y-75208D01*
X229504Y-70168D02*
X230764Y-68908D01*
X233284D01*
X234544Y-70168D01*
Y-75208D01*
X233284Y-76468D01*
X230764D01*
X229504Y-75208D01*
Y-70168D01*
X242104Y-76468D02*
X237064D01*
X242104Y-71429D01*
Y-70168D01*
X240844Y-68908D01*
X238324D01*
X237064Y-70168D01*
X8038Y-68853D02*
Y-76413D01*
X11818D01*
X13078Y-75153D01*
Y-73893D01*
X11818Y-72633D01*
X8038D01*
X11818D01*
X13078Y-71373D01*
Y-70113D01*
X11818Y-68853D01*
X8038D01*
X16858Y-76413D02*
X19378D01*
X20638Y-75153D01*
Y-72633D01*
X19378Y-71373D01*
X16858D01*
X15598Y-72633D01*
Y-75153D01*
X16858Y-76413D01*
X24418Y-71373D02*
X26938D01*
X28198Y-72633D01*
Y-76413D01*
X24418D01*
X23158Y-75153D01*
X24418Y-73893D01*
X28198D01*
X30718Y-71373D02*
Y-76413D01*
Y-73893D01*
X31978Y-72633D01*
X33238Y-71373D01*
X34498D01*
X43318Y-68853D02*
Y-76413D01*
X39538D01*
X38278Y-75153D01*
Y-72633D01*
X39538Y-71373D01*
X43318D01*
X53398Y-68853D02*
X58438D01*
X55918D01*
Y-76413D01*
X60958Y-68853D02*
Y-76413D01*
Y-72633D01*
X62218Y-71373D01*
X64739D01*
X65999Y-72633D01*
Y-76413D01*
X68519D02*
X71039D01*
X69779D01*
Y-71373D01*
X68519D01*
X79859D02*
X76079D01*
X74819Y-72633D01*
Y-75153D01*
X76079Y-76413D01*
X79859D01*
X82379D02*
Y-68853D01*
Y-73893D02*
X86159Y-71373D01*
X82379Y-73893D02*
X86159Y-76413D01*
X89939D02*
Y-71373D01*
X93719D01*
X94979Y-72633D01*
Y-76413D01*
X101279D02*
X98759D01*
X97499Y-75153D01*
Y-72633D01*
X98759Y-71373D01*
X101279D01*
X102539Y-72633D01*
Y-73893D01*
X97499D01*
X105059Y-76413D02*
X108839D01*
X110099Y-75153D01*
X108839Y-73893D01*
X106319D01*
X105059Y-72633D01*
X106319Y-71373D01*
X110099D01*
X112619Y-76413D02*
X116399D01*
X117659Y-75153D01*
X116399Y-73893D01*
X113879D01*
X112619Y-72633D01*
X113879Y-71373D01*
X117659D01*
X120179D02*
X121439D01*
Y-72633D01*
X120179D01*
Y-71373D01*
Y-75153D02*
X121439D01*
Y-76413D01*
X120179D01*
Y-75153D01*
X174536Y-50779D02*
X173276Y-49519D01*
X170756D01*
X169496Y-50779D01*
Y-52039D01*
X170756Y-53299D01*
X173276D01*
X174536Y-54559D01*
Y-55819D01*
X173276Y-57079D01*
X170756D01*
X169496Y-55819D01*
X177056Y-57079D02*
X179576D01*
X178316D01*
Y-52039D01*
X177056D01*
X183356Y-57079D02*
X185876D01*
X184616D01*
Y-49519D01*
X183356D01*
X189656Y-57079D02*
Y-49519D01*
Y-54559D02*
X193436Y-52039D01*
X189656Y-54559D02*
X193436Y-57079D01*
X197216D02*
X200996D01*
X202256Y-55819D01*
X200996Y-54559D01*
X198476D01*
X197216Y-53299D01*
X198476Y-52039D01*
X202256D01*
X209816D02*
X206036D01*
X204776Y-53299D01*
Y-55819D01*
X206036Y-57079D01*
X209816D01*
X212336Y-52039D02*
Y-57079D01*
Y-54559D01*
X213596Y-53299D01*
X214856Y-52039D01*
X216116D01*
X223676Y-57079D02*
X221157D01*
X219897Y-55819D01*
Y-53299D01*
X221157Y-52039D01*
X223676D01*
X224937Y-53299D01*
Y-54559D01*
X219897D01*
X231237Y-57079D02*
X228716D01*
X227456Y-55819D01*
Y-53299D01*
X228716Y-52039D01*
X231237D01*
X232497Y-53299D01*
Y-54559D01*
X227456D01*
X235017Y-57079D02*
Y-52039D01*
X238797D01*
X240057Y-53299D01*
Y-57079D01*
X255177Y-52039D02*
X251397D01*
X250137Y-53299D01*
Y-55819D01*
X251397Y-57079D01*
X255177D01*
X258957D02*
X261477D01*
X262737Y-55819D01*
Y-53299D01*
X261477Y-52039D01*
X258957D01*
X257697Y-53299D01*
Y-55819D01*
X258957Y-57079D01*
X265257D02*
X267777D01*
X266517D01*
Y-49519D01*
X265257D01*
X272817Y-57079D02*
X275337D01*
X276597Y-55819D01*
Y-53299D01*
X275337Y-52039D01*
X272817D01*
X271557Y-53299D01*
Y-55819D01*
X272817Y-57079D01*
X279117Y-52039D02*
Y-57079D01*
Y-54559D01*
X280377Y-53299D01*
X281637Y-52039D01*
X282897D01*
X286677D02*
X287937D01*
Y-53299D01*
X286677D01*
Y-52039D01*
Y-55819D02*
X287937D01*
Y-57079D01*
X286677D01*
Y-55819D01*
X300537Y-52039D02*
Y-55819D01*
X301797Y-57079D01*
X303057Y-55819D01*
X304317Y-57079D01*
X305577Y-55819D01*
Y-52039D01*
X308097Y-49519D02*
Y-57079D01*
Y-53299D01*
X309357Y-52039D01*
X311877D01*
X313137Y-53299D01*
Y-57079D01*
X315657D02*
X318177D01*
X316917D01*
Y-52039D01*
X315657D01*
X323217Y-50779D02*
Y-52039D01*
X321957D01*
X324477D01*
X323217D01*
Y-55819D01*
X324477Y-57079D01*
X332037D02*
X329517D01*
X328257Y-55819D01*
Y-53299D01*
X329517Y-52039D01*
X332037D01*
X333297Y-53299D01*
Y-54559D01*
X328257D01*
X171268Y-86723D02*
Y-94283D01*
X175048D01*
X176308Y-93024D01*
Y-87983D01*
X175048Y-86723D01*
X171268D01*
X178828Y-89243D02*
Y-94283D01*
Y-91763D01*
X180088Y-90503D01*
X181348Y-89243D01*
X182608D01*
X187648D02*
X190168D01*
X191428Y-90503D01*
Y-94283D01*
X187648D01*
X186388Y-93024D01*
X187648Y-91763D01*
X191428D01*
X193948Y-89243D02*
Y-93024D01*
X195208Y-94283D01*
X196468Y-93024D01*
X197728Y-94283D01*
X198988Y-93024D01*
Y-89243D01*
X201508Y-94283D02*
X204028D01*
X202768D01*
Y-89243D01*
X201508D01*
X207808Y-94283D02*
Y-89243D01*
X211588D01*
X212848Y-90503D01*
Y-94283D01*
X217888Y-96803D02*
X219148D01*
X220408Y-95543D01*
Y-89243D01*
X216628D01*
X215368Y-90503D01*
Y-93024D01*
X216628Y-94283D01*
X220408D01*
X222928Y-89243D02*
X224188D01*
Y-90503D01*
X222928D01*
Y-89243D01*
Y-93024D02*
X224188D01*
Y-94283D01*
X222928D01*
Y-93024D01*
X9318Y-57663D02*
Y-50103D01*
X11838Y-52623D01*
X14358Y-50103D01*
Y-57663D01*
X16878D02*
Y-52623D01*
X19398Y-50103D01*
X21918Y-52623D01*
Y-57663D01*
Y-53883D01*
X16878D01*
X24438Y-50103D02*
X29478D01*
X26958D01*
Y-57663D01*
X37038Y-50103D02*
X31998D01*
Y-57663D01*
X37038D01*
X31998Y-53883D02*
X34518D01*
X39558Y-57663D02*
Y-50103D01*
X43338D01*
X44598Y-51363D01*
Y-53883D01*
X43338Y-55143D01*
X39558D01*
X42078D02*
X44598Y-57663D01*
X47118Y-50103D02*
X49638D01*
X48378D01*
Y-57663D01*
X47118D01*
X49638D01*
X53418D02*
Y-52623D01*
X55938Y-50103D01*
X58458Y-52623D01*
Y-57663D01*
Y-53883D01*
X53418D01*
X60978Y-50103D02*
Y-57663D01*
X66018D01*
X68538Y-52623D02*
X69798D01*
Y-53883D01*
X68538D01*
Y-52623D01*
Y-56403D02*
X69798D01*
Y-57663D01*
X68538D01*
Y-56403D01*
X423335Y-28849D02*
Y-36409D01*
X427115D01*
X428375Y-35149D01*
Y-30109D01*
X427115Y-28849D01*
X423335D01*
X430895Y-36409D02*
Y-31369D01*
X433415Y-28849D01*
X435935Y-31369D01*
Y-36409D01*
Y-32629D01*
X430895D01*
X438455Y-28849D02*
X443495D01*
X440975D01*
Y-36409D01*
X451055Y-28849D02*
X446015D01*
Y-36409D01*
X451055D01*
X446015Y-32629D02*
X448535D01*
X453575Y-31369D02*
X454835D01*
Y-32629D01*
X453575D01*
Y-31369D01*
Y-35149D02*
X454835D01*
Y-36409D01*
X453575D01*
Y-35149D01*
X354535Y-37641D02*
Y-28144D01*
X359284D01*
X360867Y-29727D01*
Y-32893D01*
X359284Y-34476D01*
X354535D01*
X357701D02*
X360867Y-37641D01*
X370364Y-28144D02*
X364032D01*
Y-37641D01*
X370364D01*
X364032Y-32893D02*
X367198D01*
X373529Y-28144D02*
Y-34476D01*
X376695Y-37641D01*
X379861Y-34476D01*
Y-28144D01*
X383026Y-31310D02*
X384609D01*
Y-32893D01*
X383026D01*
Y-31310D01*
Y-36059D02*
X384609D01*
Y-37641D01*
X383026D01*
Y-36059D01*
X7291Y-95760D02*
Y-88200D01*
X11071D01*
X12331Y-89460D01*
Y-91980D01*
X11071Y-93240D01*
X7291D01*
X19891Y-89460D02*
X18631Y-88200D01*
X16111D01*
X14851Y-89460D01*
Y-94500D01*
X16111Y-95760D01*
X18631D01*
X19891Y-94500D01*
X22411Y-88200D02*
Y-95760D01*
X26191D01*
X27452Y-94500D01*
Y-93240D01*
X26191Y-91980D01*
X22411D01*
X26191D01*
X27452Y-90720D01*
Y-89460D01*
X26191Y-88200D01*
X22411D01*
X42572Y-89460D02*
X41312Y-88200D01*
X38792D01*
X37532Y-89460D01*
Y-90720D01*
X38792Y-91980D01*
X41312D01*
X42572Y-93240D01*
Y-94500D01*
X41312Y-95760D01*
X38792D01*
X37532Y-94500D01*
X45092Y-90720D02*
Y-94500D01*
X46352Y-95760D01*
X50132D01*
Y-90720D01*
X52652D02*
Y-95760D01*
Y-93240D01*
X53912Y-91980D01*
X55172Y-90720D01*
X56432D01*
X61472Y-95760D02*
Y-89460D01*
Y-91980D01*
X60212D01*
X62732D01*
X61472D01*
Y-89460D01*
X62732Y-88200D01*
X67772Y-90720D02*
X70292D01*
X71552Y-91980D01*
Y-95760D01*
X67772D01*
X66512Y-94500D01*
X67772Y-93240D01*
X71552D01*
X79112Y-90720D02*
X75332D01*
X74072Y-91980D01*
Y-94500D01*
X75332Y-95760D01*
X79112D01*
X85412D02*
X82892D01*
X81632Y-94500D01*
Y-91980D01*
X82892Y-90720D01*
X85412D01*
X86672Y-91980D01*
Y-93240D01*
X81632D01*
X89192Y-90720D02*
X90452D01*
Y-91980D01*
X89192D01*
Y-90720D01*
Y-94500D02*
X90452D01*
Y-95760D01*
X89192D01*
Y-94500D01*
X353650Y-57768D02*
Y-50208D01*
X357430D01*
X358690Y-51468D01*
Y-53988D01*
X357430Y-55248D01*
X353650D01*
X361210Y-52728D02*
Y-57768D01*
Y-55248D01*
X362470Y-53988D01*
X363730Y-52728D01*
X364990D01*
X370030Y-57768D02*
X372550D01*
X373810Y-56508D01*
Y-53988D01*
X372550Y-52728D01*
X370030D01*
X368770Y-53988D01*
Y-56508D01*
X370030Y-57768D01*
X376330Y-60288D02*
X377590D01*
X378850Y-59028D01*
Y-52728D01*
X387670Y-57768D02*
X385150D01*
X383890Y-56508D01*
Y-53988D01*
X385150Y-52728D01*
X387670D01*
X388930Y-53988D01*
Y-55248D01*
X383890D01*
X396490Y-52728D02*
X392710D01*
X391450Y-53988D01*
Y-56508D01*
X392710Y-57768D01*
X396490D01*
X400270Y-51468D02*
Y-52728D01*
X399010D01*
X401530D01*
X400270D01*
Y-56508D01*
X401530Y-57768D01*
X405310Y-52728D02*
X406570D01*
Y-53988D01*
X405310D01*
Y-52728D01*
Y-56508D02*
X406570D01*
Y-57768D01*
X405310D01*
Y-56508D01*
X419170Y-50208D02*
X421690D01*
X420430D01*
Y-57768D01*
X419170D01*
X421690D01*
X425470Y-50208D02*
X427990D01*
X426730D01*
Y-57768D01*
X425470D01*
X427990D01*
X431770D02*
Y-50208D01*
X435550D01*
X436810Y-51468D01*
Y-53988D01*
X435550Y-55248D01*
X431770D01*
D20*
X9949Y-28334D02*
X16613D01*
X13281D01*
Y-38330D01*
X19946Y-28334D02*
X23278D01*
X21612D01*
Y-38330D01*
X19946D01*
X23278D01*
X28276Y-28334D02*
X34941D01*
X31609D01*
Y-38330D01*
X38273Y-28334D02*
Y-38330D01*
X44938D01*
X54934Y-28334D02*
X48270D01*
Y-38330D01*
X54934D01*
X48270Y-33332D02*
X51602D01*
X58267Y-31666D02*
X59933D01*
Y-33332D01*
X58267D01*
Y-31666D01*
Y-36664D02*
X59933D01*
Y-38330D01*
X58267D01*
Y-36664D01*
X76594Y-28334D02*
X79926D01*
X78260D01*
Y-38330D01*
X76594D01*
X79926D01*
X84925Y-28334D02*
X88257D01*
X86591D01*
Y-38330D01*
X84925D01*
X88257D01*
X93255D02*
Y-28334D01*
X98254D01*
X99920Y-30000D01*
Y-33332D01*
X98254Y-34998D01*
X93255D01*
X113249Y-38330D02*
Y-28334D01*
X119913Y-38330D01*
Y-28334D01*
X123246Y-38330D02*
Y-36664D01*
X124912D01*
Y-38330D01*
X123246D01*
X131576Y-30000D02*
X133242Y-28334D01*
X136575D01*
X138241Y-30000D01*
Y-31666D01*
X136575Y-33332D01*
X134908D01*
X136575D01*
X138241Y-34998D01*
Y-36664D01*
X136575Y-38330D01*
X133242D01*
X131576Y-36664D01*
X151570Y-28334D02*
Y-38330D01*
X156568D01*
X158234Y-36664D01*
Y-34998D01*
X156568Y-33332D01*
X151570D01*
X156568D01*
X158234Y-31666D01*
Y-30000D01*
X156568Y-28334D01*
X151570D01*
X166565D02*
X163233D01*
X161566Y-30000D01*
Y-36664D01*
X163233Y-38330D01*
X166565D01*
X168231Y-36664D01*
Y-30000D01*
X166565Y-28334D01*
X171563Y-38330D02*
Y-31666D01*
X174896Y-28334D01*
X178228Y-31666D01*
Y-38330D01*
Y-33332D01*
X171563D01*
X181560Y-38330D02*
Y-28334D01*
X186558D01*
X188224Y-30000D01*
Y-33332D01*
X186558Y-34998D01*
X181560D01*
X184892D02*
X188224Y-38330D01*
X191557Y-28334D02*
Y-38330D01*
X196555D01*
X198221Y-36664D01*
Y-30000D01*
X196555Y-28334D01*
X191557D01*
X218215Y-36664D02*
Y-30000D01*
X216549Y-28334D01*
X213216D01*
X211550Y-30000D01*
Y-36664D01*
X213216Y-38330D01*
X216549D01*
X214883Y-34998D02*
X218215Y-38330D01*
X216549D02*
X218215Y-36664D01*
X221547Y-28334D02*
Y-36664D01*
X223213Y-38330D01*
X226546D01*
X228212Y-36664D01*
Y-28334D01*
X231544Y-38330D02*
Y-31666D01*
X234876Y-28334D01*
X238208Y-31666D01*
Y-38330D01*
Y-33332D01*
X231544D01*
X241541Y-28334D02*
Y-38330D01*
X246539D01*
X248205Y-36664D01*
Y-30000D01*
X246539Y-28334D01*
X241541D01*
X261534D02*
Y-36664D01*
X263200Y-38330D01*
X266533D01*
X268199Y-36664D01*
Y-28334D01*
X271531Y-38330D02*
Y-31666D01*
X274863Y-28334D01*
X278196Y-31666D01*
Y-38330D01*
Y-33332D01*
X271531D01*
X281528Y-38330D02*
Y-28334D01*
X286526D01*
X288192Y-30000D01*
Y-33332D01*
X286526Y-34998D01*
X281528D01*
X284860D02*
X288192Y-38330D01*
X291525Y-28334D02*
X298189D01*
X294857D01*
Y-38330D01*
D21*
X354567Y-89495D02*
X353649Y-88577D01*
X351812D01*
X350894Y-89495D01*
Y-90413D01*
X351812Y-91332D01*
X353649D01*
X354567Y-92250D01*
Y-93168D01*
X353649Y-94087D01*
X351812D01*
X350894Y-93168D01*
X356404Y-95923D02*
Y-90413D01*
X359159D01*
X360077Y-91332D01*
Y-93168D01*
X359159Y-94087D01*
X356404D01*
X362832Y-90413D02*
X364669D01*
X365587Y-91332D01*
Y-94087D01*
X362832D01*
X361914Y-93168D01*
X362832Y-92250D01*
X365587D01*
X371097Y-90413D02*
X368342D01*
X367424Y-91332D01*
Y-93168D01*
X368342Y-94087D01*
X371097D01*
X375689D02*
X373852D01*
X372934Y-93168D01*
Y-91332D01*
X373852Y-90413D01*
X375689D01*
X376607Y-91332D01*
Y-92250D01*
X372934D01*
X378444Y-88577D02*
Y-94087D01*
X382117D01*
X384872Y-90413D02*
X386709D01*
X387627Y-91332D01*
Y-94087D01*
X384872D01*
X383954Y-93168D01*
X384872Y-92250D01*
X387627D01*
X389464Y-88577D02*
Y-94087D01*
X392219D01*
X393137Y-93168D01*
Y-92250D01*
Y-91332D01*
X392219Y-90413D01*
X389464D01*
X400484Y-88577D02*
Y-93168D01*
X401402Y-94087D01*
X403239D01*
X404157Y-93168D01*
Y-88577D01*
X409667D02*
X405994D01*
Y-91332D01*
X407831D01*
X405994D01*
Y-94087D01*
X415177Y-89495D02*
X414259Y-88577D01*
X412422D01*
X411504Y-89495D01*
Y-90413D01*
X412422Y-91332D01*
X414259D01*
X415177Y-92250D01*
Y-93168D01*
X414259Y-94087D01*
X412422D01*
X411504Y-93168D01*
X420687Y-89495D02*
X419769Y-88577D01*
X417932D01*
X417014Y-89495D01*
Y-93168D01*
X417932Y-94087D01*
X419769D01*
X420687Y-93168D01*
D57*
X192913Y23512D02*
G03*
X192913Y23512I-492J0D01*
G01*
X123425Y68420D02*
G03*
X123425Y68420I-492J0D01*
G01*
D58*
X115672Y65153D02*
G03*
X115672Y65153I-592J0D01*
G01*
D59*
X244280Y77585D02*
Y74961D01*
X243755Y74436D01*
X242705D01*
X242180Y74961D01*
Y77585D01*
X241131Y74436D02*
Y76535D01*
X240081Y77585D01*
X239032Y76535D01*
Y74436D01*
Y76010D01*
X241131D01*
X237982Y74436D02*
Y77585D01*
X236408D01*
X235883Y77060D01*
Y76010D01*
X236408Y75486D01*
X237982D01*
X236933D02*
X235883Y74436D01*
X234834Y77585D02*
X232735D01*
X233784D01*
Y74436D01*
X244280Y72361D02*
Y69212D01*
X242705D01*
X242180Y69737D01*
Y70262D01*
X242705Y70786D01*
X244280D01*
X242705D01*
X242180Y71311D01*
Y71836D01*
X242705Y72361D01*
X244280D01*
X240606Y69212D02*
X239557D01*
X239032Y69737D01*
Y70786D01*
X239557Y71311D01*
X240606D01*
X241131Y70786D01*
Y69737D01*
X240606Y69212D01*
X237458Y71311D02*
X236408D01*
X235883Y70786D01*
Y69212D01*
X237458D01*
X237982Y69737D01*
X237458Y70262D01*
X235883D01*
X234834Y71311D02*
Y69212D01*
Y70262D01*
X234309Y70786D01*
X233784Y71311D01*
X233260D01*
X229586Y72361D02*
Y69212D01*
X231160D01*
X231685Y69737D01*
Y70786D01*
X231160Y71311D01*
X229586D01*
X244280Y63988D02*
Y67137D01*
X242180Y63988D01*
Y67137D01*
X241131Y63988D02*
Y64513D01*
X240606D01*
Y63988D01*
X241131D01*
X238507D02*
X237458D01*
X237982D01*
Y67137D01*
X238507Y66612D01*
X187543Y77585D02*
Y74961D01*
X187019Y74436D01*
X185969D01*
X185444Y74961D01*
Y77585D01*
X184395Y74436D02*
Y76535D01*
X183345Y77585D01*
X182296Y76535D01*
Y74436D01*
Y76010D01*
X184395D01*
X181246Y74436D02*
Y77585D01*
X179672D01*
X179147Y77060D01*
Y76010D01*
X179672Y75486D01*
X181246D01*
X180197D02*
X179147Y74436D01*
X178098Y77585D02*
X175998D01*
X177048D01*
Y74436D01*
X187543Y72361D02*
Y69212D01*
X185969D01*
X185444Y69737D01*
Y70262D01*
X185969Y70786D01*
X187543D01*
X185969D01*
X185444Y71311D01*
Y71836D01*
X185969Y72361D01*
X187543D01*
X183870Y69212D02*
X182820D01*
X182296Y69737D01*
Y70786D01*
X182820Y71311D01*
X183870D01*
X184395Y70786D01*
Y69737D01*
X183870Y69212D01*
X180721Y71311D02*
X179672D01*
X179147Y70786D01*
Y69212D01*
X180721D01*
X181246Y69737D01*
X180721Y70262D01*
X179147D01*
X178098Y71311D02*
Y69212D01*
Y70262D01*
X177573Y70786D01*
X177048Y71311D01*
X176523D01*
X172850Y72361D02*
Y69212D01*
X174424D01*
X174949Y69737D01*
Y70786D01*
X174424Y71311D01*
X172850D01*
X187543Y63988D02*
Y67137D01*
X185444Y63988D01*
Y67137D01*
X184395Y63988D02*
Y64513D01*
X183870D01*
Y63988D01*
X184395D01*
X179672D02*
X181771D01*
X179672Y66087D01*
Y66612D01*
X180197Y67137D01*
X181246D01*
X181771Y66612D01*
X209843Y74410D02*
Y72310D01*
Y73360D01*
X212992D01*
X210893Y71261D02*
X212992Y69162D01*
X211943Y70211D01*
X210893Y69162D01*
X212992Y71261D01*
Y66538D02*
X209843D01*
X211418Y68112D01*
Y66013D01*
X219981Y74410D02*
Y72310D01*
Y73360D01*
X223130D01*
X221031Y71261D02*
X223130Y69162D01*
X222080Y70211D01*
X221031Y69162D01*
X223130Y71261D01*
X220506Y68112D02*
X219981Y67588D01*
Y66538D01*
X220506Y66013D01*
X221031D01*
X221556Y66538D01*
Y67063D01*
Y66538D01*
X222080Y66013D01*
X222605D01*
X223130Y66538D01*
Y67588D01*
X222605Y68112D01*
X200526Y72310D02*
X200001Y72835D01*
Y73885D01*
X200526Y74410D01*
X202625D01*
X203150Y73885D01*
Y72835D01*
X202625Y72310D01*
X201575D01*
Y73360D01*
X203150Y71261D02*
X200001D01*
X203150Y69162D01*
X200001D01*
Y68112D02*
X203150D01*
Y66538D01*
X202625Y66013D01*
X200526D01*
X200001Y66538D01*
Y68112D01*
X218110Y74410D02*
X214962D01*
Y72835D01*
X215486Y72310D01*
X216536D01*
X217061Y72835D01*
Y74410D01*
Y73360D02*
X218110Y72310D01*
X216011Y71261D02*
X218110Y69162D01*
X217061Y70211D01*
X216011Y69162D01*
X218110Y71261D01*
X215486Y68112D02*
X214962Y67588D01*
Y66538D01*
X215486Y66013D01*
X216011D01*
X216536Y66538D01*
Y67063D01*
Y66538D01*
X217061Y66013D01*
X217585D01*
X218110Y66538D01*
Y67588D01*
X217585Y68112D01*
X207972Y74410D02*
X204824D01*
Y72835D01*
X205349Y72310D01*
X206398D01*
X206923Y72835D01*
Y74410D01*
Y73360D02*
X207972Y72310D01*
X205873Y71261D02*
X207972Y69162D01*
X206923Y70211D01*
X205873Y69162D01*
X207972Y71261D01*
Y66538D02*
X204824D01*
X206398Y68112D01*
Y66013D01*
X262796Y74508D02*
Y72409D01*
Y73458D01*
X265945D01*
X263846Y71359D02*
X265945Y69260D01*
X264895Y70310D01*
X263846Y69260D01*
X265945Y71359D01*
Y66112D02*
Y68211D01*
X263846Y66112D01*
X263321D01*
X262796Y66636D01*
Y67686D01*
X263321Y68211D01*
X260925Y74213D02*
X257777D01*
Y72638D01*
X258301Y72114D01*
X259351D01*
X259876Y72638D01*
Y74213D01*
Y73163D02*
X260925Y72114D01*
X258826Y71064D02*
X260925Y68965D01*
X259876Y70015D01*
X258826Y68965D01*
X260925Y71064D01*
Y65816D02*
Y67915D01*
X258826Y65816D01*
X258301D01*
X257777Y66341D01*
Y67391D01*
X258301Y67915D01*
X271063Y74213D02*
X267914D01*
Y72638D01*
X268439Y72114D01*
X269489D01*
X270013Y72638D01*
Y74213D01*
Y73163D02*
X271063Y72114D01*
X268964Y71064D02*
X271063Y68965D01*
X270013Y70015D01*
X268964Y68965D01*
X271063Y71064D01*
Y67915D02*
Y66866D01*
Y67391D01*
X267914D01*
X268439Y67915D01*
X272934Y74410D02*
Y72310D01*
Y73360D01*
X276083D01*
X273984Y71261D02*
X276083Y69162D01*
X275033Y70211D01*
X273984Y69162D01*
X276083Y71261D01*
Y68112D02*
Y67063D01*
Y67588D01*
X272934D01*
X273459Y68112D01*
X253282Y72015D02*
X252757Y72540D01*
Y73589D01*
X253282Y74114D01*
X255381D01*
X255906Y73589D01*
Y72540D01*
X255381Y72015D01*
X254331D01*
Y73065D01*
X255906Y70966D02*
X252757D01*
X255906Y68866D01*
X252757D01*
Y67817D02*
X255906D01*
Y66243D01*
X255381Y65718D01*
X253282D01*
X252757Y66243D01*
Y67817D01*
M02*
