G04*
G04 #@! TF.GenerationSoftware,Altium Limited,Altium Designer,20.2.6 (244)*
G04*
G04 Layer_Physical_Order=1*
G04 Layer_Color=255*
%FSLAX25Y25*%
%MOIN*%
G70*
G04*
G04 #@! TF.SameCoordinates,3A923CF8-0E80-4BF5-A473-74316D4CB4A5*
G04*
G04*
G04 #@! TF.FilePolarity,Positive*
G04*
G01*
G75*
%ADD10C,0.00787*%
%ADD12C,0.01000*%
%ADD17C,0.01500*%
%ADD18C,0.00100*%
%ADD19C,0.01378*%
%ADD20C,0.01575*%
%ADD21C,0.01299*%
%ADD22C,0.03200*%
%ADD23R,0.03937X0.03543*%
%ADD24R,0.05906X0.05118*%
%ADD25R,0.03543X0.03937*%
%ADD26R,0.05118X0.05906*%
%ADD37C,0.02000*%
%ADD38C,0.05906*%
%ADD39C,0.09843*%
%ADD40C,0.03937*%
%ADD41R,0.03937X0.03937*%
%ADD42C,0.14567*%
%ADD43C,0.02362*%
%ADD44C,0.03150*%
G36*
X315139Y109245D02*
X316533Y108871D01*
X317867Y108319D01*
X319118Y107597D01*
X320264Y106718D01*
X321285Y105697D01*
X322164Y104551D01*
X322886Y103301D01*
X323438Y101967D01*
X323812Y100572D01*
X324000Y99140D01*
Y98418D01*
Y11754D01*
Y11036D01*
X323813Y9613D01*
X323442Y8226D01*
X322892Y6900D01*
X322174Y5657D01*
X321301Y4518D01*
X320285Y3503D01*
X319146Y2629D01*
X317903Y1911D01*
X316577Y1362D01*
X315191Y990D01*
X313767Y803D01*
X10951D01*
X9540Y989D01*
X8165Y1357D01*
X6849Y1902D01*
X5616Y2614D01*
X4487Y3480D01*
X3480Y4487D01*
X2614Y5616D01*
X1902Y6849D01*
X1357Y8165D01*
X989Y9540D01*
X803Y10951D01*
Y11663D01*
Y98443D01*
Y99164D01*
X991Y100592D01*
X1364Y101983D01*
X1915Y103314D01*
X2635Y104562D01*
X3512Y105705D01*
X4531Y106724D01*
X5674Y107601D01*
X6922Y108321D01*
X8253Y108872D01*
X9644Y109245D01*
X11073Y109433D01*
X313707D01*
X315139Y109245D01*
D02*
G37*
%LPC*%
G36*
X214663Y102415D02*
X99902D01*
X99316Y102299D01*
X98820Y101967D01*
X58859Y62007D01*
X58528Y61510D01*
X58412Y60925D01*
Y49934D01*
X58409Y49915D01*
X58402Y49887D01*
X58368Y49864D01*
X57886Y49143D01*
X57717Y48292D01*
X57886Y47440D01*
X58368Y46719D01*
X59090Y46237D01*
X59941Y46068D01*
X60792Y46237D01*
X61513Y46719D01*
X61996Y47440D01*
X62154Y48238D01*
X62362Y48389D01*
X62629Y48522D01*
X63027Y48256D01*
X63878Y48086D01*
X64729Y48256D01*
X65450Y48738D01*
X65933Y49459D01*
X66102Y50310D01*
X65933Y51161D01*
X65450Y51883D01*
X65417Y51905D01*
X65410Y51934D01*
X65407Y51953D01*
Y59965D01*
X70218Y64775D01*
X70795Y64645D01*
X71164Y64092D01*
X71832Y63646D01*
X71935Y63444D01*
X72029Y63136D01*
X69360Y60467D01*
X69139Y60137D01*
X69061Y59746D01*
Y59108D01*
X69056Y59070D01*
X69061Y59033D01*
Y51060D01*
X69139Y50670D01*
X69360Y50340D01*
X70634Y49066D01*
X70634Y30529D01*
X70656Y30419D01*
X70659Y30306D01*
X70694Y30225D01*
X70711Y30139D01*
X70774Y30045D01*
X70820Y29942D01*
X70884Y29881D01*
X70933Y29808D01*
X71026Y29746D01*
X71108Y29668D01*
X88940Y18376D01*
X89019Y18345D01*
X89089Y18298D01*
X89203Y18274D01*
X89311Y18233D01*
X89396Y18235D01*
X89479Y18218D01*
X93682Y18192D01*
X93685Y18192D01*
X93688Y18192D01*
X93881Y18230D01*
X94073Y18267D01*
X94075Y18269D01*
X94079Y18269D01*
X94242Y18378D01*
X94405Y18486D01*
X94407Y18488D01*
X94409Y18490D01*
X95784Y19865D01*
X95894Y20030D01*
X96005Y20194D01*
X96005Y20195D01*
X96005Y20196D01*
X96044Y20390D01*
X96083Y20584D01*
X96098Y29624D01*
X96098Y29625D01*
X96098Y29625D01*
X96060Y29819D01*
X96021Y30014D01*
X96021Y30015D01*
X96021Y30016D01*
X95912Y30179D01*
X95801Y30345D01*
X95800Y30346D01*
X95800Y30347D01*
X95751Y30395D01*
X95745Y30400D01*
X95740Y30406D01*
X92752Y33305D01*
Y48432D01*
X92776D01*
Y54369D01*
X92752D01*
Y56011D01*
X92776D01*
Y61948D01*
X92752D01*
Y64932D01*
X93252Y65049D01*
X93932Y64594D01*
X94784Y64425D01*
X95635Y64594D01*
X96356Y65076D01*
X96838Y65798D01*
X97007Y66649D01*
X96999Y66689D01*
X97015Y66713D01*
X97026Y66729D01*
X101934Y71637D01*
X104626D01*
X105211Y71753D01*
X105707Y72085D01*
X118215Y84593D01*
X136960D01*
X137546Y84709D01*
X138042Y85041D01*
X143645Y90644D01*
X200117D01*
X204182Y86579D01*
X204194Y86564D01*
X204209Y86539D01*
X204201Y86499D01*
X204371Y85648D01*
X204853Y84927D01*
X205574Y84445D01*
X206425Y84275D01*
X207276Y84445D01*
X207998Y84927D01*
X208480Y85648D01*
X208649Y86499D01*
X208480Y87350D01*
X207998Y88072D01*
X207276Y88554D01*
X206425Y88723D01*
X206385Y88715D01*
X206361Y88731D01*
X206345Y88742D01*
X201832Y93255D01*
X201336Y93587D01*
X200751Y93703D01*
X143012D01*
X142427Y93587D01*
X141930Y93255D01*
X138040Y89365D01*
X137617Y89648D01*
X137808Y90110D01*
X137944Y91142D01*
X137808Y92174D01*
X137409Y93135D01*
X136850Y93864D01*
X137001Y94364D01*
X203338D01*
X209076Y88627D01*
X209087Y88611D01*
X209103Y88586D01*
X209095Y88547D01*
X209264Y87695D01*
X209746Y86974D01*
X210468Y86492D01*
X211319Y86323D01*
X212170Y86492D01*
X212891Y86974D01*
X213373Y87695D01*
X213543Y88547D01*
X213373Y89398D01*
X212891Y90119D01*
X212170Y90601D01*
X211319Y90770D01*
X211279Y90762D01*
X211254Y90778D01*
X211239Y90790D01*
X205791Y96237D01*
X205983Y96699D01*
X209403D01*
X213997Y92105D01*
X214009Y92090D01*
X214024Y92065D01*
X214016Y92025D01*
X214186Y91174D01*
X214668Y90453D01*
X215389Y89971D01*
X216240Y89801D01*
X217091Y89971D01*
X217813Y90453D01*
X218295Y91174D01*
X218464Y92025D01*
X218295Y92876D01*
X217813Y93598D01*
X217091Y94080D01*
X216240Y94249D01*
X216200Y94241D01*
X216176Y94257D01*
X216160Y94268D01*
X211572Y98856D01*
X211779Y99356D01*
X214030D01*
X218918Y94468D01*
X218930Y94452D01*
X218946Y94427D01*
X218938Y94387D01*
X219107Y93536D01*
X219589Y92815D01*
X220310Y92333D01*
X221161Y92163D01*
X222012Y92333D01*
X222734Y92815D01*
X223216Y93536D01*
X223385Y94387D01*
X223216Y95238D01*
X222734Y95960D01*
X222012Y96442D01*
X221161Y96611D01*
X221122Y96603D01*
X221097Y96619D01*
X221081Y96630D01*
X215744Y101967D01*
X215248Y102299D01*
X214663Y102415D01*
D02*
G37*
G36*
X312402Y106749D02*
X310778Y106589D01*
X309216Y106115D01*
X307777Y105346D01*
X306516Y104311D01*
X305481Y103050D01*
X304712Y101611D01*
X304238Y100049D01*
X304078Y98425D01*
X304238Y96801D01*
X304712Y95240D01*
X305481Y93801D01*
X306516Y92540D01*
X307777Y91504D01*
X309216Y90735D01*
X310778Y90262D01*
X312402Y90102D01*
X314025Y90262D01*
X315587Y90735D01*
X317026Y91504D01*
X318287Y92540D01*
X319322Y93801D01*
X320092Y95240D01*
X320565Y96801D01*
X320725Y98425D01*
X320565Y100049D01*
X320092Y101611D01*
X319322Y103050D01*
X318287Y104311D01*
X317026Y105346D01*
X315587Y106115D01*
X314025Y106589D01*
X312402Y106749D01*
D02*
G37*
G36*
X12402D02*
X10778Y106589D01*
X9216Y106115D01*
X7777Y105346D01*
X6516Y104311D01*
X5481Y103050D01*
X4712Y101611D01*
X4238Y100049D01*
X4078Y98425D01*
X4238Y96801D01*
X4712Y95240D01*
X5481Y93801D01*
X6516Y92540D01*
X7777Y91504D01*
X9216Y90735D01*
X10778Y90262D01*
X12402Y90102D01*
X14025Y90262D01*
X15587Y90735D01*
X17026Y91504D01*
X18287Y92540D01*
X19322Y93801D01*
X20091Y95240D01*
X20565Y96801D01*
X20725Y98425D01*
X20565Y100049D01*
X20091Y101611D01*
X19322Y103050D01*
X18287Y104311D01*
X17026Y105346D01*
X15587Y106115D01*
X14025Y106589D01*
X12402Y106749D01*
D02*
G37*
G36*
X295076Y99336D02*
X293839Y99134D01*
X292695Y98624D01*
X291719Y97838D01*
X290975Y96829D01*
X290514Y95664D01*
X290366Y94420D01*
X290453Y93799D01*
X290453D01*
X290566Y93165D01*
X291111Y91998D01*
X291938Y91010D01*
X292990Y90267D01*
X294199Y89819D01*
X295481Y89697D01*
X296752Y89909D01*
X297926Y90439D01*
X298425Y90847D01*
X298425Y90847D01*
X298425Y90847D01*
X298895Y91261D01*
X299593Y92301D01*
X300002Y93486D01*
X300095Y94735D01*
X299866Y95968D01*
X299331Y97100D01*
X298523Y98059D01*
X297498Y98779D01*
X296323Y99215D01*
X295076Y99336D01*
D02*
G37*
G36*
X29328D02*
X28091Y99134D01*
X26947Y98624D01*
X25971Y97838D01*
X25227Y96829D01*
X24766Y95664D01*
X24618Y94420D01*
X24705Y93799D01*
X24705D01*
X24818Y93165D01*
X25363Y91998D01*
X26190Y91010D01*
X27242Y90267D01*
X28451Y89819D01*
X29733Y89697D01*
X31004Y89909D01*
X32178Y90439D01*
X32677Y90847D01*
X32677Y90847D01*
X32677Y90847D01*
X33147Y91261D01*
X33845Y92301D01*
X34254Y93486D01*
X34347Y94735D01*
X34118Y95968D01*
X33583Y97100D01*
X32776Y98059D01*
X31750Y98779D01*
X30575Y99215D01*
X29328Y99336D01*
D02*
G37*
G36*
X264650Y78822D02*
X263799Y78653D01*
X263077Y78171D01*
X262595Y77450D01*
X262504Y76991D01*
X262392Y76939D01*
X261825Y77228D01*
X261810Y77300D01*
X261328Y78021D01*
X260607Y78503D01*
X259756Y78673D01*
X258905Y78503D01*
X258183Y78021D01*
X257701Y77300D01*
X257532Y76449D01*
X257540Y76409D01*
X257524Y76384D01*
X257513Y76369D01*
X220066Y38922D01*
X97804D01*
X97785Y38925D01*
X97756Y38932D01*
X97734Y38965D01*
X97012Y39448D01*
X96161Y39617D01*
X95310Y39448D01*
X94589Y38965D01*
X94107Y38244D01*
X93938Y37393D01*
X94107Y36542D01*
X94589Y35820D01*
X95310Y35338D01*
X95776Y35246D01*
X96177Y34701D01*
X96108Y34352D01*
X96277Y33501D01*
X96759Y32780D01*
X97481Y32298D01*
X98332Y32128D01*
X99183Y32298D01*
X99904Y32780D01*
X99927Y32813D01*
X99955Y32820D01*
X99974Y32823D01*
X222403D01*
X222989Y32939D01*
X223485Y33271D01*
X264242Y74028D01*
X264252Y74027D01*
X264449Y73517D01*
X222200Y31269D01*
X120737D01*
X120718Y31272D01*
X120690Y31278D01*
X120667Y31312D01*
X119946Y31794D01*
X119095Y31963D01*
X118244Y31794D01*
X117522Y31312D01*
X117040Y30590D01*
X116871Y29739D01*
X117040Y28888D01*
X117522Y28167D01*
X118244Y27685D01*
X119095Y27516D01*
X119946Y27685D01*
X120353Y27957D01*
X120482Y27891D01*
X120758Y27627D01*
X120611Y26885D01*
X120780Y26034D01*
X121262Y25313D01*
X121984Y24830D01*
X122835Y24661D01*
X123686Y24830D01*
X124407Y25313D01*
X124430Y25346D01*
X124458Y25353D01*
X124477Y25356D01*
X191874D01*
X192121Y24856D01*
X191944Y24625D01*
X191684Y23999D01*
X191596Y23327D01*
X191684Y22655D01*
X191944Y22028D01*
X192141Y21771D01*
X192154Y21583D01*
Y10726D01*
X191944Y10452D01*
X191684Y9826D01*
X191596Y9154D01*
X191684Y8481D01*
X191944Y7855D01*
X192357Y7317D01*
X192894Y6904D01*
X193521Y6645D01*
X194193Y6556D01*
X194865Y6645D01*
X195491Y6904D01*
X196029Y7317D01*
X196442Y7855D01*
X196701Y8481D01*
X196790Y9154D01*
X196701Y9826D01*
X196442Y10452D01*
X196245Y10709D01*
X196232Y10898D01*
Y21755D01*
X196442Y22028D01*
X196701Y22655D01*
X196790Y23327D01*
X196701Y23999D01*
X196442Y24625D01*
X196265Y24856D01*
X196512Y25356D01*
X224861D01*
X225447Y25472D01*
X225943Y25804D01*
X274345Y74206D01*
X274361Y74217D01*
X274385Y74233D01*
X274425Y74225D01*
X275276Y74394D01*
X275998Y74876D01*
X276480Y75598D01*
X276649Y76449D01*
X276480Y77300D01*
X275998Y78021D01*
X275276Y78503D01*
X274425Y78673D01*
X273574Y78503D01*
X272853Y78021D01*
X272371Y77300D01*
X272239Y76639D01*
X271729D01*
X271598Y77300D01*
X271116Y78021D01*
X270394Y78503D01*
X269543Y78673D01*
X268692Y78503D01*
X267971Y78021D01*
X267489Y77300D01*
X267382Y76763D01*
X267216Y76724D01*
X266795Y76994D01*
X266704Y77450D01*
X266222Y78171D01*
X265501Y78653D01*
X264650Y78822D01*
D02*
G37*
G36*
X193209Y83908D02*
X192177Y83772D01*
X192074Y83730D01*
X191270Y83514D01*
X189960Y83201D01*
X189572Y83130D01*
X189525Y83124D01*
X174016D01*
X173431Y83008D01*
X172934Y82676D01*
X170267Y80008D01*
X170225Y79972D01*
X170133Y79903D01*
X170050Y79849D01*
X169976Y79807D01*
X169911Y79778D01*
X169856Y79758D01*
X169808Y79746D01*
X169774Y79740D01*
X166449D01*
Y76136D01*
X162791D01*
X162631Y76609D01*
X162760Y76708D01*
X163394Y77534D01*
X163792Y78496D01*
X163928Y79528D01*
X163792Y80559D01*
X163394Y81521D01*
X162760Y82347D01*
X161934Y82980D01*
X160973Y83379D01*
X159941Y83514D01*
X158909Y83379D01*
X157948Y82980D01*
X157122Y82347D01*
X157062Y82269D01*
X156942Y82155D01*
X156780Y82021D01*
X156618Y81906D01*
X156455Y81810D01*
X156290Y81729D01*
X156123Y81665D01*
X155951Y81614D01*
X155773Y81578D01*
X155681Y81567D01*
X137485D01*
X136705Y81411D01*
X136043Y80970D01*
X117386Y62313D01*
X117044Y62268D01*
X116418Y62008D01*
X115880Y61595D01*
X115870Y61582D01*
X115815Y61578D01*
X115041D01*
X114992Y61581D01*
Y61736D01*
X114021D01*
X113984Y61744D01*
X113945Y61736D01*
X110105D01*
X110067Y61744D01*
X110029Y61736D01*
X109055D01*
Y61736D01*
X108579Y61793D01*
Y62538D01*
X100673D01*
Y61221D01*
X100229Y61046D01*
X99776Y61262D01*
Y61948D01*
X98802D01*
X98764Y61955D01*
X98725Y61948D01*
X98669D01*
X98652Y61949D01*
X98647Y61948D01*
X94232D01*
Y56011D01*
X98647D01*
X98652Y56009D01*
X98669Y56011D01*
X98725D01*
X98764Y56003D01*
X98802Y56011D01*
X99776D01*
Y56696D01*
X100229Y56913D01*
X100673Y56738D01*
Y55460D01*
X100673Y55420D01*
Y54960D01*
X100673Y54920D01*
Y53642D01*
X100229Y53467D01*
X99776Y53683D01*
Y54369D01*
X98802D01*
X98764Y54377D01*
X98725Y54369D01*
X98669D01*
X98652Y54371D01*
X98647Y54369D01*
X94232D01*
Y48432D01*
X98647D01*
X98652Y48431D01*
X98669Y48432D01*
X98725D01*
X98764Y48425D01*
X98802Y48432D01*
X99776D01*
Y49118D01*
X100229Y49334D01*
X100673Y49159D01*
Y47842D01*
X108579D01*
Y48845D01*
X108745Y48941D01*
X109236Y48650D01*
Y48629D01*
X110210D01*
X110248Y48621D01*
X110286Y48629D01*
X114123D01*
X114161Y48621D01*
X114199Y48629D01*
X115173D01*
X115173Y48629D01*
X115601Y48455D01*
X115880Y48091D01*
X116418Y47678D01*
X117044Y47419D01*
X117717Y47330D01*
X118389Y47419D01*
X119015Y47678D01*
X119435Y48001D01*
X119595Y48033D01*
X120256Y48475D01*
X138738Y66957D01*
X155681D01*
X155773Y66946D01*
X155951Y66910D01*
X156123Y66859D01*
X156290Y66794D01*
X156455Y66714D01*
X156618Y66617D01*
X156780Y66503D01*
X156942Y66369D01*
X157062Y66255D01*
X157122Y66177D01*
X157948Y65543D01*
X158909Y65145D01*
X159941Y65009D01*
X160973Y65145D01*
X161934Y65543D01*
X162760Y66177D01*
X163394Y67003D01*
X163792Y67964D01*
X163928Y68996D01*
X163792Y70028D01*
X163394Y70990D01*
X162760Y71815D01*
X161934Y72449D01*
X161625Y72577D01*
X161724Y73077D01*
X166449D01*
Y71835D01*
X173567D01*
Y78689D01*
X173574Y78727D01*
X173575Y78973D01*
X173575Y78991D01*
X174649Y80065D01*
X188830D01*
X188894Y80051D01*
X188938Y80033D01*
X188974Y80010D01*
X189014Y79974D01*
X189064Y79911D01*
X189123Y79811D01*
X189185Y79666D01*
X189244Y79475D01*
X189303Y79199D01*
X189305Y79195D01*
X189305Y79190D01*
X189323Y79149D01*
X189358Y78889D01*
X189756Y77928D01*
X190390Y77102D01*
X191215Y76468D01*
X192177Y76070D01*
X193209Y75934D01*
X194240Y76070D01*
X195202Y76468D01*
X196028Y77102D01*
X196661Y77928D01*
X197060Y78889D01*
X197195Y79921D01*
X197060Y80953D01*
X196661Y81915D01*
X196028Y82740D01*
X195202Y83374D01*
X194240Y83772D01*
X193209Y83908D01*
D02*
G37*
G36*
X24606Y80266D02*
X23574Y80130D01*
X22613Y79732D01*
X21787Y79099D01*
X21154Y78273D01*
X20755Y77311D01*
X20619Y76279D01*
X20755Y75248D01*
X21154Y74286D01*
X21787Y73460D01*
X22613Y72827D01*
X23574Y72429D01*
X24606Y72293D01*
X25638Y72429D01*
X26600Y72827D01*
X27425Y73460D01*
X28059Y74286D01*
X28457Y75248D01*
X28593Y76279D01*
X28457Y77311D01*
X28059Y78273D01*
X27425Y79099D01*
X26600Y79732D01*
X25638Y80130D01*
X24606Y80266D01*
D02*
G37*
G36*
X56102Y79972D02*
X55071Y79836D01*
X54109Y79438D01*
X53283Y78805D01*
X52650Y77979D01*
X52251Y77017D01*
X52115Y75985D01*
X52251Y74954D01*
X52650Y73992D01*
X53283Y73166D01*
X54109Y72533D01*
X55071Y72135D01*
X56102Y71999D01*
X57134Y72135D01*
X58096Y72533D01*
X58921Y73166D01*
X59555Y73992D01*
X59953Y74954D01*
X60089Y75985D01*
X59953Y77017D01*
X59555Y77979D01*
X58921Y78805D01*
X58096Y79438D01*
X57134Y79836D01*
X56102Y79972D01*
D02*
G37*
G36*
X24606Y69710D02*
X23574Y69574D01*
X22613Y69176D01*
X21787Y68543D01*
X21154Y67717D01*
X20755Y66755D01*
X20619Y65723D01*
X20755Y64692D01*
X21154Y63730D01*
X21787Y62904D01*
X22613Y62271D01*
X23574Y61872D01*
X24606Y61737D01*
X25638Y61872D01*
X26600Y62271D01*
X27425Y62904D01*
X28059Y63730D01*
X28457Y64692D01*
X28593Y65723D01*
X28457Y66755D01*
X28059Y67717D01*
X27425Y68543D01*
X26600Y69176D01*
X25638Y69574D01*
X24606Y69710D01*
D02*
G37*
G36*
X165551Y60573D02*
X164776Y60471D01*
X164054Y60172D01*
X163434Y59696D01*
X162958Y59076D01*
X162659Y58354D01*
X162654Y58313D01*
X162149D01*
X162144Y58354D01*
X161845Y59076D01*
X161369Y59696D01*
X160749Y60172D01*
X160027Y60471D01*
X159252Y60573D01*
X158477Y60471D01*
X157755Y60172D01*
X157135Y59696D01*
X156659Y59076D01*
X156360Y58354D01*
X156258Y57579D01*
X156360Y56804D01*
X156659Y56082D01*
X157135Y55462D01*
X157755Y54986D01*
X158477Y54687D01*
X159252Y54585D01*
X160027Y54687D01*
X160749Y54986D01*
X161369Y55462D01*
X161845Y56082D01*
X162144Y56804D01*
X162149Y56844D01*
X162654D01*
X162659Y56804D01*
X162958Y56082D01*
X163434Y55462D01*
X164054Y54986D01*
X164776Y54687D01*
X165551Y54585D01*
X166326Y54687D01*
X167048Y54986D01*
X167668Y55462D01*
X168144Y56082D01*
X168443Y56804D01*
X168545Y57579D01*
X168443Y58354D01*
X168144Y59076D01*
X167668Y59696D01*
X167048Y60172D01*
X166326Y60471D01*
X165551Y60573D01*
D02*
G37*
G36*
X24661Y59154D02*
X23629Y59018D01*
X22668Y58620D01*
X21842Y57986D01*
X21208Y57161D01*
X20810Y56199D01*
X20674Y55167D01*
X20810Y54135D01*
X21208Y53174D01*
X21842Y52348D01*
X22668Y51715D01*
X23629Y51316D01*
X24661Y51180D01*
X25693Y51316D01*
X26655Y51715D01*
X27480Y52348D01*
X28114Y53174D01*
X28512Y54135D01*
X28648Y55167D01*
X28512Y56199D01*
X28114Y57161D01*
X27480Y57986D01*
X26655Y58620D01*
X25693Y59018D01*
X24661Y59154D01*
D02*
G37*
G36*
X162402Y53092D02*
X161627Y52991D01*
X160905Y52691D01*
X160284Y52216D01*
X159809Y51595D01*
X159571Y51022D01*
X159071Y51121D01*
Y53067D01*
X153134D01*
Y47130D01*
X156224D01*
X156463Y46963D01*
X157053Y46461D01*
X161550Y41964D01*
X162212Y41522D01*
X162992Y41366D01*
X170180D01*
X170454Y41156D01*
X171080Y40897D01*
X171752Y40808D01*
X172424Y40897D01*
X173050Y41156D01*
X173588Y41569D01*
X174001Y42107D01*
X174260Y42733D01*
X174349Y43406D01*
X174260Y44078D01*
X174001Y44704D01*
X173588Y45242D01*
X173050Y45655D01*
X172424Y45914D01*
X171752Y46003D01*
X171080Y45914D01*
X170454Y45655D01*
X170197Y45458D01*
X170008Y45445D01*
X163837D01*
X162649Y46633D01*
X162828Y47161D01*
X163177Y47206D01*
X163899Y47505D01*
X164519Y47981D01*
X164995Y48601D01*
X165294Y49323D01*
X165396Y50098D01*
X165294Y50873D01*
X164995Y51595D01*
X164519Y52216D01*
X163899Y52691D01*
X163177Y52991D01*
X162402Y53092D01*
D02*
G37*
G36*
X145866Y59789D02*
X144705Y59674D01*
X143589Y59336D01*
X142561Y58786D01*
X141659Y58046D01*
X140919Y57144D01*
X140369Y56116D01*
X140031Y54999D01*
X139916Y53839D01*
X140031Y52678D01*
X140369Y51562D01*
X140919Y50533D01*
X141659Y49631D01*
X142561Y48891D01*
X143589Y48342D01*
X144705Y48003D01*
X145866Y47889D01*
X147027Y48003D01*
X148143Y48342D01*
X149172Y48891D01*
X150073Y49631D01*
X150813Y50533D01*
X151363Y51562D01*
X151702Y52678D01*
X151816Y53839D01*
X151702Y54999D01*
X151363Y56116D01*
X150813Y57144D01*
X150073Y58046D01*
X149172Y58786D01*
X148143Y59336D01*
X147027Y59674D01*
X145866Y59789D01*
D02*
G37*
G36*
X182567Y71768D02*
X175449D01*
Y63862D01*
X176869D01*
X176879Y63837D01*
X176920Y63685D01*
X176956Y63471D01*
X176969Y63321D01*
Y61367D01*
X176918Y61102D01*
X176827Y60807D01*
X176692Y60488D01*
X176510Y60145D01*
X176278Y59780D01*
X176004Y59407D01*
X175268Y58565D01*
X174825Y58126D01*
X174822Y58121D01*
X174730Y58046D01*
X173990Y57144D01*
X173440Y56116D01*
X173101Y54999D01*
X172987Y53839D01*
X173101Y52678D01*
X173440Y51562D01*
X173990Y50533D01*
X174730Y49631D01*
X175631Y48891D01*
X176660Y48342D01*
X177776Y48003D01*
X178937Y47889D01*
X180098Y48003D01*
X181214Y48342D01*
X182243Y48891D01*
X183144Y49631D01*
X183884Y50533D01*
X184434Y51562D01*
X184773Y52678D01*
X184887Y53839D01*
X184773Y54999D01*
X184434Y56116D01*
X183884Y57144D01*
X183144Y58046D01*
X183106Y58078D01*
X182336Y58919D01*
X182013Y59327D01*
X181733Y59724D01*
X181503Y60100D01*
X181322Y60451D01*
X181187Y60777D01*
X181097Y61075D01*
X181047Y61339D01*
Y63321D01*
X181060Y63471D01*
X181096Y63685D01*
X181136Y63837D01*
X181147Y63862D01*
X182567D01*
Y71768D01*
D02*
G37*
G36*
X24606Y48598D02*
X23574Y48462D01*
X22613Y48064D01*
X21787Y47430D01*
X21154Y46605D01*
X20755Y45643D01*
X20619Y44611D01*
X20755Y43579D01*
X21154Y42618D01*
X21787Y41792D01*
X22613Y41159D01*
X23574Y40760D01*
X24606Y40624D01*
X25638Y40760D01*
X26600Y41159D01*
X27425Y41792D01*
X28059Y42618D01*
X28457Y43579D01*
X28593Y44611D01*
X28457Y45643D01*
X28059Y46605D01*
X27425Y47430D01*
X26600Y48064D01*
X25638Y48462D01*
X24606Y48598D01*
D02*
G37*
G36*
X24661Y38042D02*
X23629Y37906D01*
X22668Y37508D01*
X21842Y36874D01*
X21208Y36049D01*
X20810Y35087D01*
X20674Y34055D01*
X20810Y33023D01*
X21208Y32062D01*
X21842Y31236D01*
X22668Y30602D01*
X23629Y30204D01*
X24661Y30068D01*
X25693Y30204D01*
X26655Y30602D01*
X27480Y31236D01*
X28114Y32062D01*
X28512Y33023D01*
X28648Y34055D01*
X28512Y35087D01*
X28114Y36049D01*
X27480Y36874D01*
X26655Y37508D01*
X25693Y37906D01*
X24661Y38042D01*
D02*
G37*
G36*
X139075Y21014D02*
X138043Y20879D01*
X137081Y20480D01*
X136256Y19847D01*
X135622Y19021D01*
X135224Y18059D01*
X135088Y17028D01*
X135224Y15996D01*
X135622Y15034D01*
X136256Y14208D01*
X137081Y13575D01*
X138043Y13177D01*
X139075Y13041D01*
X140107Y13177D01*
X141068Y13575D01*
X141894Y14208D01*
X142527Y15034D01*
X142926Y15996D01*
X143062Y17028D01*
X142926Y18059D01*
X142527Y19021D01*
X141894Y19847D01*
X141068Y20480D01*
X140107Y20879D01*
X139075Y21014D01*
D02*
G37*
G36*
X29328Y20595D02*
X28091Y20394D01*
X26947Y19883D01*
X25971Y19098D01*
X25227Y18089D01*
X24766Y16924D01*
X24618Y15679D01*
X24705Y15059D01*
X24705D01*
X24818Y14425D01*
X25363Y13258D01*
X26190Y12269D01*
X27242Y11527D01*
X28451Y11079D01*
X29733Y10957D01*
X31004Y11168D01*
X32178Y11699D01*
X32677Y12106D01*
X32677Y12106D01*
X32677Y12106D01*
X33147Y12520D01*
X33845Y13561D01*
X34254Y14746D01*
X34347Y15995D01*
X34118Y17227D01*
X33583Y18360D01*
X32776Y19319D01*
X31750Y20039D01*
X30575Y20475D01*
X29328Y20595D01*
D02*
G37*
G36*
X312402Y20135D02*
X310778Y19975D01*
X309216Y19501D01*
X307777Y18732D01*
X306516Y17697D01*
X305481Y16435D01*
X304712Y14996D01*
X304238Y13435D01*
X304078Y11811D01*
X304238Y10187D01*
X304712Y8626D01*
X305481Y7187D01*
X306516Y5925D01*
X307777Y4890D01*
X309216Y4121D01*
X310778Y3647D01*
X312402Y3488D01*
X314025Y3647D01*
X315587Y4121D01*
X317026Y4890D01*
X318287Y5925D01*
X319322Y7187D01*
X320092Y8626D01*
X320565Y10187D01*
X320725Y11811D01*
X320565Y13435D01*
X320092Y14996D01*
X319322Y16435D01*
X318287Y17697D01*
X317026Y18732D01*
X315587Y19501D01*
X314025Y19975D01*
X312402Y20135D01*
D02*
G37*
G36*
X12402D02*
X10778Y19975D01*
X9216Y19501D01*
X7777Y18732D01*
X6516Y17697D01*
X5481Y16435D01*
X4712Y14996D01*
X4238Y13435D01*
X4078Y11811D01*
X4238Y10187D01*
X4712Y8626D01*
X5481Y7187D01*
X6516Y5925D01*
X7777Y4890D01*
X9216Y4121D01*
X10778Y3647D01*
X12402Y3488D01*
X14025Y3647D01*
X15587Y4121D01*
X17026Y4890D01*
X18287Y5925D01*
X19322Y7187D01*
X20091Y8626D01*
X20565Y10187D01*
X20725Y11811D01*
X20565Y13435D01*
X20091Y14996D01*
X19322Y16435D01*
X18287Y17697D01*
X17026Y18732D01*
X15587Y19501D01*
X14025Y19975D01*
X12402Y20135D01*
D02*
G37*
%LPD*%
G36*
X220344Y95916D02*
X220432Y95842D01*
X220520Y95777D01*
X220609Y95721D01*
X220698Y95674D01*
X220787Y95635D01*
X220877Y95605D01*
X220968Y95584D01*
X221058Y95572D01*
X221150Y95568D01*
X219980Y94399D01*
X219977Y94490D01*
X219965Y94581D01*
X219944Y94672D01*
X219914Y94762D01*
X219875Y94851D01*
X219828Y94940D01*
X219772Y95029D01*
X219707Y95117D01*
X219633Y95204D01*
X219550Y95292D01*
X220257Y95999D01*
X220344Y95916D01*
D02*
G37*
G36*
X215423Y93554D02*
X215511Y93480D01*
X215599Y93415D01*
X215687Y93359D01*
X215776Y93312D01*
X215866Y93273D01*
X215956Y93243D01*
X216046Y93222D01*
X216137Y93210D01*
X216228Y93206D01*
X215059Y92037D01*
X215056Y92128D01*
X215043Y92219D01*
X215022Y92309D01*
X214992Y92399D01*
X214954Y92489D01*
X214906Y92578D01*
X214850Y92666D01*
X214785Y92755D01*
X214711Y92842D01*
X214629Y92929D01*
X215336Y93637D01*
X215423Y93554D01*
D02*
G37*
G36*
X131848Y89075D02*
X131546Y89372D01*
X130971Y89874D01*
X130699Y90078D01*
X130437Y90250D01*
X130184Y90391D01*
X129942Y90501D01*
X129710Y90579D01*
X129487Y90626D01*
X129275Y90642D01*
Y91642D01*
X129487Y91657D01*
X129710Y91704D01*
X129942Y91783D01*
X130184Y91892D01*
X130437Y92033D01*
X130699Y92206D01*
X130971Y92409D01*
X131546Y92911D01*
X131848Y93209D01*
Y89075D01*
D02*
G37*
G36*
X210502Y90075D02*
X210590Y90001D01*
X210678Y89937D01*
X210766Y89880D01*
X210855Y89833D01*
X210945Y89794D01*
X211035Y89764D01*
X211125Y89743D01*
X211216Y89731D01*
X211307Y89728D01*
X210138Y88558D01*
X210134Y88650D01*
X210122Y88740D01*
X210101Y88831D01*
X210071Y88921D01*
X210033Y89010D01*
X209985Y89099D01*
X209929Y89188D01*
X209864Y89276D01*
X209790Y89363D01*
X209708Y89451D01*
X210415Y90158D01*
X210502Y90075D01*
D02*
G37*
G36*
X205608Y88028D02*
X205696Y87954D01*
X205784Y87889D01*
X205873Y87833D01*
X205961Y87786D01*
X206051Y87747D01*
X206141Y87717D01*
X206231Y87696D01*
X206322Y87684D01*
X206413Y87680D01*
X205244Y86511D01*
X205241Y86602D01*
X205228Y86693D01*
X205207Y86783D01*
X205177Y86873D01*
X205139Y86963D01*
X205092Y87052D01*
X205035Y87140D01*
X204970Y87229D01*
X204896Y87316D01*
X204814Y87403D01*
X205521Y88111D01*
X205608Y88028D01*
D02*
G37*
G36*
X106681Y80003D02*
X106599Y79916D01*
X106525Y79828D01*
X106460Y79740D01*
X106404Y79651D01*
X106356Y79562D01*
X106318Y79473D01*
X106288Y79383D01*
X106267Y79293D01*
X106254Y79202D01*
X106251Y79110D01*
X105082Y80280D01*
X105173Y80283D01*
X105264Y80295D01*
X105354Y80317D01*
X105444Y80346D01*
X105534Y80385D01*
X105623Y80432D01*
X105711Y80489D01*
X105799Y80554D01*
X105887Y80627D01*
X105974Y80710D01*
X106681Y80003D01*
D02*
G37*
G36*
X96395Y67553D02*
X96312Y67466D01*
X96238Y67378D01*
X96173Y67290D01*
X96117Y67202D01*
X96070Y67112D01*
X96031Y67023D01*
X96001Y66933D01*
X95980Y66843D01*
X95968Y66752D01*
X95964Y66661D01*
X94795Y67830D01*
X94886Y67833D01*
X94977Y67846D01*
X95068Y67867D01*
X95158Y67896D01*
X95247Y67935D01*
X95336Y67983D01*
X95425Y68039D01*
X95513Y68104D01*
X95600Y68178D01*
X95688Y68260D01*
X96395Y67553D01*
D02*
G37*
G36*
X74348Y66569D02*
X74265Y66482D01*
X74191Y66394D01*
X74126Y66306D01*
X74070Y66217D01*
X74023Y66128D01*
X73984Y66039D01*
X73954Y65949D01*
X73933Y65859D01*
X73921Y65768D01*
X73917Y65676D01*
X72748Y66846D01*
X72839Y66849D01*
X72930Y66861D01*
X73020Y66882D01*
X73110Y66912D01*
X73200Y66951D01*
X73289Y66998D01*
X73377Y67054D01*
X73466Y67119D01*
X73553Y67193D01*
X73640Y67276D01*
X74348Y66569D01*
D02*
G37*
G36*
X64381Y51969D02*
X64391Y51855D01*
X64407Y51746D01*
X64430Y51644D01*
X64460Y51548D01*
X64496Y51457D01*
X64538Y51372D01*
X64587Y51294D01*
X64643Y51221D01*
X64705Y51154D01*
X63051D01*
X63113Y51221D01*
X63169Y51294D01*
X63218Y51372D01*
X63260Y51457D01*
X63296Y51548D01*
X63326Y51644D01*
X63349Y51746D01*
X63365Y51855D01*
X63375Y51969D01*
X63378Y52089D01*
X64378D01*
X64381Y51969D01*
D02*
G37*
G36*
X60444Y49950D02*
X60454Y49836D01*
X60470Y49728D01*
X60493Y49625D01*
X60523Y49529D01*
X60559Y49438D01*
X60601Y49354D01*
X60650Y49275D01*
X60706Y49202D01*
X60768Y49135D01*
X59114D01*
X59176Y49202D01*
X59232Y49275D01*
X59281Y49354D01*
X59323Y49438D01*
X59359Y49529D01*
X59389Y49625D01*
X59412Y49728D01*
X59428Y49836D01*
X59438Y49950D01*
X59441Y50070D01*
X60441D01*
X60444Y49950D01*
D02*
G37*
G36*
X95254Y81212D02*
Y78899D01*
X95257Y72423D01*
X91732Y68898D01*
Y32874D01*
X95030Y29674D01*
X95079Y29625D01*
X95063Y20586D01*
X93688Y19211D01*
X89485Y19237D01*
X71653Y30529D01*
X71653Y49488D01*
X70081Y51060D01*
Y59746D01*
X75295Y64961D01*
X75295Y66061D01*
X91631Y82397D01*
X94069D01*
X95254Y81212D01*
D02*
G37*
G36*
X264638Y75417D02*
X264546Y75414D01*
X264456Y75402D01*
X264365Y75381D01*
X264275Y75351D01*
X264186Y75312D01*
X264097Y75265D01*
X264008Y75208D01*
X263920Y75143D01*
X263833Y75070D01*
X263745Y74987D01*
X263038Y75694D01*
X263121Y75781D01*
X263195Y75869D01*
X263260Y75957D01*
X263316Y76046D01*
X263363Y76135D01*
X263402Y76224D01*
X263432Y76314D01*
X263453Y76405D01*
X263465Y76495D01*
X263469Y76587D01*
X264638Y75417D01*
D02*
G37*
G36*
X274413Y75268D02*
X274322Y75264D01*
X274231Y75252D01*
X274141Y75231D01*
X274051Y75201D01*
X273961Y75163D01*
X273872Y75115D01*
X273784Y75059D01*
X273696Y74994D01*
X273608Y74920D01*
X273521Y74837D01*
X272814Y75545D01*
X272897Y75632D01*
X272970Y75719D01*
X273035Y75808D01*
X273092Y75896D01*
X273139Y75985D01*
X273178Y76075D01*
X273207Y76165D01*
X273228Y76255D01*
X273241Y76346D01*
X273244Y76437D01*
X274413Y75268D01*
D02*
G37*
G36*
X269531D02*
X269440Y75264D01*
X269349Y75252D01*
X269259Y75231D01*
X269169Y75201D01*
X269080Y75163D01*
X268991Y75115D01*
X268902Y75059D01*
X268814Y74994D01*
X268726Y74920D01*
X268639Y74837D01*
X267932Y75545D01*
X268015Y75632D01*
X268088Y75719D01*
X268153Y75808D01*
X268210Y75896D01*
X268257Y75985D01*
X268296Y76075D01*
X268325Y76165D01*
X268347Y76255D01*
X268359Y76346D01*
X268362Y76437D01*
X269531Y75268D01*
D02*
G37*
G36*
X259744D02*
X259653Y75264D01*
X259562Y75252D01*
X259472Y75231D01*
X259382Y75201D01*
X259292Y75163D01*
X259203Y75115D01*
X259115Y75059D01*
X259027Y74994D01*
X258939Y74920D01*
X258852Y74837D01*
X258145Y75545D01*
X258227Y75632D01*
X258301Y75719D01*
X258366Y75808D01*
X258422Y75896D01*
X258470Y75985D01*
X258508Y76075D01*
X258538Y76165D01*
X258559Y76255D01*
X258571Y76346D01*
X258575Y76437D01*
X259744Y75268D01*
D02*
G37*
G36*
X97072Y38158D02*
X97145Y38102D01*
X97224Y38053D01*
X97308Y38011D01*
X97399Y37975D01*
X97495Y37945D01*
X97598Y37922D01*
X97706Y37906D01*
X97820Y37896D01*
X97940Y37893D01*
Y36893D01*
X97820Y36890D01*
X97706Y36880D01*
X97598Y36863D01*
X97495Y36841D01*
X97399Y36811D01*
X97308Y36775D01*
X97224Y36733D01*
X97145Y36684D01*
X97072Y36628D01*
X97005Y36566D01*
Y38220D01*
X97072Y38158D01*
D02*
G37*
G36*
X99242Y35117D02*
X99315Y35061D01*
X99394Y35012D01*
X99478Y34970D01*
X99569Y34934D01*
X99665Y34904D01*
X99768Y34881D01*
X99876Y34865D01*
X99990Y34855D01*
X100110Y34852D01*
Y33852D01*
X99990Y33849D01*
X99876Y33839D01*
X99768Y33823D01*
X99665Y33800D01*
X99569Y33770D01*
X99478Y33734D01*
X99394Y33692D01*
X99315Y33643D01*
X99242Y33587D01*
X99175Y33525D01*
Y35179D01*
X99242Y35117D01*
D02*
G37*
G36*
X120005Y30504D02*
X120078Y30448D01*
X120157Y30400D01*
X120241Y30357D01*
X120332Y30321D01*
X120428Y30292D01*
X120531Y30269D01*
X120639Y30253D01*
X120753Y30243D01*
X120873Y30239D01*
Y29239D01*
X120753Y29236D01*
X120639Y29226D01*
X120531Y29210D01*
X120428Y29187D01*
X120332Y29158D01*
X120241Y29122D01*
X120157Y29079D01*
X120078Y29030D01*
X120005Y28975D01*
X119938Y28913D01*
Y30566D01*
X120005Y30504D01*
D02*
G37*
G36*
X123745Y27650D02*
X123818Y27594D01*
X123897Y27545D01*
X123981Y27503D01*
X124072Y27467D01*
X124169Y27437D01*
X124271Y27415D01*
X124379Y27398D01*
X124493Y27388D01*
X124613Y27385D01*
Y26385D01*
X124493Y26382D01*
X124379Y26372D01*
X124271Y26356D01*
X124169Y26333D01*
X124072Y26303D01*
X123981Y26267D01*
X123897Y26225D01*
X123818Y26176D01*
X123745Y26120D01*
X123678Y26058D01*
Y27712D01*
X123745Y27650D01*
D02*
G37*
G36*
X195276Y22174D02*
X195258Y22129D01*
X195243Y22067D01*
X195230Y21988D01*
X195209Y21781D01*
X195197Y21507D01*
X195193Y21165D01*
X193193D01*
X193192Y21344D01*
X193143Y22067D01*
X193127Y22129D01*
X193110Y22174D01*
X193091Y22202D01*
X195295D01*
X195276Y22174D01*
D02*
G37*
G36*
X195194Y11136D02*
X195243Y10414D01*
X195258Y10352D01*
X195276Y10307D01*
X195295Y10278D01*
X193091D01*
X193110Y10307D01*
X193127Y10352D01*
X193143Y10414D01*
X193156Y10492D01*
X193176Y10700D01*
X193189Y10974D01*
X193193Y11315D01*
X195193D01*
X195194Y11136D01*
D02*
G37*
G36*
X190300Y79413D02*
X190231Y79733D01*
X190143Y80018D01*
X190035Y80271D01*
X189907Y80489D01*
X189760Y80674D01*
X189593Y80826D01*
X189406Y80943D01*
X189199Y81027D01*
X188973Y81078D01*
X188727Y81094D01*
X189438Y82095D01*
X189563Y82101D01*
X189727Y82121D01*
X190170Y82202D01*
X191521Y82526D01*
X192429Y82769D01*
X190300Y79413D01*
D02*
G37*
G36*
X172562Y79427D02*
X172561Y79404D01*
X172555Y78980D01*
X172555Y78728D01*
X169735Y78716D01*
X169875Y78724D01*
X170015Y78746D01*
X170156Y78782D01*
X170297Y78833D01*
X170438Y78897D01*
X170579Y78976D01*
X170721Y79070D01*
X170864Y79177D01*
X171006Y79299D01*
X171149Y79435D01*
X172564D01*
X172562Y79427D01*
D02*
G37*
G36*
X157832Y77461D02*
X157620Y77663D01*
X157400Y77845D01*
X157173Y78005D01*
X156940Y78144D01*
X156699Y78261D01*
X156451Y78357D01*
X156197Y78431D01*
X155935Y78485D01*
X155667Y78517D01*
X155391Y78528D01*
Y80528D01*
X155667Y80538D01*
X155935Y80570D01*
X156197Y80624D01*
X156451Y80698D01*
X156699Y80794D01*
X156940Y80912D01*
X157173Y81050D01*
X157400Y81210D01*
X157620Y81392D01*
X157832Y81595D01*
Y77461D01*
D02*
G37*
G36*
X167461Y73606D02*
X167451Y73701D01*
X167421Y73786D01*
X167371Y73861D01*
X167301Y73926D01*
X167211Y73981D01*
X167101Y74026D01*
X166971Y74061D01*
X166821Y74086D01*
X166651Y74101D01*
X166461Y74106D01*
Y75106D01*
X166651Y75111D01*
X166821Y75126D01*
X166971Y75151D01*
X167101Y75186D01*
X167211Y75231D01*
X167301Y75286D01*
X167371Y75351D01*
X167421Y75426D01*
X167451Y75511D01*
X167461Y75606D01*
Y73606D01*
D02*
G37*
G36*
X157832Y66929D02*
X157620Y67132D01*
X157400Y67313D01*
X157173Y67473D01*
X156940Y67612D01*
X156699Y67729D01*
X156451Y67825D01*
X156197Y67900D01*
X155935Y67953D01*
X155667Y67985D01*
X155391Y67996D01*
Y69996D01*
X155667Y70007D01*
X155935Y70039D01*
X156197Y70092D01*
X156451Y70167D01*
X156699Y70263D01*
X156940Y70380D01*
X157173Y70519D01*
X157400Y70679D01*
X157620Y70860D01*
X157832Y71063D01*
Y66929D01*
D02*
G37*
G36*
X101697Y56979D02*
X101677Y57169D01*
X101617Y57339D01*
X101516Y57489D01*
X101375Y57619D01*
X101194Y57729D01*
X100973Y57819D01*
X100711Y57889D01*
X100410Y57939D01*
X100220Y57956D01*
X100044Y57941D01*
X99744Y57893D01*
X99484Y57826D01*
X99264Y57740D01*
X99084Y57635D01*
X98944Y57511D01*
X98844Y57367D01*
X98784Y57205D01*
X98764Y57023D01*
Y60936D01*
X98784Y60754D01*
X98844Y60592D01*
X98944Y60448D01*
X99084Y60324D01*
X99264Y60218D01*
X99484Y60132D01*
X99744Y60065D01*
X100044Y60018D01*
X100220Y60003D01*
X100410Y60019D01*
X100711Y60069D01*
X100973Y60139D01*
X101194Y60229D01*
X101375Y60339D01*
X101516Y60469D01*
X101617Y60619D01*
X101677Y60789D01*
X101697Y60979D01*
Y56979D01*
D02*
G37*
G36*
X119952Y60580D02*
X119826Y60453D01*
X119350Y59908D01*
X119317Y59853D01*
X119298Y59809D01*
X119291Y59775D01*
X117732Y61334D01*
X117766Y61340D01*
X117810Y61360D01*
X117865Y61393D01*
X117930Y61439D01*
X118091Y61571D01*
X118294Y61756D01*
X118538Y61995D01*
X119952Y60580D01*
D02*
G37*
G36*
X114000Y60689D02*
X114060Y60658D01*
X114160Y60630D01*
X114300Y60606D01*
X114480Y60585D01*
X115260Y60546D01*
X115615Y60543D01*
X116131Y60578D01*
X116227Y60595D01*
X116307Y60615D01*
X116371Y60638D01*
X116418Y60664D01*
X116449Y60694D01*
X116757Y58510D01*
X116740Y58516D01*
X116706Y58521D01*
X116653Y58525D01*
X116117Y58538D01*
X115957Y58539D01*
X115598Y58529D01*
X115257Y58499D01*
X114956Y58449D01*
X114694Y58379D01*
X114473Y58289D01*
X114292Y58179D01*
X114151Y58049D01*
X114050Y57899D01*
X113989Y57729D01*
X113968Y57539D01*
X113980Y60724D01*
X114000Y60689D01*
D02*
G37*
G36*
X107575Y60782D02*
X107635Y60612D01*
X107736Y60462D01*
X107877Y60332D01*
X108058Y60222D01*
X108279Y60132D01*
X108541Y60062D01*
X108824Y60015D01*
X109087Y60040D01*
X109347Y60092D01*
X109567Y60160D01*
X109747Y60243D01*
X109887Y60341D01*
X109987Y60453D01*
X110047Y60581D01*
X110067Y60724D01*
Y57205D01*
X110047Y57351D01*
X109987Y57481D01*
X109887Y57596D01*
X109747Y57696D01*
X109567Y57780D01*
X109347Y57849D01*
X109087Y57903D01*
X108853Y57933D01*
X108842Y57932D01*
X108541Y57882D01*
X108279Y57812D01*
X108058Y57722D01*
X107877Y57612D01*
X107736Y57482D01*
X107635Y57332D01*
X107575Y57162D01*
X107555Y56972D01*
Y60972D01*
X107575Y60782D01*
D02*
G37*
G36*
X119389Y56376D02*
X119306Y56289D01*
X119161Y56117D01*
X119100Y56030D01*
X119045Y55944D01*
X118998Y55858D01*
X118957Y55772D01*
X118924Y55686D01*
X118898Y55600D01*
X118879Y55514D01*
X117949Y56882D01*
X118038Y56869D01*
X118126Y56867D01*
X118214Y56876D01*
X118303Y56895D01*
X118391Y56925D01*
X118479Y56966D01*
X118568Y57017D01*
X118656Y57078D01*
X118744Y57151D01*
X118832Y57233D01*
X119389Y56376D01*
D02*
G37*
G36*
X101697Y49401D02*
X101677Y49591D01*
X101617Y49761D01*
X101516Y49911D01*
X101375Y50041D01*
X101194Y50151D01*
X100973Y50241D01*
X100711Y50311D01*
X100410Y50361D01*
X100220Y50377D01*
X100044Y50362D01*
X99744Y50314D01*
X99484Y50248D01*
X99264Y50161D01*
X99084Y50056D01*
X98944Y49932D01*
X98844Y49788D01*
X98784Y49626D01*
X98764Y49444D01*
Y53357D01*
X98784Y53175D01*
X98844Y53013D01*
X98944Y52869D01*
X99084Y52745D01*
X99264Y52640D01*
X99484Y52554D01*
X99744Y52487D01*
X100044Y52439D01*
X100220Y52424D01*
X100410Y52441D01*
X100711Y52491D01*
X100973Y52561D01*
X101194Y52651D01*
X101375Y52761D01*
X101516Y52891D01*
X101617Y53041D01*
X101677Y53211D01*
X101697Y53401D01*
Y49401D01*
D02*
G37*
G36*
X120612Y50300D02*
X119123Y49218D01*
X118514Y51285D01*
X118551Y51274D01*
X118598Y51278D01*
X118655Y51297D01*
X118722Y51331D01*
X118799Y51380D01*
X118887Y51444D01*
X119091Y51617D01*
X119335Y51851D01*
X120612Y50300D01*
D02*
G37*
G36*
X114181Y53016D02*
X114241Y52887D01*
X114341Y52773D01*
X114481Y52674D01*
X114661Y52591D01*
X114881Y52522D01*
X115141Y52469D01*
X115441Y52431D01*
X115781Y52408D01*
X116161Y52401D01*
Y50401D01*
X115781Y50393D01*
X115141Y50332D01*
X114881Y50279D01*
X114661Y50211D01*
X114481Y50127D01*
X114341Y50028D01*
X114241Y49914D01*
X114181Y49785D01*
X114161Y49641D01*
Y53160D01*
X114181Y53016D01*
D02*
G37*
G36*
X107575Y53211D02*
X107635Y53041D01*
X107736Y52891D01*
X107877Y52761D01*
X108058Y52651D01*
X108279Y52561D01*
X108541Y52491D01*
X108842Y52441D01*
X108908Y52435D01*
X109268Y52469D01*
X109528Y52522D01*
X109748Y52591D01*
X109928Y52674D01*
X110068Y52773D01*
X110168Y52887D01*
X110228Y53016D01*
X110248Y53160D01*
Y49641D01*
X110228Y49785D01*
X110168Y49914D01*
X110068Y50028D01*
X109928Y50127D01*
X109748Y50211D01*
X109528Y50279D01*
X109268Y50332D01*
X108968Y50370D01*
X108959Y50371D01*
X108842Y50361D01*
X108541Y50311D01*
X108279Y50241D01*
X108058Y50151D01*
X107877Y50041D01*
X107736Y49911D01*
X107635Y49761D01*
X107575Y49591D01*
X107555Y49401D01*
Y53401D01*
X107575Y53211D01*
D02*
G37*
G36*
X157944Y51004D02*
X157895Y50814D01*
X157901Y50598D01*
X157962Y50355D01*
X158077Y50085D01*
X158247Y49789D01*
X158472Y49466D01*
X158751Y49117D01*
X159473Y48339D01*
X158256Y46728D01*
X157836Y47134D01*
X157087Y47770D01*
X156758Y48000D01*
X156460Y48172D01*
X156193Y48286D01*
X155956Y48341D01*
X155749Y48337D01*
X155573Y48275D01*
X155427Y48154D01*
X158047Y51167D01*
X157944Y51004D01*
D02*
G37*
G36*
X170627Y42303D02*
X170599Y42323D01*
X170554Y42340D01*
X170492Y42355D01*
X170413Y42369D01*
X170206Y42389D01*
X169932Y42401D01*
X169590Y42406D01*
Y44405D01*
X169770Y44407D01*
X170492Y44456D01*
X170554Y44471D01*
X170599Y44488D01*
X170627Y44508D01*
Y42303D01*
D02*
G37*
G36*
X180818Y64866D02*
X180648Y64806D01*
X180498Y64705D01*
X180368Y64564D01*
X180258Y64383D01*
X180168Y64162D01*
X180098Y63900D01*
X180048Y63599D01*
X180018Y63257D01*
X180008Y62874D01*
X178008D01*
X177998Y63257D01*
X177968Y63599D01*
X177918Y63900D01*
X177848Y64162D01*
X177758Y64383D01*
X177648Y64564D01*
X177518Y64705D01*
X177368Y64806D01*
X177198Y64866D01*
X177008Y64886D01*
X181008D01*
X180818Y64866D01*
D02*
G37*
G36*
X180008Y61595D02*
X180032Y61220D01*
X180105Y60832D01*
X180226Y60433D01*
X180396Y60022D01*
X180614Y59599D01*
X180881Y59164D01*
X181196Y58716D01*
X181559Y58257D01*
X182432Y57303D01*
X175543Y57402D01*
X176011Y57867D01*
X176800Y58768D01*
X177121Y59205D01*
X177392Y59631D01*
X177613Y60049D01*
X177786Y60457D01*
X177909Y60855D01*
X177983Y61244D01*
X178008Y61624D01*
X180008Y61595D01*
D02*
G37*
G36*
X180149Y54343D02*
X180127Y54318D01*
X180107Y54287D01*
X180089Y54250D01*
X180072Y54207D01*
X180057Y54159D01*
X180043Y54105D01*
X180021Y53979D01*
X180012Y53908D01*
X180005Y53831D01*
X178929Y54906D01*
X179007Y54914D01*
X179203Y54944D01*
X179257Y54958D01*
X179306Y54973D01*
X179348Y54990D01*
X179385Y55009D01*
X179416Y55029D01*
X179442Y55050D01*
X180149Y54343D01*
D02*
G37*
D10*
X11793Y110236D02*
G03*
X0Y98443I0J-11793D01*
G01*
Y11663D02*
G03*
X11663Y0I11663J0D01*
G01*
X313050D02*
G03*
X324803Y11754I0J11754D01*
G01*
Y98418D02*
G03*
X312985Y110236I-11818J0D01*
G01*
X0Y92520D02*
Y98443D01*
X11793Y110236D02*
X12696D01*
X0Y25591D02*
Y92520D01*
Y11663D02*
Y25591D01*
X11663Y0D02*
X313050D01*
X324803Y11754D02*
Y98418D01*
X12696Y110236D02*
X312985D01*
D12*
X94784Y66649D02*
X101301Y73166D01*
X104626D01*
X117582Y86122D02*
X136960D01*
X104626Y73166D02*
X117582Y86122D01*
X117113Y91142D02*
X133957D01*
X105070Y79099D02*
X117113Y91142D01*
X136960Y86122D02*
X143012Y92174D01*
X200751D01*
X206425Y86499D01*
X59941Y60925D02*
X99902Y100886D01*
X59941Y48292D02*
Y60925D01*
X99902Y100886D02*
X214663D01*
X210037Y98228D02*
X216240Y92025D01*
X63878Y60598D02*
X101508Y98228D01*
X210037D01*
X214663Y100886D02*
X221161Y94387D01*
X72736Y65665D02*
X102965Y95894D01*
X224861Y26885D02*
X274425Y76449D01*
X122835Y26885D02*
X224861D01*
X119095Y29739D02*
X222834D01*
X222403Y34352D02*
X264650Y76598D01*
X98332Y34352D02*
X222403D01*
X220700Y37393D02*
X259756Y76449D01*
X203972Y95894D02*
X211319Y88547D01*
X191535Y81595D02*
X193209Y79921D01*
X174016Y81595D02*
X191535D01*
X96161Y37393D02*
X220700D01*
X170008Y77587D02*
X174016Y81595D01*
X170008Y75787D02*
Y77587D01*
X168827Y74606D02*
X170008Y75787D01*
X136912Y74606D02*
X168827D01*
X118029Y55724D02*
X136912Y74606D01*
X102965Y95894D02*
X203972D01*
X63878Y50310D02*
Y60598D01*
X117717Y55724D02*
X118029D01*
X222834Y29739D02*
X269543Y76449D01*
X179008Y53839D02*
Y53909D01*
X179795Y54697D01*
X178937Y53839D02*
X179008Y53909D01*
X-99500Y-99500D02*
X546169D01*
X1681D02*
Y-20319D01*
X164613Y-99205D02*
Y-44277D01*
X1976Y-81777D02*
X345579Y-81777D01*
X345863Y-99106D02*
Y-20515D01*
X1976Y-63027D02*
X545863Y-63027D01*
X2173Y-44277D02*
X545440Y-44277D01*
X1681Y-20319D02*
X545863D01*
X-99500Y356552D02*
X546169D01*
X-99500Y-99500D02*
Y356552D01*
X546169Y-99146D02*
Y356552D01*
X346071Y-43941D02*
Y-20319D01*
X414859Y-43883D02*
Y-20268D01*
X97154Y-89441D02*
Y-96252D01*
X101694Y-89441D02*
Y-96252D01*
X97154Y-92684D02*
X101694D01*
X108765Y-96252D02*
X106170Y-89441D01*
X103575Y-96252D01*
X104548Y-93982D02*
X107792D01*
X114895Y-90414D02*
X114246Y-89765D01*
X113273Y-89441D01*
X111976D01*
X111003Y-89765D01*
X110354Y-90414D01*
Y-91063D01*
X110678Y-91711D01*
X111003Y-92036D01*
X111651Y-92360D01*
X113597Y-93009D01*
X114246Y-93333D01*
X114570Y-93657D01*
X114895Y-94306D01*
Y-95279D01*
X114246Y-95928D01*
X113273Y-96252D01*
X111976D01*
X111003Y-95928D01*
X110354Y-95279D01*
X116419Y-89441D02*
Y-96252D01*
X120311D01*
X231110Y-87472D02*
X233705Y-90716D01*
Y-94283D01*
X236300Y-87472D02*
X233705Y-90716D01*
X241067Y-89743D02*
Y-94283D01*
Y-90716D02*
X240419Y-90067D01*
X239770Y-89743D01*
X238797D01*
X238148Y-90067D01*
X237500Y-90716D01*
X237175Y-91689D01*
Y-92338D01*
X237500Y-93310D01*
X238148Y-93959D01*
X238797Y-94283D01*
X239770D01*
X240419Y-93959D01*
X241067Y-93310D01*
X242884Y-89743D02*
Y-94283D01*
Y-91040D02*
X243857Y-90067D01*
X244505Y-89743D01*
X245478D01*
X246127Y-90067D01*
X246451Y-91040D01*
Y-94283D01*
X258452Y-89094D02*
X258127Y-88445D01*
X257479Y-87797D01*
X256830Y-87472D01*
X255533D01*
X254884Y-87797D01*
X254235Y-88445D01*
X253911Y-89094D01*
X253587Y-90067D01*
Y-91689D01*
X253911Y-92662D01*
X254235Y-93310D01*
X254884Y-93959D01*
X255533Y-94283D01*
X256830D01*
X257479Y-93959D01*
X258127Y-93310D01*
X258452Y-92662D01*
X260690Y-93635D02*
X260365Y-93959D01*
X260690Y-94283D01*
X261014Y-93959D01*
X260690Y-93635D01*
X271749Y-87472D02*
Y-94283D01*
Y-90716D02*
X271101Y-90067D01*
X270452Y-89743D01*
X269479D01*
X268830Y-90067D01*
X268182Y-90716D01*
X267857Y-91689D01*
Y-92338D01*
X268182Y-93310D01*
X268830Y-93959D01*
X269479Y-94283D01*
X270452D01*
X271101Y-93959D01*
X271749Y-93310D01*
X273566Y-91689D02*
X277458D01*
Y-91040D01*
X277133Y-90391D01*
X276809Y-90067D01*
X276160Y-89743D01*
X275187D01*
X274539Y-90067D01*
X273890Y-90716D01*
X273566Y-91689D01*
Y-92338D01*
X273890Y-93310D01*
X274539Y-93959D01*
X275187Y-94283D01*
X276160D01*
X276809Y-93959D01*
X277458Y-93310D01*
X289458Y-94283D02*
X286863Y-87472D01*
X284269Y-94283D01*
X285242Y-92013D02*
X288485D01*
X294615Y-89743D02*
X291047Y-94283D01*
Y-89743D02*
X294615D01*
X291047Y-94283D02*
X294615D01*
X296042Y-91689D02*
X299934D01*
Y-91040D01*
X299610Y-90391D01*
X299286Y-90067D01*
X298637Y-89743D01*
X297664D01*
X297015Y-90067D01*
X296367Y-90716D01*
X296042Y-91689D01*
Y-92338D01*
X296367Y-93310D01*
X297015Y-93959D01*
X297664Y-94283D01*
X298637D01*
X299286Y-93959D01*
X299934Y-93310D01*
X301394Y-89743D02*
Y-94283D01*
Y-91689D02*
X301718Y-90716D01*
X302367Y-90067D01*
X303015Y-89743D01*
X303988D01*
X304605Y-91689D02*
X308497D01*
Y-91040D01*
X308172Y-90391D01*
X307848Y-90067D01*
X307199Y-89743D01*
X306226D01*
X305578Y-90067D01*
X304929Y-90716D01*
X304605Y-91689D01*
Y-92338D01*
X304929Y-93310D01*
X305578Y-93959D01*
X306226Y-94283D01*
X307199D01*
X307848Y-93959D01*
X308497Y-93310D01*
X313848Y-87472D02*
Y-94283D01*
Y-90716D02*
X313199Y-90067D01*
X312551Y-89743D01*
X311578D01*
X310929Y-90067D01*
X310280Y-90716D01*
X309956Y-91689D01*
Y-92338D01*
X310280Y-93310D01*
X310929Y-93959D01*
X311578Y-94283D01*
X312551D01*
X313199Y-93959D01*
X313848Y-93310D01*
X317286Y-89743D02*
X316637Y-90067D01*
X315989Y-90716D01*
X315664Y-91689D01*
Y-92338D01*
X315989Y-93310D01*
X316637Y-93959D01*
X317286Y-94283D01*
X318259D01*
X318908Y-93959D01*
X319556Y-93310D01*
X319881Y-92338D01*
Y-91689D01*
X319556Y-90716D01*
X318908Y-90067D01*
X318259Y-89743D01*
X317286D01*
X125697Y-76764D02*
X128217D01*
X126957D01*
Y-69204D01*
X125697Y-70464D01*
X131997Y-76764D02*
Y-75504D01*
X133257D01*
Y-76764D01*
X131997D01*
X143337Y-69204D02*
X140817Y-70464D01*
X138297Y-72984D01*
Y-75504D01*
X139557Y-76764D01*
X142077D01*
X143337Y-75504D01*
Y-74244D01*
X142077Y-72984D01*
X138297D01*
X145857Y-76764D02*
Y-71724D01*
X147117D01*
X148377Y-72984D01*
Y-76764D01*
Y-72984D01*
X149637Y-71724D01*
X150897Y-72984D01*
Y-76764D01*
X153417D02*
Y-71724D01*
X154677D01*
X155937Y-72984D01*
Y-76764D01*
Y-72984D01*
X157197Y-71724D01*
X158457Y-72984D01*
Y-76764D01*
X80608Y-50103D02*
X75568D01*
Y-53883D01*
X78088D01*
X75568D01*
Y-57663D01*
X83128D02*
Y-50103D01*
X86908D01*
X88168Y-51363D01*
Y-53883D01*
X86908Y-55143D01*
X83128D01*
X85648D02*
X88168Y-57663D01*
X94468D02*
Y-50103D01*
X90688Y-53883D01*
X95728D01*
X390953Y-36705D02*
X393473D01*
X392213D01*
Y-29145D01*
X390953Y-30405D01*
X397253Y-36705D02*
Y-35445D01*
X398513D01*
Y-36705D01*
X397253D01*
X403553Y-30405D02*
X404813Y-29145D01*
X407333D01*
X408593Y-30405D01*
Y-35445D01*
X407333Y-36705D01*
X404813D01*
X403553Y-35445D01*
Y-30405D01*
X465559Y-36705D02*
X468079D01*
X466819D01*
Y-29145D01*
X465559Y-30405D01*
X476899Y-29145D02*
X471859D01*
Y-32925D01*
X474379Y-31665D01*
X475639D01*
X476899Y-32925D01*
Y-35445D01*
X475639Y-36705D01*
X473119D01*
X471859Y-35445D01*
X479419Y-36705D02*
X484459Y-31665D01*
X486979Y-30405D02*
X488239Y-29145D01*
X490759D01*
X492019Y-30405D01*
Y-35445D01*
X490759Y-36705D01*
X488239D01*
X486979Y-35445D01*
Y-30405D01*
X494539Y-29145D02*
X499579D01*
Y-30405D01*
X494539Y-35445D01*
Y-36705D01*
X502099D02*
X507139Y-31665D01*
X514699Y-36705D02*
X509659D01*
X514699Y-31665D01*
Y-30405D01*
X513439Y-29145D01*
X510919D01*
X509659Y-30405D01*
X517219D02*
X518479Y-29145D01*
X520999D01*
X522260Y-30405D01*
Y-35445D01*
X520999Y-36705D01*
X518479D01*
X517219Y-35445D01*
Y-30405D01*
X529820Y-36705D02*
X524780D01*
X529820Y-31665D01*
Y-30405D01*
X528560Y-29145D01*
X526040D01*
X524780Y-30405D01*
X532340D02*
X533600Y-29145D01*
X536120D01*
X537380Y-30405D01*
Y-35445D01*
X536120Y-36705D01*
X533600D01*
X532340Y-35445D01*
Y-30405D01*
X354206Y-67185D02*
X353255Y-66234D01*
X351353D01*
X350402Y-67185D01*
Y-68136D01*
X351353Y-69087D01*
X353255D01*
X354206Y-70039D01*
Y-70990D01*
X353255Y-71941D01*
X351353D01*
X350402Y-70990D01*
X356108Y-73843D02*
Y-68136D01*
X358962D01*
X359913Y-69087D01*
Y-70990D01*
X358962Y-71941D01*
X356108D01*
X362766Y-68136D02*
X364669D01*
X365620Y-69087D01*
Y-71941D01*
X362766D01*
X361815Y-70990D01*
X362766Y-70039D01*
X365620D01*
X371326Y-68136D02*
X368473D01*
X367522Y-69087D01*
Y-70990D01*
X368473Y-71941D01*
X371326D01*
X376082D02*
X374180D01*
X373229Y-70990D01*
Y-69087D01*
X374180Y-68136D01*
X376082D01*
X377033Y-69087D01*
Y-70039D01*
X373229D01*
X384642Y-66234D02*
X388447D01*
X386545D01*
Y-71941D01*
X393203D02*
X391300D01*
X390349Y-70990D01*
Y-69087D01*
X391300Y-68136D01*
X393203D01*
X394154Y-69087D01*
Y-70039D01*
X390349D01*
X399861Y-68136D02*
X397007D01*
X396056Y-69087D01*
Y-70990D01*
X397007Y-71941D01*
X399861D01*
X401763Y-66234D02*
Y-71941D01*
Y-69087D01*
X402714Y-68136D01*
X404616D01*
X405567Y-69087D01*
Y-71941D01*
X407470D02*
Y-68136D01*
X410323D01*
X411274Y-69087D01*
Y-71941D01*
X414128D02*
X416030D01*
X416981Y-70990D01*
Y-69087D01*
X416030Y-68136D01*
X414128D01*
X413176Y-69087D01*
Y-70990D01*
X414128Y-71941D01*
X418883D02*
X420786D01*
X419834D01*
Y-66234D01*
X418883D01*
X424590Y-71941D02*
X426492D01*
X427444Y-70990D01*
Y-69087D01*
X426492Y-68136D01*
X424590D01*
X423639Y-69087D01*
Y-70990D01*
X424590Y-71941D01*
X431248Y-73843D02*
X432199D01*
X433150Y-72892D01*
Y-68136D01*
X430297D01*
X429346Y-69087D01*
Y-70990D01*
X430297Y-71941D01*
X433150D01*
X435053Y-68136D02*
Y-70990D01*
X436004Y-71941D01*
X438857D01*
Y-72892D01*
X437906Y-73843D01*
X436955D01*
X438857Y-71941D02*
Y-68136D01*
X446466Y-71941D02*
Y-66234D01*
X449320D01*
X450271Y-67185D01*
Y-69087D01*
X449320Y-70039D01*
X446466D01*
X448369D02*
X450271Y-71941D01*
X455026D02*
X453124D01*
X452173Y-70990D01*
Y-69087D01*
X453124Y-68136D01*
X455026D01*
X455978Y-69087D01*
Y-70039D01*
X452173D01*
X457880Y-71941D02*
X460733D01*
X461684Y-70990D01*
X460733Y-70039D01*
X458831D01*
X457880Y-69087D01*
X458831Y-68136D01*
X461684D01*
X466440Y-71941D02*
X464538D01*
X463587Y-70990D01*
Y-69087D01*
X464538Y-68136D01*
X466440D01*
X467391Y-69087D01*
Y-70039D01*
X463587D01*
X470245Y-68136D02*
X472147D01*
X473098Y-69087D01*
Y-71941D01*
X470245D01*
X469293Y-70990D01*
X470245Y-70039D01*
X473098D01*
X475000Y-68136D02*
Y-71941D01*
Y-70039D01*
X475951Y-69087D01*
X476902Y-68136D01*
X477854D01*
X484512D02*
X481658D01*
X480707Y-69087D01*
Y-70990D01*
X481658Y-71941D01*
X484512D01*
X486414Y-66234D02*
Y-71941D01*
Y-69087D01*
X487365Y-68136D01*
X489267D01*
X490218Y-69087D01*
Y-71941D01*
X497827Y-66234D02*
Y-71941D01*
X501632D01*
X504486Y-68136D02*
X506388D01*
X507339Y-69087D01*
Y-71941D01*
X504486D01*
X503534Y-70990D01*
X504486Y-70039D01*
X507339D01*
X509241Y-66234D02*
Y-71941D01*
X512094D01*
X513046Y-70990D01*
Y-70039D01*
Y-69087D01*
X512094Y-68136D01*
X509241D01*
X515899Y-71941D02*
X517801D01*
X518752Y-70990D01*
Y-69087D01*
X517801Y-68136D01*
X515899D01*
X514948Y-69087D01*
Y-70990D01*
X515899Y-71941D01*
X520655Y-68136D02*
Y-71941D01*
Y-70039D01*
X521606Y-69087D01*
X522557Y-68136D01*
X523508D01*
X527313D02*
X529215D01*
X530166Y-69087D01*
Y-71941D01*
X527313D01*
X526362Y-70990D01*
X527313Y-70039D01*
X530166D01*
X533019Y-67185D02*
Y-68136D01*
X532068D01*
X533971D01*
X533019D01*
Y-70990D01*
X533971Y-71941D01*
X536824Y-68136D02*
Y-70990D01*
X537775Y-71941D01*
X540629D01*
Y-72892D01*
X539677Y-73843D01*
X538726D01*
X540629Y-71941D02*
Y-68136D01*
X354665Y-77258D02*
X350992D01*
Y-80013D01*
X352829D01*
X350992D01*
Y-82768D01*
X359257D02*
X357420D01*
X356502Y-81849D01*
Y-80013D01*
X357420Y-79094D01*
X359257D01*
X360175Y-80013D01*
Y-80931D01*
X356502D01*
X365686Y-77258D02*
Y-82768D01*
X362930D01*
X362012Y-81849D01*
Y-80013D01*
X362930Y-79094D01*
X365686D01*
X370277Y-82768D02*
X368441D01*
X367522Y-81849D01*
Y-80013D01*
X368441Y-79094D01*
X370277D01*
X371196Y-80013D01*
Y-80931D01*
X367522D01*
X373032Y-79094D02*
Y-82768D01*
Y-80931D01*
X373951Y-80013D01*
X374869Y-79094D01*
X375787D01*
X379461D02*
X381297D01*
X382216Y-80013D01*
Y-82768D01*
X379461D01*
X378542Y-81849D01*
X379461Y-80931D01*
X382216D01*
X384052Y-82768D02*
X385889D01*
X384971D01*
Y-77258D01*
X384052D01*
X394154D02*
Y-81849D01*
X395072Y-82768D01*
X396909D01*
X397827Y-81849D01*
Y-77258D01*
X399664Y-82768D02*
Y-79094D01*
X402419D01*
X403337Y-80013D01*
Y-82768D01*
X405174D02*
X407011D01*
X406092D01*
Y-79094D01*
X405174D01*
X409766D02*
X411602Y-82768D01*
X413439Y-79094D01*
X418031Y-82768D02*
X416194D01*
X415276Y-81849D01*
Y-80013D01*
X416194Y-79094D01*
X418031D01*
X418949Y-80013D01*
Y-80931D01*
X415276D01*
X420786Y-79094D02*
Y-82768D01*
Y-80931D01*
X421704Y-80013D01*
X422622Y-79094D01*
X423541D01*
X426296Y-82768D02*
X429051D01*
X429969Y-81849D01*
X429051Y-80931D01*
X427214D01*
X426296Y-80013D01*
X427214Y-79094D01*
X429969D01*
X431806Y-82768D02*
X433643D01*
X432724D01*
Y-79094D01*
X431806D01*
X437316Y-78176D02*
Y-79094D01*
X436398D01*
X438234D01*
X437316D01*
Y-81849D01*
X438234Y-82768D01*
X440989Y-79094D02*
Y-81849D01*
X441908Y-82768D01*
X444663D01*
Y-83686D01*
X443744Y-84604D01*
X442826D01*
X444663Y-82768D02*
Y-79094D01*
X452928Y-82768D02*
X454764D01*
X455683Y-81849D01*
Y-80013D01*
X454764Y-79094D01*
X452928D01*
X452009Y-80013D01*
Y-81849D01*
X452928Y-82768D01*
X458438D02*
Y-78176D01*
Y-80013D01*
X457519D01*
X459356D01*
X458438D01*
Y-78176D01*
X459356Y-77258D01*
X471294Y-78176D02*
X470376Y-77258D01*
X468539D01*
X467621Y-78176D01*
Y-79094D01*
X468539Y-80013D01*
X470376D01*
X471294Y-80931D01*
Y-81849D01*
X470376Y-82768D01*
X468539D01*
X467621Y-81849D01*
X474050Y-79094D02*
X475886D01*
X476804Y-80013D01*
Y-82768D01*
X474050D01*
X473131Y-81849D01*
X474050Y-80931D01*
X476804D01*
X478641Y-82768D02*
Y-79094D01*
X481396D01*
X482314Y-80013D01*
Y-82768D01*
X485070Y-78176D02*
Y-79094D01*
X484151D01*
X485988D01*
X485070D01*
Y-81849D01*
X485988Y-82768D01*
X489661Y-79094D02*
X491498D01*
X492416Y-80013D01*
Y-82768D01*
X489661D01*
X488743Y-81849D01*
X489661Y-80931D01*
X492416D01*
X503436Y-78176D02*
X502518Y-77258D01*
X500681D01*
X499763Y-78176D01*
Y-81849D01*
X500681Y-82768D01*
X502518D01*
X503436Y-81849D01*
X506191Y-79094D02*
X508028D01*
X508946Y-80013D01*
Y-82768D01*
X506191D01*
X505273Y-81849D01*
X506191Y-80931D01*
X508946D01*
X511701Y-78176D02*
Y-79094D01*
X510783D01*
X512620D01*
X511701D01*
Y-81849D01*
X512620Y-82768D01*
X516293Y-79094D02*
X518130D01*
X519048Y-80013D01*
Y-82768D01*
X516293D01*
X515375Y-81849D01*
X516293Y-80931D01*
X519048D01*
X520885Y-79094D02*
Y-82768D01*
Y-80931D01*
X521803Y-80013D01*
X522721Y-79094D01*
X523640D01*
X526395Y-82768D02*
X528231D01*
X527313D01*
Y-79094D01*
X526395D01*
X530986Y-82768D02*
Y-79094D01*
X533741D01*
X534660Y-80013D01*
Y-82768D01*
X537415Y-79094D02*
X539252D01*
X540170Y-80013D01*
Y-82768D01*
X537415D01*
X536496Y-81849D01*
X537415Y-80931D01*
X540170D01*
X-8560Y227667D02*
Y221669D01*
X-4561D01*
X-1562Y225668D02*
X437D01*
X1437Y224668D01*
Y221669D01*
X-1562D01*
X-2562Y222669D01*
X-1562Y223669D01*
X1437D01*
X3436Y225668D02*
Y222669D01*
X4436Y221669D01*
X7435D01*
Y220670D01*
X6435Y219670D01*
X5435D01*
X7435Y221669D02*
Y225668D01*
X12433Y221669D02*
X10434D01*
X9434Y222669D01*
Y224668D01*
X10434Y225668D01*
X12433D01*
X13433Y224668D01*
Y223669D01*
X9434D01*
X15432Y225668D02*
Y221669D01*
Y223669D01*
X16432Y224668D01*
X17431Y225668D01*
X18431D01*
X-4561Y161669D02*
X-8560D01*
X-4561Y165668D01*
Y166668D01*
X-5561Y167667D01*
X-7560D01*
X-8560Y166668D01*
Y185669D02*
X-6561D01*
X-7560D01*
Y191667D01*
X-8560Y190668D01*
X32431Y221669D02*
Y227667D01*
X36430Y221669D01*
Y227667D01*
X39429Y225668D02*
X41428D01*
X42428Y224668D01*
Y221669D01*
X39429D01*
X38429Y222669D01*
X39429Y223669D01*
X42428D01*
X44427Y221669D02*
Y225668D01*
X45427D01*
X46426Y224668D01*
Y221669D01*
Y224668D01*
X47426Y225668D01*
X48426Y224668D01*
Y221669D01*
X53424D02*
X51425D01*
X50425Y222669D01*
Y224668D01*
X51425Y225668D01*
X53424D01*
X54424Y224668D01*
Y223669D01*
X50425D01*
X32431Y143667D02*
Y137669D01*
X35430D01*
X36430Y138669D01*
Y139669D01*
X35430Y140668D01*
X32431D01*
X35430D01*
X36430Y141668D01*
Y142668D01*
X35430Y143667D01*
X32431D01*
X39429Y137669D02*
X41428D01*
X42428Y138669D01*
Y140668D01*
X41428Y141668D01*
X39429D01*
X38429Y140668D01*
Y138669D01*
X39429Y137669D01*
X45427Y142668D02*
Y141668D01*
X44427D01*
X46426D01*
X45427D01*
Y138669D01*
X46426Y137669D01*
X50425Y142668D02*
Y141668D01*
X49426D01*
X51425D01*
X50425D01*
Y138669D01*
X51425Y137669D01*
X55424D02*
X57423D01*
X58423Y138669D01*
Y140668D01*
X57423Y141668D01*
X55424D01*
X54424Y140668D01*
Y138669D01*
X55424Y137669D01*
X60422D02*
Y141668D01*
X61422D01*
X62421Y140668D01*
Y137669D01*
Y140668D01*
X63421Y141668D01*
X64421Y140668D01*
Y137669D01*
X75417Y143667D02*
X73418D01*
X72418Y142668D01*
Y138669D01*
X73418Y137669D01*
X75417D01*
X76417Y138669D01*
Y142668D01*
X75417Y143667D01*
X78416Y141668D02*
X80415Y137669D01*
X82415Y141668D01*
X87413Y137669D02*
X85414D01*
X84414Y138669D01*
Y140668D01*
X85414Y141668D01*
X87413D01*
X88413Y140668D01*
Y139669D01*
X84414D01*
X90412Y141668D02*
Y137669D01*
Y139669D01*
X91412Y140668D01*
X92412Y141668D01*
X93411D01*
X96410Y137669D02*
X98410D01*
X97410D01*
Y143667D01*
X96410D01*
X102408Y141668D02*
X104408D01*
X105407Y140668D01*
Y137669D01*
X102408D01*
X101409Y138669D01*
X102408Y139669D01*
X105407D01*
X107407Y141668D02*
Y138669D01*
X108406Y137669D01*
X111406D01*
Y136670D01*
X110406Y135670D01*
X109406D01*
X111406Y137669D02*
Y141668D01*
X32431Y155667D02*
Y149669D01*
X35430D01*
X36430Y150669D01*
Y151669D01*
X35430Y152668D01*
X32431D01*
X35430D01*
X36430Y153668D01*
Y154668D01*
X35430Y155667D01*
X32431D01*
X39429Y149669D02*
X41428D01*
X42428Y150669D01*
Y152668D01*
X41428Y153668D01*
X39429D01*
X38429Y152668D01*
Y150669D01*
X39429Y149669D01*
X45427Y154668D02*
Y153668D01*
X44427D01*
X46426D01*
X45427D01*
Y150669D01*
X46426Y149669D01*
X50425Y154668D02*
Y153668D01*
X49426D01*
X51425D01*
X50425D01*
Y150669D01*
X51425Y149669D01*
X55424D02*
X57423D01*
X58423Y150669D01*
Y152668D01*
X57423Y153668D01*
X55424D01*
X54424Y152668D01*
Y150669D01*
X55424Y149669D01*
X60422D02*
Y153668D01*
X61422D01*
X62421Y152668D01*
Y149669D01*
Y152668D01*
X63421Y153668D01*
X64421Y152668D01*
Y149669D01*
X76417Y154668D02*
X75417Y155667D01*
X73418D01*
X72418Y154668D01*
Y153668D01*
X73418Y152668D01*
X75417D01*
X76417Y151669D01*
Y150669D01*
X75417Y149669D01*
X73418D01*
X72418Y150669D01*
X79416Y149669D02*
X81415D01*
X82415Y150669D01*
Y152668D01*
X81415Y153668D01*
X79416D01*
X78416Y152668D01*
Y150669D01*
X79416Y149669D01*
X84414D02*
X86414D01*
X85414D01*
Y155667D01*
X84414D01*
X93411D02*
Y149669D01*
X90412D01*
X89413Y150669D01*
Y152668D01*
X90412Y153668D01*
X93411D01*
X98410Y149669D02*
X96410D01*
X95411Y150669D01*
Y152668D01*
X96410Y153668D01*
X98410D01*
X99409Y152668D01*
Y151669D01*
X95411D01*
X101409Y153668D02*
Y149669D01*
Y151669D01*
X102408Y152668D01*
X103408Y153668D01*
X104408D01*
X32431Y167667D02*
Y161669D01*
X35430D01*
X36430Y162669D01*
Y163669D01*
X35430Y164668D01*
X32431D01*
X35430D01*
X36430Y165668D01*
Y166668D01*
X35430Y167667D01*
X32431D01*
X39429Y161669D02*
X41428D01*
X42428Y162669D01*
Y164668D01*
X41428Y165668D01*
X39429D01*
X38429Y164668D01*
Y162669D01*
X39429Y161669D01*
X45427Y166668D02*
Y165668D01*
X44427D01*
X46426D01*
X45427D01*
Y162669D01*
X46426Y161669D01*
X50425Y166668D02*
Y165668D01*
X49426D01*
X51425D01*
X50425D01*
Y162669D01*
X51425Y161669D01*
X55424D02*
X57423D01*
X58423Y162669D01*
Y164668D01*
X57423Y165668D01*
X55424D01*
X54424Y164668D01*
Y162669D01*
X55424Y161669D01*
X60422D02*
Y165668D01*
X61422D01*
X62421Y164668D01*
Y161669D01*
Y164668D01*
X63421Y165668D01*
X64421Y164668D01*
Y161669D01*
X72418Y167667D02*
Y161669D01*
X76417D01*
X79416Y165668D02*
X81415D01*
X82415Y164668D01*
Y161669D01*
X79416D01*
X78416Y162669D01*
X79416Y163669D01*
X82415D01*
X84414Y165668D02*
Y162669D01*
X85414Y161669D01*
X88413D01*
Y160670D01*
X87413Y159670D01*
X86414D01*
X88413Y161669D02*
Y165668D01*
X93411Y161669D02*
X91412D01*
X90412Y162669D01*
Y164668D01*
X91412Y165668D01*
X93411D01*
X94411Y164668D01*
Y163669D01*
X90412D01*
X96410Y165668D02*
Y161669D01*
Y163669D01*
X97410Y164668D01*
X98410Y165668D01*
X99409D01*
X32431Y179667D02*
Y173669D01*
X35430D01*
X36430Y174669D01*
Y178668D01*
X35430Y179667D01*
X32431D01*
X38429Y173669D02*
X40429D01*
X39429D01*
Y177668D01*
X38429D01*
X46426Y173669D02*
X44427D01*
X43428Y174669D01*
Y176668D01*
X44427Y177668D01*
X46426D01*
X47426Y176668D01*
Y175669D01*
X43428D01*
X49426Y173669D02*
X51425D01*
X50425D01*
Y179667D01*
X49426D01*
X57423Y173669D02*
X55424D01*
X54424Y174669D01*
Y176668D01*
X55424Y177668D01*
X57423D01*
X58423Y176668D01*
Y175669D01*
X54424D01*
X64421Y177668D02*
X61422D01*
X60422Y176668D01*
Y174669D01*
X61422Y173669D01*
X64421D01*
X67420Y178668D02*
Y177668D01*
X66420D01*
X68419D01*
X67420D01*
Y174669D01*
X68419Y173669D01*
X71418Y177668D02*
Y173669D01*
Y175669D01*
X72418Y176668D01*
X73418Y177668D01*
X74418D01*
X77416Y173669D02*
X79416D01*
X78416D01*
Y177668D01*
X77416D01*
X86414D02*
X83415D01*
X82415Y176668D01*
Y174669D01*
X83415Y173669D01*
X86414D01*
X94411D02*
X96410D01*
X95411D01*
Y179667D01*
X94411Y178668D01*
X32431Y191667D02*
X36430D01*
X34430D01*
Y185669D01*
X39429D02*
X41428D01*
X42428Y186669D01*
Y188668D01*
X41428Y189668D01*
X39429D01*
X38429Y188668D01*
Y186669D01*
X39429Y185669D01*
X44427Y183670D02*
Y189668D01*
X47426D01*
X48426Y188668D01*
Y186669D01*
X47426Y185669D01*
X44427D01*
X56423Y191667D02*
Y185669D01*
X60422D01*
X63421Y189668D02*
X65420D01*
X66420Y188668D01*
Y185669D01*
X63421D01*
X62421Y186669D01*
X63421Y187669D01*
X66420D01*
X68419Y189668D02*
Y186669D01*
X69419Y185669D01*
X72418D01*
Y184670D01*
X71418Y183670D01*
X70419D01*
X72418Y185669D02*
Y189668D01*
X77416Y185669D02*
X75417D01*
X74418Y186669D01*
Y188668D01*
X75417Y189668D01*
X77416D01*
X78416Y188668D01*
Y187669D01*
X74418D01*
X80415Y189668D02*
Y185669D01*
Y187669D01*
X81415Y188668D01*
X82415Y189668D01*
X83415D01*
X32431Y203667D02*
X36430D01*
X34430D01*
Y197669D01*
X39429D02*
X41428D01*
X42428Y198669D01*
Y200668D01*
X41428Y201668D01*
X39429D01*
X38429Y200668D01*
Y198669D01*
X39429Y197669D01*
X44427Y195670D02*
Y201668D01*
X47426D01*
X48426Y200668D01*
Y198669D01*
X47426Y197669D01*
X44427D01*
X60422Y202668D02*
X59422Y203667D01*
X57423D01*
X56423Y202668D01*
Y201668D01*
X57423Y200668D01*
X59422D01*
X60422Y199669D01*
Y198669D01*
X59422Y197669D01*
X57423D01*
X56423Y198669D01*
X63421Y197669D02*
X65420D01*
X66420Y198669D01*
Y200668D01*
X65420Y201668D01*
X63421D01*
X62421Y200668D01*
Y198669D01*
X63421Y197669D01*
X68419D02*
X70419D01*
X69419D01*
Y203667D01*
X68419D01*
X77416D02*
Y197669D01*
X74418D01*
X73418Y198669D01*
Y200668D01*
X74418Y201668D01*
X77416D01*
X82415Y197669D02*
X80415D01*
X79416Y198669D01*
Y200668D01*
X80415Y201668D01*
X82415D01*
X83415Y200668D01*
Y199669D01*
X79416D01*
X85414Y201668D02*
Y197669D01*
Y199669D01*
X86414Y200668D01*
X87413Y201668D01*
X88413D01*
X32431Y215667D02*
X36430D01*
X34430D01*
Y209669D01*
X39429D02*
X41428D01*
X42428Y210669D01*
Y212668D01*
X41428Y213668D01*
X39429D01*
X38429Y212668D01*
Y210669D01*
X39429Y209669D01*
X44427Y207670D02*
Y213668D01*
X47426D01*
X48426Y212668D01*
Y210669D01*
X47426Y209669D01*
X44427D01*
X59422Y215667D02*
X57423D01*
X56423Y214668D01*
Y210669D01*
X57423Y209669D01*
X59422D01*
X60422Y210669D01*
Y214668D01*
X59422Y215667D01*
X62421Y213668D02*
X64421Y209669D01*
X66420Y213668D01*
X71418Y209669D02*
X69419D01*
X68419Y210669D01*
Y212668D01*
X69419Y213668D01*
X71418D01*
X72418Y212668D01*
Y211669D01*
X68419D01*
X74418Y213668D02*
Y209669D01*
Y211669D01*
X75417Y212668D01*
X76417Y213668D01*
X77416D01*
X80415Y209669D02*
X82415D01*
X81415D01*
Y215667D01*
X80415D01*
X86414Y213668D02*
X88413D01*
X89413Y212668D01*
Y209669D01*
X86414D01*
X85414Y210669D01*
X86414Y211669D01*
X89413D01*
X91412Y213668D02*
Y210669D01*
X92412Y209669D01*
X95411D01*
Y208670D01*
X94411Y207670D01*
X93411D01*
X95411Y209669D02*
Y213668D01*
X125406Y221669D02*
Y227667D01*
X127405Y225668D01*
X129404Y227667D01*
Y221669D01*
X132403Y225668D02*
X134403D01*
X135402Y224668D01*
Y221669D01*
X132403D01*
X131404Y222669D01*
X132403Y223669D01*
X135402D01*
X138401Y226668D02*
Y225668D01*
X137402D01*
X139401D01*
X138401D01*
Y222669D01*
X139401Y221669D01*
X145399D02*
X143400D01*
X142400Y222669D01*
Y224668D01*
X143400Y225668D01*
X145399D01*
X146399Y224668D01*
Y223669D01*
X142400D01*
X148398Y225668D02*
Y221669D01*
Y223669D01*
X149398Y224668D01*
X150397Y225668D01*
X151397D01*
X154396Y221669D02*
X156395D01*
X155396D01*
Y225668D01*
X154396D01*
X160394D02*
X162393D01*
X163393Y224668D01*
Y221669D01*
X160394D01*
X159395Y222669D01*
X160394Y223669D01*
X163393D01*
X165393Y221669D02*
X167392D01*
X166392D01*
Y227667D01*
X165393D01*
X129404Y154668D02*
X128404Y155667D01*
X126405D01*
X125406Y154668D01*
Y153668D01*
X126405Y152668D01*
X128404D01*
X129404Y151669D01*
Y150669D01*
X128404Y149669D01*
X126405D01*
X125406Y150669D01*
X132403Y149669D02*
X134403D01*
X135402Y150669D01*
Y152668D01*
X134403Y153668D01*
X132403D01*
X131404Y152668D01*
Y150669D01*
X132403Y149669D01*
X137402D02*
X139401D01*
X138401D01*
Y155667D01*
X137402D01*
X146399D02*
Y149669D01*
X143400D01*
X142400Y150669D01*
Y152668D01*
X143400Y153668D01*
X146399D01*
X151397Y149669D02*
X149398D01*
X148398Y150669D01*
Y152668D01*
X149398Y153668D01*
X151397D01*
X152397Y152668D01*
Y151669D01*
X148398D01*
X154396Y153668D02*
Y149669D01*
Y151669D01*
X155396Y152668D01*
X156395Y153668D01*
X157395D01*
X166392Y149669D02*
Y155667D01*
X169391D01*
X170391Y154668D01*
Y152668D01*
X169391Y151669D01*
X166392D01*
X168392D02*
X170391Y149669D01*
X175389D02*
X173390D01*
X172390Y150669D01*
Y152668D01*
X173390Y153668D01*
X175389D01*
X176389Y152668D01*
Y151669D01*
X172390D01*
X178388Y149669D02*
X181387D01*
X182387Y150669D01*
X181387Y151669D01*
X179388D01*
X178388Y152668D01*
X179388Y153668D01*
X182387D01*
X184386Y149669D02*
X186386D01*
X185386D01*
Y153668D01*
X184386D01*
X189385Y149669D02*
X192384D01*
X193384Y150669D01*
X192384Y151669D01*
X190384D01*
X189385Y152668D01*
X190384Y153668D01*
X193384D01*
X196382Y154668D02*
Y153668D01*
X195383D01*
X197382D01*
X196382D01*
Y150669D01*
X197382Y149669D01*
X129404Y166668D02*
X128404Y167667D01*
X126405D01*
X125406Y166668D01*
Y162669D01*
X126405Y161669D01*
X128404D01*
X129404Y162669D01*
X132403Y161669D02*
X134403D01*
X135402Y162669D01*
Y164668D01*
X134403Y165668D01*
X132403D01*
X131404Y164668D01*
Y162669D01*
X132403Y161669D01*
X137402Y159670D02*
Y165668D01*
X140401D01*
X141400Y164668D01*
Y162669D01*
X140401Y161669D01*
X137402D01*
X143400Y159670D02*
Y165668D01*
X146399D01*
X147398Y164668D01*
Y162669D01*
X146399Y161669D01*
X143400D01*
X152397D02*
X150397D01*
X149398Y162669D01*
Y164668D01*
X150397Y165668D01*
X152397D01*
X153396Y164668D01*
Y163669D01*
X149398D01*
X155396Y165668D02*
Y161669D01*
Y163669D01*
X156395Y164668D01*
X157395Y165668D01*
X158395D01*
X129404Y179667D02*
X125406D01*
Y176668D01*
X127405D01*
X125406D01*
Y173669D01*
X131404D02*
Y179667D01*
X134403D01*
X135402Y178668D01*
Y176668D01*
X134403Y175669D01*
X131404D01*
X133403D02*
X135402Y173669D01*
X137402Y176668D02*
X141400D01*
X146399Y173669D02*
Y179667D01*
X143400Y176668D01*
X147398D01*
X129404Y190668D02*
X128404Y191667D01*
X126405D01*
X125406Y190668D01*
Y186669D01*
X126405Y185669D01*
X128404D01*
X129404Y186669D01*
X132403Y185669D02*
X134403D01*
X135402Y186669D01*
Y188668D01*
X134403Y189668D01*
X132403D01*
X131404Y188668D01*
Y186669D01*
X132403Y185669D01*
X137402Y183670D02*
Y189668D01*
X140401D01*
X141400Y188668D01*
Y186669D01*
X140401Y185669D01*
X137402D01*
X143400Y183670D02*
Y189668D01*
X146399D01*
X147398Y188668D01*
Y186669D01*
X146399Y185669D01*
X143400D01*
X152397D02*
X150397D01*
X149398Y186669D01*
Y188668D01*
X150397Y189668D01*
X152397D01*
X153396Y188668D01*
Y187669D01*
X149398D01*
X155396Y189668D02*
Y185669D01*
Y187669D01*
X156395Y188668D01*
X157395Y189668D01*
X158395D01*
X129404Y202668D02*
X128404Y203667D01*
X126405D01*
X125406Y202668D01*
Y201668D01*
X126405Y200668D01*
X128404D01*
X129404Y199669D01*
Y198669D01*
X128404Y197669D01*
X126405D01*
X125406Y198669D01*
X132403Y197669D02*
X134403D01*
X135402Y198669D01*
Y200668D01*
X134403Y201668D01*
X132403D01*
X131404Y200668D01*
Y198669D01*
X132403Y197669D01*
X137402D02*
X139401D01*
X138401D01*
Y203667D01*
X137402D01*
X146399D02*
Y197669D01*
X143400D01*
X142400Y198669D01*
Y200668D01*
X143400Y201668D01*
X146399D01*
X151397Y197669D02*
X149398D01*
X148398Y198669D01*
Y200668D01*
X149398Y201668D01*
X151397D01*
X152397Y200668D01*
Y199669D01*
X148398D01*
X154396Y201668D02*
Y197669D01*
Y199669D01*
X155396Y200668D01*
X156395Y201668D01*
X157395D01*
X166392Y197669D02*
Y203667D01*
X169391D01*
X170391Y202668D01*
Y200668D01*
X169391Y199669D01*
X166392D01*
X168392D02*
X170391Y197669D01*
X175389D02*
X173390D01*
X172390Y198669D01*
Y200668D01*
X173390Y201668D01*
X175389D01*
X176389Y200668D01*
Y199669D01*
X172390D01*
X178388Y197669D02*
X181387D01*
X182387Y198669D01*
X181387Y199669D01*
X179388D01*
X178388Y200668D01*
X179388Y201668D01*
X182387D01*
X184386Y197669D02*
X186386D01*
X185386D01*
Y201668D01*
X184386D01*
X189385Y197669D02*
X192384D01*
X193384Y198669D01*
X192384Y199669D01*
X190384D01*
X189385Y200668D01*
X190384Y201668D01*
X193384D01*
X196382Y202668D02*
Y201668D01*
X195383D01*
X197382D01*
X196382D01*
Y198669D01*
X197382Y197669D01*
X211382Y227667D02*
X215381D01*
X213382D01*
Y221669D01*
X217380Y227667D02*
Y221669D01*
Y224668D01*
X218380Y225668D01*
X220379D01*
X221379Y224668D01*
Y221669D01*
X223378D02*
X225378D01*
X224378D01*
Y225668D01*
X223378D01*
X232375D02*
X229376D01*
X228377Y224668D01*
Y222669D01*
X229376Y221669D01*
X232375D01*
X234375D02*
Y227667D01*
Y223669D02*
X237374Y225668D01*
X234375Y223669D02*
X237374Y221669D01*
X240373D02*
Y225668D01*
X243372D01*
X244372Y224668D01*
Y221669D01*
X249370D02*
X247371D01*
X246371Y222669D01*
Y224668D01*
X247371Y225668D01*
X249370D01*
X250370Y224668D01*
Y223669D01*
X246371D01*
X252369Y221669D02*
X255368D01*
X256368Y222669D01*
X255368Y223669D01*
X253369D01*
X252369Y224668D01*
X253369Y225668D01*
X256368D01*
X258367Y221669D02*
X261366D01*
X262366Y222669D01*
X261366Y223669D01*
X259367D01*
X258367Y224668D01*
X259367Y225668D01*
X262366D01*
X211382Y154668D02*
X212382Y155667D01*
X214381D01*
X215381Y154668D01*
Y150669D01*
X214381Y149669D01*
X212382D01*
X211382Y150669D01*
Y154668D01*
X217380Y149669D02*
Y150669D01*
X218380D01*
Y149669D01*
X217380D01*
X225378D02*
Y155667D01*
X222379Y152668D01*
X226377D01*
X228377Y154668D02*
X229376Y155667D01*
X231376D01*
X232375Y154668D01*
Y150669D01*
X231376Y149669D01*
X229376D01*
X228377Y150669D01*
Y154668D01*
X234375Y149669D02*
Y153668D01*
X235374D01*
X236374Y152668D01*
Y149669D01*
Y152668D01*
X237374Y153668D01*
X238373Y152668D01*
Y149669D01*
X240373D02*
X242372D01*
X241372D01*
Y153668D01*
X240373D01*
X245371Y149669D02*
X247371D01*
X246371D01*
Y155667D01*
X245371D01*
X211382Y161669D02*
X213382D01*
X212382D01*
Y167667D01*
X211382Y166668D01*
X216381Y161669D02*
Y162669D01*
X217380D01*
Y161669D01*
X216381D01*
X224378D02*
Y167667D01*
X221379Y164668D01*
X225378D01*
X227377Y166668D02*
X228377Y167667D01*
X230376D01*
X231376Y166668D01*
Y162669D01*
X230376Y161669D01*
X228377D01*
X227377Y162669D01*
Y166668D01*
X233375Y161669D02*
Y165668D01*
X234375D01*
X235374Y164668D01*
Y161669D01*
Y164668D01*
X236374Y165668D01*
X237374Y164668D01*
Y161669D01*
X239373D02*
X241372D01*
X240373D01*
Y165668D01*
X239373D01*
X244372Y161669D02*
X246371D01*
X245371D01*
Y167667D01*
X244372D01*
X215381Y179667D02*
X211382D01*
Y176668D01*
X213382Y177668D01*
X214381D01*
X215381Y176668D01*
Y174669D01*
X214381Y173669D01*
X212382D01*
X211382Y174669D01*
X217380D02*
X218380Y173669D01*
X220379D01*
X221379Y174669D01*
Y178668D01*
X220379Y179667D01*
X218380D01*
X217380Y178668D01*
Y177668D01*
X218380Y176668D01*
X221379D01*
X223378Y173669D02*
Y174669D01*
X224378D01*
Y173669D01*
X223378D01*
X228377Y178668D02*
X229376Y179667D01*
X231376D01*
X232375Y178668D01*
Y174669D01*
X231376Y173669D01*
X229376D01*
X228377Y174669D01*
Y178668D01*
X238373Y179667D02*
X236374Y178668D01*
X234375Y176668D01*
Y174669D01*
X235374Y173669D01*
X237374D01*
X238373Y174669D01*
Y175669D01*
X237374Y176668D01*
X234375D01*
X240373Y173669D02*
Y177668D01*
X241372D01*
X242372Y176668D01*
Y173669D01*
Y176668D01*
X243372Y177668D01*
X244372Y176668D01*
Y173669D01*
X246371D02*
X248370D01*
X247371D01*
Y177668D01*
X246371D01*
X251369Y173669D02*
X253369D01*
X252369D01*
Y179667D01*
X251369D01*
X211382Y185669D02*
X213382D01*
X212382D01*
Y191667D01*
X211382Y190668D01*
X216381Y185669D02*
Y186669D01*
X217380D01*
Y185669D01*
X216381D01*
X224378D02*
Y191667D01*
X221379Y188668D01*
X225378D01*
X227377Y190668D02*
X228377Y191667D01*
X230376D01*
X231376Y190668D01*
Y186669D01*
X230376Y185669D01*
X228377D01*
X227377Y186669D01*
Y190668D01*
X233375Y185669D02*
Y189668D01*
X234375D01*
X235374Y188668D01*
Y185669D01*
Y188668D01*
X236374Y189668D01*
X237374Y188668D01*
Y185669D01*
X239373D02*
X241372D01*
X240373D01*
Y189668D01*
X239373D01*
X244372Y185669D02*
X246371D01*
X245371D01*
Y191667D01*
X244372D01*
X211382Y202668D02*
X212382Y203667D01*
X214381D01*
X215381Y202668D01*
Y198669D01*
X214381Y197669D01*
X212382D01*
X211382Y198669D01*
Y202668D01*
X217380Y197669D02*
Y198669D01*
X218380D01*
Y197669D01*
X217380D01*
X225378D02*
Y203667D01*
X222379Y200668D01*
X226377D01*
X228377Y202668D02*
X229376Y203667D01*
X231376D01*
X232375Y202668D01*
Y198669D01*
X231376Y197669D01*
X229376D01*
X228377Y198669D01*
Y202668D01*
X234375Y197669D02*
Y201668D01*
X235374D01*
X236374Y200668D01*
Y197669D01*
Y200668D01*
X237374Y201668D01*
X238373Y200668D01*
Y197669D01*
X240373D02*
X242372D01*
X241372D01*
Y201668D01*
X240373D01*
X245371Y197669D02*
X247371D01*
X246371D01*
Y203667D01*
X245371D01*
X280364Y226668D02*
X279365Y227667D01*
X277365D01*
X276366Y226668D01*
Y222669D01*
X277365Y221669D01*
X279365D01*
X280364Y222669D01*
X283364Y221669D02*
X285363D01*
X286363Y222669D01*
Y224668D01*
X285363Y225668D01*
X283364D01*
X282364Y224668D01*
Y222669D01*
X283364Y221669D01*
X288362D02*
Y225668D01*
X291361D01*
X292361Y224668D01*
Y221669D01*
X294360D02*
X297359D01*
X298359Y222669D01*
X297359Y223669D01*
X295360D01*
X294360Y224668D01*
X295360Y225668D01*
X298359D01*
X301358Y226668D02*
Y225668D01*
X300358D01*
X302357D01*
X301358D01*
Y222669D01*
X302357Y221669D01*
X306356Y225668D02*
X308355D01*
X309355Y224668D01*
Y221669D01*
X306356D01*
X305356Y222669D01*
X306356Y223669D01*
X309355D01*
X311354Y221669D02*
Y225668D01*
X314353D01*
X315353Y224668D01*
Y221669D01*
X318352Y226668D02*
Y225668D01*
X317353D01*
X319352D01*
X318352D01*
Y222669D01*
X319352Y221669D01*
X276366Y154668D02*
X277365Y155667D01*
X279365D01*
X280364Y154668D01*
Y153668D01*
X279365Y152668D01*
X278365D01*
X279365D01*
X280364Y151669D01*
Y150669D01*
X279365Y149669D01*
X277365D01*
X276366Y150669D01*
X282364Y149669D02*
Y150669D01*
X283364D01*
Y149669D01*
X282364D01*
X287362Y154668D02*
X288362Y155667D01*
X290361D01*
X291361Y154668D01*
Y153668D01*
X290361Y152668D01*
X291361Y151669D01*
Y150669D01*
X290361Y149669D01*
X288362D01*
X287362Y150669D01*
Y151669D01*
X288362Y152668D01*
X287362Y153668D01*
Y154668D01*
X288362Y152668D02*
X290361D01*
X279365Y173669D02*
Y179667D01*
X276366Y176668D01*
X280364D01*
X282364Y173669D02*
Y174669D01*
X283364D01*
Y173669D01*
X282364D01*
X291361Y179667D02*
X287362D01*
Y176668D01*
X289362Y177668D01*
X290361D01*
X291361Y176668D01*
Y174669D01*
X290361Y173669D01*
X288362D01*
X287362Y174669D01*
X276366Y202668D02*
X277365Y203667D01*
X279365D01*
X280364Y202668D01*
Y201668D01*
X279365Y200668D01*
X278365D01*
X279365D01*
X280364Y199669D01*
Y198669D01*
X279365Y197669D01*
X277365D01*
X276366Y198669D01*
X282364Y197669D02*
Y198669D01*
X283364D01*
Y197669D01*
X282364D01*
X287362Y202668D02*
X288362Y203667D01*
X290361D01*
X291361Y202668D01*
Y201668D01*
X290361Y200668D01*
X291361Y199669D01*
Y198669D01*
X290361Y197669D01*
X288362D01*
X287362Y198669D01*
Y199669D01*
X288362Y200668D01*
X287362Y201668D01*
Y202668D01*
X288362Y200668D02*
X290361D01*
X333352Y227667D02*
Y221669D01*
X336351D01*
X337351Y222669D01*
Y223669D01*
X336351Y224668D01*
X333352D01*
X336351D01*
X337351Y225668D01*
Y226668D01*
X336351Y227667D01*
X333352D01*
X340350Y221669D02*
X342349D01*
X343349Y222669D01*
Y224668D01*
X342349Y225668D01*
X340350D01*
X339350Y224668D01*
Y222669D01*
X340350Y221669D01*
X346348Y225668D02*
X348347D01*
X349347Y224668D01*
Y221669D01*
X346348D01*
X345348Y222669D01*
X346348Y223669D01*
X349347D01*
X351346Y225668D02*
Y221669D01*
Y223669D01*
X352346Y224668D01*
X353345Y225668D01*
X354345D01*
X361343Y227667D02*
Y221669D01*
X358344D01*
X357344Y222669D01*
Y224668D01*
X358344Y225668D01*
X361343D01*
X369340Y227667D02*
Y221669D01*
X373339D01*
X376338Y225668D02*
X378337D01*
X379337Y224668D01*
Y221669D01*
X376338D01*
X375338Y222669D01*
X376338Y223669D01*
X379337D01*
X381336Y225668D02*
Y222669D01*
X382336Y221669D01*
X385335D01*
Y220670D01*
X384335Y219670D01*
X383336D01*
X385335Y221669D02*
Y225668D01*
X390333Y221669D02*
X388334D01*
X387334Y222669D01*
Y224668D01*
X388334Y225668D01*
X390333D01*
X391333Y224668D01*
Y223669D01*
X387334D01*
X393332Y225668D02*
Y221669D01*
Y223669D01*
X394332Y224668D01*
X395332Y225668D01*
X396331D01*
X409327Y226668D02*
X408328Y227667D01*
X406328D01*
X405329Y226668D01*
Y225668D01*
X406328Y224668D01*
X408328D01*
X409327Y223669D01*
Y222669D01*
X408328Y221669D01*
X406328D01*
X405329Y222669D01*
X412326Y226668D02*
Y225668D01*
X411327D01*
X413326D01*
X412326D01*
Y222669D01*
X413326Y221669D01*
X417325Y225668D02*
X419324D01*
X420324Y224668D01*
Y221669D01*
X417325D01*
X416325Y222669D01*
X417325Y223669D01*
X420324D01*
X426322Y225668D02*
X423323D01*
X422323Y224668D01*
Y222669D01*
X423323Y221669D01*
X426322D01*
X428321D02*
Y227667D01*
Y223669D02*
X431320Y225668D01*
X428321Y223669D02*
X431320Y221669D01*
D17*
X-15560Y218669D02*
X438320D01*
X-15560Y230669D02*
X438320D01*
X-15560Y134669D02*
Y230669D01*
Y134669D02*
X25431D01*
X-15560Y146669D02*
X25431D01*
X-15560Y158669D02*
X25431D01*
X-15560Y170669D02*
X25431D01*
X-15560Y182669D02*
X25431D01*
X-15560Y194669D02*
X25431D01*
X-15560Y206669D02*
X25431D01*
Y134669D02*
Y230669D01*
Y134669D02*
X118405D01*
X25431Y146669D02*
X118405D01*
X25431Y158669D02*
X118405D01*
X25431Y170669D02*
X118405D01*
X25431Y182669D02*
X118405D01*
X25431Y194669D02*
X118405D01*
X25431Y206669D02*
X118405D01*
Y134669D02*
Y230669D01*
Y134669D02*
X204382D01*
X118405Y146669D02*
X204382D01*
X118405Y158669D02*
X204382D01*
X118405Y170669D02*
X204382D01*
X118405Y182669D02*
X204382D01*
X118405Y194669D02*
X204382D01*
X118405Y206669D02*
X204382D01*
Y134669D02*
Y230669D01*
Y134669D02*
X269366D01*
X204382Y146669D02*
X269366D01*
X204382Y158669D02*
X269366D01*
X204382Y170669D02*
X269366D01*
X204382Y182669D02*
X269366D01*
X204382Y194669D02*
X269366D01*
X204382Y206669D02*
X269366D01*
Y134669D02*
Y230669D01*
Y134669D02*
X326352D01*
X269366Y146669D02*
X326352D01*
X269366Y158669D02*
X326352D01*
X269366Y170669D02*
X326352D01*
X269366Y182669D02*
X326352D01*
X269366Y194669D02*
X326352D01*
X269366Y206669D02*
X326352D01*
Y134669D02*
Y230669D01*
Y134669D02*
X438320D01*
X326352Y146669D02*
X438320D01*
X326352Y158669D02*
X438320D01*
X326352Y170669D02*
X438320D01*
X326352Y182669D02*
X438320D01*
X326352Y194669D02*
X438320D01*
X326352Y206669D02*
X438320D01*
Y134669D02*
Y230669D01*
D18*
X432320Y134669D02*
X438320Y140669D01*
X426320Y134669D02*
X438320Y146669D01*
X420320Y134669D02*
X432320Y146669D01*
X414320Y134669D02*
X426320Y146669D01*
X408320Y134669D02*
X420320Y146669D01*
X402320Y134669D02*
X414320Y146669D01*
X396320Y134669D02*
X408320Y146669D01*
X390320Y134669D02*
X402320Y146669D01*
X384320Y134669D02*
X396320Y146669D01*
X378320Y134669D02*
X390320Y146669D01*
X372320Y134669D02*
X384320Y146669D01*
X366320Y134669D02*
X378320Y146669D01*
X360320Y134669D02*
X372320Y146669D01*
X354320Y134669D02*
X366320Y146669D01*
X348320Y134669D02*
X360320Y146669D01*
X342320Y134669D02*
X354320Y146669D01*
X336320Y134669D02*
X348320Y146669D01*
X330320Y134669D02*
X342320Y146669D01*
X326352Y136701D02*
X336320Y146669D01*
X326352Y142701D02*
X330320Y146669D01*
X432320D02*
X438320Y152669D01*
X426320Y146669D02*
X438320Y158669D01*
X420320Y146669D02*
X432320Y158669D01*
X414320Y146669D02*
X426320Y158669D01*
X408320Y146669D02*
X420320Y158669D01*
X402320Y146669D02*
X414320Y158669D01*
X396320Y146669D02*
X408320Y158669D01*
X390320Y146669D02*
X402320Y158669D01*
X384320Y146669D02*
X396320Y158669D01*
X378320Y146669D02*
X390320Y158669D01*
X372320Y146669D02*
X384320Y158669D01*
X366320Y146669D02*
X378320Y158669D01*
X360320Y146669D02*
X372320Y158669D01*
X354320Y146669D02*
X366320Y158669D01*
X348320Y146669D02*
X360320Y158669D01*
X342320Y146669D02*
X354320Y158669D01*
X336320Y146669D02*
X348320Y158669D01*
X330320Y146669D02*
X342320Y158669D01*
X326352Y148701D02*
X336320Y158669D01*
X326352Y154701D02*
X330320Y158669D01*
X432320D02*
X438320Y164669D01*
X426320Y158669D02*
X438320Y170669D01*
X420320Y158669D02*
X432320Y170669D01*
X414320Y158669D02*
X426320Y170669D01*
X408320Y158669D02*
X420320Y170669D01*
X402320Y158669D02*
X414320Y170669D01*
X396320Y158669D02*
X408320Y170669D01*
X390320Y158669D02*
X402320Y170669D01*
X384320Y158669D02*
X396320Y170669D01*
X378320Y158669D02*
X390320Y170669D01*
X372320Y158669D02*
X384320Y170669D01*
X366320Y158669D02*
X378320Y170669D01*
X360320Y158669D02*
X372320Y170669D01*
X354320Y158669D02*
X366320Y170669D01*
X348320Y158669D02*
X360320Y170669D01*
X342320Y158669D02*
X354320Y170669D01*
X336320Y158669D02*
X348320Y170669D01*
X330320Y158669D02*
X342320Y170669D01*
X326352Y160701D02*
X336320Y170669D01*
X326352Y166701D02*
X330320Y170669D01*
X432320D02*
X438320Y176669D01*
X426320Y170669D02*
X438320Y182669D01*
X420320Y170669D02*
X432320Y182669D01*
X414320Y170669D02*
X426320Y182669D01*
X408320Y170669D02*
X420320Y182669D01*
X402320Y170669D02*
X414320Y182669D01*
X396320Y170669D02*
X408320Y182669D01*
X390320Y170669D02*
X402320Y182669D01*
X384320Y170669D02*
X396320Y182669D01*
X378320Y170669D02*
X390320Y182669D01*
X372320Y170669D02*
X384320Y182669D01*
X366320Y170669D02*
X378320Y182669D01*
X360320Y170669D02*
X372320Y182669D01*
X354320Y170669D02*
X366320Y182669D01*
X348320Y170669D02*
X360320Y182669D01*
X342320Y170669D02*
X354320Y182669D01*
X336320Y170669D02*
X348320Y182669D01*
X330320Y170669D02*
X342320Y182669D01*
X326352Y172701D02*
X336320Y182669D01*
X326352Y178701D02*
X330320Y182669D01*
X432320D02*
X438320Y188669D01*
X426320Y182669D02*
X438320Y194669D01*
X420320Y182669D02*
X432320Y194669D01*
X414320Y182669D02*
X426320Y194669D01*
X408320Y182669D02*
X420320Y194669D01*
X402320Y182669D02*
X414320Y194669D01*
X396320Y182669D02*
X408320Y194669D01*
X390320Y182669D02*
X402320Y194669D01*
X384320Y182669D02*
X396320Y194669D01*
X378320Y182669D02*
X390320Y194669D01*
X372320Y182669D02*
X384320Y194669D01*
X366320Y182669D02*
X378320Y194669D01*
X360320Y182669D02*
X372320Y194669D01*
X354320Y182669D02*
X366320Y194669D01*
X348320Y182669D02*
X360320Y194669D01*
X342320Y182669D02*
X354320Y194669D01*
X336320Y182669D02*
X348320Y194669D01*
X330320Y182669D02*
X342320Y194669D01*
X326352Y184701D02*
X336320Y194669D01*
X326352Y190701D02*
X330320Y194669D01*
X432320D02*
X438320Y200669D01*
X426320Y194669D02*
X438320Y206669D01*
X420320Y194669D02*
X432320Y206669D01*
X414320Y194669D02*
X426320Y206669D01*
X408320Y194669D02*
X420320Y206669D01*
X402320Y194669D02*
X414320Y206669D01*
X396320Y194669D02*
X408320Y206669D01*
X390320Y194669D02*
X402320Y206669D01*
X384320Y194669D02*
X396320Y206669D01*
X378320Y194669D02*
X390320Y206669D01*
X372320Y194669D02*
X384320Y206669D01*
X366320Y194669D02*
X378320Y206669D01*
X360320Y194669D02*
X372320Y206669D01*
X354320Y194669D02*
X366320Y206669D01*
X348320Y194669D02*
X360320Y206669D01*
X342320Y194669D02*
X354320Y206669D01*
X336320Y194669D02*
X348320Y206669D01*
X330320Y194669D02*
X342320Y206669D01*
X326352Y196701D02*
X336320Y206669D01*
X326352Y202701D02*
X330320Y206669D01*
X432320D02*
X438320Y212669D01*
X426320Y206669D02*
X438320Y218669D01*
X420320Y206669D02*
X432320Y218669D01*
X414320Y206669D02*
X426320Y218669D01*
X408320Y206669D02*
X420320Y218669D01*
X402320Y206669D02*
X414320Y218669D01*
X396320Y206669D02*
X408320Y218669D01*
X390320Y206669D02*
X402320Y218669D01*
X384320Y206669D02*
X396320Y218669D01*
X378320Y206669D02*
X390320Y218669D01*
X372320Y206669D02*
X384320Y218669D01*
X366320Y206669D02*
X378320Y218669D01*
X360320Y206669D02*
X372320Y218669D01*
X354320Y206669D02*
X366320Y218669D01*
X348320Y206669D02*
X360320Y218669D01*
X342320Y206669D02*
X354320Y218669D01*
X336320Y206669D02*
X348320Y218669D01*
X330320Y206669D02*
X342320Y218669D01*
X326352Y208701D02*
X336320Y218669D01*
X326352Y214701D02*
X330320Y218669D01*
D19*
X170283Y-68908D02*
Y-76468D01*
X175323D01*
X179104Y-71429D02*
X181624D01*
X182884Y-72689D01*
Y-76468D01*
X179104D01*
X177843Y-75208D01*
X179104Y-73949D01*
X182884D01*
X185404Y-71429D02*
Y-75208D01*
X186664Y-76468D01*
X190444D01*
Y-77728D01*
X189184Y-78988D01*
X187924D01*
X190444Y-76468D02*
Y-71429D01*
X196744Y-76468D02*
X194224D01*
X192964Y-75208D01*
Y-72689D01*
X194224Y-71429D01*
X196744D01*
X198004Y-72689D01*
Y-73949D01*
X192964D01*
X200524Y-71429D02*
Y-76468D01*
Y-73949D01*
X201784Y-72689D01*
X203044Y-71429D01*
X204304D01*
X208084Y-76468D02*
X211864D01*
X213124Y-75208D01*
X211864Y-73949D01*
X209344D01*
X208084Y-72689D01*
X209344Y-71429D01*
X213124D01*
X215644D02*
X216904D01*
Y-72689D01*
X215644D01*
Y-71429D01*
Y-75208D02*
X216904D01*
Y-76468D01*
X215644D01*
Y-75208D01*
X229504Y-70168D02*
X230764Y-68908D01*
X233284D01*
X234544Y-70168D01*
Y-75208D01*
X233284Y-76468D01*
X230764D01*
X229504Y-75208D01*
Y-70168D01*
X242104Y-76468D02*
X237064D01*
X242104Y-71429D01*
Y-70168D01*
X240844Y-68908D01*
X238324D01*
X237064Y-70168D01*
X8038Y-68853D02*
Y-76413D01*
X11818D01*
X13078Y-75153D01*
Y-73893D01*
X11818Y-72633D01*
X8038D01*
X11818D01*
X13078Y-71373D01*
Y-70113D01*
X11818Y-68853D01*
X8038D01*
X16858Y-76413D02*
X19378D01*
X20638Y-75153D01*
Y-72633D01*
X19378Y-71373D01*
X16858D01*
X15598Y-72633D01*
Y-75153D01*
X16858Y-76413D01*
X24418Y-71373D02*
X26938D01*
X28198Y-72633D01*
Y-76413D01*
X24418D01*
X23158Y-75153D01*
X24418Y-73893D01*
X28198D01*
X30718Y-71373D02*
Y-76413D01*
Y-73893D01*
X31978Y-72633D01*
X33238Y-71373D01*
X34498D01*
X43318Y-68853D02*
Y-76413D01*
X39538D01*
X38278Y-75153D01*
Y-72633D01*
X39538Y-71373D01*
X43318D01*
X53398Y-68853D02*
X58438D01*
X55918D01*
Y-76413D01*
X60958Y-68853D02*
Y-76413D01*
Y-72633D01*
X62218Y-71373D01*
X64739D01*
X65999Y-72633D01*
Y-76413D01*
X68519D02*
X71039D01*
X69779D01*
Y-71373D01*
X68519D01*
X79859D02*
X76079D01*
X74819Y-72633D01*
Y-75153D01*
X76079Y-76413D01*
X79859D01*
X82379D02*
Y-68853D01*
Y-73893D02*
X86159Y-71373D01*
X82379Y-73893D02*
X86159Y-76413D01*
X89939D02*
Y-71373D01*
X93719D01*
X94979Y-72633D01*
Y-76413D01*
X101279D02*
X98759D01*
X97499Y-75153D01*
Y-72633D01*
X98759Y-71373D01*
X101279D01*
X102539Y-72633D01*
Y-73893D01*
X97499D01*
X105059Y-76413D02*
X108839D01*
X110099Y-75153D01*
X108839Y-73893D01*
X106319D01*
X105059Y-72633D01*
X106319Y-71373D01*
X110099D01*
X112619Y-76413D02*
X116399D01*
X117659Y-75153D01*
X116399Y-73893D01*
X113879D01*
X112619Y-72633D01*
X113879Y-71373D01*
X117659D01*
X120179D02*
X121439D01*
Y-72633D01*
X120179D01*
Y-71373D01*
Y-75153D02*
X121439D01*
Y-76413D01*
X120179D01*
Y-75153D01*
X174536Y-50779D02*
X173276Y-49519D01*
X170756D01*
X169496Y-50779D01*
Y-52039D01*
X170756Y-53299D01*
X173276D01*
X174536Y-54559D01*
Y-55819D01*
X173276Y-57079D01*
X170756D01*
X169496Y-55819D01*
X177056Y-57079D02*
X179576D01*
X178316D01*
Y-52039D01*
X177056D01*
X183356Y-57079D02*
X185876D01*
X184616D01*
Y-49519D01*
X183356D01*
X189656Y-57079D02*
Y-49519D01*
Y-54559D02*
X193436Y-52039D01*
X189656Y-54559D02*
X193436Y-57079D01*
X197216D02*
X200996D01*
X202256Y-55819D01*
X200996Y-54559D01*
X198476D01*
X197216Y-53299D01*
X198476Y-52039D01*
X202256D01*
X209816D02*
X206036D01*
X204776Y-53299D01*
Y-55819D01*
X206036Y-57079D01*
X209816D01*
X212336Y-52039D02*
Y-57079D01*
Y-54559D01*
X213596Y-53299D01*
X214856Y-52039D01*
X216116D01*
X223676Y-57079D02*
X221157D01*
X219897Y-55819D01*
Y-53299D01*
X221157Y-52039D01*
X223676D01*
X224937Y-53299D01*
Y-54559D01*
X219897D01*
X231237Y-57079D02*
X228716D01*
X227456Y-55819D01*
Y-53299D01*
X228716Y-52039D01*
X231237D01*
X232497Y-53299D01*
Y-54559D01*
X227456D01*
X235017Y-57079D02*
Y-52039D01*
X238797D01*
X240057Y-53299D01*
Y-57079D01*
X255177Y-52039D02*
X251397D01*
X250137Y-53299D01*
Y-55819D01*
X251397Y-57079D01*
X255177D01*
X258957D02*
X261477D01*
X262737Y-55819D01*
Y-53299D01*
X261477Y-52039D01*
X258957D01*
X257697Y-53299D01*
Y-55819D01*
X258957Y-57079D01*
X265257D02*
X267777D01*
X266517D01*
Y-49519D01*
X265257D01*
X272817Y-57079D02*
X275337D01*
X276597Y-55819D01*
Y-53299D01*
X275337Y-52039D01*
X272817D01*
X271557Y-53299D01*
Y-55819D01*
X272817Y-57079D01*
X279117Y-52039D02*
Y-57079D01*
Y-54559D01*
X280377Y-53299D01*
X281637Y-52039D01*
X282897D01*
X286677D02*
X287937D01*
Y-53299D01*
X286677D01*
Y-52039D01*
Y-55819D02*
X287937D01*
Y-57079D01*
X286677D01*
Y-55819D01*
X300537Y-52039D02*
Y-55819D01*
X301797Y-57079D01*
X303057Y-55819D01*
X304317Y-57079D01*
X305577Y-55819D01*
Y-52039D01*
X308097Y-49519D02*
Y-57079D01*
Y-53299D01*
X309357Y-52039D01*
X311877D01*
X313137Y-53299D01*
Y-57079D01*
X315657D02*
X318177D01*
X316917D01*
Y-52039D01*
X315657D01*
X323217Y-50779D02*
Y-52039D01*
X321957D01*
X324477D01*
X323217D01*
Y-55819D01*
X324477Y-57079D01*
X332037D02*
X329517D01*
X328257Y-55819D01*
Y-53299D01*
X329517Y-52039D01*
X332037D01*
X333297Y-53299D01*
Y-54559D01*
X328257D01*
X171268Y-86723D02*
Y-94283D01*
X175048D01*
X176308Y-93024D01*
Y-87983D01*
X175048Y-86723D01*
X171268D01*
X178828Y-89243D02*
Y-94283D01*
Y-91763D01*
X180088Y-90503D01*
X181348Y-89243D01*
X182608D01*
X187648D02*
X190168D01*
X191428Y-90503D01*
Y-94283D01*
X187648D01*
X186388Y-93024D01*
X187648Y-91763D01*
X191428D01*
X193948Y-89243D02*
Y-93024D01*
X195208Y-94283D01*
X196468Y-93024D01*
X197728Y-94283D01*
X198988Y-93024D01*
Y-89243D01*
X201508Y-94283D02*
X204028D01*
X202768D01*
Y-89243D01*
X201508D01*
X207808Y-94283D02*
Y-89243D01*
X211588D01*
X212848Y-90503D01*
Y-94283D01*
X217888Y-96803D02*
X219148D01*
X220408Y-95543D01*
Y-89243D01*
X216628D01*
X215368Y-90503D01*
Y-93024D01*
X216628Y-94283D01*
X220408D01*
X222928Y-89243D02*
X224188D01*
Y-90503D01*
X222928D01*
Y-89243D01*
Y-93024D02*
X224188D01*
Y-94283D01*
X222928D01*
Y-93024D01*
X9318Y-57663D02*
Y-50103D01*
X11838Y-52623D01*
X14358Y-50103D01*
Y-57663D01*
X16878D02*
Y-52623D01*
X19398Y-50103D01*
X21918Y-52623D01*
Y-57663D01*
Y-53883D01*
X16878D01*
X24438Y-50103D02*
X29478D01*
X26958D01*
Y-57663D01*
X37038Y-50103D02*
X31998D01*
Y-57663D01*
X37038D01*
X31998Y-53883D02*
X34518D01*
X39558Y-57663D02*
Y-50103D01*
X43338D01*
X44598Y-51363D01*
Y-53883D01*
X43338Y-55143D01*
X39558D01*
X42078D02*
X44598Y-57663D01*
X47118Y-50103D02*
X49638D01*
X48378D01*
Y-57663D01*
X47118D01*
X49638D01*
X53418D02*
Y-52623D01*
X55938Y-50103D01*
X58458Y-52623D01*
Y-57663D01*
Y-53883D01*
X53418D01*
X60978Y-50103D02*
Y-57663D01*
X66018D01*
X68538Y-52623D02*
X69798D01*
Y-53883D01*
X68538D01*
Y-52623D01*
Y-56403D02*
X69798D01*
Y-57663D01*
X68538D01*
Y-56403D01*
X423335Y-28849D02*
Y-36409D01*
X427115D01*
X428375Y-35149D01*
Y-30109D01*
X427115Y-28849D01*
X423335D01*
X430895Y-36409D02*
Y-31369D01*
X433415Y-28849D01*
X435935Y-31369D01*
Y-36409D01*
Y-32629D01*
X430895D01*
X438455Y-28849D02*
X443495D01*
X440975D01*
Y-36409D01*
X451055Y-28849D02*
X446015D01*
Y-36409D01*
X451055D01*
X446015Y-32629D02*
X448535D01*
X453575Y-31369D02*
X454835D01*
Y-32629D01*
X453575D01*
Y-31369D01*
Y-35149D02*
X454835D01*
Y-36409D01*
X453575D01*
Y-35149D01*
X354535Y-37641D02*
Y-28144D01*
X359284D01*
X360867Y-29727D01*
Y-32893D01*
X359284Y-34476D01*
X354535D01*
X357701D02*
X360867Y-37641D01*
X370364Y-28144D02*
X364032D01*
Y-37641D01*
X370364D01*
X364032Y-32893D02*
X367198D01*
X373529Y-28144D02*
Y-34476D01*
X376695Y-37641D01*
X379861Y-34476D01*
Y-28144D01*
X383026Y-31310D02*
X384609D01*
Y-32893D01*
X383026D01*
Y-31310D01*
Y-36059D02*
X384609D01*
Y-37641D01*
X383026D01*
Y-36059D01*
X7291Y-95760D02*
Y-88200D01*
X11071D01*
X12331Y-89460D01*
Y-91980D01*
X11071Y-93240D01*
X7291D01*
X19891Y-89460D02*
X18631Y-88200D01*
X16111D01*
X14851Y-89460D01*
Y-94500D01*
X16111Y-95760D01*
X18631D01*
X19891Y-94500D01*
X22411Y-88200D02*
Y-95760D01*
X26191D01*
X27452Y-94500D01*
Y-93240D01*
X26191Y-91980D01*
X22411D01*
X26191D01*
X27452Y-90720D01*
Y-89460D01*
X26191Y-88200D01*
X22411D01*
X42572Y-89460D02*
X41312Y-88200D01*
X38792D01*
X37532Y-89460D01*
Y-90720D01*
X38792Y-91980D01*
X41312D01*
X42572Y-93240D01*
Y-94500D01*
X41312Y-95760D01*
X38792D01*
X37532Y-94500D01*
X45092Y-90720D02*
Y-94500D01*
X46352Y-95760D01*
X50132D01*
Y-90720D01*
X52652D02*
Y-95760D01*
Y-93240D01*
X53912Y-91980D01*
X55172Y-90720D01*
X56432D01*
X61472Y-95760D02*
Y-89460D01*
Y-91980D01*
X60212D01*
X62732D01*
X61472D01*
Y-89460D01*
X62732Y-88200D01*
X67772Y-90720D02*
X70292D01*
X71552Y-91980D01*
Y-95760D01*
X67772D01*
X66512Y-94500D01*
X67772Y-93240D01*
X71552D01*
X79112Y-90720D02*
X75332D01*
X74072Y-91980D01*
Y-94500D01*
X75332Y-95760D01*
X79112D01*
X85412D02*
X82892D01*
X81632Y-94500D01*
Y-91980D01*
X82892Y-90720D01*
X85412D01*
X86672Y-91980D01*
Y-93240D01*
X81632D01*
X89192Y-90720D02*
X90452D01*
Y-91980D01*
X89192D01*
Y-90720D01*
Y-94500D02*
X90452D01*
Y-95760D01*
X89192D01*
Y-94500D01*
X353650Y-57768D02*
Y-50208D01*
X357430D01*
X358690Y-51468D01*
Y-53988D01*
X357430Y-55248D01*
X353650D01*
X361210Y-52728D02*
Y-57768D01*
Y-55248D01*
X362470Y-53988D01*
X363730Y-52728D01*
X364990D01*
X370030Y-57768D02*
X372550D01*
X373810Y-56508D01*
Y-53988D01*
X372550Y-52728D01*
X370030D01*
X368770Y-53988D01*
Y-56508D01*
X370030Y-57768D01*
X376330Y-60288D02*
X377590D01*
X378850Y-59028D01*
Y-52728D01*
X387670Y-57768D02*
X385150D01*
X383890Y-56508D01*
Y-53988D01*
X385150Y-52728D01*
X387670D01*
X388930Y-53988D01*
Y-55248D01*
X383890D01*
X396490Y-52728D02*
X392710D01*
X391450Y-53988D01*
Y-56508D01*
X392710Y-57768D01*
X396490D01*
X400270Y-51468D02*
Y-52728D01*
X399010D01*
X401530D01*
X400270D01*
Y-56508D01*
X401530Y-57768D01*
X405310Y-52728D02*
X406570D01*
Y-53988D01*
X405310D01*
Y-52728D01*
Y-56508D02*
X406570D01*
Y-57768D01*
X405310D01*
Y-56508D01*
X419170Y-50208D02*
X421690D01*
X420430D01*
Y-57768D01*
X419170D01*
X421690D01*
X425470Y-50208D02*
X427990D01*
X426730D01*
Y-57768D01*
X425470D01*
X427990D01*
X431770D02*
Y-50208D01*
X435550D01*
X436810Y-51468D01*
Y-53988D01*
X435550Y-55248D01*
X431770D01*
D20*
X9949Y-28334D02*
X16613D01*
X13281D01*
Y-38330D01*
X19946Y-28334D02*
X23278D01*
X21612D01*
Y-38330D01*
X19946D01*
X23278D01*
X28276Y-28334D02*
X34941D01*
X31609D01*
Y-38330D01*
X38273Y-28334D02*
Y-38330D01*
X44938D01*
X54934Y-28334D02*
X48270D01*
Y-38330D01*
X54934D01*
X48270Y-33332D02*
X51602D01*
X58267Y-31666D02*
X59933D01*
Y-33332D01*
X58267D01*
Y-31666D01*
Y-36664D02*
X59933D01*
Y-38330D01*
X58267D01*
Y-36664D01*
X76594Y-28334D02*
X79926D01*
X78260D01*
Y-38330D01*
X76594D01*
X79926D01*
X84925Y-28334D02*
X88257D01*
X86591D01*
Y-38330D01*
X84925D01*
X88257D01*
X93255D02*
Y-28334D01*
X98254D01*
X99920Y-30000D01*
Y-33332D01*
X98254Y-34998D01*
X93255D01*
X113249Y-38330D02*
Y-28334D01*
X119913Y-38330D01*
Y-28334D01*
X123246Y-38330D02*
Y-36664D01*
X124912D01*
Y-38330D01*
X123246D01*
X131576Y-30000D02*
X133242Y-28334D01*
X136575D01*
X138241Y-30000D01*
Y-31666D01*
X136575Y-33332D01*
X134908D01*
X136575D01*
X138241Y-34998D01*
Y-36664D01*
X136575Y-38330D01*
X133242D01*
X131576Y-36664D01*
X151570Y-28334D02*
Y-38330D01*
X156568D01*
X158234Y-36664D01*
Y-34998D01*
X156568Y-33332D01*
X151570D01*
X156568D01*
X158234Y-31666D01*
Y-30000D01*
X156568Y-28334D01*
X151570D01*
X166565D02*
X163233D01*
X161566Y-30000D01*
Y-36664D01*
X163233Y-38330D01*
X166565D01*
X168231Y-36664D01*
Y-30000D01*
X166565Y-28334D01*
X171563Y-38330D02*
Y-31666D01*
X174896Y-28334D01*
X178228Y-31666D01*
Y-38330D01*
Y-33332D01*
X171563D01*
X181560Y-38330D02*
Y-28334D01*
X186558D01*
X188224Y-30000D01*
Y-33332D01*
X186558Y-34998D01*
X181560D01*
X184892D02*
X188224Y-38330D01*
X191557Y-28334D02*
Y-38330D01*
X196555D01*
X198221Y-36664D01*
Y-30000D01*
X196555Y-28334D01*
X191557D01*
X218215Y-36664D02*
Y-30000D01*
X216549Y-28334D01*
X213216D01*
X211550Y-30000D01*
Y-36664D01*
X213216Y-38330D01*
X216549D01*
X214883Y-34998D02*
X218215Y-38330D01*
X216549D02*
X218215Y-36664D01*
X221547Y-28334D02*
Y-36664D01*
X223213Y-38330D01*
X226546D01*
X228212Y-36664D01*
Y-28334D01*
X231544Y-38330D02*
Y-31666D01*
X234876Y-28334D01*
X238208Y-31666D01*
Y-38330D01*
Y-33332D01*
X231544D01*
X241541Y-28334D02*
Y-38330D01*
X246539D01*
X248205Y-36664D01*
Y-30000D01*
X246539Y-28334D01*
X241541D01*
X261534D02*
Y-36664D01*
X263200Y-38330D01*
X266533D01*
X268199Y-36664D01*
Y-28334D01*
X271531Y-38330D02*
Y-31666D01*
X274863Y-28334D01*
X278196Y-31666D01*
Y-38330D01*
Y-33332D01*
X271531D01*
X281528Y-38330D02*
Y-28334D01*
X286526D01*
X288192Y-30000D01*
Y-33332D01*
X286526Y-34998D01*
X281528D01*
X284860D02*
X288192Y-38330D01*
X291525Y-28334D02*
X298189D01*
X294857D01*
Y-38330D01*
D21*
X354567Y-89495D02*
X353649Y-88577D01*
X351812D01*
X350894Y-89495D01*
Y-90413D01*
X351812Y-91332D01*
X353649D01*
X354567Y-92250D01*
Y-93168D01*
X353649Y-94087D01*
X351812D01*
X350894Y-93168D01*
X356404Y-95923D02*
Y-90413D01*
X359159D01*
X360077Y-91332D01*
Y-93168D01*
X359159Y-94087D01*
X356404D01*
X362832Y-90413D02*
X364669D01*
X365587Y-91332D01*
Y-94087D01*
X362832D01*
X361914Y-93168D01*
X362832Y-92250D01*
X365587D01*
X371097Y-90413D02*
X368342D01*
X367424Y-91332D01*
Y-93168D01*
X368342Y-94087D01*
X371097D01*
X375689D02*
X373852D01*
X372934Y-93168D01*
Y-91332D01*
X373852Y-90413D01*
X375689D01*
X376607Y-91332D01*
Y-92250D01*
X372934D01*
X378444Y-88577D02*
Y-94087D01*
X382117D01*
X384872Y-90413D02*
X386709D01*
X387627Y-91332D01*
Y-94087D01*
X384872D01*
X383954Y-93168D01*
X384872Y-92250D01*
X387627D01*
X389464Y-88577D02*
Y-94087D01*
X392219D01*
X393137Y-93168D01*
Y-92250D01*
Y-91332D01*
X392219Y-90413D01*
X389464D01*
X400484Y-88577D02*
Y-93168D01*
X401402Y-94087D01*
X403239D01*
X404157Y-93168D01*
Y-88577D01*
X409667D02*
X405994D01*
Y-91332D01*
X407831D01*
X405994D01*
Y-94087D01*
X415177Y-89495D02*
X414259Y-88577D01*
X412422D01*
X411504Y-89495D01*
Y-90413D01*
X412422Y-91332D01*
X414259D01*
X415177Y-92250D01*
Y-93168D01*
X414259Y-94087D01*
X412422D01*
X411504Y-93168D01*
X420687Y-89495D02*
X419769Y-88577D01*
X417932D01*
X417014Y-89495D01*
Y-93168D01*
X417932Y-94087D01*
X419769D01*
X420687Y-93168D01*
D22*
X29528Y15748D02*
D03*
Y94488D02*
D03*
X295276D02*
D03*
D23*
X112205Y51401D02*
D03*
Y44401D02*
D03*
X112024Y58965D02*
D03*
Y65965D02*
D03*
D24*
X104626Y42401D02*
D03*
Y51401D02*
D03*
Y67979D02*
D03*
Y58979D02*
D03*
D25*
X90004Y51401D02*
D03*
X97004D02*
D03*
X90004Y58979D02*
D03*
X97004D02*
D03*
D26*
X179008Y75787D02*
D03*
X170008D02*
D03*
X179008Y67815D02*
D03*
X170008D02*
D03*
D37*
X112016Y58972D02*
X112024Y58965D01*
X117497Y59539D02*
X137485Y79528D01*
X158745D01*
X159040Y79232D01*
X137894Y68996D02*
X159941D01*
X117706Y49927D02*
X117717D01*
X116233Y51401D02*
X117706Y49927D01*
X117717D02*
X118803D01*
X118814Y49917D01*
X137894Y68996D01*
X112205Y51401D02*
X116233D01*
X104626D02*
X112205D01*
X97004D02*
X104626D01*
X112598Y59539D02*
X117497D01*
X112024Y58965D02*
X112598Y59539D01*
X104633Y58972D02*
X112016D01*
X104626Y58979D02*
X104633Y58972D01*
X97004Y58979D02*
X104626D01*
X162992Y43406D02*
X171752D01*
X156102Y50295D02*
X162992Y43406D01*
X194193Y9154D02*
Y23327D01*
X179008Y53909D02*
Y67815D01*
D38*
X190453Y57776D02*
D03*
X24606Y76279D02*
D03*
X159941Y68996D02*
D03*
X56102Y75985D02*
D03*
X159941Y79528D02*
D03*
X193209Y79921D02*
D03*
X24661Y34055D02*
D03*
X139075Y17028D02*
D03*
X24661Y55167D02*
D03*
X24606Y65723D02*
D03*
X133957Y91142D02*
D03*
X24606Y44611D02*
D03*
D39*
X145866Y53839D02*
D03*
X178937Y53839D02*
D03*
D40*
X162402Y50098D02*
D03*
X159252Y57579D02*
D03*
X165551D02*
D03*
X168701Y50098D02*
D03*
D41*
X156102D02*
D03*
D42*
X12402Y98425D02*
D03*
X312402D02*
D03*
X12402Y11811D02*
D03*
X312402D02*
D03*
D43*
X100681Y65430D02*
D03*
X105070Y79099D02*
D03*
X264650Y76598D02*
D03*
X216240Y92025D02*
D03*
X96161Y37393D02*
D03*
X269543Y76449D02*
D03*
X259756D02*
D03*
X206425Y86499D02*
D03*
X98332Y34352D02*
D03*
X122933Y47017D02*
D03*
X274425Y76449D02*
D03*
X119095Y29739D02*
D03*
X122835Y26885D02*
D03*
X59941Y48292D02*
D03*
X63878Y50310D02*
D03*
X221161Y94387D02*
D03*
X94784Y66649D02*
D03*
X117717Y55724D02*
D03*
X211319Y88547D02*
D03*
X72736Y65665D02*
D03*
D44*
X117717Y49927D02*
D03*
X194193Y9154D02*
D03*
Y23327D02*
D03*
X93209Y80035D02*
D03*
X171752Y43406D02*
D03*
X117717Y59759D02*
D03*
X92323Y21570D02*
D03*
X71653Y59070D02*
D03*
M02*
