G04*
G04 #@! TF.GenerationSoftware,Altium Limited,Altium Designer,20.2.6 (244)*
G04*
G04 Layer_Color=2752767*
%FSLAX25Y25*%
%MOIN*%
G70*
G04*
G04 #@! TF.SameCoordinates,3E3B523F-315C-4B3F-A4B6-921EA6806A06*
G04*
G04*
G04 #@! TF.FilePolarity,Positive*
G04*
G01*
G75*
%ADD10C,0.00787*%
%ADD11C,0.01000*%
%ADD14C,0.00100*%
%ADD15C,0.01299*%
%ADD16C,0.01378*%
%ADD17C,0.01575*%
%ADD38C,0.01181*%
%ADD41C,0.00200*%
%ADD42C,0.01260*%
D10*
X324803Y98418D02*
G03*
X312985Y110236I-11818J0D01*
G01*
X313050Y0D02*
G03*
X324803Y11754I0J11754D01*
G01*
X0Y11663D02*
G03*
X11663Y0I11663J0D01*
G01*
X11793Y110236D02*
G03*
X0Y98443I0J-11793D01*
G01*
X12696Y110236D02*
X312985D01*
X324803Y11754D02*
Y98418D01*
X11663Y0D02*
X313050D01*
X0Y11663D02*
Y25591D01*
Y92520D01*
X11793Y110236D02*
X12696D01*
X0Y92520D02*
Y98443D01*
X-5607Y198819D02*
X351780D01*
X-5607Y208268D02*
X351780D01*
X-5607Y132677D02*
Y208268D01*
Y132677D02*
X26670D01*
X-5607Y142126D02*
X26670D01*
X-5607Y151575D02*
X26670D01*
X-5607Y161024D02*
X26670D01*
X-5607Y170473D02*
X26670D01*
X-5607Y179921D02*
X26670D01*
X-5607Y189370D02*
X26670D01*
Y132677D02*
Y208268D01*
Y132677D02*
X99878D01*
X26670Y142126D02*
X99878D01*
X26670Y151575D02*
X99878D01*
X26670Y161024D02*
X99878D01*
X26670Y170473D02*
X99878D01*
X26670Y179921D02*
X99878D01*
X26670Y189370D02*
X99878D01*
Y132677D02*
Y208268D01*
Y132677D02*
X167577D01*
X99878Y142126D02*
X167577D01*
X99878Y151575D02*
X167577D01*
X99878Y161024D02*
X167577D01*
X99878Y170473D02*
X167577D01*
X99878Y179921D02*
X167577D01*
X99878Y189370D02*
X167577D01*
Y132677D02*
Y208268D01*
Y132677D02*
X218745D01*
X167577Y142126D02*
X218745D01*
X167577Y151575D02*
X218745D01*
X167577Y161024D02*
X218745D01*
X167577Y170473D02*
X218745D01*
X167577Y179921D02*
X218745D01*
X167577Y189370D02*
X218745D01*
Y132677D02*
Y208268D01*
Y132677D02*
X263615D01*
X218745Y142126D02*
X263615D01*
X218745Y151575D02*
X263615D01*
X218745Y161024D02*
X263615D01*
X218745Y170473D02*
X263615D01*
X218745Y179921D02*
X263615D01*
X218745Y189370D02*
X263615D01*
Y132677D02*
Y208268D01*
Y132677D02*
X351780D01*
X263615Y142126D02*
X351780D01*
X263615Y151575D02*
X351780D01*
X263615Y161024D02*
X351780D01*
X263615Y170473D02*
X351780D01*
X263615Y179921D02*
X351780D01*
X263615Y189370D02*
X351780D01*
Y132677D02*
Y208268D01*
X-95Y205904D02*
Y201181D01*
X3054D01*
X5415Y204330D02*
X6990D01*
X7777Y203542D01*
Y201181D01*
X5415D01*
X4628Y201968D01*
X5415Y202755D01*
X7777D01*
X9351Y204330D02*
Y201968D01*
X10138Y201181D01*
X12500D01*
Y200394D01*
X11712Y199607D01*
X10925D01*
X12500Y201181D02*
Y204330D01*
X16435Y201181D02*
X14861D01*
X14074Y201968D01*
Y203542D01*
X14861Y204330D01*
X16435D01*
X17222Y203542D01*
Y202755D01*
X14074D01*
X18797Y204330D02*
Y201181D01*
Y202755D01*
X19584Y203542D01*
X20371Y204330D01*
X21158D01*
X3054Y153937D02*
X-95D01*
X3054Y157086D01*
Y157873D01*
X2267Y158660D01*
X692D01*
X-95Y157873D01*
Y172835D02*
X1480D01*
X692D01*
Y177558D01*
X-95Y176770D01*
X32182Y201181D02*
Y205904D01*
X35331Y201181D01*
Y205904D01*
X37692Y204330D02*
X39266D01*
X40053Y203542D01*
Y201181D01*
X37692D01*
X36905Y201968D01*
X37692Y202755D01*
X40053D01*
X41628Y201181D02*
Y204330D01*
X42415D01*
X43202Y203542D01*
Y201181D01*
Y203542D01*
X43989Y204330D01*
X44776Y203542D01*
Y201181D01*
X48712D02*
X47138D01*
X46350Y201968D01*
Y203542D01*
X47138Y204330D01*
X48712D01*
X49499Y203542D01*
Y202755D01*
X46350D01*
X32182Y139762D02*
Y135039D01*
X34543D01*
X35331Y135827D01*
Y136614D01*
X34543Y137401D01*
X32182D01*
X34543D01*
X35331Y138188D01*
Y138975D01*
X34543Y139762D01*
X32182D01*
X37692Y135039D02*
X39266D01*
X40053Y135827D01*
Y137401D01*
X39266Y138188D01*
X37692D01*
X36905Y137401D01*
Y135827D01*
X37692Y135039D01*
X42415Y138975D02*
Y138188D01*
X41628D01*
X43202D01*
X42415D01*
Y135827D01*
X43202Y135039D01*
X46350Y138975D02*
Y138188D01*
X45563D01*
X47138D01*
X46350D01*
Y135827D01*
X47138Y135039D01*
X50286D02*
X51861D01*
X52648Y135827D01*
Y137401D01*
X51861Y138188D01*
X50286D01*
X49499Y137401D01*
Y135827D01*
X50286Y135039D01*
X54222D02*
Y138188D01*
X55009D01*
X55796Y137401D01*
Y135039D01*
Y137401D01*
X56583Y138188D01*
X57371Y137401D01*
Y135039D01*
X66029Y139762D02*
X64455D01*
X63668Y138975D01*
Y135827D01*
X64455Y135039D01*
X66029D01*
X66816Y135827D01*
Y138975D01*
X66029Y139762D01*
X68391Y138188D02*
X69965Y135039D01*
X71539Y138188D01*
X75475Y135039D02*
X73901D01*
X73114Y135827D01*
Y137401D01*
X73901Y138188D01*
X75475D01*
X76262Y137401D01*
Y136614D01*
X73114D01*
X77836Y138188D02*
Y135039D01*
Y136614D01*
X78623Y137401D01*
X79411Y138188D01*
X80198D01*
X82559Y135039D02*
X84134D01*
X83346D01*
Y139762D01*
X82559D01*
X87282Y138188D02*
X88856D01*
X89644Y137401D01*
Y135039D01*
X87282D01*
X86495Y135827D01*
X87282Y136614D01*
X89644D01*
X91218Y138188D02*
Y135827D01*
X92005Y135039D01*
X94367D01*
Y134252D01*
X93579Y133465D01*
X92792D01*
X94367Y135039D02*
Y138188D01*
X32182Y149211D02*
Y144488D01*
X34543D01*
X35331Y145275D01*
Y146063D01*
X34543Y146850D01*
X32182D01*
X34543D01*
X35331Y147637D01*
Y148424D01*
X34543Y149211D01*
X32182D01*
X37692Y144488D02*
X39266D01*
X40053Y145275D01*
Y146850D01*
X39266Y147637D01*
X37692D01*
X36905Y146850D01*
Y145275D01*
X37692Y144488D01*
X42415Y148424D02*
Y147637D01*
X41628D01*
X43202D01*
X42415D01*
Y145275D01*
X43202Y144488D01*
X46350Y148424D02*
Y147637D01*
X45563D01*
X47138D01*
X46350D01*
Y145275D01*
X47138Y144488D01*
X50286D02*
X51861D01*
X52648Y145275D01*
Y146850D01*
X51861Y147637D01*
X50286D01*
X49499Y146850D01*
Y145275D01*
X50286Y144488D01*
X54222D02*
Y147637D01*
X55009D01*
X55796Y146850D01*
Y144488D01*
Y146850D01*
X56583Y147637D01*
X57371Y146850D01*
Y144488D01*
X66816Y148424D02*
X66029Y149211D01*
X64455D01*
X63668Y148424D01*
Y147637D01*
X64455Y146850D01*
X66029D01*
X66816Y146063D01*
Y145275D01*
X66029Y144488D01*
X64455D01*
X63668Y145275D01*
X69178Y144488D02*
X70752D01*
X71539Y145275D01*
Y146850D01*
X70752Y147637D01*
X69178D01*
X68391Y146850D01*
Y145275D01*
X69178Y144488D01*
X73114D02*
X74688D01*
X73901D01*
Y149211D01*
X73114D01*
X80198D02*
Y144488D01*
X77836D01*
X77049Y145275D01*
Y146850D01*
X77836Y147637D01*
X80198D01*
X84134Y144488D02*
X82559D01*
X81772Y145275D01*
Y146850D01*
X82559Y147637D01*
X84134D01*
X84921Y146850D01*
Y146063D01*
X81772D01*
X86495Y147637D02*
Y144488D01*
Y146063D01*
X87282Y146850D01*
X88069Y147637D01*
X88856D01*
X32182Y158660D02*
Y153937D01*
X34543D01*
X35331Y154724D01*
Y155511D01*
X34543Y156298D01*
X32182D01*
X34543D01*
X35331Y157086D01*
Y157873D01*
X34543Y158660D01*
X32182D01*
X37692Y153937D02*
X39266D01*
X40053Y154724D01*
Y156298D01*
X39266Y157086D01*
X37692D01*
X36905Y156298D01*
Y154724D01*
X37692Y153937D01*
X42415Y157873D02*
Y157086D01*
X41628D01*
X43202D01*
X42415D01*
Y154724D01*
X43202Y153937D01*
X46350Y157873D02*
Y157086D01*
X45563D01*
X47138D01*
X46350D01*
Y154724D01*
X47138Y153937D01*
X50286D02*
X51861D01*
X52648Y154724D01*
Y156298D01*
X51861Y157086D01*
X50286D01*
X49499Y156298D01*
Y154724D01*
X50286Y153937D01*
X54222D02*
Y157086D01*
X55009D01*
X55796Y156298D01*
Y153937D01*
Y156298D01*
X56583Y157086D01*
X57371Y156298D01*
Y153937D01*
X63668Y158660D02*
Y153937D01*
X66816D01*
X69178Y157086D02*
X70752D01*
X71539Y156298D01*
Y153937D01*
X69178D01*
X68391Y154724D01*
X69178Y155511D01*
X71539D01*
X73114Y157086D02*
Y154724D01*
X73901Y153937D01*
X76262D01*
Y153150D01*
X75475Y152363D01*
X74688D01*
X76262Y153937D02*
Y157086D01*
X80198Y153937D02*
X78623D01*
X77836Y154724D01*
Y156298D01*
X78623Y157086D01*
X80198D01*
X80985Y156298D01*
Y155511D01*
X77836D01*
X82559Y157086D02*
Y153937D01*
Y155511D01*
X83346Y156298D01*
X84134Y157086D01*
X84921D01*
X32182Y168109D02*
Y163386D01*
X34543D01*
X35331Y164173D01*
Y167322D01*
X34543Y168109D01*
X32182D01*
X36905Y163386D02*
X38479D01*
X37692D01*
Y166534D01*
X36905D01*
X43202Y163386D02*
X41628D01*
X40841Y164173D01*
Y165747D01*
X41628Y166534D01*
X43202D01*
X43989Y165747D01*
Y164960D01*
X40841D01*
X45563Y163386D02*
X47138D01*
X46350D01*
Y168109D01*
X45563D01*
X51861Y163386D02*
X50286D01*
X49499Y164173D01*
Y165747D01*
X50286Y166534D01*
X51861D01*
X52648Y165747D01*
Y164960D01*
X49499D01*
X57371Y166534D02*
X55009D01*
X54222Y165747D01*
Y164173D01*
X55009Y163386D01*
X57371D01*
X59732Y167322D02*
Y166534D01*
X58945D01*
X60519D01*
X59732D01*
Y164173D01*
X60519Y163386D01*
X62881Y166534D02*
Y163386D01*
Y164960D01*
X63668Y165747D01*
X64455Y166534D01*
X65242D01*
X67603Y163386D02*
X69178D01*
X68391D01*
Y166534D01*
X67603D01*
X74688D02*
X72326D01*
X71539Y165747D01*
Y164173D01*
X72326Y163386D01*
X74688D01*
X80985D02*
X82559D01*
X81772D01*
Y168109D01*
X80985Y167322D01*
X32182Y177558D02*
X35331D01*
X33756D01*
Y172835D01*
X37692D02*
X39266D01*
X40053Y173622D01*
Y175196D01*
X39266Y175983D01*
X37692D01*
X36905Y175196D01*
Y173622D01*
X37692Y172835D01*
X41628Y171260D02*
Y175983D01*
X43989D01*
X44776Y175196D01*
Y173622D01*
X43989Y172835D01*
X41628D01*
X51073Y177558D02*
Y172835D01*
X54222D01*
X56583Y175983D02*
X58158D01*
X58945Y175196D01*
Y172835D01*
X56583D01*
X55796Y173622D01*
X56583Y174409D01*
X58945D01*
X60519Y175983D02*
Y173622D01*
X61306Y172835D01*
X63668D01*
Y172047D01*
X62881Y171260D01*
X62093D01*
X63668Y172835D02*
Y175983D01*
X67603Y172835D02*
X66029D01*
X65242Y173622D01*
Y175196D01*
X66029Y175983D01*
X67603D01*
X68391Y175196D01*
Y174409D01*
X65242D01*
X69965Y175983D02*
Y172835D01*
Y174409D01*
X70752Y175196D01*
X71539Y175983D01*
X72326D01*
X32182Y187006D02*
X35331D01*
X33756D01*
Y182283D01*
X37692D02*
X39266D01*
X40053Y183071D01*
Y184645D01*
X39266Y185432D01*
X37692D01*
X36905Y184645D01*
Y183071D01*
X37692Y182283D01*
X41628Y180709D02*
Y185432D01*
X43989D01*
X44776Y184645D01*
Y183071D01*
X43989Y182283D01*
X41628D01*
X54222Y186219D02*
X53435Y187006D01*
X51860D01*
X51073Y186219D01*
Y185432D01*
X51860Y184645D01*
X53435D01*
X54222Y183858D01*
Y183071D01*
X53435Y182283D01*
X51860D01*
X51073Y183071D01*
X56583Y182283D02*
X58158D01*
X58945Y183071D01*
Y184645D01*
X58158Y185432D01*
X56583D01*
X55796Y184645D01*
Y183071D01*
X56583Y182283D01*
X60519D02*
X62093D01*
X61306D01*
Y187006D01*
X60519D01*
X67603D02*
Y182283D01*
X65242D01*
X64455Y183071D01*
Y184645D01*
X65242Y185432D01*
X67603D01*
X71539Y182283D02*
X69965D01*
X69178Y183071D01*
Y184645D01*
X69965Y185432D01*
X71539D01*
X72326Y184645D01*
Y183858D01*
X69178D01*
X73901Y185432D02*
Y182283D01*
Y183858D01*
X74688Y184645D01*
X75475Y185432D01*
X76262D01*
X32182Y196455D02*
X35331D01*
X33756D01*
Y191732D01*
X37692D02*
X39266D01*
X40053Y192519D01*
Y194094D01*
X39266Y194881D01*
X37692D01*
X36905Y194094D01*
Y192519D01*
X37692Y191732D01*
X41628Y190158D02*
Y194881D01*
X43989D01*
X44776Y194094D01*
Y192519D01*
X43989Y191732D01*
X41628D01*
X53435Y196455D02*
X51860D01*
X51073Y195668D01*
Y192519D01*
X51860Y191732D01*
X53435D01*
X54222Y192519D01*
Y195668D01*
X53435Y196455D01*
X55796Y194881D02*
X57371Y191732D01*
X58945Y194881D01*
X62881Y191732D02*
X61306D01*
X60519Y192519D01*
Y194094D01*
X61306Y194881D01*
X62881D01*
X63668Y194094D01*
Y193307D01*
X60519D01*
X65242Y194881D02*
Y191732D01*
Y193307D01*
X66029Y194094D01*
X66816Y194881D01*
X67603D01*
X69965Y191732D02*
X71539D01*
X70752D01*
Y196455D01*
X69965D01*
X74688Y194881D02*
X76262D01*
X77049Y194094D01*
Y191732D01*
X74688D01*
X73901Y192519D01*
X74688Y193307D01*
X77049D01*
X78623Y194881D02*
Y192519D01*
X79411Y191732D01*
X81772D01*
Y190945D01*
X80985Y190158D01*
X80198D01*
X81772Y191732D02*
Y194881D01*
X105390Y201181D02*
Y205904D01*
X106964Y204330D01*
X108539Y205904D01*
Y201181D01*
X110900Y204330D02*
X112474D01*
X113262Y203542D01*
Y201181D01*
X110900D01*
X110113Y201968D01*
X110900Y202755D01*
X113262D01*
X115623Y205117D02*
Y204330D01*
X114836D01*
X116410D01*
X115623D01*
Y201968D01*
X116410Y201181D01*
X121133D02*
X119559D01*
X118772Y201968D01*
Y203542D01*
X119559Y204330D01*
X121133D01*
X121920Y203542D01*
Y202755D01*
X118772D01*
X123495Y204330D02*
Y201181D01*
Y202755D01*
X124282Y203542D01*
X125069Y204330D01*
X125856D01*
X128217Y201181D02*
X129792D01*
X129005D01*
Y204330D01*
X128217D01*
X132940D02*
X134514D01*
X135302Y203542D01*
Y201181D01*
X132940D01*
X132153Y201968D01*
X132940Y202755D01*
X135302D01*
X136876Y201181D02*
X138450D01*
X137663D01*
Y205904D01*
X136876D01*
X108539Y148424D02*
X107752Y149211D01*
X106177D01*
X105390Y148424D01*
Y147637D01*
X106177Y146850D01*
X107752D01*
X108539Y146063D01*
Y145275D01*
X107752Y144488D01*
X106177D01*
X105390Y145275D01*
X110900Y144488D02*
X112474D01*
X113262Y145275D01*
Y146850D01*
X112474Y147637D01*
X110900D01*
X110113Y146850D01*
Y145275D01*
X110900Y144488D01*
X114836D02*
X116410D01*
X115623D01*
Y149211D01*
X114836D01*
X121920D02*
Y144488D01*
X119559D01*
X118772Y145275D01*
Y146850D01*
X119559Y147637D01*
X121920D01*
X125856Y144488D02*
X124282D01*
X123495Y145275D01*
Y146850D01*
X124282Y147637D01*
X125856D01*
X126643Y146850D01*
Y146063D01*
X123495D01*
X128217Y147637D02*
Y144488D01*
Y146063D01*
X129005Y146850D01*
X129792Y147637D01*
X130579D01*
X137663Y144488D02*
Y149211D01*
X140025D01*
X140812Y148424D01*
Y146850D01*
X140025Y146063D01*
X137663D01*
X139237D02*
X140812Y144488D01*
X144747D02*
X143173D01*
X142386Y145275D01*
Y146850D01*
X143173Y147637D01*
X144747D01*
X145535Y146850D01*
Y146063D01*
X142386D01*
X147109Y144488D02*
X149470D01*
X150258Y145275D01*
X149470Y146063D01*
X147896D01*
X147109Y146850D01*
X147896Y147637D01*
X150258D01*
X151832Y144488D02*
X153406D01*
X152619D01*
Y147637D01*
X151832D01*
X155768Y144488D02*
X158129D01*
X158916Y145275D01*
X158129Y146063D01*
X156555D01*
X155768Y146850D01*
X156555Y147637D01*
X158916D01*
X161277Y148424D02*
Y147637D01*
X160490D01*
X162065D01*
X161277D01*
Y145275D01*
X162065Y144488D01*
X108539Y157873D02*
X107752Y158660D01*
X106177D01*
X105390Y157873D01*
Y154724D01*
X106177Y153937D01*
X107752D01*
X108539Y154724D01*
X110900Y153937D02*
X112474D01*
X113262Y154724D01*
Y156298D01*
X112474Y157086D01*
X110900D01*
X110113Y156298D01*
Y154724D01*
X110900Y153937D01*
X114836Y152363D02*
Y157086D01*
X117197D01*
X117984Y156298D01*
Y154724D01*
X117197Y153937D01*
X114836D01*
X119559Y152363D02*
Y157086D01*
X121920D01*
X122707Y156298D01*
Y154724D01*
X121920Y153937D01*
X119559D01*
X126643D02*
X125069D01*
X124282Y154724D01*
Y156298D01*
X125069Y157086D01*
X126643D01*
X127430Y156298D01*
Y155511D01*
X124282D01*
X129005Y157086D02*
Y153937D01*
Y155511D01*
X129792Y156298D01*
X130579Y157086D01*
X131366D01*
X108539Y168109D02*
X105390D01*
Y165747D01*
X106964D01*
X105390D01*
Y163386D01*
X110113D02*
Y168109D01*
X112474D01*
X113262Y167322D01*
Y165747D01*
X112474Y164960D01*
X110113D01*
X111687D02*
X113262Y163386D01*
X114836Y165747D02*
X117984D01*
X121920Y163386D02*
Y168109D01*
X119559Y165747D01*
X122707D01*
X108539Y176770D02*
X107752Y177558D01*
X106177D01*
X105390Y176770D01*
Y173622D01*
X106177Y172835D01*
X107752D01*
X108539Y173622D01*
X110900Y172835D02*
X112474D01*
X113262Y173622D01*
Y175196D01*
X112474Y175983D01*
X110900D01*
X110113Y175196D01*
Y173622D01*
X110900Y172835D01*
X114836Y171260D02*
Y175983D01*
X117197D01*
X117984Y175196D01*
Y173622D01*
X117197Y172835D01*
X114836D01*
X119559Y171260D02*
Y175983D01*
X121920D01*
X122707Y175196D01*
Y173622D01*
X121920Y172835D01*
X119559D01*
X126643D02*
X125069D01*
X124282Y173622D01*
Y175196D01*
X125069Y175983D01*
X126643D01*
X127430Y175196D01*
Y174409D01*
X124282D01*
X129005Y175983D02*
Y172835D01*
Y174409D01*
X129792Y175196D01*
X130579Y175983D01*
X131366D01*
X108539Y186219D02*
X107752Y187006D01*
X106177D01*
X105390Y186219D01*
Y185432D01*
X106177Y184645D01*
X107752D01*
X108539Y183858D01*
Y183071D01*
X107752Y182283D01*
X106177D01*
X105390Y183071D01*
X110900Y182283D02*
X112474D01*
X113262Y183071D01*
Y184645D01*
X112474Y185432D01*
X110900D01*
X110113Y184645D01*
Y183071D01*
X110900Y182283D01*
X114836D02*
X116410D01*
X115623D01*
Y187006D01*
X114836D01*
X121920D02*
Y182283D01*
X119559D01*
X118772Y183071D01*
Y184645D01*
X119559Y185432D01*
X121920D01*
X125856Y182283D02*
X124282D01*
X123495Y183071D01*
Y184645D01*
X124282Y185432D01*
X125856D01*
X126643Y184645D01*
Y183858D01*
X123495D01*
X128217Y185432D02*
Y182283D01*
Y183858D01*
X129005Y184645D01*
X129792Y185432D01*
X130579D01*
X137663Y182283D02*
Y187006D01*
X140025D01*
X140812Y186219D01*
Y184645D01*
X140025Y183858D01*
X137663D01*
X139237D02*
X140812Y182283D01*
X144747D02*
X143173D01*
X142386Y183071D01*
Y184645D01*
X143173Y185432D01*
X144747D01*
X145535Y184645D01*
Y183858D01*
X142386D01*
X147109Y182283D02*
X149470D01*
X150258Y183071D01*
X149470Y183858D01*
X147896D01*
X147109Y184645D01*
X147896Y185432D01*
X150258D01*
X151832Y182283D02*
X153406D01*
X152619D01*
Y185432D01*
X151832D01*
X155768Y182283D02*
X158129D01*
X158916Y183071D01*
X158129Y183858D01*
X156555D01*
X155768Y184645D01*
X156555Y185432D01*
X158916D01*
X161277Y186219D02*
Y185432D01*
X160490D01*
X162065D01*
X161277D01*
Y183071D01*
X162065Y182283D01*
X173088Y205904D02*
X176237D01*
X174663D01*
Y201181D01*
X177811Y205904D02*
Y201181D01*
Y203542D01*
X178598Y204330D01*
X180173D01*
X180960Y203542D01*
Y201181D01*
X182534D02*
X184108D01*
X183321D01*
Y204330D01*
X182534D01*
X189618D02*
X187257D01*
X186470Y203542D01*
Y201968D01*
X187257Y201181D01*
X189618D01*
X191193D02*
Y205904D01*
Y202755D02*
X193554Y204330D01*
X191193Y202755D02*
X193554Y201181D01*
X195916D02*
Y204330D01*
X198277D01*
X199064Y203542D01*
Y201181D01*
X203000D02*
X201426D01*
X200638Y201968D01*
Y203542D01*
X201426Y204330D01*
X203000D01*
X203787Y203542D01*
Y202755D01*
X200638D01*
X205361Y201181D02*
X207723D01*
X208510Y201968D01*
X207723Y202755D01*
X206149D01*
X205361Y203542D01*
X206149Y204330D01*
X208510D01*
X210084Y201181D02*
X212446D01*
X213233Y201968D01*
X212446Y202755D01*
X210871D01*
X210084Y203542D01*
X210871Y204330D01*
X213233D01*
X173088Y148424D02*
X173875Y149211D01*
X175450D01*
X176237Y148424D01*
Y145275D01*
X175450Y144488D01*
X173875D01*
X173088Y145275D01*
Y148424D01*
X177811Y144488D02*
Y145275D01*
X178598D01*
Y144488D01*
X177811D01*
X181747Y148424D02*
X182534Y149211D01*
X184108D01*
X184896Y148424D01*
Y145275D01*
X184108Y144488D01*
X182534D01*
X181747Y145275D01*
Y148424D01*
X186470Y144488D02*
X188044D01*
X187257D01*
Y149211D01*
X186470Y148424D01*
X190405D02*
X191193Y149211D01*
X192767D01*
X193554Y148424D01*
Y145275D01*
X192767Y144488D01*
X191193D01*
X190405Y145275D01*
Y148424D01*
X195128Y144488D02*
Y147637D01*
X195916D01*
X196703Y146850D01*
Y144488D01*
Y146850D01*
X197490Y147637D01*
X198277Y146850D01*
Y144488D01*
X199851D02*
Y147637D01*
X200638D01*
X201426Y146850D01*
Y144488D01*
Y146850D01*
X202213Y147637D01*
X203000Y146850D01*
Y144488D01*
X173088Y157873D02*
X173875Y158660D01*
X175450D01*
X176237Y157873D01*
Y154724D01*
X175450Y153937D01*
X173875D01*
X173088Y154724D01*
Y157873D01*
X177811Y153937D02*
Y154724D01*
X178598D01*
Y153937D01*
X177811D01*
X181747Y157873D02*
X182534Y158660D01*
X184108D01*
X184896Y157873D01*
Y154724D01*
X184108Y153937D01*
X182534D01*
X181747Y154724D01*
Y157873D01*
X186470D02*
X187257Y158660D01*
X188831D01*
X189618Y157873D01*
Y157086D01*
X188831Y156298D01*
X188044D01*
X188831D01*
X189618Y155511D01*
Y154724D01*
X188831Y153937D01*
X187257D01*
X186470Y154724D01*
X194341Y158660D02*
X191193D01*
Y156298D01*
X192767Y157086D01*
X193554D01*
X194341Y156298D01*
Y154724D01*
X193554Y153937D01*
X191980D01*
X191193Y154724D01*
X195916Y153937D02*
Y157086D01*
X196703D01*
X197490Y156298D01*
Y153937D01*
Y156298D01*
X198277Y157086D01*
X199064Y156298D01*
Y153937D01*
X200638D02*
Y157086D01*
X201426D01*
X202213Y156298D01*
Y153937D01*
Y156298D01*
X203000Y157086D01*
X203787Y156298D01*
Y153937D01*
X173088Y163386D02*
X174663D01*
X173875D01*
Y168109D01*
X173088Y167322D01*
X177024Y163386D02*
Y164173D01*
X177811D01*
Y163386D01*
X177024D01*
X184108Y168109D02*
X180960D01*
Y165747D01*
X182534Y166534D01*
X183321D01*
X184108Y165747D01*
Y164173D01*
X183321Y163386D01*
X181747D01*
X180960Y164173D01*
X185683Y167322D02*
X186470Y168109D01*
X188044D01*
X188831Y167322D01*
Y164173D01*
X188044Y163386D01*
X186470D01*
X185683Y164173D01*
Y167322D01*
X190405D02*
X191193Y168109D01*
X192767D01*
X193554Y167322D01*
Y164173D01*
X192767Y163386D01*
X191193D01*
X190405Y164173D01*
Y167322D01*
X195128Y163386D02*
Y166534D01*
X195916D01*
X196703Y165747D01*
Y163386D01*
Y165747D01*
X197490Y166534D01*
X198277Y165747D01*
Y163386D01*
X199851D02*
Y166534D01*
X200638D01*
X201426Y165747D01*
Y163386D01*
Y165747D01*
X202213Y166534D01*
X203000Y165747D01*
Y163386D01*
X173088Y176770D02*
X173875Y177558D01*
X175450D01*
X176237Y176770D01*
Y173622D01*
X175450Y172835D01*
X173875D01*
X173088Y173622D01*
Y176770D01*
X177811Y172835D02*
Y173622D01*
X178598D01*
Y172835D01*
X177811D01*
X181747Y176770D02*
X182534Y177558D01*
X184108D01*
X184896Y176770D01*
Y173622D01*
X184108Y172835D01*
X182534D01*
X181747Y173622D01*
Y176770D01*
X186470D02*
X187257Y177558D01*
X188831D01*
X189618Y176770D01*
Y175983D01*
X188831Y175196D01*
X188044D01*
X188831D01*
X189618Y174409D01*
Y173622D01*
X188831Y172835D01*
X187257D01*
X186470Y173622D01*
X194341Y177558D02*
X191193D01*
Y175196D01*
X192767Y175983D01*
X193554D01*
X194341Y175196D01*
Y173622D01*
X193554Y172835D01*
X191980D01*
X191193Y173622D01*
X195916Y172835D02*
Y175983D01*
X196703D01*
X197490Y175196D01*
Y172835D01*
Y175196D01*
X198277Y175983D01*
X199064Y175196D01*
Y172835D01*
X200638D02*
Y175983D01*
X201426D01*
X202213Y175196D01*
Y172835D01*
Y175196D01*
X203000Y175983D01*
X203787Y175196D01*
Y172835D01*
X173088Y186219D02*
X173875Y187006D01*
X175450D01*
X176237Y186219D01*
Y183071D01*
X175450Y182283D01*
X173875D01*
X173088Y183071D01*
Y186219D01*
X177811Y182283D02*
Y183071D01*
X178598D01*
Y182283D01*
X177811D01*
X181747Y186219D02*
X182534Y187006D01*
X184108D01*
X184896Y186219D01*
Y183071D01*
X184108Y182283D01*
X182534D01*
X181747Y183071D01*
Y186219D01*
X186470Y182283D02*
X188044D01*
X187257D01*
Y187006D01*
X186470Y186219D01*
X190405D02*
X191193Y187006D01*
X192767D01*
X193554Y186219D01*
Y183071D01*
X192767Y182283D01*
X191193D01*
X190405Y183071D01*
Y186219D01*
X195128Y182283D02*
Y185432D01*
X195916D01*
X196703Y184645D01*
Y182283D01*
Y184645D01*
X197490Y185432D01*
X198277Y184645D01*
Y182283D01*
X199851D02*
Y185432D01*
X200638D01*
X201426Y184645D01*
Y182283D01*
Y184645D01*
X202213Y185432D01*
X203000Y184645D01*
Y182283D01*
X227405Y205117D02*
X226618Y205904D01*
X225044D01*
X224256Y205117D01*
Y201968D01*
X225044Y201181D01*
X226618D01*
X227405Y201968D01*
X229766Y201181D02*
X231341D01*
X232128Y201968D01*
Y203542D01*
X231341Y204330D01*
X229766D01*
X228979Y203542D01*
Y201968D01*
X229766Y201181D01*
X233702D02*
Y204330D01*
X236064D01*
X236851Y203542D01*
Y201181D01*
X238425D02*
X240787D01*
X241574Y201968D01*
X240787Y202755D01*
X239212D01*
X238425Y203542D01*
X239212Y204330D01*
X241574D01*
X243935Y205117D02*
Y204330D01*
X243148D01*
X244722D01*
X243935D01*
Y201968D01*
X244722Y201181D01*
X247871Y204330D02*
X249445D01*
X250232Y203542D01*
Y201181D01*
X247871D01*
X247084Y201968D01*
X247871Y202755D01*
X250232D01*
X251806Y201181D02*
Y204330D01*
X254168D01*
X254955Y203542D01*
Y201181D01*
X257317Y205117D02*
Y204330D01*
X256529D01*
X258104D01*
X257317D01*
Y201968D01*
X258104Y201181D01*
X224256Y148424D02*
X225044Y149211D01*
X226618D01*
X227405Y148424D01*
Y147637D01*
X226618Y146850D01*
X225831D01*
X226618D01*
X227405Y146063D01*
Y145275D01*
X226618Y144488D01*
X225044D01*
X224256Y145275D01*
X228979Y144488D02*
Y145275D01*
X229766D01*
Y144488D01*
X228979D01*
X236064Y149211D02*
X232915D01*
Y146850D01*
X234489Y147637D01*
X235277D01*
X236064Y146850D01*
Y145275D01*
X235277Y144488D01*
X233702D01*
X232915Y145275D01*
X226618Y163386D02*
Y168109D01*
X224256Y165747D01*
X227405D01*
X228979Y163386D02*
Y164173D01*
X229766D01*
Y163386D01*
X228979D01*
X236064D02*
X232915D01*
X236064Y166534D01*
Y167322D01*
X235277Y168109D01*
X233702D01*
X232915Y167322D01*
X224256Y186219D02*
X225044Y187006D01*
X226618D01*
X227405Y186219D01*
Y185432D01*
X226618Y184645D01*
X225831D01*
X226618D01*
X227405Y183858D01*
Y183071D01*
X226618Y182283D01*
X225044D01*
X224256Y183071D01*
X228979Y182283D02*
Y183071D01*
X229766D01*
Y182283D01*
X228979D01*
X236064Y187006D02*
X232915D01*
Y184645D01*
X234489Y185432D01*
X235277D01*
X236064Y184645D01*
Y183071D01*
X235277Y182283D01*
X233702D01*
X232915Y183071D01*
X269127Y205904D02*
Y201181D01*
X271489D01*
X272276Y201968D01*
Y202755D01*
X271489Y203542D01*
X269127D01*
X271489D01*
X272276Y204330D01*
Y205117D01*
X271489Y205904D01*
X269127D01*
X274637Y201181D02*
X276212D01*
X276999Y201968D01*
Y203542D01*
X276212Y204330D01*
X274637D01*
X273850Y203542D01*
Y201968D01*
X274637Y201181D01*
X279360Y204330D02*
X280935D01*
X281722Y203542D01*
Y201181D01*
X279360D01*
X278573Y201968D01*
X279360Y202755D01*
X281722D01*
X283296Y204330D02*
Y201181D01*
Y202755D01*
X284083Y203542D01*
X284870Y204330D01*
X285657D01*
X291167Y205904D02*
Y201181D01*
X288806D01*
X288019Y201968D01*
Y203542D01*
X288806Y204330D01*
X291167D01*
X297465Y205904D02*
Y201181D01*
X300613D01*
X302975Y204330D02*
X304549D01*
X305336Y203542D01*
Y201181D01*
X302975D01*
X302187Y201968D01*
X302975Y202755D01*
X305336D01*
X306910Y204330D02*
Y201968D01*
X307698Y201181D01*
X310059D01*
Y200394D01*
X309272Y199607D01*
X308485D01*
X310059Y201181D02*
Y204330D01*
X313995Y201181D02*
X312420D01*
X311633Y201968D01*
Y203542D01*
X312420Y204330D01*
X313995D01*
X314782Y203542D01*
Y202755D01*
X311633D01*
X316356Y204330D02*
Y201181D01*
Y202755D01*
X317143Y203542D01*
X317930Y204330D01*
X318718D01*
X328951Y205117D02*
X328163Y205904D01*
X326589D01*
X325802Y205117D01*
Y204330D01*
X326589Y203542D01*
X328163D01*
X328951Y202755D01*
Y201968D01*
X328163Y201181D01*
X326589D01*
X325802Y201968D01*
X331312Y205117D02*
Y204330D01*
X330525D01*
X332099D01*
X331312D01*
Y201968D01*
X332099Y201181D01*
X335248Y204330D02*
X336822D01*
X337609Y203542D01*
Y201181D01*
X335248D01*
X334460Y201968D01*
X335248Y202755D01*
X337609D01*
X342332Y204330D02*
X339970D01*
X339183Y203542D01*
Y201968D01*
X339970Y201181D01*
X342332D01*
X343906D02*
Y205904D01*
Y202755D02*
X346268Y204330D01*
X343906Y202755D02*
X346268Y201181D01*
X5430Y247703D02*
G03*
X5430Y247703I-2625J0D01*
G01*
X1493Y270013D02*
X2805Y268701D01*
X180Y270013D02*
X1493D01*
X180D02*
X1493Y271325D01*
X180Y272638D02*
X1493Y271325D01*
X180Y272638D02*
X1493D01*
X2805Y273950D01*
X4117Y272638D01*
X5430D01*
X4117Y271325D02*
X5430Y272638D01*
X4117Y271325D02*
X5430Y270013D01*
X4117D02*
X5430D01*
X2805Y268701D02*
X4117Y270013D01*
X2805Y256890D02*
X5430Y262139D01*
X180D02*
X5430D01*
X180D02*
X2805Y256890D01*
X180Y233268D02*
X5430D01*
Y238517D01*
X180D02*
X5430D01*
X180Y233268D02*
Y238517D01*
X496281Y271849D02*
X497856Y268701D01*
X499430Y271849D01*
X504153Y273424D02*
X502579Y272637D01*
X501004Y271062D01*
Y269488D01*
X501791Y268701D01*
X503366D01*
X504153Y269488D01*
Y270275D01*
X503366Y271062D01*
X501004D01*
X505727Y272637D02*
X506514Y273424D01*
X508089D01*
X508876Y272637D01*
Y269488D01*
X508089Y268701D01*
X506514D01*
X505727Y269488D01*
Y272637D01*
X510450Y273424D02*
Y268701D01*
Y271062D01*
X511237Y271849D01*
X512812D01*
X513599Y271062D01*
Y268701D01*
X515173Y272637D02*
X515960Y273424D01*
X517534D01*
X518322Y272637D01*
Y271849D01*
X517534Y271062D01*
X516747D01*
X517534D01*
X518322Y270275D01*
Y269488D01*
X517534Y268701D01*
X515960D01*
X515173Y269488D01*
X519896Y272637D02*
X520683Y273424D01*
X522257D01*
X523044Y272637D01*
Y269488D01*
X522257Y268701D01*
X520683D01*
X519896Y269488D01*
Y272637D01*
X524619Y268701D02*
Y271849D01*
X525406D01*
X526193Y271062D01*
Y268701D01*
Y271062D01*
X526980Y271849D01*
X527767Y271062D01*
Y268701D01*
X529342Y272637D02*
X530129Y273424D01*
X531703D01*
X532490Y272637D01*
Y269488D01*
X531703Y268701D01*
X530129D01*
X529342Y269488D01*
Y272637D01*
X534064Y268701D02*
Y271849D01*
X534852D01*
X535639Y271062D01*
Y268701D01*
Y271062D01*
X536426Y271849D01*
X537213Y271062D01*
Y268701D01*
X538787Y271849D02*
X541936Y268701D01*
X540362Y270275D01*
X541936Y271849D01*
X538787Y268701D01*
X543510Y272637D02*
X544297Y273424D01*
X545872D01*
X546659Y272637D01*
Y269488D01*
X545872Y268701D01*
X544297D01*
X543510Y269488D01*
Y272637D01*
X499430Y260038D02*
X497069D01*
X496281Y259251D01*
Y257677D01*
X497069Y256890D01*
X499430D01*
X501004D02*
X502579D01*
X501791D01*
Y261613D01*
X501004Y260825D01*
X508089Y261613D02*
X504940D01*
Y259251D01*
X506514Y260038D01*
X507302D01*
X508089Y259251D01*
Y257677D01*
X507302Y256890D01*
X505727D01*
X504940Y257677D01*
X509663Y260825D02*
X510450Y261613D01*
X512024D01*
X512812Y260825D01*
Y257677D01*
X512024Y256890D01*
X510450D01*
X509663Y257677D01*
Y260825D01*
X514386Y261613D02*
Y256890D01*
Y259251D01*
X515173Y260038D01*
X516747D01*
X517534Y259251D01*
Y256890D01*
X519109Y257677D02*
X519896Y256890D01*
X521470D01*
X522257Y257677D01*
Y260825D01*
X521470Y261613D01*
X519896D01*
X519109Y260825D01*
Y260038D01*
X519896Y259251D01*
X522257D01*
X523832Y260825D02*
X524619Y261613D01*
X526193D01*
X526980Y260825D01*
Y257677D01*
X526193Y256890D01*
X524619D01*
X523832Y257677D01*
Y260825D01*
X497856Y245079D02*
X496281Y246653D01*
Y248227D01*
X497856Y249802D01*
X500217Y245079D02*
Y249802D01*
X501791Y248227D01*
X503366Y249802D01*
Y245079D01*
X504940D02*
X506514D01*
X505727D01*
Y248227D01*
X504940D01*
X508876D02*
X512024Y245079D01*
X510450Y246653D01*
X512024Y248227D01*
X508876Y245079D01*
X515960D02*
X514386D01*
X513599Y245866D01*
Y247440D01*
X514386Y248227D01*
X515960D01*
X516747Y247440D01*
Y246653D01*
X513599D01*
X521470Y249802D02*
Y245079D01*
X519109D01*
X518322Y245866D01*
Y247440D01*
X519109Y248227D01*
X521470D01*
X523044Y245079D02*
X524619Y246653D01*
Y248227D01*
X523044Y249802D01*
X499430Y236416D02*
X497069D01*
X496281Y235629D01*
Y234055D01*
X497069Y233268D01*
X499430D01*
X501004Y237203D02*
X501791Y237991D01*
X503366D01*
X504153Y237203D01*
Y236416D01*
X503366Y235629D01*
X502579D01*
X503366D01*
X504153Y234842D01*
Y234055D01*
X503366Y233268D01*
X501791D01*
X501004Y234055D01*
X505727Y237991D02*
X508876D01*
Y237203D01*
X505727Y234055D01*
Y233268D01*
X510450Y237203D02*
X511237Y237991D01*
X512812D01*
X513599Y237203D01*
Y234055D01*
X512812Y233268D01*
X511237D01*
X510450Y234055D01*
Y237203D01*
X515173Y237991D02*
Y233268D01*
Y235629D01*
X515960Y236416D01*
X517534D01*
X518322Y235629D01*
Y233268D01*
X519896Y237203D02*
X520683Y237991D01*
X522257D01*
X523044Y237203D01*
Y236416D01*
X522257Y235629D01*
X521470D01*
X522257D01*
X523044Y234842D01*
Y234055D01*
X522257Y233268D01*
X520683D01*
X519896Y234055D01*
X527767Y233268D02*
X524619D01*
X527767Y236416D01*
Y237203D01*
X526980Y237991D01*
X525406D01*
X524619Y237203D01*
X529342D02*
X530129Y237991D01*
X531703D01*
X532490Y237203D01*
Y234055D01*
X531703Y233268D01*
X530129D01*
X529342Y234055D01*
Y237203D01*
X437557Y268701D02*
Y273424D01*
X439919D01*
X440706Y272637D01*
Y271062D01*
X439919Y270275D01*
X437557D01*
X439131D02*
X440706Y268701D01*
X443067D02*
X444641D01*
X445429Y269488D01*
Y271062D01*
X444641Y271849D01*
X443067D01*
X442280Y271062D01*
Y269488D01*
X443067Y268701D01*
X447003Y271849D02*
Y269488D01*
X447790Y268701D01*
X450151D01*
Y271849D01*
X451726Y268701D02*
Y271849D01*
X454087D01*
X454874Y271062D01*
Y268701D01*
X459597Y273424D02*
Y268701D01*
X457236D01*
X456449Y269488D01*
Y271062D01*
X457236Y271849D01*
X459597D01*
X463533Y268701D02*
X461959D01*
X461171Y269488D01*
Y271062D01*
X461959Y271849D01*
X463533D01*
X464320Y271062D01*
Y270275D01*
X461171D01*
X469043Y273424D02*
Y268701D01*
X466682D01*
X465894Y269488D01*
Y271062D01*
X466682Y271849D01*
X469043D01*
X437557Y256890D02*
Y261613D01*
X439919D01*
X440706Y260825D01*
Y259251D01*
X439919Y258464D01*
X437557D01*
X439131D02*
X440706Y256890D01*
X443067D02*
X444641D01*
X445429Y257677D01*
Y259251D01*
X444641Y260038D01*
X443067D01*
X442280Y259251D01*
Y257677D01*
X443067Y256890D01*
X447003Y260038D02*
Y257677D01*
X447790Y256890D01*
X450151D01*
Y260038D01*
X451726Y256890D02*
Y260038D01*
X454087D01*
X454874Y259251D01*
Y256890D01*
X459597Y261613D02*
Y256890D01*
X457236D01*
X456449Y257677D01*
Y259251D01*
X457236Y260038D01*
X459597D01*
X463533Y256890D02*
X461959D01*
X461171Y257677D01*
Y259251D01*
X461959Y260038D01*
X463533D01*
X464320Y259251D01*
Y258464D01*
X461171D01*
X469043Y261613D02*
Y256890D01*
X466682D01*
X465894Y257677D01*
Y259251D01*
X466682Y260038D01*
X469043D01*
X439131Y245079D02*
X437557Y246653D01*
Y248227D01*
X439131Y249802D01*
X441493Y245079D02*
Y249802D01*
X443067Y248227D01*
X444641Y249802D01*
Y245079D01*
X446216D02*
X447790D01*
X447003D01*
Y248227D01*
X446216D01*
X450151D02*
X453300Y245079D01*
X451726Y246653D01*
X453300Y248227D01*
X450151Y245079D01*
X457236D02*
X455661D01*
X454874Y245866D01*
Y247440D01*
X455661Y248227D01*
X457236D01*
X458023Y247440D01*
Y246653D01*
X454874D01*
X462746Y249802D02*
Y245079D01*
X460384D01*
X459597Y245866D01*
Y247440D01*
X460384Y248227D01*
X462746D01*
X464320Y245079D02*
X465894Y246653D01*
Y248227D01*
X464320Y249802D01*
X437557Y233268D02*
Y237991D01*
X439919D01*
X440706Y237203D01*
Y235629D01*
X439919Y234842D01*
X437557D01*
X439131D02*
X440706Y233268D01*
X443067D02*
X444641D01*
X445429Y234055D01*
Y235629D01*
X444641Y236416D01*
X443067D01*
X442280Y235629D01*
Y234055D01*
X443067Y233268D01*
X447003Y236416D02*
Y234055D01*
X447790Y233268D01*
X450151D01*
Y236416D01*
X451726Y233268D02*
Y236416D01*
X454087D01*
X454874Y235629D01*
Y233268D01*
X459597Y237991D02*
Y233268D01*
X457236D01*
X456449Y234055D01*
Y235629D01*
X457236Y236416D01*
X459597D01*
X463533Y233268D02*
X461959D01*
X461171Y234055D01*
Y235629D01*
X461959Y236416D01*
X463533D01*
X464320Y235629D01*
Y234842D01*
X461171D01*
X469043Y237991D02*
Y233268D01*
X466682D01*
X465894Y234055D01*
Y235629D01*
X466682Y236416D01*
X469043D01*
X391112Y273424D02*
Y270275D01*
X392687Y268701D01*
X394261Y270275D01*
Y273424D01*
X395835Y268701D02*
X397410D01*
X396622D01*
Y271849D01*
X395835D01*
X400558D02*
X402132D01*
X402920Y271062D01*
Y268701D01*
X400558D01*
X399771Y269488D01*
X400558Y270275D01*
X402920D01*
X391112Y256890D02*
Y261613D01*
X393474D01*
X394261Y260825D01*
Y259251D01*
X393474Y258464D01*
X391112D01*
X396622Y260038D02*
X398197D01*
X398984Y259251D01*
Y256890D01*
X396622D01*
X395835Y257677D01*
X396622Y258464D01*
X398984D01*
X403707Y261613D02*
Y256890D01*
X401345D01*
X400558Y257677D01*
Y259251D01*
X401345Y260038D01*
X403707D01*
X391112Y245079D02*
Y249802D01*
X393474D01*
X394261Y249014D01*
Y247440D01*
X393474Y246653D01*
X391112D01*
X396622Y248227D02*
X398197D01*
X398984Y247440D01*
Y245079D01*
X396622D01*
X395835Y245866D01*
X396622Y246653D01*
X398984D01*
X403707Y249802D02*
Y245079D01*
X401345D01*
X400558Y245866D01*
Y247440D01*
X401345Y248227D01*
X403707D01*
X391112Y233268D02*
Y237991D01*
X393474D01*
X394261Y237203D01*
Y235629D01*
X393474Y234842D01*
X391112D01*
X396622Y236416D02*
X398197D01*
X398984Y235629D01*
Y233268D01*
X396622D01*
X395835Y234055D01*
X396622Y234842D01*
X398984D01*
X403707Y237991D02*
Y233268D01*
X401345D01*
X400558Y234055D01*
Y235629D01*
X401345Y236416D01*
X403707D01*
X273038Y273424D02*
X276186D01*
X274612D01*
Y268701D01*
X278548D02*
X280122D01*
X280909Y269488D01*
Y271062D01*
X280122Y271849D01*
X278548D01*
X277760Y271062D01*
Y269488D01*
X278548Y268701D01*
X282483Y267126D02*
Y271849D01*
X284845D01*
X285632Y271062D01*
Y269488D01*
X284845Y268701D01*
X282483D01*
X291929Y273424D02*
Y268701D01*
X295078D01*
X297439Y271849D02*
X299013D01*
X299801Y271062D01*
Y268701D01*
X297439D01*
X296652Y269488D01*
X297439Y270275D01*
X299801D01*
X301375Y271849D02*
Y269488D01*
X302162Y268701D01*
X304523D01*
Y267914D01*
X303736Y267126D01*
X302949D01*
X304523Y268701D02*
Y271849D01*
X308459Y268701D02*
X306885D01*
X306098Y269488D01*
Y271062D01*
X306885Y271849D01*
X308459D01*
X309246Y271062D01*
Y270275D01*
X306098D01*
X310821Y271849D02*
Y268701D01*
Y270275D01*
X311608Y271062D01*
X312395Y271849D01*
X313182D01*
X320266Y271062D02*
X323415D01*
X329712Y273424D02*
Y268701D01*
X332074D01*
X332861Y269488D01*
Y270275D01*
X332074Y271062D01*
X329712D01*
X332074D01*
X332861Y271849D01*
Y272637D01*
X332074Y273424D01*
X329712D01*
X335222Y268701D02*
X336796D01*
X337584Y269488D01*
Y271062D01*
X336796Y271849D01*
X335222D01*
X334435Y271062D01*
Y269488D01*
X335222Y268701D01*
X339945Y272637D02*
Y271849D01*
X339158D01*
X340732D01*
X339945D01*
Y269488D01*
X340732Y268701D01*
X343881Y272637D02*
Y271849D01*
X343094D01*
X344668D01*
X343881D01*
Y269488D01*
X344668Y268701D01*
X347816D02*
X349391D01*
X350178Y269488D01*
Y271062D01*
X349391Y271849D01*
X347816D01*
X347029Y271062D01*
Y269488D01*
X347816Y268701D01*
X351752D02*
Y271849D01*
X352539D01*
X353327Y271062D01*
Y268701D01*
Y271062D01*
X354114Y271849D01*
X354901Y271062D01*
Y268701D01*
X361198Y273424D02*
Y268701D01*
X364347D01*
X366708Y271849D02*
X368282D01*
X369070Y271062D01*
Y268701D01*
X366708D01*
X365921Y269488D01*
X366708Y270275D01*
X369070D01*
X370644Y271849D02*
Y269488D01*
X371431Y268701D01*
X373792D01*
Y267914D01*
X373005Y267126D01*
X372218D01*
X373792Y268701D02*
Y271849D01*
X377728Y268701D02*
X376154D01*
X375367Y269488D01*
Y271062D01*
X376154Y271849D01*
X377728D01*
X378515Y271062D01*
Y270275D01*
X375367D01*
X380089Y271849D02*
Y268701D01*
Y270275D01*
X380877Y271062D01*
X381664Y271849D01*
X382451D01*
X273038Y261613D02*
X276186D01*
X274612D01*
Y256890D01*
X278548D02*
X280122D01*
X280909Y257677D01*
Y259251D01*
X280122Y260038D01*
X278548D01*
X277760Y259251D01*
Y257677D01*
X278548Y256890D01*
X282483Y255315D02*
Y260038D01*
X284845D01*
X285632Y259251D01*
Y257677D01*
X284845Y256890D01*
X282483D01*
X291929Y261613D02*
Y256890D01*
X295078D01*
X297439Y260038D02*
X299013D01*
X299801Y259251D01*
Y256890D01*
X297439D01*
X296652Y257677D01*
X297439Y258464D01*
X299801D01*
X301375Y260038D02*
Y257677D01*
X302162Y256890D01*
X304523D01*
Y256103D01*
X303736Y255315D01*
X302949D01*
X304523Y256890D02*
Y260038D01*
X308459Y256890D02*
X306885D01*
X306098Y257677D01*
Y259251D01*
X306885Y260038D01*
X308459D01*
X309246Y259251D01*
Y258464D01*
X306098D01*
X310821Y260038D02*
Y256890D01*
Y258464D01*
X311608Y259251D01*
X312395Y260038D01*
X313182D01*
X320266Y259251D02*
X323415D01*
X329712Y261613D02*
Y256890D01*
X332074D01*
X332861Y257677D01*
Y258464D01*
X332074Y259251D01*
X329712D01*
X332074D01*
X332861Y260038D01*
Y260825D01*
X332074Y261613D01*
X329712D01*
X335222Y256890D02*
X336796D01*
X337584Y257677D01*
Y259251D01*
X336796Y260038D01*
X335222D01*
X334435Y259251D01*
Y257677D01*
X335222Y256890D01*
X339945Y260825D02*
Y260038D01*
X339158D01*
X340732D01*
X339945D01*
Y257677D01*
X340732Y256890D01*
X343881Y260825D02*
Y260038D01*
X343094D01*
X344668D01*
X343881D01*
Y257677D01*
X344668Y256890D01*
X347816D02*
X349391D01*
X350178Y257677D01*
Y259251D01*
X349391Y260038D01*
X347816D01*
X347029Y259251D01*
Y257677D01*
X347816Y256890D01*
X351752D02*
Y260038D01*
X352539D01*
X353327Y259251D01*
Y256890D01*
Y259251D01*
X354114Y260038D01*
X354901Y259251D01*
Y256890D01*
X361198Y261613D02*
Y256890D01*
X364347D01*
X366708Y260038D02*
X368282D01*
X369070Y259251D01*
Y256890D01*
X366708D01*
X365921Y257677D01*
X366708Y258464D01*
X369070D01*
X370644Y260038D02*
Y257677D01*
X371431Y256890D01*
X373792D01*
Y256103D01*
X373005Y255315D01*
X372218D01*
X373792Y256890D02*
Y260038D01*
X377728Y256890D02*
X376154D01*
X375367Y257677D01*
Y259251D01*
X376154Y260038D01*
X377728D01*
X378515Y259251D01*
Y258464D01*
X375367D01*
X380089Y260038D02*
Y256890D01*
Y258464D01*
X380877Y259251D01*
X381664Y260038D01*
X382451D01*
X273038Y249802D02*
X276186D01*
X274612D01*
Y245079D01*
X278548D02*
X280122D01*
X280909Y245866D01*
Y247440D01*
X280122Y248227D01*
X278548D01*
X277760Y247440D01*
Y245866D01*
X278548Y245079D01*
X282483Y243504D02*
Y248227D01*
X284845D01*
X285632Y247440D01*
Y245866D01*
X284845Y245079D01*
X282483D01*
X291929Y249802D02*
Y245079D01*
X295078D01*
X297439Y248227D02*
X299013D01*
X299801Y247440D01*
Y245079D01*
X297439D01*
X296652Y245866D01*
X297439Y246653D01*
X299801D01*
X301375Y248227D02*
Y245866D01*
X302162Y245079D01*
X304523D01*
Y244292D01*
X303736Y243504D01*
X302949D01*
X304523Y245079D02*
Y248227D01*
X308459Y245079D02*
X306885D01*
X306098Y245866D01*
Y247440D01*
X306885Y248227D01*
X308459D01*
X309246Y247440D01*
Y246653D01*
X306098D01*
X310821Y248227D02*
Y245079D01*
Y246653D01*
X311608Y247440D01*
X312395Y248227D01*
X313182D01*
X320266Y247440D02*
X323415D01*
X329712Y249802D02*
Y245079D01*
X332074D01*
X332861Y245866D01*
Y246653D01*
X332074Y247440D01*
X329712D01*
X332074D01*
X332861Y248227D01*
Y249014D01*
X332074Y249802D01*
X329712D01*
X335222Y245079D02*
X336796D01*
X337584Y245866D01*
Y247440D01*
X336796Y248227D01*
X335222D01*
X334435Y247440D01*
Y245866D01*
X335222Y245079D01*
X339945Y249014D02*
Y248227D01*
X339158D01*
X340732D01*
X339945D01*
Y245866D01*
X340732Y245079D01*
X343881Y249014D02*
Y248227D01*
X343094D01*
X344668D01*
X343881D01*
Y245866D01*
X344668Y245079D01*
X347816D02*
X349391D01*
X350178Y245866D01*
Y247440D01*
X349391Y248227D01*
X347816D01*
X347029Y247440D01*
Y245866D01*
X347816Y245079D01*
X351752D02*
Y248227D01*
X352539D01*
X353327Y247440D01*
Y245079D01*
Y247440D01*
X354114Y248227D01*
X354901Y247440D01*
Y245079D01*
X361198Y249802D02*
Y245079D01*
X364347D01*
X366708Y248227D02*
X368282D01*
X369070Y247440D01*
Y245079D01*
X366708D01*
X365921Y245866D01*
X366708Y246653D01*
X369070D01*
X370644Y248227D02*
Y245866D01*
X371431Y245079D01*
X373792D01*
Y244292D01*
X373005Y243504D01*
X372218D01*
X373792Y245079D02*
Y248227D01*
X377728Y245079D02*
X376154D01*
X375367Y245866D01*
Y247440D01*
X376154Y248227D01*
X377728D01*
X378515Y247440D01*
Y246653D01*
X375367D01*
X380089Y248227D02*
Y245079D01*
Y246653D01*
X380877Y247440D01*
X381664Y248227D01*
X382451D01*
X273038Y237991D02*
X276186D01*
X274612D01*
Y233268D01*
X278548D02*
X280122D01*
X280909Y234055D01*
Y235629D01*
X280122Y236416D01*
X278548D01*
X277760Y235629D01*
Y234055D01*
X278548Y233268D01*
X282483Y231693D02*
Y236416D01*
X284845D01*
X285632Y235629D01*
Y234055D01*
X284845Y233268D01*
X282483D01*
X291929Y237991D02*
Y233268D01*
X295078D01*
X297439Y236416D02*
X299013D01*
X299801Y235629D01*
Y233268D01*
X297439D01*
X296652Y234055D01*
X297439Y234842D01*
X299801D01*
X301375Y236416D02*
Y234055D01*
X302162Y233268D01*
X304523D01*
Y232481D01*
X303736Y231693D01*
X302949D01*
X304523Y233268D02*
Y236416D01*
X308459Y233268D02*
X306885D01*
X306098Y234055D01*
Y235629D01*
X306885Y236416D01*
X308459D01*
X309246Y235629D01*
Y234842D01*
X306098D01*
X310821Y236416D02*
Y233268D01*
Y234842D01*
X311608Y235629D01*
X312395Y236416D01*
X313182D01*
X320266Y235629D02*
X323415D01*
X329712Y237991D02*
Y233268D01*
X332074D01*
X332861Y234055D01*
Y234842D01*
X332074Y235629D01*
X329712D01*
X332074D01*
X332861Y236416D01*
Y237203D01*
X332074Y237991D01*
X329712D01*
X335222Y233268D02*
X336796D01*
X337584Y234055D01*
Y235629D01*
X336796Y236416D01*
X335222D01*
X334435Y235629D01*
Y234055D01*
X335222Y233268D01*
X339945Y237203D02*
Y236416D01*
X339158D01*
X340732D01*
X339945D01*
Y234055D01*
X340732Y233268D01*
X343881Y237203D02*
Y236416D01*
X343094D01*
X344668D01*
X343881D01*
Y234055D01*
X344668Y233268D01*
X347816D02*
X349391D01*
X350178Y234055D01*
Y235629D01*
X349391Y236416D01*
X347816D01*
X347029Y235629D01*
Y234055D01*
X347816Y233268D01*
X351752D02*
Y236416D01*
X352539D01*
X353327Y235629D01*
Y233268D01*
Y235629D01*
X354114Y236416D01*
X354901Y235629D01*
Y233268D01*
X361198Y237991D02*
Y233268D01*
X364347D01*
X366708Y236416D02*
X368282D01*
X369070Y235629D01*
Y233268D01*
X366708D01*
X365921Y234055D01*
X366708Y234842D01*
X369070D01*
X370644Y236416D02*
Y234055D01*
X371431Y233268D01*
X373792D01*
Y232481D01*
X373005Y231693D01*
X372218D01*
X373792Y233268D02*
Y236416D01*
X377728Y233268D02*
X376154D01*
X375367Y234055D01*
Y235629D01*
X376154Y236416D01*
X377728D01*
X378515Y235629D01*
Y234842D01*
X375367D01*
X380089Y236416D02*
Y233268D01*
Y234842D01*
X380877Y235629D01*
X381664Y236416D01*
X382451D01*
X215258Y268701D02*
Y273424D01*
X217619D01*
X218407Y272637D01*
Y271062D01*
X217619Y270275D01*
X215258D01*
X216832D02*
X218407Y268701D01*
X220768D02*
X222342D01*
X223129Y269488D01*
Y271062D01*
X222342Y271849D01*
X220768D01*
X219981Y271062D01*
Y269488D01*
X220768Y268701D01*
X224704Y271849D02*
Y269488D01*
X225491Y268701D01*
X227852D01*
Y271849D01*
X229427Y268701D02*
Y271849D01*
X231788D01*
X232575Y271062D01*
Y268701D01*
X237298Y273424D02*
Y268701D01*
X234937D01*
X234149Y269488D01*
Y271062D01*
X234937Y271849D01*
X237298D01*
X215258Y256890D02*
Y261613D01*
X217619D01*
X218407Y260825D01*
Y259251D01*
X217619Y258464D01*
X215258D01*
X216832D02*
X218407Y256890D01*
X220768D02*
X222342D01*
X223129Y257677D01*
Y259251D01*
X222342Y260038D01*
X220768D01*
X219981Y259251D01*
Y257677D01*
X220768Y256890D01*
X224704Y260038D02*
Y257677D01*
X225491Y256890D01*
X227852D01*
Y260038D01*
X229427Y256890D02*
Y260038D01*
X231788D01*
X232575Y259251D01*
Y256890D01*
X237298Y261613D02*
Y256890D01*
X234937D01*
X234149Y257677D01*
Y259251D01*
X234937Y260038D01*
X237298D01*
X215258Y245079D02*
Y249802D01*
X217619D01*
X218407Y249014D01*
Y247440D01*
X217619Y246653D01*
X215258D01*
X216832D02*
X218407Y245079D01*
X220768D02*
X222342D01*
X223129Y245866D01*
Y247440D01*
X222342Y248227D01*
X220768D01*
X219981Y247440D01*
Y245866D01*
X220768Y245079D01*
X224704Y248227D02*
Y245866D01*
X225491Y245079D01*
X227852D01*
Y248227D01*
X229427Y245079D02*
Y248227D01*
X231788D01*
X232575Y247440D01*
Y245079D01*
X237298Y249802D02*
Y245079D01*
X234937D01*
X234149Y245866D01*
Y247440D01*
X234937Y248227D01*
X237298D01*
X215258Y233268D02*
Y237991D01*
X217619D01*
X218407Y237203D01*
Y235629D01*
X217619Y234842D01*
X215258D01*
X216832D02*
X218407Y233268D01*
X220768D02*
X222342D01*
X223129Y234055D01*
Y235629D01*
X222342Y236416D01*
X220768D01*
X219981Y235629D01*
Y234055D01*
X220768Y233268D01*
X224704Y236416D02*
Y234055D01*
X225491Y233268D01*
X227852D01*
Y236416D01*
X229427Y233268D02*
Y236416D01*
X231788D01*
X232575Y235629D01*
Y233268D01*
X237298Y237991D02*
Y233268D01*
X234937D01*
X234149Y234055D01*
Y235629D01*
X234937Y236416D01*
X237298D01*
X175425Y268701D02*
Y273424D01*
X177787D01*
X178574Y272637D01*
Y271062D01*
X177787Y270275D01*
X175425D01*
X180148Y273424D02*
X183297D01*
X181722D01*
Y268701D01*
X184871Y273424D02*
Y268701D01*
Y271062D01*
X188020D01*
Y273424D01*
Y268701D01*
X175425Y256890D02*
Y261613D01*
X177787D01*
X178574Y260825D01*
Y259251D01*
X177787Y258464D01*
X175425D01*
X180148Y261613D02*
X183297D01*
X181722D01*
Y256890D01*
X184871Y261613D02*
Y256890D01*
Y259251D01*
X188020D01*
Y261613D01*
Y256890D01*
X175425Y245079D02*
Y249802D01*
X177787D01*
X178574Y249014D01*
Y247440D01*
X177787Y246653D01*
X175425D01*
X180148Y249802D02*
X183297D01*
X181722D01*
Y245079D01*
X184871Y249802D02*
Y245079D01*
Y247440D01*
X188020D01*
Y249802D01*
Y245079D01*
X175425Y233268D02*
Y237991D01*
X177787D01*
X178574Y237203D01*
Y235629D01*
X177787Y234842D01*
X175425D01*
X180148Y237991D02*
X183297D01*
X181722D01*
Y233268D01*
X184871Y237991D02*
Y233268D01*
Y235629D01*
X188020D01*
Y237991D01*
Y233268D01*
X84900Y272637D02*
X85688Y273424D01*
X87262D01*
X88049Y272637D01*
Y269488D01*
X87262Y268701D01*
X85688D01*
X84900Y269488D01*
Y272637D01*
X89623Y268701D02*
Y269488D01*
X90411D01*
Y268701D01*
X89623D01*
X93559Y272637D02*
X94346Y273424D01*
X95920D01*
X96708Y272637D01*
Y271849D01*
X95920Y271062D01*
X95133D01*
X95920D01*
X96708Y270275D01*
Y269488D01*
X95920Y268701D01*
X94346D01*
X93559Y269488D01*
X98282Y272637D02*
X99069Y273424D01*
X100643D01*
X101431Y272637D01*
Y269488D01*
X100643Y268701D01*
X99069D01*
X98282Y269488D01*
Y272637D01*
X103005D02*
X103792Y273424D01*
X105366D01*
X106153Y272637D01*
Y269488D01*
X105366Y268701D01*
X103792D01*
X103005Y269488D01*
Y272637D01*
X107728Y268701D02*
Y271849D01*
X108515D01*
X109302Y271062D01*
Y268701D01*
Y271062D01*
X110089Y271849D01*
X110876Y271062D01*
Y268701D01*
X112451D02*
Y271849D01*
X113238D01*
X114025Y271062D01*
Y268701D01*
Y271062D01*
X114812Y271849D01*
X115599Y271062D01*
Y268701D01*
X123471D02*
X121896Y270275D01*
Y271849D01*
X123471Y273424D01*
X125832Y268701D02*
X127406D01*
X126619D01*
Y273424D01*
X125832Y272637D01*
X129768Y268701D02*
X131342D01*
X130555D01*
Y273424D01*
X129768Y272637D01*
X133704Y268701D02*
Y269488D01*
X134491D01*
Y268701D01*
X133704D01*
X137639Y272637D02*
X138426Y273424D01*
X140001D01*
X140788Y272637D01*
Y271849D01*
X140001Y271062D01*
X140788Y270275D01*
Y269488D01*
X140001Y268701D01*
X138426D01*
X137639Y269488D01*
Y270275D01*
X138426Y271062D01*
X137639Y271849D01*
Y272637D01*
X138426Y271062D02*
X140001D01*
X142362Y268701D02*
X143937D01*
X143149D01*
Y273424D01*
X142362Y272637D01*
X146298Y268701D02*
Y271849D01*
X147085D01*
X147872Y271062D01*
Y268701D01*
Y271062D01*
X148659Y271849D01*
X149447Y271062D01*
Y268701D01*
X151021D02*
X152595D01*
X151808D01*
Y271849D01*
X151021D01*
X154957Y268701D02*
X156531D01*
X155744D01*
Y273424D01*
X154957D01*
X158892Y268701D02*
X160467Y270275D01*
Y271849D01*
X158892Y273424D01*
X84900Y260825D02*
X85688Y261613D01*
X87262D01*
X88049Y260825D01*
Y257677D01*
X87262Y256890D01*
X85688D01*
X84900Y257677D01*
Y260825D01*
X89623Y256890D02*
Y257677D01*
X90411D01*
Y256890D01*
X89623D01*
X93559Y257677D02*
X94346Y256890D01*
X95920D01*
X96708Y257677D01*
Y260825D01*
X95920Y261613D01*
X94346D01*
X93559Y260825D01*
Y260038D01*
X94346Y259251D01*
X96708D01*
X98282Y260825D02*
X99069Y261613D01*
X100643D01*
X101431Y260825D01*
Y257677D01*
X100643Y256890D01*
X99069D01*
X98282Y257677D01*
Y260825D01*
X103005D02*
X103792Y261613D01*
X105366D01*
X106153Y260825D01*
Y257677D01*
X105366Y256890D01*
X103792D01*
X103005Y257677D01*
Y260825D01*
X107728Y256890D02*
Y260038D01*
X108515D01*
X109302Y259251D01*
Y256890D01*
Y259251D01*
X110089Y260038D01*
X110876Y259251D01*
Y256890D01*
X112451D02*
Y260038D01*
X113238D01*
X114025Y259251D01*
Y256890D01*
Y259251D01*
X114812Y260038D01*
X115599Y259251D01*
Y256890D01*
X123471D02*
X121896Y258464D01*
Y260038D01*
X123471Y261613D01*
X125832Y260825D02*
X126619Y261613D01*
X128194D01*
X128981Y260825D01*
Y260038D01*
X128194Y259251D01*
X127406D01*
X128194D01*
X128981Y258464D01*
Y257677D01*
X128194Y256890D01*
X126619D01*
X125832Y257677D01*
X133704Y261613D02*
X130555D01*
Y259251D01*
X132129Y260038D01*
X132916D01*
X133704Y259251D01*
Y257677D01*
X132916Y256890D01*
X131342D01*
X130555Y257677D01*
X135278Y256890D02*
Y257677D01*
X136065D01*
Y256890D01*
X135278D01*
X141575D02*
Y261613D01*
X139214Y259251D01*
X142362D01*
X143937Y260825D02*
X144724Y261613D01*
X146298D01*
X147085Y260825D01*
Y260038D01*
X146298Y259251D01*
X145511D01*
X146298D01*
X147085Y258464D01*
Y257677D01*
X146298Y256890D01*
X144724D01*
X143937Y257677D01*
X148659Y256890D02*
Y260038D01*
X149446D01*
X150234Y259251D01*
Y256890D01*
Y259251D01*
X151021Y260038D01*
X151808Y259251D01*
Y256890D01*
X153382D02*
X154956D01*
X154169D01*
Y260038D01*
X153382D01*
X157318Y256890D02*
X158892D01*
X158105D01*
Y261613D01*
X157318D01*
X161254Y256890D02*
X162828Y258464D01*
Y260038D01*
X161254Y261613D01*
X84900Y245079D02*
X86475D01*
X85688D01*
Y249802D01*
X84900Y249014D01*
X88836Y245079D02*
Y245866D01*
X89623D01*
Y245079D01*
X88836D01*
X92772Y249014D02*
X93559Y249802D01*
X95133D01*
X95921Y249014D01*
Y245866D01*
X95133Y245079D01*
X93559D01*
X92772Y245866D01*
Y249014D01*
X97495D02*
X98282Y249802D01*
X99856D01*
X100643Y249014D01*
Y245866D01*
X99856Y245079D01*
X98282D01*
X97495Y245866D01*
Y249014D01*
X102218D02*
X103005Y249802D01*
X104579D01*
X105366Y249014D01*
Y245866D01*
X104579Y245079D01*
X103005D01*
X102218Y245866D01*
Y249014D01*
X106941Y245079D02*
Y248227D01*
X107728D01*
X108515Y247440D01*
Y245079D01*
Y247440D01*
X109302Y248227D01*
X110089Y247440D01*
Y245079D01*
X111663D02*
Y248227D01*
X112451D01*
X113238Y247440D01*
Y245079D01*
Y247440D01*
X114025Y248227D01*
X114812Y247440D01*
Y245079D01*
X122684D02*
X121109Y246653D01*
Y248227D01*
X122684Y249802D01*
X125045Y249014D02*
X125832Y249802D01*
X127406D01*
X128194Y249014D01*
Y248227D01*
X127406Y247440D01*
X126619D01*
X127406D01*
X128194Y246653D01*
Y245866D01*
X127406Y245079D01*
X125832D01*
X125045Y245866D01*
X129768D02*
X130555Y245079D01*
X132129D01*
X132916Y245866D01*
Y249014D01*
X132129Y249802D01*
X130555D01*
X129768Y249014D01*
Y248227D01*
X130555Y247440D01*
X132916D01*
X134491Y245079D02*
Y245866D01*
X135278D01*
Y245079D01*
X134491D01*
X138426Y249014D02*
X139214Y249802D01*
X140788D01*
X141575Y249014D01*
Y248227D01*
X140788Y247440D01*
X140001D01*
X140788D01*
X141575Y246653D01*
Y245866D01*
X140788Y245079D01*
X139214D01*
X138426Y245866D01*
X143149Y249802D02*
X146298D01*
Y249014D01*
X143149Y245866D01*
Y245079D01*
X147872D02*
Y248227D01*
X148659D01*
X149446Y247440D01*
Y245079D01*
Y247440D01*
X150234Y248227D01*
X151021Y247440D01*
Y245079D01*
X152595D02*
X154169D01*
X153382D01*
Y248227D01*
X152595D01*
X156531Y245079D02*
X158105D01*
X157318D01*
Y249802D01*
X156531D01*
X160467Y245079D02*
X162041Y246653D01*
Y248227D01*
X160467Y249802D01*
X84900Y237203D02*
X85688Y237991D01*
X87262D01*
X88049Y237203D01*
Y236416D01*
X87262Y235629D01*
X86475D01*
X87262D01*
X88049Y234842D01*
Y234055D01*
X87262Y233268D01*
X85688D01*
X84900Y234055D01*
X89623Y233268D02*
Y234055D01*
X90411D01*
Y233268D01*
X89623D01*
X96708D02*
X93559D01*
X96708Y236416D01*
Y237203D01*
X95920Y237991D01*
X94346D01*
X93559Y237203D01*
X98282D02*
X99069Y237991D01*
X100643D01*
X101431Y237203D01*
Y234055D01*
X100643Y233268D01*
X99069D01*
X98282Y234055D01*
Y237203D01*
X103005D02*
X103792Y237991D01*
X105366D01*
X106153Y237203D01*
Y234055D01*
X105366Y233268D01*
X103792D01*
X103005Y234055D01*
Y237203D01*
X107728Y233268D02*
Y236416D01*
X108515D01*
X109302Y235629D01*
Y233268D01*
Y235629D01*
X110089Y236416D01*
X110876Y235629D01*
Y233268D01*
X112451D02*
Y236416D01*
X113238D01*
X114025Y235629D01*
Y233268D01*
Y235629D01*
X114812Y236416D01*
X115599Y235629D01*
Y233268D01*
X123471D02*
X121896Y234842D01*
Y236416D01*
X123471Y237991D01*
X125832Y233268D02*
X127406D01*
X126619D01*
Y237991D01*
X125832Y237203D01*
X132916Y233268D02*
X129768D01*
X132916Y236416D01*
Y237203D01*
X132129Y237991D01*
X130555D01*
X129768Y237203D01*
X137639Y237991D02*
X134491D01*
Y235629D01*
X136065Y236416D01*
X136852D01*
X137639Y235629D01*
Y234055D01*
X136852Y233268D01*
X135278D01*
X134491Y234055D01*
X139214Y233268D02*
Y234055D01*
X140001D01*
Y233268D01*
X139214D01*
X143149Y234055D02*
X143937Y233268D01*
X145511D01*
X146298Y234055D01*
Y237203D01*
X145511Y237991D01*
X143937D01*
X143149Y237203D01*
Y236416D01*
X143937Y235629D01*
X146298D01*
X147872Y237203D02*
X148659Y237991D01*
X150234D01*
X151021Y237203D01*
Y236416D01*
X150234Y235629D01*
X151021Y234842D01*
Y234055D01*
X150234Y233268D01*
X148659D01*
X147872Y234055D01*
Y234842D01*
X148659Y235629D01*
X147872Y236416D01*
Y237203D01*
X148659Y235629D02*
X150234D01*
X152595Y233268D02*
Y236416D01*
X153382D01*
X154169Y235629D01*
Y233268D01*
Y235629D01*
X154957Y236416D01*
X155744Y235629D01*
Y233268D01*
X157318D02*
X158892D01*
X158105D01*
Y236416D01*
X157318D01*
X161254Y233268D02*
X162828D01*
X162041D01*
Y237991D01*
X161254D01*
X165190Y233268D02*
X166764Y234842D01*
Y236416D01*
X165190Y237991D01*
X44753Y221457D02*
Y226180D01*
X42392Y223818D01*
X45540D01*
X50263Y226180D02*
X47115D01*
Y223818D01*
X48689Y224605D01*
X49476D01*
X50263Y223818D01*
Y222244D01*
X49476Y221457D01*
X47902D01*
X47115Y222244D01*
X56560Y226180D02*
X59709D01*
X58135D01*
Y221457D01*
X62070D02*
X63645D01*
X64432Y222244D01*
Y223818D01*
X63645Y224605D01*
X62070D01*
X61283Y223818D01*
Y222244D01*
X62070Y221457D01*
X66793Y225392D02*
Y224605D01*
X66006D01*
X67580D01*
X66793D01*
Y222244D01*
X67580Y221457D01*
X70729Y224605D02*
X72303D01*
X73090Y223818D01*
Y221457D01*
X70729D01*
X69942Y222244D01*
X70729Y223031D01*
X73090D01*
X74665Y221457D02*
X76239D01*
X75452D01*
Y226180D01*
X74665D01*
X42392Y272637D02*
X43179Y273424D01*
X44753D01*
X45540Y272637D01*
Y271849D01*
X44753Y271062D01*
X45540Y270275D01*
Y269488D01*
X44753Y268701D01*
X43179D01*
X42392Y269488D01*
Y270275D01*
X43179Y271062D01*
X42392Y271849D01*
Y272637D01*
X43179Y271062D02*
X44753D01*
X42392Y260825D02*
X43179Y261613D01*
X44753D01*
X45540Y260825D01*
Y260038D01*
X44753Y259251D01*
X43966D01*
X44753D01*
X45540Y258464D01*
Y257677D01*
X44753Y256890D01*
X43179D01*
X42392Y257677D01*
Y249014D02*
X43179Y249802D01*
X44753D01*
X45540Y249014D01*
Y248227D01*
X44753Y247440D01*
X43966D01*
X44753D01*
X45540Y246653D01*
Y245866D01*
X44753Y245079D01*
X43179D01*
X42392Y245866D01*
X47115Y249014D02*
X47902Y249802D01*
X49476D01*
X50263Y249014D01*
Y245866D01*
X49476Y245079D01*
X47902D01*
X47115Y245866D01*
Y249014D01*
X44753Y233268D02*
Y237991D01*
X42392Y235629D01*
X45540D01*
D11*
X456091Y-49502D02*
Y-25886D01*
X387303Y-49559D02*
Y-25937D01*
X587402Y-104764D02*
Y350934D01*
X-58268Y-105118D02*
Y350934D01*
X587402D01*
X42913Y-25937D02*
X587095D01*
X43406Y-49895D02*
X586672Y-49895D01*
X43209Y-68645D02*
X587095Y-68645D01*
X387095Y-104724D02*
Y-26133D01*
X43209Y-87395D02*
X386811Y-87395D01*
X205845Y-104823D02*
Y-49895D01*
X42913Y-105118D02*
Y-25937D01*
X-58268Y-105118D02*
X587402D01*
X395898Y-82876D02*
X392224D01*
Y-85631D01*
X394061D01*
X392224D01*
Y-88386D01*
X400489D02*
X398653D01*
X397734Y-87467D01*
Y-85631D01*
X398653Y-84712D01*
X400489D01*
X401408Y-85631D01*
Y-86549D01*
X397734D01*
X406918Y-82876D02*
Y-88386D01*
X404163D01*
X403244Y-87467D01*
Y-85631D01*
X404163Y-84712D01*
X406918D01*
X411510Y-88386D02*
X409673D01*
X408754Y-87467D01*
Y-85631D01*
X409673Y-84712D01*
X411510D01*
X412428Y-85631D01*
Y-86549D01*
X408754D01*
X414264Y-84712D02*
Y-88386D01*
Y-86549D01*
X415183Y-85631D01*
X416101Y-84712D01*
X417020D01*
X420693D02*
X422530D01*
X423448Y-85631D01*
Y-88386D01*
X420693D01*
X419775Y-87467D01*
X420693Y-86549D01*
X423448D01*
X425285Y-88386D02*
X427121D01*
X426203D01*
Y-82876D01*
X425285D01*
X435386D02*
Y-87467D01*
X436305Y-88386D01*
X438141D01*
X439060Y-87467D01*
Y-82876D01*
X440896Y-88386D02*
Y-84712D01*
X443651D01*
X444570Y-85631D01*
Y-88386D01*
X446406D02*
X448243D01*
X447325D01*
Y-84712D01*
X446406D01*
X450998D02*
X452835Y-88386D01*
X454671Y-84712D01*
X459263Y-88386D02*
X457426D01*
X456508Y-87467D01*
Y-85631D01*
X457426Y-84712D01*
X459263D01*
X460181Y-85631D01*
Y-86549D01*
X456508D01*
X462018Y-84712D02*
Y-88386D01*
Y-86549D01*
X462936Y-85631D01*
X463855Y-84712D01*
X464773D01*
X467528Y-88386D02*
X470283D01*
X471202Y-87467D01*
X470283Y-86549D01*
X468446D01*
X467528Y-85631D01*
X468446Y-84712D01*
X471202D01*
X473038Y-88386D02*
X474875D01*
X473956D01*
Y-84712D01*
X473038D01*
X478548Y-83794D02*
Y-84712D01*
X477630D01*
X479467D01*
X478548D01*
Y-87467D01*
X479467Y-88386D01*
X482222Y-84712D02*
Y-87467D01*
X483140Y-88386D01*
X485895D01*
Y-89304D01*
X484977Y-90223D01*
X484058D01*
X485895Y-88386D02*
Y-84712D01*
X494160Y-88386D02*
X495997D01*
X496915Y-87467D01*
Y-85631D01*
X495997Y-84712D01*
X494160D01*
X493242Y-85631D01*
Y-87467D01*
X494160Y-88386D01*
X499670D02*
Y-83794D01*
Y-85631D01*
X498752D01*
X500588D01*
X499670D01*
Y-83794D01*
X500588Y-82876D01*
X512527Y-83794D02*
X511608Y-82876D01*
X509772D01*
X508853Y-83794D01*
Y-84712D01*
X509772Y-85631D01*
X511608D01*
X512527Y-86549D01*
Y-87467D01*
X511608Y-88386D01*
X509772D01*
X508853Y-87467D01*
X515282Y-84712D02*
X517118D01*
X518037Y-85631D01*
Y-88386D01*
X515282D01*
X514363Y-87467D01*
X515282Y-86549D01*
X518037D01*
X519873Y-88386D02*
Y-84712D01*
X522628D01*
X523547Y-85631D01*
Y-88386D01*
X526302Y-83794D02*
Y-84712D01*
X525384D01*
X527220D01*
X526302D01*
Y-87467D01*
X527220Y-88386D01*
X530894Y-84712D02*
X532730D01*
X533648Y-85631D01*
Y-88386D01*
X530894D01*
X529975Y-87467D01*
X530894Y-86549D01*
X533648D01*
X544669Y-83794D02*
X543750Y-82876D01*
X541914D01*
X540995Y-83794D01*
Y-87467D01*
X541914Y-88386D01*
X543750D01*
X544669Y-87467D01*
X547424Y-84712D02*
X549260D01*
X550179Y-85631D01*
Y-88386D01*
X547424D01*
X546505Y-87467D01*
X547424Y-86549D01*
X550179D01*
X552934Y-83794D02*
Y-84712D01*
X552015D01*
X553852D01*
X552934D01*
Y-87467D01*
X553852Y-88386D01*
X557525Y-84712D02*
X559362D01*
X560280Y-85631D01*
Y-88386D01*
X557525D01*
X556607Y-87467D01*
X557525Y-86549D01*
X560280D01*
X562117Y-84712D02*
Y-88386D01*
Y-86549D01*
X563035Y-85631D01*
X563954Y-84712D01*
X564872D01*
X567627Y-88386D02*
X569464D01*
X568545D01*
Y-84712D01*
X567627D01*
X572219Y-88386D02*
Y-84712D01*
X574974D01*
X575892Y-85631D01*
Y-88386D01*
X578647Y-84712D02*
X580484D01*
X581402Y-85631D01*
Y-88386D01*
X578647D01*
X577729Y-87467D01*
X578647Y-86549D01*
X581402D01*
X394028Y-73263D02*
X393109Y-72344D01*
X391273D01*
X390354Y-73263D01*
Y-74181D01*
X391273Y-75099D01*
X393109D01*
X394028Y-76018D01*
Y-76936D01*
X393109Y-77854D01*
X391273D01*
X390354Y-76936D01*
X395864Y-79691D02*
Y-74181D01*
X398619D01*
X399538Y-75099D01*
Y-76936D01*
X398619Y-77854D01*
X395864D01*
X402293Y-74181D02*
X404129D01*
X405048Y-75099D01*
Y-77854D01*
X402293D01*
X401374Y-76936D01*
X402293Y-76018D01*
X405048D01*
X410558Y-74181D02*
X407803D01*
X406884Y-75099D01*
Y-76936D01*
X407803Y-77854D01*
X410558D01*
X415149D02*
X413313D01*
X412394Y-76936D01*
Y-75099D01*
X413313Y-74181D01*
X415149D01*
X416068Y-75099D01*
Y-76018D01*
X412394D01*
X423415Y-72344D02*
X427088D01*
X425251D01*
Y-77854D01*
X431680D02*
X429843D01*
X428925Y-76936D01*
Y-75099D01*
X429843Y-74181D01*
X431680D01*
X432598Y-75099D01*
Y-76018D01*
X428925D01*
X438108Y-74181D02*
X435353D01*
X434435Y-75099D01*
Y-76936D01*
X435353Y-77854D01*
X438108D01*
X439945Y-72344D02*
Y-77854D01*
Y-75099D01*
X440863Y-74181D01*
X442700D01*
X443618Y-75099D01*
Y-77854D01*
X445455D02*
Y-74181D01*
X448210D01*
X449128Y-75099D01*
Y-77854D01*
X451883D02*
X453720D01*
X454638Y-76936D01*
Y-75099D01*
X453720Y-74181D01*
X451883D01*
X450965Y-75099D01*
Y-76936D01*
X451883Y-77854D01*
X456475D02*
X458311D01*
X457393D01*
Y-72344D01*
X456475D01*
X461985Y-77854D02*
X463821D01*
X464740Y-76936D01*
Y-75099D01*
X463821Y-74181D01*
X461985D01*
X461066Y-75099D01*
Y-76936D01*
X461985Y-77854D01*
X468413Y-79691D02*
X469331D01*
X470250Y-78773D01*
Y-74181D01*
X467495D01*
X466576Y-75099D01*
Y-76936D01*
X467495Y-77854D01*
X470250D01*
X472086Y-74181D02*
Y-76936D01*
X473005Y-77854D01*
X475760D01*
Y-78773D01*
X474841Y-79691D01*
X473923D01*
X475760Y-77854D02*
Y-74181D01*
X483107Y-77854D02*
Y-72344D01*
X485861D01*
X486780Y-73263D01*
Y-75099D01*
X485861Y-76018D01*
X483107D01*
X484943D02*
X486780Y-77854D01*
X491371D02*
X489535D01*
X488617Y-76936D01*
Y-75099D01*
X489535Y-74181D01*
X491371D01*
X492290Y-75099D01*
Y-76018D01*
X488617D01*
X494127Y-77854D02*
X496882D01*
X497800Y-76936D01*
X496882Y-76018D01*
X495045D01*
X494127Y-75099D01*
X495045Y-74181D01*
X497800D01*
X502392Y-77854D02*
X500555D01*
X499637Y-76936D01*
Y-75099D01*
X500555Y-74181D01*
X502392D01*
X503310Y-75099D01*
Y-76018D01*
X499637D01*
X506065Y-74181D02*
X507902D01*
X508820Y-75099D01*
Y-77854D01*
X506065D01*
X505147Y-76936D01*
X506065Y-76018D01*
X508820D01*
X510657Y-74181D02*
Y-77854D01*
Y-76018D01*
X511575Y-75099D01*
X512493Y-74181D01*
X513412D01*
X519840D02*
X517085D01*
X516167Y-75099D01*
Y-76936D01*
X517085Y-77854D01*
X519840D01*
X521677Y-72344D02*
Y-77854D01*
Y-75099D01*
X522595Y-74181D01*
X524432D01*
X525350Y-75099D01*
Y-77854D01*
X532697Y-72344D02*
Y-77854D01*
X536370D01*
X539125Y-74181D02*
X540962D01*
X541880Y-75099D01*
Y-77854D01*
X539125D01*
X538207Y-76936D01*
X539125Y-76018D01*
X541880D01*
X543717Y-72344D02*
Y-77854D01*
X546472D01*
X547390Y-76936D01*
Y-76018D01*
Y-75099D01*
X546472Y-74181D01*
X543717D01*
X550145Y-77854D02*
X551982D01*
X552900Y-76936D01*
Y-75099D01*
X551982Y-74181D01*
X550145D01*
X549227Y-75099D01*
Y-76936D01*
X550145Y-77854D01*
X554737Y-74181D02*
Y-77854D01*
Y-76018D01*
X555655Y-75099D01*
X556574Y-74181D01*
X557492D01*
X561165D02*
X563002D01*
X563920Y-75099D01*
Y-77854D01*
X561165D01*
X560247Y-76936D01*
X561165Y-76018D01*
X563920D01*
X566675Y-73263D02*
Y-74181D01*
X565757D01*
X567594D01*
X566675D01*
Y-76936D01*
X567594Y-77854D01*
X571267D02*
X573104D01*
X574022Y-76936D01*
Y-75099D01*
X573104Y-74181D01*
X571267D01*
X570349Y-75099D01*
Y-76936D01*
X571267Y-77854D01*
X575859Y-74181D02*
Y-77854D01*
Y-76018D01*
X576777Y-75099D01*
X577695Y-74181D01*
X578614D01*
X581369D02*
Y-76936D01*
X582287Y-77854D01*
X585042D01*
Y-78773D01*
X584124Y-79691D01*
X583205D01*
X585042Y-77854D02*
Y-74181D01*
X506791Y-36023D02*
X508051Y-34763D01*
X510571D01*
X511831Y-36023D01*
Y-41063D01*
X510571Y-42323D01*
X508051D01*
X506791Y-41063D01*
Y-36023D01*
X514351Y-42323D02*
X516871D01*
X515611D01*
Y-34763D01*
X514351Y-36023D01*
X520651Y-42323D02*
X525692Y-37283D01*
X528211Y-36023D02*
X529471Y-34763D01*
X531991D01*
X533252Y-36023D01*
Y-41063D01*
X531991Y-42323D01*
X529471D01*
X528211Y-41063D01*
Y-36023D01*
X535772Y-34763D02*
X540812D01*
Y-36023D01*
X535772Y-41063D01*
Y-42323D01*
X543332D02*
X548372Y-37283D01*
X555932Y-42323D02*
X550892D01*
X555932Y-37283D01*
Y-36023D01*
X554672Y-34763D01*
X552152D01*
X550892Y-36023D01*
X558452D02*
X559712Y-34763D01*
X562232D01*
X563492Y-36023D01*
Y-41063D01*
X562232Y-42323D01*
X559712D01*
X558452Y-41063D01*
Y-36023D01*
X571052Y-42323D02*
X566012D01*
X571052Y-37283D01*
Y-36023D01*
X569792Y-34763D01*
X567272D01*
X566012Y-36023D01*
X573572D02*
X574832Y-34763D01*
X577352D01*
X578612Y-36023D01*
Y-41063D01*
X577352Y-42323D01*
X574832D01*
X573572Y-41063D01*
Y-36023D01*
X432185Y-42323D02*
X434705D01*
X433445D01*
Y-34763D01*
X432185Y-36023D01*
X438485Y-42323D02*
Y-41063D01*
X439745D01*
Y-42323D01*
X438485D01*
X444785Y-36023D02*
X446045Y-34763D01*
X448565D01*
X449825Y-36023D01*
Y-41063D01*
X448565Y-42323D01*
X446045D01*
X444785Y-41063D01*
Y-36023D01*
X121840Y-55721D02*
X116800D01*
Y-59501D01*
X119320D01*
X116800D01*
Y-63281D01*
X124360D02*
Y-55721D01*
X128140D01*
X129400Y-56981D01*
Y-59501D01*
X128140Y-60761D01*
X124360D01*
X126880D02*
X129400Y-63281D01*
X135700D02*
Y-55721D01*
X131920Y-59501D01*
X136960D01*
X166929Y-82874D02*
X169449D01*
X168189D01*
Y-75314D01*
X166929Y-76574D01*
X173229Y-82874D02*
Y-81614D01*
X174489D01*
Y-82874D01*
X173229D01*
X184569Y-75314D02*
X182049Y-76574D01*
X179529Y-79094D01*
Y-81614D01*
X180789Y-82874D01*
X183309D01*
X184569Y-81614D01*
Y-80354D01*
X183309Y-79094D01*
X179529D01*
X187089Y-82874D02*
Y-77834D01*
X188349D01*
X189609Y-79094D01*
Y-82874D01*
Y-79094D01*
X190869Y-77834D01*
X192129Y-79094D01*
Y-82874D01*
X194649D02*
Y-77834D01*
X195909D01*
X197169Y-79094D01*
Y-82874D01*
Y-79094D01*
X198429Y-77834D01*
X199689Y-79094D01*
Y-82874D01*
X272342Y-93090D02*
X274937Y-96334D01*
Y-99902D01*
X277532Y-93090D02*
X274937Y-96334D01*
X282300Y-95361D02*
Y-99902D01*
Y-96334D02*
X281651Y-95685D01*
X281002Y-95361D01*
X280029D01*
X279381Y-95685D01*
X278732Y-96334D01*
X278408Y-97307D01*
Y-97956D01*
X278732Y-98929D01*
X279381Y-99577D01*
X280029Y-99902D01*
X281002D01*
X281651Y-99577D01*
X282300Y-98929D01*
X284116Y-95361D02*
Y-99902D01*
Y-96658D02*
X285089Y-95685D01*
X285738Y-95361D01*
X286711D01*
X287359Y-95685D01*
X287684Y-96658D01*
Y-99902D01*
X299684Y-94712D02*
X299360Y-94064D01*
X298711Y-93415D01*
X298062Y-93090D01*
X296765D01*
X296116Y-93415D01*
X295468Y-94064D01*
X295143Y-94712D01*
X294819Y-95685D01*
Y-97307D01*
X295143Y-98280D01*
X295468Y-98929D01*
X296116Y-99577D01*
X296765Y-99902D01*
X298062D01*
X298711Y-99577D01*
X299360Y-98929D01*
X299684Y-98280D01*
X301922Y-99253D02*
X301598Y-99577D01*
X301922Y-99902D01*
X302246Y-99577D01*
X301922Y-99253D01*
X312982Y-93090D02*
Y-99902D01*
Y-96334D02*
X312333Y-95685D01*
X311684Y-95361D01*
X310711D01*
X310063Y-95685D01*
X309414Y-96334D01*
X309090Y-97307D01*
Y-97956D01*
X309414Y-98929D01*
X310063Y-99577D01*
X310711Y-99902D01*
X311684D01*
X312333Y-99577D01*
X312982Y-98929D01*
X314798Y-97307D02*
X318690D01*
Y-96658D01*
X318366Y-96010D01*
X318041Y-95685D01*
X317393Y-95361D01*
X316420D01*
X315771Y-95685D01*
X315122Y-96334D01*
X314798Y-97307D01*
Y-97956D01*
X315122Y-98929D01*
X315771Y-99577D01*
X316420Y-99902D01*
X317393D01*
X318041Y-99577D01*
X318690Y-98929D01*
X330690Y-99902D02*
X328096Y-93090D01*
X325501Y-99902D01*
X326474Y-97631D02*
X329717D01*
X335847Y-95361D02*
X332280Y-99902D01*
Y-95361D02*
X335847D01*
X332280Y-99902D02*
X335847D01*
X337274Y-97307D02*
X341166D01*
Y-96658D01*
X340842Y-96010D01*
X340518Y-95685D01*
X339869Y-95361D01*
X338896D01*
X338247Y-95685D01*
X337599Y-96334D01*
X337274Y-97307D01*
Y-97956D01*
X337599Y-98929D01*
X338247Y-99577D01*
X338896Y-99902D01*
X339869D01*
X340518Y-99577D01*
X341166Y-98929D01*
X342626Y-95361D02*
Y-99902D01*
Y-97307D02*
X342950Y-96334D01*
X343599Y-95685D01*
X344248Y-95361D01*
X345221D01*
X345837Y-97307D02*
X349729D01*
Y-96658D01*
X349405Y-96010D01*
X349080Y-95685D01*
X348432Y-95361D01*
X347459D01*
X346810Y-95685D01*
X346161Y-96334D01*
X345837Y-97307D01*
Y-97956D01*
X346161Y-98929D01*
X346810Y-99577D01*
X347459Y-99902D01*
X348432D01*
X349080Y-99577D01*
X349729Y-98929D01*
X355080Y-93090D02*
Y-99902D01*
Y-96334D02*
X354432Y-95685D01*
X353783Y-95361D01*
X352810D01*
X352161Y-95685D01*
X351513Y-96334D01*
X351188Y-97307D01*
Y-97956D01*
X351513Y-98929D01*
X352161Y-99577D01*
X352810Y-99902D01*
X353783D01*
X354432Y-99577D01*
X355080Y-98929D01*
X358518Y-95361D02*
X357870Y-95685D01*
X357221Y-96334D01*
X356897Y-97307D01*
Y-97956D01*
X357221Y-98929D01*
X357870Y-99577D01*
X358518Y-99902D01*
X359491D01*
X360140Y-99577D01*
X360789Y-98929D01*
X361113Y-97956D01*
Y-97307D01*
X360789Y-96334D01*
X360140Y-95685D01*
X359491Y-95361D01*
X358518D01*
X138386Y-95059D02*
Y-101870D01*
X142927Y-95059D02*
Y-101870D01*
X138386Y-98302D02*
X142927D01*
X149997Y-101870D02*
X147402Y-95059D01*
X144808Y-101870D01*
X145781Y-99600D02*
X149024D01*
X156127Y-96032D02*
X155478Y-95383D01*
X154505Y-95059D01*
X153208D01*
X152235Y-95383D01*
X151586Y-96032D01*
Y-96681D01*
X151911Y-97329D01*
X152235Y-97654D01*
X152884Y-97978D01*
X154830Y-98627D01*
X155478Y-98951D01*
X155803Y-99275D01*
X156127Y-99924D01*
Y-100897D01*
X155478Y-101546D01*
X154505Y-101870D01*
X153208D01*
X152235Y-101546D01*
X151586Y-100897D01*
X157651Y-95059D02*
Y-101870D01*
X161543D01*
D14*
X347055Y132677D02*
X351780Y137402D01*
X342331Y132677D02*
X351780Y142126D01*
X337606Y132677D02*
X347055Y142126D01*
X332882Y132677D02*
X342331Y142126D01*
X328157Y132677D02*
X337606Y142126D01*
X323433Y132677D02*
X332882Y142126D01*
X318709Y132677D02*
X328157Y142126D01*
X313984Y132677D02*
X323433Y142126D01*
X309260Y132677D02*
X318709Y142126D01*
X304535Y132677D02*
X313984Y142126D01*
X299811Y132677D02*
X309260Y142126D01*
X295087Y132677D02*
X304535Y142126D01*
X290362Y132677D02*
X299811Y142126D01*
X285638Y132677D02*
X295087Y142126D01*
X280913Y132677D02*
X290362Y142126D01*
X276189Y132677D02*
X285638Y142126D01*
X271465Y132677D02*
X280913Y142126D01*
X266740Y132677D02*
X276189Y142126D01*
X263615Y134277D02*
X271464Y142126D01*
X263615Y139001D02*
X266740Y142126D01*
X347055D02*
X351780Y146850D01*
X342331Y142126D02*
X351780Y151575D01*
X337606Y142126D02*
X347055Y151575D01*
X332882Y142126D02*
X342331Y151575D01*
X328157Y142126D02*
X337606Y151575D01*
X323433Y142126D02*
X332882Y151575D01*
X318709Y142126D02*
X328157Y151575D01*
X313984Y142126D02*
X323433Y151575D01*
X309260Y142126D02*
X318709Y151575D01*
X304535Y142126D02*
X313984Y151575D01*
X299811Y142126D02*
X309260Y151575D01*
X295087Y142126D02*
X304535Y151575D01*
X290362Y142126D02*
X299811Y151575D01*
X285638Y142126D02*
X295087Y151575D01*
X280913Y142126D02*
X290362Y151575D01*
X276189Y142126D02*
X285638Y151575D01*
X271465Y142126D02*
X280913Y151575D01*
X266740Y142126D02*
X276189Y151575D01*
X263615Y143726D02*
X271464Y151575D01*
X263615Y148450D02*
X266740Y151575D01*
X347055D02*
X351780Y156299D01*
X342331Y151575D02*
X351780Y161024D01*
X337606Y151575D02*
X347055Y161024D01*
X332882Y151575D02*
X342331Y161024D01*
X328157Y151575D02*
X337606Y161024D01*
X323433Y151575D02*
X332882Y161024D01*
X318709Y151575D02*
X328157Y161024D01*
X313984Y151575D02*
X323433Y161024D01*
X309260Y151575D02*
X318709Y161024D01*
X304535Y151575D02*
X313984Y161024D01*
X299811Y151575D02*
X309260Y161024D01*
X295087Y151575D02*
X304535Y161024D01*
X290362Y151575D02*
X299811Y161024D01*
X285638Y151575D02*
X295087Y161024D01*
X280913Y151575D02*
X290362Y161024D01*
X276189Y151575D02*
X285638Y161024D01*
X271465Y151575D02*
X280913Y161024D01*
X266740Y151575D02*
X276189Y161024D01*
X263615Y153175D02*
X271464Y161024D01*
X263615Y157899D02*
X266740Y161024D01*
X347055D02*
X351780Y165748D01*
X342331Y161024D02*
X351780Y170473D01*
X337606Y161024D02*
X347055Y170473D01*
X332882Y161024D02*
X342331Y170473D01*
X328157Y161024D02*
X337606Y170473D01*
X323433Y161024D02*
X332882Y170473D01*
X318709Y161024D02*
X328157Y170473D01*
X313984Y161024D02*
X323433Y170473D01*
X309260Y161024D02*
X318709Y170473D01*
X304535Y161024D02*
X313984Y170473D01*
X299811Y161024D02*
X309260Y170473D01*
X295087Y161024D02*
X304535Y170473D01*
X290362Y161024D02*
X299811Y170473D01*
X285638Y161024D02*
X295087Y170473D01*
X280913Y161024D02*
X290362Y170473D01*
X276189Y161024D02*
X285638Y170473D01*
X271465Y161024D02*
X280913Y170473D01*
X266740Y161024D02*
X276189Y170473D01*
X263615Y162623D02*
X271464Y170473D01*
X263615Y167348D02*
X266740Y170473D01*
X347055D02*
X351780Y175197D01*
X342331Y170473D02*
X351780Y179921D01*
X337606Y170473D02*
X347055Y179921D01*
X332882Y170473D02*
X342331Y179921D01*
X328157Y170473D02*
X337606Y179921D01*
X323433Y170473D02*
X332882Y179921D01*
X318709Y170473D02*
X328157Y179921D01*
X313984Y170473D02*
X323433Y179921D01*
X309260Y170473D02*
X318709Y179921D01*
X304535Y170473D02*
X313984Y179921D01*
X299811Y170473D02*
X309260Y179921D01*
X295087Y170473D02*
X304535Y179921D01*
X290362Y170473D02*
X299811Y179921D01*
X285638Y170473D02*
X295087Y179921D01*
X280913Y170473D02*
X290362Y179921D01*
X276189Y170473D02*
X285638Y179921D01*
X271465Y170473D02*
X280913Y179921D01*
X266740Y170473D02*
X276189Y179921D01*
X263615Y172072D02*
X271464Y179921D01*
X263615Y176797D02*
X266740Y179921D01*
X347055D02*
X351780Y184646D01*
X342331Y179921D02*
X351780Y189370D01*
X337606Y179921D02*
X347055Y189370D01*
X332882Y179921D02*
X342331Y189370D01*
X328157Y179921D02*
X337606Y189370D01*
X323433Y179921D02*
X332882Y189370D01*
X318709Y179921D02*
X328157Y189370D01*
X313984Y179921D02*
X323433Y189370D01*
X309260Y179921D02*
X318709Y189370D01*
X304535Y179921D02*
X313984Y189370D01*
X299811Y179921D02*
X309260Y189370D01*
X295087Y179921D02*
X304535Y189370D01*
X290362Y179921D02*
X299811Y189370D01*
X285638Y179921D02*
X295087Y189370D01*
X280913Y179921D02*
X290362Y189370D01*
X276189Y179921D02*
X285638Y189370D01*
X271465Y179921D02*
X280913Y189370D01*
X266740Y179921D02*
X276189Y189370D01*
X263615Y181521D02*
X271464Y189370D01*
X263615Y186246D02*
X266740Y189370D01*
X347055D02*
X351780Y194095D01*
X342331Y189370D02*
X351780Y198819D01*
X337606Y189370D02*
X347055Y198819D01*
X332882Y189370D02*
X342331Y198819D01*
X328157Y189370D02*
X337606Y198819D01*
X323433Y189370D02*
X332882Y198819D01*
X318709Y189370D02*
X328157Y198819D01*
X313984Y189370D02*
X323433Y198819D01*
X309260Y189370D02*
X318709Y198819D01*
X304535Y189370D02*
X313984Y198819D01*
X299811Y189370D02*
X309260Y198819D01*
X295087Y189370D02*
X304535Y198819D01*
X290362Y189370D02*
X299811Y198819D01*
X285638Y189370D02*
X295087Y198819D01*
X280913Y189370D02*
X290362Y198819D01*
X276189Y189370D02*
X285638Y198819D01*
X271465Y189370D02*
X280913Y198819D01*
X266740Y189370D02*
X276189Y198819D01*
X263615Y190970D02*
X271464Y198819D01*
X263615Y195694D02*
X266740Y198819D01*
D15*
X395799Y-95113D02*
X394881Y-94195D01*
X393044D01*
X392126Y-95113D01*
Y-96031D01*
X393044Y-96950D01*
X394881D01*
X395799Y-97868D01*
Y-98786D01*
X394881Y-99705D01*
X393044D01*
X392126Y-98786D01*
X397636Y-101541D02*
Y-96031D01*
X400391D01*
X401309Y-96950D01*
Y-98786D01*
X400391Y-99705D01*
X397636D01*
X404064Y-96031D02*
X405901D01*
X406819Y-96950D01*
Y-99705D01*
X404064D01*
X403146Y-98786D01*
X404064Y-97868D01*
X406819D01*
X412329Y-96031D02*
X409574D01*
X408656Y-96950D01*
Y-98786D01*
X409574Y-99705D01*
X412329D01*
X416921D02*
X415085D01*
X414166Y-98786D01*
Y-96950D01*
X415085Y-96031D01*
X416921D01*
X417839Y-96950D01*
Y-97868D01*
X414166D01*
X419676Y-94195D02*
Y-99705D01*
X423350D01*
X426104Y-96031D02*
X427941D01*
X428860Y-96950D01*
Y-99705D01*
X426104D01*
X425186Y-98786D01*
X426104Y-97868D01*
X428860D01*
X430696Y-94195D02*
Y-99705D01*
X433451D01*
X434370Y-98786D01*
Y-97868D01*
Y-96950D01*
X433451Y-96031D01*
X430696D01*
X441716Y-94195D02*
Y-98786D01*
X442635Y-99705D01*
X444471D01*
X445390Y-98786D01*
Y-94195D01*
X450900D02*
X447226D01*
Y-96950D01*
X449063D01*
X447226D01*
Y-99705D01*
X456410Y-95113D02*
X455491Y-94195D01*
X453655D01*
X452736Y-95113D01*
Y-96031D01*
X453655Y-96950D01*
X455491D01*
X456410Y-97868D01*
Y-98786D01*
X455491Y-99705D01*
X453655D01*
X452736Y-98786D01*
X461920Y-95113D02*
X461001Y-94195D01*
X459165D01*
X458246Y-95113D01*
Y-98786D01*
X459165Y-99705D01*
X461001D01*
X461920Y-98786D01*
D16*
X394882Y-63386D02*
Y-55826D01*
X398662D01*
X399922Y-57086D01*
Y-59606D01*
X398662Y-60866D01*
X394882D01*
X402442Y-58346D02*
Y-63386D01*
Y-60866D01*
X403702Y-59606D01*
X404962Y-58346D01*
X406222D01*
X411262Y-63386D02*
X413782D01*
X415042Y-62126D01*
Y-59606D01*
X413782Y-58346D01*
X411262D01*
X410002Y-59606D01*
Y-62126D01*
X411262Y-63386D01*
X417562Y-65906D02*
X418822D01*
X420082Y-64646D01*
Y-58346D01*
X428902Y-63386D02*
X426382D01*
X425122Y-62126D01*
Y-59606D01*
X426382Y-58346D01*
X428902D01*
X430162Y-59606D01*
Y-60866D01*
X425122D01*
X437722Y-58346D02*
X433942D01*
X432682Y-59606D01*
Y-62126D01*
X433942Y-63386D01*
X437722D01*
X441502Y-57086D02*
Y-58346D01*
X440242D01*
X442762D01*
X441502D01*
Y-62126D01*
X442762Y-63386D01*
X446542Y-58346D02*
X447802D01*
Y-59606D01*
X446542D01*
Y-58346D01*
Y-62126D02*
X447802D01*
Y-63386D01*
X446542D01*
Y-62126D01*
X460402Y-55826D02*
X462922D01*
X461662D01*
Y-63386D01*
X460402D01*
X462922D01*
X466703Y-55826D02*
X469222D01*
X467963D01*
Y-63386D01*
X466703D01*
X469222D01*
X473002D02*
Y-55826D01*
X476783D01*
X478043Y-57086D01*
Y-59606D01*
X476783Y-60866D01*
X473002D01*
X48524Y-101378D02*
Y-93818D01*
X52304D01*
X53564Y-95078D01*
Y-97598D01*
X52304Y-98858D01*
X48524D01*
X61124Y-95078D02*
X59864Y-93818D01*
X57344D01*
X56084Y-95078D01*
Y-100118D01*
X57344Y-101378D01*
X59864D01*
X61124Y-100118D01*
X63644Y-93818D02*
Y-101378D01*
X67424D01*
X68684Y-100118D01*
Y-98858D01*
X67424Y-97598D01*
X63644D01*
X67424D01*
X68684Y-96338D01*
Y-95078D01*
X67424Y-93818D01*
X63644D01*
X83804Y-95078D02*
X82544Y-93818D01*
X80024D01*
X78764Y-95078D01*
Y-96338D01*
X80024Y-97598D01*
X82544D01*
X83804Y-98858D01*
Y-100118D01*
X82544Y-101378D01*
X80024D01*
X78764Y-100118D01*
X86324Y-96338D02*
Y-100118D01*
X87584Y-101378D01*
X91364D01*
Y-96338D01*
X93884D02*
Y-101378D01*
Y-98858D01*
X95144Y-97598D01*
X96404Y-96338D01*
X97664D01*
X102704Y-101378D02*
Y-95078D01*
Y-97598D01*
X101444D01*
X103964D01*
X102704D01*
Y-95078D01*
X103964Y-93818D01*
X109004Y-96338D02*
X111524D01*
X112784Y-97598D01*
Y-101378D01*
X109004D01*
X107744Y-100118D01*
X109004Y-98858D01*
X112784D01*
X120344Y-96338D02*
X116564D01*
X115304Y-97598D01*
Y-100118D01*
X116564Y-101378D01*
X120344D01*
X126644D02*
X124124D01*
X122864Y-100118D01*
Y-97598D01*
X124124Y-96338D01*
X126644D01*
X127904Y-97598D01*
Y-98858D01*
X122864D01*
X130424Y-96338D02*
X131684D01*
Y-97598D01*
X130424D01*
Y-96338D01*
Y-100118D02*
X131684D01*
Y-101378D01*
X130424D01*
Y-100118D01*
X395768Y-43259D02*
Y-33762D01*
X400516D01*
X402099Y-35345D01*
Y-38511D01*
X400516Y-40094D01*
X395768D01*
X398933D02*
X402099Y-43259D01*
X411596Y-33762D02*
X405265D01*
Y-43259D01*
X411596D01*
X405265Y-38511D02*
X408430D01*
X414762Y-33762D02*
Y-40094D01*
X417927Y-43259D01*
X421093Y-40094D01*
Y-33762D01*
X424259Y-36928D02*
X425841D01*
Y-38511D01*
X424259D01*
Y-36928D01*
Y-41677D02*
X425841D01*
Y-43259D01*
X424259D01*
Y-41677D01*
X464567Y-34468D02*
Y-42028D01*
X468347D01*
X469607Y-40767D01*
Y-35728D01*
X468347Y-34468D01*
X464567D01*
X472127Y-42028D02*
Y-36988D01*
X474647Y-34468D01*
X477167Y-36988D01*
Y-42028D01*
Y-38247D01*
X472127D01*
X479687Y-34468D02*
X484727D01*
X482207D01*
Y-42028D01*
X492287Y-34468D02*
X487247D01*
Y-42028D01*
X492287D01*
X487247Y-38247D02*
X489767D01*
X494807Y-36988D02*
X496067D01*
Y-38247D01*
X494807D01*
Y-36988D01*
Y-40767D02*
X496067D01*
Y-42028D01*
X494807D01*
Y-40767D01*
X50550Y-63281D02*
Y-55721D01*
X53070Y-58241D01*
X55590Y-55721D01*
Y-63281D01*
X58110D02*
Y-58241D01*
X60630Y-55721D01*
X63150Y-58241D01*
Y-63281D01*
Y-59501D01*
X58110D01*
X65670Y-55721D02*
X70710D01*
X68190D01*
Y-63281D01*
X78270Y-55721D02*
X73230D01*
Y-63281D01*
X78270D01*
X73230Y-59501D02*
X75750D01*
X80790Y-63281D02*
Y-55721D01*
X84570D01*
X85830Y-56981D01*
Y-59501D01*
X84570Y-60761D01*
X80790D01*
X83310D02*
X85830Y-63281D01*
X88350Y-55721D02*
X90870D01*
X89610D01*
Y-63281D01*
X88350D01*
X90870D01*
X94650D02*
Y-58241D01*
X97170Y-55721D01*
X99690Y-58241D01*
Y-63281D01*
Y-59501D01*
X94650D01*
X102210Y-55721D02*
Y-63281D01*
X107250D01*
X109770Y-58241D02*
X111030D01*
Y-59501D01*
X109770D01*
Y-58241D01*
Y-62021D02*
X111030D01*
Y-63281D01*
X109770D01*
Y-62021D01*
X212500Y-92342D02*
Y-99902D01*
X216280D01*
X217540Y-98642D01*
Y-93602D01*
X216280Y-92342D01*
X212500D01*
X220060Y-94862D02*
Y-99902D01*
Y-97382D01*
X221320Y-96122D01*
X222580Y-94862D01*
X223840D01*
X228880D02*
X231400D01*
X232660Y-96122D01*
Y-99902D01*
X228880D01*
X227620Y-98642D01*
X228880Y-97382D01*
X232660D01*
X235180Y-94862D02*
Y-98642D01*
X236440Y-99902D01*
X237700Y-98642D01*
X238960Y-99902D01*
X240220Y-98642D01*
Y-94862D01*
X242740Y-99902D02*
X245260D01*
X244000D01*
Y-94862D01*
X242740D01*
X249040Y-99902D02*
Y-94862D01*
X252820D01*
X254080Y-96122D01*
Y-99902D01*
X259120Y-102422D02*
X260380D01*
X261640Y-101162D01*
Y-94862D01*
X257860D01*
X256600Y-96122D01*
Y-98642D01*
X257860Y-99902D01*
X261640D01*
X264160Y-94862D02*
X265420D01*
Y-96122D01*
X264160D01*
Y-94862D01*
Y-98642D02*
X265420D01*
Y-99902D01*
X264160D01*
Y-98642D01*
X215768Y-56397D02*
X214508Y-55137D01*
X211988D01*
X210728Y-56397D01*
Y-57657D01*
X211988Y-58917D01*
X214508D01*
X215768Y-60177D01*
Y-61437D01*
X214508Y-62697D01*
X211988D01*
X210728Y-61437D01*
X218288Y-62697D02*
X220808D01*
X219548D01*
Y-57657D01*
X218288D01*
X224588Y-62697D02*
X227109D01*
X225849D01*
Y-55137D01*
X224588D01*
X230889Y-62697D02*
Y-55137D01*
Y-60177D02*
X234668Y-57657D01*
X230889Y-60177D02*
X234668Y-62697D01*
X238449D02*
X242229D01*
X243489Y-61437D01*
X242229Y-60177D01*
X239709D01*
X238449Y-58917D01*
X239709Y-57657D01*
X243489D01*
X251049D02*
X247269D01*
X246009Y-58917D01*
Y-61437D01*
X247269Y-62697D01*
X251049D01*
X253569Y-57657D02*
Y-62697D01*
Y-60177D01*
X254829Y-58917D01*
X256089Y-57657D01*
X257349D01*
X264909Y-62697D02*
X262389D01*
X261129Y-61437D01*
Y-58917D01*
X262389Y-57657D01*
X264909D01*
X266169Y-58917D01*
Y-60177D01*
X261129D01*
X272469Y-62697D02*
X269949D01*
X268689Y-61437D01*
Y-58917D01*
X269949Y-57657D01*
X272469D01*
X273729Y-58917D01*
Y-60177D01*
X268689D01*
X276249Y-62697D02*
Y-57657D01*
X280029D01*
X281289Y-58917D01*
Y-62697D01*
X296409Y-57657D02*
X292629D01*
X291369Y-58917D01*
Y-61437D01*
X292629Y-62697D01*
X296409D01*
X300189D02*
X302709D01*
X303969Y-61437D01*
Y-58917D01*
X302709Y-57657D01*
X300189D01*
X298929Y-58917D01*
Y-61437D01*
X300189Y-62697D01*
X306489D02*
X309009D01*
X307749D01*
Y-55137D01*
X306489D01*
X314049Y-62697D02*
X316569D01*
X317829Y-61437D01*
Y-58917D01*
X316569Y-57657D01*
X314049D01*
X312789Y-58917D01*
Y-61437D01*
X314049Y-62697D01*
X320349Y-57657D02*
Y-62697D01*
Y-60177D01*
X321609Y-58917D01*
X322869Y-57657D01*
X324129D01*
X327909D02*
X329169D01*
Y-58917D01*
X327909D01*
Y-57657D01*
Y-61437D02*
X329169D01*
Y-62697D01*
X327909D01*
Y-61437D01*
X341769Y-57657D02*
Y-61437D01*
X343029Y-62697D01*
X344289Y-61437D01*
X345549Y-62697D01*
X346809Y-61437D01*
Y-57657D01*
X349329Y-55137D02*
Y-62697D01*
Y-58917D01*
X350589Y-57657D01*
X353110D01*
X354369Y-58917D01*
Y-62697D01*
X356890D02*
X359409D01*
X358150D01*
Y-57657D01*
X356890D01*
X364450Y-56397D02*
Y-57657D01*
X363190D01*
X365710D01*
X364450D01*
Y-61437D01*
X365710Y-62697D01*
X373270D02*
X370750D01*
X369490Y-61437D01*
Y-58917D01*
X370750Y-57657D01*
X373270D01*
X374530Y-58917D01*
Y-60177D01*
X369490D01*
X49270Y-74471D02*
Y-82031D01*
X53050D01*
X54310Y-80771D01*
Y-79511D01*
X53050Y-78251D01*
X49270D01*
X53050D01*
X54310Y-76991D01*
Y-75731D01*
X53050Y-74471D01*
X49270D01*
X58090Y-82031D02*
X60610D01*
X61870Y-80771D01*
Y-78251D01*
X60610Y-76991D01*
X58090D01*
X56830Y-78251D01*
Y-80771D01*
X58090Y-82031D01*
X65650Y-76991D02*
X68170D01*
X69431Y-78251D01*
Y-82031D01*
X65650D01*
X64390Y-80771D01*
X65650Y-79511D01*
X69431D01*
X71951Y-76991D02*
Y-82031D01*
Y-79511D01*
X73211Y-78251D01*
X74471Y-76991D01*
X75731D01*
X84551Y-74471D02*
Y-82031D01*
X80771D01*
X79511Y-80771D01*
Y-78251D01*
X80771Y-76991D01*
X84551D01*
X94631Y-74471D02*
X99671D01*
X97151D01*
Y-82031D01*
X102191Y-74471D02*
Y-82031D01*
Y-78251D01*
X103451Y-76991D01*
X105971D01*
X107231Y-78251D01*
Y-82031D01*
X109751D02*
X112271D01*
X111011D01*
Y-76991D01*
X109751D01*
X121091D02*
X117311D01*
X116051Y-78251D01*
Y-80771D01*
X117311Y-82031D01*
X121091D01*
X123611D02*
Y-74471D01*
Y-79511D02*
X127391Y-76991D01*
X123611Y-79511D02*
X127391Y-82031D01*
X131171D02*
Y-76991D01*
X134951D01*
X136211Y-78251D01*
Y-82031D01*
X142511D02*
X139991D01*
X138731Y-80771D01*
Y-78251D01*
X139991Y-76991D01*
X142511D01*
X143771Y-78251D01*
Y-79511D01*
X138731D01*
X146291Y-82031D02*
X150071D01*
X151331Y-80771D01*
X150071Y-79511D01*
X147551D01*
X146291Y-78251D01*
X147551Y-76991D01*
X151331D01*
X153851Y-82031D02*
X157631D01*
X158891Y-80771D01*
X157631Y-79511D01*
X155111D01*
X153851Y-78251D01*
X155111Y-76991D01*
X158891D01*
X161411D02*
X162671D01*
Y-78251D01*
X161411D01*
Y-76991D01*
Y-80771D02*
X162671D01*
Y-82031D01*
X161411D01*
Y-80771D01*
X211516Y-74527D02*
Y-82087D01*
X216556D01*
X220336Y-77047D02*
X222856D01*
X224116Y-78307D01*
Y-82087D01*
X220336D01*
X219076Y-80827D01*
X220336Y-79567D01*
X224116D01*
X226636Y-77047D02*
Y-80827D01*
X227896Y-82087D01*
X231676D01*
Y-83347D01*
X230416Y-84607D01*
X229156D01*
X231676Y-82087D02*
Y-77047D01*
X237976Y-82087D02*
X235456D01*
X234196Y-80827D01*
Y-78307D01*
X235456Y-77047D01*
X237976D01*
X239236Y-78307D01*
Y-79567D01*
X234196D01*
X241756Y-77047D02*
Y-82087D01*
Y-79567D01*
X243016Y-78307D01*
X244276Y-77047D01*
X245536D01*
X249316Y-82087D02*
X253096D01*
X254356Y-80827D01*
X253096Y-79567D01*
X250576D01*
X249316Y-78307D01*
X250576Y-77047D01*
X254356D01*
X256876D02*
X258136D01*
Y-78307D01*
X256876D01*
Y-77047D01*
Y-80827D02*
X258136D01*
Y-82087D01*
X256876D01*
Y-80827D01*
X270736Y-75787D02*
X271996Y-74527D01*
X274516D01*
X275776Y-75787D01*
Y-80827D01*
X274516Y-82087D01*
X271996D01*
X270736Y-80827D01*
Y-75787D01*
X283336Y-82087D02*
X278296D01*
X283336Y-77047D01*
Y-75787D01*
X282076Y-74527D01*
X279556D01*
X278296Y-75787D01*
D17*
X51181Y-33952D02*
X57846D01*
X54513D01*
Y-43948D01*
X61178Y-33952D02*
X64510D01*
X62844D01*
Y-43948D01*
X61178D01*
X64510D01*
X69508Y-33952D02*
X76173D01*
X72841D01*
Y-43948D01*
X79505Y-33952D02*
Y-43948D01*
X86170D01*
X96167Y-33952D02*
X89502D01*
Y-43948D01*
X96167D01*
X89502Y-38950D02*
X92834D01*
X99499Y-37284D02*
X101165D01*
Y-38950D01*
X99499D01*
Y-37284D01*
Y-42282D02*
X101165D01*
Y-43948D01*
X99499D01*
Y-42282D01*
X117826Y-33952D02*
X121159D01*
X119492D01*
Y-43948D01*
X117826D01*
X121159D01*
X126157Y-33952D02*
X129489D01*
X127823D01*
Y-43948D01*
X126157D01*
X129489D01*
X134487D02*
Y-33952D01*
X139486D01*
X141152Y-35618D01*
Y-38950D01*
X139486Y-40616D01*
X134487D01*
X154481Y-43948D02*
Y-33952D01*
X161146Y-43948D01*
Y-33952D01*
X164478Y-43948D02*
Y-42282D01*
X166144D01*
Y-43948D01*
X164478D01*
X172809D02*
X176141D01*
X174475D01*
Y-33952D01*
X172809Y-35618D01*
X191136Y-33952D02*
Y-43948D01*
X196134D01*
X197800Y-42282D01*
Y-40616D01*
X196134Y-38950D01*
X191136D01*
X196134D01*
X197800Y-37284D01*
Y-35618D01*
X196134Y-33952D01*
X191136D01*
X206131D02*
X202799D01*
X201133Y-35618D01*
Y-42282D01*
X202799Y-43948D01*
X206131D01*
X207797Y-42282D01*
Y-35618D01*
X206131Y-33952D01*
X211129Y-43948D02*
Y-37284D01*
X214462Y-33952D01*
X217794Y-37284D01*
Y-43948D01*
Y-38950D01*
X211129D01*
X221126Y-43948D02*
Y-33952D01*
X226125D01*
X227791Y-35618D01*
Y-38950D01*
X226125Y-40616D01*
X221126D01*
X224458D02*
X227791Y-43948D01*
X231123Y-33952D02*
Y-43948D01*
X236121D01*
X237788Y-42282D01*
Y-35618D01*
X236121Y-33952D01*
X231123D01*
X257781Y-35618D02*
X256115Y-33952D01*
X252783D01*
X251116Y-35618D01*
Y-42282D01*
X252783Y-43948D01*
X256115D01*
X257781Y-42282D01*
X261113Y-33952D02*
Y-43948D01*
Y-38950D01*
X267778D01*
Y-33952D01*
Y-43948D01*
X271110D02*
Y-37284D01*
X274442Y-33952D01*
X277775Y-37284D01*
Y-43948D01*
Y-38950D01*
X271110D01*
X281107Y-43948D02*
Y-33952D01*
X286105D01*
X287771Y-35618D01*
Y-38950D01*
X286105Y-40616D01*
X281107D01*
X284439D02*
X287771Y-43948D01*
X297768Y-35618D02*
X296102Y-33952D01*
X292770D01*
X291104Y-35618D01*
Y-42282D01*
X292770Y-43948D01*
X296102D01*
X297768Y-42282D01*
Y-38950D01*
X294436D01*
X307765Y-33952D02*
X301100D01*
Y-43948D01*
X307765D01*
X301100Y-38950D02*
X304433D01*
D38*
X-4528Y276968D02*
X555320D01*
X-4528Y229724D02*
X555320D01*
X-4528Y217913D02*
X555320D01*
Y288779D01*
X-4528D02*
X555320D01*
X-4528Y217913D02*
Y288779D01*
X492738Y217913D02*
Y288779D01*
X434014Y217913D02*
Y288779D01*
X387569Y217913D02*
Y288779D01*
X269494Y217913D02*
Y288779D01*
X211715Y217913D02*
Y288779D01*
X171882Y217913D02*
Y288779D01*
X81357Y217913D02*
Y288779D01*
X38849Y217913D02*
Y288779D01*
D41*
X66472Y47165D02*
G03*
X66472Y47165I-1000J0D01*
G01*
X76472D02*
G03*
X76472Y47165I-1000J0D01*
G01*
X86472D02*
G03*
X86472Y47165I-1000J0D01*
G01*
X96472D02*
G03*
X96472Y47165I-1000J0D01*
G01*
X106472D02*
G03*
X106472Y47165I-1000J0D01*
G01*
X116472D02*
G03*
X116472Y47165I-1000J0D01*
G01*
X126472D02*
G03*
X126472Y47165I-1000J0D01*
G01*
Y57165D02*
G03*
X126472Y57165I-1000J0D01*
G01*
X116472D02*
G03*
X116472Y57165I-1000J0D01*
G01*
X106472D02*
G03*
X106472Y57165I-1000J0D01*
G01*
X96472D02*
G03*
X96472Y57165I-1000J0D01*
G01*
X86472D02*
G03*
X86472Y57165I-1000J0D01*
G01*
X76472D02*
G03*
X76472Y57165I-1000J0D01*
G01*
X66472D02*
G03*
X66472Y57165I-1000J0D01*
G01*
X271669Y50787D02*
G03*
X271669Y50787I-1000J0D01*
G01*
X261827D02*
G03*
X261827Y50787I-1000J0D01*
G01*
X166866Y57165D02*
G03*
X166866Y57165I-1000J0D01*
G01*
X176866D02*
G03*
X176866Y57165I-1000J0D01*
G01*
X186866D02*
G03*
X186866Y57165I-1000J0D01*
G01*
X196866D02*
G03*
X196866Y57165I-1000J0D01*
G01*
X206866D02*
G03*
X206866Y57165I-1000J0D01*
G01*
X216866D02*
G03*
X216866Y57165I-1000J0D01*
G01*
X226866D02*
G03*
X226866Y57165I-1000J0D01*
G01*
Y47165D02*
G03*
X226866Y47165I-1000J0D01*
G01*
X216866D02*
G03*
X216866Y47165I-1000J0D01*
G01*
X206866D02*
G03*
X206866Y47165I-1000J0D01*
G01*
X196866D02*
G03*
X196866Y47165I-1000J0D01*
G01*
X186866D02*
G03*
X186866Y47165I-1000J0D01*
G01*
X176866D02*
G03*
X176866Y47165I-1000J0D01*
G01*
X166866D02*
G03*
X166866Y47165I-1000J0D01*
G01*
X143398Y16035D02*
X143898Y15535D01*
X142898Y16035D02*
X143398D01*
X142898D02*
X143398Y16535D01*
X142898Y17035D02*
X143398Y16535D01*
X142898Y17035D02*
X143398D01*
X143898Y17535D01*
X144398Y17035D01*
X144898D01*
X144398Y16535D02*
X144898Y17035D01*
X144398Y16535D02*
X144898Y16035D01*
X144398D02*
X144898D01*
X143898Y15535D02*
X144398Y16035D01*
X148319D02*
X148819Y15535D01*
X147819Y16035D02*
X148319D01*
X147819D02*
X148319Y16535D01*
X147819Y17035D02*
X148319Y16535D01*
X147819Y17035D02*
X148319D01*
X148819Y17535D01*
X149319Y17035D01*
X149819D01*
X149319Y16535D02*
X149819Y17035D01*
X149319Y16535D02*
X149819Y16035D01*
X149319D02*
X149819D01*
X148819Y15535D02*
X149319Y16035D01*
X79815D02*
X80315Y15535D01*
X79315Y16035D02*
X79815D01*
X79315D02*
X79815Y16535D01*
X79315Y17035D02*
X79815Y16535D01*
X79315Y17035D02*
X79815D01*
X80315Y17535D01*
X80815Y17035D01*
X81315D01*
X80815Y16535D02*
X81315Y17035D01*
X80815Y16535D02*
X81315Y16035D01*
X80815D02*
X81315D01*
X80315Y15535D02*
X80815Y16035D01*
X74894D02*
X75394Y15535D01*
X74394Y16035D02*
X74894D01*
X74394D02*
X74894Y16535D01*
X74394Y17035D02*
X74894Y16535D01*
X74394Y17035D02*
X74894D01*
X75394Y17535D01*
X75894Y17035D01*
X76394D01*
X75894Y16535D02*
X76394Y17035D01*
X75894Y16535D02*
X76394Y16035D01*
X75894D02*
X76394D01*
X75394Y15535D02*
X75894Y16035D01*
X62000Y80932D02*
X62500Y80432D01*
X61500Y80932D02*
X62000D01*
X61500D02*
X62000Y81432D01*
X61500Y81932D02*
X62000Y81432D01*
X61500Y81932D02*
X62000D01*
X62500Y82432D01*
X63000Y81932D01*
X63500D01*
X63000Y81432D02*
X63500Y81932D01*
X63000Y81432D02*
X63500Y80932D01*
X63000D02*
X63500D01*
X62500Y80432D02*
X63000Y80932D01*
X66772Y80996D02*
X67272Y80496D01*
X66272Y80996D02*
X66772D01*
X66272D02*
X66772Y81496D01*
X66272Y81996D02*
X66772Y81496D01*
X66272Y81996D02*
X66772D01*
X67272Y82496D01*
X67772Y81996D01*
X68272D01*
X67772Y81496D02*
X68272Y81996D01*
X67772Y81496D02*
X68272Y80996D01*
X67772D02*
X68272D01*
X67272Y80496D02*
X67772Y80996D01*
X71941D02*
X72441Y80496D01*
X71441Y80996D02*
X71941D01*
X71441D02*
X71941Y81496D01*
X71441Y81996D02*
X71941Y81496D01*
X71441Y81996D02*
X71941D01*
X72441Y82496D01*
X72941Y81996D01*
X73441D01*
X72941Y81496D02*
X73441Y81996D01*
X72941Y81496D02*
X73441Y80996D01*
X72941D02*
X73441D01*
X72441Y80496D02*
X72941Y80996D01*
X76862D02*
X77362Y80496D01*
X76362Y80996D02*
X76862D01*
X76362D02*
X76862Y81496D01*
X76362Y81996D02*
X76862Y81496D01*
X76362Y81996D02*
X76862D01*
X77362Y82496D01*
X77862Y81996D01*
X78362D01*
X77862Y81496D02*
X78362Y81996D01*
X77862Y81496D02*
X78362Y80996D01*
X77862D02*
X78362D01*
X77362Y80496D02*
X77862Y80996D01*
X165866Y68094D02*
X166866Y70095D01*
X164866D02*
X166866D01*
X164866D02*
X165866Y68094D01*
X65472D02*
X66472Y70095D01*
X64472D02*
X66472D01*
X64472D02*
X65472Y68094D01*
X11402Y10811D02*
X13402D01*
Y12811D01*
X11402D02*
X13402D01*
X11402Y10811D02*
Y12811D01*
X311402Y10811D02*
X313402D01*
Y12811D01*
X311402D02*
X313402D01*
X311402Y10811D02*
Y12811D01*
Y97425D02*
X313402D01*
Y99425D01*
X311402D02*
X313402D01*
X311402Y97425D02*
Y99425D01*
X11402Y97425D02*
X13402D01*
Y99425D01*
X11402D02*
X13402D01*
X11402Y97425D02*
Y99425D01*
X244094Y77740D02*
X245094Y79740D01*
X243094D02*
X245094D01*
X243094D02*
X244094Y77740D01*
D42*
X496281Y286179D02*
X500060D01*
X498171D01*
Y280512D01*
X504783D02*
X502893D01*
X501949Y281456D01*
Y283346D01*
X502893Y284290D01*
X504783D01*
X505727Y283346D01*
Y282401D01*
X501949D01*
X507616Y280512D02*
Y284290D01*
X508561D01*
X509506Y283346D01*
Y280512D01*
Y283346D01*
X510450Y284290D01*
X511395Y283346D01*
Y280512D01*
X513284Y278623D02*
Y284290D01*
X516117D01*
X517062Y283346D01*
Y281456D01*
X516117Y280512D01*
X513284D01*
X518951D02*
X520840D01*
X519896D01*
Y286179D01*
X518951D01*
X524619Y284290D02*
X526508D01*
X527452Y283346D01*
Y280512D01*
X524619D01*
X523674Y281456D01*
X524619Y282401D01*
X527452D01*
X530286Y285235D02*
Y284290D01*
X529342D01*
X531231D01*
X530286D01*
Y281456D01*
X531231Y280512D01*
X536898D02*
X535009D01*
X534064Y281456D01*
Y283346D01*
X535009Y284290D01*
X536898D01*
X537843Y283346D01*
Y282401D01*
X534064D01*
X437557Y280512D02*
Y286179D01*
X440391D01*
X441335Y285235D01*
Y283346D01*
X440391Y282401D01*
X437557D01*
X444169Y284290D02*
X446058D01*
X447003Y283346D01*
Y280512D01*
X444169D01*
X443225Y281456D01*
X444169Y282401D01*
X447003D01*
X452670Y286179D02*
Y280512D01*
X449837D01*
X448892Y281456D01*
Y283346D01*
X449837Y284290D01*
X452670D01*
X464005Y285235D02*
X463061Y286179D01*
X461172D01*
X460227Y285235D01*
Y284290D01*
X461172Y283346D01*
X463061D01*
X464005Y282401D01*
Y281456D01*
X463061Y280512D01*
X461172D01*
X460227Y281456D01*
X465894Y286179D02*
Y280512D01*
Y283346D01*
X466839Y284290D01*
X468728D01*
X469673Y283346D01*
Y280512D01*
X472507Y284290D02*
X474396D01*
X475340Y283346D01*
Y280512D01*
X472507D01*
X471562Y281456D01*
X472507Y282401D01*
X475340D01*
X477229Y278623D02*
Y284290D01*
X480063D01*
X481008Y283346D01*
Y281456D01*
X480063Y280512D01*
X477229D01*
X485731D02*
X483841D01*
X482897Y281456D01*
Y283346D01*
X483841Y284290D01*
X485731D01*
X486675Y283346D01*
Y282401D01*
X482897D01*
X391112Y286179D02*
Y282401D01*
X393002Y280512D01*
X394891Y282401D01*
Y286179D01*
X396780Y280512D02*
X398669D01*
X397724D01*
Y284290D01*
X396780D01*
X402447D02*
X404336D01*
X405281Y283346D01*
Y280512D01*
X402447D01*
X401503Y281456D01*
X402447Y282401D01*
X405281D01*
X407170Y280512D02*
X410949Y284290D01*
X412838Y280512D02*
Y286179D01*
X415671D01*
X416616Y285235D01*
Y283346D01*
X415671Y282401D01*
X412838D01*
X419450Y284290D02*
X421339D01*
X422283Y283346D01*
Y280512D01*
X419450D01*
X418505Y281456D01*
X419450Y282401D01*
X422283D01*
X427951Y286179D02*
Y280512D01*
X425117D01*
X424172Y281456D01*
Y283346D01*
X425117Y284290D01*
X427951D01*
X273038Y286179D02*
Y280512D01*
X275871D01*
X276816Y281456D01*
Y285235D01*
X275871Y286179D01*
X273038D01*
X278705Y284290D02*
Y280512D01*
Y282401D01*
X279650Y283346D01*
X280594Y284290D01*
X281539D01*
X284372Y280512D02*
X286262D01*
X285317D01*
Y284290D01*
X284372D01*
X289095Y280512D02*
X290985D01*
X290040D01*
Y286179D01*
X289095D01*
X293818Y280512D02*
X295707D01*
X294763D01*
Y286179D01*
X293818D01*
X304209D02*
Y280512D01*
X307987D01*
X310821Y284290D02*
X312710D01*
X313654Y283346D01*
Y280512D01*
X310821D01*
X309876Y281456D01*
X310821Y282401D01*
X313654D01*
X315544Y284290D02*
Y281456D01*
X316488Y280512D01*
X319322D01*
Y279567D01*
X318377Y278623D01*
X317433D01*
X319322Y280512D02*
Y284290D01*
X324045Y280512D02*
X322155D01*
X321211Y281456D01*
Y283346D01*
X322155Y284290D01*
X324045D01*
X324989Y283346D01*
Y282401D01*
X321211D01*
X326878Y284290D02*
Y280512D01*
Y282401D01*
X327823Y283346D01*
X328768Y284290D01*
X329712D01*
X338213Y280512D02*
Y286179D01*
X341047D01*
X341992Y285235D01*
Y283346D01*
X341047Y282401D01*
X338213D01*
X344825Y284290D02*
X346714D01*
X347659Y283346D01*
Y280512D01*
X344825D01*
X343881Y281456D01*
X344825Y282401D01*
X347659D01*
X349548Y280512D02*
X351437D01*
X350493D01*
Y284290D01*
X349548D01*
X354271D02*
Y280512D01*
Y282401D01*
X355216Y283346D01*
X356160Y284290D01*
X357105D01*
X215258Y286179D02*
Y280512D01*
Y283346D01*
X219036D01*
Y286179D01*
Y280512D01*
X221870D02*
X223759D01*
X224704Y281456D01*
Y283346D01*
X223759Y284290D01*
X221870D01*
X220925Y283346D01*
Y281456D01*
X221870Y280512D01*
X226593D02*
X228482D01*
X227537D01*
Y286179D01*
X226593D01*
X234149Y280512D02*
X232260D01*
X231316Y281456D01*
Y283346D01*
X232260Y284290D01*
X234149D01*
X235094Y283346D01*
Y282401D01*
X231316D01*
X242651Y286179D02*
X246429D01*
X244540D01*
Y280512D01*
X248318Y284290D02*
Y281456D01*
X249263Y280512D01*
X252096D01*
Y279567D01*
X251152Y278623D01*
X250207D01*
X252096Y280512D02*
Y284290D01*
X253986Y278623D02*
Y284290D01*
X256819D01*
X257764Y283346D01*
Y281456D01*
X256819Y280512D01*
X253986D01*
X262487D02*
X260598D01*
X259653Y281456D01*
Y283346D01*
X260598Y284290D01*
X262487D01*
X263431Y283346D01*
Y282401D01*
X259653D01*
X175425Y280512D02*
Y286179D01*
X178259D01*
X179203Y285235D01*
Y283346D01*
X178259Y282401D01*
X175425D01*
X181093Y280512D02*
X182982D01*
X182037D01*
Y286179D01*
X181093D01*
X186760Y284290D02*
X188649D01*
X189594Y283346D01*
Y280512D01*
X186760D01*
X185816Y281456D01*
X186760Y282401D01*
X189594D01*
X192428Y285235D02*
Y284290D01*
X191483D01*
X193372D01*
X192428D01*
Y281456D01*
X193372Y280512D01*
X199040D02*
X197150D01*
X196206Y281456D01*
Y283346D01*
X197150Y284290D01*
X199040D01*
X199984Y283346D01*
Y282401D01*
X196206D01*
X205652Y286179D02*
Y280512D01*
X202818D01*
X201873Y281456D01*
Y283346D01*
X202818Y284290D01*
X205652D01*
X84900Y286179D02*
Y280512D01*
Y283346D01*
X88679D01*
Y286179D01*
Y280512D01*
X91513D02*
X93402D01*
X94346Y281456D01*
Y283346D01*
X93402Y284290D01*
X91513D01*
X90568Y283346D01*
Y281456D01*
X91513Y280512D01*
X96235D02*
X98124D01*
X97180D01*
Y286179D01*
X96235D01*
X103792Y280512D02*
X101903D01*
X100958Y281456D01*
Y283346D01*
X101903Y284290D01*
X103792D01*
X104737Y283346D01*
Y282401D01*
X100958D01*
X116071Y285235D02*
X115127Y286179D01*
X113238D01*
X112293Y285235D01*
Y284290D01*
X113238Y283346D01*
X115127D01*
X116071Y282401D01*
Y281456D01*
X115127Y280512D01*
X113238D01*
X112293Y281456D01*
X117961Y280512D02*
X119850D01*
X118905D01*
Y284290D01*
X117961D01*
X122684D02*
X126462D01*
X122684Y280512D01*
X126462D01*
X131185D02*
X129296D01*
X128351Y281456D01*
Y283346D01*
X129296Y284290D01*
X131185D01*
X132129Y283346D01*
Y282401D01*
X128351D01*
X46170Y285235D02*
X45226Y286179D01*
X43336D01*
X42392Y285235D01*
Y281456D01*
X43336Y280512D01*
X45226D01*
X46170Y281456D01*
X49004Y280512D02*
X50893D01*
X51837Y281456D01*
Y283346D01*
X50893Y284290D01*
X49004D01*
X48059Y283346D01*
Y281456D01*
X49004Y280512D01*
X53727Y284290D02*
Y281456D01*
X54671Y280512D01*
X57505D01*
Y284290D01*
X59394Y280512D02*
Y284290D01*
X62228D01*
X63173Y283346D01*
Y280512D01*
X66006Y285235D02*
Y284290D01*
X65062D01*
X66951D01*
X66006D01*
Y281456D01*
X66951Y280512D01*
X6337Y285235D02*
X5393Y286179D01*
X3504D01*
X2559Y285235D01*
Y284290D01*
X3504Y283346D01*
X5393D01*
X6337Y282401D01*
Y281456D01*
X5393Y280512D01*
X3504D01*
X2559Y281456D01*
X8226Y284290D02*
Y281456D01*
X9171Y280512D01*
X12005D01*
Y279567D01*
X11060Y278623D01*
X10116D01*
X12005Y280512D02*
Y284290D01*
X13894Y280512D02*
Y284290D01*
X14839D01*
X15783Y283346D01*
Y280512D01*
Y283346D01*
X16728Y284290D01*
X17672Y283346D01*
Y280512D01*
X19561Y286179D02*
Y280512D01*
X22395D01*
X23340Y281456D01*
Y282401D01*
Y283346D01*
X22395Y284290D01*
X19561D01*
X26173Y280512D02*
X28063D01*
X29007Y281456D01*
Y283346D01*
X28063Y284290D01*
X26173D01*
X25229Y283346D01*
Y281456D01*
X26173Y280512D01*
X30896D02*
X32785D01*
X31841D01*
Y286179D01*
X30896D01*
M02*
