M48
;Layer_Color=9474304
;FILE_FORMAT=2:5
INCH,LZ
;TYPE=PLATED
T1F00S00C0.01181
T2F00S00C0.01575
T3F00S00C0.02362
T4F00S00C0.03543
T5F00S00C0.07874
T6F00S00C0.12598
%
T01
X0059941Y0048292
X0063878Y005031
X0096161Y0037393
X0098332Y0034352
X0119095Y0029739
X0122835Y0026885
X0122933Y0047017
X0117717Y0055724
X021624Y0092025
X0221161Y0094387
X0259756Y0076449
X026465Y0076598
X0269543Y0076449
X0274425
X0211319Y0088547
X0206425Y0086499
X0127165Y0090945
X010507Y0079099
X0100681Y006543
X0094784Y0066649
X0072736Y0065665
T02
X0092323Y002157
X0117717Y0049927
X0171752Y0043406
X0194193Y0023327
Y0009154
X0117717Y0059759
X0093209Y0080035
X0070079Y0059055
T03
X0156102Y0050098
X0162402
X0168701
X0165551Y0057579
X0159252
T04
X0052756Y0032677
Y0043307
X0064173Y0033071
X0209449Y0046063
X0194095Y0075984
X0183465Y0068898
X0163091Y0068996
Y0079528
X0064173Y0075985
T05
X0145866Y0053839
X0178937Y0053839
T06
X0012402Y0011811
X0312402
Y0098425
X0012402
M30
