M48
;Layer_Color=9474304
;FILE_FORMAT=2:5
INCH,LZ
;TYPE=PLATED
T1F00S00C0.01181
T2F00S00C0.03543
T3F00S00C0.03937
T4F00S00C0.12598
%
T01
X0082697Y0014646
X0087618Y0014567
X0187972Y0014587
X0192894Y0014567
X0085236Y0081693
X0080216Y0077067
X0075197Y0072539
X0070965Y006811
T02
X0050236Y0068113
X0155512
T03
X0175512Y0046181
Y0056181
X0185512
X0195512
X0205512
X0215512
Y0046181
X0205512
X0195512
X0185512
X0242028Y0046654
Y0056653
X0165512Y0056181
X0155512
Y0046181
X0165512
X0110236Y0046102
X0100236
X0090236
X0080236
X0070236
X0060236
X0050236
Y0056102
X0060236
X0070236
X0080236
X0090236
X0100236
X0110236
T04
X0012795Y0011811
X0252953
Y0098425
X0012795
M30
