G04*
G04 #@! TF.GenerationSoftware,Altium Limited,Altium Designer,20.2.6 (244)*
G04*
G04 Layer_Color=65535*
%FSLAX25Y25*%
%MOIN*%
G70*
G04*
G04 #@! TF.SameCoordinates,3E3B523F-315C-4B3F-A4B6-921EA6806A06*
G04*
G04*
G04 #@! TF.FilePolarity,Positive*
G04*
G01*
G75*
%ADD10C,0.00787*%
%ADD11C,0.01000*%
%ADD12C,0.00394*%
%ADD13C,0.00037*%
%ADD14C,0.00100*%
%ADD15C,0.01299*%
%ADD16C,0.01378*%
%ADD17C,0.01575*%
G36*
X19542Y69723D02*
X19641D01*
Y69624D01*
Y69525D01*
Y69427D01*
Y69328D01*
Y69230D01*
Y69131D01*
Y69033D01*
Y68934D01*
Y68835D01*
Y68737D01*
Y68638D01*
X20331D01*
Y68540D01*
X20922D01*
Y68441D01*
X20627D01*
Y68342D01*
X19641D01*
Y68244D01*
Y68145D01*
Y68047D01*
Y67948D01*
Y67849D01*
Y67751D01*
Y67652D01*
X19542D01*
Y67554D01*
Y67455D01*
Y67356D01*
Y67258D01*
Y67159D01*
Y67061D01*
X19443D01*
Y67159D01*
Y67258D01*
Y67356D01*
Y67455D01*
X19345D01*
Y67554D01*
Y67652D01*
Y67751D01*
Y67849D01*
Y67948D01*
Y68047D01*
Y68145D01*
Y68244D01*
Y68342D01*
X18753D01*
Y68441D01*
X18162D01*
Y68540D01*
X18260D01*
Y68638D01*
X19345D01*
Y68737D01*
Y68835D01*
Y68934D01*
Y69033D01*
Y69131D01*
Y69230D01*
X19443D01*
Y69328D01*
Y69427D01*
Y69525D01*
Y69624D01*
Y69723D01*
Y69821D01*
X19542D01*
Y69723D01*
D02*
G37*
G36*
X36304Y65187D02*
Y65089D01*
Y64990D01*
Y64891D01*
Y64793D01*
Y64694D01*
X36402D01*
Y64596D01*
Y64497D01*
Y64398D01*
Y64300D01*
Y64201D01*
Y64103D01*
Y64004D01*
Y63905D01*
X37388D01*
Y63807D01*
X37783D01*
Y63708D01*
X36994D01*
Y63610D01*
X36402D01*
Y63511D01*
Y63412D01*
Y63314D01*
X36304D01*
Y63215D01*
Y63117D01*
Y63018D01*
Y62919D01*
Y62821D01*
Y62722D01*
Y62624D01*
Y62525D01*
X36107D01*
Y62624D01*
Y62722D01*
Y62821D01*
Y62919D01*
Y63018D01*
Y63117D01*
Y63215D01*
Y63314D01*
Y63412D01*
Y63511D01*
Y63610D01*
X35811D01*
Y63708D01*
X35022D01*
Y63807D01*
X34825D01*
Y63905D01*
X35614D01*
Y64004D01*
X36107D01*
Y64103D01*
Y64201D01*
Y64300D01*
Y64398D01*
Y64497D01*
Y64596D01*
Y64694D01*
Y64793D01*
Y64891D01*
X36205D01*
Y64990D01*
Y65089D01*
Y65187D01*
Y65286D01*
X36304D01*
Y65187D01*
D02*
G37*
G36*
X299114Y59547D02*
X295177D01*
X297146Y61516D01*
X299114Y59547D01*
D02*
G37*
G36*
X20429Y60356D02*
X21021D01*
Y60257D01*
X21317D01*
Y60159D01*
X21613D01*
Y60060D01*
X21810D01*
Y59961D01*
X21908D01*
Y59863D01*
X22106D01*
Y59764D01*
X22204D01*
Y59666D01*
X22303D01*
Y59567D01*
X22401D01*
Y59469D01*
X22500D01*
Y59370D01*
Y59271D01*
X22599D01*
Y59173D01*
X22697D01*
Y59074D01*
Y58975D01*
X22796D01*
Y58877D01*
Y58778D01*
X22894D01*
Y58680D01*
Y58581D01*
Y58482D01*
X22993D01*
Y58384D01*
Y58285D01*
Y58187D01*
Y58088D01*
Y57990D01*
X23092D01*
Y57891D01*
Y57792D01*
Y57694D01*
Y57595D01*
Y57497D01*
Y57398D01*
Y57299D01*
Y57201D01*
Y57102D01*
Y57004D01*
Y56905D01*
X22993D01*
Y56806D01*
Y56708D01*
X23387D01*
Y56806D01*
X24078D01*
Y56905D01*
X24669D01*
Y57004D01*
X24965D01*
Y57102D01*
X25064D01*
Y57201D01*
Y57299D01*
Y57398D01*
X25162D01*
Y57497D01*
Y57595D01*
X25261D01*
Y57694D01*
Y57792D01*
Y57891D01*
X25359D01*
Y57990D01*
Y58088D01*
Y58187D01*
X25458D01*
Y58285D01*
Y58384D01*
X25556D01*
Y58482D01*
Y58581D01*
Y58680D01*
X25655D01*
Y58778D01*
Y58877D01*
Y58975D01*
X25754D01*
Y59074D01*
Y59173D01*
X25852D01*
Y59271D01*
Y59370D01*
Y59469D01*
X25951D01*
Y59567D01*
X26050D01*
Y59666D01*
X26148D01*
Y59764D01*
X26247D01*
Y59863D01*
X26345D01*
Y59961D01*
X26542D01*
Y60060D01*
X26838D01*
Y60159D01*
X27824D01*
Y60060D01*
X28120D01*
Y59961D01*
X28317D01*
Y59863D01*
X28416D01*
Y59764D01*
X28515D01*
Y59666D01*
X28613D01*
Y59567D01*
X28712D01*
Y59469D01*
Y59370D01*
X28810D01*
Y59271D01*
Y59173D01*
X28909D01*
Y59074D01*
Y58975D01*
Y58877D01*
X29008D01*
Y58778D01*
Y58680D01*
X29106D01*
Y58581D01*
Y58482D01*
Y58384D01*
X29205D01*
Y58285D01*
Y58187D01*
Y58088D01*
X29303D01*
Y57990D01*
Y57891D01*
X29402D01*
Y57792D01*
Y57694D01*
X29500D01*
Y57595D01*
X29599D01*
Y57694D01*
X30388D01*
Y57792D01*
X31374D01*
Y57891D01*
X31472D01*
Y57990D01*
Y58088D01*
X31571D01*
Y58187D01*
Y58285D01*
X31670D01*
Y58384D01*
Y58482D01*
X31768D01*
Y58581D01*
Y58680D01*
X31867D01*
Y58778D01*
X31965D01*
Y58877D01*
X32064D01*
Y58975D01*
Y59074D01*
X32163D01*
Y59173D01*
X32261D01*
Y59271D01*
X32360D01*
Y59370D01*
X32458D01*
Y59469D01*
X32656D01*
Y59567D01*
X32754D01*
Y59666D01*
X32853D01*
Y59764D01*
X33050D01*
Y59863D01*
X33247D01*
Y59961D01*
X33444D01*
Y60060D01*
X33642D01*
Y60159D01*
X33937D01*
Y60257D01*
X34332D01*
Y60356D01*
X39656D01*
Y60257D01*
Y60159D01*
Y60060D01*
Y59961D01*
Y59863D01*
Y59764D01*
Y59666D01*
Y59567D01*
Y59469D01*
Y59370D01*
Y59271D01*
Y59173D01*
Y59074D01*
Y58975D01*
X34529D01*
Y58877D01*
X34233D01*
Y58778D01*
X34036D01*
Y58680D01*
X33839D01*
Y58581D01*
X33642D01*
Y58482D01*
X33543D01*
Y58384D01*
X33444D01*
Y58285D01*
X33346D01*
Y58187D01*
X33247D01*
Y58088D01*
X33149D01*
Y57990D01*
X33642D01*
Y58088D01*
X35022D01*
Y58187D01*
X36599D01*
Y58285D01*
X38374D01*
Y58384D01*
X41332D01*
Y58482D01*
Y58581D01*
Y58680D01*
Y58778D01*
Y58877D01*
Y58975D01*
Y59074D01*
Y59173D01*
Y59271D01*
Y59370D01*
Y59469D01*
Y59567D01*
Y59666D01*
Y59764D01*
Y59863D01*
Y59961D01*
Y60060D01*
Y60159D01*
Y60257D01*
Y60356D01*
X48727D01*
Y60257D01*
Y60159D01*
Y60060D01*
Y59961D01*
Y59863D01*
Y59764D01*
Y59666D01*
Y59567D01*
Y59469D01*
Y59370D01*
Y59271D01*
Y59173D01*
Y59074D01*
Y58975D01*
X42713D01*
Y58877D01*
Y58778D01*
Y58680D01*
Y58581D01*
Y58482D01*
Y58384D01*
X48530D01*
Y58285D01*
X50305D01*
Y58187D01*
X51192D01*
Y58088D01*
X51685D01*
Y57990D01*
X52079D01*
Y57891D01*
X52375D01*
Y57792D01*
X49615D01*
Y57694D01*
X46755D01*
Y57595D01*
X44685D01*
Y57497D01*
X42910D01*
Y57398D01*
X42713D01*
Y57299D01*
Y57201D01*
Y57102D01*
Y57004D01*
Y56905D01*
X48431D01*
Y56806D01*
Y56708D01*
Y56609D01*
Y56511D01*
Y56412D01*
Y56313D01*
Y56215D01*
Y56116D01*
Y56018D01*
Y55919D01*
Y55820D01*
Y55722D01*
X42713D01*
Y55623D01*
Y55525D01*
Y55426D01*
Y55327D01*
Y55229D01*
Y55130D01*
Y55032D01*
Y54933D01*
Y54834D01*
Y54736D01*
Y54637D01*
Y54539D01*
Y54440D01*
Y54341D01*
Y54243D01*
Y54144D01*
Y54046D01*
Y53947D01*
Y53848D01*
Y53750D01*
Y53651D01*
Y53553D01*
Y53454D01*
X48727D01*
Y53355D01*
Y53257D01*
Y53158D01*
Y53060D01*
Y52961D01*
Y52862D01*
Y52764D01*
Y52665D01*
Y52567D01*
Y52468D01*
Y52369D01*
Y52271D01*
Y52172D01*
Y52074D01*
X41332D01*
Y52172D01*
Y52271D01*
Y52369D01*
Y52468D01*
Y52567D01*
Y52665D01*
Y52764D01*
Y52862D01*
Y52961D01*
Y53060D01*
Y53158D01*
Y53257D01*
Y53355D01*
Y53454D01*
Y53553D01*
Y53651D01*
Y53750D01*
Y53848D01*
Y53947D01*
Y54046D01*
Y54144D01*
Y54243D01*
Y54341D01*
Y54440D01*
Y54539D01*
Y54637D01*
Y54736D01*
Y54834D01*
Y54933D01*
Y55032D01*
Y55130D01*
Y55229D01*
Y55327D01*
Y55426D01*
Y55525D01*
Y55623D01*
Y55722D01*
Y55820D01*
Y55919D01*
Y56018D01*
Y56116D01*
Y56215D01*
Y56313D01*
Y56412D01*
Y56511D01*
Y56609D01*
Y56708D01*
Y56806D01*
Y56905D01*
Y57004D01*
Y57102D01*
Y57201D01*
Y57299D01*
X39952D01*
Y57201D01*
X38769D01*
Y57102D01*
X37585D01*
Y57004D01*
X36501D01*
Y56905D01*
X35614D01*
Y56806D01*
X34628D01*
Y56708D01*
X33740D01*
Y56609D01*
X32951D01*
Y56511D01*
X32557D01*
Y56412D01*
Y56313D01*
Y56215D01*
Y56116D01*
Y56018D01*
Y55919D01*
Y55820D01*
X32656D01*
Y55722D01*
Y55623D01*
Y55525D01*
Y55426D01*
Y55327D01*
X32754D01*
Y55229D01*
Y55130D01*
Y55032D01*
X32853D01*
Y54933D01*
Y54834D01*
X32951D01*
Y54736D01*
X33050D01*
Y54637D01*
Y54539D01*
X33149D01*
Y54440D01*
X33247D01*
Y54341D01*
X33346D01*
Y54243D01*
X33444D01*
Y54144D01*
X33543D01*
Y54046D01*
X33642D01*
Y53947D01*
X33740D01*
Y53848D01*
X33937D01*
Y53750D01*
X34135D01*
Y53651D01*
X34430D01*
Y53553D01*
X34923D01*
Y53454D01*
X39656D01*
Y53355D01*
Y53257D01*
Y53158D01*
Y53060D01*
Y52961D01*
Y52862D01*
Y52764D01*
Y52665D01*
Y52567D01*
Y52468D01*
Y52369D01*
Y52271D01*
Y52172D01*
Y52074D01*
X34825D01*
Y52172D01*
X34233D01*
Y52271D01*
X33937D01*
Y52369D01*
X33642D01*
Y52468D01*
X33444D01*
Y52567D01*
X33247D01*
Y52665D01*
X33050D01*
Y52764D01*
X32951D01*
Y52862D01*
X32754D01*
Y52961D01*
X32656D01*
Y53060D01*
X32557D01*
Y53158D01*
X32458D01*
Y53257D01*
X32360D01*
Y53355D01*
X32261D01*
Y53454D01*
X32163D01*
Y53553D01*
X32064D01*
Y53651D01*
X31965D01*
Y53750D01*
Y53848D01*
X31867D01*
Y53947D01*
X31768D01*
Y54046D01*
Y54144D01*
X31670D01*
Y54243D01*
Y54341D01*
X31571D01*
Y54440D01*
Y54539D01*
X31472D01*
Y54637D01*
Y54736D01*
Y54834D01*
X31374D01*
Y54933D01*
Y55032D01*
Y55130D01*
Y55229D01*
X31275D01*
Y55327D01*
Y55426D01*
Y55525D01*
Y55623D01*
Y55722D01*
X31177D01*
Y55820D01*
Y55919D01*
Y56018D01*
Y56116D01*
Y56215D01*
Y56313D01*
X30684D01*
Y56215D01*
X30092D01*
Y56116D01*
X29994D01*
Y56018D01*
X30092D01*
Y55919D01*
Y55820D01*
X30191D01*
Y55722D01*
Y55623D01*
Y55525D01*
X30289D01*
Y55426D01*
Y55327D01*
X30388D01*
Y55229D01*
Y55130D01*
Y55032D01*
X30486D01*
Y54933D01*
Y54834D01*
Y54736D01*
X30585D01*
Y54637D01*
Y54539D01*
X30684D01*
Y54440D01*
Y54341D01*
Y54243D01*
X30782D01*
Y54144D01*
Y54046D01*
Y53947D01*
X30881D01*
Y53848D01*
Y53750D01*
X30979D01*
Y53651D01*
Y53553D01*
Y53454D01*
X31078D01*
Y53355D01*
Y53257D01*
X31177D01*
Y53158D01*
Y53060D01*
Y52961D01*
X31275D01*
Y52862D01*
Y52764D01*
Y52665D01*
X31374D01*
Y52567D01*
Y52468D01*
X31472D01*
Y52369D01*
X29994D01*
Y52468D01*
Y52567D01*
X29895D01*
Y52665D01*
Y52764D01*
Y52862D01*
X29796D01*
Y52961D01*
Y53060D01*
Y53158D01*
X29698D01*
Y53257D01*
Y53355D01*
X29599D01*
Y53454D01*
Y53553D01*
Y53651D01*
X29500D01*
Y53750D01*
Y53848D01*
X29402D01*
Y53947D01*
Y54046D01*
Y54144D01*
X29303D01*
Y54243D01*
Y54341D01*
Y54440D01*
X29205D01*
Y54539D01*
Y54637D01*
X29106D01*
Y54736D01*
Y54834D01*
Y54933D01*
X29008D01*
Y55032D01*
Y55130D01*
Y55229D01*
X28909D01*
Y55327D01*
Y55426D01*
X28810D01*
Y55525D01*
Y55623D01*
Y55722D01*
X28712D01*
Y55820D01*
Y55919D01*
X28219D01*
Y55820D01*
X27726D01*
Y55722D01*
X27134D01*
Y55623D01*
X26641D01*
Y55525D01*
X26050D01*
Y55426D01*
X25754D01*
Y55327D01*
Y55229D01*
X25655D01*
Y55130D01*
Y55032D01*
Y54933D01*
X25556D01*
Y54834D01*
Y54736D01*
X25458D01*
Y54637D01*
Y54539D01*
Y54440D01*
X25359D01*
Y54341D01*
Y54243D01*
Y54144D01*
X25261D01*
Y54046D01*
Y53947D01*
X25162D01*
Y53848D01*
Y53750D01*
Y53651D01*
X25064D01*
Y53553D01*
Y53454D01*
Y53355D01*
X24965D01*
Y53257D01*
Y53158D01*
X24866D01*
Y53060D01*
Y52961D01*
Y52862D01*
X24768D01*
Y52764D01*
Y52665D01*
Y52567D01*
X24669D01*
Y52468D01*
Y52369D01*
X23190D01*
Y52468D01*
X23289D01*
Y52567D01*
Y52665D01*
Y52764D01*
X23387D01*
Y52862D01*
Y52961D01*
X23486D01*
Y53060D01*
Y53158D01*
Y53257D01*
X23585D01*
Y53355D01*
Y53454D01*
X23683D01*
Y53553D01*
Y53651D01*
Y53750D01*
X23782D01*
Y53848D01*
Y53947D01*
Y54046D01*
X23880D01*
Y54144D01*
Y54243D01*
X23979D01*
Y54341D01*
Y54440D01*
Y54539D01*
X24078D01*
Y54637D01*
Y54736D01*
Y54834D01*
X24176D01*
Y54933D01*
Y55032D01*
X23683D01*
Y54933D01*
X23190D01*
Y54834D01*
X22796D01*
Y54736D01*
X22401D01*
Y54637D01*
X22007D01*
Y54539D01*
X21613D01*
Y54440D01*
X21218D01*
Y54341D01*
X20824D01*
Y54243D01*
X20429D01*
Y54144D01*
X20134D01*
Y54046D01*
X19739D01*
Y53947D01*
X19345D01*
Y53848D01*
X19049D01*
Y53750D01*
X18753D01*
Y53651D01*
X18458D01*
Y53553D01*
X18063D01*
Y53454D01*
X17767D01*
Y53355D01*
X17471D01*
Y53257D01*
X17176D01*
Y53158D01*
X16978D01*
Y53060D01*
X16683D01*
Y52961D01*
X16387D01*
Y52862D01*
X16091D01*
Y52764D01*
X15795D01*
Y52665D01*
X15598D01*
Y52567D01*
Y52468D01*
Y52369D01*
Y52271D01*
Y52172D01*
X14415D01*
Y52074D01*
X14119D01*
Y51975D01*
X13922D01*
Y51876D01*
X13725D01*
Y51778D01*
X13528D01*
Y51679D01*
X13330D01*
Y51581D01*
X13133D01*
Y51482D01*
X12837D01*
Y51384D01*
X12640D01*
Y51285D01*
X12443D01*
Y51186D01*
X12344D01*
Y51088D01*
X12147D01*
Y50989D01*
X11950D01*
Y50890D01*
X11753D01*
Y50792D01*
X11556D01*
Y50693D01*
X11457D01*
Y50595D01*
X11260D01*
Y50496D01*
X11063D01*
Y50397D01*
X10964D01*
Y50299D01*
X10767D01*
Y50200D01*
X10570D01*
Y50102D01*
X10471D01*
Y50003D01*
X10274D01*
Y49905D01*
X10175D01*
Y49806D01*
X9978D01*
Y49707D01*
X9879D01*
Y49609D01*
X9682D01*
Y49510D01*
X9584D01*
Y49411D01*
X9485D01*
Y49313D01*
X9288D01*
Y49214D01*
X9189D01*
Y49116D01*
X9091D01*
Y49017D01*
X8992D01*
Y48919D01*
X8795D01*
Y48820D01*
X8696D01*
Y48721D01*
X8598D01*
Y48623D01*
X8499D01*
Y48524D01*
X8400D01*
Y48425D01*
X8302D01*
Y48327D01*
X8203D01*
Y48228D01*
X8105D01*
Y48130D01*
X8006D01*
Y48031D01*
X7908D01*
Y47932D01*
X7809D01*
Y47834D01*
X7710D01*
Y47735D01*
X7612D01*
Y47637D01*
X7513D01*
Y47538D01*
X7414D01*
Y47440D01*
X7316D01*
Y47341D01*
Y47242D01*
X7217D01*
Y47144D01*
X7119D01*
Y47045D01*
X7020D01*
Y46946D01*
Y46848D01*
X6921D01*
Y46749D01*
X6823D01*
Y46651D01*
X6724D01*
Y46552D01*
Y46454D01*
X6626D01*
Y46355D01*
Y46256D01*
X6527D01*
Y46158D01*
Y46059D01*
X6429D01*
Y45961D01*
X6330D01*
Y45862D01*
Y45763D01*
X6231D01*
Y45665D01*
Y45566D01*
Y45468D01*
X6133D01*
Y45369D01*
Y45270D01*
X6034D01*
Y45172D01*
Y45073D01*
Y44975D01*
X5935D01*
Y44876D01*
Y44777D01*
Y44679D01*
Y44580D01*
X5837D01*
Y44482D01*
Y44383D01*
Y44284D01*
Y44186D01*
Y44087D01*
Y43989D01*
Y43890D01*
X5738D01*
Y43989D01*
Y44087D01*
X5640D01*
Y44186D01*
Y44284D01*
X5541D01*
Y44383D01*
Y44482D01*
X5443D01*
Y44580D01*
Y44679D01*
Y44777D01*
X5344D01*
Y44876D01*
Y44975D01*
Y45073D01*
X5245D01*
Y45172D01*
Y45270D01*
Y45369D01*
Y45468D01*
Y45566D01*
X5147D01*
Y45665D01*
Y45763D01*
Y45862D01*
Y45961D01*
Y46059D01*
Y46158D01*
Y46256D01*
Y46355D01*
Y46454D01*
Y46552D01*
Y46651D01*
Y46749D01*
Y46848D01*
Y46946D01*
Y47045D01*
Y47144D01*
Y47242D01*
X5245D01*
Y47341D01*
Y47440D01*
Y47538D01*
Y47637D01*
Y47735D01*
X5344D01*
Y47834D01*
Y47932D01*
Y48031D01*
X5443D01*
Y48130D01*
Y48228D01*
Y48327D01*
X5541D01*
Y48425D01*
Y48524D01*
X5640D01*
Y48623D01*
Y48721D01*
X5738D01*
Y48820D01*
Y48919D01*
X5837D01*
Y49017D01*
Y49116D01*
X5935D01*
Y49214D01*
X6034D01*
Y49313D01*
Y49411D01*
X6133D01*
Y49510D01*
X6231D01*
Y49609D01*
Y49707D01*
X6330D01*
Y49806D01*
X6429D01*
Y49905D01*
X6527D01*
Y50003D01*
X6626D01*
Y50102D01*
X6724D01*
Y50200D01*
X6823D01*
Y50299D01*
X6921D01*
Y50397D01*
Y50496D01*
X7020D01*
Y50595D01*
X7217D01*
Y50693D01*
X7316D01*
Y50792D01*
X7414D01*
Y50890D01*
X7513D01*
Y50989D01*
X7612D01*
Y51088D01*
X7710D01*
Y51186D01*
X7908D01*
Y51285D01*
X8006D01*
Y51384D01*
X8105D01*
Y51482D01*
X8302D01*
Y51581D01*
X8400D01*
Y51679D01*
X8598D01*
Y51778D01*
X8696D01*
Y51876D01*
X8893D01*
Y51975D01*
X8992D01*
Y52074D01*
X3865D01*
Y52172D01*
Y52271D01*
Y52369D01*
Y52468D01*
Y52567D01*
Y52665D01*
Y52764D01*
Y52862D01*
Y52961D01*
Y53060D01*
Y53158D01*
Y53257D01*
Y53355D01*
Y53454D01*
X10372D01*
Y53553D01*
X10767D01*
Y53651D01*
X10964D01*
Y53750D01*
X11063D01*
Y53848D01*
X11161D01*
Y53947D01*
Y54046D01*
X11260D01*
Y54144D01*
Y54243D01*
X11358D01*
Y54341D01*
Y54440D01*
Y54539D01*
Y54637D01*
Y54736D01*
Y54834D01*
Y54933D01*
Y55032D01*
X11260D01*
Y55130D01*
Y55229D01*
X11161D01*
Y55327D01*
Y55426D01*
X11063D01*
Y55525D01*
X10865D01*
Y55623D01*
X10570D01*
Y55722D01*
X5837D01*
Y55820D01*
X5344D01*
Y55919D01*
X5048D01*
Y56018D01*
X4851D01*
Y56116D01*
X4752D01*
Y56215D01*
X4555D01*
Y56313D01*
X4456D01*
Y56412D01*
X4358D01*
Y56511D01*
X4259D01*
Y56609D01*
Y56708D01*
X4161D01*
Y56806D01*
X4062D01*
Y56905D01*
Y57004D01*
X3964D01*
Y57102D01*
Y57201D01*
X3865D01*
Y57299D01*
Y57398D01*
Y57497D01*
Y57595D01*
X3766D01*
Y57694D01*
Y57792D01*
Y57891D01*
Y57990D01*
Y58088D01*
Y58187D01*
Y58285D01*
Y58384D01*
Y58482D01*
Y58581D01*
X3865D01*
Y58680D01*
Y58778D01*
Y58877D01*
Y58975D01*
X3964D01*
Y59074D01*
Y59173D01*
X4062D01*
Y59271D01*
Y59370D01*
X4161D01*
Y59469D01*
X4259D01*
Y59567D01*
X4358D01*
Y59666D01*
Y59764D01*
X4555D01*
Y59863D01*
X4654D01*
Y59961D01*
X4752D01*
Y60060D01*
X4950D01*
Y60159D01*
X5245D01*
Y60257D01*
X5541D01*
Y60356D01*
X12246D01*
Y60257D01*
Y60159D01*
Y60060D01*
Y59961D01*
Y59863D01*
Y59764D01*
Y59666D01*
Y59567D01*
Y59469D01*
Y59370D01*
Y59271D01*
Y59173D01*
Y59074D01*
Y58975D01*
X5837D01*
Y58877D01*
X5640D01*
Y58778D01*
X5541D01*
Y58680D01*
X5443D01*
Y58581D01*
X5344D01*
Y58482D01*
Y58384D01*
X5245D01*
Y58285D01*
Y58187D01*
Y58088D01*
Y57990D01*
Y57891D01*
Y57792D01*
Y57694D01*
Y57595D01*
Y57497D01*
X5344D01*
Y57398D01*
Y57299D01*
X5443D01*
Y57201D01*
X5541D01*
Y57102D01*
X5640D01*
Y57004D01*
X5837D01*
Y56905D01*
X10668D01*
Y56806D01*
X11161D01*
Y56708D01*
X11457D01*
Y56609D01*
X11654D01*
Y56511D01*
X11851D01*
Y56412D01*
X11950D01*
Y56313D01*
X12049D01*
Y56215D01*
X12147D01*
Y56116D01*
X12246D01*
Y56018D01*
X12344D01*
Y55919D01*
Y55820D01*
X12443D01*
Y55722D01*
Y55623D01*
X12542D01*
Y55525D01*
Y55426D01*
Y55327D01*
X12640D01*
Y55229D01*
Y55130D01*
Y55032D01*
Y54933D01*
Y54834D01*
Y54736D01*
Y54637D01*
Y54539D01*
Y54440D01*
Y54341D01*
Y54243D01*
Y54144D01*
Y54046D01*
Y53947D01*
Y53848D01*
Y53750D01*
X12739D01*
Y53848D01*
X12936D01*
Y53947D01*
X13133D01*
Y54046D01*
X13429D01*
Y54144D01*
X13626D01*
Y54243D01*
X13922D01*
Y54341D01*
X14119D01*
Y54440D01*
X14218D01*
Y54539D01*
Y54637D01*
Y54736D01*
Y54834D01*
Y54933D01*
Y55032D01*
Y55130D01*
Y55229D01*
Y55327D01*
Y55426D01*
Y55525D01*
Y55623D01*
Y55722D01*
Y55820D01*
Y55919D01*
Y56018D01*
Y56116D01*
Y56215D01*
Y56313D01*
Y56412D01*
Y56511D01*
Y56609D01*
Y56708D01*
Y56806D01*
Y56905D01*
Y57004D01*
Y57102D01*
Y57201D01*
Y57299D01*
Y57398D01*
Y57497D01*
Y57595D01*
Y57694D01*
Y57792D01*
Y57891D01*
Y57990D01*
Y58088D01*
Y58187D01*
Y58285D01*
Y58384D01*
Y58482D01*
Y58581D01*
Y58680D01*
Y58778D01*
Y58877D01*
Y58975D01*
Y59074D01*
Y59173D01*
Y59271D01*
Y59370D01*
Y59469D01*
Y59567D01*
Y59666D01*
Y59764D01*
Y59863D01*
Y59961D01*
Y60060D01*
Y60159D01*
Y60257D01*
Y60356D01*
Y60454D01*
X20429D01*
Y60356D01*
D02*
G37*
G36*
X307087Y51575D02*
X305118Y49606D01*
Y53543D01*
X307087Y51575D01*
D02*
G37*
G36*
X24472Y49905D02*
Y49806D01*
Y49707D01*
Y49609D01*
Y49510D01*
Y49411D01*
Y49313D01*
X24571D01*
Y49214D01*
Y49116D01*
Y49017D01*
Y48919D01*
Y48820D01*
Y48721D01*
Y48623D01*
X24768D01*
Y48524D01*
X25556D01*
Y48425D01*
X25852D01*
Y48327D01*
X25064D01*
Y48228D01*
X24571D01*
Y48130D01*
Y48031D01*
Y47932D01*
X24472D01*
Y47834D01*
Y47735D01*
Y47637D01*
Y47538D01*
Y47440D01*
Y47341D01*
Y47242D01*
Y47144D01*
X24373D01*
Y47045D01*
X24275D01*
Y47144D01*
Y47242D01*
Y47341D01*
Y47440D01*
Y47538D01*
Y47637D01*
Y47735D01*
Y47834D01*
Y47932D01*
Y48031D01*
Y48130D01*
Y48228D01*
X24078D01*
Y48327D01*
X23190D01*
Y48425D01*
X22894D01*
Y48524D01*
X23683D01*
Y48623D01*
X24275D01*
Y48721D01*
Y48820D01*
Y48919D01*
Y49017D01*
Y49116D01*
Y49214D01*
Y49313D01*
Y49411D01*
Y49510D01*
X24373D01*
Y49609D01*
Y49707D01*
Y49806D01*
Y49905D01*
Y50003D01*
X24472D01*
Y49905D01*
D02*
G37*
G36*
X34726Y49510D02*
Y49411D01*
Y49313D01*
Y49214D01*
X34825D01*
Y49116D01*
Y49017D01*
Y48919D01*
Y48820D01*
Y48721D01*
Y48623D01*
Y48524D01*
Y48425D01*
Y48327D01*
X35219D01*
Y48228D01*
X35909D01*
Y48130D01*
X36008D01*
Y48031D01*
X34825D01*
Y47932D01*
Y47834D01*
Y47735D01*
Y47637D01*
Y47538D01*
Y47440D01*
X34726D01*
Y47341D01*
Y47242D01*
Y47144D01*
Y47045D01*
Y46946D01*
Y46848D01*
X34628D01*
Y46946D01*
X34529D01*
Y47045D01*
Y47144D01*
Y47242D01*
Y47341D01*
Y47440D01*
Y47538D01*
Y47637D01*
Y47735D01*
Y47834D01*
Y47932D01*
Y48031D01*
X33642D01*
Y48130D01*
X33149D01*
Y48228D01*
X33642D01*
Y48327D01*
X34529D01*
Y48425D01*
Y48524D01*
Y48623D01*
Y48721D01*
Y48820D01*
Y48919D01*
Y49017D01*
Y49116D01*
X34628D01*
Y49214D01*
Y49313D01*
Y49411D01*
Y49510D01*
Y49609D01*
X34726D01*
Y49510D01*
D02*
G37*
G36*
X47445Y50200D02*
X47840D01*
Y50102D01*
X48037D01*
Y50003D01*
X48234D01*
Y49905D01*
X48333D01*
Y49806D01*
X48431D01*
Y49707D01*
Y49609D01*
X48530D01*
Y49510D01*
X48629D01*
Y49411D01*
Y49313D01*
Y49214D01*
Y49116D01*
X48727D01*
Y49017D01*
Y48919D01*
Y48820D01*
Y48721D01*
Y48623D01*
X48629D01*
Y48524D01*
Y48425D01*
Y48327D01*
Y48228D01*
X48530D01*
Y48130D01*
X48431D01*
Y48031D01*
Y47932D01*
X48234D01*
Y47834D01*
X48136D01*
Y47735D01*
X47938D01*
Y47637D01*
X48136D01*
Y47538D01*
X48234D01*
Y47440D01*
X48431D01*
Y47341D01*
X48530D01*
Y47242D01*
Y47144D01*
X48629D01*
Y47045D01*
X48727D01*
Y46946D01*
Y46848D01*
Y46749D01*
Y46651D01*
X48826D01*
Y46552D01*
Y46454D01*
Y46355D01*
Y46256D01*
Y46158D01*
Y46059D01*
X48727D01*
Y45961D01*
Y45862D01*
Y45763D01*
X48629D01*
Y45665D01*
Y45566D01*
X48530D01*
Y45468D01*
Y45369D01*
X48431D01*
Y45270D01*
X48333D01*
Y45172D01*
X48234D01*
Y45073D01*
X48037D01*
Y44975D01*
X47840D01*
Y44876D01*
X47544D01*
Y44777D01*
X42811D01*
Y44876D01*
Y44975D01*
Y45073D01*
Y45172D01*
Y45270D01*
Y45369D01*
Y45468D01*
Y45566D01*
Y45665D01*
Y45763D01*
Y45862D01*
Y45961D01*
Y46059D01*
Y46158D01*
Y46256D01*
Y46355D01*
Y46454D01*
Y46552D01*
Y46651D01*
Y46749D01*
Y46848D01*
Y46946D01*
Y47045D01*
Y47144D01*
Y47242D01*
Y47341D01*
Y47440D01*
Y47538D01*
Y47637D01*
Y47735D01*
Y47834D01*
Y47932D01*
Y48031D01*
Y48130D01*
Y48228D01*
Y48327D01*
Y48425D01*
Y48524D01*
Y48623D01*
Y48721D01*
Y48820D01*
Y48919D01*
Y49017D01*
Y49116D01*
Y49214D01*
Y49313D01*
Y49411D01*
Y49510D01*
Y49609D01*
Y49707D01*
Y49806D01*
Y49905D01*
Y50003D01*
Y50102D01*
Y50200D01*
Y50299D01*
X47445D01*
Y50200D01*
D02*
G37*
G36*
X38670Y50299D02*
X38769D01*
Y50200D01*
X38867D01*
Y50102D01*
X38966D01*
Y50003D01*
X39064D01*
Y49905D01*
Y49806D01*
X39163D01*
Y49707D01*
Y49609D01*
X39262D01*
Y49510D01*
X39360D01*
Y49411D01*
Y49313D01*
X39459D01*
Y49214D01*
X39557D01*
Y49116D01*
Y49017D01*
X39656D01*
Y48919D01*
Y48820D01*
X39755D01*
Y48721D01*
X39853D01*
Y48623D01*
Y48524D01*
X39952D01*
Y48425D01*
Y48327D01*
X40051D01*
Y48228D01*
X40149D01*
Y48130D01*
Y48031D01*
X40248D01*
Y47932D01*
Y47834D01*
X40346D01*
Y47735D01*
X40445D01*
Y47637D01*
Y47538D01*
X40543D01*
Y47440D01*
Y47341D01*
X40642D01*
Y47242D01*
X40741D01*
Y47144D01*
Y47045D01*
X40839D01*
Y46946D01*
Y46848D01*
X40938D01*
Y46749D01*
X41036D01*
Y46651D01*
Y46552D01*
X41135D01*
Y46454D01*
Y46355D01*
X41234D01*
Y46256D01*
X41332D01*
Y46158D01*
Y46059D01*
X41431D01*
Y45961D01*
Y45862D01*
X41529D01*
Y45763D01*
X41628D01*
Y45665D01*
Y45566D01*
X41727D01*
Y45468D01*
Y45369D01*
X41825D01*
Y45270D01*
X41924D01*
Y45172D01*
Y45073D01*
X42022D01*
Y44975D01*
Y44876D01*
X42121D01*
Y44777D01*
X41036D01*
Y44876D01*
X40938D01*
Y44975D01*
Y45073D01*
X40839D01*
Y45172D01*
Y45270D01*
X40741D01*
Y45369D01*
X40642D01*
Y45468D01*
Y45566D01*
X40543D01*
Y45665D01*
Y45763D01*
X40445D01*
Y45862D01*
X40346D01*
Y45961D01*
Y46059D01*
X40248D01*
Y46158D01*
X36698D01*
Y46059D01*
Y45961D01*
X36599D01*
Y45862D01*
X36501D01*
Y45763D01*
Y45665D01*
X36402D01*
Y45566D01*
Y45468D01*
X36304D01*
Y45369D01*
X36205D01*
Y45270D01*
Y45172D01*
X36107D01*
Y45073D01*
Y44975D01*
X36008D01*
Y44876D01*
Y44777D01*
X34923D01*
Y44876D01*
X35022D01*
Y44975D01*
Y45073D01*
X35121D01*
Y45172D01*
X35219D01*
Y45270D01*
Y45369D01*
X35318D01*
Y45468D01*
Y45566D01*
X35416D01*
Y45665D01*
X35515D01*
Y45763D01*
Y45862D01*
X35614D01*
Y45961D01*
Y46059D01*
X35712D01*
Y46158D01*
X35811D01*
Y46256D01*
Y46355D01*
X35909D01*
Y46454D01*
Y46552D01*
X36008D01*
Y46651D01*
X36107D01*
Y46749D01*
Y46848D01*
X36205D01*
Y46946D01*
Y47045D01*
X36304D01*
Y47144D01*
X36402D01*
Y47242D01*
Y47341D01*
X36501D01*
Y47440D01*
Y47538D01*
X36599D01*
Y47637D01*
X36698D01*
Y47735D01*
Y47834D01*
X36797D01*
Y47932D01*
Y48031D01*
X36895D01*
Y48130D01*
X36994D01*
Y48228D01*
Y48327D01*
X37093D01*
Y48425D01*
Y48524D01*
X37191D01*
Y48623D01*
X37290D01*
Y48721D01*
Y48820D01*
X37388D01*
Y48919D01*
Y49017D01*
X37487D01*
Y49116D01*
X37585D01*
Y49214D01*
Y49313D01*
X37684D01*
Y49411D01*
Y49510D01*
X37783D01*
Y49609D01*
X37881D01*
Y49707D01*
Y49806D01*
X37980D01*
Y49905D01*
Y50003D01*
X38078D01*
Y50102D01*
X38177D01*
Y50200D01*
X38276D01*
Y50299D01*
X38374D01*
Y50397D01*
X38670D01*
Y50299D01*
D02*
G37*
G36*
X30684Y50200D02*
Y50102D01*
Y50003D01*
Y49905D01*
Y49806D01*
Y49707D01*
Y49609D01*
Y49510D01*
Y49411D01*
Y49313D01*
Y49214D01*
Y49116D01*
Y49017D01*
Y48919D01*
Y48820D01*
Y48721D01*
Y48623D01*
Y48524D01*
Y48425D01*
Y48327D01*
Y48228D01*
Y48130D01*
Y48031D01*
Y47932D01*
Y47834D01*
Y47735D01*
Y47637D01*
Y47538D01*
Y47440D01*
Y47341D01*
Y47242D01*
Y47144D01*
Y47045D01*
Y46946D01*
Y46848D01*
Y46749D01*
Y46651D01*
Y46552D01*
Y46454D01*
Y46355D01*
Y46256D01*
Y46158D01*
Y46059D01*
Y45961D01*
Y45862D01*
Y45763D01*
Y45665D01*
X34430D01*
Y45566D01*
Y45468D01*
Y45369D01*
Y45270D01*
Y45172D01*
Y45073D01*
Y44975D01*
Y44876D01*
Y44777D01*
X29796D01*
Y44876D01*
Y44975D01*
Y45073D01*
Y45172D01*
Y45270D01*
Y45369D01*
Y45468D01*
Y45566D01*
Y45665D01*
Y45763D01*
Y45862D01*
Y45961D01*
Y46059D01*
Y46158D01*
Y46256D01*
Y46355D01*
Y46454D01*
Y46552D01*
Y46651D01*
Y46749D01*
Y46848D01*
Y46946D01*
Y47045D01*
Y47144D01*
Y47242D01*
Y47341D01*
Y47440D01*
Y47538D01*
Y47637D01*
Y47735D01*
Y47834D01*
Y47932D01*
Y48031D01*
Y48130D01*
Y48228D01*
Y48327D01*
Y48425D01*
Y48524D01*
Y48623D01*
Y48721D01*
Y48820D01*
Y48919D01*
Y49017D01*
Y49116D01*
Y49214D01*
Y49313D01*
Y49411D01*
Y49510D01*
Y49609D01*
Y49707D01*
Y49806D01*
Y49905D01*
Y50003D01*
Y50102D01*
Y50200D01*
Y50299D01*
X30684D01*
Y50200D01*
D02*
G37*
G36*
X9091Y45468D02*
Y45369D01*
Y45270D01*
Y45172D01*
Y45073D01*
Y44975D01*
Y44876D01*
Y44777D01*
Y44679D01*
Y44580D01*
Y44482D01*
Y44383D01*
X9682D01*
Y44284D01*
X10274D01*
Y44186D01*
Y44087D01*
X9189D01*
Y43989D01*
X9091D01*
Y43890D01*
Y43791D01*
Y43693D01*
Y43594D01*
Y43496D01*
Y43397D01*
Y43298D01*
Y43200D01*
X8992D01*
Y43101D01*
Y43003D01*
Y42904D01*
Y42805D01*
Y42707D01*
X8893D01*
Y42805D01*
Y42904D01*
Y43003D01*
Y43101D01*
Y43200D01*
Y43298D01*
Y43397D01*
X8795D01*
Y43496D01*
Y43594D01*
Y43693D01*
Y43791D01*
Y43890D01*
Y43989D01*
Y44087D01*
X8006D01*
Y44186D01*
X7513D01*
Y44284D01*
X7908D01*
Y44383D01*
X8795D01*
Y44482D01*
Y44580D01*
Y44679D01*
Y44777D01*
X8893D01*
Y44876D01*
Y44975D01*
Y45073D01*
Y45172D01*
Y45270D01*
Y45369D01*
Y45468D01*
X8992D01*
Y45566D01*
X9091D01*
Y45468D01*
D02*
G37*
G36*
X132283Y20915D02*
X128347D01*
X130315Y22884D01*
X132283Y20915D01*
D02*
G37*
%LPC*%
G36*
X27529Y58778D02*
X27035D01*
Y58680D01*
Y58581D01*
X26937D01*
Y58482D01*
Y58384D01*
X26838D01*
Y58285D01*
Y58187D01*
Y58088D01*
X26740D01*
Y57990D01*
Y57891D01*
Y57792D01*
X26641D01*
Y57694D01*
Y57595D01*
X26542D01*
Y57497D01*
Y57398D01*
Y57299D01*
X26444D01*
Y57201D01*
X26740D01*
Y57299D01*
X27430D01*
Y57398D01*
X28120D01*
Y57497D01*
X28021D01*
Y57595D01*
Y57694D01*
Y57792D01*
X27923D01*
Y57891D01*
Y57990D01*
Y58088D01*
X27824D01*
Y58187D01*
Y58285D01*
X27726D01*
Y58384D01*
Y58482D01*
Y58581D01*
X27627D01*
Y58680D01*
X27529D01*
Y58778D01*
D02*
G37*
G36*
X20331Y59074D02*
X15598D01*
Y58975D01*
Y58877D01*
Y58778D01*
Y58680D01*
Y58581D01*
Y58482D01*
Y58384D01*
Y58285D01*
Y58187D01*
Y58088D01*
Y57990D01*
Y57891D01*
Y57792D01*
Y57694D01*
Y57595D01*
Y57497D01*
Y57398D01*
Y57299D01*
Y57201D01*
Y57102D01*
Y57004D01*
Y56905D01*
Y56806D01*
Y56708D01*
Y56609D01*
Y56511D01*
Y56412D01*
Y56313D01*
Y56215D01*
Y56116D01*
Y56018D01*
Y55919D01*
Y55820D01*
X18950D01*
Y55919D01*
X19443D01*
Y56018D01*
X19838D01*
Y56116D01*
X20232D01*
Y56215D01*
X20725D01*
Y56313D01*
X21218D01*
Y56412D01*
X21415D01*
Y56511D01*
X21514D01*
Y56609D01*
X21613D01*
Y56708D01*
Y56806D01*
Y56905D01*
X21711D01*
Y57004D01*
Y57102D01*
Y57201D01*
Y57299D01*
Y57398D01*
Y57497D01*
Y57595D01*
Y57694D01*
Y57792D01*
Y57891D01*
Y57990D01*
X21613D01*
Y58088D01*
Y58187D01*
X21514D01*
Y58285D01*
Y58384D01*
X21415D01*
Y58482D01*
X21317D01*
Y58581D01*
X21218D01*
Y58680D01*
X21120D01*
Y58778D01*
X21021D01*
Y58877D01*
X20725D01*
Y58975D01*
X20331D01*
Y59074D01*
D02*
G37*
G36*
X47051Y49411D02*
X43797D01*
Y49313D01*
Y49214D01*
Y49116D01*
Y49017D01*
Y48919D01*
Y48820D01*
Y48721D01*
Y48623D01*
Y48524D01*
Y48425D01*
Y48327D01*
Y48228D01*
Y48130D01*
Y48031D01*
Y47932D01*
X47248D01*
Y48031D01*
X47544D01*
Y48130D01*
X47642D01*
Y48228D01*
X47741D01*
Y48327D01*
Y48425D01*
Y48524D01*
Y48623D01*
Y48721D01*
Y48820D01*
Y48919D01*
Y49017D01*
X47642D01*
Y49116D01*
X47544D01*
Y49214D01*
X47445D01*
Y49313D01*
X47051D01*
Y49411D01*
D02*
G37*
G36*
X47150Y47242D02*
X43797D01*
Y47144D01*
Y47045D01*
Y46946D01*
Y46848D01*
Y46749D01*
Y46651D01*
Y46552D01*
Y46454D01*
Y46355D01*
Y46256D01*
Y46158D01*
Y46059D01*
Y45961D01*
Y45862D01*
Y45763D01*
Y45665D01*
X47248D01*
Y45763D01*
X47544D01*
Y45862D01*
X47642D01*
Y45961D01*
X47741D01*
Y46059D01*
X47840D01*
Y46158D01*
Y46256D01*
Y46355D01*
Y46454D01*
Y46552D01*
Y46651D01*
Y46749D01*
Y46848D01*
X47741D01*
Y46946D01*
X47642D01*
Y47045D01*
X47544D01*
Y47144D01*
X47150D01*
Y47242D01*
D02*
G37*
G36*
X38572Y49017D02*
X38374D01*
Y48919D01*
Y48820D01*
X38276D01*
Y48721D01*
Y48623D01*
X38177D01*
Y48524D01*
X38078D01*
Y48425D01*
Y48327D01*
X37980D01*
Y48228D01*
Y48130D01*
X37881D01*
Y48031D01*
X37783D01*
Y47932D01*
Y47834D01*
X37684D01*
Y47735D01*
Y47637D01*
X37585D01*
Y47538D01*
X37487D01*
Y47440D01*
Y47341D01*
X37388D01*
Y47242D01*
Y47144D01*
X37290D01*
Y47045D01*
Y46946D01*
Y46848D01*
X39755D01*
Y46946D01*
Y47045D01*
X39656D01*
Y47144D01*
Y47242D01*
X39557D01*
Y47341D01*
Y47440D01*
X39459D01*
Y47538D01*
X39360D01*
Y47637D01*
Y47735D01*
X39262D01*
Y47834D01*
Y47932D01*
X39163D01*
Y48031D01*
X39064D01*
Y48130D01*
Y48228D01*
X38966D01*
Y48327D01*
Y48425D01*
X38867D01*
Y48524D01*
X38769D01*
Y48623D01*
Y48721D01*
X38670D01*
Y48820D01*
Y48919D01*
X38572D01*
Y49017D01*
D02*
G37*
%LPD*%
D10*
X248425Y78740D02*
G03*
X248425Y78740I-4331J0D01*
G01*
X69803Y69095D02*
G03*
X69803Y69095I-4331J0D01*
G01*
X170197D02*
G03*
X170197Y69095I-4331J0D01*
G01*
X196693Y62992D02*
X232087D01*
Y41142D02*
Y62992D01*
X160433D02*
X196693D01*
X160433Y41142D02*
X232087D01*
X160433D02*
Y62992D01*
X250492Y40945D02*
Y52756D01*
Y40945D02*
X280709D01*
X250492Y52756D02*
Y64567D01*
X280709D01*
Y40945D02*
Y64567D01*
X60039Y41142D02*
Y62992D01*
Y41142D02*
X131693D01*
X60039Y62992D02*
X96299D01*
X131693Y41142D02*
Y62992D01*
X96299D02*
X131693D01*
X186024Y37402D02*
X205709D01*
X186024D02*
Y41142D01*
X205709Y37402D02*
Y41142D01*
X105315Y37402D02*
Y41142D01*
X85630Y37402D02*
X105315D01*
X85630D02*
Y41142D01*
X201973Y98506D02*
X202198Y99181D01*
Y97831D01*
X201973Y98506D01*
X201523Y98956D01*
X200848Y99181D01*
X200173D01*
X199499Y98956D01*
X199049Y98506D01*
Y98056D01*
X199274Y97606D01*
X199499Y97382D01*
X199949Y97157D01*
X201298Y96707D01*
X201748Y96482D01*
X202198Y96032D01*
X199049Y98056D02*
X199499Y97606D01*
X199949Y97382D01*
X201298Y96932D01*
X201748Y96707D01*
X201973Y96482D01*
X202198Y96032D01*
Y95132D01*
X201748Y94682D01*
X201073Y94458D01*
X200398D01*
X199724Y94682D01*
X199274Y95132D01*
X199049Y95807D01*
Y94458D01*
X199274Y95132D01*
X203570Y97606D02*
Y92883D01*
X203795Y97606D02*
Y92883D01*
Y96932D02*
X204244Y97382D01*
X204694Y97606D01*
X205144D01*
X205819Y97382D01*
X206269Y96932D01*
X206494Y96257D01*
Y95807D01*
X206269Y95132D01*
X205819Y94682D01*
X205144Y94458D01*
X204694D01*
X204244Y94682D01*
X203795Y95132D01*
X205144Y97606D02*
X205594Y97382D01*
X206044Y96932D01*
X206269Y96257D01*
Y95807D01*
X206044Y95132D01*
X205594Y94682D01*
X205144Y94458D01*
X202895Y97606D02*
X203795D01*
X202895Y92883D02*
X204469D01*
X207596Y97157D02*
Y96932D01*
X207371D01*
Y97157D01*
X207596Y97382D01*
X208046Y97606D01*
X208945D01*
X209395Y97382D01*
X209620Y97157D01*
X209845Y96707D01*
Y95132D01*
X210070Y94682D01*
X210295Y94458D01*
X209620Y97157D02*
Y95132D01*
X209845Y94682D01*
X210295Y94458D01*
X210520D01*
X209620Y96707D02*
X209395Y96482D01*
X208046Y96257D01*
X207371Y96032D01*
X207146Y95582D01*
Y95132D01*
X207371Y94682D01*
X208046Y94458D01*
X208720D01*
X209170Y94682D01*
X209620Y95132D01*
X208046Y96257D02*
X207596Y96032D01*
X207371Y95582D01*
Y95132D01*
X207596Y94682D01*
X208046Y94458D01*
X213894Y96932D02*
X213669Y96707D01*
X213894Y96482D01*
X214119Y96707D01*
Y96932D01*
X213669Y97382D01*
X213219Y97606D01*
X212544D01*
X211869Y97382D01*
X211420Y96932D01*
X211195Y96257D01*
Y95807D01*
X211420Y95132D01*
X211869Y94682D01*
X212544Y94458D01*
X212994D01*
X213669Y94682D01*
X214119Y95132D01*
X212544Y97606D02*
X212094Y97382D01*
X211645Y96932D01*
X211420Y96257D01*
Y95807D01*
X211645Y95132D01*
X212094Y94682D01*
X212544Y94458D01*
X215063Y96257D02*
X217762D01*
Y96707D01*
X217537Y97157D01*
X217313Y97382D01*
X216863Y97606D01*
X216188D01*
X215513Y97382D01*
X215063Y96932D01*
X214838Y96257D01*
Y95807D01*
X215063Y95132D01*
X215513Y94682D01*
X216188Y94458D01*
X216638D01*
X217313Y94682D01*
X217762Y95132D01*
X217537Y96257D02*
Y96932D01*
X217313Y97382D01*
X216188Y97606D02*
X215738Y97382D01*
X215288Y96932D01*
X215063Y96257D01*
Y95807D01*
X215288Y95132D01*
X215738Y94682D01*
X216188Y94458D01*
X219157Y99181D02*
Y94458D01*
X219382Y99181D02*
Y94458D01*
X218482Y99181D02*
X220057D01*
X218482Y94458D02*
X221856D01*
Y95807D01*
X221631Y94458D01*
X222981Y97157D02*
Y96932D01*
X222756D01*
Y97157D01*
X222981Y97382D01*
X223430Y97606D01*
X224330D01*
X224780Y97382D01*
X225005Y97157D01*
X225230Y96707D01*
Y95132D01*
X225455Y94682D01*
X225680Y94458D01*
X225005Y97157D02*
Y95132D01*
X225230Y94682D01*
X225680Y94458D01*
X225905D01*
X225005Y96707D02*
X224780Y96482D01*
X223430Y96257D01*
X222756Y96032D01*
X222531Y95582D01*
Y95132D01*
X222756Y94682D01*
X223430Y94458D01*
X224105D01*
X224555Y94682D01*
X225005Y95132D01*
X223430Y96257D02*
X222981Y96032D01*
X222756Y95582D01*
Y95132D01*
X222981Y94682D01*
X223430Y94458D01*
X227254Y99181D02*
Y94458D01*
X227479Y99181D02*
Y94458D01*
Y96932D02*
X227929Y97382D01*
X228379Y97606D01*
X228829D01*
X229503Y97382D01*
X229953Y96932D01*
X230178Y96257D01*
Y95807D01*
X229953Y95132D01*
X229503Y94682D01*
X228829Y94458D01*
X228379D01*
X227929Y94682D01*
X227479Y95132D01*
X228829Y97606D02*
X229278Y97382D01*
X229728Y96932D01*
X229953Y96257D01*
Y95807D01*
X229728Y95132D01*
X229278Y94682D01*
X228829Y94458D01*
X226579Y99181D02*
X227479D01*
X235756D02*
Y95807D01*
X235981Y95132D01*
X236431Y94682D01*
X237106Y94458D01*
X237556D01*
X238230Y94682D01*
X238680Y95132D01*
X238905Y95807D01*
Y99181D01*
X235981D02*
Y95807D01*
X236206Y95132D01*
X236656Y94682D01*
X237106Y94458D01*
X235082Y99181D02*
X236656D01*
X238230D02*
X239580D01*
X240817D02*
Y94458D01*
X241042Y99181D02*
Y94458D01*
X242392Y97831D02*
Y96032D01*
X240142Y99181D02*
X243741D01*
Y97831D01*
X243516Y99181D01*
X241042Y96932D02*
X242392D01*
X240142Y94458D02*
X241717D01*
X247317Y98506D02*
X247542Y99181D01*
Y97831D01*
X247317Y98506D01*
X246868Y98956D01*
X246193Y99181D01*
X245518D01*
X244843Y98956D01*
X244393Y98506D01*
Y98056D01*
X244618Y97606D01*
X244843Y97382D01*
X245293Y97157D01*
X246643Y96707D01*
X247093Y96482D01*
X247542Y96032D01*
X244393Y98056D02*
X244843Y97606D01*
X245293Y97382D01*
X246643Y96932D01*
X247093Y96707D01*
X247317Y96482D01*
X247542Y96032D01*
Y95132D01*
X247093Y94682D01*
X246418Y94458D01*
X245743D01*
X245068Y94682D01*
X244618Y95132D01*
X244393Y95807D01*
Y94458D01*
X244618Y95132D01*
X251389Y98506D02*
X251613Y97831D01*
Y99181D01*
X251389Y98506D01*
X250939Y98956D01*
X250264Y99181D01*
X249814D01*
X249139Y98956D01*
X248690Y98506D01*
X248464Y98056D01*
X248240Y97382D01*
Y96257D01*
X248464Y95582D01*
X248690Y95132D01*
X249139Y94682D01*
X249814Y94458D01*
X250264D01*
X250939Y94682D01*
X251389Y95132D01*
X251613Y95582D01*
X249814Y99181D02*
X249364Y98956D01*
X248914Y98506D01*
X248690Y98056D01*
X248464Y97382D01*
Y96257D01*
X248690Y95582D01*
X248914Y95132D01*
X249364Y94682D01*
X249814Y94458D01*
X256764Y98281D02*
X256989Y98056D01*
X256764Y97831D01*
X256539Y98056D01*
Y98281D01*
X256764Y98731D01*
X256989Y98956D01*
X257664Y99181D01*
X258564D01*
X259238Y98956D01*
X259463Y98731D01*
X259688Y98281D01*
Y97831D01*
X259463Y97382D01*
X258788Y96932D01*
X257664Y96482D01*
X257214Y96257D01*
X256764Y95807D01*
X256539Y95132D01*
Y94458D01*
X258564Y99181D02*
X259014Y98956D01*
X259238Y98731D01*
X259463Y98281D01*
Y97831D01*
X259238Y97382D01*
X258564Y96932D01*
X257664Y96482D01*
X256539Y94907D02*
X256764Y95132D01*
X257214D01*
X258339Y94682D01*
X259014D01*
X259463Y94907D01*
X259688Y95132D01*
Y95582D01*
X257214Y95132D02*
X258339Y94458D01*
X259238D01*
X259463Y94682D01*
X259688Y95132D01*
X261735Y99181D02*
X261060Y98956D01*
X260610Y98281D01*
X260385Y97157D01*
Y96482D01*
X260610Y95357D01*
X261060Y94682D01*
X261735Y94458D01*
X262185D01*
X262860Y94682D01*
X263310Y95357D01*
X263534Y96482D01*
Y97157D01*
X263310Y98281D01*
X262860Y98956D01*
X262185Y99181D01*
X261735D01*
X261285Y98956D01*
X261060Y98731D01*
X260835Y98281D01*
X260610Y97157D01*
Y96482D01*
X260835Y95357D01*
X261060Y94907D01*
X261285Y94682D01*
X261735Y94458D01*
X262185D02*
X262635Y94682D01*
X262860Y94907D01*
X263085Y95357D01*
X263310Y96482D01*
Y97157D01*
X263085Y98281D01*
X262860Y98731D01*
X262635Y98956D01*
X262185Y99181D01*
X264457Y98281D02*
X264682Y98056D01*
X264457Y97831D01*
X264232Y98056D01*
Y98281D01*
X264457Y98731D01*
X264682Y98956D01*
X265356Y99181D01*
X266256D01*
X266931Y98956D01*
X267156Y98731D01*
X267381Y98281D01*
Y97831D01*
X267156Y97382D01*
X266481Y96932D01*
X265356Y96482D01*
X264907Y96257D01*
X264457Y95807D01*
X264232Y95132D01*
Y94458D01*
X266256Y99181D02*
X266706Y98956D01*
X266931Y98731D01*
X267156Y98281D01*
Y97831D01*
X266931Y97382D01*
X266256Y96932D01*
X265356Y96482D01*
X264232Y94907D02*
X264457Y95132D01*
X264907D01*
X266031Y94682D01*
X266706D01*
X267156Y94907D01*
X267381Y95132D01*
Y95582D01*
X264907Y95132D02*
X266031Y94458D01*
X266931D01*
X267156Y94682D01*
X267381Y95132D01*
X269427Y99181D02*
X268753Y98956D01*
X268303Y98281D01*
X268078Y97157D01*
Y96482D01*
X268303Y95357D01*
X268753Y94682D01*
X269427Y94458D01*
X269877D01*
X270552Y94682D01*
X271002Y95357D01*
X271227Y96482D01*
Y97157D01*
X271002Y98281D01*
X270552Y98956D01*
X269877Y99181D01*
X269427D01*
X268978Y98956D01*
X268753Y98731D01*
X268528Y98281D01*
X268303Y97157D01*
Y96482D01*
X268528Y95357D01*
X268753Y94907D01*
X268978Y94682D01*
X269427Y94458D01*
X269877D02*
X270327Y94682D01*
X270552Y94907D01*
X270777Y95357D01*
X271002Y96482D01*
Y97157D01*
X270777Y98281D01*
X270552Y98731D01*
X270327Y98956D01*
X269877Y99181D01*
X181323Y11513D02*
X183684D01*
X184471Y12300D01*
X183684Y13087D01*
X182110D01*
X181323Y13874D01*
X182110Y14661D01*
X184471D01*
X186833Y15449D02*
Y14661D01*
X186046D01*
X187620D01*
X186833D01*
Y12300D01*
X187620Y11513D01*
X189981Y14661D02*
Y11513D01*
Y13087D01*
X190769Y13874D01*
X191556Y14661D01*
X192343D01*
X194704D02*
Y12300D01*
X195492Y11513D01*
X197853D01*
Y14661D01*
X202576D02*
X200215D01*
X199427Y13874D01*
Y12300D01*
X200215Y11513D01*
X202576D01*
X204937Y15449D02*
Y14661D01*
X204150D01*
X205725D01*
X204937D01*
Y12300D01*
X205725Y11513D01*
X208086Y14661D02*
Y12300D01*
X208873Y11513D01*
X211234D01*
Y14661D01*
X212809D02*
Y11513D01*
Y13087D01*
X213596Y13874D01*
X214383Y14661D01*
X215170D01*
X219893Y11513D02*
X218319D01*
X217532Y12300D01*
Y13874D01*
X218319Y14661D01*
X219893D01*
X220680Y13874D01*
Y13087D01*
X217532D01*
X230126Y14661D02*
X227765D01*
X226977Y13874D01*
Y12300D01*
X227765Y11513D01*
X230126D01*
X232488D02*
X234062D01*
X234849Y12300D01*
Y13874D01*
X234062Y14661D01*
X232488D01*
X231700Y13874D01*
Y12300D01*
X232488Y11513D01*
X236423D02*
Y14661D01*
X238785D01*
X239572Y13874D01*
Y11513D01*
X241933Y15449D02*
Y14661D01*
X241146D01*
X242720D01*
X241933D01*
Y12300D01*
X242720Y11513D01*
X245869Y14661D02*
X247443D01*
X248230Y13874D01*
Y11513D01*
X245869D01*
X245082Y12300D01*
X245869Y13087D01*
X248230D01*
X252953Y14661D02*
X250592D01*
X249805Y13874D01*
Y12300D01*
X250592Y11513D01*
X252953D01*
X255315Y15449D02*
Y14661D01*
X254528D01*
X256102D01*
X255315D01*
Y12300D01*
X256102Y11513D01*
X263973Y14661D02*
X265548D01*
X266335Y13874D01*
Y11513D01*
X263973D01*
X263186Y12300D01*
X263973Y13087D01*
X266335D01*
X267909Y14661D02*
Y11513D01*
Y13087D01*
X268696Y13874D01*
X269483Y14661D01*
X270270D01*
X274993Y11513D02*
X273419D01*
X272632Y12300D01*
Y13874D01*
X273419Y14661D01*
X274993D01*
X275781Y13874D01*
Y13087D01*
X272632D01*
X278142Y14661D02*
X279716D01*
X280503Y13874D01*
Y11513D01*
X278142D01*
X277355Y12300D01*
X278142Y13087D01*
X280503D01*
X44843Y102930D02*
Y98207D01*
X45068Y102930D02*
Y98207D01*
X44168Y102930D02*
X45743D01*
X44168Y98207D02*
X45743D01*
X47272Y101356D02*
Y98207D01*
X47497Y101356D02*
Y98207D01*
Y100681D02*
X47947Y101131D01*
X48622Y101356D01*
X49072D01*
X49747Y101131D01*
X49972Y100681D01*
Y98207D01*
X49072Y101356D02*
X49522Y101131D01*
X49747Y100681D01*
Y98207D01*
X46598Y101356D02*
X47497D01*
X46598Y98207D02*
X48172D01*
X49072D02*
X50646D01*
X52603D02*
X52378Y98432D01*
X52153Y99107D01*
Y102930D01*
X51928D01*
Y99107D01*
X52153Y98432D01*
X52603Y98207D01*
X53053D01*
X53503Y98432D01*
X53728Y98882D01*
X51254Y101356D02*
X53053D01*
X54717Y100006D02*
X57416D01*
Y100456D01*
X57192Y100906D01*
X56967Y101131D01*
X56517Y101356D01*
X55842D01*
X55167Y101131D01*
X54717Y100681D01*
X54492Y100006D01*
Y99557D01*
X54717Y98882D01*
X55167Y98432D01*
X55842Y98207D01*
X56292D01*
X56967Y98432D01*
X57416Y98882D01*
X57192Y100006D02*
Y100681D01*
X56967Y101131D01*
X55842Y101356D02*
X55392Y101131D01*
X54942Y100681D01*
X54717Y100006D01*
Y99557D01*
X54942Y98882D01*
X55392Y98432D01*
X55842Y98207D01*
X58811Y101356D02*
Y98207D01*
X59036Y101356D02*
Y98207D01*
Y100006D02*
X59261Y100681D01*
X59711Y101131D01*
X60161Y101356D01*
X60835D01*
X61060Y101131D01*
Y100906D01*
X60835Y100681D01*
X60610Y100906D01*
X60835Y101131D01*
X58136Y101356D02*
X59036D01*
X58136Y98207D02*
X59711D01*
X64029Y100906D02*
X64254Y101356D01*
Y100456D01*
X64029Y100906D01*
X63804Y101131D01*
X63354Y101356D01*
X62455D01*
X62005Y101131D01*
X61780Y100906D01*
Y100456D01*
X62005Y100231D01*
X62455Y100006D01*
X63579Y99557D01*
X64029Y99332D01*
X64254Y99107D01*
X61780Y100681D02*
X62005Y100456D01*
X62455Y100231D01*
X63579Y99782D01*
X64029Y99557D01*
X64254Y99332D01*
Y98657D01*
X64029Y98432D01*
X63579Y98207D01*
X62680D01*
X62230Y98432D01*
X62005Y98657D01*
X61780Y99107D01*
Y98207D01*
X62005Y98657D01*
X66369Y98207D02*
X66144Y98432D01*
X65919Y99107D01*
Y102930D01*
X65694D01*
Y99107D01*
X65919Y98432D01*
X66369Y98207D01*
X66818D01*
X67268Y98432D01*
X67493Y98882D01*
X65019Y101356D02*
X66818D01*
X68708Y100906D02*
Y100681D01*
X68483D01*
Y100906D01*
X68708Y101131D01*
X69157Y101356D01*
X70057D01*
X70507Y101131D01*
X70732Y100906D01*
X70957Y100456D01*
Y98882D01*
X71182Y98432D01*
X71407Y98207D01*
X70732Y100906D02*
Y98882D01*
X70957Y98432D01*
X71407Y98207D01*
X71632D01*
X70732Y100456D02*
X70507Y100231D01*
X69157Y100006D01*
X68483Y99782D01*
X68258Y99332D01*
Y98882D01*
X68483Y98432D01*
X69157Y98207D01*
X69832D01*
X70282Y98432D01*
X70732Y98882D01*
X69157Y100006D02*
X68708Y99782D01*
X68483Y99332D01*
Y98882D01*
X68708Y98432D01*
X69157Y98207D01*
X73656Y101356D02*
X73206Y101131D01*
X72981Y100906D01*
X72756Y100456D01*
Y100006D01*
X72981Y99557D01*
X73206Y99332D01*
X73656Y99107D01*
X74106D01*
X74556Y99332D01*
X74781Y99557D01*
X75006Y100006D01*
Y100456D01*
X74781Y100906D01*
X74556Y101131D01*
X74106Y101356D01*
X73656D01*
X73206Y101131D02*
X72981Y100681D01*
Y99782D01*
X73206Y99332D01*
X74556D02*
X74781Y99782D01*
Y100681D01*
X74556Y101131D01*
X74781Y100906D02*
X75006Y101131D01*
X75455Y101356D01*
Y101131D01*
X75006D01*
X72981Y99557D02*
X72756Y99332D01*
X72531Y98882D01*
Y98657D01*
X72756Y98207D01*
X73431Y97982D01*
X74556D01*
X75230Y97757D01*
X75455Y97532D01*
X72531Y98657D02*
X72756Y98432D01*
X73431Y98207D01*
X74556D01*
X75230Y97982D01*
X75455Y97532D01*
Y97307D01*
X75230Y96858D01*
X74556Y96633D01*
X73206D01*
X72531Y96858D01*
X72306Y97307D01*
Y97532D01*
X72531Y97982D01*
X73206Y98207D01*
X76378Y100006D02*
X79077D01*
Y100456D01*
X78852Y100906D01*
X78627Y101131D01*
X78177Y101356D01*
X77502D01*
X76827Y101131D01*
X76378Y100681D01*
X76153Y100006D01*
Y99557D01*
X76378Y98882D01*
X76827Y98432D01*
X77502Y98207D01*
X77952D01*
X78627Y98432D01*
X79077Y98882D01*
X78852Y100006D02*
Y100681D01*
X78627Y101131D01*
X77502Y101356D02*
X77052Y101131D01*
X76603Y100681D01*
X76378Y100006D01*
Y99557D01*
X76603Y98882D01*
X77052Y98432D01*
X77502Y98207D01*
X84722Y102930D02*
Y98207D01*
X84947Y102930D02*
Y98207D01*
X84048Y102930D02*
X85622D01*
X84048Y98207D02*
X85622D01*
X87151Y101356D02*
Y98207D01*
X87376Y101356D02*
Y98207D01*
Y100681D02*
X87826Y101131D01*
X88501Y101356D01*
X88951D01*
X89626Y101131D01*
X89850Y100681D01*
Y98207D01*
X88951Y101356D02*
X89401Y101131D01*
X89626Y100681D01*
Y98207D01*
X86477Y101356D02*
X87376D01*
X86477Y98207D02*
X88051D01*
X88951D02*
X90525D01*
X92482D02*
X92257Y98432D01*
X92032Y99107D01*
Y102930D01*
X91807D01*
Y99107D01*
X92032Y98432D01*
X92482Y98207D01*
X92932D01*
X93382Y98432D01*
X93607Y98882D01*
X91133Y101356D02*
X92932D01*
X94596Y100006D02*
X97295D01*
Y100456D01*
X97071Y100906D01*
X96846Y101131D01*
X96396Y101356D01*
X95721D01*
X95046Y101131D01*
X94596Y100681D01*
X94371Y100006D01*
Y99557D01*
X94596Y98882D01*
X95046Y98432D01*
X95721Y98207D01*
X96171D01*
X96846Y98432D01*
X97295Y98882D01*
X97071Y100006D02*
Y100681D01*
X96846Y101131D01*
X95721Y101356D02*
X95271Y101131D01*
X94821Y100681D01*
X94596Y100006D01*
Y99557D01*
X94821Y98882D01*
X95271Y98432D01*
X95721Y98207D01*
X98690Y101356D02*
Y98207D01*
X98915Y101356D02*
Y98207D01*
Y100006D02*
X99140Y100681D01*
X99590Y101131D01*
X100040Y101356D01*
X100714D01*
X100939Y101131D01*
Y100906D01*
X100714Y100681D01*
X100489Y100906D01*
X100714Y101131D01*
X98015Y101356D02*
X98915D01*
X98015Y98207D02*
X99590D01*
X103458Y102706D02*
X103234Y102481D01*
X103458Y102256D01*
X103683Y102481D01*
Y102706D01*
X103458Y102930D01*
X103008D01*
X102559Y102706D01*
X102334Y102256D01*
Y98207D01*
X103008Y102930D02*
X102784Y102706D01*
X102559Y102256D01*
Y98207D01*
X101659Y101356D02*
X103458D01*
X101659Y98207D02*
X103234D01*
X104943Y100906D02*
Y100681D01*
X104718D01*
Y100906D01*
X104943Y101131D01*
X105393Y101356D01*
X106292D01*
X106742Y101131D01*
X106967Y100906D01*
X107192Y100456D01*
Y98882D01*
X107417Y98432D01*
X107642Y98207D01*
X106967Y100906D02*
Y98882D01*
X107192Y98432D01*
X107642Y98207D01*
X107867D01*
X106967Y100456D02*
X106742Y100231D01*
X105393Y100006D01*
X104718Y99782D01*
X104493Y99332D01*
Y98882D01*
X104718Y98432D01*
X105393Y98207D01*
X106068D01*
X106517Y98432D01*
X106967Y98882D01*
X105393Y100006D02*
X104943Y99782D01*
X104718Y99332D01*
Y98882D01*
X104943Y98432D01*
X105393Y98207D01*
X111241Y100681D02*
X111016Y100456D01*
X111241Y100231D01*
X111466Y100456D01*
Y100681D01*
X111016Y101131D01*
X110566Y101356D01*
X109891D01*
X109216Y101131D01*
X108767Y100681D01*
X108542Y100006D01*
Y99557D01*
X108767Y98882D01*
X109216Y98432D01*
X109891Y98207D01*
X110341D01*
X111016Y98432D01*
X111466Y98882D01*
X109891Y101356D02*
X109441Y101131D01*
X108992Y100681D01*
X108767Y100006D01*
Y99557D01*
X108992Y98882D01*
X109441Y98432D01*
X109891Y98207D01*
X112410Y100006D02*
X115109D01*
Y100456D01*
X114884Y100906D01*
X114660Y101131D01*
X114210Y101356D01*
X113535D01*
X112860Y101131D01*
X112410Y100681D01*
X112185Y100006D01*
Y99557D01*
X112410Y98882D01*
X112860Y98432D01*
X113535Y98207D01*
X113985D01*
X114660Y98432D01*
X115109Y98882D01*
X114884Y100006D02*
Y100681D01*
X114660Y101131D01*
X113535Y101356D02*
X113085Y101131D01*
X112635Y100681D01*
X112410Y100006D01*
Y99557D01*
X112635Y98882D01*
X113085Y98432D01*
X113535Y98207D01*
X120755Y102930D02*
Y98207D01*
X120980Y102930D02*
Y98207D01*
X120080Y102930D02*
X122779D01*
X123454Y102706D01*
X123679Y102481D01*
X123904Y102031D01*
Y101356D01*
X123679Y100906D01*
X123454Y100681D01*
X122779Y100456D01*
X120980D01*
X122779Y102930D02*
X123229Y102706D01*
X123454Y102481D01*
X123679Y102031D01*
Y101356D01*
X123454Y100906D01*
X123229Y100681D01*
X122779Y100456D01*
X120080Y98207D02*
X121655D01*
X124984Y100906D02*
Y100681D01*
X124759D01*
Y100906D01*
X124984Y101131D01*
X125433Y101356D01*
X126333D01*
X126783Y101131D01*
X127008Y100906D01*
X127233Y100456D01*
Y98882D01*
X127458Y98432D01*
X127683Y98207D01*
X127008Y100906D02*
Y98882D01*
X127233Y98432D01*
X127683Y98207D01*
X127908D01*
X127008Y100456D02*
X126783Y100231D01*
X125433Y100006D01*
X124759Y99782D01*
X124534Y99332D01*
Y98882D01*
X124759Y98432D01*
X125433Y98207D01*
X126108D01*
X126558Y98432D01*
X127008Y98882D01*
X125433Y100006D02*
X124984Y99782D01*
X124759Y99332D01*
Y98882D01*
X124984Y98432D01*
X125433Y98207D01*
X129257Y101356D02*
Y98207D01*
X129482Y101356D02*
Y98207D01*
Y100681D02*
X129932Y101131D01*
X130607Y101356D01*
X131056D01*
X131731Y101131D01*
X131956Y100681D01*
Y98207D01*
X131056Y101356D02*
X131506Y101131D01*
X131731Y100681D01*
Y98207D01*
X128582Y101356D02*
X129482D01*
X128582Y98207D02*
X130157D01*
X131056D02*
X132631D01*
X133463Y100006D02*
X136162D01*
Y100456D01*
X135937Y100906D01*
X135712Y101131D01*
X135263Y101356D01*
X134588D01*
X133913Y101131D01*
X133463Y100681D01*
X133238Y100006D01*
Y99557D01*
X133463Y98882D01*
X133913Y98432D01*
X134588Y98207D01*
X135038D01*
X135712Y98432D01*
X136162Y98882D01*
X135937Y100006D02*
Y100681D01*
X135712Y101131D01*
X134588Y101356D02*
X134138Y101131D01*
X133688Y100681D01*
X133463Y100006D01*
Y99557D01*
X133688Y98882D01*
X134138Y98432D01*
X134588Y98207D01*
X137557Y102930D02*
Y98207D01*
X137782Y102930D02*
Y98207D01*
X136882Y102930D02*
X137782D01*
X136882Y98207D02*
X138456D01*
X63085Y93798D02*
Y89075D01*
X63310Y93798D02*
Y89075D01*
X62410Y93798D02*
X65109D01*
X65784Y93573D01*
X66009Y93348D01*
X66233Y92898D01*
Y92449D01*
X66009Y91999D01*
X65784Y91774D01*
X65109Y91549D01*
Y93798D02*
X65559Y93573D01*
X65784Y93348D01*
X66009Y92898D01*
Y92449D01*
X65784Y91999D01*
X65559Y91774D01*
X65109Y91549D01*
X63310D02*
X65109D01*
X65784Y91324D01*
X66009Y91099D01*
X66233Y90649D01*
Y89974D01*
X66009Y89525D01*
X65784Y89300D01*
X65109Y89075D01*
X62410D01*
X65109Y91549D02*
X65559Y91324D01*
X65784Y91099D01*
X66009Y90649D01*
Y89974D01*
X65784Y89525D01*
X65559Y89300D01*
X65109Y89075D01*
X68213Y92224D02*
X67538Y91999D01*
X67088Y91549D01*
X66863Y90874D01*
Y90424D01*
X67088Y89750D01*
X67538Y89300D01*
X68213Y89075D01*
X68663D01*
X69337Y89300D01*
X69787Y89750D01*
X70012Y90424D01*
Y90874D01*
X69787Y91549D01*
X69337Y91999D01*
X68663Y92224D01*
X68213D01*
X67763Y91999D01*
X67313Y91549D01*
X67088Y90874D01*
Y90424D01*
X67313Y89750D01*
X67763Y89300D01*
X68213Y89075D01*
X68663D02*
X69112Y89300D01*
X69562Y89750D01*
X69787Y90424D01*
Y90874D01*
X69562Y91549D01*
X69112Y91999D01*
X68663Y92224D01*
X71159Y91774D02*
Y91549D01*
X70934D01*
Y91774D01*
X71159Y91999D01*
X71609Y92224D01*
X72509D01*
X72959Y91999D01*
X73184Y91774D01*
X73409Y91324D01*
Y89750D01*
X73633Y89300D01*
X73858Y89075D01*
X73184Y91774D02*
Y89750D01*
X73409Y89300D01*
X73858Y89075D01*
X74083D01*
X73184Y91324D02*
X72959Y91099D01*
X71609Y90874D01*
X70934Y90649D01*
X70710Y90199D01*
Y89750D01*
X70934Y89300D01*
X71609Y89075D01*
X72284D01*
X72734Y89300D01*
X73184Y89750D01*
X71609Y90874D02*
X71159Y90649D01*
X70934Y90199D01*
Y89750D01*
X71159Y89300D01*
X71609Y89075D01*
X75433Y92224D02*
Y89075D01*
X75658Y92224D02*
Y89075D01*
Y90874D02*
X75883Y91549D01*
X76333Y91999D01*
X76782Y92224D01*
X77457D01*
X77682Y91999D01*
Y91774D01*
X77457Y91549D01*
X77232Y91774D01*
X77457Y91999D01*
X74758Y92224D02*
X75658D01*
X74758Y89075D02*
X76333D01*
X81101Y93798D02*
Y89075D01*
X81326Y93798D02*
Y89075D01*
X81101Y91549D02*
X80651Y91999D01*
X80201Y92224D01*
X79751D01*
X79077Y91999D01*
X78627Y91549D01*
X78402Y90874D01*
Y90424D01*
X78627Y89750D01*
X79077Y89300D01*
X79751Y89075D01*
X80201D01*
X80651Y89300D01*
X81101Y89750D01*
X79751Y92224D02*
X79302Y91999D01*
X78852Y91549D01*
X78627Y90874D01*
Y90424D01*
X78852Y89750D01*
X79302Y89300D01*
X79751Y89075D01*
X80426Y93798D02*
X81326D01*
X81101Y89075D02*
X82001D01*
X87579Y93798D02*
Y89075D01*
X87804Y93798D02*
X90503Y89525D01*
X87804Y93348D02*
X90503Y89075D01*
Y93798D02*
Y89075D01*
X86904Y93798D02*
X87804D01*
X89828D02*
X91177D01*
X86904Y89075D02*
X88253D01*
X91987Y89525D02*
X91762Y89300D01*
X91987Y89075D01*
X92212Y89300D01*
X91987Y89525D01*
X93179Y92898D02*
X93629Y93123D01*
X94304Y93798D01*
Y89075D01*
X94079Y93573D02*
Y89075D01*
X93179D02*
X95204D01*
X100939Y93798D02*
Y89075D01*
X101164Y93798D02*
Y89075D01*
X100265Y93798D02*
X102964D01*
X103638Y93573D01*
X103863Y93348D01*
X104088Y92898D01*
Y92449D01*
X103863Y91999D01*
X103638Y91774D01*
X102964Y91549D01*
X101164D01*
X102964Y93798D02*
X103413Y93573D01*
X103638Y93348D01*
X103863Y92898D01*
Y92449D01*
X103638Y91999D01*
X103413Y91774D01*
X102964Y91549D01*
X100265Y89075D02*
X101839D01*
X102289Y91549D02*
X102739Y91324D01*
X102964Y91099D01*
X103638Y89525D01*
X103863Y89300D01*
X104088D01*
X104313Y89525D01*
X102739Y91324D02*
X102964Y90874D01*
X103413Y89300D01*
X103638Y89075D01*
X104088D01*
X104313Y89525D01*
Y89750D01*
X105145Y90874D02*
X107844D01*
Y91324D01*
X107620Y91774D01*
X107395Y91999D01*
X106945Y92224D01*
X106270D01*
X105595Y91999D01*
X105145Y91549D01*
X104920Y90874D01*
Y90424D01*
X105145Y89750D01*
X105595Y89300D01*
X106270Y89075D01*
X106720D01*
X107395Y89300D01*
X107844Y89750D01*
X107620Y90874D02*
Y91549D01*
X107395Y91999D01*
X106270Y92224D02*
X105820Y91999D01*
X105370Y91549D01*
X105145Y90874D01*
Y90424D01*
X105370Y89750D01*
X105820Y89300D01*
X106270Y89075D01*
X109014Y92224D02*
X110363Y89075D01*
X109239Y92224D02*
X110363Y89525D01*
X111713Y92224D02*
X110363Y89075D01*
X108564Y92224D02*
X109914D01*
X110813D02*
X112163D01*
X117066Y92898D02*
X117516Y93123D01*
X118191Y93798D01*
Y89075D01*
X117966Y93573D02*
Y89075D01*
X117066D02*
X119091D01*
X120125Y89525D02*
X119900Y89300D01*
X120125Y89075D01*
X120350Y89300D01*
X120125Y89525D01*
X122667Y93798D02*
X121992Y93573D01*
X121542Y92898D01*
X121317Y91774D01*
Y91099D01*
X121542Y89974D01*
X121992Y89300D01*
X122667Y89075D01*
X123117D01*
X123792Y89300D01*
X124241Y89974D01*
X124466Y91099D01*
Y91774D01*
X124241Y92898D01*
X123792Y93573D01*
X123117Y93798D01*
X122667D01*
X122217Y93573D01*
X121992Y93348D01*
X121767Y92898D01*
X121542Y91774D01*
Y91099D01*
X121767Y89974D01*
X121992Y89525D01*
X122217Y89300D01*
X122667Y89075D01*
X123117D02*
X123567Y89300D01*
X123792Y89525D01*
X124016Y89974D01*
X124241Y91099D01*
Y91774D01*
X124016Y92898D01*
X123792Y93348D01*
X123567Y93573D01*
X123117Y93798D01*
X80322Y14319D02*
X81896D01*
X81109D01*
Y19042D01*
X80322D01*
X84257Y14319D02*
X85831D01*
X85044D01*
Y17468D01*
X84257D01*
X88193Y14319D02*
Y17468D01*
X90554D01*
X91342Y16680D01*
Y14319D01*
X95277D02*
X93703D01*
X92916Y15106D01*
Y16680D01*
X93703Y17468D01*
X95277D01*
X96064Y16680D01*
Y15893D01*
X92916D01*
X102362Y14319D02*
X103936D01*
X103149D01*
Y19042D01*
X102362D01*
X106297Y14319D02*
X107872D01*
X107085D01*
Y17468D01*
X106297D01*
X110233Y14319D02*
Y17468D01*
X111020D01*
X111807Y16680D01*
Y14319D01*
Y16680D01*
X112594Y17468D01*
X113382Y16680D01*
Y14319D01*
X114956D02*
X116530D01*
X115743D01*
Y17468D01*
X114956D01*
X119679Y18255D02*
Y17468D01*
X118892D01*
X120466D01*
X119679D01*
Y15106D01*
X120466Y14319D01*
X59856Y6762D02*
X58281D01*
X57494Y7549D01*
Y9123D01*
X58281Y9910D01*
X59856D01*
X60643Y9123D01*
Y8336D01*
X57494D01*
X62217Y9910D02*
X65366Y6762D01*
X63791Y8336D01*
X65366Y9910D01*
X62217Y6762D01*
X67727Y10697D02*
Y9910D01*
X66940D01*
X68514D01*
X67727D01*
Y7549D01*
X68514Y6762D01*
X73237D02*
X71663D01*
X70876Y7549D01*
Y9123D01*
X71663Y9910D01*
X73237D01*
X74024Y9123D01*
Y8336D01*
X70876D01*
X75599Y9910D02*
Y6762D01*
Y8336D01*
X76386Y9123D01*
X77173Y9910D01*
X77960D01*
X80322Y6762D02*
Y9910D01*
X82683D01*
X83470Y9123D01*
Y6762D01*
X85831Y9910D02*
X87406D01*
X88193Y9123D01*
Y6762D01*
X85831D01*
X85044Y7549D01*
X85831Y8336D01*
X88193D01*
X89767Y6762D02*
X91342D01*
X90554D01*
Y11485D01*
X89767D01*
X101574Y9910D02*
X99213D01*
X98426Y9123D01*
Y7549D01*
X99213Y6762D01*
X101574D01*
X103936D02*
X105510D01*
X106297Y7549D01*
Y9123D01*
X105510Y9910D01*
X103936D01*
X103149Y9123D01*
Y7549D01*
X103936Y6762D01*
X107872D02*
Y9910D01*
X110233D01*
X111020Y9123D01*
Y6762D01*
X112594D02*
Y9910D01*
X114956D01*
X115743Y9123D01*
Y6762D01*
X119679D02*
X118105D01*
X117317Y7549D01*
Y9123D01*
X118105Y9910D01*
X119679D01*
X120466Y9123D01*
Y8336D01*
X117317D01*
X125189Y9910D02*
X122827D01*
X122040Y9123D01*
Y7549D01*
X122827Y6762D01*
X125189D01*
X127550Y10697D02*
Y9910D01*
X126763D01*
X128337D01*
X127550D01*
Y7549D01*
X128337Y6762D01*
X131486D02*
X133060D01*
X133847Y7549D01*
Y9123D01*
X133060Y9910D01*
X131486D01*
X130699Y9123D01*
Y7549D01*
X131486Y6762D01*
X135422Y9910D02*
Y6762D01*
Y8336D01*
X136209Y9123D01*
X136996Y9910D01*
X137783D01*
X140145Y6762D02*
X142506D01*
X143293Y7549D01*
X142506Y8336D01*
X140932D01*
X140145Y9123D01*
X140932Y9910D01*
X143293D01*
X255509Y80390D02*
X254722Y81177D01*
X253147D01*
X252360Y80390D01*
Y77241D01*
X253147Y76454D01*
X254722D01*
X255509Y77241D01*
X257083Y81177D02*
Y76454D01*
Y78816D01*
X257870Y79603D01*
X259444D01*
X260232Y78816D01*
Y76454D01*
X262593Y79603D02*
X264167D01*
X264954Y78816D01*
Y76454D01*
X262593D01*
X261806Y77241D01*
X262593Y78029D01*
X264954D01*
X266529Y79603D02*
Y76454D01*
Y78029D01*
X267316Y78816D01*
X268103Y79603D01*
X268890D01*
X272826Y74880D02*
X273613D01*
X274400Y75667D01*
Y79603D01*
X272039D01*
X271252Y78816D01*
Y77241D01*
X272039Y76454D01*
X274400D01*
X278336D02*
X276762D01*
X275975Y77241D01*
Y78816D01*
X276762Y79603D01*
X278336D01*
X279123Y78816D01*
Y78029D01*
X275975D01*
X249212Y71259D02*
X248424Y72046D01*
X246850D01*
X246063Y71259D01*
Y68110D01*
X246850Y67323D01*
X248424D01*
X249212Y68110D01*
X251573Y67323D02*
X253147D01*
X253935Y68110D01*
Y69684D01*
X253147Y70471D01*
X251573D01*
X250786Y69684D01*
Y68110D01*
X251573Y67323D01*
X255509D02*
Y70471D01*
X257870D01*
X258657Y69684D01*
Y67323D01*
X260232D02*
Y70471D01*
X262593D01*
X263380Y69684D01*
Y67323D01*
X267316D02*
X265742D01*
X264954Y68110D01*
Y69684D01*
X265742Y70471D01*
X267316D01*
X268103Y69684D01*
Y68897D01*
X264954D01*
X272826Y70471D02*
X270464D01*
X269677Y69684D01*
Y68110D01*
X270464Y67323D01*
X272826D01*
X275187Y71259D02*
Y70471D01*
X274400D01*
X275975D01*
X275187D01*
Y68110D01*
X275975Y67323D01*
X279123D02*
X280697D01*
X281485Y68110D01*
Y69684D01*
X280697Y70471D01*
X279123D01*
X278336Y69684D01*
Y68110D01*
X279123Y67323D01*
X283059Y70471D02*
Y67323D01*
Y68897D01*
X283846Y69684D01*
X284633Y70471D01*
X285420D01*
X177084Y69585D02*
X175509D01*
X176297D01*
Y65649D01*
X175509Y64862D01*
X174722D01*
X173935Y65649D01*
X178658Y69585D02*
X181807D01*
X180232D01*
Y64862D01*
X183381D02*
Y68011D01*
X184955Y69585D01*
X186530Y68011D01*
Y64862D01*
Y67224D01*
X183381D01*
X191252Y68798D02*
X190465Y69585D01*
X188891D01*
X188104Y68798D01*
Y65649D01*
X188891Y64862D01*
X190465D01*
X191252Y65649D01*
Y67224D01*
X189678D01*
X192827Y64862D02*
X195975Y68011D01*
X197549Y69585D02*
Y65649D01*
X198337Y64862D01*
X199911D01*
X200698Y65649D01*
Y69585D01*
X202272Y64862D02*
Y68011D01*
X203847Y69585D01*
X205421Y68011D01*
Y64862D01*
Y67224D01*
X202272D01*
X206995Y64862D02*
Y69585D01*
X209357D01*
X210144Y68798D01*
Y67224D01*
X209357Y66436D01*
X206995D01*
X208570D02*
X210144Y64862D01*
X211718Y69585D02*
X214867D01*
X213293D01*
Y64862D01*
X221164D02*
Y69585D01*
X224312Y64862D01*
Y69585D01*
X229035Y64862D02*
X225887D01*
X229035Y68011D01*
Y68798D01*
X228248Y69585D01*
X226674D01*
X225887Y68798D01*
X76582Y69623D02*
X75008D01*
X75795D01*
Y65687D01*
X75008Y64900D01*
X74221D01*
X73434Y65687D01*
X78157Y69623D02*
X81305D01*
X79731D01*
Y64900D01*
X82880D02*
Y68048D01*
X84454Y69623D01*
X86028Y68048D01*
Y64900D01*
Y67261D01*
X82880D01*
X90751Y68836D02*
X89964Y69623D01*
X88390D01*
X87603Y68836D01*
Y65687D01*
X88390Y64900D01*
X89964D01*
X90751Y65687D01*
Y67261D01*
X89177D01*
X92325Y64900D02*
X95474Y68048D01*
X97048Y69623D02*
Y65687D01*
X97835Y64900D01*
X99410D01*
X100197Y65687D01*
Y69623D01*
X101771Y64900D02*
Y68048D01*
X103345Y69623D01*
X104920Y68048D01*
Y64900D01*
Y67261D01*
X101771D01*
X106494Y64900D02*
Y69623D01*
X108855D01*
X109643Y68836D01*
Y67261D01*
X108855Y66474D01*
X106494D01*
X108068D02*
X109643Y64900D01*
X111217Y69623D02*
X114365D01*
X112791D01*
Y64900D01*
X120663D02*
Y69623D01*
X123811Y64900D01*
Y69623D01*
X125385Y64900D02*
X126960D01*
X126173D01*
Y69623D01*
X125385Y68836D01*
X234252Y55118D02*
X235826D01*
X235039D01*
Y59841D01*
X234252Y59054D01*
X240549Y55118D02*
Y59841D01*
X238188Y57480D01*
X241336D01*
X234252Y45276D02*
X235826D01*
X235039D01*
Y49999D01*
X234252Y49211D01*
X238188D02*
X238975Y49999D01*
X240549D01*
X241336Y49211D01*
Y48424D01*
X240549Y47637D01*
X239762D01*
X240549D01*
X241336Y46850D01*
Y46063D01*
X240549Y45276D01*
X238975D01*
X238188Y46063D01*
X158267Y55118D02*
X155118D01*
X158267Y58267D01*
Y59054D01*
X157480Y59841D01*
X155905D01*
X155118Y59054D01*
X133858Y54724D02*
X135433D01*
X134645D01*
Y59447D01*
X133858Y58660D01*
X140155Y54724D02*
Y59447D01*
X137794Y57086D01*
X140943D01*
X133858Y44488D02*
X135433D01*
X134645D01*
Y49211D01*
X133858Y48424D01*
X137794D02*
X138581Y49211D01*
X140155D01*
X140943Y48424D01*
Y47637D01*
X140155Y46850D01*
X139368D01*
X140155D01*
X140943Y46062D01*
Y45275D01*
X140155Y44488D01*
X138581D01*
X137794Y45275D01*
X57998Y54724D02*
X54849D01*
X57998Y57873D01*
Y58660D01*
X57210Y59447D01*
X55636D01*
X54849Y58660D01*
X246457Y50787D02*
X248031D01*
X247244D01*
Y55510D01*
X246457Y54723D01*
X156299Y44587D02*
X157873D01*
X157086D01*
Y49310D01*
X156299Y48522D01*
X55740Y44488D02*
X57314D01*
X56527D01*
Y49211D01*
X55740Y48424D01*
X266929Y35826D02*
X270078D01*
X271652Y38188D02*
Y33465D01*
X274013D01*
X274801Y34252D01*
Y35039D01*
X274013Y35826D01*
X271652D01*
X274013D01*
X274801Y36613D01*
Y37400D01*
X274013Y38188D01*
X271652D01*
X276375Y33465D02*
Y36613D01*
X277949Y38188D01*
X279523Y36613D01*
Y33465D01*
Y35826D01*
X276375D01*
X281098Y38188D02*
X284246D01*
X282672D01*
Y33465D01*
X247638Y35432D02*
X250786D01*
X249212Y37007D02*
Y33858D01*
X252361Y37794D02*
Y33071D01*
X254722D01*
X255509Y33858D01*
Y34645D01*
X254722Y35432D01*
X252361D01*
X254722D01*
X255509Y36219D01*
Y37007D01*
X254722Y37794D01*
X252361D01*
X257084Y33071D02*
Y36219D01*
X258658Y37794D01*
X260232Y36219D01*
Y33071D01*
Y35432D01*
X257084D01*
X261806Y37794D02*
X264955D01*
X263381D01*
Y33071D01*
X284982Y45964D02*
X288130D01*
X289705Y48325D02*
Y47538D01*
X291279Y45964D01*
X292853Y47538D01*
Y48325D01*
X291279Y45964D02*
Y43602D01*
X309588Y51869D02*
X312737D01*
X311162Y53444D02*
Y50295D01*
X314311Y54231D02*
X317460Y49508D01*
Y54231D02*
X314311Y49508D01*
X292856Y66633D02*
X296004D01*
X294430Y68207D02*
Y65059D01*
X297579Y68994D02*
X300727D01*
Y68207D01*
X297579Y65059D01*
Y64272D01*
X300727D01*
X39763Y21647D02*
X36614D01*
Y19285D01*
X38188D01*
X36614D01*
Y16924D01*
X41337Y21647D02*
Y16924D01*
X43698D01*
X44486Y17711D01*
Y20859D01*
X43698Y21647D01*
X41337D01*
X46060Y20859D02*
X46847Y21647D01*
X48421D01*
X49209Y20859D01*
Y20072D01*
X48421Y19285D01*
X47634D01*
X48421D01*
X49209Y18498D01*
Y17711D01*
X48421Y16924D01*
X46847D01*
X46060Y17711D01*
X279526Y91731D02*
X276378D01*
Y89369D01*
X277952D01*
X276378D01*
Y87008D01*
X281101Y91731D02*
Y87008D01*
X283462D01*
X284249Y87795D01*
Y90944D01*
X283462Y91731D01*
X281101D01*
X288972Y87008D02*
X285824D01*
X288972Y90157D01*
Y90944D01*
X288185Y91731D01*
X286611D01*
X285824Y90944D01*
X38590Y91337D02*
X35442D01*
Y88976D01*
X37016D01*
X35442D01*
Y86614D01*
X40165Y91337D02*
Y86614D01*
X42526D01*
X43313Y87401D01*
Y90550D01*
X42526Y91337D01*
X40165D01*
X44887Y86614D02*
X46462D01*
X45675D01*
Y91337D01*
X44887Y90550D01*
X226772Y80314D02*
X229396D01*
X228084D01*
Y76378D01*
X230707D02*
Y80314D01*
X232675D01*
X233331Y79658D01*
Y78346D01*
X232675Y77690D01*
X230707D01*
X234643Y79658D02*
X235299Y80314D01*
X236611D01*
X237267Y79658D01*
Y79002D01*
X236611Y78346D01*
X235955D01*
X236611D01*
X237267Y77690D01*
Y77034D01*
X236611Y76378D01*
X235299D01*
X234643Y77034D01*
X160253Y78936D02*
X162877D01*
X161565D01*
Y75000D01*
X164189D02*
Y78936D01*
X166157D01*
X166813Y78280D01*
Y76968D01*
X166157Y76312D01*
X164189D01*
X170749Y75000D02*
X168125D01*
X170749Y77624D01*
Y78280D01*
X170093Y78936D01*
X168781D01*
X168125Y78280D01*
X60827Y79231D02*
X63451D01*
X62139D01*
Y75295D01*
X64763D02*
Y79231D01*
X66730D01*
X67386Y78575D01*
Y77263D01*
X66730Y76607D01*
X64763D01*
X68698Y75295D02*
X70010D01*
X69354D01*
Y79231D01*
X68698Y78575D01*
X324803Y98418D02*
G03*
X312985Y110236I-11818J0D01*
G01*
X313050Y0D02*
G03*
X324803Y11754I0J11754D01*
G01*
X0Y11663D02*
G03*
X11663Y0I11663J0D01*
G01*
X11793Y110236D02*
G03*
X0Y98443I0J-11793D01*
G01*
X12696Y110236D02*
X312985D01*
X324803Y11754D02*
Y98418D01*
X11663Y0D02*
X313050D01*
X0Y11663D02*
Y25591D01*
Y92520D01*
X11793Y110236D02*
X12696D01*
X0Y92520D02*
Y98443D01*
X-5607Y198819D02*
X351780D01*
X-5607Y208268D02*
X351780D01*
X-5607Y132677D02*
Y208268D01*
Y132677D02*
X26670D01*
X-5607Y142126D02*
X26670D01*
X-5607Y151575D02*
X26670D01*
X-5607Y161024D02*
X26670D01*
X-5607Y170473D02*
X26670D01*
X-5607Y179921D02*
X26670D01*
X-5607Y189370D02*
X26670D01*
Y132677D02*
Y208268D01*
Y132677D02*
X99878D01*
X26670Y142126D02*
X99878D01*
X26670Y151575D02*
X99878D01*
X26670Y161024D02*
X99878D01*
X26670Y170473D02*
X99878D01*
X26670Y179921D02*
X99878D01*
X26670Y189370D02*
X99878D01*
Y132677D02*
Y208268D01*
Y132677D02*
X167577D01*
X99878Y142126D02*
X167577D01*
X99878Y151575D02*
X167577D01*
X99878Y161024D02*
X167577D01*
X99878Y170473D02*
X167577D01*
X99878Y179921D02*
X167577D01*
X99878Y189370D02*
X167577D01*
Y132677D02*
Y208268D01*
Y132677D02*
X218745D01*
X167577Y142126D02*
X218745D01*
X167577Y151575D02*
X218745D01*
X167577Y161024D02*
X218745D01*
X167577Y170473D02*
X218745D01*
X167577Y179921D02*
X218745D01*
X167577Y189370D02*
X218745D01*
Y132677D02*
Y208268D01*
Y132677D02*
X263615D01*
X218745Y142126D02*
X263615D01*
X218745Y151575D02*
X263615D01*
X218745Y161024D02*
X263615D01*
X218745Y170473D02*
X263615D01*
X218745Y179921D02*
X263615D01*
X218745Y189370D02*
X263615D01*
Y132677D02*
Y208268D01*
Y132677D02*
X351780D01*
X263615Y142126D02*
X351780D01*
X263615Y151575D02*
X351780D01*
X263615Y161024D02*
X351780D01*
X263615Y170473D02*
X351780D01*
X263615Y179921D02*
X351780D01*
X263615Y189370D02*
X351780D01*
Y132677D02*
Y208268D01*
X-95Y205904D02*
Y201181D01*
X3054D01*
X5415Y204330D02*
X6990D01*
X7777Y203542D01*
Y201181D01*
X5415D01*
X4628Y201968D01*
X5415Y202755D01*
X7777D01*
X9351Y204330D02*
Y201968D01*
X10138Y201181D01*
X12500D01*
Y200394D01*
X11712Y199607D01*
X10925D01*
X12500Y201181D02*
Y204330D01*
X16435Y201181D02*
X14861D01*
X14074Y201968D01*
Y203542D01*
X14861Y204330D01*
X16435D01*
X17222Y203542D01*
Y202755D01*
X14074D01*
X18797Y204330D02*
Y201181D01*
Y202755D01*
X19584Y203542D01*
X20371Y204330D01*
X21158D01*
X3054Y153937D02*
X-95D01*
X3054Y157086D01*
Y157873D01*
X2267Y158660D01*
X692D01*
X-95Y157873D01*
Y172835D02*
X1480D01*
X692D01*
Y177558D01*
X-95Y176770D01*
X32182Y201181D02*
Y205904D01*
X35331Y201181D01*
Y205904D01*
X37692Y204330D02*
X39266D01*
X40053Y203542D01*
Y201181D01*
X37692D01*
X36905Y201968D01*
X37692Y202755D01*
X40053D01*
X41628Y201181D02*
Y204330D01*
X42415D01*
X43202Y203542D01*
Y201181D01*
Y203542D01*
X43989Y204330D01*
X44776Y203542D01*
Y201181D01*
X48712D02*
X47138D01*
X46350Y201968D01*
Y203542D01*
X47138Y204330D01*
X48712D01*
X49499Y203542D01*
Y202755D01*
X46350D01*
X32182Y139762D02*
Y135039D01*
X34543D01*
X35331Y135827D01*
Y136614D01*
X34543Y137401D01*
X32182D01*
X34543D01*
X35331Y138188D01*
Y138975D01*
X34543Y139762D01*
X32182D01*
X37692Y135039D02*
X39266D01*
X40053Y135827D01*
Y137401D01*
X39266Y138188D01*
X37692D01*
X36905Y137401D01*
Y135827D01*
X37692Y135039D01*
X42415Y138975D02*
Y138188D01*
X41628D01*
X43202D01*
X42415D01*
Y135827D01*
X43202Y135039D01*
X46350Y138975D02*
Y138188D01*
X45563D01*
X47138D01*
X46350D01*
Y135827D01*
X47138Y135039D01*
X50286D02*
X51861D01*
X52648Y135827D01*
Y137401D01*
X51861Y138188D01*
X50286D01*
X49499Y137401D01*
Y135827D01*
X50286Y135039D01*
X54222D02*
Y138188D01*
X55009D01*
X55796Y137401D01*
Y135039D01*
Y137401D01*
X56583Y138188D01*
X57371Y137401D01*
Y135039D01*
X66029Y139762D02*
X64455D01*
X63668Y138975D01*
Y135827D01*
X64455Y135039D01*
X66029D01*
X66816Y135827D01*
Y138975D01*
X66029Y139762D01*
X68391Y138188D02*
X69965Y135039D01*
X71539Y138188D01*
X75475Y135039D02*
X73901D01*
X73114Y135827D01*
Y137401D01*
X73901Y138188D01*
X75475D01*
X76262Y137401D01*
Y136614D01*
X73114D01*
X77836Y138188D02*
Y135039D01*
Y136614D01*
X78623Y137401D01*
X79411Y138188D01*
X80198D01*
X82559Y135039D02*
X84134D01*
X83346D01*
Y139762D01*
X82559D01*
X87282Y138188D02*
X88856D01*
X89644Y137401D01*
Y135039D01*
X87282D01*
X86495Y135827D01*
X87282Y136614D01*
X89644D01*
X91218Y138188D02*
Y135827D01*
X92005Y135039D01*
X94367D01*
Y134252D01*
X93579Y133465D01*
X92792D01*
X94367Y135039D02*
Y138188D01*
X32182Y149211D02*
Y144488D01*
X34543D01*
X35331Y145275D01*
Y146063D01*
X34543Y146850D01*
X32182D01*
X34543D01*
X35331Y147637D01*
Y148424D01*
X34543Y149211D01*
X32182D01*
X37692Y144488D02*
X39266D01*
X40053Y145275D01*
Y146850D01*
X39266Y147637D01*
X37692D01*
X36905Y146850D01*
Y145275D01*
X37692Y144488D01*
X42415Y148424D02*
Y147637D01*
X41628D01*
X43202D01*
X42415D01*
Y145275D01*
X43202Y144488D01*
X46350Y148424D02*
Y147637D01*
X45563D01*
X47138D01*
X46350D01*
Y145275D01*
X47138Y144488D01*
X50286D02*
X51861D01*
X52648Y145275D01*
Y146850D01*
X51861Y147637D01*
X50286D01*
X49499Y146850D01*
Y145275D01*
X50286Y144488D01*
X54222D02*
Y147637D01*
X55009D01*
X55796Y146850D01*
Y144488D01*
Y146850D01*
X56583Y147637D01*
X57371Y146850D01*
Y144488D01*
X66816Y148424D02*
X66029Y149211D01*
X64455D01*
X63668Y148424D01*
Y147637D01*
X64455Y146850D01*
X66029D01*
X66816Y146063D01*
Y145275D01*
X66029Y144488D01*
X64455D01*
X63668Y145275D01*
X69178Y144488D02*
X70752D01*
X71539Y145275D01*
Y146850D01*
X70752Y147637D01*
X69178D01*
X68391Y146850D01*
Y145275D01*
X69178Y144488D01*
X73114D02*
X74688D01*
X73901D01*
Y149211D01*
X73114D01*
X80198D02*
Y144488D01*
X77836D01*
X77049Y145275D01*
Y146850D01*
X77836Y147637D01*
X80198D01*
X84134Y144488D02*
X82559D01*
X81772Y145275D01*
Y146850D01*
X82559Y147637D01*
X84134D01*
X84921Y146850D01*
Y146063D01*
X81772D01*
X86495Y147637D02*
Y144488D01*
Y146063D01*
X87282Y146850D01*
X88069Y147637D01*
X88856D01*
X32182Y158660D02*
Y153937D01*
X34543D01*
X35331Y154724D01*
Y155511D01*
X34543Y156298D01*
X32182D01*
X34543D01*
X35331Y157086D01*
Y157873D01*
X34543Y158660D01*
X32182D01*
X37692Y153937D02*
X39266D01*
X40053Y154724D01*
Y156298D01*
X39266Y157086D01*
X37692D01*
X36905Y156298D01*
Y154724D01*
X37692Y153937D01*
X42415Y157873D02*
Y157086D01*
X41628D01*
X43202D01*
X42415D01*
Y154724D01*
X43202Y153937D01*
X46350Y157873D02*
Y157086D01*
X45563D01*
X47138D01*
X46350D01*
Y154724D01*
X47138Y153937D01*
X50286D02*
X51861D01*
X52648Y154724D01*
Y156298D01*
X51861Y157086D01*
X50286D01*
X49499Y156298D01*
Y154724D01*
X50286Y153937D01*
X54222D02*
Y157086D01*
X55009D01*
X55796Y156298D01*
Y153937D01*
Y156298D01*
X56583Y157086D01*
X57371Y156298D01*
Y153937D01*
X63668Y158660D02*
Y153937D01*
X66816D01*
X69178Y157086D02*
X70752D01*
X71539Y156298D01*
Y153937D01*
X69178D01*
X68391Y154724D01*
X69178Y155511D01*
X71539D01*
X73114Y157086D02*
Y154724D01*
X73901Y153937D01*
X76262D01*
Y153150D01*
X75475Y152363D01*
X74688D01*
X76262Y153937D02*
Y157086D01*
X80198Y153937D02*
X78623D01*
X77836Y154724D01*
Y156298D01*
X78623Y157086D01*
X80198D01*
X80985Y156298D01*
Y155511D01*
X77836D01*
X82559Y157086D02*
Y153937D01*
Y155511D01*
X83346Y156298D01*
X84134Y157086D01*
X84921D01*
X32182Y168109D02*
Y163386D01*
X34543D01*
X35331Y164173D01*
Y167322D01*
X34543Y168109D01*
X32182D01*
X36905Y163386D02*
X38479D01*
X37692D01*
Y166534D01*
X36905D01*
X43202Y163386D02*
X41628D01*
X40841Y164173D01*
Y165747D01*
X41628Y166534D01*
X43202D01*
X43989Y165747D01*
Y164960D01*
X40841D01*
X45563Y163386D02*
X47138D01*
X46350D01*
Y168109D01*
X45563D01*
X51861Y163386D02*
X50286D01*
X49499Y164173D01*
Y165747D01*
X50286Y166534D01*
X51861D01*
X52648Y165747D01*
Y164960D01*
X49499D01*
X57371Y166534D02*
X55009D01*
X54222Y165747D01*
Y164173D01*
X55009Y163386D01*
X57371D01*
X59732Y167322D02*
Y166534D01*
X58945D01*
X60519D01*
X59732D01*
Y164173D01*
X60519Y163386D01*
X62881Y166534D02*
Y163386D01*
Y164960D01*
X63668Y165747D01*
X64455Y166534D01*
X65242D01*
X67603Y163386D02*
X69178D01*
X68391D01*
Y166534D01*
X67603D01*
X74688D02*
X72326D01*
X71539Y165747D01*
Y164173D01*
X72326Y163386D01*
X74688D01*
X80985D02*
X82559D01*
X81772D01*
Y168109D01*
X80985Y167322D01*
X32182Y177558D02*
X35331D01*
X33756D01*
Y172835D01*
X37692D02*
X39266D01*
X40053Y173622D01*
Y175196D01*
X39266Y175983D01*
X37692D01*
X36905Y175196D01*
Y173622D01*
X37692Y172835D01*
X41628Y171260D02*
Y175983D01*
X43989D01*
X44776Y175196D01*
Y173622D01*
X43989Y172835D01*
X41628D01*
X51073Y177558D02*
Y172835D01*
X54222D01*
X56583Y175983D02*
X58158D01*
X58945Y175196D01*
Y172835D01*
X56583D01*
X55796Y173622D01*
X56583Y174409D01*
X58945D01*
X60519Y175983D02*
Y173622D01*
X61306Y172835D01*
X63668D01*
Y172047D01*
X62881Y171260D01*
X62093D01*
X63668Y172835D02*
Y175983D01*
X67603Y172835D02*
X66029D01*
X65242Y173622D01*
Y175196D01*
X66029Y175983D01*
X67603D01*
X68391Y175196D01*
Y174409D01*
X65242D01*
X69965Y175983D02*
Y172835D01*
Y174409D01*
X70752Y175196D01*
X71539Y175983D01*
X72326D01*
X32182Y187006D02*
X35331D01*
X33756D01*
Y182283D01*
X37692D02*
X39266D01*
X40053Y183071D01*
Y184645D01*
X39266Y185432D01*
X37692D01*
X36905Y184645D01*
Y183071D01*
X37692Y182283D01*
X41628Y180709D02*
Y185432D01*
X43989D01*
X44776Y184645D01*
Y183071D01*
X43989Y182283D01*
X41628D01*
X54222Y186219D02*
X53435Y187006D01*
X51860D01*
X51073Y186219D01*
Y185432D01*
X51860Y184645D01*
X53435D01*
X54222Y183858D01*
Y183071D01*
X53435Y182283D01*
X51860D01*
X51073Y183071D01*
X56583Y182283D02*
X58158D01*
X58945Y183071D01*
Y184645D01*
X58158Y185432D01*
X56583D01*
X55796Y184645D01*
Y183071D01*
X56583Y182283D01*
X60519D02*
X62093D01*
X61306D01*
Y187006D01*
X60519D01*
X67603D02*
Y182283D01*
X65242D01*
X64455Y183071D01*
Y184645D01*
X65242Y185432D01*
X67603D01*
X71539Y182283D02*
X69965D01*
X69178Y183071D01*
Y184645D01*
X69965Y185432D01*
X71539D01*
X72326Y184645D01*
Y183858D01*
X69178D01*
X73901Y185432D02*
Y182283D01*
Y183858D01*
X74688Y184645D01*
X75475Y185432D01*
X76262D01*
X32182Y196455D02*
X35331D01*
X33756D01*
Y191732D01*
X37692D02*
X39266D01*
X40053Y192519D01*
Y194094D01*
X39266Y194881D01*
X37692D01*
X36905Y194094D01*
Y192519D01*
X37692Y191732D01*
X41628Y190158D02*
Y194881D01*
X43989D01*
X44776Y194094D01*
Y192519D01*
X43989Y191732D01*
X41628D01*
X53435Y196455D02*
X51860D01*
X51073Y195668D01*
Y192519D01*
X51860Y191732D01*
X53435D01*
X54222Y192519D01*
Y195668D01*
X53435Y196455D01*
X55796Y194881D02*
X57371Y191732D01*
X58945Y194881D01*
X62881Y191732D02*
X61306D01*
X60519Y192519D01*
Y194094D01*
X61306Y194881D01*
X62881D01*
X63668Y194094D01*
Y193307D01*
X60519D01*
X65242Y194881D02*
Y191732D01*
Y193307D01*
X66029Y194094D01*
X66816Y194881D01*
X67603D01*
X69965Y191732D02*
X71539D01*
X70752D01*
Y196455D01*
X69965D01*
X74688Y194881D02*
X76262D01*
X77049Y194094D01*
Y191732D01*
X74688D01*
X73901Y192519D01*
X74688Y193307D01*
X77049D01*
X78623Y194881D02*
Y192519D01*
X79411Y191732D01*
X81772D01*
Y190945D01*
X80985Y190158D01*
X80198D01*
X81772Y191732D02*
Y194881D01*
X105390Y201181D02*
Y205904D01*
X106964Y204330D01*
X108539Y205904D01*
Y201181D01*
X110900Y204330D02*
X112474D01*
X113262Y203542D01*
Y201181D01*
X110900D01*
X110113Y201968D01*
X110900Y202755D01*
X113262D01*
X115623Y205117D02*
Y204330D01*
X114836D01*
X116410D01*
X115623D01*
Y201968D01*
X116410Y201181D01*
X121133D02*
X119559D01*
X118772Y201968D01*
Y203542D01*
X119559Y204330D01*
X121133D01*
X121920Y203542D01*
Y202755D01*
X118772D01*
X123495Y204330D02*
Y201181D01*
Y202755D01*
X124282Y203542D01*
X125069Y204330D01*
X125856D01*
X128217Y201181D02*
X129792D01*
X129005D01*
Y204330D01*
X128217D01*
X132940D02*
X134514D01*
X135302Y203542D01*
Y201181D01*
X132940D01*
X132153Y201968D01*
X132940Y202755D01*
X135302D01*
X136876Y201181D02*
X138450D01*
X137663D01*
Y205904D01*
X136876D01*
X108539Y148424D02*
X107752Y149211D01*
X106177D01*
X105390Y148424D01*
Y147637D01*
X106177Y146850D01*
X107752D01*
X108539Y146063D01*
Y145275D01*
X107752Y144488D01*
X106177D01*
X105390Y145275D01*
X110900Y144488D02*
X112474D01*
X113262Y145275D01*
Y146850D01*
X112474Y147637D01*
X110900D01*
X110113Y146850D01*
Y145275D01*
X110900Y144488D01*
X114836D02*
X116410D01*
X115623D01*
Y149211D01*
X114836D01*
X121920D02*
Y144488D01*
X119559D01*
X118772Y145275D01*
Y146850D01*
X119559Y147637D01*
X121920D01*
X125856Y144488D02*
X124282D01*
X123495Y145275D01*
Y146850D01*
X124282Y147637D01*
X125856D01*
X126643Y146850D01*
Y146063D01*
X123495D01*
X128217Y147637D02*
Y144488D01*
Y146063D01*
X129005Y146850D01*
X129792Y147637D01*
X130579D01*
X137663Y144488D02*
Y149211D01*
X140025D01*
X140812Y148424D01*
Y146850D01*
X140025Y146063D01*
X137663D01*
X139237D02*
X140812Y144488D01*
X144747D02*
X143173D01*
X142386Y145275D01*
Y146850D01*
X143173Y147637D01*
X144747D01*
X145535Y146850D01*
Y146063D01*
X142386D01*
X147109Y144488D02*
X149470D01*
X150258Y145275D01*
X149470Y146063D01*
X147896D01*
X147109Y146850D01*
X147896Y147637D01*
X150258D01*
X151832Y144488D02*
X153406D01*
X152619D01*
Y147637D01*
X151832D01*
X155768Y144488D02*
X158129D01*
X158916Y145275D01*
X158129Y146063D01*
X156555D01*
X155768Y146850D01*
X156555Y147637D01*
X158916D01*
X161277Y148424D02*
Y147637D01*
X160490D01*
X162065D01*
X161277D01*
Y145275D01*
X162065Y144488D01*
X108539Y157873D02*
X107752Y158660D01*
X106177D01*
X105390Y157873D01*
Y154724D01*
X106177Y153937D01*
X107752D01*
X108539Y154724D01*
X110900Y153937D02*
X112474D01*
X113262Y154724D01*
Y156298D01*
X112474Y157086D01*
X110900D01*
X110113Y156298D01*
Y154724D01*
X110900Y153937D01*
X114836Y152363D02*
Y157086D01*
X117197D01*
X117984Y156298D01*
Y154724D01*
X117197Y153937D01*
X114836D01*
X119559Y152363D02*
Y157086D01*
X121920D01*
X122707Y156298D01*
Y154724D01*
X121920Y153937D01*
X119559D01*
X126643D02*
X125069D01*
X124282Y154724D01*
Y156298D01*
X125069Y157086D01*
X126643D01*
X127430Y156298D01*
Y155511D01*
X124282D01*
X129005Y157086D02*
Y153937D01*
Y155511D01*
X129792Y156298D01*
X130579Y157086D01*
X131366D01*
X108539Y168109D02*
X105390D01*
Y165747D01*
X106964D01*
X105390D01*
Y163386D01*
X110113D02*
Y168109D01*
X112474D01*
X113262Y167322D01*
Y165747D01*
X112474Y164960D01*
X110113D01*
X111687D02*
X113262Y163386D01*
X114836Y165747D02*
X117984D01*
X121920Y163386D02*
Y168109D01*
X119559Y165747D01*
X122707D01*
X108539Y176770D02*
X107752Y177558D01*
X106177D01*
X105390Y176770D01*
Y173622D01*
X106177Y172835D01*
X107752D01*
X108539Y173622D01*
X110900Y172835D02*
X112474D01*
X113262Y173622D01*
Y175196D01*
X112474Y175983D01*
X110900D01*
X110113Y175196D01*
Y173622D01*
X110900Y172835D01*
X114836Y171260D02*
Y175983D01*
X117197D01*
X117984Y175196D01*
Y173622D01*
X117197Y172835D01*
X114836D01*
X119559Y171260D02*
Y175983D01*
X121920D01*
X122707Y175196D01*
Y173622D01*
X121920Y172835D01*
X119559D01*
X126643D02*
X125069D01*
X124282Y173622D01*
Y175196D01*
X125069Y175983D01*
X126643D01*
X127430Y175196D01*
Y174409D01*
X124282D01*
X129005Y175983D02*
Y172835D01*
Y174409D01*
X129792Y175196D01*
X130579Y175983D01*
X131366D01*
X108539Y186219D02*
X107752Y187006D01*
X106177D01*
X105390Y186219D01*
Y185432D01*
X106177Y184645D01*
X107752D01*
X108539Y183858D01*
Y183071D01*
X107752Y182283D01*
X106177D01*
X105390Y183071D01*
X110900Y182283D02*
X112474D01*
X113262Y183071D01*
Y184645D01*
X112474Y185432D01*
X110900D01*
X110113Y184645D01*
Y183071D01*
X110900Y182283D01*
X114836D02*
X116410D01*
X115623D01*
Y187006D01*
X114836D01*
X121920D02*
Y182283D01*
X119559D01*
X118772Y183071D01*
Y184645D01*
X119559Y185432D01*
X121920D01*
X125856Y182283D02*
X124282D01*
X123495Y183071D01*
Y184645D01*
X124282Y185432D01*
X125856D01*
X126643Y184645D01*
Y183858D01*
X123495D01*
X128217Y185432D02*
Y182283D01*
Y183858D01*
X129005Y184645D01*
X129792Y185432D01*
X130579D01*
X137663Y182283D02*
Y187006D01*
X140025D01*
X140812Y186219D01*
Y184645D01*
X140025Y183858D01*
X137663D01*
X139237D02*
X140812Y182283D01*
X144747D02*
X143173D01*
X142386Y183071D01*
Y184645D01*
X143173Y185432D01*
X144747D01*
X145535Y184645D01*
Y183858D01*
X142386D01*
X147109Y182283D02*
X149470D01*
X150258Y183071D01*
X149470Y183858D01*
X147896D01*
X147109Y184645D01*
X147896Y185432D01*
X150258D01*
X151832Y182283D02*
X153406D01*
X152619D01*
Y185432D01*
X151832D01*
X155768Y182283D02*
X158129D01*
X158916Y183071D01*
X158129Y183858D01*
X156555D01*
X155768Y184645D01*
X156555Y185432D01*
X158916D01*
X161277Y186219D02*
Y185432D01*
X160490D01*
X162065D01*
X161277D01*
Y183071D01*
X162065Y182283D01*
X173088Y205904D02*
X176237D01*
X174663D01*
Y201181D01*
X177811Y205904D02*
Y201181D01*
Y203542D01*
X178598Y204330D01*
X180173D01*
X180960Y203542D01*
Y201181D01*
X182534D02*
X184108D01*
X183321D01*
Y204330D01*
X182534D01*
X189618D02*
X187257D01*
X186470Y203542D01*
Y201968D01*
X187257Y201181D01*
X189618D01*
X191193D02*
Y205904D01*
Y202755D02*
X193554Y204330D01*
X191193Y202755D02*
X193554Y201181D01*
X195916D02*
Y204330D01*
X198277D01*
X199064Y203542D01*
Y201181D01*
X203000D02*
X201426D01*
X200638Y201968D01*
Y203542D01*
X201426Y204330D01*
X203000D01*
X203787Y203542D01*
Y202755D01*
X200638D01*
X205361Y201181D02*
X207723D01*
X208510Y201968D01*
X207723Y202755D01*
X206149D01*
X205361Y203542D01*
X206149Y204330D01*
X208510D01*
X210084Y201181D02*
X212446D01*
X213233Y201968D01*
X212446Y202755D01*
X210871D01*
X210084Y203542D01*
X210871Y204330D01*
X213233D01*
X173088Y148424D02*
X173875Y149211D01*
X175450D01*
X176237Y148424D01*
Y145275D01*
X175450Y144488D01*
X173875D01*
X173088Y145275D01*
Y148424D01*
X177811Y144488D02*
Y145275D01*
X178598D01*
Y144488D01*
X177811D01*
X181747Y148424D02*
X182534Y149211D01*
X184108D01*
X184896Y148424D01*
Y145275D01*
X184108Y144488D01*
X182534D01*
X181747Y145275D01*
Y148424D01*
X186470Y144488D02*
X188044D01*
X187257D01*
Y149211D01*
X186470Y148424D01*
X190405D02*
X191193Y149211D01*
X192767D01*
X193554Y148424D01*
Y145275D01*
X192767Y144488D01*
X191193D01*
X190405Y145275D01*
Y148424D01*
X195128Y144488D02*
Y147637D01*
X195916D01*
X196703Y146850D01*
Y144488D01*
Y146850D01*
X197490Y147637D01*
X198277Y146850D01*
Y144488D01*
X199851D02*
Y147637D01*
X200638D01*
X201426Y146850D01*
Y144488D01*
Y146850D01*
X202213Y147637D01*
X203000Y146850D01*
Y144488D01*
X173088Y157873D02*
X173875Y158660D01*
X175450D01*
X176237Y157873D01*
Y154724D01*
X175450Y153937D01*
X173875D01*
X173088Y154724D01*
Y157873D01*
X177811Y153937D02*
Y154724D01*
X178598D01*
Y153937D01*
X177811D01*
X181747Y157873D02*
X182534Y158660D01*
X184108D01*
X184896Y157873D01*
Y154724D01*
X184108Y153937D01*
X182534D01*
X181747Y154724D01*
Y157873D01*
X186470D02*
X187257Y158660D01*
X188831D01*
X189618Y157873D01*
Y157086D01*
X188831Y156298D01*
X188044D01*
X188831D01*
X189618Y155511D01*
Y154724D01*
X188831Y153937D01*
X187257D01*
X186470Y154724D01*
X194341Y158660D02*
X191193D01*
Y156298D01*
X192767Y157086D01*
X193554D01*
X194341Y156298D01*
Y154724D01*
X193554Y153937D01*
X191980D01*
X191193Y154724D01*
X195916Y153937D02*
Y157086D01*
X196703D01*
X197490Y156298D01*
Y153937D01*
Y156298D01*
X198277Y157086D01*
X199064Y156298D01*
Y153937D01*
X200638D02*
Y157086D01*
X201426D01*
X202213Y156298D01*
Y153937D01*
Y156298D01*
X203000Y157086D01*
X203787Y156298D01*
Y153937D01*
X173088Y163386D02*
X174663D01*
X173875D01*
Y168109D01*
X173088Y167322D01*
X177024Y163386D02*
Y164173D01*
X177811D01*
Y163386D01*
X177024D01*
X184108Y168109D02*
X180960D01*
Y165747D01*
X182534Y166534D01*
X183321D01*
X184108Y165747D01*
Y164173D01*
X183321Y163386D01*
X181747D01*
X180960Y164173D01*
X185683Y167322D02*
X186470Y168109D01*
X188044D01*
X188831Y167322D01*
Y164173D01*
X188044Y163386D01*
X186470D01*
X185683Y164173D01*
Y167322D01*
X190405D02*
X191193Y168109D01*
X192767D01*
X193554Y167322D01*
Y164173D01*
X192767Y163386D01*
X191193D01*
X190405Y164173D01*
Y167322D01*
X195128Y163386D02*
Y166534D01*
X195916D01*
X196703Y165747D01*
Y163386D01*
Y165747D01*
X197490Y166534D01*
X198277Y165747D01*
Y163386D01*
X199851D02*
Y166534D01*
X200638D01*
X201426Y165747D01*
Y163386D01*
Y165747D01*
X202213Y166534D01*
X203000Y165747D01*
Y163386D01*
X173088Y176770D02*
X173875Y177558D01*
X175450D01*
X176237Y176770D01*
Y173622D01*
X175450Y172835D01*
X173875D01*
X173088Y173622D01*
Y176770D01*
X177811Y172835D02*
Y173622D01*
X178598D01*
Y172835D01*
X177811D01*
X181747Y176770D02*
X182534Y177558D01*
X184108D01*
X184896Y176770D01*
Y173622D01*
X184108Y172835D01*
X182534D01*
X181747Y173622D01*
Y176770D01*
X186470D02*
X187257Y177558D01*
X188831D01*
X189618Y176770D01*
Y175983D01*
X188831Y175196D01*
X188044D01*
X188831D01*
X189618Y174409D01*
Y173622D01*
X188831Y172835D01*
X187257D01*
X186470Y173622D01*
X194341Y177558D02*
X191193D01*
Y175196D01*
X192767Y175983D01*
X193554D01*
X194341Y175196D01*
Y173622D01*
X193554Y172835D01*
X191980D01*
X191193Y173622D01*
X195916Y172835D02*
Y175983D01*
X196703D01*
X197490Y175196D01*
Y172835D01*
Y175196D01*
X198277Y175983D01*
X199064Y175196D01*
Y172835D01*
X200638D02*
Y175983D01*
X201426D01*
X202213Y175196D01*
Y172835D01*
Y175196D01*
X203000Y175983D01*
X203787Y175196D01*
Y172835D01*
X173088Y186219D02*
X173875Y187006D01*
X175450D01*
X176237Y186219D01*
Y183071D01*
X175450Y182283D01*
X173875D01*
X173088Y183071D01*
Y186219D01*
X177811Y182283D02*
Y183071D01*
X178598D01*
Y182283D01*
X177811D01*
X181747Y186219D02*
X182534Y187006D01*
X184108D01*
X184896Y186219D01*
Y183071D01*
X184108Y182283D01*
X182534D01*
X181747Y183071D01*
Y186219D01*
X186470Y182283D02*
X188044D01*
X187257D01*
Y187006D01*
X186470Y186219D01*
X190405D02*
X191193Y187006D01*
X192767D01*
X193554Y186219D01*
Y183071D01*
X192767Y182283D01*
X191193D01*
X190405Y183071D01*
Y186219D01*
X195128Y182283D02*
Y185432D01*
X195916D01*
X196703Y184645D01*
Y182283D01*
Y184645D01*
X197490Y185432D01*
X198277Y184645D01*
Y182283D01*
X199851D02*
Y185432D01*
X200638D01*
X201426Y184645D01*
Y182283D01*
Y184645D01*
X202213Y185432D01*
X203000Y184645D01*
Y182283D01*
X227405Y205117D02*
X226618Y205904D01*
X225044D01*
X224256Y205117D01*
Y201968D01*
X225044Y201181D01*
X226618D01*
X227405Y201968D01*
X229766Y201181D02*
X231341D01*
X232128Y201968D01*
Y203542D01*
X231341Y204330D01*
X229766D01*
X228979Y203542D01*
Y201968D01*
X229766Y201181D01*
X233702D02*
Y204330D01*
X236064D01*
X236851Y203542D01*
Y201181D01*
X238425D02*
X240787D01*
X241574Y201968D01*
X240787Y202755D01*
X239212D01*
X238425Y203542D01*
X239212Y204330D01*
X241574D01*
X243935Y205117D02*
Y204330D01*
X243148D01*
X244722D01*
X243935D01*
Y201968D01*
X244722Y201181D01*
X247871Y204330D02*
X249445D01*
X250232Y203542D01*
Y201181D01*
X247871D01*
X247084Y201968D01*
X247871Y202755D01*
X250232D01*
X251806Y201181D02*
Y204330D01*
X254168D01*
X254955Y203542D01*
Y201181D01*
X257317Y205117D02*
Y204330D01*
X256529D01*
X258104D01*
X257317D01*
Y201968D01*
X258104Y201181D01*
X224256Y148424D02*
X225044Y149211D01*
X226618D01*
X227405Y148424D01*
Y147637D01*
X226618Y146850D01*
X225831D01*
X226618D01*
X227405Y146063D01*
Y145275D01*
X226618Y144488D01*
X225044D01*
X224256Y145275D01*
X228979Y144488D02*
Y145275D01*
X229766D01*
Y144488D01*
X228979D01*
X236064Y149211D02*
X232915D01*
Y146850D01*
X234489Y147637D01*
X235277D01*
X236064Y146850D01*
Y145275D01*
X235277Y144488D01*
X233702D01*
X232915Y145275D01*
X226618Y163386D02*
Y168109D01*
X224256Y165747D01*
X227405D01*
X228979Y163386D02*
Y164173D01*
X229766D01*
Y163386D01*
X228979D01*
X236064D02*
X232915D01*
X236064Y166534D01*
Y167322D01*
X235277Y168109D01*
X233702D01*
X232915Y167322D01*
X224256Y186219D02*
X225044Y187006D01*
X226618D01*
X227405Y186219D01*
Y185432D01*
X226618Y184645D01*
X225831D01*
X226618D01*
X227405Y183858D01*
Y183071D01*
X226618Y182283D01*
X225044D01*
X224256Y183071D01*
X228979Y182283D02*
Y183071D01*
X229766D01*
Y182283D01*
X228979D01*
X236064Y187006D02*
X232915D01*
Y184645D01*
X234489Y185432D01*
X235277D01*
X236064Y184645D01*
Y183071D01*
X235277Y182283D01*
X233702D01*
X232915Y183071D01*
X269127Y205904D02*
Y201181D01*
X271489D01*
X272276Y201968D01*
Y202755D01*
X271489Y203542D01*
X269127D01*
X271489D01*
X272276Y204330D01*
Y205117D01*
X271489Y205904D01*
X269127D01*
X274637Y201181D02*
X276212D01*
X276999Y201968D01*
Y203542D01*
X276212Y204330D01*
X274637D01*
X273850Y203542D01*
Y201968D01*
X274637Y201181D01*
X279360Y204330D02*
X280935D01*
X281722Y203542D01*
Y201181D01*
X279360D01*
X278573Y201968D01*
X279360Y202755D01*
X281722D01*
X283296Y204330D02*
Y201181D01*
Y202755D01*
X284083Y203542D01*
X284870Y204330D01*
X285657D01*
X291167Y205904D02*
Y201181D01*
X288806D01*
X288019Y201968D01*
Y203542D01*
X288806Y204330D01*
X291167D01*
X297465Y205904D02*
Y201181D01*
X300613D01*
X302975Y204330D02*
X304549D01*
X305336Y203542D01*
Y201181D01*
X302975D01*
X302187Y201968D01*
X302975Y202755D01*
X305336D01*
X306910Y204330D02*
Y201968D01*
X307698Y201181D01*
X310059D01*
Y200394D01*
X309272Y199607D01*
X308485D01*
X310059Y201181D02*
Y204330D01*
X313995Y201181D02*
X312420D01*
X311633Y201968D01*
Y203542D01*
X312420Y204330D01*
X313995D01*
X314782Y203542D01*
Y202755D01*
X311633D01*
X316356Y204330D02*
Y201181D01*
Y202755D01*
X317143Y203542D01*
X317930Y204330D01*
X318718D01*
X328951Y205117D02*
X328163Y205904D01*
X326589D01*
X325802Y205117D01*
Y204330D01*
X326589Y203542D01*
X328163D01*
X328951Y202755D01*
Y201968D01*
X328163Y201181D01*
X326589D01*
X325802Y201968D01*
X331312Y205117D02*
Y204330D01*
X330525D01*
X332099D01*
X331312D01*
Y201968D01*
X332099Y201181D01*
X335248Y204330D02*
X336822D01*
X337609Y203542D01*
Y201181D01*
X335248D01*
X334460Y201968D01*
X335248Y202755D01*
X337609D01*
X342332Y204330D02*
X339970D01*
X339183Y203542D01*
Y201968D01*
X339970Y201181D01*
X342332D01*
X343906D02*
Y205904D01*
Y202755D02*
X346268Y204330D01*
X343906Y202755D02*
X346268Y201181D01*
D11*
X297285Y51575D02*
G03*
X297285Y51575I-139J0D01*
G01*
X300236D02*
G03*
X300236Y51575I-3091J0D01*
G01*
X122973Y16033D02*
X130315D01*
X128347Y21407D02*
X130315Y23376D01*
X132283Y21407D01*
X130315Y16033D02*
Y23376D01*
X321850Y98228D02*
Y102264D01*
X316240Y107874D02*
X321850Y102264D01*
X312402Y107874D02*
X316240D01*
X302756Y98425D02*
Y102362D01*
X308268Y107874D01*
X312402D01*
X308071Y88779D02*
X312205D01*
X302756Y94095D02*
X308071Y88779D01*
X302756Y94095D02*
Y98425D01*
X321850Y94193D02*
Y98228D01*
X316437Y88779D02*
X321850Y94193D01*
X312205Y88779D02*
X316437D01*
X321850Y11614D02*
Y15650D01*
X316240Y21260D02*
X321850Y15650D01*
X312402Y21260D02*
X316240D01*
X302756Y11811D02*
Y15748D01*
X308268Y21260D01*
X312402D01*
X308071Y2165D02*
X312205D01*
X302756Y7480D02*
X308071Y2165D01*
X302756Y7480D02*
Y11811D01*
X321850Y7579D02*
Y11614D01*
X316437Y2165D02*
X321850Y7579D01*
X312205Y2165D02*
X316437D01*
X21850Y11614D02*
Y15650D01*
X16240Y21260D02*
X21850Y15650D01*
X12402Y21260D02*
X16240D01*
X2756Y11811D02*
Y15748D01*
X8268Y21260D01*
X12402D01*
X8071Y2165D02*
X12205D01*
X2756Y7480D02*
X8071Y2165D01*
X2756Y7480D02*
Y11811D01*
X21850Y7579D02*
Y11614D01*
X16437Y2165D02*
X21850Y7579D01*
X12205Y2165D02*
X16437D01*
X21850Y98228D02*
Y102264D01*
X16240Y107874D02*
X21850Y102264D01*
X12402Y107874D02*
X16240D01*
X2756Y98425D02*
Y102362D01*
X8268Y107874D01*
X12402D01*
X8071Y88779D02*
X12205D01*
X2756Y94095D02*
X8071Y88779D01*
X2756Y94095D02*
Y98425D01*
X21850Y94193D02*
Y98228D01*
X16437Y88779D02*
X21850Y94193D01*
X12205Y88779D02*
X16437D01*
X297146Y54665D02*
Y62008D01*
X300236Y51575D02*
X307579D01*
X297146Y62008D02*
X299114Y60039D01*
X295177Y60039D02*
X297146Y62008D01*
X305610Y53543D02*
X307579Y51575D01*
X305610Y49606D02*
X307579Y51575D01*
X289370Y9843D02*
Y15841D01*
X291369Y13841D01*
X293369Y15841D01*
Y9843D01*
X298367D02*
Y15841D01*
X295368Y12842D01*
X299367D01*
X24654Y2362D02*
Y8360D01*
X26653Y6361D01*
X28652Y8360D01*
Y2362D01*
X30652Y7361D02*
X31651Y8360D01*
X33651D01*
X34650Y7361D01*
Y6361D01*
X33651Y5361D01*
X32651D01*
X33651D01*
X34650Y4361D01*
Y3362D01*
X33651Y2362D01*
X31651D01*
X30652Y3362D01*
X289370Y101181D02*
Y107179D01*
X291369Y105180D01*
X293369Y107179D01*
Y101181D01*
X299367D02*
X295368D01*
X299367Y105180D01*
Y106179D01*
X298367Y107179D01*
X296368D01*
X295368Y106179D01*
X24542Y101575D02*
Y107573D01*
X26541Y105573D01*
X28540Y107573D01*
Y101575D01*
X30540D02*
X32539D01*
X31539D01*
Y107573D01*
X30540Y106573D01*
X456091Y-49502D02*
Y-25886D01*
X387303Y-49559D02*
Y-25937D01*
X587402Y-104764D02*
Y350934D01*
X-58268Y-105118D02*
Y350934D01*
X587402D01*
X42913Y-25937D02*
X587095D01*
X43406Y-49895D02*
X586672Y-49895D01*
X43209Y-68645D02*
X587095Y-68645D01*
X387095Y-104724D02*
Y-26133D01*
X43209Y-87395D02*
X386811Y-87395D01*
X205845Y-104823D02*
Y-49895D01*
X42913Y-105118D02*
Y-25937D01*
X-58268Y-105118D02*
X587402D01*
X395898Y-82876D02*
X392224D01*
Y-85631D01*
X394061D01*
X392224D01*
Y-88386D01*
X400489D02*
X398653D01*
X397734Y-87467D01*
Y-85631D01*
X398653Y-84712D01*
X400489D01*
X401408Y-85631D01*
Y-86549D01*
X397734D01*
X406918Y-82876D02*
Y-88386D01*
X404163D01*
X403244Y-87467D01*
Y-85631D01*
X404163Y-84712D01*
X406918D01*
X411510Y-88386D02*
X409673D01*
X408754Y-87467D01*
Y-85631D01*
X409673Y-84712D01*
X411510D01*
X412428Y-85631D01*
Y-86549D01*
X408754D01*
X414264Y-84712D02*
Y-88386D01*
Y-86549D01*
X415183Y-85631D01*
X416101Y-84712D01*
X417020D01*
X420693D02*
X422530D01*
X423448Y-85631D01*
Y-88386D01*
X420693D01*
X419775Y-87467D01*
X420693Y-86549D01*
X423448D01*
X425285Y-88386D02*
X427121D01*
X426203D01*
Y-82876D01*
X425285D01*
X435386D02*
Y-87467D01*
X436305Y-88386D01*
X438141D01*
X439060Y-87467D01*
Y-82876D01*
X440896Y-88386D02*
Y-84712D01*
X443651D01*
X444570Y-85631D01*
Y-88386D01*
X446406D02*
X448243D01*
X447325D01*
Y-84712D01*
X446406D01*
X450998D02*
X452835Y-88386D01*
X454671Y-84712D01*
X459263Y-88386D02*
X457426D01*
X456508Y-87467D01*
Y-85631D01*
X457426Y-84712D01*
X459263D01*
X460181Y-85631D01*
Y-86549D01*
X456508D01*
X462018Y-84712D02*
Y-88386D01*
Y-86549D01*
X462936Y-85631D01*
X463855Y-84712D01*
X464773D01*
X467528Y-88386D02*
X470283D01*
X471202Y-87467D01*
X470283Y-86549D01*
X468446D01*
X467528Y-85631D01*
X468446Y-84712D01*
X471202D01*
X473038Y-88386D02*
X474875D01*
X473956D01*
Y-84712D01*
X473038D01*
X478548Y-83794D02*
Y-84712D01*
X477630D01*
X479467D01*
X478548D01*
Y-87467D01*
X479467Y-88386D01*
X482222Y-84712D02*
Y-87467D01*
X483140Y-88386D01*
X485895D01*
Y-89304D01*
X484977Y-90223D01*
X484058D01*
X485895Y-88386D02*
Y-84712D01*
X494160Y-88386D02*
X495997D01*
X496915Y-87467D01*
Y-85631D01*
X495997Y-84712D01*
X494160D01*
X493242Y-85631D01*
Y-87467D01*
X494160Y-88386D01*
X499670D02*
Y-83794D01*
Y-85631D01*
X498752D01*
X500588D01*
X499670D01*
Y-83794D01*
X500588Y-82876D01*
X512527Y-83794D02*
X511608Y-82876D01*
X509772D01*
X508853Y-83794D01*
Y-84712D01*
X509772Y-85631D01*
X511608D01*
X512527Y-86549D01*
Y-87467D01*
X511608Y-88386D01*
X509772D01*
X508853Y-87467D01*
X515282Y-84712D02*
X517118D01*
X518037Y-85631D01*
Y-88386D01*
X515282D01*
X514363Y-87467D01*
X515282Y-86549D01*
X518037D01*
X519873Y-88386D02*
Y-84712D01*
X522628D01*
X523547Y-85631D01*
Y-88386D01*
X526302Y-83794D02*
Y-84712D01*
X525384D01*
X527220D01*
X526302D01*
Y-87467D01*
X527220Y-88386D01*
X530894Y-84712D02*
X532730D01*
X533648Y-85631D01*
Y-88386D01*
X530894D01*
X529975Y-87467D01*
X530894Y-86549D01*
X533648D01*
X544669Y-83794D02*
X543750Y-82876D01*
X541914D01*
X540995Y-83794D01*
Y-87467D01*
X541914Y-88386D01*
X543750D01*
X544669Y-87467D01*
X547424Y-84712D02*
X549260D01*
X550179Y-85631D01*
Y-88386D01*
X547424D01*
X546505Y-87467D01*
X547424Y-86549D01*
X550179D01*
X552934Y-83794D02*
Y-84712D01*
X552015D01*
X553852D01*
X552934D01*
Y-87467D01*
X553852Y-88386D01*
X557525Y-84712D02*
X559362D01*
X560280Y-85631D01*
Y-88386D01*
X557525D01*
X556607Y-87467D01*
X557525Y-86549D01*
X560280D01*
X562117Y-84712D02*
Y-88386D01*
Y-86549D01*
X563035Y-85631D01*
X563954Y-84712D01*
X564872D01*
X567627Y-88386D02*
X569464D01*
X568545D01*
Y-84712D01*
X567627D01*
X572219Y-88386D02*
Y-84712D01*
X574974D01*
X575892Y-85631D01*
Y-88386D01*
X578647Y-84712D02*
X580484D01*
X581402Y-85631D01*
Y-88386D01*
X578647D01*
X577729Y-87467D01*
X578647Y-86549D01*
X581402D01*
X394028Y-73263D02*
X393109Y-72344D01*
X391273D01*
X390354Y-73263D01*
Y-74181D01*
X391273Y-75099D01*
X393109D01*
X394028Y-76018D01*
Y-76936D01*
X393109Y-77854D01*
X391273D01*
X390354Y-76936D01*
X395864Y-79691D02*
Y-74181D01*
X398619D01*
X399538Y-75099D01*
Y-76936D01*
X398619Y-77854D01*
X395864D01*
X402293Y-74181D02*
X404129D01*
X405048Y-75099D01*
Y-77854D01*
X402293D01*
X401374Y-76936D01*
X402293Y-76018D01*
X405048D01*
X410558Y-74181D02*
X407803D01*
X406884Y-75099D01*
Y-76936D01*
X407803Y-77854D01*
X410558D01*
X415149D02*
X413313D01*
X412394Y-76936D01*
Y-75099D01*
X413313Y-74181D01*
X415149D01*
X416068Y-75099D01*
Y-76018D01*
X412394D01*
X423415Y-72344D02*
X427088D01*
X425251D01*
Y-77854D01*
X431680D02*
X429843D01*
X428925Y-76936D01*
Y-75099D01*
X429843Y-74181D01*
X431680D01*
X432598Y-75099D01*
Y-76018D01*
X428925D01*
X438108Y-74181D02*
X435353D01*
X434435Y-75099D01*
Y-76936D01*
X435353Y-77854D01*
X438108D01*
X439945Y-72344D02*
Y-77854D01*
Y-75099D01*
X440863Y-74181D01*
X442700D01*
X443618Y-75099D01*
Y-77854D01*
X445455D02*
Y-74181D01*
X448210D01*
X449128Y-75099D01*
Y-77854D01*
X451883D02*
X453720D01*
X454638Y-76936D01*
Y-75099D01*
X453720Y-74181D01*
X451883D01*
X450965Y-75099D01*
Y-76936D01*
X451883Y-77854D01*
X456475D02*
X458311D01*
X457393D01*
Y-72344D01*
X456475D01*
X461985Y-77854D02*
X463821D01*
X464740Y-76936D01*
Y-75099D01*
X463821Y-74181D01*
X461985D01*
X461066Y-75099D01*
Y-76936D01*
X461985Y-77854D01*
X468413Y-79691D02*
X469331D01*
X470250Y-78773D01*
Y-74181D01*
X467495D01*
X466576Y-75099D01*
Y-76936D01*
X467495Y-77854D01*
X470250D01*
X472086Y-74181D02*
Y-76936D01*
X473005Y-77854D01*
X475760D01*
Y-78773D01*
X474841Y-79691D01*
X473923D01*
X475760Y-77854D02*
Y-74181D01*
X483107Y-77854D02*
Y-72344D01*
X485861D01*
X486780Y-73263D01*
Y-75099D01*
X485861Y-76018D01*
X483107D01*
X484943D02*
X486780Y-77854D01*
X491371D02*
X489535D01*
X488617Y-76936D01*
Y-75099D01*
X489535Y-74181D01*
X491371D01*
X492290Y-75099D01*
Y-76018D01*
X488617D01*
X494127Y-77854D02*
X496882D01*
X497800Y-76936D01*
X496882Y-76018D01*
X495045D01*
X494127Y-75099D01*
X495045Y-74181D01*
X497800D01*
X502392Y-77854D02*
X500555D01*
X499637Y-76936D01*
Y-75099D01*
X500555Y-74181D01*
X502392D01*
X503310Y-75099D01*
Y-76018D01*
X499637D01*
X506065Y-74181D02*
X507902D01*
X508820Y-75099D01*
Y-77854D01*
X506065D01*
X505147Y-76936D01*
X506065Y-76018D01*
X508820D01*
X510657Y-74181D02*
Y-77854D01*
Y-76018D01*
X511575Y-75099D01*
X512493Y-74181D01*
X513412D01*
X519840D02*
X517085D01*
X516167Y-75099D01*
Y-76936D01*
X517085Y-77854D01*
X519840D01*
X521677Y-72344D02*
Y-77854D01*
Y-75099D01*
X522595Y-74181D01*
X524432D01*
X525350Y-75099D01*
Y-77854D01*
X532697Y-72344D02*
Y-77854D01*
X536370D01*
X539125Y-74181D02*
X540962D01*
X541880Y-75099D01*
Y-77854D01*
X539125D01*
X538207Y-76936D01*
X539125Y-76018D01*
X541880D01*
X543717Y-72344D02*
Y-77854D01*
X546472D01*
X547390Y-76936D01*
Y-76018D01*
Y-75099D01*
X546472Y-74181D01*
X543717D01*
X550145Y-77854D02*
X551982D01*
X552900Y-76936D01*
Y-75099D01*
X551982Y-74181D01*
X550145D01*
X549227Y-75099D01*
Y-76936D01*
X550145Y-77854D01*
X554737Y-74181D02*
Y-77854D01*
Y-76018D01*
X555655Y-75099D01*
X556574Y-74181D01*
X557492D01*
X561165D02*
X563002D01*
X563920Y-75099D01*
Y-77854D01*
X561165D01*
X560247Y-76936D01*
X561165Y-76018D01*
X563920D01*
X566675Y-73263D02*
Y-74181D01*
X565757D01*
X567594D01*
X566675D01*
Y-76936D01*
X567594Y-77854D01*
X571267D02*
X573104D01*
X574022Y-76936D01*
Y-75099D01*
X573104Y-74181D01*
X571267D01*
X570349Y-75099D01*
Y-76936D01*
X571267Y-77854D01*
X575859Y-74181D02*
Y-77854D01*
Y-76018D01*
X576777Y-75099D01*
X577695Y-74181D01*
X578614D01*
X581369D02*
Y-76936D01*
X582287Y-77854D01*
X585042D01*
Y-78773D01*
X584124Y-79691D01*
X583205D01*
X585042Y-77854D02*
Y-74181D01*
X506791Y-36023D02*
X508051Y-34763D01*
X510571D01*
X511831Y-36023D01*
Y-41063D01*
X510571Y-42323D01*
X508051D01*
X506791Y-41063D01*
Y-36023D01*
X514351Y-42323D02*
X516871D01*
X515611D01*
Y-34763D01*
X514351Y-36023D01*
X520651Y-42323D02*
X525692Y-37283D01*
X528211Y-36023D02*
X529471Y-34763D01*
X531991D01*
X533252Y-36023D01*
Y-41063D01*
X531991Y-42323D01*
X529471D01*
X528211Y-41063D01*
Y-36023D01*
X535772Y-34763D02*
X540812D01*
Y-36023D01*
X535772Y-41063D01*
Y-42323D01*
X543332D02*
X548372Y-37283D01*
X555932Y-42323D02*
X550892D01*
X555932Y-37283D01*
Y-36023D01*
X554672Y-34763D01*
X552152D01*
X550892Y-36023D01*
X558452D02*
X559712Y-34763D01*
X562232D01*
X563492Y-36023D01*
Y-41063D01*
X562232Y-42323D01*
X559712D01*
X558452Y-41063D01*
Y-36023D01*
X571052Y-42323D02*
X566012D01*
X571052Y-37283D01*
Y-36023D01*
X569792Y-34763D01*
X567272D01*
X566012Y-36023D01*
X573572D02*
X574832Y-34763D01*
X577352D01*
X578612Y-36023D01*
Y-41063D01*
X577352Y-42323D01*
X574832D01*
X573572Y-41063D01*
Y-36023D01*
X432185Y-42323D02*
X434705D01*
X433445D01*
Y-34763D01*
X432185Y-36023D01*
X438485Y-42323D02*
Y-41063D01*
X439745D01*
Y-42323D01*
X438485D01*
X444785Y-36023D02*
X446045Y-34763D01*
X448565D01*
X449825Y-36023D01*
Y-41063D01*
X448565Y-42323D01*
X446045D01*
X444785Y-41063D01*
Y-36023D01*
X121840Y-55721D02*
X116800D01*
Y-59501D01*
X119320D01*
X116800D01*
Y-63281D01*
X124360D02*
Y-55721D01*
X128140D01*
X129400Y-56981D01*
Y-59501D01*
X128140Y-60761D01*
X124360D01*
X126880D02*
X129400Y-63281D01*
X135700D02*
Y-55721D01*
X131920Y-59501D01*
X136960D01*
X166929Y-82874D02*
X169449D01*
X168189D01*
Y-75314D01*
X166929Y-76574D01*
X173229Y-82874D02*
Y-81614D01*
X174489D01*
Y-82874D01*
X173229D01*
X184569Y-75314D02*
X182049Y-76574D01*
X179529Y-79094D01*
Y-81614D01*
X180789Y-82874D01*
X183309D01*
X184569Y-81614D01*
Y-80354D01*
X183309Y-79094D01*
X179529D01*
X187089Y-82874D02*
Y-77834D01*
X188349D01*
X189609Y-79094D01*
Y-82874D01*
Y-79094D01*
X190869Y-77834D01*
X192129Y-79094D01*
Y-82874D01*
X194649D02*
Y-77834D01*
X195909D01*
X197169Y-79094D01*
Y-82874D01*
Y-79094D01*
X198429Y-77834D01*
X199689Y-79094D01*
Y-82874D01*
X272342Y-93090D02*
X274937Y-96334D01*
Y-99902D01*
X277532Y-93090D02*
X274937Y-96334D01*
X282300Y-95361D02*
Y-99902D01*
Y-96334D02*
X281651Y-95685D01*
X281002Y-95361D01*
X280029D01*
X279381Y-95685D01*
X278732Y-96334D01*
X278408Y-97307D01*
Y-97956D01*
X278732Y-98929D01*
X279381Y-99577D01*
X280029Y-99902D01*
X281002D01*
X281651Y-99577D01*
X282300Y-98929D01*
X284116Y-95361D02*
Y-99902D01*
Y-96658D02*
X285089Y-95685D01*
X285738Y-95361D01*
X286711D01*
X287359Y-95685D01*
X287684Y-96658D01*
Y-99902D01*
X299684Y-94712D02*
X299360Y-94064D01*
X298711Y-93415D01*
X298062Y-93090D01*
X296765D01*
X296116Y-93415D01*
X295468Y-94064D01*
X295143Y-94712D01*
X294819Y-95685D01*
Y-97307D01*
X295143Y-98280D01*
X295468Y-98929D01*
X296116Y-99577D01*
X296765Y-99902D01*
X298062D01*
X298711Y-99577D01*
X299360Y-98929D01*
X299684Y-98280D01*
X301922Y-99253D02*
X301598Y-99577D01*
X301922Y-99902D01*
X302246Y-99577D01*
X301922Y-99253D01*
X312982Y-93090D02*
Y-99902D01*
Y-96334D02*
X312333Y-95685D01*
X311684Y-95361D01*
X310711D01*
X310063Y-95685D01*
X309414Y-96334D01*
X309090Y-97307D01*
Y-97956D01*
X309414Y-98929D01*
X310063Y-99577D01*
X310711Y-99902D01*
X311684D01*
X312333Y-99577D01*
X312982Y-98929D01*
X314798Y-97307D02*
X318690D01*
Y-96658D01*
X318366Y-96010D01*
X318041Y-95685D01*
X317393Y-95361D01*
X316420D01*
X315771Y-95685D01*
X315122Y-96334D01*
X314798Y-97307D01*
Y-97956D01*
X315122Y-98929D01*
X315771Y-99577D01*
X316420Y-99902D01*
X317393D01*
X318041Y-99577D01*
X318690Y-98929D01*
X330690Y-99902D02*
X328096Y-93090D01*
X325501Y-99902D01*
X326474Y-97631D02*
X329717D01*
X335847Y-95361D02*
X332280Y-99902D01*
Y-95361D02*
X335847D01*
X332280Y-99902D02*
X335847D01*
X337274Y-97307D02*
X341166D01*
Y-96658D01*
X340842Y-96010D01*
X340518Y-95685D01*
X339869Y-95361D01*
X338896D01*
X338247Y-95685D01*
X337599Y-96334D01*
X337274Y-97307D01*
Y-97956D01*
X337599Y-98929D01*
X338247Y-99577D01*
X338896Y-99902D01*
X339869D01*
X340518Y-99577D01*
X341166Y-98929D01*
X342626Y-95361D02*
Y-99902D01*
Y-97307D02*
X342950Y-96334D01*
X343599Y-95685D01*
X344248Y-95361D01*
X345221D01*
X345837Y-97307D02*
X349729D01*
Y-96658D01*
X349405Y-96010D01*
X349080Y-95685D01*
X348432Y-95361D01*
X347459D01*
X346810Y-95685D01*
X346161Y-96334D01*
X345837Y-97307D01*
Y-97956D01*
X346161Y-98929D01*
X346810Y-99577D01*
X347459Y-99902D01*
X348432D01*
X349080Y-99577D01*
X349729Y-98929D01*
X355080Y-93090D02*
Y-99902D01*
Y-96334D02*
X354432Y-95685D01*
X353783Y-95361D01*
X352810D01*
X352161Y-95685D01*
X351513Y-96334D01*
X351188Y-97307D01*
Y-97956D01*
X351513Y-98929D01*
X352161Y-99577D01*
X352810Y-99902D01*
X353783D01*
X354432Y-99577D01*
X355080Y-98929D01*
X358518Y-95361D02*
X357870Y-95685D01*
X357221Y-96334D01*
X356897Y-97307D01*
Y-97956D01*
X357221Y-98929D01*
X357870Y-99577D01*
X358518Y-99902D01*
X359491D01*
X360140Y-99577D01*
X360789Y-98929D01*
X361113Y-97956D01*
Y-97307D01*
X360789Y-96334D01*
X360140Y-95685D01*
X359491Y-95361D01*
X358518D01*
X138386Y-95059D02*
Y-101870D01*
X142927Y-95059D02*
Y-101870D01*
X138386Y-98302D02*
X142927D01*
X149997Y-101870D02*
X147402Y-95059D01*
X144808Y-101870D01*
X145781Y-99600D02*
X149024D01*
X156127Y-96032D02*
X155478Y-95383D01*
X154505Y-95059D01*
X153208D01*
X152235Y-95383D01*
X151586Y-96032D01*
Y-96681D01*
X151911Y-97329D01*
X152235Y-97654D01*
X152884Y-97978D01*
X154830Y-98627D01*
X155478Y-98951D01*
X155803Y-99275D01*
X156127Y-99924D01*
Y-100897D01*
X155478Y-101546D01*
X154505Y-101870D01*
X153208D01*
X152235Y-101546D01*
X151586Y-100897D01*
X157651Y-95059D02*
Y-101870D01*
X161543D01*
D12*
X1181Y84646D02*
X323622Y84646D01*
X1181Y25591D02*
X323622Y25591D01*
D13*
X160810Y23791D02*
X163742D01*
X160773Y23754D02*
X163817D01*
X160736Y23716D02*
X163817D01*
X160736Y23679D02*
X163817D01*
X160736Y23642D02*
X163854D01*
X160699Y23605D02*
X163854D01*
X160699Y23568D02*
X163854D01*
X160699Y23531D02*
X163854D01*
X160699Y23494D02*
X163854D01*
X160699Y23457D02*
X163891D01*
X160662Y23419D02*
X163891D01*
X160662Y23382D02*
X163891D01*
X160662Y23345D02*
X163891D01*
X160662Y23308D02*
X163891D01*
X160662Y23271D02*
X163891D01*
X160662Y23234D02*
X163928D01*
X160625Y23197D02*
X163928D01*
X160625Y23160D02*
X163928D01*
X160625Y23123D02*
X163928D01*
X160625Y23086D02*
X163928D01*
X160625Y23048D02*
X163965D01*
X160587Y23011D02*
X163965D01*
X160587Y22974D02*
X163965D01*
X160587Y22937D02*
X163965D01*
X160587Y22900D02*
X163965D01*
X160587Y22863D02*
X164002D01*
X160587Y22826D02*
X164002D01*
X160550Y22788D02*
X164002D01*
X160550Y22751D02*
X164002D01*
X160550Y22714D02*
X164002D01*
X160550Y22677D02*
X164002D01*
X160550Y22640D02*
X164039D01*
X160513Y22603D02*
X164039D01*
X160513Y22566D02*
X164039D01*
X160513Y22529D02*
X164039D01*
X160513Y22492D02*
X164039D01*
X160513Y22454D02*
X164076D01*
X160476Y22417D02*
X164076D01*
X160476Y22380D02*
X164076D01*
X160476Y22343D02*
X164076D01*
X160476Y22306D02*
X164076D01*
X160476Y22269D02*
X164114D01*
X160476Y22232D02*
X164114D01*
X160439Y22195D02*
X164114D01*
X160439Y22158D02*
X164114D01*
X160439Y22120D02*
X164114D01*
X160439Y22083D02*
X164114D01*
X160439Y22046D02*
X164151D01*
X160402Y22009D02*
X164151D01*
X160402Y21972D02*
X164151D01*
X160402Y21935D02*
X164151D01*
X160402Y21898D02*
X164151D01*
X160402Y21861D02*
X164188D01*
X160365Y21824D02*
X164188D01*
X160365Y21786D02*
X164188D01*
X160365Y21749D02*
X164188D01*
X160365Y21712D02*
X164188D01*
X160365Y21675D02*
X164188D01*
X160365Y21638D02*
X164225D01*
X155502Y21601D02*
X155688D01*
X160328D02*
X164225D01*
X168865D02*
X169050D01*
X155465Y21564D02*
X155725D01*
X160328D02*
X164225D01*
X168827D02*
X169087D01*
X155428Y21527D02*
X155799D01*
X160328D02*
X164225D01*
X168753D02*
X169124D01*
X155391Y21489D02*
X155836D01*
X160328D02*
X164225D01*
X168716D02*
X169161D01*
X155354Y21452D02*
X155911D01*
X160328D02*
X164262D01*
X168642D02*
X169199D01*
X155317Y21415D02*
X155948D01*
X160291D02*
X164262D01*
X168605D02*
X169236D01*
X155280Y21378D02*
X156022D01*
X160291D02*
X164262D01*
X168568D02*
X169273D01*
X155243Y21341D02*
X156059D01*
X160291D02*
X164262D01*
X168493D02*
X169310D01*
X155205Y21304D02*
X156133D01*
X160291D02*
X164262D01*
X168456D02*
X169347D01*
X155168Y21267D02*
X156170D01*
X160291D02*
X164299D01*
X168382D02*
X169384D01*
X155131Y21230D02*
X156245D01*
X160291D02*
X164299D01*
X168345D02*
X169421D01*
X155094Y21192D02*
X156282D01*
X160253D02*
X164299D01*
X168271D02*
X169458D01*
X155057Y21155D02*
X156319D01*
X160253D02*
X164299D01*
X168234D02*
X169496D01*
X155020Y21118D02*
X156393D01*
X160253D02*
X164299D01*
X168159D02*
X169533D01*
X154983Y21081D02*
X156430D01*
X160253D02*
X164299D01*
X168122D02*
X169570D01*
X154946Y21044D02*
X156504D01*
X160253D02*
X164336D01*
X168048D02*
X169607D01*
X154909Y21007D02*
X156542D01*
X160216D02*
X164336D01*
X168011D02*
X169644D01*
X154871Y20970D02*
X156616D01*
X160216D02*
X164336D01*
X167937D02*
X169681D01*
X154834Y20933D02*
X156653D01*
X160216D02*
X164336D01*
X167900D02*
X169718D01*
X154797Y20896D02*
X156727D01*
X160216D02*
X164336D01*
X167862D02*
X169755D01*
X154760Y20858D02*
X156764D01*
X160179D02*
X164373D01*
X167788D02*
X169792D01*
X154723Y20821D02*
X156839D01*
X160179D02*
X164373D01*
X167751D02*
X169830D01*
X154686Y20784D02*
X156876D01*
X160142D02*
X164410D01*
X167677D02*
X169867D01*
X154649Y20747D02*
X156950D01*
X160068D02*
X164485D01*
X167640D02*
X169904D01*
X154612Y20710D02*
X156987D01*
X159994D02*
X164559D01*
X167566D02*
X169941D01*
X154575Y20673D02*
X157024D01*
X159919D02*
X164670D01*
X167528D02*
X169978D01*
X154537Y20636D02*
X157098D01*
X159808D02*
X164745D01*
X167454D02*
X170015D01*
X154500Y20599D02*
X157135D01*
X159734D02*
X164856D01*
X167417D02*
X170052D01*
X154463Y20561D02*
X157210D01*
X159622D02*
X164930D01*
X167343D02*
X170089D01*
X154426Y20524D02*
X157247D01*
X159548D02*
X165004D01*
X167306D02*
X170127D01*
X154389Y20487D02*
X157321D01*
X159437D02*
X165116D01*
X167269D02*
X170164D01*
X154352Y20450D02*
X157358D01*
X159363D02*
X165190D01*
X167194D02*
X170201D01*
X154315Y20413D02*
X157432D01*
X159251D02*
X165301D01*
X167157D02*
X170238D01*
X154278Y20376D02*
X157470D01*
X159177D02*
X165376D01*
X167083D02*
X170275D01*
X154240Y20339D02*
X157544D01*
X159103D02*
X165487D01*
X167046D02*
X170312D01*
X154203Y20302D02*
X157581D01*
X158991D02*
X165561D01*
X166972D02*
X170349D01*
X154166Y20265D02*
X157618D01*
X158917D02*
X165673D01*
X166935D02*
X170386D01*
X154129Y20227D02*
X157692D01*
X158806D02*
X165747D01*
X166860D02*
X170423D01*
X154092Y20190D02*
X157729D01*
X158732D02*
X165821D01*
X166823D02*
X170461D01*
X154055Y20153D02*
X157804D01*
X158620D02*
X165932D01*
X166749D02*
X170498D01*
X154018Y20116D02*
X157841D01*
X158546D02*
X166007D01*
X166712D02*
X170535D01*
X153981Y20079D02*
X157915D01*
X158435D02*
X166118D01*
X166675D02*
X170572D01*
X153944Y20042D02*
X157952D01*
X158360D02*
X166192D01*
X166600D02*
X170609D01*
X153906Y20005D02*
X158026D01*
X158286D02*
X166304D01*
X166563D02*
X170646D01*
X153869Y19968D02*
X158101D01*
X158175D02*
X166378D01*
X166489D02*
X170683D01*
X153832Y19930D02*
X170721D01*
X153795Y19893D02*
X170758D01*
X153758Y19856D02*
X170795D01*
X153721Y19819D02*
X170832D01*
X153684Y19782D02*
X170869D01*
X153647Y19745D02*
X170906D01*
X153609Y19708D02*
X170943D01*
X153572Y19671D02*
X170980D01*
X153535Y19634D02*
X171017D01*
X153498Y19596D02*
X171054D01*
X153498Y19559D02*
X171092D01*
X153461Y19522D02*
X171092D01*
X153461Y19485D02*
X171092D01*
X153461Y19448D02*
X171092D01*
X153498Y19411D02*
X171092D01*
X153498Y19374D02*
X171054D01*
X153535Y19337D02*
X171017D01*
X153572Y19299D02*
X171017D01*
X153572Y19262D02*
X170980D01*
X153609Y19225D02*
X170943D01*
X153647Y19188D02*
X170943D01*
X153647Y19151D02*
X170906D01*
X153684Y19114D02*
X170869D01*
X153721Y19077D02*
X170869D01*
X153721Y19040D02*
X170832D01*
X153758Y19003D02*
X170795D01*
X153795Y18965D02*
X170758D01*
X153795Y18928D02*
X170758D01*
X153832Y18891D02*
X170721D01*
X153869Y18854D02*
X170683D01*
X153906Y18817D02*
X170683D01*
X153906Y18780D02*
X170646D01*
X153944Y18743D02*
X170609D01*
X153981Y18706D02*
X170609D01*
X153981Y18668D02*
X170572D01*
X154018Y18631D02*
X170535D01*
X154055Y18594D02*
X170535D01*
X154055Y18557D02*
X170498D01*
X154092Y18520D02*
X170461D01*
X154129Y18483D02*
X170461D01*
X154129Y18446D02*
X170423D01*
X154166Y18409D02*
X170386D01*
X154203Y18372D02*
X170349D01*
X154203Y18334D02*
X170349D01*
X154240Y18297D02*
X170312D01*
X154278Y18260D02*
X170275D01*
X154315Y18223D02*
X170275D01*
X154315Y18186D02*
X170238D01*
X154352Y18149D02*
X170201D01*
X154389Y18112D02*
X170201D01*
X154389Y18075D02*
X170164D01*
X154426Y18037D02*
X170127D01*
X154463Y18000D02*
X170127D01*
X154463Y17963D02*
X170089D01*
X154500Y17926D02*
X170052D01*
X154537Y17889D02*
X170052D01*
X154537Y17852D02*
X170015D01*
X154575Y17815D02*
X169978D01*
X154612Y17778D02*
X169941D01*
X154612Y17741D02*
X169941D01*
X154649Y17703D02*
X169904D01*
X154686Y17666D02*
X169867D01*
X154723Y17629D02*
X169867D01*
X154723Y17592D02*
X169830D01*
X154760Y17555D02*
X169792D01*
X154797Y17518D02*
X169792D01*
X154797Y17481D02*
X169755D01*
X154834Y17444D02*
X169718D01*
X154871Y17406D02*
X169718D01*
X154871Y17369D02*
X169681D01*
X154909Y17332D02*
X169644D01*
X154946Y17295D02*
X169644D01*
X154946Y17258D02*
X169607D01*
X154983Y17221D02*
X169570D01*
X155020Y17184D02*
X169570D01*
X155020Y17147D02*
X169533D01*
X155057Y17110D02*
X169496D01*
X155094Y17073D02*
X169496D01*
X155094Y17035D02*
X169458D01*
X155094Y16998D02*
X169458D01*
X155094Y16961D02*
X169458D01*
X155094Y16924D02*
X169496D01*
X155057Y16887D02*
X169496D01*
X155057Y16850D02*
X169496D01*
X155020Y16813D02*
X169533D01*
X155020Y16775D02*
X169533D01*
X155020Y16738D02*
X169570D01*
X154983Y16701D02*
X169570D01*
X154983Y16664D02*
X169607D01*
X154946Y16627D02*
X169607D01*
X154946Y16590D02*
X169607D01*
X154909Y16553D02*
X169644D01*
X154909Y16516D02*
X169644D01*
X154909Y16479D02*
X169681D01*
X154871Y16442D02*
X169681D01*
X154871Y16404D02*
X169718D01*
X154834Y16367D02*
X169718D01*
X154834Y16330D02*
X169718D01*
X154797Y16293D02*
X169755D01*
X154797Y16256D02*
X169755D01*
X154797Y16219D02*
X169792D01*
X154760Y16182D02*
X169792D01*
X154760Y16145D02*
X169830D01*
X154723Y16107D02*
X169830D01*
X154723Y16070D02*
X169830D01*
X154686Y16033D02*
X169867D01*
X154686Y15996D02*
X169867D01*
X154686Y15959D02*
X169904D01*
X154649Y15922D02*
X169904D01*
X154649Y15885D02*
X169941D01*
X154612Y15848D02*
X169941D01*
X154612Y15811D02*
X161849D01*
X162703D02*
X169941D01*
X154575Y15773D02*
X161627D01*
X162926D02*
X169978D01*
X154575Y15736D02*
X161478D01*
X163074D02*
X169978D01*
X154575Y15699D02*
X161367D01*
X163186D02*
X170015D01*
X154537Y15662D02*
X161256D01*
X163297D02*
X170015D01*
X154537Y15625D02*
X161144D01*
X163408D02*
X170052D01*
X154500Y15588D02*
X161070D01*
X163483D02*
X170052D01*
X154500Y15551D02*
X160996D01*
X163557D02*
X170052D01*
X154463Y15514D02*
X160922D01*
X163631D02*
X170089D01*
X154463Y15476D02*
X160847D01*
X163705D02*
X170089D01*
X154463Y15439D02*
X160773D01*
X163779D02*
X170127D01*
X154426Y15402D02*
X160699D01*
X163854D02*
X170127D01*
X154426Y15365D02*
X160662D01*
X163891D02*
X170164D01*
X154389Y15328D02*
X160587D01*
X163965D02*
X170164D01*
X154389Y15291D02*
X160550D01*
X164002D02*
X170164D01*
X154352Y15254D02*
X160476D01*
X164076D02*
X170201D01*
X154352Y15217D02*
X160439D01*
X164114D02*
X170201D01*
X154352Y15179D02*
X160402D01*
X164188D02*
X170238D01*
X154315Y15142D02*
X160365D01*
X164225D02*
X170238D01*
X154315Y15105D02*
X160291D01*
X164262D02*
X170275D01*
X154278Y15068D02*
X160253D01*
X164299D02*
X170275D01*
X154278Y15031D02*
X160216D01*
X164336D02*
X170275D01*
X154240Y14994D02*
X160179D01*
X164373D02*
X170312D01*
X154240Y14957D02*
X160142D01*
X164410D02*
X170312D01*
X154203Y14920D02*
X160105D01*
X164448D02*
X170349D01*
X154166Y14883D02*
X160068D01*
X164485D02*
X170423D01*
X154018Y14845D02*
X160031D01*
X164522D02*
X170535D01*
X153832Y14808D02*
X159994D01*
X164559D02*
X170758D01*
X153609Y14771D02*
X159957D01*
X164596D02*
X170943D01*
X153424Y14734D02*
X159919D01*
X164633D02*
X171129D01*
X153201Y14697D02*
X159919D01*
X164670D02*
X171352D01*
X153015Y14660D02*
X159882D01*
X164670D02*
X171537D01*
X152830Y14623D02*
X159845D01*
X164708D02*
X171760D01*
X152607Y14586D02*
X159808D01*
X164745D02*
X171945D01*
X152422Y14548D02*
X159808D01*
X164782D02*
X172131D01*
X152236Y14511D02*
X159771D01*
X164782D02*
X172354D01*
X152013Y14474D02*
X159734D01*
X164819D02*
X172539D01*
X151828Y14437D02*
X159734D01*
X164856D02*
X172725D01*
X151605Y14400D02*
X159697D01*
X164856D02*
X172948D01*
X151419Y14363D02*
X159660D01*
X164893D02*
X173133D01*
X151345Y14326D02*
X159660D01*
X164893D02*
X173244D01*
X151308Y14289D02*
X159622D01*
X164930D02*
X173244D01*
X151271Y14252D02*
X159622D01*
X164967D02*
X173282D01*
X151271Y14214D02*
X159585D01*
X164967D02*
X173282D01*
X151271Y14177D02*
X159585D01*
X165004D02*
X173282D01*
X151271Y14140D02*
X159548D01*
X165004D02*
X173282D01*
X151271Y14103D02*
X159548D01*
X165041D02*
X173282D01*
X151271Y14066D02*
X159511D01*
X165041D02*
X173282D01*
X151271Y14029D02*
X159511D01*
X165079D02*
X173282D01*
X151271Y13992D02*
X159474D01*
X165079D02*
X173282D01*
X151271Y13955D02*
X159474D01*
X165079D02*
X173282D01*
X151271Y13917D02*
X159437D01*
X165116D02*
X173282D01*
X151271Y13880D02*
X159437D01*
X165116D02*
X173282D01*
X151271Y13843D02*
X159437D01*
X165153D02*
X173282D01*
X151271Y13806D02*
X159400D01*
X165153D02*
X173282D01*
X151271Y13769D02*
X159400D01*
X165153D02*
X173282D01*
X151271Y13732D02*
X159400D01*
X165190D02*
X173282D01*
X151271Y13695D02*
X159363D01*
X165190D02*
X173282D01*
X151271Y13658D02*
X159363D01*
X165190D02*
X173282D01*
X151271Y13621D02*
X159363D01*
X165227D02*
X173282D01*
X151271Y13583D02*
X159326D01*
X165227D02*
X173282D01*
X151271Y13546D02*
X159326D01*
X165227D02*
X173282D01*
X151271Y13509D02*
X159326D01*
X165227D02*
X173282D01*
X151271Y13472D02*
X159326D01*
X165264D02*
X173282D01*
X151271Y13435D02*
X159288D01*
X165264D02*
X173282D01*
X151271Y13398D02*
X159288D01*
X165264D02*
X173282D01*
X151271Y13361D02*
X159288D01*
X165264D02*
X173282D01*
X151271Y13324D02*
X159288D01*
X165264D02*
X173282D01*
X151271Y13286D02*
X159288D01*
X165301D02*
X173282D01*
X151271Y13249D02*
X159251D01*
X165301D02*
X173282D01*
X151271Y13212D02*
X159251D01*
X165301D02*
X173282D01*
X151271Y13175D02*
X159251D01*
X165301D02*
X173282D01*
X151271Y13138D02*
X159251D01*
X165301D02*
X173282D01*
X151271Y13101D02*
X159251D01*
X165301D02*
X173282D01*
X151271Y13064D02*
X159251D01*
X165301D02*
X173282D01*
X151271Y13027D02*
X159251D01*
X165339D02*
X173282D01*
X151271Y12990D02*
X159251D01*
X165339D02*
X173282D01*
X151271Y12952D02*
X159251D01*
X165339D02*
X173282D01*
X151271Y12915D02*
X159251D01*
X165339D02*
X173282D01*
X151271Y12878D02*
X159214D01*
X165339D02*
X173282D01*
X151271Y12841D02*
X159214D01*
X165339D02*
X173282D01*
X151271Y12804D02*
X159214D01*
X165339D02*
X173282D01*
X151271Y12767D02*
X159214D01*
X165339D02*
X173282D01*
X151271Y12730D02*
X159214D01*
X165339D02*
X173282D01*
X151271Y12693D02*
X159214D01*
X165339D02*
X173282D01*
X151271Y12655D02*
X159251D01*
X165339D02*
X173282D01*
X151271Y12618D02*
X159251D01*
X165339D02*
X173282D01*
X151271Y12581D02*
X159251D01*
X165339D02*
X173282D01*
X151271Y12544D02*
X159251D01*
X165339D02*
X173282D01*
X151271Y12507D02*
X159251D01*
X165301D02*
X173282D01*
X151271Y12470D02*
X159251D01*
X165301D02*
X173282D01*
X151271Y12433D02*
X159251D01*
X165301D02*
X173282D01*
X151271Y12396D02*
X159251D01*
X165301D02*
X173282D01*
X151271Y12359D02*
X159251D01*
X165301D02*
X173282D01*
X151271Y12321D02*
X159251D01*
X165301D02*
X173282D01*
X151271Y12284D02*
X159288D01*
X165301D02*
X173282D01*
X151271Y12247D02*
X159288D01*
X165264D02*
X173282D01*
X151271Y12210D02*
X159288D01*
X165264D02*
X173282D01*
X151271Y12173D02*
X159288D01*
X165264D02*
X173282D01*
X151271Y12136D02*
X159288D01*
X165264D02*
X173282D01*
X151271Y12099D02*
X159326D01*
X165264D02*
X173282D01*
X151271Y12062D02*
X159326D01*
X165227D02*
X173282D01*
X151271Y12025D02*
X159326D01*
X165227D02*
X173282D01*
X151271Y11987D02*
X159326D01*
X165227D02*
X173282D01*
X151271Y11950D02*
X159363D01*
X165227D02*
X173282D01*
X151271Y11913D02*
X159363D01*
X165190D02*
X173282D01*
X151271Y11876D02*
X159363D01*
X165190D02*
X173282D01*
X151271Y11839D02*
X159400D01*
X165190D02*
X173282D01*
X151271Y11802D02*
X159400D01*
X165153D02*
X173282D01*
X151271Y11765D02*
X159400D01*
X165153D02*
X173282D01*
X151271Y11728D02*
X159437D01*
X165153D02*
X173282D01*
X151271Y11690D02*
X159437D01*
X165116D02*
X173282D01*
X151271Y11653D02*
X159474D01*
X165116D02*
X173282D01*
X151271Y11616D02*
X159474D01*
X165079D02*
X173282D01*
X151271Y11579D02*
X159474D01*
X165079D02*
X173282D01*
X151271Y11542D02*
X159511D01*
X165041D02*
X173282D01*
X151271Y11505D02*
X159511D01*
X165041D02*
X173282D01*
X151271Y11468D02*
X159548D01*
X165004D02*
X173282D01*
X151271Y11431D02*
X159548D01*
X165004D02*
X173282D01*
X151271Y11394D02*
X159585D01*
X164967D02*
X173282D01*
X151271Y11356D02*
X159585D01*
X164967D02*
X173282D01*
X151308Y11319D02*
X159622D01*
X164930D02*
X173244D01*
X151345Y11282D02*
X159622D01*
X164930D02*
X173207D01*
X151457Y11245D02*
X159660D01*
X164893D02*
X173096D01*
X151679Y11208D02*
X159697D01*
X164893D02*
X172910D01*
X151865Y11171D02*
X159697D01*
X164856D02*
X172688D01*
X152050Y11134D02*
X159734D01*
X164819D02*
X172502D01*
X152273Y11097D02*
X159771D01*
X164819D02*
X172279D01*
X152459Y11059D02*
X159771D01*
X164782D02*
X172094D01*
X152682Y11022D02*
X159808D01*
X164745D02*
X171908D01*
X152867Y10985D02*
X159845D01*
X164745D02*
X171686D01*
X153053Y10948D02*
X159845D01*
X164708D02*
X171500D01*
X153275Y10911D02*
X159882D01*
X164670D02*
X171314D01*
X153461Y10874D02*
X159919D01*
X164633D02*
X171092D01*
X153647Y10837D02*
X159957D01*
X164596D02*
X170906D01*
X153869Y10800D02*
X159994D01*
X164596D02*
X170683D01*
X154055Y10763D02*
X160031D01*
X164559D02*
X170498D01*
X154129Y10725D02*
X160031D01*
X164522D02*
X170461D01*
X154166Y10688D02*
X160068D01*
X164485D02*
X170423D01*
X154166Y10651D02*
X160105D01*
X164448D02*
X170386D01*
X154203Y10614D02*
X160142D01*
X164410D02*
X170386D01*
X154203Y10577D02*
X160179D01*
X164373D02*
X170349D01*
X154240Y10540D02*
X160253D01*
X164336D02*
X170349D01*
X154240Y10503D02*
X160291D01*
X164299D02*
X170312D01*
X154240Y10466D02*
X160328D01*
X164225D02*
X170312D01*
X154278Y10429D02*
X160365D01*
X164188D02*
X170312D01*
X154278Y10391D02*
X160402D01*
X164151D02*
X170275D01*
X154315Y10354D02*
X160476D01*
X164114D02*
X170275D01*
X154315Y10317D02*
X160513D01*
X164039D02*
X170238D01*
X154315Y10280D02*
X160550D01*
X164002D02*
X170238D01*
X154352Y10243D02*
X160625D01*
X163928D02*
X170238D01*
X154352Y10206D02*
X160662D01*
X163891D02*
X170201D01*
X154389Y10169D02*
X160699D01*
X163854D02*
X170201D01*
X154389Y10131D02*
X160773D01*
X163779D02*
X170164D01*
X154389Y10094D02*
X160810D01*
X163742D02*
X170164D01*
X154426Y10057D02*
X160884D01*
X163668D02*
X170164D01*
X154426Y10020D02*
X160959D01*
X163631D02*
X170127D01*
X154463Y9983D02*
X160996D01*
X163557D02*
X170127D01*
X154463Y9946D02*
X161070D01*
X163520D02*
X170089D01*
X154463Y9909D02*
X161070D01*
X163483D02*
X170089D01*
X154500Y9872D02*
X161107D01*
X163483D02*
X170089D01*
X154500Y9835D02*
X161107D01*
X163445D02*
X170052D01*
X154537Y9798D02*
X161107D01*
X163445D02*
X170052D01*
X154537Y9760D02*
X161107D01*
X163483D02*
X170015D01*
X154537Y9723D02*
X161070D01*
X163483D02*
X170015D01*
X154575Y9686D02*
X161070D01*
X163483D02*
X170015D01*
X154575Y9649D02*
X161033D01*
X163520D02*
X169978D01*
X154612Y9612D02*
X161033D01*
X163520D02*
X169978D01*
X154612Y9575D02*
X161033D01*
X163557D02*
X169941D01*
X154612Y9538D02*
X160996D01*
X163557D02*
X169941D01*
X154649Y9500D02*
X160996D01*
X163594D02*
X169941D01*
X154649Y9463D02*
X160959D01*
X163594D02*
X169904D01*
X154686Y9426D02*
X160959D01*
X163594D02*
X169904D01*
X154686Y9389D02*
X160922D01*
X163631D02*
X169867D01*
X154686Y9352D02*
X160922D01*
X163631D02*
X169867D01*
X154723Y9315D02*
X160922D01*
X163668D02*
X169867D01*
X154723Y9278D02*
X160884D01*
X163668D02*
X169830D01*
X154760Y9241D02*
X160884D01*
X163668D02*
X169830D01*
X154760Y9204D02*
X160847D01*
X163705D02*
X169792D01*
X154760Y9166D02*
X160847D01*
X163705D02*
X169792D01*
X154797Y9129D02*
X160847D01*
X163742D02*
X169792D01*
X154797Y9092D02*
X160810D01*
X163742D02*
X169755D01*
X154834Y9055D02*
X160810D01*
X163779D02*
X169755D01*
X154834Y9018D02*
X160773D01*
X163779D02*
X169718D01*
X154834Y8981D02*
X160773D01*
X163779D02*
X169718D01*
X154871Y8944D02*
X160736D01*
X163817D02*
X169718D01*
X154871Y8907D02*
X160736D01*
X163817D02*
X169681D01*
X154909Y8869D02*
X160736D01*
X163854D02*
X169681D01*
X154909Y8832D02*
X160699D01*
X163854D02*
X169644D01*
X154909Y8795D02*
X160699D01*
X163854D02*
X169644D01*
X154946Y8758D02*
X160662D01*
X163891D02*
X169644D01*
X154946Y8721D02*
X160662D01*
X163891D02*
X169607D01*
X154983Y8684D02*
X160662D01*
X163928D02*
X169607D01*
X154983Y8647D02*
X160625D01*
X163928D02*
X169570D01*
X154983Y8610D02*
X160625D01*
X163928D02*
X169570D01*
X155020Y8573D02*
X160587D01*
X163965D02*
X169570D01*
X155020Y8535D02*
X160587D01*
X163965D02*
X169533D01*
X155020Y8498D02*
X160587D01*
X164002D02*
X169533D01*
X155020Y8461D02*
X160550D01*
X164002D02*
X169533D01*
X155020Y8424D02*
X160550D01*
X164039D02*
X169570D01*
X154983Y8387D02*
X160513D01*
X164039D02*
X169570D01*
X154946Y8350D02*
X160513D01*
X164039D02*
X169607D01*
X154946Y8313D02*
X160476D01*
X164076D02*
X169644D01*
X154909Y8276D02*
X160476D01*
X164076D02*
X169644D01*
X154871Y8239D02*
X160476D01*
X164114D02*
X169681D01*
X154834Y8201D02*
X160439D01*
X164114D02*
X169718D01*
X154834Y8164D02*
X160439D01*
X164114D02*
X169718D01*
X154797Y8127D02*
X160402D01*
X164151D02*
X169755D01*
X154760Y8090D02*
X160402D01*
X164151D02*
X169792D01*
X154760Y8053D02*
X160402D01*
X164188D02*
X169830D01*
X154723Y8016D02*
X160365D01*
X164188D02*
X169830D01*
X154686Y7979D02*
X160365D01*
X164225D02*
X169867D01*
X154686Y7942D02*
X160328D01*
X164225D02*
X169904D01*
X154649Y7904D02*
X160328D01*
X164225D02*
X169904D01*
X154612Y7867D02*
X160291D01*
X164262D02*
X169941D01*
X154612Y7830D02*
X160291D01*
X164262D02*
X169978D01*
X154575Y7793D02*
X160291D01*
X164299D02*
X169978D01*
X154537Y7756D02*
X160253D01*
X164299D02*
X170015D01*
X154537Y7719D02*
X160253D01*
X164299D02*
X170052D01*
X154500Y7682D02*
X160216D01*
X164336D02*
X170052D01*
X154463Y7645D02*
X160216D01*
X164336D02*
X170089D01*
X154426Y7608D02*
X160216D01*
X164373D02*
X170127D01*
X154426Y7570D02*
X160179D01*
X164373D02*
X170127D01*
X154389Y7533D02*
X160179D01*
X164373D02*
X170164D01*
X154352Y7496D02*
X160142D01*
X164410D02*
X170201D01*
X154352Y7459D02*
X160142D01*
X164410D02*
X170238D01*
X154315Y7422D02*
X160142D01*
X164448D02*
X170238D01*
X154278Y7385D02*
X160105D01*
X164448D02*
X170275D01*
X154278Y7348D02*
X160105D01*
X164485D02*
X170312D01*
X154240Y7311D02*
X160068D01*
X164485D02*
X170312D01*
X154203Y7273D02*
X160068D01*
X164485D02*
X170349D01*
X154203Y7236D02*
X160031D01*
X164522D02*
X170386D01*
X154166Y7199D02*
X160031D01*
X164522D02*
X170386D01*
X154129Y7162D02*
X160031D01*
X164559D02*
X170423D01*
X154129Y7125D02*
X159994D01*
X164559D02*
X170461D01*
X154092Y7088D02*
X159994D01*
X164559D02*
X170461D01*
X154055Y7051D02*
X159957D01*
X164596D02*
X170498D01*
X154055Y7014D02*
X159957D01*
X164596D02*
X170535D01*
X154018Y6977D02*
X159957D01*
X164633D02*
X170535D01*
X153981Y6939D02*
X159919D01*
X164633D02*
X170572D01*
X153944Y6902D02*
X159919D01*
X164670D02*
X170609D01*
X153944Y6865D02*
X159882D01*
X164670D02*
X170609D01*
X153906Y6828D02*
X159882D01*
X164670D02*
X170646D01*
X153869Y6791D02*
X159845D01*
X164708D02*
X170683D01*
X153869Y6754D02*
X159845D01*
X164708D02*
X170721D01*
X153832Y6717D02*
X159845D01*
X164745D02*
X170721D01*
X153795Y6680D02*
X159808D01*
X164745D02*
X170758D01*
X153795Y6643D02*
X159808D01*
X164745D02*
X170795D01*
X153758Y6605D02*
X159771D01*
X164782D02*
X170795D01*
X153721Y6568D02*
X159771D01*
X164782D02*
X170832D01*
X153721Y6531D02*
X159771D01*
X164819D02*
X170869D01*
X153684Y6494D02*
X159734D01*
X164819D02*
X170869D01*
X153647Y6457D02*
X159734D01*
X164819D02*
X170906D01*
X153647Y6420D02*
X159697D01*
X164856D02*
X170943D01*
X153609Y6383D02*
X159697D01*
X164856D02*
X170943D01*
X153572Y6346D02*
X159697D01*
X164893D02*
X170980D01*
X153535Y6308D02*
X159660D01*
X164893D02*
X171017D01*
X153535Y6271D02*
X159660D01*
X164930D02*
X171017D01*
X153498Y6234D02*
X159622D01*
X164930D02*
X171054D01*
X153498Y6197D02*
X159622D01*
X164930D02*
X171092D01*
X153461Y6160D02*
X159585D01*
X164967D02*
X171092D01*
X153461Y6123D02*
X159585D01*
X164967D02*
X171092D01*
X153461Y6086D02*
X159585D01*
X165004D02*
X171092D01*
X153498Y6049D02*
X159548D01*
X165004D02*
X171092D01*
X153498Y6011D02*
X159548D01*
X165004D02*
X171054D01*
X153535Y5974D02*
X159511D01*
X165041D02*
X171017D01*
X153572Y5937D02*
X159511D01*
X165041D02*
X170980D01*
X153609Y5900D02*
X159511D01*
X165079D02*
X170943D01*
X153647Y5863D02*
X159474D01*
X165079D02*
X170906D01*
X153684Y5826D02*
X159474D01*
X165116D02*
X170869D01*
X153721Y5789D02*
X159437D01*
X165116D02*
X170832D01*
X153758Y5752D02*
X159437D01*
X165116D02*
X170795D01*
X153795Y5715D02*
X159400D01*
X165153D02*
X170758D01*
X153832Y5677D02*
X159400D01*
X165153D02*
X170721D01*
X153869Y5640D02*
X159400D01*
X165190D02*
X170683D01*
X153906Y5603D02*
X159363D01*
X165190D02*
X170646D01*
X153944Y5566D02*
X159363D01*
X165190D02*
X170609D01*
X153981Y5529D02*
X159326D01*
X165227D02*
X170572D01*
X154018Y5492D02*
X157841D01*
X158026D02*
X159326D01*
X165227D02*
X166526D01*
X166712D02*
X170535D01*
X154055Y5455D02*
X157766D01*
X158101D02*
X159326D01*
X165264D02*
X166452D01*
X166786D02*
X170498D01*
X154092Y5418D02*
X157729D01*
X158175D02*
X159288D01*
X165264D02*
X166415D01*
X166823D02*
X170461D01*
X154129Y5381D02*
X157692D01*
X158249D02*
X159288D01*
X165264D02*
X166341D01*
X166897D02*
X170423D01*
X154166Y5343D02*
X157618D01*
X158286D02*
X159251D01*
X165301D02*
X166266D01*
X166935D02*
X170386D01*
X154203Y5306D02*
X157581D01*
X158360D02*
X159251D01*
X165301D02*
X166192D01*
X167009D02*
X170349D01*
X154240Y5269D02*
X157507D01*
X158435D02*
X159251D01*
X165339D02*
X166118D01*
X167046D02*
X170312D01*
X154278Y5232D02*
X157470D01*
X158509D02*
X159214D01*
X165339D02*
X166044D01*
X167120D02*
X170275D01*
X154315Y5195D02*
X157395D01*
X158583D02*
X159214D01*
X165376D02*
X165970D01*
X167157D02*
X170238D01*
X154352Y5158D02*
X157358D01*
X158657D02*
X159177D01*
X165376D02*
X165895D01*
X167194D02*
X170201D01*
X154389Y5121D02*
X157284D01*
X158732D02*
X159177D01*
X165376D02*
X165858D01*
X167269D02*
X170164D01*
X154426Y5084D02*
X157247D01*
X158806D02*
X159140D01*
X165413D02*
X165784D01*
X167306D02*
X170127D01*
X154463Y5046D02*
X157173D01*
X158843D02*
X159140D01*
X165413D02*
X165710D01*
X167380D02*
X170089D01*
X154500Y5009D02*
X157135D01*
X158917D02*
X159103D01*
X165450D02*
X165635D01*
X167417D02*
X170052D01*
X154537Y4972D02*
X157098D01*
X167491D02*
X170015D01*
X154575Y4935D02*
X157024D01*
X167528D02*
X169978D01*
X154612Y4898D02*
X156987D01*
X167603D02*
X169941D01*
X154649Y4861D02*
X156913D01*
X167640D02*
X169904D01*
X154686Y4824D02*
X156876D01*
X167714D02*
X169867D01*
X154723Y4787D02*
X156801D01*
X167751D02*
X169830D01*
X154760Y4750D02*
X156764D01*
X167788D02*
X169792D01*
X154797Y4712D02*
X156690D01*
X167862D02*
X169755D01*
X154834Y4675D02*
X156653D01*
X167900D02*
X169718D01*
X154871Y4638D02*
X156579D01*
X167974D02*
X169681D01*
X154909Y4601D02*
X156542D01*
X168011D02*
X169644D01*
X154946Y4564D02*
X156504D01*
X168085D02*
X169607D01*
X154983Y4527D02*
X156430D01*
X168122D02*
X169570D01*
X155020Y4490D02*
X156393D01*
X168196D02*
X169533D01*
X155057Y4453D02*
X156319D01*
X168234D02*
X169496D01*
X155094Y4416D02*
X156282D01*
X168308D02*
X169458D01*
X155131Y4378D02*
X156208D01*
X168345D02*
X169421D01*
X155168Y4341D02*
X156170D01*
X168382D02*
X169384D01*
X155205Y4304D02*
X156096D01*
X168456D02*
X169347D01*
X155243Y4267D02*
X156059D01*
X168493D02*
X169310D01*
X155280Y4230D02*
X155985D01*
X168568D02*
X169273D01*
X155317Y4193D02*
X155948D01*
X168605D02*
X169236D01*
X155354Y4156D02*
X155874D01*
X168679D02*
X169199D01*
X155391Y4118D02*
X155836D01*
X168716D02*
X169161D01*
X155428Y4081D02*
X155799D01*
X168790D02*
X169124D01*
X155465Y4044D02*
X155725D01*
X168827D02*
X169087D01*
X155540Y4007D02*
X155651D01*
X168902D02*
X169013D01*
D14*
X347055Y132677D02*
X351780Y137402D01*
X342331Y132677D02*
X351780Y142126D01*
X337606Y132677D02*
X347055Y142126D01*
X332882Y132677D02*
X342331Y142126D01*
X328157Y132677D02*
X337606Y142126D01*
X323433Y132677D02*
X332882Y142126D01*
X318709Y132677D02*
X328157Y142126D01*
X313984Y132677D02*
X323433Y142126D01*
X309260Y132677D02*
X318709Y142126D01*
X304535Y132677D02*
X313984Y142126D01*
X299811Y132677D02*
X309260Y142126D01*
X295087Y132677D02*
X304535Y142126D01*
X290362Y132677D02*
X299811Y142126D01*
X285638Y132677D02*
X295087Y142126D01*
X280913Y132677D02*
X290362Y142126D01*
X276189Y132677D02*
X285638Y142126D01*
X271465Y132677D02*
X280913Y142126D01*
X266740Y132677D02*
X276189Y142126D01*
X263615Y134277D02*
X271464Y142126D01*
X263615Y139001D02*
X266740Y142126D01*
X347055D02*
X351780Y146850D01*
X342331Y142126D02*
X351780Y151575D01*
X337606Y142126D02*
X347055Y151575D01*
X332882Y142126D02*
X342331Y151575D01*
X328157Y142126D02*
X337606Y151575D01*
X323433Y142126D02*
X332882Y151575D01*
X318709Y142126D02*
X328157Y151575D01*
X313984Y142126D02*
X323433Y151575D01*
X309260Y142126D02*
X318709Y151575D01*
X304535Y142126D02*
X313984Y151575D01*
X299811Y142126D02*
X309260Y151575D01*
X295087Y142126D02*
X304535Y151575D01*
X290362Y142126D02*
X299811Y151575D01*
X285638Y142126D02*
X295087Y151575D01*
X280913Y142126D02*
X290362Y151575D01*
X276189Y142126D02*
X285638Y151575D01*
X271465Y142126D02*
X280913Y151575D01*
X266740Y142126D02*
X276189Y151575D01*
X263615Y143726D02*
X271464Y151575D01*
X263615Y148450D02*
X266740Y151575D01*
X347055D02*
X351780Y156299D01*
X342331Y151575D02*
X351780Y161024D01*
X337606Y151575D02*
X347055Y161024D01*
X332882Y151575D02*
X342331Y161024D01*
X328157Y151575D02*
X337606Y161024D01*
X323433Y151575D02*
X332882Y161024D01*
X318709Y151575D02*
X328157Y161024D01*
X313984Y151575D02*
X323433Y161024D01*
X309260Y151575D02*
X318709Y161024D01*
X304535Y151575D02*
X313984Y161024D01*
X299811Y151575D02*
X309260Y161024D01*
X295087Y151575D02*
X304535Y161024D01*
X290362Y151575D02*
X299811Y161024D01*
X285638Y151575D02*
X295087Y161024D01*
X280913Y151575D02*
X290362Y161024D01*
X276189Y151575D02*
X285638Y161024D01*
X271465Y151575D02*
X280913Y161024D01*
X266740Y151575D02*
X276189Y161024D01*
X263615Y153175D02*
X271464Y161024D01*
X263615Y157899D02*
X266740Y161024D01*
X347055D02*
X351780Y165748D01*
X342331Y161024D02*
X351780Y170473D01*
X337606Y161024D02*
X347055Y170473D01*
X332882Y161024D02*
X342331Y170473D01*
X328157Y161024D02*
X337606Y170473D01*
X323433Y161024D02*
X332882Y170473D01*
X318709Y161024D02*
X328157Y170473D01*
X313984Y161024D02*
X323433Y170473D01*
X309260Y161024D02*
X318709Y170473D01*
X304535Y161024D02*
X313984Y170473D01*
X299811Y161024D02*
X309260Y170473D01*
X295087Y161024D02*
X304535Y170473D01*
X290362Y161024D02*
X299811Y170473D01*
X285638Y161024D02*
X295087Y170473D01*
X280913Y161024D02*
X290362Y170473D01*
X276189Y161024D02*
X285638Y170473D01*
X271465Y161024D02*
X280913Y170473D01*
X266740Y161024D02*
X276189Y170473D01*
X263615Y162623D02*
X271464Y170473D01*
X263615Y167348D02*
X266740Y170473D01*
X347055D02*
X351780Y175197D01*
X342331Y170473D02*
X351780Y179921D01*
X337606Y170473D02*
X347055Y179921D01*
X332882Y170473D02*
X342331Y179921D01*
X328157Y170473D02*
X337606Y179921D01*
X323433Y170473D02*
X332882Y179921D01*
X318709Y170473D02*
X328157Y179921D01*
X313984Y170473D02*
X323433Y179921D01*
X309260Y170473D02*
X318709Y179921D01*
X304535Y170473D02*
X313984Y179921D01*
X299811Y170473D02*
X309260Y179921D01*
X295087Y170473D02*
X304535Y179921D01*
X290362Y170473D02*
X299811Y179921D01*
X285638Y170473D02*
X295087Y179921D01*
X280913Y170473D02*
X290362Y179921D01*
X276189Y170473D02*
X285638Y179921D01*
X271465Y170473D02*
X280913Y179921D01*
X266740Y170473D02*
X276189Y179921D01*
X263615Y172072D02*
X271464Y179921D01*
X263615Y176797D02*
X266740Y179921D01*
X347055D02*
X351780Y184646D01*
X342331Y179921D02*
X351780Y189370D01*
X337606Y179921D02*
X347055Y189370D01*
X332882Y179921D02*
X342331Y189370D01*
X328157Y179921D02*
X337606Y189370D01*
X323433Y179921D02*
X332882Y189370D01*
X318709Y179921D02*
X328157Y189370D01*
X313984Y179921D02*
X323433Y189370D01*
X309260Y179921D02*
X318709Y189370D01*
X304535Y179921D02*
X313984Y189370D01*
X299811Y179921D02*
X309260Y189370D01*
X295087Y179921D02*
X304535Y189370D01*
X290362Y179921D02*
X299811Y189370D01*
X285638Y179921D02*
X295087Y189370D01*
X280913Y179921D02*
X290362Y189370D01*
X276189Y179921D02*
X285638Y189370D01*
X271465Y179921D02*
X280913Y189370D01*
X266740Y179921D02*
X276189Y189370D01*
X263615Y181521D02*
X271464Y189370D01*
X263615Y186246D02*
X266740Y189370D01*
X347055D02*
X351780Y194095D01*
X342331Y189370D02*
X351780Y198819D01*
X337606Y189370D02*
X347055Y198819D01*
X332882Y189370D02*
X342331Y198819D01*
X328157Y189370D02*
X337606Y198819D01*
X323433Y189370D02*
X332882Y198819D01*
X318709Y189370D02*
X328157Y198819D01*
X313984Y189370D02*
X323433Y198819D01*
X309260Y189370D02*
X318709Y198819D01*
X304535Y189370D02*
X313984Y198819D01*
X299811Y189370D02*
X309260Y198819D01*
X295087Y189370D02*
X304535Y198819D01*
X290362Y189370D02*
X299811Y198819D01*
X285638Y189370D02*
X295087Y198819D01*
X280913Y189370D02*
X290362Y198819D01*
X276189Y189370D02*
X285638Y198819D01*
X271465Y189370D02*
X280913Y198819D01*
X266740Y189370D02*
X276189Y198819D01*
X263615Y190970D02*
X271464Y198819D01*
X263615Y195694D02*
X266740Y198819D01*
D15*
X395799Y-95113D02*
X394881Y-94195D01*
X393044D01*
X392126Y-95113D01*
Y-96031D01*
X393044Y-96950D01*
X394881D01*
X395799Y-97868D01*
Y-98786D01*
X394881Y-99705D01*
X393044D01*
X392126Y-98786D01*
X397636Y-101541D02*
Y-96031D01*
X400391D01*
X401309Y-96950D01*
Y-98786D01*
X400391Y-99705D01*
X397636D01*
X404064Y-96031D02*
X405901D01*
X406819Y-96950D01*
Y-99705D01*
X404064D01*
X403146Y-98786D01*
X404064Y-97868D01*
X406819D01*
X412329Y-96031D02*
X409574D01*
X408656Y-96950D01*
Y-98786D01*
X409574Y-99705D01*
X412329D01*
X416921D02*
X415085D01*
X414166Y-98786D01*
Y-96950D01*
X415085Y-96031D01*
X416921D01*
X417839Y-96950D01*
Y-97868D01*
X414166D01*
X419676Y-94195D02*
Y-99705D01*
X423350D01*
X426104Y-96031D02*
X427941D01*
X428860Y-96950D01*
Y-99705D01*
X426104D01*
X425186Y-98786D01*
X426104Y-97868D01*
X428860D01*
X430696Y-94195D02*
Y-99705D01*
X433451D01*
X434370Y-98786D01*
Y-97868D01*
Y-96950D01*
X433451Y-96031D01*
X430696D01*
X441716Y-94195D02*
Y-98786D01*
X442635Y-99705D01*
X444471D01*
X445390Y-98786D01*
Y-94195D01*
X450900D02*
X447226D01*
Y-96950D01*
X449063D01*
X447226D01*
Y-99705D01*
X456410Y-95113D02*
X455491Y-94195D01*
X453655D01*
X452736Y-95113D01*
Y-96031D01*
X453655Y-96950D01*
X455491D01*
X456410Y-97868D01*
Y-98786D01*
X455491Y-99705D01*
X453655D01*
X452736Y-98786D01*
X461920Y-95113D02*
X461001Y-94195D01*
X459165D01*
X458246Y-95113D01*
Y-98786D01*
X459165Y-99705D01*
X461001D01*
X461920Y-98786D01*
D16*
X394882Y-63386D02*
Y-55826D01*
X398662D01*
X399922Y-57086D01*
Y-59606D01*
X398662Y-60866D01*
X394882D01*
X402442Y-58346D02*
Y-63386D01*
Y-60866D01*
X403702Y-59606D01*
X404962Y-58346D01*
X406222D01*
X411262Y-63386D02*
X413782D01*
X415042Y-62126D01*
Y-59606D01*
X413782Y-58346D01*
X411262D01*
X410002Y-59606D01*
Y-62126D01*
X411262Y-63386D01*
X417562Y-65906D02*
X418822D01*
X420082Y-64646D01*
Y-58346D01*
X428902Y-63386D02*
X426382D01*
X425122Y-62126D01*
Y-59606D01*
X426382Y-58346D01*
X428902D01*
X430162Y-59606D01*
Y-60866D01*
X425122D01*
X437722Y-58346D02*
X433942D01*
X432682Y-59606D01*
Y-62126D01*
X433942Y-63386D01*
X437722D01*
X441502Y-57086D02*
Y-58346D01*
X440242D01*
X442762D01*
X441502D01*
Y-62126D01*
X442762Y-63386D01*
X446542Y-58346D02*
X447802D01*
Y-59606D01*
X446542D01*
Y-58346D01*
Y-62126D02*
X447802D01*
Y-63386D01*
X446542D01*
Y-62126D01*
X460402Y-55826D02*
X462922D01*
X461662D01*
Y-63386D01*
X460402D01*
X462922D01*
X466703Y-55826D02*
X469222D01*
X467963D01*
Y-63386D01*
X466703D01*
X469222D01*
X473002D02*
Y-55826D01*
X476783D01*
X478043Y-57086D01*
Y-59606D01*
X476783Y-60866D01*
X473002D01*
X48524Y-101378D02*
Y-93818D01*
X52304D01*
X53564Y-95078D01*
Y-97598D01*
X52304Y-98858D01*
X48524D01*
X61124Y-95078D02*
X59864Y-93818D01*
X57344D01*
X56084Y-95078D01*
Y-100118D01*
X57344Y-101378D01*
X59864D01*
X61124Y-100118D01*
X63644Y-93818D02*
Y-101378D01*
X67424D01*
X68684Y-100118D01*
Y-98858D01*
X67424Y-97598D01*
X63644D01*
X67424D01*
X68684Y-96338D01*
Y-95078D01*
X67424Y-93818D01*
X63644D01*
X83804Y-95078D02*
X82544Y-93818D01*
X80024D01*
X78764Y-95078D01*
Y-96338D01*
X80024Y-97598D01*
X82544D01*
X83804Y-98858D01*
Y-100118D01*
X82544Y-101378D01*
X80024D01*
X78764Y-100118D01*
X86324Y-96338D02*
Y-100118D01*
X87584Y-101378D01*
X91364D01*
Y-96338D01*
X93884D02*
Y-101378D01*
Y-98858D01*
X95144Y-97598D01*
X96404Y-96338D01*
X97664D01*
X102704Y-101378D02*
Y-95078D01*
Y-97598D01*
X101444D01*
X103964D01*
X102704D01*
Y-95078D01*
X103964Y-93818D01*
X109004Y-96338D02*
X111524D01*
X112784Y-97598D01*
Y-101378D01*
X109004D01*
X107744Y-100118D01*
X109004Y-98858D01*
X112784D01*
X120344Y-96338D02*
X116564D01*
X115304Y-97598D01*
Y-100118D01*
X116564Y-101378D01*
X120344D01*
X126644D02*
X124124D01*
X122864Y-100118D01*
Y-97598D01*
X124124Y-96338D01*
X126644D01*
X127904Y-97598D01*
Y-98858D01*
X122864D01*
X130424Y-96338D02*
X131684D01*
Y-97598D01*
X130424D01*
Y-96338D01*
Y-100118D02*
X131684D01*
Y-101378D01*
X130424D01*
Y-100118D01*
X395768Y-43259D02*
Y-33762D01*
X400516D01*
X402099Y-35345D01*
Y-38511D01*
X400516Y-40094D01*
X395768D01*
X398933D02*
X402099Y-43259D01*
X411596Y-33762D02*
X405265D01*
Y-43259D01*
X411596D01*
X405265Y-38511D02*
X408430D01*
X414762Y-33762D02*
Y-40094D01*
X417927Y-43259D01*
X421093Y-40094D01*
Y-33762D01*
X424259Y-36928D02*
X425841D01*
Y-38511D01*
X424259D01*
Y-36928D01*
Y-41677D02*
X425841D01*
Y-43259D01*
X424259D01*
Y-41677D01*
X464567Y-34468D02*
Y-42028D01*
X468347D01*
X469607Y-40767D01*
Y-35728D01*
X468347Y-34468D01*
X464567D01*
X472127Y-42028D02*
Y-36988D01*
X474647Y-34468D01*
X477167Y-36988D01*
Y-42028D01*
Y-38247D01*
X472127D01*
X479687Y-34468D02*
X484727D01*
X482207D01*
Y-42028D01*
X492287Y-34468D02*
X487247D01*
Y-42028D01*
X492287D01*
X487247Y-38247D02*
X489767D01*
X494807Y-36988D02*
X496067D01*
Y-38247D01*
X494807D01*
Y-36988D01*
Y-40767D02*
X496067D01*
Y-42028D01*
X494807D01*
Y-40767D01*
X50550Y-63281D02*
Y-55721D01*
X53070Y-58241D01*
X55590Y-55721D01*
Y-63281D01*
X58110D02*
Y-58241D01*
X60630Y-55721D01*
X63150Y-58241D01*
Y-63281D01*
Y-59501D01*
X58110D01*
X65670Y-55721D02*
X70710D01*
X68190D01*
Y-63281D01*
X78270Y-55721D02*
X73230D01*
Y-63281D01*
X78270D01*
X73230Y-59501D02*
X75750D01*
X80790Y-63281D02*
Y-55721D01*
X84570D01*
X85830Y-56981D01*
Y-59501D01*
X84570Y-60761D01*
X80790D01*
X83310D02*
X85830Y-63281D01*
X88350Y-55721D02*
X90870D01*
X89610D01*
Y-63281D01*
X88350D01*
X90870D01*
X94650D02*
Y-58241D01*
X97170Y-55721D01*
X99690Y-58241D01*
Y-63281D01*
Y-59501D01*
X94650D01*
X102210Y-55721D02*
Y-63281D01*
X107250D01*
X109770Y-58241D02*
X111030D01*
Y-59501D01*
X109770D01*
Y-58241D01*
Y-62021D02*
X111030D01*
Y-63281D01*
X109770D01*
Y-62021D01*
X212500Y-92342D02*
Y-99902D01*
X216280D01*
X217540Y-98642D01*
Y-93602D01*
X216280Y-92342D01*
X212500D01*
X220060Y-94862D02*
Y-99902D01*
Y-97382D01*
X221320Y-96122D01*
X222580Y-94862D01*
X223840D01*
X228880D02*
X231400D01*
X232660Y-96122D01*
Y-99902D01*
X228880D01*
X227620Y-98642D01*
X228880Y-97382D01*
X232660D01*
X235180Y-94862D02*
Y-98642D01*
X236440Y-99902D01*
X237700Y-98642D01*
X238960Y-99902D01*
X240220Y-98642D01*
Y-94862D01*
X242740Y-99902D02*
X245260D01*
X244000D01*
Y-94862D01*
X242740D01*
X249040Y-99902D02*
Y-94862D01*
X252820D01*
X254080Y-96122D01*
Y-99902D01*
X259120Y-102422D02*
X260380D01*
X261640Y-101162D01*
Y-94862D01*
X257860D01*
X256600Y-96122D01*
Y-98642D01*
X257860Y-99902D01*
X261640D01*
X264160Y-94862D02*
X265420D01*
Y-96122D01*
X264160D01*
Y-94862D01*
Y-98642D02*
X265420D01*
Y-99902D01*
X264160D01*
Y-98642D01*
X215768Y-56397D02*
X214508Y-55137D01*
X211988D01*
X210728Y-56397D01*
Y-57657D01*
X211988Y-58917D01*
X214508D01*
X215768Y-60177D01*
Y-61437D01*
X214508Y-62697D01*
X211988D01*
X210728Y-61437D01*
X218288Y-62697D02*
X220808D01*
X219548D01*
Y-57657D01*
X218288D01*
X224588Y-62697D02*
X227109D01*
X225849D01*
Y-55137D01*
X224588D01*
X230889Y-62697D02*
Y-55137D01*
Y-60177D02*
X234668Y-57657D01*
X230889Y-60177D02*
X234668Y-62697D01*
X238449D02*
X242229D01*
X243489Y-61437D01*
X242229Y-60177D01*
X239709D01*
X238449Y-58917D01*
X239709Y-57657D01*
X243489D01*
X251049D02*
X247269D01*
X246009Y-58917D01*
Y-61437D01*
X247269Y-62697D01*
X251049D01*
X253569Y-57657D02*
Y-62697D01*
Y-60177D01*
X254829Y-58917D01*
X256089Y-57657D01*
X257349D01*
X264909Y-62697D02*
X262389D01*
X261129Y-61437D01*
Y-58917D01*
X262389Y-57657D01*
X264909D01*
X266169Y-58917D01*
Y-60177D01*
X261129D01*
X272469Y-62697D02*
X269949D01*
X268689Y-61437D01*
Y-58917D01*
X269949Y-57657D01*
X272469D01*
X273729Y-58917D01*
Y-60177D01*
X268689D01*
X276249Y-62697D02*
Y-57657D01*
X280029D01*
X281289Y-58917D01*
Y-62697D01*
X296409Y-57657D02*
X292629D01*
X291369Y-58917D01*
Y-61437D01*
X292629Y-62697D01*
X296409D01*
X300189D02*
X302709D01*
X303969Y-61437D01*
Y-58917D01*
X302709Y-57657D01*
X300189D01*
X298929Y-58917D01*
Y-61437D01*
X300189Y-62697D01*
X306489D02*
X309009D01*
X307749D01*
Y-55137D01*
X306489D01*
X314049Y-62697D02*
X316569D01*
X317829Y-61437D01*
Y-58917D01*
X316569Y-57657D01*
X314049D01*
X312789Y-58917D01*
Y-61437D01*
X314049Y-62697D01*
X320349Y-57657D02*
Y-62697D01*
Y-60177D01*
X321609Y-58917D01*
X322869Y-57657D01*
X324129D01*
X327909D02*
X329169D01*
Y-58917D01*
X327909D01*
Y-57657D01*
Y-61437D02*
X329169D01*
Y-62697D01*
X327909D01*
Y-61437D01*
X341769Y-57657D02*
Y-61437D01*
X343029Y-62697D01*
X344289Y-61437D01*
X345549Y-62697D01*
X346809Y-61437D01*
Y-57657D01*
X349329Y-55137D02*
Y-62697D01*
Y-58917D01*
X350589Y-57657D01*
X353110D01*
X354369Y-58917D01*
Y-62697D01*
X356890D02*
X359409D01*
X358150D01*
Y-57657D01*
X356890D01*
X364450Y-56397D02*
Y-57657D01*
X363190D01*
X365710D01*
X364450D01*
Y-61437D01*
X365710Y-62697D01*
X373270D02*
X370750D01*
X369490Y-61437D01*
Y-58917D01*
X370750Y-57657D01*
X373270D01*
X374530Y-58917D01*
Y-60177D01*
X369490D01*
X49270Y-74471D02*
Y-82031D01*
X53050D01*
X54310Y-80771D01*
Y-79511D01*
X53050Y-78251D01*
X49270D01*
X53050D01*
X54310Y-76991D01*
Y-75731D01*
X53050Y-74471D01*
X49270D01*
X58090Y-82031D02*
X60610D01*
X61870Y-80771D01*
Y-78251D01*
X60610Y-76991D01*
X58090D01*
X56830Y-78251D01*
Y-80771D01*
X58090Y-82031D01*
X65650Y-76991D02*
X68170D01*
X69431Y-78251D01*
Y-82031D01*
X65650D01*
X64390Y-80771D01*
X65650Y-79511D01*
X69431D01*
X71951Y-76991D02*
Y-82031D01*
Y-79511D01*
X73211Y-78251D01*
X74471Y-76991D01*
X75731D01*
X84551Y-74471D02*
Y-82031D01*
X80771D01*
X79511Y-80771D01*
Y-78251D01*
X80771Y-76991D01*
X84551D01*
X94631Y-74471D02*
X99671D01*
X97151D01*
Y-82031D01*
X102191Y-74471D02*
Y-82031D01*
Y-78251D01*
X103451Y-76991D01*
X105971D01*
X107231Y-78251D01*
Y-82031D01*
X109751D02*
X112271D01*
X111011D01*
Y-76991D01*
X109751D01*
X121091D02*
X117311D01*
X116051Y-78251D01*
Y-80771D01*
X117311Y-82031D01*
X121091D01*
X123611D02*
Y-74471D01*
Y-79511D02*
X127391Y-76991D01*
X123611Y-79511D02*
X127391Y-82031D01*
X131171D02*
Y-76991D01*
X134951D01*
X136211Y-78251D01*
Y-82031D01*
X142511D02*
X139991D01*
X138731Y-80771D01*
Y-78251D01*
X139991Y-76991D01*
X142511D01*
X143771Y-78251D01*
Y-79511D01*
X138731D01*
X146291Y-82031D02*
X150071D01*
X151331Y-80771D01*
X150071Y-79511D01*
X147551D01*
X146291Y-78251D01*
X147551Y-76991D01*
X151331D01*
X153851Y-82031D02*
X157631D01*
X158891Y-80771D01*
X157631Y-79511D01*
X155111D01*
X153851Y-78251D01*
X155111Y-76991D01*
X158891D01*
X161411D02*
X162671D01*
Y-78251D01*
X161411D01*
Y-76991D01*
Y-80771D02*
X162671D01*
Y-82031D01*
X161411D01*
Y-80771D01*
X211516Y-74527D02*
Y-82087D01*
X216556D01*
X220336Y-77047D02*
X222856D01*
X224116Y-78307D01*
Y-82087D01*
X220336D01*
X219076Y-80827D01*
X220336Y-79567D01*
X224116D01*
X226636Y-77047D02*
Y-80827D01*
X227896Y-82087D01*
X231676D01*
Y-83347D01*
X230416Y-84607D01*
X229156D01*
X231676Y-82087D02*
Y-77047D01*
X237976Y-82087D02*
X235456D01*
X234196Y-80827D01*
Y-78307D01*
X235456Y-77047D01*
X237976D01*
X239236Y-78307D01*
Y-79567D01*
X234196D01*
X241756Y-77047D02*
Y-82087D01*
Y-79567D01*
X243016Y-78307D01*
X244276Y-77047D01*
X245536D01*
X249316Y-82087D02*
X253096D01*
X254356Y-80827D01*
X253096Y-79567D01*
X250576D01*
X249316Y-78307D01*
X250576Y-77047D01*
X254356D01*
X256876D02*
X258136D01*
Y-78307D01*
X256876D01*
Y-77047D01*
Y-80827D02*
X258136D01*
Y-82087D01*
X256876D01*
Y-80827D01*
X270736Y-75787D02*
X271996Y-74527D01*
X274516D01*
X275776Y-75787D01*
Y-80827D01*
X274516Y-82087D01*
X271996D01*
X270736Y-80827D01*
Y-75787D01*
X283336Y-82087D02*
X278296D01*
X283336Y-77047D01*
Y-75787D01*
X282076Y-74527D01*
X279556D01*
X278296Y-75787D01*
D17*
X51181Y-33952D02*
X57846D01*
X54513D01*
Y-43948D01*
X61178Y-33952D02*
X64510D01*
X62844D01*
Y-43948D01*
X61178D01*
X64510D01*
X69508Y-33952D02*
X76173D01*
X72841D01*
Y-43948D01*
X79505Y-33952D02*
Y-43948D01*
X86170D01*
X96167Y-33952D02*
X89502D01*
Y-43948D01*
X96167D01*
X89502Y-38950D02*
X92834D01*
X99499Y-37284D02*
X101165D01*
Y-38950D01*
X99499D01*
Y-37284D01*
Y-42282D02*
X101165D01*
Y-43948D01*
X99499D01*
Y-42282D01*
X117826Y-33952D02*
X121159D01*
X119492D01*
Y-43948D01*
X117826D01*
X121159D01*
X126157Y-33952D02*
X129489D01*
X127823D01*
Y-43948D01*
X126157D01*
X129489D01*
X134487D02*
Y-33952D01*
X139486D01*
X141152Y-35618D01*
Y-38950D01*
X139486Y-40616D01*
X134487D01*
X154481Y-43948D02*
Y-33952D01*
X161146Y-43948D01*
Y-33952D01*
X164478Y-43948D02*
Y-42282D01*
X166144D01*
Y-43948D01*
X164478D01*
X172809D02*
X176141D01*
X174475D01*
Y-33952D01*
X172809Y-35618D01*
X191136Y-33952D02*
Y-43948D01*
X196134D01*
X197800Y-42282D01*
Y-40616D01*
X196134Y-38950D01*
X191136D01*
X196134D01*
X197800Y-37284D01*
Y-35618D01*
X196134Y-33952D01*
X191136D01*
X206131D02*
X202799D01*
X201133Y-35618D01*
Y-42282D01*
X202799Y-43948D01*
X206131D01*
X207797Y-42282D01*
Y-35618D01*
X206131Y-33952D01*
X211129Y-43948D02*
Y-37284D01*
X214462Y-33952D01*
X217794Y-37284D01*
Y-43948D01*
Y-38950D01*
X211129D01*
X221126Y-43948D02*
Y-33952D01*
X226125D01*
X227791Y-35618D01*
Y-38950D01*
X226125Y-40616D01*
X221126D01*
X224458D02*
X227791Y-43948D01*
X231123Y-33952D02*
Y-43948D01*
X236121D01*
X237788Y-42282D01*
Y-35618D01*
X236121Y-33952D01*
X231123D01*
X257781Y-35618D02*
X256115Y-33952D01*
X252783D01*
X251116Y-35618D01*
Y-42282D01*
X252783Y-43948D01*
X256115D01*
X257781Y-42282D01*
X261113Y-33952D02*
Y-43948D01*
Y-38950D01*
X267778D01*
Y-33952D01*
Y-43948D01*
X271110D02*
Y-37284D01*
X274442Y-33952D01*
X277775Y-37284D01*
Y-43948D01*
Y-38950D01*
X271110D01*
X281107Y-43948D02*
Y-33952D01*
X286105D01*
X287771Y-35618D01*
Y-38950D01*
X286105Y-40616D01*
X281107D01*
X284439D02*
X287771Y-43948D01*
X297768Y-35618D02*
X296102Y-33952D01*
X292770D01*
X291104Y-35618D01*
Y-42282D01*
X292770Y-43948D01*
X296102D01*
X297768Y-42282D01*
Y-38950D01*
X294436D01*
X307765Y-33952D02*
X301100D01*
Y-43948D01*
X307765D01*
X301100Y-38950D02*
X304433D01*
M02*
