M48
;Layer_Color=9474304
;FILE_FORMAT=2:5
INCH,LZ
;TYPE=PLATED
T1F00S00C0.01181
T2F00S00C0.03543
T3F00S00C0.03937
T4F00S00C0.12598
%
T01
X0075394Y0016535
X0080315
X0143898
X0148819
X0077362Y0081496
X0072441
X0067272
X00625Y0081432
T02
X0244094Y007874
X0165866Y0069095
X0065472
T03
X0205866Y0047165
X0215866
X0225866
Y0057165
X0215866
X0205866
X0260827Y0050787
X0270669
X0195866Y0047165
X0185866
X0175866
X0165866
Y0057165
X0175866
X0185866
X0195866
X0125472Y0057165
X0115472
X0105472
X0095472
X0085472
X0075472
X0065472
Y0047165
X0075472
X0085472
X0095472
X0105472
X0115472
X0125472
T04
X0012402Y0011811
X0312402
Y0098425
X0012402
M30
